<svg width="44" height="44" viewBox="0 0 44 44" fill="none" xmlns="http://www.w3.org/2000/svg">
<path fill-rule="evenodd" clip-rule="evenodd" d="M13.6426 43.5083C12.5923 43.3193 11.5772 43.0288 10.6079 42.6465C5.49707 40.6714 1.63843 36.1616 0.56006 30.6489C0.23535 29.4736 0 26.0322 0 21.9697C0 17.9937 0.22534 14.6123 0.53955 13.3682C1.75293 6.90626 6.75464 2.02637 13.3252 0.59473C14.3823 0.25244 17.8967 0 22.0693 0C26.1274 0 29.5625 0.23877 30.7212 0.56689C30.748 0.57177 30.7732 0.57666 30.7964 0.58154C37.1021 1.85742 42.0776 6.82373 43.3941 13.1421C43.7424 14.1484 44 17.7192 44 21.9697C44 26.0176 43.7664 29.4497 43.4434 30.6367C42.0982 37.6304 36.2815 43.0225 29.1016 43.6924C27.4404 43.8794 24.8701 44 21.9849 44C18.2412 44 15.0276 43.7969 13.6426 43.5083V43.5083Z" fill="#5135FF"/>
<path opacity="0.45" d="M13.8519 10.0742C13.0955 10.0742 12.3701 10.3747 11.8353 10.9095C11.3005 11.4443 11 12.1697 11 12.9261V33.1483C11 33.9046 11.3005 34.63 11.8353 35.1649C12.3701 35.6997 13.0955 36.0001 13.8519 36.0001H30.963C31.7193 36.0001 32.4447 35.6997 32.9795 35.1649C33.5144 34.63 33.8148 33.9046 33.8148 33.1483V12.9261C33.8148 12.1697 33.5144 11.4443 32.9795 10.9095C32.4447 10.3747 31.7193 10.0742 30.963 10.0742H13.8519Z" fill="white"/>
<path fill-rule="evenodd" clip-rule="evenodd" d="M26.757 19.2403C26.9583 19.3721 27.099 19.5784 27.1482 19.8139C27.1974 20.0494 27.151 20.2948 27.0193 20.4962L21.9825 28.2003C21.9055 28.3178 21.8024 28.4159 21.6811 28.4867C21.5599 28.5576 21.4238 28.5993 21.2837 28.6087C21.1435 28.618 21.0031 28.5947 20.8735 28.5406C20.7439 28.4865 20.6287 28.403 20.5368 28.2968L17.7213 25.0373C17.5808 24.8538 17.5157 24.6236 17.5392 24.3937C17.5627 24.1638 17.673 23.9516 17.8476 23.8002C18.0223 23.6489 18.2481 23.5698 18.479 23.5793C18.7099 23.5887 18.9285 23.6859 19.0902 23.851L21.1176 26.1988L25.4959 19.5027C25.5612 19.4023 25.6457 19.3158 25.7445 19.2483C25.8434 19.1807 25.9546 19.1333 26.0718 19.1089C26.1891 19.0846 26.3099 19.0836 26.4275 19.1061C26.5451 19.1287 26.6571 19.1743 26.757 19.2403Z" fill="white"/>
<path d="M27.593 8H17.2226C16.6498 8 16.1855 8.4643 16.1855 9.03704V13.1852C16.1855 13.7579 16.6498 14.2222 17.2226 14.2222H27.593C28.1657 14.2222 28.63 13.7579 28.63 13.1852V9.03704C28.63 8.4643 28.1657 8 27.593 8Z" fill="white"/>
</svg>
