<svg width="32" height="32" viewBox="0 0 32 32" fill="none" xmlns="http://www.w3.org/2000/svg">
<path fill-rule="evenodd" clip-rule="evenodd" d="M6.45224 3.06945C8.93066 2.40218 12.306 2 16 2C19.694 2 23.0694 2.40218 25.5478 3.06945C26.7815 3.40161 27.8399 3.81176 28.6085 4.30101C29.3517 4.77405 30 5.43941 30 6.30767C30 7.17594 29.3517 7.84131 28.6085 8.31433C27.8399 8.80359 26.7815 9.21373 25.5478 9.54595C23.0694 10.2132 19.694 10.6154 16 10.6154C12.306 10.6154 8.93066 10.2132 6.45224 9.54595C5.21849 9.21373 4.16012 8.80359 3.39149 8.31433C2.64835 7.84131 2 7.17594 2 6.30767C2 5.43941 2.64835 4.77405 3.39149 4.30101C4.16012 3.81176 5.21849 3.40161 6.45224 3.06945Z" fill="#5135FF"/>
<path opacity="0.45" d="M2 15.9995V25.3329C2 26.2735 2.64835 26.9943 3.39149 27.5068C4.16012 28.0369 5.21849 28.4812 6.45224 28.841C8.93066 29.5638 12.306 29.9996 16 29.9996C19.694 29.9996 23.0694 29.5638 25.5478 28.841C26.7815 28.4812 27.8399 28.0369 28.6085 27.5068C29.3517 26.9943 30 26.2735 30 25.3329V15.9995C30 16.9401 29.3517 17.6609 28.6085 18.1734C27.8399 18.7035 26.7815 19.1478 25.5478 19.5076C23.0694 20.2304 19.694 20.6661 16 20.6661C12.306 20.6661 8.93066 20.2304 6.45224 19.5076C5.21849 19.1478 4.16012 18.7035 3.39149 18.1734C2.64835 17.6609 2 16.9401 2 15.9995Z" fill="#5135FF"/>
<path opacity="0.75" fill-rule="evenodd" clip-rule="evenodd" d="M2 6.6665H30V15.9999C30 16.9404 29.3517 17.6612 28.6085 18.1737C27.8399 18.7038 26.7815 19.1481 25.5478 19.5079C23.0694 20.2308 19.694 20.6665 16 20.6665C12.306 20.6665 8.93066 20.2308 6.45224 19.5079C5.21849 19.1481 4.16012 18.7038 3.39149 18.1737C2.64835 17.6612 2 16.9404 2 15.9999V6.6665Z" fill="#5135FF"/>
</svg>
