<svg width="32" height="32" viewBox="0 0 32 32" fill="none" xmlns="http://www.w3.org/2000/svg">
<path opacity="0.45" d="M14.9404 2C12.3895 2.00275 9.90628 2.82003 7.85397 4.33234C5.80166 5.84465 4.28787 7.97266 3.53395 10.4052C2.78004 12.8378 2.82554 15.4473 3.6638 17.8522C4.50206 20.2571 6.08912 22.3312 8.19291 23.7713V28.1857C8.19318 28.6665 8.38474 29.1276 8.72546 29.4675C9.06619 29.8074 9.52819 29.9983 10.0099 29.9983H19.7806C20.0332 30.0091 20.2854 29.9676 20.5212 29.8764C20.757 29.7852 20.9714 29.6464 21.1509 29.4686C21.3304 29.2908 21.4712 29.0778 21.5643 28.8431C21.6574 28.6085 21.701 28.3571 21.6921 28.1048L21.4012 25.8546H24.0286C24.7862 25.8546 25.513 25.555 26.0498 25.0213C26.5867 24.4876 26.8897 23.7633 26.8928 23.0071V19.2947L28.2641 19.107C28.6657 19.094 29.0521 18.9507 29.3647 18.6988C29.6774 18.447 29.8994 18.1003 29.9969 17.7112C30.0123 17.4278 29.9695 17.1443 29.871 16.8781C29.7726 16.6118 29.6206 16.3685 29.4245 16.163L26.8803 13.0635C26.8803 13.004 26.8803 12.9449 26.8803 12.8862C26.8824 6.20494 21.4283 2 14.9404 2Z" fill="#5135FF"/>
<g opacity="0.75">
<path fill-rule="evenodd" clip-rule="evenodd" d="M17.5431 11.9568H12.3487V10.4014H17.5431V11.9568Z" fill="#5135FF"/>
<path fill-rule="evenodd" clip-rule="evenodd" d="M17.5431 18.8828C13.1165 18.8828 10.0029 16.0591 10.0029 12.7584H11.5613C11.5613 14.9672 13.7232 17.3273 17.5431 17.3273V18.8828Z" fill="#5135FF"/>
</g>
<path d="M10.6046 13.5861C11.9363 13.5861 13.0158 12.5085 13.0158 11.1793C13.0158 9.85003 11.9363 8.77246 10.6046 8.77246C9.27291 8.77246 8.19336 9.85003 8.19336 11.1793C8.19336 12.5085 9.27291 13.5861 10.6046 13.5861Z" fill="#5135FF"/>
<path d="M19.287 13.5861C20.6187 13.5861 21.6982 12.5085 21.6982 11.1793C21.6982 9.85003 20.6187 8.77246 19.287 8.77246C17.9553 8.77246 16.8757 9.85003 16.8757 11.1793C16.8757 12.5085 17.9553 13.5861 19.287 13.5861Z" fill="#5135FF"/>
<path d="M19.287 20.3264C20.6187 20.3264 21.6982 19.2489 21.6982 17.9196C21.6982 16.5904 20.6187 15.5128 19.287 15.5128C17.9553 15.5128 16.8757 16.5904 16.8757 17.9196C16.8757 19.2489 17.9553 20.3264 19.287 20.3264Z" fill="#5135FF"/>
</svg>
