<svg width="32" height="32" viewBox="0 0 32 32" fill="none" xmlns="http://www.w3.org/2000/svg">
<path opacity="0.45" d="M7.85185 4.07422C7.09549 4.07422 6.37011 4.37468 5.83529 4.90951C5.30046 5.44433 5 6.16971 5 6.92607V27.1483C5 27.9046 5.30046 28.63 5.83529 29.1649C6.37011 29.6997 7.09549 30.0001 7.85185 30.0001H24.963C25.7193 30.0001 26.4447 29.6997 26.9795 29.1649C27.5144 28.63 27.8148 27.9046 27.8148 27.1483V6.92607C27.8148 6.16971 27.5144 5.44433 26.9795 4.90951C26.4447 4.37468 25.7193 4.07422 24.963 4.07422H7.85185Z" fill="#5135FF"/>
<path fill-rule="evenodd" clip-rule="evenodd" d="M20.757 13.2403C20.9583 13.3721 21.099 13.5784 21.1482 13.8139C21.1974 14.0494 21.151 14.2948 21.0193 14.4962L15.9825 22.2003C15.9055 22.3178 15.8024 22.4159 15.6811 22.4867C15.5599 22.5576 15.4238 22.5993 15.2837 22.6087C15.1435 22.618 15.0031 22.5947 14.8735 22.5406C14.7439 22.4865 14.6287 22.403 14.5368 22.2968L11.7213 19.0373C11.5808 18.8538 11.5157 18.6236 11.5392 18.3937C11.5627 18.1638 11.673 17.9516 11.8476 17.8002C12.0223 17.6489 12.2481 17.5698 12.479 17.5793C12.7099 17.5887 12.9285 17.6859 13.0902 17.851L15.1176 20.1988L19.4959 13.5027C19.5612 13.4023 19.6457 13.3158 19.7445 13.2483C19.8434 13.1807 19.9546 13.1333 20.0718 13.1089C20.1891 13.0846 20.3099 13.0836 20.4275 13.1061C20.5451 13.1287 20.6571 13.1743 20.757 13.2403Z" fill="#5135FF"/>
<path d="M21.593 2H11.2226C10.6498 2 10.1855 2.4643 10.1855 3.03704V7.18519C10.1855 7.75793 10.6498 8.22222 11.2226 8.22222H21.593C22.1657 8.22222 22.63 7.75793 22.63 7.18519V3.03704C22.63 2.4643 22.1657 2 21.593 2Z" fill="#5135FF"/>
</svg>
