<svg width="32" height="32" viewBox="0 0 32 32" fill="none" xmlns="http://www.w3.org/2000/svg">
<path opacity="0.45" fill-rule="evenodd" clip-rule="evenodd" d="M15.726 2.04999C15.9027 1.98399 16.0973 1.98399 16.274 2.04999L29.125 6.86099C29.3797 6.95373 29.6001 7.12209 29.7564 7.34353C29.9128 7.56497 29.9978 7.82891 30 8.1V9.23099C30.0002 11.8821 29.766 14.5281 29.3 17.138C29.0694 18.4267 28.6605 19.6771 28.085 20.853L27.61 21.823C26.7314 23.6131 25.4445 25.1716 23.853 26.373C22.2628 27.5753 20.4904 28.5152 18.603 29.157L16.253 29.957C16.0908 30.0116 15.9152 30.0116 15.753 29.957L13.403 29.157C11.5156 28.5153 9.74313 27.5753 8.153 26.373C6.56154 25.1716 5.27463 23.613 4.396 21.823L3.777 20.558C3.29855 19.5807 2.95025 18.5448 2.741 17.477C2.24996 14.9771 2.00181 12.4356 2 9.88799V8.1C2.00235 7.82869 2.08749 7.56457 2.24404 7.34297C2.40059 7.12137 2.62107 6.95287 2.876 6.85999L15.726 2.04999Z" fill="#5135FF"/>
<path opacity="0.75" fill-rule="evenodd" clip-rule="evenodd" d="M15.715 7.05298C15.8986 6.98299 16.1014 6.98299 16.285 7.05298L24.263 10.123C24.4778 10.2032 24.6632 10.3468 24.7948 10.5346C24.9264 10.7224 24.9979 10.9457 25 11.175V12.061C25 13.6575 24.8625 15.251 24.589 16.824C24.4201 17.792 24.0927 18.7255 23.62 19.587L23.483 19.838C22.9084 20.8834 22.1256 21.7999 21.183 22.531C20.0943 23.3786 18.8751 24.0436 17.573 24.5L16.262 24.959C16.0923 25.0178 15.9077 25.0178 15.738 24.959L14.427 24.5C13.1245 24.045 11.9046 23.3814 10.815 22.535C9.87238 21.8039 9.08961 20.8874 8.51501 19.842L8.27001 19.395C7.87005 18.666 7.58694 17.8787 7.431 17.062C7.14335 15.5472 6.99905 14.0088 7 12.467V11.177C7.00197 10.9471 7.07367 10.7233 7.20563 10.5351C7.33759 10.3469 7.52359 10.2032 7.739 10.123L15.715 7.05298Z" fill="#5135FF"/>
<path d="M16 7V25C16.0892 24.9999 16.1778 24.9846 16.262 24.955L17.573 24.496C18.8755 24.0411 20.0954 23.3774 21.185 22.531C22.1276 21.7999 22.9104 20.8834 23.485 19.838L23.622 19.587C24.0947 18.7256 24.4221 17.792 24.591 16.824C24.8638 15.251 25.0006 13.6575 25 12.061V11.175C24.9981 10.9455 24.9267 10.722 24.7951 10.534C24.6635 10.346 24.478 10.2023 24.263 10.122L16.285 7.052C16.194 7.01732 16.0974 6.99969 16 7Z" fill="#5135FF"/>
</svg>
