<svg width="44" height="44" viewBox="0 0 44 44" fill="none" xmlns="http://www.w3.org/2000/svg">
<path fill-rule="evenodd" clip-rule="evenodd" d="M13.6426 43.5083C12.5923 43.3193 11.5772 43.0288 10.6079 42.6465C5.49707 40.6714 1.63843 36.1616 0.56006 30.6489C0.23535 29.4736 0 26.0322 0 21.9697C0 17.9937 0.22534 14.6123 0.53955 13.3682C1.75293 6.90626 6.75464 2.02637 13.3252 0.59473C14.3823 0.25244 17.8967 0 22.0693 0C26.1274 0 29.5625 0.23877 30.7212 0.56689C30.748 0.57177 30.7732 0.57666 30.7964 0.58154C37.1021 1.85742 42.0776 6.82373 43.3941 13.1421C43.7424 14.1484 44 17.7192 44 21.9697C44 26.0176 43.7664 29.4497 43.4434 30.6367C42.0982 37.6304 36.2815 43.0225 29.1016 43.6924C27.4404 43.8794 24.8701 44 21.9849 44C18.2412 44 15.0276 43.7969 13.6426 43.5083V43.5083Z" fill="#5135FF"/>
<path d="M34.0156 25.878C33.0547 26.6043 31.8533 27.0006 30.6141 27H26.0001V21.3285L26.966 22.2944C27.3565 22.6849 27.9897 22.6849 28.3802 22.2944C28.7707 21.9039 28.7707 21.2707 28.3802 20.8802L25.7929 18.2929C25.5937 18.0937 25.3315 17.9961 25.0705 18.0001C24.8095 17.9961 24.5472 18.0937 24.3481 18.2929L21.793 20.8479C21.4025 21.2385 21.4025 21.8716 21.793 22.2622C22.1835 22.6527 22.8167 22.6527 23.2072 22.2622L24.0001 21.4693V27H14.4655C12.7974 27.0014 11.1935 26.4037 9.98937 25.332C8.78527 24.2602 8.07437 22.7975 8.00551 21.2501C7.93665 19.7027 8.51516 18.1906 9.61993 17.0303C10.7247 15.87 12.2701 15.1514 13.9325 15.0251C14.6704 13.067 16.1145 11.4059 18.0202 10.323C19.9259 9.2401 22.1762 8.80199 24.3899 9.08285C26.6036 9.3637 28.6447 10.3463 30.1677 11.8642C31.6906 13.382 32.6018 15.342 32.7469 17.4121C33.8849 17.8673 34.8189 18.673 35.3913 19.6934C35.9636 20.7138 36.1394 21.8863 35.8887 23.013C35.6381 24.1397 34.9765 25.1516 34.0156 25.878Z" fill="white"/>
<path d="M18.2659 33.0938C18.2659 33.5943 18.6716 34 19.1721 34C19.6725 34 20.0782 33.5943 20.0782 33.0938L20.0782 22.9062C20.0782 22.4057 19.6725 22 19.1721 22C18.6716 22 18.2659 22.4057 18.2659 22.9062L18.2659 33.0938Z" fill="white"/>
<path d="M16.2658 30.7378C15.912 31.1284 15.912 31.7615 16.2658 32.1521L18.5812 34.7071C18.9351 35.0976 19.5088 35.0976 19.8627 34.7071C20.2166 34.3166 20.2166 33.6834 19.8627 33.2929L17.5474 30.7378C17.1935 30.3473 16.6197 30.3473 16.2658 30.7378Z" fill="white"/>
<path d="M22.235 30.7056C21.8811 30.3151 21.3074 30.3151 20.9535 30.7056L18.6089 33.2929C18.2551 33.6834 18.2551 34.3166 18.6089 34.7071C18.9628 35.0976 19.5366 35.0976 19.8905 34.7071L22.235 32.1198C22.5889 31.7293 22.5889 31.0961 22.235 30.7056Z" fill="white"/>
</svg>
