<svg width="44" height="44" viewBox="0 0 44 44" fill="none" xmlns="http://www.w3.org/2000/svg">
<path fill-rule="evenodd" clip-rule="evenodd" d="M13.6426 43.5083C12.5923 43.3193 11.5772 43.0288 10.6079 42.6465C5.49707 40.6714 1.63843 36.1616 0.56006 30.6489C0.23535 29.4736 0 26.0322 0 21.9697C0 17.9937 0.22534 14.6123 0.53955 13.3682C1.75293 6.90626 6.75464 2.02637 13.3252 0.59473C14.3823 0.25244 17.8967 0 22.0693 0C26.1274 0 29.5625 0.23877 30.7212 0.56689C30.748 0.57177 30.7732 0.57666 30.7964 0.58154C37.1021 1.85742 42.0776 6.82373 43.3941 13.1421C43.7424 14.1484 44 17.7192 44 21.9697C44 26.0176 43.7664 29.4497 43.4434 30.6367C42.0982 37.6304 36.2815 43.0225 29.1016 43.6924C27.4404 43.8794 24.8701 44 21.9849 44C18.2412 44 15.0276 43.7969 13.6426 43.5083V43.5083Z" fill="#5135FF"/>
<path opacity="0.45" d="M19.5504 34.6383H9.05004C8.46937 34.6383 8 34.0236 8 33.2726V9.36573C8 8.61473 8.47042 8 9.05004 8H19.5504C20.1311 8 20.6004 8.61473 20.6004 9.36573V33.2726C20.6004 34.0236 20.1311 34.6383 19.5504 34.6383Z" fill="white"/>
<path d="M19.9511 36.0002C18.7556 35.9919 17.6073 35.5437 16.7358 34.7452C16.0516 34.115 15.5666 33.3068 15.3383 32.4161C15.11 31.5254 15.1479 30.5896 15.4476 29.7193C15.7472 28.849 16.2961 28.0806 17.0293 27.5051C17.7624 26.9297 18.6492 26.5711 19.5846 26.4719C20.0392 25.1532 20.8835 23.9953 22.0111 23.1437C23.1387 22.2921 24.4993 21.785 25.9216 21.6862C26.0822 21.675 26.246 21.6688 26.4067 21.6688C28.2501 21.6927 30.0157 22.3977 31.3472 23.6418C32.6788 24.886 33.4773 26.5765 33.5816 28.3725C34.2977 28.6649 34.9038 29.1658 35.3173 29.8068C35.7534 30.4733 35.9898 31.2455 35.9998 32.0362C35.9943 32.2502 35.9704 32.4634 35.9284 32.6735C35.756 33.5986 35.2592 34.4364 34.5232 35.0433C33.7872 35.6503 32.8577 35.9885 31.8942 36.0002H19.9511Z" fill="white"/>
<path d="M18.2668 15.1721H10.3327C10.2046 15.1721 10.0996 15.0195 10.0996 14.831V13.4642C10.0996 13.2757 10.2046 13.123 10.3327 13.123H18.2668C18.3959 13.123 18.4999 13.2757 18.4999 13.4642V14.831C18.4999 15.0195 18.3949 15.1721 18.2668 15.1721Z" fill="white"/>
<path d="M18.2668 19.2703H10.3327C10.2046 19.2703 10.0996 19.1177 10.0996 18.9292V17.5624C10.0996 17.3739 10.2046 17.2212 10.3327 17.2212H18.2668C18.3959 17.2212 18.4999 17.3739 18.4999 17.5624V18.9282C18.4999 19.1167 18.3949 19.2693 18.2668 19.2693" fill="white"/>
<path d="M18.2668 23.3686H10.3327C10.2046 23.3686 10.0996 23.2159 10.0996 23.0274V21.6606C10.0996 21.4721 10.2046 21.3195 10.3327 21.3195H18.2668C18.3959 21.3195 18.4999 21.4721 18.4999 21.6606V23.0264C18.4999 23.2149 18.3949 23.3686 18.2668 23.3686Z" fill="white"/>
</svg>
