<svg width="44" height="44" viewBox="0 0 44 44" fill="none" xmlns="http://www.w3.org/2000/svg">
<path fill-rule="evenodd" clip-rule="evenodd" d="M13.6426 43.5083C12.5923 43.3193 11.5772 43.0288 10.6079 42.6465C5.49707 40.6714 1.63843 36.1616 0.56006 30.6489C0.23535 29.4736 0 26.0322 0 21.9697C0 17.9937 0.22534 14.6123 0.53955 13.3682C1.75293 6.90626 6.75464 2.02637 13.3252 0.59473C14.3823 0.25244 17.8967 0 22.0693 0C26.1274 0 29.5625 0.23877 30.7212 0.56689C30.748 0.57177 30.7732 0.57666 30.7964 0.58154C37.1021 1.85742 42.0776 6.82373 43.3941 13.1421C43.7424 14.1484 44 17.7192 44 21.9697C44 26.0176 43.7664 29.4497 43.4434 30.6367C42.0982 37.6304 36.2815 43.0225 29.1016 43.6924C27.4404 43.8794 24.8701 44 21.9849 44C18.2412 44 15.0276 43.7969 13.6426 43.5083V43.5083Z" fill="#5135FF"/>
<path opacity="0.45" d="M33.8462 10H10.1538C8.96431 10 8 10.9768 8 12.1818V31.8182C8 33.0232 8.96431 34 10.1538 34H33.8462C35.0357 34 36 33.0232 36 31.8182V12.1818C36 10.9768 35.0357 10 33.8462 10Z" fill="white"/>
<path d="M8 12.1818C8 11.6032 8.22692 11.0482 8.63085 10.639C9.03477 10.2299 9.58261 10 10.1538 10H33.8462C34.4174 10 34.9652 10.2299 35.3692 10.639C35.7731 11.0482 36 11.6032 36 12.1818V16.5455H8V12.1818Z" fill="white"/>
<path d="M13.3848 25.8184C13.3848 25.6737 13.4415 25.535 13.5425 25.4327C13.6435 25.3304 13.7804 25.2729 13.9232 25.2729H15.0002C15.143 25.2729 15.2799 25.3304 15.3809 25.4327C15.4819 25.535 15.5386 25.6737 15.5386 25.8184V30.182C15.5386 30.3267 15.4819 30.4654 15.3809 30.5677C15.2799 30.67 15.143 30.7275 15.0002 30.7275H13.9232C13.7804 30.7275 13.6435 30.67 13.5425 30.5677C13.4415 30.4654 13.3848 30.3267 13.3848 30.182V25.8184Z" fill="white"/>
<path d="M20.3848 22.0002H19.3078C19.0105 22.0002 18.7694 22.2444 18.7694 22.5456V30.182C18.7694 30.4832 19.0105 30.7275 19.3078 30.7275H20.3848C20.6821 30.7275 20.9232 30.4832 20.9232 30.182V22.5456C20.9232 22.2444 20.6821 22.0002 20.3848 22.0002Z" fill="white"/>
<path d="M25.7694 24.182H24.6925C24.3951 24.182 24.154 24.4262 24.154 24.7275V30.182C24.154 30.4832 24.3951 30.7275 24.6925 30.7275H25.7694C26.0668 30.7275 26.3078 30.4832 26.3078 30.182V24.7275C26.3078 24.4262 26.0668 24.182 25.7694 24.182Z" fill="white"/>
<path d="M31.154 19.8184H30.0771C29.7797 19.8184 29.5386 20.0626 29.5386 20.3638V30.182C29.5386 30.4832 29.7797 30.7275 30.0771 30.7275H31.154C31.4514 30.7275 31.6925 30.4832 31.6925 30.182V20.3638C31.6925 20.0626 31.4514 19.8184 31.154 19.8184Z" fill="white"/>
</svg>
