<svg width="44" height="44" viewBox="0 0 44 44" fill="none" xmlns="http://www.w3.org/2000/svg">
<path fill-rule="evenodd" clip-rule="evenodd" d="M13.6426 43.5083C12.5923 43.3193 11.5772 43.0288 10.6079 42.6465C5.49707 40.6714 1.63843 36.1616 0.56006 30.6489C0.23535 29.4736 0 26.0322 0 21.9697C0 17.9937 0.22534 14.6123 0.53955 13.3682C1.75293 6.90626 6.75464 2.02637 13.3252 0.59473C14.3823 0.25244 17.8967 0 22.0693 0C26.1274 0 29.5625 0.23877 30.7212 0.56689C30.748 0.57177 30.7732 0.57666 30.7964 0.58154C37.1021 1.85742 42.0776 6.82373 43.3941 13.1421C43.7424 14.1484 44 17.7192 44 21.9697C44 26.0176 43.7664 29.4497 43.4434 30.6367C42.0982 37.6304 36.2815 43.0225 29.1016 43.6924C27.4404 43.8794 24.8701 44 21.9849 44C18.2412 44 15.0276 43.7969 13.6426 43.5083V43.5083Z" fill="#5135FF"/>
<path fill-rule="evenodd" clip-rule="evenodd" d="M12.4522 9.06945C14.9307 8.40218 18.306 8 22 8C25.694 8 29.0694 8.40218 31.5478 9.06945C32.7815 9.40161 33.8399 9.81176 34.6085 10.301C35.3517 10.774 36 11.4394 36 12.3077C36 13.1759 35.3517 13.8413 34.6085 14.3143C33.8399 14.8036 32.7815 15.2137 31.5478 15.546C29.0694 16.2132 25.694 16.6154 22 16.6154C18.306 16.6154 14.9307 16.2132 12.4522 15.546C11.2185 15.2137 10.1601 14.8036 9.39149 14.3143C8.64835 13.8413 8 13.1759 8 12.3077C8 11.4394 8.64835 10.774 9.39149 10.301C10.1601 9.81176 11.2185 9.40161 12.4522 9.06945Z" fill="white"/>
<path opacity="0.45" d="M8 21.9995V31.3329C8 32.2735 8.64835 32.9943 9.39149 33.5068C10.1601 34.0369 11.2185 34.4812 12.4522 34.841C14.9307 35.5638 18.306 35.9996 22 35.9996C25.694 35.9996 29.0694 35.5638 31.5478 34.841C32.7815 34.4812 33.8399 34.0369 34.6085 33.5068C35.3517 32.9943 36 32.2735 36 31.3329V21.9995C36 22.9401 35.3517 23.6609 34.6085 24.1734C33.8399 24.7035 32.7815 25.1478 31.5478 25.5076C29.0694 26.2304 25.694 26.6661 22 26.6661C18.306 26.6661 14.9307 26.2304 12.4522 25.5076C11.2185 25.1478 10.1601 24.7035 9.39149 24.1734C8.64835 23.6609 8 22.9401 8 21.9995Z" fill="white"/>
<path opacity="0.75" fill-rule="evenodd" clip-rule="evenodd" d="M8 12.6665H36V21.9999C36 22.9404 35.3517 23.6612 34.6085 24.1737C33.8399 24.7038 32.7815 25.1481 31.5478 25.5079C29.0694 26.2308 25.694 26.6665 22 26.6665C18.306 26.6665 14.9307 26.2308 12.4522 25.5079C11.2185 25.1481 10.1601 24.7038 9.39149 24.1737C8.64835 23.6612 8 22.9404 8 21.9999V12.6665Z" fill="white"/>
</svg>
