<svg width="44" height="44" viewBox="0 0 44 44" fill="none" xmlns="http://www.w3.org/2000/svg">
<path fill-rule="evenodd" clip-rule="evenodd" d="M13.6426 43.5083C12.5923 43.3193 11.5772 43.0288 10.6079 42.6465C5.49707 40.6714 1.63843 36.1616 0.56006 30.6489C0.23535 29.4736 0 26.0322 0 21.9697C0 17.9937 0.22534 14.6123 0.53955 13.3682C1.75293 6.90626 6.75464 2.02637 13.3252 0.59473C14.3823 0.25244 17.8967 0 22.0693 0C26.1274 0 29.5625 0.23877 30.7212 0.56689C30.748 0.57177 30.7732 0.57666 30.7964 0.58154C37.1021 1.85742 42.0776 6.82373 43.3941 13.1421C43.7424 14.1484 44 17.7192 44 21.9697C44 26.0176 43.7664 29.4497 43.4434 30.6367C42.0982 37.6304 36.2815 43.0225 29.1016 43.6924C27.4404 43.8794 24.8701 44 21.9849 44C18.2412 44 15.0276 43.7969 13.6426 43.5083V43.5083Z" fill="#5135FF"/>
<path opacity="0.45" fill-rule="evenodd" clip-rule="evenodd" d="M23.3418 8.31354C22.9243 8.10726 22.4652 8 22 8C21.5348 8 21.0757 8.10726 20.6582 8.31354L10.6584 13.2624C10.1627 13.505 9.74451 13.8824 9.45137 14.3518C9.15823 14.8212 9.00185 15.3637 9 15.918V28.0839C9.00185 28.6381 9.15823 29.1807 9.45137 29.6501C9.74451 30.1195 10.1627 30.4969 10.6584 30.7394L20.6582 35.6865C21.0757 35.8927 21.5348 36 22 36C22.4652 36 22.9243 35.8927 23.3418 35.6865L33.3416 30.7394C33.8372 30.4968 34.2554 30.1194 34.5485 29.65C34.8416 29.1806 34.998 28.6381 35 28.0839V15.918C34.9981 15.3637 34.8418 14.8212 34.5486 14.3518C34.2555 13.8824 33.8373 13.505 33.3416 13.2624L23.3418 8.31354ZM30.3571 17.6924C30.3574 17.4202 30.2883 17.1525 30.1566 16.9148L22 20.963V31.3349H22.039C22.2693 31.3291 22.4954 31.2721 22.7011 31.1679L29.4917 27.7292C29.7526 27.5964 29.9717 27.3933 30.1246 27.1426C30.2774 26.892 30.3579 26.6035 30.3571 26.3095V17.6924Z" fill="white"/>
<path opacity="0.45" fill-rule="evenodd" clip-rule="evenodd" d="M22.7018 12.834C22.4845 12.7239 22.2445 12.6665 22.0012 12.6665C21.7578 12.6665 21.5179 12.7239 21.3006 12.834L14.5099 16.2726C14.2488 16.4053 14.0295 16.6084 13.8765 16.859C13.7236 17.1097 13.6429 17.3982 13.6436 17.6923V26.3104C13.6429 26.6045 13.7236 26.893 13.8765 27.1437C14.0295 27.3944 14.2488 27.5975 14.5099 27.7301L21.3006 31.1688C21.5179 31.2788 21.7578 31.3362 22.0012 31.3362C22.2445 31.3362 22.4845 31.2788 22.7018 31.1688L29.4924 27.7301C29.7535 27.5973 29.9727 27.394 30.1255 27.1432C30.2783 26.8923 30.3588 26.6037 30.3578 26.3095V17.6923C30.3585 17.3982 30.2778 17.1097 30.1249 16.859C29.9719 16.6084 29.7526 16.4053 29.4915 16.2726L22.7018 12.834ZM30.3578 17.6923C30.3578 17.4201 30.2884 17.1525 30.1563 16.9148L22.0007 20.963V31.3349H22.0397C22.27 31.3292 22.4961 31.2721 22.7018 31.1679L29.4924 27.7292C29.7534 27.5964 29.9727 27.3938 30.1255 27.1432C30.2783 26.8923 30.3588 26.6037 30.3578 26.3095V17.6923Z" fill="white"/>
<path d="M30.1559 16.9148C30.0029 16.6386 29.771 16.4149 29.4901 16.2726L22.6994 12.834C22.4821 12.7239 22.2422 12.6665 21.9988 12.6665C21.7555 12.6665 21.5155 12.7239 21.2982 12.834L14.5076 16.2726C14.2267 16.4149 13.9948 16.6386 13.8418 16.9148L21.9993 20.9639L30.1559 16.9148Z" fill="white"/>
</svg>
