<svg width="32" height="32" viewBox="0 0 32 32" fill="none" xmlns="http://www.w3.org/2000/svg">
<path opacity="0.45" d="M13.5504 28.6383H3.05004C2.46937 28.6383 2 28.0236 2 27.2726V3.36573C2 2.61473 2.47042 2 3.05004 2H13.5504C14.1311 2 14.6004 2.61473 14.6004 3.36573V27.2726C14.6004 28.0236 14.1311 28.6383 13.5504 28.6383Z" fill="#5135FF"/>
<path d="M13.9511 30.0002C12.7556 29.9919 11.6073 29.5437 10.7358 28.7452C10.0516 28.115 9.56657 27.3068 9.33827 26.4161C9.10996 25.5254 9.14789 24.5896 9.44756 23.7193C9.74723 22.849 10.2961 22.0806 11.0293 21.5051C11.7624 20.9297 12.6492 20.5711 13.5846 20.4719C14.0392 19.1532 14.8835 17.9953 16.0111 17.1437C17.1387 16.2921 18.4993 15.785 19.9216 15.6862C20.0822 15.675 20.246 15.6688 20.4067 15.6688C22.2501 15.6927 24.0157 16.3977 25.3472 17.6418C26.6788 18.886 27.4773 20.5765 27.5816 22.3725C28.2977 22.6649 28.9038 23.1658 29.3173 23.8068C29.7534 24.4733 29.9898 25.2455 29.9998 26.0362C29.9943 26.2502 29.9704 26.4634 29.9284 26.6735C29.756 27.5986 29.2592 28.4364 28.5232 29.0433C27.7872 29.6503 26.8577 29.9885 25.8942 30.0002H13.9511Z" fill="#5135FF"/>
<path d="M12.2668 9.17215H4.33272C4.20461 9.17215 4.09961 9.01949 4.09961 8.83097V7.46422C4.09961 7.27571 4.20461 7.12305 4.33272 7.12305H12.2668C12.3959 7.12305 12.4999 7.27571 12.4999 7.46422V8.83097C12.4999 9.01949 12.3949 9.17215 12.2668 9.17215Z" fill="#5135FF"/>
<path d="M12.2668 13.2703H4.33272C4.20461 13.2703 4.09961 13.1177 4.09961 12.9292V11.5624C4.09961 11.3739 4.20461 11.2212 4.33272 11.2212H12.2668C12.3959 11.2212 12.4999 11.3739 12.4999 11.5624V12.9282C12.4999 13.1167 12.3949 13.2693 12.2668 13.2693" fill="#5135FF"/>
<path d="M12.2668 17.3686H4.33272C4.20461 17.3686 4.09961 17.2159 4.09961 17.0274V15.6606C4.09961 15.4721 4.20461 15.3195 4.33272 15.3195H12.2668C12.3959 15.3195 12.4999 15.4721 12.4999 15.6606V17.0264C12.4999 17.2149 12.3949 17.3686 12.2668 17.3686Z" fill="#5135FF"/>
</svg>
