<svg width="44" height="44" viewBox="0 0 44 44" fill="none" xmlns="http://www.w3.org/2000/svg">
<path fill-rule="evenodd" clip-rule="evenodd" d="M13.6426 43.5083C12.5923 43.3193 11.5772 43.0288 10.6079 42.6465C5.49707 40.6714 1.63843 36.1616 0.56006 30.6489C0.23535 29.4736 0 26.0322 0 21.9697C0 17.9937 0.22534 14.6123 0.53955 13.3682C1.75293 6.90626 6.75464 2.02637 13.3252 0.59473C14.3823 0.25244 17.8967 0 22.0693 0C26.1274 0 29.5625 0.23877 30.7212 0.56689C30.748 0.57177 30.7732 0.57666 30.7964 0.58154C37.1021 1.85742 42.0776 6.82373 43.3941 13.1421C43.7424 14.1484 44 17.7192 44 21.9697C44 26.0176 43.7664 29.4497 43.4434 30.6367C42.0982 37.6304 36.2815 43.0225 29.1016 43.6924C27.4404 43.8794 24.8701 44 21.9849 44C18.2412 44 15.0276 43.7969 13.6426 43.5083V43.5083Z" fill="#5135FF"/>
<path opacity="0.45" d="M20.9404 8C18.3895 8.00275 15.9063 8.82003 13.854 10.3323C11.8017 11.8447 10.2879 13.9727 9.53395 16.4052C8.78004 18.8378 8.82554 21.4473 9.6638 23.8522C10.5021 26.2571 12.0891 28.3312 14.1929 29.7713V34.1857C14.1932 34.6665 14.3847 35.1276 14.7255 35.4675C15.0662 35.8074 15.5282 35.9983 16.0099 35.9983H25.7806C26.0332 36.0091 26.2854 35.9676 26.5212 35.8764C26.757 35.7852 26.9714 35.6464 27.1509 35.4686C27.3304 35.2908 27.4712 35.0778 27.5643 34.8431C27.6574 34.6085 27.701 34.3571 27.6921 34.1048L27.4012 31.8546H30.0286C30.7862 31.8546 31.513 31.555 32.0498 31.0213C32.5867 30.4876 32.8897 29.7633 32.8928 29.0071V25.2947L34.2641 25.107C34.6657 25.094 35.0521 24.9507 35.3647 24.6988C35.6774 24.447 35.8994 24.1003 35.9969 23.7112C36.0123 23.4278 35.9695 23.1443 35.871 22.8781C35.7726 22.6118 35.6206 22.3685 35.4245 22.163L32.8803 19.0635C32.8803 19.004 32.8803 18.9449 32.8803 18.8862C32.8824 12.2049 27.4283 8 20.9404 8Z" fill="white"/>
<g opacity="0.75">
<path fill-rule="evenodd" clip-rule="evenodd" d="M23.5431 17.9568H18.3487V16.4014H23.5431V17.9568Z" fill="white"/>
<path fill-rule="evenodd" clip-rule="evenodd" d="M23.5431 24.8828C19.1165 24.8828 16.0029 22.0591 16.0029 18.7584H17.5613C17.5613 20.9672 19.7232 23.3273 23.5431 23.3273V24.8828Z" fill="white"/>
</g>
<path d="M16.6046 19.5861C17.9363 19.5861 19.0158 18.5085 19.0158 17.1793C19.0158 15.85 17.9363 14.7725 16.6046 14.7725C15.2729 14.7725 14.1934 15.85 14.1934 17.1793C14.1934 18.5085 15.2729 19.5861 16.6046 19.5861Z" fill="white"/>
<path d="M25.287 19.5861C26.6187 19.5861 27.6982 18.5085 27.6982 17.1793C27.6982 15.85 26.6187 14.7725 25.287 14.7725C23.9553 14.7725 22.8757 15.85 22.8757 17.1793C22.8757 18.5085 23.9553 19.5861 25.287 19.5861Z" fill="white"/>
<path d="M25.287 26.3264C26.6187 26.3264 27.6982 25.2489 27.6982 23.9196C27.6982 22.5904 26.6187 21.5128 25.287 21.5128C23.9553 21.5128 22.8757 22.5904 22.8757 23.9196C22.8757 25.2489 23.9553 26.3264 25.287 26.3264Z" fill="white"/>
</svg>
