<svg width="32" height="32" viewBox="0 0 32 32" fill="none" xmlns="http://www.w3.org/2000/svg">
<path opacity="0.45" fill-rule="evenodd" clip-rule="evenodd" d="M17.3418 2.31354C16.9243 2.10726 16.4652 2 16 2C15.5348 2 15.0757 2.10726 14.6582 2.31354L4.65843 7.26243C4.16269 7.50498 3.74451 7.88237 3.45137 8.35176C3.15823 8.82115 3.00185 9.36374 3 9.91796V22.0839C3.00185 22.6381 3.15823 23.1807 3.45137 23.6501C3.74451 24.1195 4.16269 24.4969 4.65843 24.7394L14.6582 29.6865C15.0757 29.8927 15.5348 30 16 30C16.4652 30 16.9243 29.8927 17.3418 29.6865L27.3416 24.7394C27.8372 24.4968 28.2554 24.1194 28.5485 23.65C28.8416 23.1806 28.998 22.6381 29 22.0839V9.91796C28.9981 9.36374 28.8418 8.82115 28.5486 8.35176C28.2555 7.88237 27.8373 7.50498 27.3416 7.26243L17.3418 2.31354ZM24.3571 11.6924C24.3574 11.4202 24.2883 11.1525 24.1566 10.9148L16 14.963V25.3349H16.039C16.2693 25.3291 16.4954 25.2721 16.7011 25.1679L23.4917 21.7292C23.7526 21.5964 23.9717 21.3933 24.1246 21.1426C24.2774 20.892 24.3579 20.6035 24.3571 20.3095V11.6924Z" fill="#5135FF"/>
<path opacity="0.45" fill-rule="evenodd" clip-rule="evenodd" d="M16.7018 6.83399C16.4845 6.72387 16.2445 6.6665 16.0012 6.6665C15.7578 6.6665 15.5179 6.72387 15.3006 6.83399L8.50992 10.2726C8.24881 10.4053 8.02952 10.6084 7.87654 10.859C7.72356 11.1097 7.64289 11.3982 7.64356 11.6923V20.3104C7.64289 20.6045 7.72356 20.893 7.87654 21.1437C8.02952 21.3944 8.24881 21.5975 8.50992 21.7301L15.3006 25.1688C15.5179 25.2788 15.7578 25.3362 16.0012 25.3362C16.2445 25.3362 16.4845 25.2788 16.7018 25.1688L23.4924 21.7301C23.7535 21.5973 23.9727 21.394 24.1255 21.1432C24.2783 20.8923 24.3588 20.6037 24.3578 20.3095V11.6923C24.3585 11.3982 24.2778 11.1097 24.1249 10.859C23.9719 10.6084 23.7526 10.4053 23.4915 10.2726L16.7018 6.83399ZM24.3578 11.6923C24.3578 11.4201 24.2884 11.1525 24.1563 10.9148L16.0007 14.963V25.3349H16.0397C16.27 25.3292 16.4961 25.2721 16.7018 25.1679L23.4924 21.7292C23.7534 21.5964 23.9727 21.3938 24.1255 21.1432C24.2783 20.8923 24.3588 20.6037 24.3578 20.3095V11.6923Z" fill="#5135FF"/>
<path d="M24.1559 10.9148C24.0029 10.6386 23.771 10.4149 23.4901 10.2726L16.6994 6.83399C16.4821 6.72387 16.2422 6.6665 15.9988 6.6665C15.7555 6.6665 15.5155 6.72387 15.2982 6.83399L8.50758 10.2726C8.22671 10.4149 7.99478 10.6386 7.8418 10.9148L15.9993 14.9639L24.1559 10.9148Z" fill="#5135FF"/>
</svg>
