<svg width="32" height="32" viewBox="0 0 32 32" fill="none" xmlns="http://www.w3.org/2000/svg">
<path d="M28.0156 19.878C27.0547 20.6043 25.8533 21.0006 24.6141 21H20.0001V15.3285L20.966 16.2944C21.3565 16.6849 21.9897 16.6849 22.3802 16.2944C22.7707 15.9039 22.7707 15.2707 22.3802 14.8802L19.7929 12.2929C19.5937 12.0937 19.3315 11.9961 19.0705 12.0001C18.8095 11.9961 18.5472 12.0937 18.3481 12.2929L15.793 14.8479C15.4025 15.2385 15.4025 15.8716 15.793 16.2622C16.1835 16.6527 16.8167 16.6527 17.2072 16.2622L18.0001 15.4693V21H8.46545C6.79743 21.0014 5.19347 20.4037 3.98937 19.332C2.78527 18.2602 2.07437 16.7975 2.00551 15.2501C1.93665 13.7027 2.51516 12.1906 3.61993 11.0303C4.7247 9.86996 6.27008 9.15141 7.93254 9.02507C8.67045 7.06701 10.1145 5.40588 12.0202 4.32299C13.9259 3.2401 16.1762 2.80199 18.3899 3.08285C20.6036 3.3637 22.6447 4.34626 24.1677 5.86415C25.6906 7.38204 26.6018 9.34197 26.7469 11.4121C27.8849 11.8673 28.8189 12.673 29.3913 13.6934C29.9636 14.7138 30.1394 15.8863 29.8887 17.013C29.6381 18.1397 28.9765 19.1516 28.0156 19.878Z" fill="#5135FF"/>
<path d="M12.2659 27.0938C12.2659 27.5943 12.6716 28 13.1721 28C13.6725 28 14.0782 27.5943 14.0782 27.0938L14.0782 16.9062C14.0782 16.4057 13.6725 16 13.1721 16C12.6716 16 12.2659 16.4057 12.2659 16.9062L12.2659 27.0938Z" fill="#5135FF"/>
<path d="M10.2658 24.7378C9.91196 25.1284 9.91196 25.7615 10.2658 26.1521L12.5812 28.7071C12.9351 29.0976 13.5088 29.0976 13.8627 28.7071C14.2166 28.3166 14.2166 27.6834 13.8627 27.2929L11.5474 24.7378C11.1935 24.3473 10.6197 24.3473 10.2658 24.7378Z" fill="#5135FF"/>
<path d="M16.235 24.7056C15.8811 24.3151 15.3074 24.3151 14.9535 24.7056L12.6089 27.2929C12.2551 27.6834 12.2551 28.3166 12.6089 28.7071C12.9628 29.0976 13.5366 29.0976 13.8905 28.7071L16.235 26.1198C16.5889 25.7293 16.5889 25.0961 16.235 24.7056Z" fill="#5135FF"/>
</svg>
