<svg width="32" height="32" viewBox="0 0 32 32" fill="none" xmlns="http://www.w3.org/2000/svg">
<path opacity="0.45" d="M27.8462 4H4.15385C2.96431 4 2 4.97683 2 6.18182V25.8182C2 27.0232 2.96431 28 4.15385 28H27.8462C29.0357 28 30 27.0232 30 25.8182V6.18182C30 4.97683 29.0357 4 27.8462 4Z" fill="#5135FF"/>
<path d="M2 6.18182C2 5.60316 2.22692 5.04821 2.63085 4.63904C3.03477 4.22987 3.58261 4 4.15385 4H27.8462C28.4174 4 28.9652 4.22987 29.3692 4.63904C29.7731 5.04821 30 5.60316 30 6.18182V10.5455H2V6.18182Z" fill="#5135FF"/>
<path d="M7.38477 19.8184C7.38477 19.6737 7.4415 19.535 7.54248 19.4327C7.64346 19.3304 7.78042 19.2729 7.92323 19.2729H9.00015C9.14296 19.2729 9.27992 19.3304 9.3809 19.4327C9.48188 19.535 9.53861 19.6737 9.53861 19.8184V24.182C9.53861 24.3267 9.48188 24.4654 9.3809 24.5677C9.27992 24.67 9.14296 24.7275 9.00015 24.7275H7.92323C7.78042 24.7275 7.64346 24.67 7.54248 24.5677C7.4415 24.4654 7.38477 24.3267 7.38477 24.182V19.8184Z" fill="#5135FF"/>
<path d="M14.3848 16.0002H13.3078C13.0105 16.0002 12.7694 16.2444 12.7694 16.5456V24.182C12.7694 24.4832 13.0105 24.7275 13.3078 24.7275H14.3848C14.6821 24.7275 14.9232 24.4832 14.9232 24.182V16.5456C14.9232 16.2444 14.6821 16.0002 14.3848 16.0002Z" fill="#5135FF"/>
<path d="M19.7694 18.182H18.6925C18.3951 18.182 18.154 18.4262 18.154 18.7275V24.182C18.154 24.4832 18.3951 24.7275 18.6925 24.7275H19.7694C20.0668 24.7275 20.3078 24.4832 20.3078 24.182V18.7275C20.3078 18.4262 20.0668 18.182 19.7694 18.182Z" fill="#5135FF"/>
<path d="M25.154 13.8184H24.0771C23.7797 13.8184 23.5386 14.0626 23.5386 14.3638V24.182C23.5386 24.4832 23.7797 24.7275 24.0771 24.7275H25.154C25.4514 24.7275 25.6925 24.4832 25.6925 24.182V14.3638C25.6925 14.0626 25.4514 13.8184 25.154 13.8184Z" fill="#5135FF"/>
</svg>
