<svg width="32" height="32" viewBox="0 0 32 32" fill="none" xmlns="http://www.w3.org/2000/svg">
<path opacity="0.75" d="M30 18.982H16.2154C16.0782 18.9824 15.9461 18.9301 15.846 18.8364L12.3159 15.5089C11.9166 15.1315 11.3877 14.9219 10.8383 14.9231H2V4.15385C2 3.58261 2.22692 3.03493 2.63085 2.63101C3.03477 2.22709 3.58261 2 4.15385 2H27.8462C28.4174 2 28.9652 2.22709 29.3692 2.63101C29.7731 3.03493 30 3.58261 30 4.15385V18.982Z" fill="#5135FF"/>
<path opacity="0.45" d="M4.15385 29.9988H27.8462C28.4174 29.9988 28.9652 29.7719 29.3692 29.368C29.7731 28.964 30 28.4162 30 27.845V18.9808H16.2154C16.0781 18.9809 15.946 18.9285 15.846 18.8343L12.3158 15.5077C11.9158 15.131 11.3868 14.9214 10.8372 14.9219H2V27.845C2 28.4162 2.22692 28.964 2.63085 29.368C3.03477 29.7719 3.58261 29.9988 4.15385 29.9988Z" fill="#5135FF"/>
<path d="M25.6922 18.9809H16.2153C16.0782 18.9813 15.946 18.929 15.8459 18.8353L12.3158 15.5088C11.9164 15.1316 11.3876 14.922 10.8382 14.923H6.30762V7.38454C6.30762 7.09892 6.42109 6.82508 6.62306 6.62312C6.82502 6.42116 7.09892 6.30762 7.38454 6.30762H24.6153C24.9009 6.30762 25.1748 6.42116 25.3768 6.62312C25.5788 6.82508 25.6922 7.09892 25.6922 7.38454V18.9809Z" fill="#5135FF"/>
<path d="M22.4615 24.6143C22.4615 24.8999 22.348 25.1738 22.146 25.3758C21.9441 25.5777 21.6702 25.6912 21.3845 25.6912H10.6153C10.3297 25.6912 10.0558 25.5777 9.85381 25.3758C9.65185 25.1738 9.53839 24.8999 9.53839 24.6143C9.53839 24.3286 9.65185 24.0547 9.85381 23.8528C10.0558 23.6508 10.3297 23.5373 10.6153 23.5373H21.3845C21.6702 23.5373 21.9441 23.6508 22.146 23.8528C22.348 24.0547 22.4615 24.3286 22.4615 24.6143Z" fill="#5135FF"/>
</svg>
