<svg width="32" height="32" viewBox="0 0 32 32" fill="none" xmlns="http://www.w3.org/2000/svg">
<path opacity="0.75" d="M15.9962 29.9989V25.6915C15.9912 25.6398 15.9737 25.59 15.9454 25.5464C15.9171 25.5028 15.8789 25.4668 15.8337 25.4412C15.7885 25.4156 15.7376 25.4015 15.6857 25.3997C15.6337 25.3979 15.5822 25.4083 15.5353 25.4307C15.1752 25.6027 14.781 25.6919 14.382 25.6915C13.668 25.6915 12.9832 25.4077 12.4783 24.9028C11.9734 24.3979 11.6899 23.7134 11.6899 22.9994C11.6899 22.2854 11.9734 21.6009 12.4783 21.096C12.9832 20.5911 13.668 20.3073 14.382 20.3073C14.781 20.3071 15.1751 20.3964 15.5353 20.5681C15.5822 20.5905 15.6337 20.6009 15.6857 20.5991C15.7376 20.5973 15.7885 20.5832 15.8337 20.5576C15.8789 20.532 15.9171 20.496 15.9454 20.4524C15.9737 20.4088 15.9912 20.359 15.9962 20.3073V15.9999H20.3035C20.355 16.0051 20.4045 16.0226 20.4479 16.0509C20.4912 16.0792 20.5271 16.1173 20.5525 16.1624C20.5779 16.2075 20.5922 16.2579 20.594 16.3096C20.5959 16.3613 20.5852 16.4127 20.563 16.4595C20.3918 16.8206 20.3032 17.2155 20.3035 17.6152C20.3035 18.3292 20.5871 19.0137 21.092 19.5186C21.5968 20.0235 22.2817 20.3073 22.9956 20.3073C23.7096 20.3073 24.3944 20.0235 24.8993 19.5186C25.4042 19.0137 25.6877 18.3292 25.6877 17.6152C25.6888 17.2156 25.6005 16.8206 25.4293 16.4595C25.4072 16.4128 25.3965 16.3618 25.3983 16.3101C25.4001 16.2585 25.4143 16.208 25.4396 16.1629C25.4649 16.1179 25.5005 16.0798 25.5437 16.0515C25.5869 16.0231 25.6364 16.0053 25.6877 15.9999H29.9951V27.8452C29.9951 28.4164 29.7683 28.964 29.3644 29.3679C28.9605 29.7718 28.4126 29.9989 27.8414 29.9989H15.9962ZM11.6888 15.9999C11.6372 15.9949 11.5877 15.9777 11.5442 15.9494C11.5007 15.9212 11.4646 15.8825 11.439 15.8375C11.4135 15.7924 11.3991 15.742 11.3972 15.6902C11.3953 15.6384 11.4061 15.5872 11.4283 15.5404C11.5994 15.1793 11.6877 14.7843 11.6867 14.3847C11.6867 13.6707 11.4031 12.9861 10.8983 12.4813C10.3934 11.9764 9.70858 11.6926 8.99459 11.6926C8.2806 11.6926 7.59579 11.9764 7.09093 12.4813C6.58606 12.9861 6.30249 13.6707 6.30249 14.3847C6.30216 14.7843 6.39077 15.1793 6.56197 15.5404C6.58414 15.5871 6.59483 15.6385 6.59299 15.6902C6.59115 15.7419 6.57689 15.7924 6.55145 15.8375C6.52602 15.8825 6.49014 15.9206 6.44682 15.9489C6.4035 15.9772 6.35397 15.9947 6.30249 15.9999H1.99512V4.15466C1.99512 3.58347 2.22192 3.03583 2.62582 2.63194C3.02971 2.22804 3.57761 2.00098 4.1488 2.00098H15.9941V6.30835C15.9991 6.35993 16.0163 6.40948 16.0445 6.45294C16.0728 6.4964 16.1112 6.53255 16.1563 6.5581C16.2014 6.58365 16.252 6.59774 16.3038 6.59964C16.3556 6.60154 16.407 6.59133 16.4539 6.56914C16.8149 6.39757 17.2096 6.30835 17.6093 6.30835C18.3233 6.30835 19.0081 6.59218 19.513 7.09705C20.0179 7.60192 20.3014 8.28646 20.3014 9.00045C20.3014 9.71444 20.0179 10.399 19.513 10.9039C19.0081 11.4087 18.3233 11.6926 17.6093 11.6926C17.2096 11.6929 16.8148 11.6036 16.4539 11.4318C16.407 11.4096 16.3556 11.3994 16.3038 11.4013C16.252 11.4032 16.2014 11.4172 16.1563 11.4428C16.1112 11.4684 16.0728 11.5045 16.0445 11.548C16.0163 11.5914 15.9991 11.641 15.9941 11.6926V15.9999H11.6888Z" fill="#5135FF"/>
<path opacity="0.45" d="M17.6123 6.30893C18.016 6.30926 18.4144 6.40036 18.7781 6.57548C19.1418 6.75061 19.4614 7.00527 19.7134 7.32063C19.9653 7.63598 20.1431 8.00396 20.2337 8.39733C20.3242 8.7907 20.3251 9.19939 20.2363 9.59315C20.1475 9.98692 19.9713 10.3557 19.7208 10.6721C19.4702 10.9886 19.1517 11.2447 18.7888 11.4214C18.4259 11.5981 18.0279 11.691 17.6242 11.6931C17.2206 11.6952 16.8216 11.6065 16.4569 11.4336C16.4101 11.4115 16.3587 11.4008 16.307 11.4027C16.2553 11.4045 16.2048 11.4188 16.1597 11.4442C16.1146 11.4696 16.0763 11.5055 16.048 11.5488C16.0197 11.5922 16.0023 11.6417 15.9971 11.6931V16.0005H20.3044C20.356 16.0055 20.4056 16.0229 20.4491 16.0511C20.4925 16.0794 20.5286 16.1177 20.5541 16.1628C20.5797 16.2078 20.594 16.2584 20.5959 16.3102C20.5978 16.362 20.5872 16.4135 20.565 16.4603C20.3705 16.8707 20.2829 17.3235 20.3105 17.7768C20.338 18.2301 20.4798 18.669 20.7225 19.0528C20.9653 19.4366 21.3012 19.7527 21.699 19.9717C22.0968 20.1908 22.5435 20.3057 22.9976 20.3057C23.4517 20.3057 23.8985 20.1908 24.2962 19.9717C24.694 19.7527 25.0299 19.4366 25.2727 19.0528C25.5155 18.669 25.6572 18.2301 25.6848 17.7768C25.7123 17.3235 25.6247 16.8707 25.4302 16.4603C25.4081 16.4136 25.3974 16.3623 25.3992 16.3107C25.401 16.259 25.4151 16.2086 25.4405 16.1635C25.4658 16.1185 25.5015 16.0802 25.5447 16.0518C25.5879 16.0235 25.6373 16.0059 25.6887 16.0005H29.996V4.15525C29.996 3.58405 29.7691 3.03626 29.3652 2.63236C28.9613 2.22847 28.4135 2.00156 27.8423 2.00156H15.9971L15.9971 6.30893C16.0021 6.36051 16.0195 6.41013 16.0477 6.45358C16.0759 6.49704 16.1142 6.53307 16.1593 6.55862C16.2044 6.58417 16.255 6.59851 16.3068 6.6004C16.3586 6.6023 16.41 6.59171 16.4569 6.56953C16.8178 6.39765 17.2126 6.30861 17.6123 6.30893Z" fill="#5135FF"/>
<path d="M14.3818 25.6916C13.9782 25.6912 13.5797 25.6001 13.2161 25.425C12.8524 25.2499 12.5327 24.9952 12.2808 24.6799C12.0288 24.3645 11.851 23.9965 11.7605 23.6032C11.67 23.2098 11.6691 22.8011 11.7578 22.4073C11.8466 22.0136 12.0228 21.6448 12.2734 21.3283C12.5239 21.0119 12.8425 20.7558 13.2054 20.5791C13.5683 20.4024 13.9663 20.3095 14.3699 20.3074C14.7736 20.3053 15.1725 20.394 15.5373 20.5669C15.584 20.589 15.6354 20.5996 15.6871 20.5978C15.7389 20.596 15.7894 20.5817 15.8344 20.5563C15.8795 20.5309 15.9178 20.495 15.9461 20.4516C15.9744 20.4083 15.9919 20.3588 15.9971 20.3073V16H11.6897C11.6381 15.9949 11.5885 15.9776 11.545 15.9493C11.5016 15.9211 11.4656 15.8828 11.44 15.8377C11.4145 15.7926 11.4001 15.7421 11.3982 15.6903C11.3963 15.6385 11.4069 15.587 11.4291 15.5402C11.6236 15.1298 11.7112 14.677 11.6837 14.2237C11.6561 13.7704 11.5144 13.3315 11.2716 12.9477C11.0288 12.5639 10.6929 12.2478 10.2951 12.0288C9.89736 11.8097 9.45063 11.6948 8.99652 11.6948C8.54241 11.6948 8.09568 11.8097 7.69789 12.0288C7.30011 12.2478 6.9642 12.5639 6.72143 12.9477C6.47865 13.3315 6.33691 13.7704 6.30937 14.2237C6.28183 14.677 6.3694 15.1298 6.56393 15.5402C6.58608 15.5868 6.59671 15.6382 6.59493 15.6898C6.59315 15.7414 6.57901 15.7919 6.55369 15.8369C6.52837 15.882 6.49262 15.9203 6.44943 15.9487C6.40625 15.977 6.35688 15.9946 6.30549 16H1.99812L1.99812 27.8452C1.99812 28.4164 2.22503 28.9642 2.62892 29.3681C3.03282 29.772 3.58061 29.9989 4.15181 29.9989H15.9971L15.9971 25.6916C15.992 25.64 15.9747 25.5904 15.9464 25.5469C15.9182 25.5034 15.8799 25.4674 15.8348 25.4419C15.7897 25.4163 15.7392 25.402 15.6874 25.4001C15.6356 25.3982 15.5841 25.4088 15.5373 25.431C15.1763 25.6028 14.7816 25.6919 14.3818 25.6916Z" fill="#5135FF"/>
</svg>
