<svg width="44" height="44" viewBox="0 0 44 44" fill="none" xmlns="http://www.w3.org/2000/svg">
<path fill-rule="evenodd" clip-rule="evenodd" d="M13.6426 43.5083C12.5923 43.3193 11.5772 43.0288 10.6079 42.6465C5.49707 40.6714 1.63843 36.1616 0.56006 30.6489C0.23535 29.4736 0 26.0322 0 21.9697C0 17.9937 0.22534 14.6123 0.53955 13.3682C1.75293 6.90626 6.75464 2.02637 13.3252 0.59473C14.3823 0.25244 17.8967 0 22.0693 0C26.1274 0 29.5625 0.23877 30.7212 0.56689C30.748 0.57177 30.7732 0.57666 30.7964 0.58154C37.1021 1.85742 42.0776 6.82373 43.3941 13.1421C43.7424 14.1484 44 17.7192 44 21.9697C44 26.0176 43.7664 29.4497 43.4434 30.6367C42.0982 37.6304 36.2815 43.0225 29.1016 43.6924C27.4404 43.8794 24.8701 44 21.9849 44C18.2412 44 15.0276 43.7969 13.6426 43.5083V43.5083Z" fill="#5135FF"/>
<path opacity="0.75" d="M36 24.982H22.2154C22.0782 24.9824 21.9461 24.9301 21.846 24.8364L18.3159 21.5089C17.9166 21.1315 17.3877 20.9219 16.8383 20.9231H8V10.1538C8 9.58261 8.22692 9.03493 8.63085 8.63101C9.03477 8.22709 9.58261 8 10.1538 8H33.8462C34.4174 8 34.9652 8.22709 35.3692 8.63101C35.7731 9.03493 36 9.58261 36 10.1538V24.982Z" fill="white"/>
<path opacity="0.45" d="M10.1538 35.9988H33.8462C34.4174 35.9988 34.9652 35.7719 35.3692 35.368C35.7731 34.964 36 34.4162 36 33.845V24.9808H22.2154C22.0781 24.9809 21.946 24.9285 21.846 24.8343L18.3158 21.5077C17.9158 21.131 17.3868 20.9214 16.8372 20.9219H8V33.845C8 34.4162 8.22692 34.964 8.63085 35.368C9.03477 35.7719 9.58261 35.9988 10.1538 35.9988Z" fill="white"/>
<path d="M31.6922 24.9809H22.2153C22.0782 24.9813 21.946 24.929 21.8459 24.8353L18.3158 21.5088C17.9164 21.1316 17.3876 20.922 16.8382 20.923H12.3076V13.3845C12.3076 13.0989 12.4211 12.8251 12.6231 12.6231C12.825 12.4212 13.0989 12.3076 13.3845 12.3076H30.6153C30.9009 12.3076 31.1748 12.4212 31.3768 12.6231C31.5788 12.8251 31.6922 13.0989 31.6922 13.3845V24.9809Z" fill="white"/>
<path d="M28.4615 30.6143C28.4615 30.8999 28.348 31.1738 28.146 31.3758C27.9441 31.5777 27.6702 31.6912 27.3845 31.6912H16.6153C16.3297 31.6912 16.0558 31.5777 15.8538 31.3758C15.6518 31.1738 15.5384 30.8999 15.5384 30.6143C15.5384 30.3286 15.6518 30.0547 15.8538 29.8528C16.0558 29.6508 16.3297 29.5373 16.6153 29.5373H27.3845C27.6702 29.5373 27.9441 29.6508 28.146 29.8528C28.348 30.0547 28.4615 30.3286 28.4615 30.6143Z" fill="white"/>
</svg>
