<svg width="32" height="32" viewBox="0 0 32 32" fill="none" xmlns="http://www.w3.org/2000/svg">
<path opacity="0.75" fill-rule="evenodd" clip-rule="evenodd" d="M4.03711 26.8889C4.03711 28.6072 5.43 30.0001 7.14822 30.0001C8.86644 30.0001 10.2593 28.6072 10.2593 26.8889C10.2593 25.1707 8.86644 23.7778 7.14822 23.7778C5.43 23.7778 4.03711 25.1707 4.03711 26.8889ZM22.7038 26.8889C22.7038 28.6072 24.0967 30.0001 25.8149 30.0001C27.5331 30.0001 28.926 28.6072 28.926 26.8889C28.926 25.1707 27.5331 23.7778 25.8149 23.7778C24.0967 23.7778 22.7038 25.1707 22.7038 26.8889ZM16.4816 30.0001C14.7633 30.0001 13.3704 28.6072 13.3704 26.8889C13.3704 25.1707 14.7633 23.7778 16.4816 23.7778C18.1998 23.7778 19.5927 25.1707 19.5927 26.8889C19.5927 28.6072 18.1998 30.0001 16.4816 30.0001Z" fill="#5135FF"/>
<g opacity="0.45">
<path d="M15.4442 17.5557H17.5183V23.9549C17.194 23.8403 16.8449 23.7779 16.4813 23.7779C16.1177 23.7779 15.7686 23.8403 15.4442 23.9549V17.5557Z" fill="#5135FF"/>
<path d="M13.5472 25.852H10.082C10.1967 26.1763 10.2591 26.5254 10.2591 26.889C10.2591 27.2526 10.1967 27.6017 10.082 27.926H13.5472C13.4326 27.6017 13.3702 27.2526 13.3702 26.889C13.3702 26.5254 13.4326 26.1763 13.5472 25.852Z" fill="#5135FF"/>
<path d="M19.4154 27.926H22.8805C22.7659 27.6017 22.7035 27.2526 22.7035 26.889C22.7035 26.5254 22.7659 26.1763 22.8805 25.852H19.4154C19.53 26.1763 19.5924 26.5254 19.5924 26.889C19.5924 27.2526 19.53 27.6017 19.4154 27.926Z" fill="#5135FF"/>
</g>
<path d="M24.7778 20.6667C27.6415 20.6667 29.963 18.3452 29.963 15.4815C29.963 13.3476 28.6739 11.5147 26.8319 10.7191C26.5156 5.85078 22.4668 2 17.5185 2C13.4469 2 9.98428 4.60715 8.70892 8.2431C5.51261 8.50409 3 11.1809 3 14.4444C3 17.8809 5.78578 20.6667 9.22222 20.6667H24.7778Z" fill="#5135FF"/>
</svg>
