<svg width="32" height="32" viewBox="0 0 32 32" fill="none" xmlns="http://www.w3.org/2000/svg">
<path opacity="0.45" d="M28.6642 17.77C28.539 17.6287 28.4441 17.4633 28.3851 17.2839C28.3262 17.1046 28.3044 16.9151 28.3212 16.727C28.3352 16.489 28.3422 16.2497 28.3422 16.009C28.3422 15.7684 28.3352 15.529 28.3212 15.291C28.3044 15.103 28.3262 14.9135 28.3851 14.7342C28.4441 14.5548 28.539 14.3894 28.6642 14.248L29.543 13.309C29.7903 13.0469 29.9457 12.7114 29.9857 12.3531C30.0257 11.9949 29.9483 11.6334 29.7649 11.323L27.0295 6.68604C26.8406 6.37394 26.5587 6.12892 26.2233 5.98542C25.8879 5.84192 25.516 5.80716 25.1599 5.88604L23.8892 6.16104C23.6996 6.19659 23.5049 6.1944 23.3162 6.15459C23.1275 6.11478 22.9485 6.03813 22.7894 5.92904C22.3815 5.66141 21.9582 5.41799 21.5217 5.20004C21.348 5.12193 21.1918 5.00972 21.0623 4.87006C20.9328 4.7304 20.8327 4.56614 20.7679 4.38704L20.3769 3.17604C20.261 2.83152 20.0393 2.53238 19.7435 2.32122C19.4476 2.11007 19.0927 1.99767 18.7293 2.00004H13.2644C12.8996 1.99775 12.5435 2.11136 12.2474 2.3245C11.9513 2.53765 11.7305 2.83931 11.6168 3.18604L11.2259 4.39704C11.1607 4.57595 11.0605 4.74004 10.931 4.87965C10.8016 5.01927 10.6455 5.13159 10.472 5.21004C10.0336 5.42433 9.60832 5.66441 9.19831 5.92904C8.87698 6.14916 8.48139 6.23261 8.09855 6.16104L6.82882 5.88604C6.47268 5.80701 6.10074 5.84169 5.76535 5.98521C5.42996 6.12872 5.14801 6.37383 4.95922 6.68604L2.2318 11.319C2.04799 11.6292 1.97022 11.9909 2.01027 12.3492C2.05032 12.7076 2.206 13.0431 2.45375 13.305L3.33256 14.244C3.45723 14.3854 3.55183 14.5507 3.61061 14.7299C3.66939 14.909 3.69113 15.0982 3.67449 15.286C3.66149 15.524 3.65349 15.763 3.65349 16.004C3.65349 16.245 3.65949 16.484 3.67449 16.722C3.69127 16.91 3.6696 17.0994 3.61082 17.2787C3.55203 17.458 3.45736 17.6235 3.33256 17.765L2.45375 18.704C2.20692 18.9657 2.0518 19.3005 2.01176 19.658C1.97173 20.0154 2.04895 20.3763 2.2318 20.686L4.96422 25.314C5.15301 25.6262 5.43495 25.8714 5.77035 26.0149C6.10574 26.1584 6.47768 26.1931 6.83382 26.114L8.10455 25.839C8.48752 25.7682 8.88295 25.852 9.20431 26.072C9.61329 26.3366 10.0376 26.5767 10.475 26.791C10.6485 26.8695 10.8046 26.9818 10.934 27.1214C11.0635 27.261 11.1637 27.4251 11.2289 27.604L11.6198 28.815C11.7335 29.1611 11.9539 29.4622 12.2494 29.6751C12.5449 29.888 12.9003 30.0018 13.2644 30H18.7293C19.0934 30.0024 19.4489 29.8894 19.7449 29.6772C20.0409 29.4651 20.2621 29.1647 20.3769 28.819L20.7679 27.608C20.8327 27.4289 20.9328 27.2647 21.0623 27.125C21.1918 26.9854 21.348 26.8731 21.5217 26.795C21.9589 26.5803 22.3832 26.3402 22.7924 26.076C23.1137 25.8558 23.5092 25.772 23.8922 25.843L25.1629 26.118C25.519 26.1969 25.8909 26.1622 26.2263 26.0187C26.5617 25.8752 26.8436 25.6301 27.0325 25.318L29.7689 20.695C29.9523 20.3847 30.0297 20.0232 29.9897 19.6649C29.9497 19.3067 29.7943 18.9712 29.547 18.709L28.6642 17.77ZM15.9979 22.862C14.642 22.862 13.3165 22.4599 12.1891 21.7064C11.0617 20.953 10.1831 19.882 9.66417 18.6291C9.14529 17.3761 9.00953 15.9974 9.27405 14.6673C9.53858 13.3372 10.1915 12.1154 11.1503 11.1564C12.109 10.1974 13.3306 9.54437 14.6604 9.27979C15.9903 9.01521 17.3687 9.151 18.6214 9.66999C19.8741 10.189 20.9447 11.0679 21.698 12.1955C22.4513 13.3231 22.8534 14.6488 22.8534 16.005C22.8534 16.9055 22.6761 17.7972 22.3316 18.6291C21.987 19.461 21.4821 20.2169 20.8455 20.8537C20.2089 21.4904 19.4531 21.9955 18.6214 22.3401C17.7896 22.6847 16.8981 22.862 15.9979 22.862Z" fill="#5135FF"/>
<path d="M9.84136 7.51521C9.81071 7.48644 9.78829 7.44999 9.77642 7.40964C9.76456 7.36929 9.76367 7.32651 9.77387 7.2857C9.78406 7.2449 9.80496 7.20756 9.8344 7.17754C9.86385 7.14753 9.90076 7.12593 9.94134 7.11498C10.6231 6.95183 11.3364 6.97707 12.005 7.18801C12.6736 7.39895 13.2724 7.78767 13.7374 8.31265C14.2025 8.83764 14.5163 9.47917 14.6454 10.1687C14.7745 10.8583 14.714 11.57 14.4704 12.2279L19.7782 17.5409C20.4352 17.296 21.1462 17.2344 21.8354 17.3626C22.5246 17.4908 23.166 17.8041 23.6911 18.2688C24.2162 18.7336 24.6052 19.3325 24.8166 20.0014C25.028 20.6703 25.0537 21.3841 24.8912 22.0665C24.8802 22.1071 24.8586 22.144 24.8286 22.1735C24.7987 22.203 24.7613 22.2239 24.7206 22.2341C24.6798 22.2443 24.637 22.2434 24.5967 22.2315C24.5564 22.2197 24.52 22.1972 24.4912 22.1665L22.8806 20.5546C22.7548 20.4286 22.6054 20.3287 22.441 20.2605C22.2765 20.1923 22.1003 20.1572 21.9223 20.1572C21.7443 20.1572 21.5681 20.1923 21.4036 20.2605C21.2392 20.3287 21.0898 20.4286 20.964 20.5546L20.5461 20.9719C20.2923 21.2264 20.1498 21.5713 20.1498 21.9309C20.1498 22.2905 20.2923 22.6354 20.5461 22.8899L22.1587 24.5029C22.1891 24.5318 22.2112 24.5682 22.2229 24.6085C22.2346 24.6488 22.2354 24.6914 22.2252 24.7321C22.2151 24.7728 22.1943 24.8101 22.1651 24.8401C22.1358 24.8701 22.0991 24.8919 22.0588 24.9031C21.3798 25.0652 20.6697 25.0405 20.0037 24.8315C19.3377 24.6225 18.7406 24.237 18.2757 23.716C17.8108 23.1949 17.4955 22.5577 17.3631 21.8718C17.2307 21.186 17.2862 20.477 17.5237 19.8202L12.1829 14.4902C11.5267 14.7284 10.8183 14.7845 10.1329 14.6523C9.44748 14.5202 8.8106 14.2048 8.28983 13.7396C7.76906 13.2745 7.38385 12.6769 7.17506 12.0103C6.96627 11.3437 6.94169 10.633 7.10395 9.95359C7.11153 9.92349 7.12498 9.89518 7.14351 9.87028C7.16205 9.84538 7.18531 9.82438 7.21196 9.80849C7.23861 9.7926 7.26813 9.78212 7.29884 9.77766C7.32954 9.7732 7.36082 9.77485 7.39088 9.7825C7.43555 9.79344 7.47593 9.81748 7.50686 9.85154L9.11752 11.4635C9.24341 11.5895 9.39289 11.6895 9.5574 11.7577C9.72191 11.8259 9.89824 11.861 10.0763 11.861C10.2544 11.861 10.4307 11.8259 10.5952 11.7577C10.7597 11.6895 10.9092 11.5895 11.0351 11.4635L11.452 11.0472C11.7061 10.7926 11.8488 10.4475 11.8488 10.0877C11.8488 9.72783 11.7061 9.38271 11.452 9.12813L9.84136 7.51521Z" fill="#5135FF"/>
</svg>
