<svg width="44" height="44" viewBox="0 0 44 44" fill="none" xmlns="http://www.w3.org/2000/svg">
<path fill-rule="evenodd" clip-rule="evenodd" d="M13.6426 43.5083C12.5923 43.3193 11.5772 43.0288 10.6079 42.6465C5.49707 40.6714 1.63843 36.1616 0.56006 30.6489C0.23535 29.4736 0 26.0322 0 21.9697C0 17.9937 0.22534 14.6123 0.53955 13.3682C1.75293 6.90626 6.75464 2.02637 13.3252 0.59473C14.3823 0.25244 17.8967 0 22.0693 0C26.1274 0 29.5625 0.23877 30.7212 0.56689C30.748 0.57177 30.7732 0.57666 30.7964 0.58154C37.1021 1.85742 42.0776 6.82373 43.3941 13.1421C43.7424 14.1484 44 17.7192 44 21.9697C44 26.0176 43.7664 29.4497 43.4434 30.6367C42.0982 37.6304 36.2815 43.0225 29.1016 43.6924C27.4404 43.8794 24.8701 44 21.9849 44C18.2412 44 15.0276 43.7969 13.6426 43.5083V43.5083Z" fill="#5135FF"/>
<path opacity="0.45" d="M34.6642 23.77C34.539 23.6287 34.4441 23.4633 34.3851 23.2839C34.3262 23.1046 34.3044 22.9151 34.3212 22.727C34.3352 22.489 34.3422 22.2497 34.3422 22.009C34.3422 21.7684 34.3352 21.529 34.3212 21.291C34.3044 21.103 34.3262 20.9135 34.3851 20.7342C34.4441 20.5548 34.539 20.3894 34.6642 20.248L35.543 19.309C35.7903 19.0469 35.9457 18.7114 35.9857 18.3531C36.0257 17.9949 35.9483 17.6334 35.7649 17.323L33.0295 12.686C32.8406 12.3739 32.5587 12.1289 32.2233 11.9854C31.8879 11.8419 31.516 11.8072 31.1599 11.886L29.8892 12.161C29.6996 12.1966 29.5049 12.1944 29.3162 12.1546C29.1275 12.1148 28.9485 12.0381 28.7894 11.929C28.3815 11.6614 27.9582 11.418 27.5217 11.2C27.348 11.1219 27.1918 11.0097 27.0623 10.8701C26.9328 10.7304 26.8327 10.5661 26.7679 10.387L26.3769 9.17604C26.261 8.83152 26.0393 8.53238 25.7435 8.32122C25.4476 8.11007 25.0927 7.99767 24.7293 8.00004H19.2644C18.8996 7.99775 18.5435 8.11136 18.2474 8.3245C17.9513 8.53765 17.7305 8.83931 17.6168 9.18604L17.2259 10.397C17.1607 10.576 17.0605 10.74 16.931 10.8797C16.8016 11.0193 16.6455 11.1316 16.472 11.21C16.0336 11.4243 15.6083 11.6644 15.1983 11.929C14.877 12.1492 14.4814 12.2326 14.0985 12.161L12.8288 11.886C12.4727 11.807 12.1007 11.8417 11.7653 11.9852C11.43 12.1287 11.148 12.3738 10.9592 12.686L8.2318 17.319C8.04799 17.6292 7.97022 17.9909 8.01027 18.3492C8.05032 18.7076 8.206 19.0431 8.45375 19.305L9.33256 20.244C9.45723 20.3854 9.55183 20.5507 9.61061 20.7299C9.66939 20.909 9.69113 21.0982 9.67449 21.286C9.66149 21.524 9.65349 21.763 9.65349 22.004C9.65349 22.245 9.65949 22.484 9.67449 22.722C9.69127 22.91 9.6696 23.0994 9.61082 23.2787C9.55203 23.458 9.45736 23.6235 9.33256 23.765L8.45375 24.704C8.20692 24.9657 8.0518 25.3005 8.01176 25.658C7.97173 26.0154 8.04895 26.3763 8.2318 26.686L10.9642 31.314C11.153 31.6262 11.435 31.8714 11.7703 32.0149C12.1057 32.1584 12.4777 32.1931 12.8338 32.114L14.1045 31.839C14.4875 31.7682 14.8829 31.852 15.2043 32.072C15.6133 32.3366 16.0376 32.5767 16.475 32.791C16.6485 32.8695 16.8046 32.9818 16.934 33.1214C17.0635 33.261 17.1637 33.4251 17.2289 33.604L17.6198 34.815C17.7335 35.1611 17.9539 35.4622 18.2494 35.6751C18.5449 35.888 18.9003 36.0018 19.2644 36H24.7293C25.0934 36.0024 25.4489 35.8894 25.7449 35.6772C26.0409 35.4651 26.2621 35.1647 26.3769 34.819L26.7679 33.608C26.8327 33.4289 26.9328 33.2647 27.0623 33.125C27.1918 32.9854 27.348 32.8731 27.5217 32.795C27.9589 32.5803 28.3832 32.3402 28.7924 32.076C29.1137 31.8558 29.5092 31.772 29.8922 31.843L31.1629 32.118C31.519 32.1969 31.8909 32.1622 32.2263 32.0187C32.5617 31.8752 32.8436 31.6301 33.0325 31.318L35.7689 26.695C35.9523 26.3847 36.0297 26.0232 35.9897 25.6649C35.9497 25.3067 35.7943 24.9712 35.547 24.709L34.6642 23.77ZM21.9979 28.862C20.642 28.862 19.3165 28.4599 18.1891 27.7064C17.0617 26.953 16.1831 25.882 15.6642 24.6291C15.1453 23.3761 15.0095 21.9974 15.2741 20.6673C15.5386 19.3372 16.1915 18.1154 17.1503 17.1564C18.109 16.1974 19.3306 15.5444 20.6604 15.2798C21.9903 15.0152 23.3687 15.151 24.6214 15.67C25.8741 16.189 26.9447 17.0679 27.698 18.1955C28.4513 19.3231 28.8534 20.6488 28.8534 22.005C28.8534 22.9055 28.6761 23.7972 28.3316 24.6291C27.987 25.461 27.4821 26.2169 26.8455 26.8537C26.2089 27.4904 25.4531 27.9955 24.6214 28.3401C23.7896 28.6847 22.8981 28.862 21.9979 28.862Z" fill="white"/>
<path d="M15.8414 13.5152C15.8107 13.4864 15.7883 13.45 15.7764 13.4096C15.7646 13.3693 15.7637 13.3265 15.7739 13.2857C15.7841 13.2449 15.805 13.2076 15.8344 13.1775C15.8638 13.1475 15.9008 13.1259 15.9413 13.115C16.6231 12.9518 17.3364 12.9771 18.005 13.188C18.6736 13.3989 19.2724 13.7877 19.7374 14.3127C20.2025 14.8376 20.5163 15.4792 20.6454 16.1687C20.7745 16.8583 20.714 17.57 20.4704 18.2279L25.7782 23.5409C26.4352 23.296 27.1462 23.2344 27.8354 23.3626C28.5246 23.4908 29.166 23.8041 29.6911 24.2688C30.2162 24.7336 30.6052 25.3325 30.8166 26.0014C31.028 26.6703 31.0537 27.3841 30.8912 28.0665C30.8802 28.1071 30.8586 28.144 30.8286 28.1735C30.7987 28.203 30.7613 28.2239 30.7206 28.2341C30.6798 28.2443 30.637 28.2434 30.5967 28.2315C30.5564 28.2197 30.52 28.1972 30.4912 28.1665L28.8806 26.5546C28.7548 26.4286 28.6054 26.3287 28.441 26.2605C28.2765 26.1923 28.1003 26.1572 27.9223 26.1572C27.7443 26.1572 27.5681 26.1923 27.4036 26.2605C27.2392 26.3287 27.0898 26.4286 26.964 26.5546L26.5461 26.9719C26.2923 27.2264 26.1498 27.5713 26.1498 27.9309C26.1498 28.2905 26.2923 28.6354 26.5461 28.8899L28.1587 30.5029C28.1891 30.5318 28.2112 30.5682 28.2229 30.6085C28.2346 30.6488 28.2354 30.6914 28.2252 30.7321C28.2151 30.7728 28.1943 30.8101 28.1651 30.8401C28.1358 30.8701 28.0991 30.8919 28.0588 30.9031C27.3798 31.0652 26.6697 31.0405 26.0037 30.8315C25.3377 30.6225 24.7406 30.237 24.2757 29.716C23.8108 29.1949 23.4955 28.5577 23.3631 27.8718C23.2307 27.186 23.2862 26.477 23.5237 25.8202L18.1829 20.4902C17.5267 20.7284 16.8183 20.7845 16.1329 20.6523C15.4475 20.5202 14.8106 20.2048 14.2898 19.7396C13.7691 19.2745 13.3838 18.6769 13.1751 18.0103C12.9663 17.3437 12.9417 16.633 13.1039 15.9536C13.1115 15.9235 13.125 15.8952 13.1435 15.8703C13.162 15.8454 13.1853 15.8244 13.212 15.8085C13.2386 15.7926 13.2681 15.7821 13.2988 15.7777C13.3295 15.7732 13.3608 15.7748 13.3909 15.7825C13.4355 15.7934 13.4759 15.8175 13.5069 15.8515L15.1175 17.4635C15.2434 17.5895 15.3929 17.6895 15.5574 17.7577C15.7219 17.8259 15.8982 17.861 16.0763 17.861C16.2544 17.861 16.4307 17.8259 16.5952 17.7577C16.7597 17.6895 16.9092 17.5895 17.0351 17.4635L17.452 17.0472C17.7061 16.7926 17.8488 16.4475 17.8488 16.0877C17.8488 15.7278 17.7061 15.3827 17.452 15.1281L15.8414 13.5152Z" fill="white"/>
</svg>
