<svg width="44" height="44" viewBox="0 0 44 44" fill="none" xmlns="http://www.w3.org/2000/svg">
<path fill-rule="evenodd" clip-rule="evenodd" d="M13.6426 43.5083C12.5923 43.3193 11.5772 43.0288 10.6079 42.6465C5.49707 40.6714 1.63843 36.1616 0.56006 30.6489C0.23535 29.4736 0 26.0322 0 21.9697C0 17.9937 0.22534 14.6123 0.53955 13.3682C1.75293 6.90626 6.75464 2.02637 13.3252 0.59473C14.3823 0.25244 17.8967 0 22.0693 0C26.1274 0 29.5625 0.23877 30.7212 0.56689C30.748 0.57177 30.7732 0.57666 30.7964 0.58154C37.1021 1.85742 42.0776 6.82373 43.3941 13.1421C43.7424 14.1484 44 17.7192 44 21.9697C44 26.0176 43.7664 29.4497 43.4434 30.6367C42.0982 37.6304 36.2815 43.0225 29.1016 43.6924C27.4404 43.8794 24.8701 44 21.9849 44C18.2412 44 15.0276 43.7969 13.6426 43.5083V43.5083Z" fill="#5135FF"/>
<path opacity="0.75" fill-rule="evenodd" clip-rule="evenodd" d="M10.0371 32.8889C10.0371 34.6072 11.43 36.0001 13.1482 36.0001C14.8664 36.0001 16.2593 34.6072 16.2593 32.8889C16.2593 31.1707 14.8664 29.7778 13.1482 29.7778C11.43 29.7778 10.0371 31.1707 10.0371 32.8889ZM28.7038 32.8889C28.7038 34.6072 30.0967 36.0001 31.8149 36.0001C33.5331 36.0001 34.926 34.6072 34.926 32.8889C34.926 31.1707 33.5331 29.7778 31.8149 29.7778C30.0967 29.7778 28.7038 31.1707 28.7038 32.8889ZM22.4816 36.0001C20.7633 36.0001 19.3704 34.6072 19.3704 32.8889C19.3704 31.1707 20.7633 29.7778 22.4816 29.7778C24.1998 29.7778 25.5927 31.1707 25.5927 32.8889C25.5927 34.6072 24.1998 36.0001 22.4816 36.0001Z" fill="white"/>
<g opacity="0.45">
<path d="M21.4442 23.5557H23.5183V29.9549C23.194 29.8403 22.8449 29.7779 22.4813 29.7779C22.1177 29.7779 21.7686 29.8403 21.4442 29.9549V23.5557Z" fill="white"/>
<path d="M19.5472 31.852H16.082C16.1967 32.1763 16.2591 32.5254 16.2591 32.889C16.2591 33.2526 16.1967 33.6017 16.082 33.926H19.5472C19.4326 33.6017 19.3702 33.2526 19.3702 32.889C19.3702 32.5254 19.4326 32.1763 19.5472 31.852Z" fill="white"/>
<path d="M25.4154 33.926H28.8805C28.7659 33.6017 28.7035 33.2526 28.7035 32.889C28.7035 32.5254 28.7659 32.1763 28.8805 31.852H25.4154C25.53 32.1763 25.5924 32.5254 25.5924 32.889C25.5924 33.2526 25.53 33.6017 25.4154 33.926Z" fill="white"/>
</g>
<path d="M30.7778 26.6667C33.6415 26.6667 35.963 24.3452 35.963 21.4815C35.963 19.3476 34.6739 17.5147 32.8319 16.7191C32.5156 11.8508 28.4668 8 23.5185 8C19.4469 8 15.9843 10.6072 14.7089 14.2431C11.5126 14.5041 9 17.1809 9 20.4444C9 23.8809 11.7858 26.6667 15.2222 26.6667H30.7778Z" fill="white"/>
</svg>
