<svg width="44" height="44" viewBox="0 0 44 44" fill="none" xmlns="http://www.w3.org/2000/svg">
<path fill-rule="evenodd" clip-rule="evenodd" d="M13.6426 43.5083C12.5923 43.3193 11.5772 43.0288 10.6079 42.6465C5.49707 40.6714 1.63843 36.1616 0.56006 30.6489C0.23535 29.4736 0 26.0322 0 21.9697C0 17.9937 0.22534 14.6123 0.53955 13.3682C1.75293 6.90626 6.75464 2.02637 13.3252 0.59473C14.3823 0.25244 17.8967 0 22.0693 0C26.1274 0 29.5625 0.23877 30.7212 0.56689C30.748 0.57177 30.7732 0.57666 30.7964 0.58154C37.1021 1.85742 42.0776 6.82373 43.3941 13.1421C43.7424 14.1484 44 17.7192 44 21.9697C44 26.0176 43.7664 29.4497 43.4434 30.6367C42.0982 37.6304 36.2815 43.0225 29.1016 43.6924C27.4404 43.8794 24.8701 44 21.9849 44C18.2412 44 15.0276 43.7969 13.6426 43.5083V43.5083Z" fill="#5135FF"/>
<path opacity="0.45" fill-rule="evenodd" clip-rule="evenodd" d="M21.726 8.04999C21.9027 7.98399 22.0973 7.98399 22.274 8.04999L35.125 12.861C35.3797 12.9537 35.6001 13.1221 35.7564 13.3435C35.9128 13.565 35.9978 13.8289 36 14.1V15.231C36.0002 17.8821 35.766 20.5281 35.3 23.138C35.0694 24.4267 34.6605 25.6771 34.085 26.853L33.61 27.823C32.7314 29.6131 31.4445 31.1716 29.853 32.373C28.2628 33.5753 26.4904 34.5152 24.603 35.157L22.253 35.957C22.0908 36.0116 21.9152 36.0116 21.753 35.957L19.403 35.157C17.5156 34.5153 15.7431 33.5753 14.153 32.373C12.5615 31.1716 11.2746 29.613 10.396 27.823L9.777 26.558C9.29855 25.5807 8.95025 24.5448 8.741 23.477C8.24996 20.9771 8.00181 18.4356 8 15.888V14.1C8.00235 13.8287 8.08749 13.5646 8.24404 13.343C8.40059 13.1214 8.62107 12.9529 8.876 12.86L21.726 8.04999Z" fill="white"/>
<path opacity="0.75" fill-rule="evenodd" clip-rule="evenodd" d="M21.715 13.053C21.8986 12.983 22.1014 12.983 22.285 13.053L30.263 16.123C30.4778 16.2032 30.6632 16.3468 30.7948 16.5346C30.9264 16.7224 30.9979 16.9457 31 17.175V18.061C31 19.6575 30.8625 21.251 30.589 22.824C30.4201 23.792 30.0927 24.7255 29.62 25.587L29.483 25.838C28.9084 26.8834 28.1256 27.7999 27.183 28.531C26.0943 29.3786 24.8751 30.0436 23.573 30.5L22.262 30.959C22.0923 31.0178 21.9077 31.0178 21.738 30.959L20.427 30.5C19.1245 30.045 17.9046 29.3814 16.815 28.535C15.8724 27.8039 15.0896 26.8874 14.515 25.842L14.27 25.395C13.8701 24.666 13.5869 23.8787 13.431 23.062C13.1434 21.5472 12.999 20.0088 13 18.467V17.177C13.002 16.9471 13.0737 16.7233 13.2056 16.5351C13.3376 16.3469 13.5236 16.2032 13.739 16.123L21.715 13.053Z" fill="white"/>
<path d="M22 13V31C22.0892 30.9999 22.1778 30.9846 22.262 30.955L23.573 30.496C24.8755 30.0411 26.0954 29.3774 27.185 28.531C28.1276 27.7999 28.9104 26.8834 29.485 25.838L29.622 25.587C30.0947 24.7256 30.4221 23.792 30.591 22.824C30.8638 21.251 31.0006 19.6575 31 18.061V17.175C30.9981 16.9455 30.9267 16.722 30.7951 16.534C30.6635 16.346 30.478 16.2023 30.263 16.122L22.285 13.052C22.194 13.0173 22.0974 12.9997 22 13Z" fill="white"/>
</svg>
