<svg width="44" height="44" viewBox="0 0 44 44" fill="none" xmlns="http://www.w3.org/2000/svg">
<path fill-rule="evenodd" clip-rule="evenodd" d="M13.6426 43.5083C12.5923 43.3193 11.5772 43.0288 10.6079 42.6465C5.49707 40.6714 1.63843 36.1616 0.56006 30.6489C0.23535 29.4736 0 26.0322 0 21.9697C0 17.9937 0.22534 14.6123 0.53955 13.3682C1.75293 6.90626 6.75464 2.02637 13.3252 0.59473C14.3823 0.25244 17.8967 0 22.0693 0C26.1274 0 29.5625 0.23877 30.7212 0.56689C30.748 0.57177 30.7732 0.57666 30.7964 0.58154C37.1021 1.85742 42.0776 6.82373 43.3941 13.1421C43.7424 14.1484 44 17.7192 44 21.9697C44 26.0176 43.7664 29.4497 43.4434 30.6367C42.0982 37.6304 36.2815 43.0225 29.1016 43.6924C27.4404 43.8794 24.8701 44 21.9849 44C18.2412 44 15.0276 43.7969 13.6426 43.5083V43.5083Z" fill="#5135FF"/>
<path opacity="0.75" d="M21.9962 35.9989V31.6915C21.9912 31.6398 21.9737 31.59 21.9454 31.5464C21.9171 31.5028 21.8789 31.4668 21.8337 31.4412C21.7885 31.4156 21.7376 31.4015 21.6857 31.3997C21.6337 31.3979 21.5822 31.4083 21.5353 31.4307C21.1752 31.6027 20.781 31.6919 20.382 31.6915C19.668 31.6915 18.9832 31.4077 18.4783 30.9028C17.9734 30.3979 17.6899 29.7134 17.6899 28.9994C17.6899 28.2854 17.9734 27.6009 18.4783 27.096C18.9832 26.5911 19.668 26.3073 20.382 26.3073C20.781 26.3071 21.1751 26.3964 21.5353 26.5681C21.5822 26.5905 21.6337 26.6009 21.6857 26.5991C21.7376 26.5973 21.7885 26.5832 21.8337 26.5576C21.8789 26.532 21.9171 26.496 21.9454 26.4524C21.9737 26.4088 21.9912 26.359 21.9962 26.3073V21.9999H26.3035C26.355 22.0051 26.4045 22.0226 26.4479 22.0509C26.4912 22.0792 26.5271 22.1173 26.5525 22.1624C26.5779 22.2075 26.5922 22.2579 26.594 22.3096C26.5959 22.3613 26.5852 22.4127 26.563 22.4595C26.3918 22.8206 26.3032 23.2155 26.3035 23.6152C26.3035 24.3292 26.5871 25.0137 27.092 25.5186C27.5968 26.0235 28.2817 26.3073 28.9956 26.3073C29.7096 26.3073 30.3944 26.0235 30.8993 25.5186C31.4042 25.0137 31.6877 24.3292 31.6877 23.6152C31.6888 23.2156 31.6005 22.8206 31.4293 22.4595C31.4072 22.4128 31.3965 22.3618 31.3983 22.3101C31.4001 22.2585 31.4143 22.208 31.4396 22.1629C31.4649 22.1179 31.5005 22.0798 31.5437 22.0515C31.5869 22.0231 31.6364 22.0053 31.6877 21.9999H35.9951V33.8452C35.9951 34.4164 35.7683 34.964 35.3644 35.3679C34.9605 35.7718 34.4126 35.9989 33.8414 35.9989H21.9962ZM17.6888 21.9999C17.6372 21.9949 17.5877 21.9777 17.5442 21.9494C17.5007 21.9212 17.4646 21.8825 17.439 21.8375C17.4135 21.7924 17.3991 21.742 17.3972 21.6902C17.3953 21.6384 17.4061 21.5872 17.4283 21.5404C17.5994 21.1793 17.6877 20.7843 17.6867 20.3847C17.6867 19.6707 17.4031 18.9861 16.8983 18.4813C16.3934 17.9764 15.7086 17.6926 14.9946 17.6926C14.2806 17.6926 13.5958 17.9764 13.0909 18.4813C12.5861 18.9861 12.3025 19.6707 12.3025 20.3847C12.3022 20.7843 12.3908 21.1793 12.562 21.5404C12.5841 21.5871 12.5948 21.6385 12.593 21.6902C12.5912 21.7419 12.5769 21.7924 12.5515 21.8375C12.526 21.8825 12.4901 21.9206 12.4468 21.9489C12.4035 21.9772 12.354 21.9947 12.3025 21.9999H7.99512V10.1547C7.99512 9.58347 8.22192 9.03583 8.62582 8.63194C9.02971 8.22804 9.57761 8.00098 10.1488 8.00098H21.9941V12.3083C21.9991 12.3599 22.0163 12.4095 22.0445 12.4529C22.0728 12.4964 22.1112 12.5325 22.1563 12.5581C22.2014 12.5837 22.252 12.5977 22.3038 12.5996C22.3556 12.6015 22.407 12.5913 22.4539 12.5691C22.8149 12.3976 23.2096 12.3084 23.6093 12.3083C24.3233 12.3083 25.0081 12.5922 25.513 13.097C26.0179 13.6019 26.3014 14.2865 26.3014 15.0005C26.3014 15.7144 26.0179 16.399 25.513 16.9039C25.0081 17.4087 24.3233 17.6926 23.6093 17.6926C23.2096 17.6929 22.8148 17.6036 22.4539 17.4318C22.407 17.4096 22.3556 17.3994 22.3038 17.4013C22.252 17.4032 22.2014 17.4172 22.1563 17.4428C22.1112 17.4684 22.0728 17.5045 22.0445 17.548C22.0163 17.5914 21.9991 17.641 21.9941 17.6926V21.9999H17.6888Z" fill="white"/>
<path opacity="0.45" d="M23.6123 12.3089C24.016 12.3093 24.4144 12.4004 24.7781 12.5755C25.1418 12.7506 25.4614 13.0053 25.7134 13.3206C25.9653 13.636 26.1431 14.004 26.2337 14.3973C26.3242 14.7907 26.3251 15.1994 26.2363 15.5932C26.1475 15.9869 25.9713 16.3557 25.7208 16.6721C25.4702 16.9886 25.1517 17.2447 24.7888 17.4214C24.4259 17.5981 24.0279 17.691 23.6242 17.6931C23.2206 17.6952 22.8216 17.6065 22.4569 17.4336C22.4101 17.4115 22.3587 17.4008 22.307 17.4027C22.2553 17.4045 22.2048 17.4188 22.1597 17.4442C22.1146 17.4696 22.0763 17.5055 22.048 17.5488C22.0197 17.5922 22.0023 17.6417 21.9971 17.6931V22.0005H26.3044C26.356 22.0055 26.4056 22.0229 26.4491 22.0511C26.4925 22.0794 26.5286 22.1177 26.5541 22.1628C26.5797 22.2078 26.594 22.2584 26.5959 22.3102C26.5978 22.362 26.5872 22.4135 26.565 22.4603C26.3705 22.8707 26.2829 23.3235 26.3105 23.7768C26.338 24.2301 26.4798 24.669 26.7225 25.0528C26.9653 25.4366 27.3012 25.7527 27.699 25.9717C28.0968 26.1908 28.5435 26.3057 28.9976 26.3057C29.4517 26.3057 29.8985 26.1908 30.2962 25.9717C30.694 25.7527 31.0299 25.4366 31.2727 25.0528C31.5155 24.669 31.6572 24.2301 31.6848 23.7768C31.7123 23.3235 31.6247 22.8707 31.4302 22.4603C31.4081 22.4136 31.3974 22.3623 31.3992 22.3107C31.401 22.259 31.4151 22.2086 31.4405 22.1635C31.4658 22.1185 31.5015 22.0802 31.5447 22.0518C31.5879 22.0235 31.6373 22.0059 31.6887 22.0005H35.996V10.1552C35.996 9.58405 35.7691 9.03626 35.3652 8.63236C34.9613 8.22847 34.4135 8.00156 33.8423 8.00156H21.9971V12.3089C22.0021 12.3605 22.0195 12.4101 22.0477 12.4536C22.0759 12.497 22.1142 12.5331 22.1593 12.5586C22.2044 12.5842 22.255 12.5985 22.3068 12.6004C22.3586 12.6023 22.41 12.5917 22.4569 12.5695C22.8178 12.3976 23.2126 12.3086 23.6123 12.3089Z" fill="white"/>
<path d="M20.3818 31.6916C19.9782 31.6912 19.5797 31.6001 19.2161 31.425C18.8524 31.2499 18.5327 30.9952 18.2808 30.6799C18.0288 30.3645 17.851 29.9965 17.7605 29.6032C17.67 29.2098 17.6691 28.8011 17.7578 28.4073C17.8466 28.0136 18.0228 27.6448 18.2734 27.3283C18.5239 27.0119 18.8425 26.7558 19.2054 26.5791C19.5683 26.4024 19.9663 26.3095 20.3699 26.3074C20.7736 26.3053 21.1725 26.394 21.5373 26.5669C21.584 26.589 21.6354 26.5996 21.6871 26.5978C21.7389 26.596 21.7894 26.5817 21.8344 26.5563C21.8795 26.5309 21.9178 26.495 21.9461 26.4516C21.9744 26.4083 21.9919 26.3588 21.9971 26.3073V22H17.6897C17.6381 21.9949 17.5885 21.9776 17.545 21.9493C17.5016 21.9211 17.4656 21.8828 17.44 21.8377C17.4145 21.7926 17.4001 21.7421 17.3982 21.6903C17.3963 21.6385 17.4069 21.587 17.4291 21.5402C17.6236 21.1298 17.7112 20.677 17.6837 20.2237C17.6561 19.7704 17.5144 19.3315 17.2716 18.9477C17.0288 18.5639 16.6929 18.2478 16.2951 18.0288C15.8974 17.8097 15.4506 17.6948 14.9965 17.6948C14.5424 17.6948 14.0957 17.8097 13.6979 18.0288C13.3001 18.2478 12.9642 18.5639 12.7214 18.9477C12.4787 19.3315 12.3369 19.7704 12.3094 20.2237C12.2818 20.677 12.3694 21.1298 12.5639 21.5402C12.5861 21.5868 12.5967 21.6382 12.5949 21.6898C12.5932 21.7414 12.579 21.7919 12.5537 21.8369C12.5284 21.882 12.4926 21.9203 12.4494 21.9487C12.4062 21.977 12.3569 21.9946 12.3055 22H7.99812L7.99812 33.8452C7.99812 34.4164 8.22503 34.9642 8.62892 35.3681C9.03282 35.772 9.58061 35.9989 10.1518 35.9989H21.9971V31.6916C21.992 31.64 21.9747 31.5904 21.9464 31.5469C21.9182 31.5034 21.8799 31.4674 21.8348 31.4419C21.7897 31.4163 21.7392 31.402 21.6874 31.4001C21.6356 31.3982 21.5841 31.4088 21.5373 31.431C21.1763 31.6028 20.7816 31.6919 20.3818 31.6916Z" fill="white"/>
</svg>
