<svg width="44" height="44" viewBox="0 0 44 44" fill="none" xmlns="http://www.w3.org/2000/svg">
<path fill-rule="evenodd" clip-rule="evenodd" d="M13.6426 43.5083C12.5923 43.3193 11.5772 43.0288 10.6079 42.6465C5.49707 40.6714 1.63843 36.1616 0.56006 30.6489C0.23535 29.4736 0 26.0322 0 21.9697C0 17.9937 0.22534 14.6123 0.53955 13.3682C1.75293 6.90626 6.75464 2.02637 13.3252 0.59473C14.3823 0.25244 17.8967 0 22.0693 0C26.1274 0 29.5625 0.23877 30.7212 0.56689C30.748 0.57177 30.7732 0.57666 30.7964 0.58154C37.1021 1.85742 42.0776 6.82373 43.3941 13.1421C43.7424 14.1484 44 17.7192 44 21.9697C44 26.0176 43.7664 29.4497 43.4434 30.6367C42.0982 37.6304 36.2815 43.0225 29.1016 43.6924C27.4404 43.8794 24.8701 44 21.9849 44C18.2412 44 15.0276 43.7969 13.6426 43.5083V43.5083Z" fill="#5135FF"/>
<path opacity="0.45" fill-rule="evenodd" clip-rule="evenodd" d="M16 8C16.2652 8 16.5196 8.10536 16.7071 8.29289C16.8946 8.48043 17 8.73478 17 9V11H21V9C21 8.73478 21.1054 8.48043 21.2929 8.29289C21.4804 8.10536 21.7348 8 22 8C22.2652 8 22.5196 8.10536 22.7071 8.29289C22.8946 8.48043 23 8.73478 23 9V11H27V9C27 8.73478 27.1054 8.48043 27.2929 8.29289C27.4804 8.10536 27.7348 8 28 8C28.2652 8 28.5196 8.10536 28.7071 8.29289C28.8946 8.48043 29 8.73478 29 9V11C30.0609 11 31.0783 11.4214 31.8284 12.1716C32.5786 12.9217 33 13.9391 33 15H35C35.2652 15 35.5196 15.1054 35.7071 15.2929C35.8946 15.4804 36 15.7348 36 16C36 16.2652 35.8946 16.5196 35.7071 16.7071C35.5196 16.8946 35.2652 17 35 17H33V21H35C35.2652 21 35.5196 21.1054 35.7071 21.2929C35.8946 21.4804 36 21.7348 36 22C36 22.2652 35.8946 22.5196 35.7071 22.7071C35.5196 22.8946 35.2652 23 35 23H33V27H35C35.2652 27 35.5196 27.1054 35.7071 27.2929C35.8946 27.4804 36 27.7348 36 28C36 28.2652 35.8946 28.5196 35.7071 28.7071C35.5196 28.8946 35.2652 29 35 29H33C33 30.0609 32.5786 31.0783 31.8284 31.8284C31.0783 32.5786 30.0609 33 29 33V35C29 35.2652 28.8946 35.5196 28.7071 35.7071C28.5196 35.8946 28.2652 36 28 36C27.7348 36 27.4804 35.8946 27.2929 35.7071C27.1054 35.5196 27 35.2652 27 35V33H23V35C23 35.2652 22.8946 35.5196 22.7071 35.7071C22.5196 35.8946 22.2652 36 22 36C21.7348 36 21.4804 35.8946 21.2929 35.7071C21.1054 35.5196 21 35.2652 21 35V33H17V35C17 35.2652 16.8946 35.5196 16.7071 35.7071C16.5196 35.8946 16.2652 36 16 36C15.7348 36 15.4804 35.8946 15.2929 35.7071C15.1054 35.5196 15 35.2652 15 35V33C13.9391 33 12.9217 32.5786 12.1716 31.8284C11.4214 31.0783 11 30.0609 11 29H9C8.73478 29 8.48043 28.8946 8.29289 28.7071C8.10536 28.5196 8 28.2652 8 28C8 27.7348 8.10536 27.4804 8.29289 27.2929C8.48043 27.1054 8.73478 27 9 27H11V23H9C8.73478 23 8.48043 22.8946 8.29289 22.7071C8.10536 22.5196 8 22.2652 8 22C8 21.7348 8.10536 21.4804 8.29289 21.2929C8.48043 21.1054 8.73478 21 9 21H11V17H9C8.73478 17 8.48043 16.8946 8.29289 16.7071C8.10536 16.5196 8 16.2652 8 16C8 15.7348 8.10536 15.4804 8.29289 15.2929C8.48043 15.1054 8.73478 15 9 15H11C11 13.9391 11.4214 12.9217 12.1716 12.1716C12.9217 11.4214 13.9391 11 15 11V9C15 8.73478 15.1054 8.48043 15.2929 8.29289C15.4804 8.10536 15.7348 8 16 8ZM17 15C16.4696 15 15.9609 15.2107 15.5858 15.5858C15.2107 15.9609 15 16.4696 15 17V27C15 27.5304 15.2107 28.0391 15.5858 28.4142C15.9609 28.7893 16.4696 29 17 29H27C27.5304 29 28.0391 28.7893 28.4142 28.4142C28.7893 28.0391 29 27.5304 29 27V17C29 16.4696 28.7893 15.9609 28.4142 15.5858C28.0391 15.2107 27.5304 15 27 15H17Z" fill="white"/>
<path d="M25 18H19C18.4477 18 18 18.4477 18 19V25C18 25.5523 18.4477 26 19 26H25C25.5523 26 26 25.5523 26 25V19C26 18.4477 25.5523 18 25 18Z" fill="white"/>
</svg>
