<svg width="32" height="32" viewBox="0 0 32 32" fill="none" xmlns="http://www.w3.org/2000/svg">
<path fill-rule="evenodd" clip-rule="evenodd" d="M27.999 27H4C2.89667 27 1.99902 26.1025 1.99902 24.999V7.00098C1.99902 5.89746 2.89666 5 4 5H27.999C29.1024 5 30 5.89746 30 7.00098V24.999C30 26.1025 29.1024 27 27.999 27ZM4 7.00099V24.001C4 24.5518 4.44885 24.999 5.00049 24.999H27.0011C27.5513 24.999 27.999 24.5518 27.999 24.001V7.00099H4Z" fill="#100B33"/>
<path fill-rule="evenodd" clip-rule="evenodd" d="M15.9794 18.1256C15.178 18.1256 14.4247 17.8135 13.8584 17.2468L3.30591 6.69425L4.71216 5.288L15.2723 15.8482C15.4615 16.0374 15.7124 16.1416 15.9788 16.1416C16.2458 16.1416 16.497 16.0374 16.6862 15.8482L27.2464 5.28796L28.6526 6.69425L18.101 17.2468C17.5343 17.8135 16.7808 18.1256 15.9794 18.1256Z" fill="#100B33"/>
</svg>
