<svg width="32" height="32" viewBox="0 0 32 32" fill="none" xmlns="http://www.w3.org/2000/svg">
<path d="M2 1H30C30.5523 1 31 1.44771 31 2V30C31 30.5523 30.5523 31 30 31H2C1.44771 31 1 30.5523 1 30V2C1 1.48232 1.39333 1.05621 1.89746 1.00488L2 1Z" stroke="#100B33" stroke-width="2"/>
<mask id="path-2-inside-1_2920_6914" fill="white">
<path fill-rule="evenodd" clip-rule="evenodd" d="M15.1621 28.6447C15.1528 28.6408 15.1482 28.6369 15.1435 28.631L13.0143 26.5021C12.8194 26.3068 12.8194 25.9923 13.0143 25.797L13.3715 25.4396C13.5663 25.2443 13.8818 25.2443 14.0766 25.4396L15.0276 26.3908V22.4357C13.6537 22.2287 12.42 21.5919 11.4674 20.6681L8.74179 23.3947H10.0825C10.3561 23.3947 10.5788 23.6173 10.5788 23.8947V24.3966C10.5788 24.674 10.3561 24.8966 10.0825 24.8966H7.07639C6.51972 24.8966 6.07438 24.4513 6.07438 23.8947V20.8888C6.07438 20.6154 6.29707 20.3927 6.57539 20.3927H7.0764C7.35475 20.3927 7.57741 20.6154 7.57741 20.8888V22.4337L10.512 19.4982C9.93471 18.5978 9.57411 17.5431 9.50243 16.4122H5.46206L6.55221 17.5021C6.74706 17.6974 6.74706 18.0177 6.55221 18.213L6.19967 18.5646C6.00482 18.7599 5.68472 18.7599 5.48989 18.5646L3.36526 16.4396C2.97558 16.0509 2.97558 15.4142 3.36526 15.0255L5.48989 12.9005C5.68935 12.7013 6.00481 12.7052 6.19967 12.9005L6.55221 13.254C6.74706 13.4474 6.7517 13.7677 6.55221 13.963L5.60586 14.9083H9.5794C9.72698 14.0314 10.0501 13.213 10.512 12.4904L7.57742 9.5509V11.0958C7.57742 11.3693 7.35476 11.5978 7.07641 11.5978H6.5754C6.29708 11.5978 6.07439 11.3693 6.07439 11.0958V8.08996C6.07439 7.53723 6.51973 7.08801 7.0764 7.08801H10.0825C10.3561 7.08801 10.5788 7.31457 10.5788 7.58801V8.08996C10.5788 8.3673 10.3561 8.58996 10.0825 8.58996H8.7418L11.4676 11.3204C12.4201 10.3966 13.6537 9.75988 15.0276 9.55481V5.59973L14.0766 6.54504C13.8818 6.74035 13.5663 6.74035 13.3715 6.54504L13.0143 6.19348C12.8194 5.99817 12.8194 5.67786 13.0143 5.48254L15.1389 3.35754H15.1436C15.5332 2.96887 16.1642 2.96887 16.5538 3.35754H16.5584L18.6831 5.48254C18.8779 5.67785 18.8779 5.99817 18.6831 6.19348L18.3259 6.54504C18.1311 6.74035 17.8156 6.74035 17.6208 6.54504L16.526 5.4552V9.50208C17.9855 9.61927 19.309 10.2169 20.3382 11.1388L22.886 8.58997H21.5453C21.267 8.58997 21.0443 8.36731 21.0443 8.08997V7.58802C21.0443 7.31458 21.267 7.08802 21.5453 7.08802H24.5514C25.1034 7.08802 25.5488 7.53724 25.5488 8.08997V11.0958C25.5488 11.3751 25.3261 11.5978 25.0524 11.5978H24.5514C24.2731 11.5978 24.0504 11.3751 24.0504 11.0958V9.55091L21.337 12.2638C21.8791 13.0392 22.2568 13.9376 22.4197 14.9083H26.3931L25.4467 13.963C25.2519 13.7677 25.2519 13.4533 25.4467 13.2579L25.8039 12.9005C25.9987 12.7052 26.3142 12.7052 26.509 12.9005L28.6337 15.0255C28.6476 15.0392 28.6569 15.049 28.6662 15.0568C28.6662 15.0626 28.6708 15.0626 28.6708 15.0626C28.8378 15.2482 28.9213 15.4747 28.9306 15.7072C28.9306 15.7169 28.9306 15.7208 28.9306 15.7247C28.9306 15.7247 28.9306 15.7306 28.9306 15.7345C28.9306 15.7345 28.9306 15.7404 28.9306 15.7443C28.9306 15.7482 28.9306 15.7541 28.9306 15.758C28.9306 15.758 28.9306 15.758 28.9306 15.7619C28.9213 16.008 28.8239 16.2501 28.6337 16.4396L26.509 18.5646C26.3142 18.7599 25.9988 18.7599 25.8039 18.5646L25.4467 18.213C25.2519 18.0177 25.2519 17.6974 25.4467 17.5021L26.5415 16.4123H22.4966C22.4189 17.6388 22.0015 18.7755 21.3371 19.7248L24.0504 22.4337V20.8888C24.0504 20.6154 24.2731 20.3888 24.5468 20.3888H25.0524C25.3261 20.3888 25.5488 20.6154 25.5488 20.8888V23.8947C25.5488 24.4513 25.1034 24.8966 24.5514 24.8966H21.5454C21.267 24.8966 21.0444 24.674 21.0444 24.3966V23.8947C21.0444 23.6173 21.267 23.3947 21.5454 23.3947H22.886L20.3385 20.8498C19.3092 21.7716 17.9858 22.3712 16.526 22.4865V26.5353L17.6208 25.4396C17.8156 25.2443 18.1311 25.2443 18.3259 25.4396L18.6831 25.797C18.8779 25.9923 18.8779 26.3068 18.6831 26.5021L16.5585 28.631C16.363 28.8244 16.1066 28.922 15.8505 28.922C15.602 28.922 15.354 28.8302 15.1621 28.6447L15.1621 28.6447Z"/>
</mask>
<path fill-rule="evenodd" clip-rule="evenodd" d="M15.1621 28.6447C15.1528 28.6408 15.1482 28.6369 15.1435 28.631L13.0143 26.5021C12.8194 26.3068 12.8194 25.9923 13.0143 25.797L13.3715 25.4396C13.5663 25.2443 13.8818 25.2443 14.0766 25.4396L15.0276 26.3908V22.4357C13.6537 22.2287 12.42 21.5919 11.4674 20.6681L8.74179 23.3947H10.0825C10.3561 23.3947 10.5788 23.6173 10.5788 23.8947V24.3966C10.5788 24.674 10.3561 24.8966 10.0825 24.8966H7.07639C6.51972 24.8966 6.07438 24.4513 6.07438 23.8947V20.8888C6.07438 20.6154 6.29707 20.3927 6.57539 20.3927H7.0764C7.35475 20.3927 7.57741 20.6154 7.57741 20.8888V22.4337L10.512 19.4982C9.93471 18.5978 9.57411 17.5431 9.50243 16.4122H5.46206L6.55221 17.5021C6.74706 17.6974 6.74706 18.0177 6.55221 18.213L6.19967 18.5646C6.00482 18.7599 5.68472 18.7599 5.48989 18.5646L3.36526 16.4396C2.97558 16.0509 2.97558 15.4142 3.36526 15.0255L5.48989 12.9005C5.68935 12.7013 6.00481 12.7052 6.19967 12.9005L6.55221 13.254C6.74706 13.4474 6.7517 13.7677 6.55221 13.963L5.60586 14.9083H9.5794C9.72698 14.0314 10.0501 13.213 10.512 12.4904L7.57742 9.5509V11.0958C7.57742 11.3693 7.35476 11.5978 7.07641 11.5978H6.5754C6.29708 11.5978 6.07439 11.3693 6.07439 11.0958V8.08996C6.07439 7.53723 6.51973 7.08801 7.0764 7.08801H10.0825C10.3561 7.08801 10.5788 7.31457 10.5788 7.58801V8.08996C10.5788 8.3673 10.3561 8.58996 10.0825 8.58996H8.7418L11.4676 11.3204C12.4201 10.3966 13.6537 9.75988 15.0276 9.55481V5.59973L14.0766 6.54504C13.8818 6.74035 13.5663 6.74035 13.3715 6.54504L13.0143 6.19348C12.8194 5.99817 12.8194 5.67786 13.0143 5.48254L15.1389 3.35754H15.1436C15.5332 2.96887 16.1642 2.96887 16.5538 3.35754H16.5584L18.6831 5.48254C18.8779 5.67785 18.8779 5.99817 18.6831 6.19348L18.3259 6.54504C18.1311 6.74035 17.8156 6.74035 17.6208 6.54504L16.526 5.4552V9.50208C17.9855 9.61927 19.309 10.2169 20.3382 11.1388L22.886 8.58997H21.5453C21.267 8.58997 21.0443 8.36731 21.0443 8.08997V7.58802C21.0443 7.31458 21.267 7.08802 21.5453 7.08802H24.5514C25.1034 7.08802 25.5488 7.53724 25.5488 8.08997V11.0958C25.5488 11.3751 25.3261 11.5978 25.0524 11.5978H24.5514C24.2731 11.5978 24.0504 11.3751 24.0504 11.0958V9.55091L21.337 12.2638C21.8791 13.0392 22.2568 13.9376 22.4197 14.9083H26.3931L25.4467 13.963C25.2519 13.7677 25.2519 13.4533 25.4467 13.2579L25.8039 12.9005C25.9987 12.7052 26.3142 12.7052 26.509 12.9005L28.6337 15.0255C28.6476 15.0392 28.6569 15.049 28.6662 15.0568C28.6662 15.0626 28.6708 15.0626 28.6708 15.0626C28.8378 15.2482 28.9213 15.4747 28.9306 15.7072C28.9306 15.7169 28.9306 15.7208 28.9306 15.7247C28.9306 15.7247 28.9306 15.7306 28.9306 15.7345C28.9306 15.7345 28.9306 15.7404 28.9306 15.7443C28.9306 15.7482 28.9306 15.7541 28.9306 15.758C28.9306 15.758 28.9306 15.758 28.9306 15.7619C28.9213 16.008 28.8239 16.2501 28.6337 16.4396L26.509 18.5646C26.3142 18.7599 25.9988 18.7599 25.8039 18.5646L25.4467 18.213C25.2519 18.0177 25.2519 17.6974 25.4467 17.5021L26.5415 16.4123H22.4966C22.4189 17.6388 22.0015 18.7755 21.3371 19.7248L24.0504 22.4337V20.8888C24.0504 20.6154 24.2731 20.3888 24.5468 20.3888H25.0524C25.3261 20.3888 25.5488 20.6154 25.5488 20.8888V23.8947C25.5488 24.4513 25.1034 24.8966 24.5514 24.8966H21.5454C21.267 24.8966 21.0444 24.674 21.0444 24.3966V23.8947C21.0444 23.6173 21.267 23.3947 21.5454 23.3947H22.886L20.3385 20.8498C19.3092 21.7716 17.9858 22.3712 16.526 22.4865V26.5353L17.6208 25.4396C17.8156 25.2443 18.1311 25.2443 18.3259 25.4396L18.6831 25.797C18.8779 25.9923 18.8779 26.3068 18.6831 26.5021L16.5585 28.631C16.363 28.8244 16.1066 28.922 15.8505 28.922C15.602 28.922 15.354 28.8302 15.1621 28.6447L15.1621 28.6447Z" stroke="#100B33" stroke-width="4" mask="url(#path-2-inside-1_2920_6914)"/>
</svg>
