<svg width="32" height="32" viewBox="0 0 32 32" fill="none" xmlns="http://www.w3.org/2000/svg">
<path fill-rule="evenodd" clip-rule="evenodd" d="M7 30C6.44824 30 6 29.5518 6 29V3C6 2.44824 6.44824 2 7 2H25C25.5525 2 26 2.44824 26 3V29C26 29.5518 25.5525 30 25 30H7ZM8 28H24V3.99976H8V28ZM13.5007 25.9995C13.2244 25.9995 13.0002 25.7761 13.0002 25.5V24.5C13.0002 24.2236 13.2244 23.9995 13.5007 23.9995H18.5002C18.7764 23.9995 19.0005 24.2236 19.0005 24.5V25.5C19.0005 25.7761 18.7764 25.9995 18.5002 25.9995H13.5007ZM11.0005 21.9998C10.448 21.9998 10.0005 21.5515 10.0005 21V6.99951C10.0005 6.44775 10.448 5.99951 11.0005 5.99951H21.0005C21.552 5.99951 22.0002 6.44775 22.0002 6.99951V21C22.0002 21.5515 21.552 21.9998 21.0005 21.9998H11.0005ZM12.0005 20H20.0005V7.99951H12.0005V20Z" fill="#100B33"/>
</svg>
