<svg width="32" height="32" viewBox="0 0 32 32" fill="none" xmlns="http://www.w3.org/2000/svg">
<path fill-rule="evenodd" clip-rule="evenodd" d="M12.1429 27H3.4994C3.2245 27 3.00099 26.7769 3.00099 26.5V25.5C3.00099 25.2251 3.2245 24.9995 3.4994 24.9995H12.1429C12.5057 23.6016 13.6013 22.5063 15.001 22.1416V20H4.99976C3.89502 20 3.00098 19.106 3.00098 17.9995V11.9995V10.0005V4.00049C3.00098 2.896 3.89502 2 4.99976 2H27.001C28.1057 2 28.9998 2.896 28.9998 4.00049V10.0005V11.9995V17.9995C28.9998 19.106 28.1057 20 27.001 20H16.9998V22.1416C18.3994 22.5063 19.495 23.6016 19.8578 24.9995H28.4996C28.7762 24.9995 28.9998 25.2251 28.9998 25.5V26.5C28.9998 26.7769 28.7762 27 28.4996 27H19.8578C19.4108 28.7207 17.859 29.9995 15.9995 29.9995C14.1417 29.9995 12.59 28.7207 12.1429 27H12.1429ZM14.0007 26C14.0007 27.103 14.8966 28.0005 15.9995 28.0005C17.1024 28.0005 18.0001 27.103 18.0001 26C18.0001 24.897 17.1024 23.9995 15.9995 23.9995C14.8966 23.9995 14.0007 24.897 14.0007 26ZM4.99976 17.9995H27.001V11.9995H4.99976V17.9995ZM4.99976 10.0005H27.001V4.00049H4.99976V10.0005ZM17.4999 16.0005C17.2233 16.0005 16.9998 15.7769 16.9998 15.5005V14.5C16.9998 14.2236 17.2233 14 17.4999 14H24.5003C24.7769 14 25.0004 14.2236 25.0004 14.5V15.5005C25.0004 15.7769 24.7769 16.0005 24.5003 16.0005H17.4999ZM7.50062 16.0005C7.22389 16.0005 7.00038 15.7769 7.00038 15.5005V14.5C7.00038 14.2236 7.22389 14 7.50062 14H8.50086C8.77564 14 9.00098 14.2236 9.00098 14.5V15.5005C9.00098 15.7769 8.77564 16.0005 8.50086 16.0005H7.50062ZM17.4999 8C17.2233 8 16.9998 7.77637 16.9998 7.5V6.49951C16.9998 6.22265 17.2233 5.99951 17.4999 5.99951H24.5003C24.7769 5.99951 25.0004 6.22265 25.0004 6.49951V7.5C25.0004 7.77637 24.7769 8 24.5003 8H17.4999ZM7.50062 8C7.22389 8 7.00038 7.77637 7.00038 7.5V6.49951C7.00038 6.22265 7.22389 5.99951 7.50062 5.99951H8.50086C8.77564 5.99951 9.00098 6.22265 9.00098 6.49951V7.5C9.00098 7.77637 8.77564 8 8.50086 8H7.50062Z" fill="#100B33"/>
</svg>
