<svg width="32" height="32" viewBox="0 0 32 32" fill="none" xmlns="http://www.w3.org/2000/svg">
<path fill-rule="evenodd" clip-rule="evenodd" d="M1.30768 11.6564L1.30771 11.6564C1.69824 12.0469 2.33139 12.0469 2.72192 11.6564L6.25744 8.12087C6.64796 7.73034 6.64796 7.09717 6.25743 6.70665L6.2574 6.70662C5.86687 6.31609 5.23371 6.31609 4.84319 6.70662L1.30767 10.2421C0.917146 10.6327 0.917153 11.2658 1.30767 11.6564L1.30768 11.6564Z" fill="#100B33"/>
<path fill-rule="evenodd" clip-rule="evenodd" d="M1.00049 10.9985C1.00049 11.5508 1.48561 11.9986 2.08404 11.9986L29.9169 11.9986C30.5154 11.9986 31.0005 11.5508 31.0005 10.9985C31.0005 10.4463 30.5154 9.99854 29.9169 9.99854L2.08404 9.99854C1.48561 9.99854 1.00049 10.4463 1.00049 10.9985Z" fill="#100B33"/>
<path fill-rule="evenodd" clip-rule="evenodd" d="M1.30751 11.7559L4.84302 15.2914C5.23355 15.6819 5.8667 15.6819 6.25723 15.2914L6.25726 15.2914C6.64779 14.9008 6.64778 14.2677 6.25727 13.8772L2.72176 10.3416C2.33123 9.9511 1.69807 9.9511 1.30754 10.3416L1.30751 10.3417C0.916985 10.7322 0.916992 11.3653 1.30751 11.7559L1.30751 11.7559Z" fill="#100B33"/>
<path fill-rule="evenodd" clip-rule="evenodd" d="M30.6923 21.6574L30.6923 21.6574C30.3017 22.0479 29.6686 22.0479 29.278 21.6574L25.7425 18.1219C25.352 17.7314 25.352 17.0982 25.7425 16.7077L25.7426 16.7076C26.1331 16.3171 26.7663 16.3171 27.1568 16.7076L30.6923 20.2432C31.0828 20.6337 31.0828 21.2668 30.6923 21.6574Z" fill="#100B33"/>
<path fill-rule="evenodd" clip-rule="evenodd" d="M30.9995 20.9995C30.9995 21.5518 30.5144 21.9995 29.916 21.9995H2.08307C1.48464 21.9995 0.999521 21.5518 0.999521 20.9995C0.999521 20.4472 1.48464 19.9995 2.08307 19.9995H29.916C30.5144 19.9995 30.9995 20.4472 30.9995 20.9995Z" fill="#100B33"/>
<path fill-rule="evenodd" clip-rule="evenodd" d="M30.6923 21.7568L27.1568 25.2923C26.7663 25.6828 26.1331 25.6828 25.7426 25.2923L25.7425 25.2923C25.352 24.9018 25.352 24.2686 25.7425 23.8781L29.278 20.3425C29.6686 19.952 30.3017 19.952 30.6923 20.3425L30.6923 20.3426C31.0828 20.7331 31.0828 21.3662 30.6923 21.7568Z" fill="#100B33"/>
<path fill-rule="evenodd" clip-rule="evenodd" d="M16.001 25.001C11.0378 25.001 7 20.9629 7 16C7 11.0371 11.0378 6.99902 16.001 6.99902C20.9627 6.99902 24.9994 11.0371 24.9994 16C24.9994 20.9629 20.9627 25.001 16.001 25.001ZM16.001 9C12.141 9 9.00078 12.1406 9.00078 16C9.00078 19.8594 12.141 23 16.001 23C19.8609 23 23.0012 19.8594 23.0012 16C23.0012 12.1406 19.8609 9 16.001 9Z" fill="#100B33"/>
</svg>
