<svg width="32" height="32" viewBox="0 0 32 32" fill="none" xmlns="http://www.w3.org/2000/svg">
<path fill-rule="evenodd" clip-rule="evenodd" d="M15.8283 30.9718L14.2927 30.4606C11.1818 29.4239 8.41613 27.5587 6.29528 25.0641C5.58898 24.2345 4.99578 23.3126 4.53155 22.3263L3.85296 20.8854C3.33715 19.7916 2.96813 18.6349 2.75189 17.4449C2.25195 14.7013 2 11.9181 2 9.12854V7.22815C2 6.66956 2.34521 6.16809 2.86896 5.96692L15.6141 1.07141C15.8621 0.976197 16.1378 0.976197 16.3858 1.07141L29.1389 5.96887C29.6567 6.16809 29.9999 6.6676 29.9999 7.22131V8.3883C29.9999 11.2955 29.7598 14.1974 29.2836 17.0675C29.0436 18.506 28.6071 19.9064 27.9861 21.2286L27.4683 22.3263C27.0041 23.3126 26.4108 24.2345 25.7045 25.0641C23.5837 27.5587 20.818 29.4239 17.7072 30.4606L16.1716 30.9718C16.116 30.9903 16.058 31.0001 15.9999 31.0001C15.9419 31.0001 15.8839 30.9903 15.8283 30.9718L15.8283 30.9718ZM4.15459 7.77649V9.12854C4.15459 11.7892 4.39263 14.4459 4.87078 17.0636C5.05328 18.0709 5.36681 19.0489 5.80321 19.9757L6.4818 21.4161C6.86473 22.2291 7.35472 22.9874 7.93804 23.6744C9.80498 25.8678 12.2393 27.5118 14.9732 28.4215L16.0009 28.7628L17.0267 28.4156C19.7626 27.505 22.1969 25.8629 24.0618 23.6705C24.6472 22.9835 25.1372 22.2252 25.5201 21.4103L26.0359 20.3151C26.5736 19.17 26.9525 17.9596 27.1588 16.714C27.6171 13.9625 27.8453 11.1774 27.8453 8.38832V7.7765L16.0009 3.22718L4.15459 7.77649Z" fill="#100B33"/>
<path fill-rule="evenodd" clip-rule="evenodd" d="M23.7881 18L20.8934 12.1387H20.8517C20.8586 12.2803 20.8679 12.4717 20.8772 12.7109C20.8863 12.9492 20.8979 13.2109 20.9118 13.4883C20.9258 13.7705 20.935 14.041 20.942 14.3027V18H19.4135V10H21.6159L24.5014 15.793H24.5316C24.527 15.6592 24.5177 15.4736 24.5084 15.2441C24.4968 15.0107 24.4875 14.7607 24.4784 14.4873C24.4668 14.2139 24.4621 13.9531 24.4621 13.709V10H25.9999V18H23.7881ZM13.5822 18V10H15.9652C16.8846 10 17.5632 10.2188 18.0009 10.6602C18.4409 11.1016 18.6609 11.7207 18.6609 12.5215C18.6609 12.9902 18.5729 13.4346 18.3992 13.8477C18.2232 14.2627 17.936 14.5986 17.533 14.8565C17.1301 15.1152 16.5835 15.2442 15.8934 15.2442H15.2913V18L13.5822 18ZM15.2913 13.6846H15.7428C16.0925 13.6846 16.3774 13.5996 16.5975 13.4268C16.8198 13.2568 16.9309 12.9736 16.9309 12.5742C16.9309 11.8965 16.5882 11.5547 15.905 11.5547H15.2913L15.2913 13.6846ZM8.39233 18L6 10H7.83875L9.00599 14.4356C9.03846 14.5537 9.08247 14.7266 9.13105 14.9531C9.18201 15.1768 9.23072 15.4092 9.27692 15.6543C9.32325 15.8936 9.35346 16.0957 9.36731 16.2529C9.38806 16.0957 9.42059 15.8975 9.46222 15.6592C9.50623 15.418 9.55493 15.1875 9.60352 14.9561C9.65448 14.7305 9.69159 14.5596 9.7193 14.4482L10.9074 10H12.7369L10.3331 18L8.39233 18Z" fill="#100B33"/>
</svg>
