<svg width="32" height="32" viewBox="0 0 32 32" fill="none" xmlns="http://www.w3.org/2000/svg">
<path fill-rule="evenodd" clip-rule="evenodd" d="M3.99914 30.0013C2.89444 30.0013 2 29.1049 2 28.0004V18.0013C2 16.8949 2.89444 16.0004 3.99914 16.0004H6.07756C5.86903 15.4867 5.69669 14.9799 5.59328 14.4769C5.20034 12.5624 5.00043 10.5956 5.00043 8.63806V7.35925C5.00732 6.54236 5.52262 5.8114 6.28263 5.53601L15.477 2.09412C15.813 1.96863 16.1853 1.96863 16.5231 2.09412L25.726 5.53943C26.4774 5.8114 26.9927 6.54236 26.9996 7.35047V8.16736C26.9996 10.2045 26.81 12.2518 26.436 14.2548C26.3292 14.8251 26.1379 15.411 25.907 16.0004H27.9992C29.1056 16.0004 30 16.8949 30 18.0013V28.0004C30 29.1049 29.1056 30.0013 27.9992 30.0013H3.99914ZM17.0005 28.0004H27.9992V26.0013H17.0005V28.0004ZM3.99914 28.0004H14.9996V26.0013H3.99914V28.0004ZM23.9992 24.0004H27.9992V22.0013H23.9992V24.0004ZM10 24.0004H22V22.0013H21.028C20.9401 22.0546 20.8574 22.1151 20.7695 22.1649C19.9492 22.6425 19.0806 23.0385 18.181 23.3436L16.4851 23.9213C16.3283 23.9725 16.1646 23.9984 16.0009 23.9984C15.8371 23.9984 15.6751 23.9745 15.5218 23.9227L13.8225 23.3436C13.4864 23.2299 13.1573 23.1044 12.8333 22.9647C12.1939 22.6942 11.5838 22.3597 10.9996 21.9804V22.0014H10L10 24.0004ZM3.99914 24.0004H7.99915V22.0013H3.99914V24.0004ZM6.97545 7.41101L6.99957 8.63806C7.00129 10.4598 7.18742 12.2899 7.55279 14.0751C7.66825 14.6356 7.86817 15.2059 8.16632 15.8177C9.36063 18.2548 11.296 20.14 13.6157 21.1239C13.8966 21.2445 14.181 21.3534 14.4688 21.4496L16.0026 21.972L17.5364 21.4496C18.3102 21.1879 19.0582 20.8465 19.7631 20.4379C21.4193 19.4745 22.7911 17.9496 23.7338 16.0262C24.0957 15.2904 24.3421 14.5697 24.4697 13.889C24.8212 12.0052 25.0005 10.0824 25.0005 8.16735V7.35924L16.0009 4.03307L6.97545 7.41101ZM23.4356 20.0004H27.9992V18.0013H24.9246C24.4834 18.7269 23.9871 19.3988 23.4356 20.0004ZM3.99914 20.0004H8.65232C8.0836 19.39 7.56658 18.7235 7.10988 18.0013H3.99915L3.99914 20.0004ZM14.9548 16.0521L12.1715 13.4012C11.9716 13.2118 11.9647 12.8949 12.1543 12.6947L12.8453 11.9711C13.0366 11.7709 13.352 11.764 13.5519 11.954L15.2995 13.6205L18.4481 10.62C18.648 10.4305 18.9651 10.4388 19.1547 10.639L19.8441 11.3627C20.0354 11.5624 20.0268 11.8798 19.8286 12.0692L15.6441 16.0521C15.5476 16.1444 15.4235 16.1903 15.2995 16.1903C15.1754 16.1903 15.0513 16.1444 14.9548 16.0521L14.9548 16.0521Z" fill="#100B33"/>
</svg>
