<svg width="32" height="32" viewBox="0 0 32 32" fill="none" xmlns="http://www.w3.org/2000/svg">
<path fill-rule="evenodd" clip-rule="evenodd" d="M23.0039 25C23.0039 23.1396 24.2803 21.5713 26.0034 21.126V8.99902H28.0048V21.126C29.7281 21.5713 31.0043 23.1387 31.0043 25C31.0043 27.206 29.2101 29 27.0041 29C24.798 29 23.0039 27.206 23.0039 25ZM25.0027 25C25.0027 26.1016 25.8998 27.001 27.0041 27.001C28.1058 27.001 29.0029 26.1016 29.0029 25C29.0029 23.8955 28.1058 23.001 27.0041 23.001C25.8998 23.001 25.0027 23.8955 25.0027 25ZM12.0039 25C12.0039 23.1396 13.2803 21.5713 15.0034 21.126V14H17.0048V21.126C18.7281 21.5713 20.0043 23.1387 20.0043 25C20.0043 27.206 18.2102 29 16.0041 29C13.7981 29 12.0039 27.206 12.0039 25ZM14.0027 25C14.0027 26.1016 14.8998 27.001 16.0041 27.001C17.1059 27.001 18.003 26.1016 18.003 25C18.003 23.8955 17.1059 23.001 16.0041 23.001C14.8998 23.001 14.0027 23.8955 14.0027 25ZM1.00391 25C1.00391 23.1396 2.28034 21.5713 4.00348 21.126V8.99902H6.00482V21.126C7.72815 21.5713 9.00439 23.1387 9.00439 25C9.00439 27.206 7.2102 29 5.00415 29C2.7981 29 1.00391 27.206 1.00391 25ZM3.00281 25C3.00281 26.1016 3.89984 27.001 5.00415 27.001C6.1059 27.001 7.00299 26.1016 7.00299 25C7.00299 23.8955 6.1059 23.001 5.00415 23.001C3.89984 23.001 3.00281 23.8955 3.00281 25Z" fill="#100B33"/>
<path fill-rule="evenodd" clip-rule="evenodd" d="M6.00372 11H6.00274L4.00488 10.999V5C4.00488 3.89648 4.77343 2.99902 5.7182 2.99902H26.2904C27.2352 2.99902 28.0037 3.89648 28.0037 5V10.9981L26.0048 10.999V5.00001H6.00372V10.999V11Z" fill="#100B33"/>
<path fill-rule="evenodd" clip-rule="evenodd" d="M4.00391 10H28.0039V12H4.00391V10Z" fill="#100B33"/>
<path fill-rule="evenodd" clip-rule="evenodd" d="M4.00391 14H28.0039V16H4.00391V14Z" fill="#100B33"/>
</svg>
