<svg width="32" height="32" viewBox="0 0 32 32" fill="none" xmlns="http://www.w3.org/2000/svg">
<path fill-rule="evenodd" clip-rule="evenodd" d="M7.0008 30.001C5.8957 30.001 5.00098 29.1065 5.00098 28.001V4C5.00098 2.89453 5.89569 2 7.0008 2H25.0011C26.1061 2 27.0009 2.89453 27.0009 4V28.001C27.0009 29.1065 26.1061 30.001 25.0011 30.001H7.0008ZM7.0008 28.001H25.0011V4H7.0008V28.001ZM14.501 26.0015C14.2247 26.0015 14.0001 25.7769 14.0001 25.5005V22.5005C14.0001 22.2241 14.2247 21.9995 14.501 21.9995H17.5009C17.7772 21.9995 17.9999 22.2241 17.9999 22.5005V25.5005C17.9999 25.7769 17.7772 26.0015 17.5009 26.0015H14.501ZM10.4996 17.0005C10.2252 17.0005 10.0006 16.7778 10.0006 16.4995V15.4995C10.0006 15.2236 10.2252 15.0005 10.4996 15.0005H21.5004C21.7767 15.0005 22.0013 15.2236 22.0013 15.4995V16.4995C22.0013 16.7778 21.7767 17.0005 21.5004 17.0005H10.4996ZM10.4996 13.001C10.2252 13.001 10.0006 12.7764 10.0006 12.5V11.5C10.0006 11.2236 10.2252 11.001 10.4996 11.001H21.5004C21.7767 11.001 22.0013 11.2236 22.0013 11.5V12.5C22.0013 12.7764 21.7767 13.001 21.5004 13.001H10.4996ZM10.4996 9.00098C10.2252 9.00098 10.0006 8.77686 10.0006 8.50049V7.50049C10.0006 7.22412 10.2252 6.99951 10.4996 6.99951H21.5004C21.7767 6.99951 22.0013 7.22412 22.0013 7.50049V8.50049C22.0013 8.77686 21.7767 9.00098 21.5004 9.00098H10.4996Z" fill="#100B33"/>
</svg>
