<svg width="32" height="32" viewBox="0 0 32 32" fill="none" xmlns="http://www.w3.org/2000/svg">
<path fill-rule="evenodd" clip-rule="evenodd" d="M21.9992 29.3735H19.9993H3.99884C2.89557 29.3735 1.99902 28.4971 1.99902 27.4185V3.95508C1.99902 2.87451 2.89557 2 3.99884 2H19.9993C21.1044 2 21.9992 2.87451 21.9992 3.95508V14.3364H28.0004C29.1054 14.3364 30.0002 15.2124 30.0002 16.2915V27.4185C30.0002 28.4971 29.1054 29.3735 28.0004 29.3735H21.9992ZM21.9992 27.4185H28.0004V16.2915H21.9992V27.4185ZM3.99885 27.4185H19.9993V14.3364V3.95508H3.99885V27.4185ZM7.49952 16.6641C7.22321 16.6641 7.00044 16.4463 7.00044 16.1743V15.1968C7.00044 14.9272 7.22322 14.709 7.49952 14.709H8.4994C8.77565 14.709 9.00025 14.9272 9.00025 15.1968V16.1743C9.00025 16.4463 8.77564 16.6641 8.4994 16.6641H7.49952ZM11.4992 12.7544C11.2228 12.7544 11.0001 12.5347 11.0001 12.2647V11.2871C11.0001 11.0166 11.2229 10.7993 11.4992 10.7993H12.499C12.7753 10.7993 12.9999 11.0166 12.9999 11.2871V12.2647C12.9999 12.5347 12.7753 12.7544 12.499 12.7544H11.4992ZM7.49952 12.7544C7.22321 12.7544 7.00044 12.5347 7.00044 12.2647V11.2871C7.00044 11.0166 7.22322 10.7993 7.49952 10.7993H8.4994C8.77565 10.7993 9.00025 11.0166 9.00025 11.2871V12.2647C9.00025 12.5347 8.77564 12.7544 8.4994 12.7544H7.49952ZM15.4988 8.84375C15.2243 8.84375 14.9997 8.625 14.9997 8.35449V7.37695C14.9997 7.10693 15.2243 6.8872 15.4988 6.8872H16.5004C16.7749 6.8872 16.9995 7.10693 16.9995 7.37695V8.35449C16.9995 8.625 16.7749 8.84375 16.5004 8.84375H15.4988ZM11.4992 8.84375C11.2228 8.84375 11.0001 8.625 11.0001 8.35449V7.37695C11.0001 7.10693 11.2229 6.8872 11.4992 6.8872H12.499C12.7753 6.8872 12.9999 7.10693 12.9999 7.37695V8.35449C12.9999 8.625 12.7753 8.84375 12.499 8.84375H11.4992ZM7.49952 8.84375C7.22321 8.84375 7.00044 8.625 7.00044 8.35449V7.37695C7.00044 7.10693 7.22322 6.8872 7.49952 6.8872H8.4994C8.77565 6.8872 9.00025 7.10693 9.00025 7.37695V8.35449C9.00025 8.625 8.77564 8.84375 8.4994 8.84375H7.49952Z" fill="#100B33"/>
</svg>
