<svg width="32" height="32" viewBox="0 0 32 32" fill="none" xmlns="http://www.w3.org/2000/svg">
<path fill-rule="evenodd" clip-rule="evenodd" d="M15.9995 30C8.2793 30 2 23.7197 2 15.9995C2 8.2793 8.2793 2 15.9995 2C23.7197 2 29.9998 8.2793 29.9998 15.9995C29.9998 23.7197 23.7197 30 15.9995 30ZM16.9993 27.8245C18.4502 27.314 19.7412 25.7188 20.6482 23.4876C19.5059 23.2388 18.2781 23.0774 16.9993 23.0217V27.8245ZM14.9995 27.8245V23.0217C13.721 23.0774 12.4932 23.2388 11.3508 23.4878C12.2578 25.7183 13.5491 27.3142 14.9995 27.8245ZM10.8945 26.8587C10.3245 26.042 9.82275 25.0889 9.40356 24.0234C8.81127 24.2236 8.25439 24.4492 7.74023 24.697C8.66455 25.5752 9.72851 26.3081 10.8945 26.8586V26.8587ZM21.105 26.8582C22.271 26.3079 23.3345 25.5752 24.2588 24.6968C23.7446 24.4492 23.188 24.2236 22.5955 24.0234C22.1765 25.0884 21.6748 26.0417 21.105 26.8582ZM6.37109 23.1538C7.10107 22.761 7.90698 22.4131 8.77588 22.1179C8.35303 20.5593 8.08911 18.8333 8.01856 16.9995H4.04102C4.23121 19.2932 5.0691 21.406 6.3711 23.1538H6.37109ZM25.6277 23.1538C26.9297 21.406 27.7678 19.2932 27.958 16.9995H23.9805C23.9097 18.8333 23.646 20.5593 23.2231 22.1182C24.092 22.4131 24.8979 22.761 25.6277 23.1538V23.1538ZM21.2881 21.5732C21.6648 20.1792 21.907 18.6299 21.978 16.9995H16.9993V21.0193C18.5144 21.0779 19.9553 21.2693 21.2881 21.5733V21.5732ZM10.7107 21.5732C12.0437 21.2693 13.4846 21.0779 14.9995 21.0193V16.9995H10.021C10.0918 18.6299 10.3342 20.1792 10.7107 21.5732V21.5732ZM27.958 14.9998C27.7678 12.7061 26.9299 10.5933 25.6279 8.84546C24.898 9.23853 24.0923 9.58618 23.2231 9.88159C23.6458 11.4402 23.9097 13.1663 23.9805 14.9998L27.958 14.9998ZM21.978 14.9998C21.907 13.3696 21.6648 11.8206 21.2881 10.4265C19.9553 10.7307 18.5144 10.9221 16.9993 10.9807V14.9998H21.978ZM14.9995 14.9998V10.9807C13.4846 10.9221 12.0437 10.7307 10.7107 10.4265C10.3342 11.8206 10.0918 13.3696 10.021 14.9998H14.9995ZM8.01855 14.9998C8.08911 13.1663 8.35327 11.4402 8.77587 9.8816C7.90673 9.58619 7.10107 9.23853 6.37108 8.84547C5.06908 10.5933 4.23119 12.7061 4.041 14.9998L8.01855 14.9998ZM16.9993 8.97754C18.2781 8.92188 19.5059 8.76074 20.6482 8.51196C19.7412 6.28125 18.45 4.6853 16.9993 4.1748V8.97754ZM14.9995 8.97754V4.17481C13.5491 4.68531 12.2578 6.28101 11.3508 8.51197C12.4932 8.76075 13.721 8.92188 14.9995 8.97755V8.97754ZM22.5955 7.97632C23.188 7.77637 23.7451 7.55054 24.2595 7.30298C23.3347 6.42407 22.2708 5.69116 21.104 5.14063C21.6741 5.95704 22.1763 6.91114 22.5955 7.97632ZM9.40381 7.97632C9.823 6.91113 10.3252 5.95679 10.8955 5.14038C9.72901 5.69067 8.66431 6.42432 7.7395 7.30273C8.25415 7.55053 8.81103 7.77612 9.40381 7.97631V7.97632Z" fill="#100B33"/>
</svg>
