<svg width="32" height="32" viewBox="0 0 32 32" fill="none" xmlns="http://www.w3.org/2000/svg">
<path fill-rule="evenodd" clip-rule="evenodd" d="M28.0039 3H4.00391C2.89891 3 2.00391 3.895 2.00391 5V21C2.00391 22.105 2.89891 23 4.00391 23H7.06291C7.56191 27.493 11.3799 31 16.0039 31C20.6279 31 24.4459 27.493 24.9449 23H28.0039C29.1089 23 30.0039 22.105 30.0039 21V5C30.0039 3.895 29.1089 3 28.0039 3ZM28.0039 5V7H4.00391V5H28.0039ZM23.0039 22C23.0039 22.515 22.9439 23.016 22.8379 23.5H19.9499C19.9839 23.003 20.0039 22.502 20.0039 22C20.0039 21.498 19.9839 20.997 19.9499 20.5H22.8379C22.9439 20.984 23.0039 21.485 23.0039 22ZM16.0039 29C15.5969 29 14.7789 27.789 14.3249 25.5H17.6829C17.2289 27.789 16.4109 29 16.0039 29ZM14.0599 23.5C14.0249 23.028 14.0039 22.53 14.0039 22C14.0039 21.47 14.0249 20.972 14.0599 20.5H17.9479C17.9829 20.972 18.0039 21.47 18.0039 22C18.0039 22.53 17.9829 23.028 17.9479 23.5H14.0599ZM9.00391 22C9.00391 21.485 9.06391 20.984 9.16991 20.5H12.0579C12.0239 20.997 12.0039 21.498 12.0039 22C12.0039 22.502 12.0239 23.003 12.0579 23.5H9.16991C9.06391 23.016 9.00391 22.515 9.00391 22ZM19.7099 18.5C19.5269 17.446 19.2589 16.47 18.9079 15.639C20.2299 16.245 21.3309 17.249 22.0569 18.5H19.7099ZM17.6829 18.5H14.3249C14.7789 16.211 15.5969 15 16.0039 15C16.4109 15 17.2289 16.211 17.6829 18.5ZM12.2979 18.5H9.95091C10.6769 17.249 11.7779 16.245 13.0999 15.639C12.7489 16.47 12.4809 17.446 12.2979 18.5ZM9.95091 25.5H12.2979C12.4809 26.554 12.7489 27.53 13.0999 28.361C11.7779 27.755 10.6769 26.751 9.95091 25.5ZM18.9079 28.361C19.2589 27.53 19.5269 26.554 19.7099 25.5H22.0569C21.3309 26.751 20.2299 27.755 18.9079 28.361ZM24.9449 21C24.4459 16.507 20.6279 13 16.0039 13C11.3799 13 7.56191 16.507 7.06291 21H4.00391V9H28.0039V21H24.9449Z" fill="#100B33"/>
</svg>
