<svg width="32" height="32" viewBox="0 0 32 32" fill="none" xmlns="http://www.w3.org/2000/svg">
<path fill-rule="evenodd" clip-rule="evenodd" d="M21.5526 27.7237L12.5479 18.7174C10.533 19.0572 8.43639 18.5948 6.71677 17.421C3.68424 15.3541 2.32119 11.7032 3.32769 8.33258C3.48368 7.80914 3.89594 7.41363 4.42892 7.27789C4.9786 7.14264 5.54499 7.2984 5.94982 7.70514L8.52924 10.2862L10.286 8.52789L7.70658 5.9483C7.30175 5.54351 7.14204 4.9732 7.28132 4.42535C7.41874 3.89264 7.81429 3.47857 8.34355 3.32232C11.1514 2.48882 14.2266 3.29839 16.3715 5.44341C18.2527 7.32427 19.118 9.99468 18.7021 12.5333L27.7217 21.5528C28.5462 22.3775 28.9993 23.4732 28.9993 24.6392C28.9993 25.8038 28.5462 26.8995 27.7217 27.7237C26.8712 28.5743 25.7551 28.9996 24.6371 28.9996C23.5192 28.9996 22.4031 28.5743 21.5526 27.7237L21.5526 27.7237ZM22.9658 26.3106C23.8887 27.232 25.3874 27.2301 26.3085 26.3106C26.7542 25.8634 26.9993 25.2706 26.9993 24.6392C26.9993 24.0059 26.7542 23.4136 26.3085 22.9664L16.5126 13.1705L16.6445 12.6246C17.1347 10.5982 16.4885 8.38825 14.9564 6.85651C13.5228 5.42292 11.5488 4.77301 9.65646 5.06989L11.9907 7.40436C12.2934 7.70905 12.4624 8.11188 12.4624 8.53913C12.4624 8.95319 12.3009 9.34138 12.0093 9.63288L9.63232 12.0098C9.02508 12.6168 8.02784 12.6094 7.40574 11.9913L5.07145 9.65485C4.70562 11.9649 5.75855 14.3497 7.84214 15.7701C9.25535 16.734 11.0047 17.0591 12.6389 16.6597L13.1848 16.5259L22.9658 26.3106ZM23.3502 24.7637C22.9584 24.3736 22.9584 23.7408 23.3502 23.3507C23.7402 22.9586 24.3734 22.9586 24.7634 23.3507C25.1534 23.7408 25.1534 24.3736 24.7634 24.7637C24.5684 24.9595 24.3126 25.0577 24.0568 25.0577C23.801 25.0577 23.5452 24.9596 23.3502 24.7637Z" fill="#100B33"/>
</svg>
