<svg width="32" height="32" viewBox="0 0 32 32" fill="none" xmlns="http://www.w3.org/2000/svg">
<path fill-rule="evenodd" clip-rule="evenodd" d="M6.92513 27C2.99053 26.883 -0.107148 23.602 0.00284064 19.667C-0.0891499 15.954 2.66457 12.785 6.35419 12.358C7.68805 8.045 12.6415 5.078 17.1551 5C22.7795 5.153 28.3159 9.652 28.5159 15.276C31.6126 16.808 32.8815 20.561 31.3506 23.658C30.7057 24.962 29.6268 26 28.2999 26.595C27.642 26.863 26.9391 27 26.2301 27H6.92513ZM6.92533 25C4.09463 24.883 1.89385 22.497 2.00284 19.667C1.91185 16.993 3.87165 14.689 6.52638 14.351L7.84024 14.238L8.2542 12.988C9.31709 9.494 13.5047 7.079 17.1553 7C21.7228 7.154 26.3843 10.831 26.5203 15.4L26.5933 16.6L27.6842 17.1C29.1261 17.806 30.029 19.283 30 20.889C30.09 23.064 28.4051 24.902 26.2314 25H6.92533Z" fill="#100B33"/>
<path fill-rule="evenodd" clip-rule="evenodd" d="M9.54028 24C7.61028 24 6.04028 22.43 6.04028 20.5C6.04028 18.57 7.61028 17 9.54028 17C11.4693 17 13.0403 18.57 13.0403 20.5C13.0403 22.43 11.4693 24 9.54028 24ZM9.54028 19C8.71228 19 8.04028 19.673 8.04028 20.5C8.04028 21.327 8.71228 22 9.54028 22C10.3673 22 11.0403 21.327 11.0403 20.5C11.0403 19.673 10.3673 19 9.54028 19Z" fill="#100B33"/>
<path fill-rule="evenodd" clip-rule="evenodd" d="M20.3085 12.711H21.3085H20.3085ZM19.5387 14.079L20.0457 14.981L20.6187 16H18.4587L19.0317 14.981L19.5387 14.079ZM19.539 11.024C19.184 11.024 18.828 11.264 18.558 11.743L18.27 12.257L16.308 15.743L16.02 16.257C15.48 17.216 15.939 18 17.039 18H17.539H21.539H22.039C23.139 18 23.598 17.216 23.058 16.257L22.77 15.743L20.808 12.257L20.52 11.743C20.25 11.264 19.894 11.024 19.539 11.024Z" fill="#100B33"/>
</svg>
