<svg width="32" height="32" viewBox="0 0 32 32" fill="none" xmlns="http://www.w3.org/2000/svg">
<path fill-rule="evenodd" clip-rule="evenodd" d="M28.9988 30.499H28.9978L3.00098 30.498L3 28.499V22.4971C3 21.3965 3.89697 20.501 4.99927 20.501H26.9995C28.1018 20.501 28.9988 21.3965 28.9988 22.4971V28.499V30.498L28.9988 30.499ZM4.99928 22.4971V28.499H26.9995V22.4971H4.99928ZM24.5012 26.5H17.4981C17.2229 26.5 16.999 26.2764 16.999 26.001V25.0029C16.999 24.7256 17.2229 24.5 17.4981 24.5H24.5012C24.7764 24.5 25 24.7256 25 25.0029V26.001C25 26.2764 24.7764 26.5 24.5012 26.5ZM8.49904 26.5H7.50124C7.22609 26.5 7.00222 26.2764 7.00222 26.001V25.0029C7.00222 24.7207 7.22146 24.5 7.50124 24.5H8.49904C8.77419 24.5 8.99806 24.7256 8.99806 25.0029V26.001C8.99806 26.2764 8.77418 26.5 8.49904 26.5Z" fill="#100B33"/>
<path fill-rule="evenodd" clip-rule="evenodd" d="M8.5 14.5C8.77614 14.5 9 14.7239 9 15V22C9 22.2761 8.77614 22.5 8.5 22.5H7.5C7.22386 22.5 7 22.2761 7 22V15C7 14.7239 7.22386 14.5 7.5 14.5H8.5Z" fill="#100B33"/>
<path fill-rule="evenodd" clip-rule="evenodd" d="M19.0005 16.001C19.0005 12.7939 17.7539 9.77929 15.4871 7.51269C13.2202 5.24999 10.2061 3.99902 6.99902 3.99902V1.99902C14.7327 1.99902 21.0012 8.26757 21.0012 16.001H19.0005ZM14.9988 16.001C14.9988 11.5879 11.4124 8.00097 6.99902 8.00097V5.99999C12.5239 5.99999 16.9995 10.4756 16.9995 16.001H14.9988ZM11.0005 16.001C11.0005 13.7959 9.20752 11.999 6.99903 11.999V9.99804C10.3154 9.99804 13.0015 12.6885 13.0015 16.001H11.0005Z" fill="#100B33"/>
</svg>
