<svg width="32" height="32" viewBox="0 0 32 32" fill="none" xmlns="http://www.w3.org/2000/svg">
<path fill-rule="evenodd" clip-rule="evenodd" d="M28.44 29.854L23.4479 24.8623C21.1726 26.813 18.226 27.9995 15.0012 27.9995C7.83209 27.9995 2 22.1675 2 15.0005C2 7.83153 7.83209 1.99902 15.0012 1.99902C22.1684 1.99902 28.0005 7.83154 28.0005 15.0005C28.0005 18.2251 26.8137 21.1738 24.8629 23.4473L29.8549 28.4395C30.0496 28.6338 30.0496 28.9512 29.8549 29.1455L29.1465 29.854C29.0491 29.9517 28.9212 30 28.7932 30C28.6653 30 28.5373 29.9517 28.44 29.854L28.44 29.854ZM4.00091 15.0005C4.00091 21.0644 8.93542 26.0005 15.0012 26.0005C21.0651 26.0005 25.9996 21.0644 25.9996 15.0005C25.9996 8.93456 21.0651 3.99999 15.0012 3.99999C8.93542 3.99999 4.00091 8.93456 4.00091 15.0005ZM12.457 21.8579L9.29333 18.7075C8.90209 18.3179 8.90209 17.6816 9.29333 17.2925L12.4532 14.1455C12.6498 13.9492 12.9669 13.9507 13.1616 14.1475L13.8589 14.856C14.0517 15.0522 14.0499 15.3677 13.8552 15.5605L12.4106 16.9995H20.4995C20.7758 16.9995 21.0001 17.2236 21.0001 17.5V18.4995C21.0001 18.7759 20.7757 19.0005 20.4995 19.0005H12.4106L13.8533 20.4375C14.0499 20.6323 14.0499 20.9473 13.857 21.146L13.1579 21.8545C13.0619 21.9531 12.9342 22.002 12.8063 22.002C12.6797 22.002 12.5529 21.9541 12.457 21.8579L12.457 21.8579ZM16.8426 15.8555L16.1435 15.145C15.9506 14.9487 15.9524 14.6313 16.149 14.4385L17.5918 12.9995H9.50103C9.22472 12.9995 9.00036 12.7754 9.00036 12.5005V11.4995C9.00036 11.2251 9.22473 11.0005 9.50103 11.0005H17.5918L16.1472 9.56153C15.9524 9.36671 15.9506 9.05176 16.1435 8.85694L16.8389 8.14844C17.0336 7.9502 17.3525 7.9502 17.5491 8.14453L20.709 11.2915C21.0984 11.6812 21.0984 12.3188 20.709 12.7085L17.5454 15.8589C17.4487 15.9546 17.3224 16.0024 17.196 16.0024C17.0679 16.0024 16.9397 15.9531 16.8426 15.8555Z" fill="#100B33"/>
</svg>
