<svg width="32" height="32" viewBox="0 0 32 32" fill="none" xmlns="http://www.w3.org/2000/svg">
<path fill-rule="evenodd" clip-rule="evenodd" d="M2.99902 26.6196C2.99902 21.8662 7.03784 18.0005 12 18.0005H19.9993C24.9613 18.0005 29.0003 21.8662 29.0003 26.6196C29.0003 29.7568 19.0492 30.001 15.9996 30.001C12.95 30.001 2.99903 29.7568 2.99903 26.6196H2.99902ZM5.00244 26.4399C5.70642 27.0068 9.49927 28.001 15.9996 28.001C22.4999 28.001 26.2928 27.0068 26.9987 26.4399C26.8953 22.8731 23.7957 20 19.9993 20H12C8.20348 20 5.10399 22.8731 5.00243 26.4399H5.00244ZM9.00024 9.00098C9.00024 5.14209 12.139 2 15.9996 2C19.8602 2 22.999 5.14209 22.999 9.00098C22.999 12.8599 19.8602 16.0005 15.9996 16.0005C12.139 16.0005 9.00024 12.8599 9.00024 9.00098ZM11.0001 9.00098C11.0001 11.7568 13.2423 14.0005 15.9996 14.0005C18.757 14.0005 20.9991 11.7568 20.9991 9.00098C20.9991 6.24366 18.757 4 15.9996 4C13.2423 4 11.0001 6.24365 11.0001 9.00098Z" fill="#100B33"/>
</svg>
