<svg width="32" height="32" viewBox="0 0 32 32" fill="none" xmlns="http://www.w3.org/2000/svg">
<path fill-rule="evenodd" clip-rule="evenodd" d="M28.582 15.939C28.204 15.742 27.796 15.643 27.375 15.643H26.75V11.379C26.75 10.861 26.552 10.374 26.196 10.003C26.189 9.995 26.186 9.984 26.178 9.977L19.355 3.077C19.341 3.063 19.322 3.058 19.307 3.044C18.94 2.7 18.451 2.5 17.945 2.5H10.5C9.396 2.5 8.5 3.395 8.5 4.5V5.785H4C2.895 5.785 2 6.681 2 7.785V24.857C2 25.51 2.259 26.133 2.698 26.618C2.94 26.979 3.293 27.269 3.738 27.409C3.93 27.47 4.128 27.5 4.326 27.5H24.746C25.758 27.5 26.671 26.889 27.056 25.953L29.741 19.442C30.274 18.149 29.823 16.584 28.582 15.939ZM19.365 5.935L23.347 9.96H19.365V5.935ZM10.5 6.785V4.5H17.365V9.96C17.365 11.065 18.26 11.96 19.365 11.96H24.75V15.643H17.316L15.666 13.42C15.17 12.752 14.387 12.357 13.555 12.357H10.5V6.785ZM4 19.879V7.785H8.5V12.357H8.257C7.103 12.357 6.096 13.102 5.751 14.212L4 19.879ZM27.951 18.537L25.208 25.19C25.131 25.378 24.948 25.5 24.746 25.5H4.363L4.359 25.494L7.422 15.579L7.662 14.804C7.745 14.537 7.984 14.357 8.257 14.357H8.5H9.5H13.557C13.571 14.357 13.584 14.366 13.598 14.367C13.78 14.38 13.951 14.464 14.059 14.61L15.768 16.913C15.883 17.067 16.026 17.191 16.18 17.3C16.415 17.466 16.683 17.573 16.971 17.613C17.053 17.625 17.135 17.643 17.219 17.643H17.221H26.75H27.375C27.457 17.643 27.536 17.658 27.612 17.69C27.935 17.827 28.087 18.207 27.951 18.537Z" fill="#100B33"/>
</svg>
