<svg width="32" height="32" viewBox="0 0 32 32" fill="none" xmlns="http://www.w3.org/2000/svg">
<path fill-rule="evenodd" clip-rule="evenodd" d="M27.977 16.4478L23 13.6827V7.76175C23 7.04375 22.609 6.38175 21.977 6.03075L16.977 3.25275C16.37 2.91575 15.63 2.91575 15.023 3.25275L10.023 6.03075C9.391 6.38175 9 7.04375 9 7.76175V13.6827L4.023 16.4478C3.391 16.7987 3 17.4607 3 18.1788V24.2377C3 24.9557 3.391 25.6178 4.023 25.9688L9.023 28.7467C9.63 29.0837 10.37 29.0837 10.977 28.7467L16 25.9557L21.023 28.7467C21.63 29.0837 22.37 29.0837 22.977 28.7467L27.977 25.9688C28.609 25.6178 29 24.9557 29 24.2377V18.1788C29 17.4607 28.609 16.7987 27.977 16.4478ZM26.026 17.6378L22 20.0798L18.093 17.7098L22.125 15.4698L26.026 17.6378ZM11 8.88675L15 11.3127V16.0428L11 13.8208V8.88675ZM17 16.0428V11.3127L21 8.88675V13.8208L17 16.0428ZM16 4.98475L19.954 7.18075L16 9.57975L12.046 7.18075L16 4.98475ZM9.875 15.4698L13.906 17.7098L10 20.0798L5.974 17.6378L9.875 15.4698ZM5 19.3867L9 21.8127V26.4597L5 24.2377V19.3867ZM11 26.4597V21.8127L15 19.3867V24.2377L11 26.4597ZM17 19.3867L21 21.8127V26.4597L17 24.2377V19.3867ZM23 26.4597V21.8127L27 19.3867V24.2377L23 26.4597Z" fill="#100B33"/>
</svg>
