<svg width="32" height="32" viewBox="0 0 32 32" fill="none" xmlns="http://www.w3.org/2000/svg">
<path fill-rule="evenodd" clip-rule="evenodd" d="M2 15.9995C2 8.28027 8.2793 2 15.9995 2C23.7197 2 30 8.28027 30 15.9995C30 23.7197 23.7197 30 15.9995 30C8.2793 30 2 23.7197 2 15.9995ZM4 15.9995C4 22.6173 9.38281 28.0001 15.9995 28.0001C22.6164 28.0001 28.0002 22.6173 28.0002 15.9995C28.0002 9.38281 22.6164 3.99988 15.9995 3.99988C9.38281 3.99988 4 9.38281 4 15.9995ZM12 15.9995C12 13.7937 13.7937 12 15.9995 12C18.2056 12 20 13.7937 20 15.9995C20 18.2063 18.2056 20 15.9995 20C13.7937 20 12 18.2063 12 15.9995ZM13.9998 15.9995C13.9998 17.1029 14.8972 18.0002 15.9995 18.0002C17.103 18.0002 17.9995 17.1029 17.9995 15.9995C17.9995 14.8971 17.103 13.9998 15.9995 13.9998C14.8972 13.9998 13.9998 14.8971 13.9998 15.9995Z" fill="#100B33"/>
</svg>
