<svg width="32" height="32" viewBox="0 0 32 32" fill="none" xmlns="http://www.w3.org/2000/svg">
<path fill-rule="evenodd" clip-rule="evenodd" d="M10.0003 28.998C5.89487 28.998 1.00098 28.4189 1.00098 25.6582C1.00098 21.4346 3.85028 17.998 7.35254 17.998H12.6455C16.1492 17.998 18.9996 21.4346 18.9996 25.6582C18.9996 28.4189 14.1057 28.998 10.0003 28.998ZM7.29951 20.001C4.96864 20.001 2.99943 22.5879 2.99943 25.6504C3.69898 26.1543 4.87031 26.999 10.0003 26.999C15.1323 26.999 16.3002 26.1553 16.9979 25.6514C16.9985 24.1699 16.5454 22.7588 15.7226 21.6777C14.8998 20.5967 13.8259 20.001 12.6986 20.001L7.29951 20.001Z" fill="#100B33"/>
<path fill-rule="evenodd" clip-rule="evenodd" d="M9.99884 16C6.69162 16 4.00098 13.3086 4.00098 10C4.00098 6.69141 6.69162 4 9.99884 4C13.3075 4 15.9992 6.69141 15.9992 10C15.9992 13.3086 13.3075 16 9.99884 16ZM9.99884 6.00098C7.79355 6.00098 5.99942 7.79493 5.99942 10C5.99942 12.2051 7.79355 13.999 9.99884 13.999C12.2055 13.999 14.0008 12.2051 14.0008 10C14.0008 7.79492 12.2055 6.00098 9.99884 6.00098Z" fill="#100B33"/>
<path fill-rule="evenodd" clip-rule="evenodd" d="M22.0005 28.9971C20.7796 28.9971 19.6577 28.9463 18.6661 28.8447C18.8287 28.7373 18.9883 28.6182 19.1401 28.4892C19.6583 28.0508 20.0346 27.5371 20.2588 26.9619C20.8063 26.9863 21.392 26.999 22.0005 26.999C27.1295 26.999 28.2978 26.1562 28.9958 25.6523C28.9974 24.1709 28.545 22.7578 27.7213 21.6767C26.9009 20.5967 25.8268 20.0019 24.6967 20.0019H19.2993C19.1471 20.0019 18.9953 20.0127 18.8481 20.0342C18.6756 19.7754 18.4885 19.5244 18.2911 19.2871C18.0154 18.9541 17.7176 18.6445 17.406 18.3662C18.0348 18.1211 18.6895 17.998 19.3524 17.998H24.6436C28.1478 17.998 30.9987 21.4346 30.9987 25.6592C30.9987 28.418 26.1054 28.9971 22.0005 28.9971L22.0005 28.9971Z" fill="#100B33"/>
<path fill-rule="evenodd" clip-rule="evenodd" d="M21.9979 16C18.6906 16 16 13.3086 16 10C16 6.69141 18.6906 4 21.9979 4C25.3065 4 27.9983 6.69141 27.9983 10C27.9983 13.3086 25.3065 16 21.9979 16ZM21.9979 6.00098C19.7926 6.00098 17.9984 7.79493 17.9984 10C17.9984 12.2051 19.7926 13.999 21.9979 13.999C24.2046 13.999 25.9998 12.2051 25.9998 10C25.9998 7.79492 24.2045 6.00098 21.9979 6.00098Z" fill="#100B33"/>
</svg>
