<svg width="32" height="32" viewBox="0 0 32 32" fill="none" xmlns="http://www.w3.org/2000/svg">
<path fill-rule="evenodd" clip-rule="evenodd" d="M16.0036 30.999C11.9973 30.999 8.23041 29.4385 5.39695 26.6064C2.56406 23.7734 1.00391 20.0058 1.00391 15.999C1.00391 11.9932 2.56406 8.22656 5.39695 5.39355C8.23032 2.56054 11.9972 1 16.0036 1C20.0101 1 23.777 2.56055 26.6103 5.39355C29.4432 8.22656 31.0034 11.9932 31.0034 15.999C31.0034 20.0059 29.4432 23.7734 26.6103 26.6064C23.7769 29.4385 20.01 30.999 16.0036 30.999ZM16.0036 3C8.8358 3 3.00433 8.83105 3.00433 15.999C3.00433 23.168 8.8358 29.001 16.0036 29.001C23.1715 29.001 29.0029 23.168 29.0029 15.999C29.0029 8.83105 23.1715 3 16.0036 3Z" fill="#100B33"/>
<path fill-rule="evenodd" clip-rule="evenodd" d="M9.00391 13.999V10.001C9.00391 9.44825 9.45021 9 10.003 9H14.0038C14.5566 9 15.0029 9.44824 15.0029 10.001C15.0029 10.5537 14.5566 11 14.0038 11H12.418L14.6608 13.2432C15.0505 13.6328 15.0505 14.2666 14.6608 14.6562C14.2689 15.0459 13.6368 15.0459 13.2449 14.6562L11.0043 12.4141V13.999C11.0043 14.5527 10.5558 15.001 10.003 15.001C9.45022 15.001 9.00392 14.5527 9.00392 13.999L9.00391 13.999Z" fill="#100B33"/>
<path fill-rule="evenodd" clip-rule="evenodd" d="M23.0032 17.9999V21.9995C23.0032 22.5512 22.555 22.9994 22.0033 22.9994H18.0028C17.4502 22.9994 17.0029 22.5512 17.0029 21.9995C17.0029 21.4469 17.4502 20.9996 18.0028 20.9996H19.5891L17.3458 18.7568C16.9552 18.3662 16.9552 17.7335 17.3458 17.3429C17.7364 16.9523 18.3691 16.9523 18.7597 17.3429L21.0034 19.586V17.9999C21.0034 17.4473 21.4507 17 22.0033 17C22.555 17 23.0032 17.4473 23.0032 17.9999Z" fill="#100B33"/>
<path fill-rule="evenodd" clip-rule="evenodd" d="M22.0029 14.9999L18.0033 14.9999C17.4516 14.9999 17.0034 14.5517 17.0034 14V9.99948C17.0034 9.44688 17.4516 8.99958 18.0033 8.99958C18.5559 8.99958 19.0032 9.44688 19.0032 9.99948V11.5858L21.246 9.34248C21.6366 8.95188 22.2693 8.95188 22.6599 9.34248C23.0505 9.73308 23.0505 10.3658 22.6599 10.7564L20.4168 13.0001H22.0029C22.5555 13.0001 23.0028 13.4474 23.0028 14C23.0028 14.5517 22.5555 14.9999 22.0029 14.9999Z" fill="#100B33"/>
<path fill-rule="evenodd" clip-rule="evenodd" d="M10.0027 17H14.0023C14.554 17 15.0022 17.4482 15.0022 17.9999V21.9995C15.0022 22.5521 14.554 22.9994 14.0023 22.9994C13.4497 22.9994 13.0024 22.5521 13.0024 21.9995V20.4137L10.7596 22.6565C10.369 23.0471 9.7363 23.0471 9.3457 22.6565C8.9551 22.2668 8.9551 21.6332 9.3457 21.2426L11.5885 18.9998H10.0027C9.4501 18.9998 9.0028 18.5525 9.0028 17.9999C9.0028 17.4482 9.4501 17 10.0027 17Z" fill="#100B33"/>
</svg>
