<svg width="32" height="32" viewBox="0 0 32 32" fill="none" xmlns="http://www.w3.org/2000/svg">
<path fill-rule="evenodd" clip-rule="evenodd" d="M22.0029 29C21.4513 29 21.0042 28.5513 21.0042 27.9995V22C21.0042 21.4482 21.4513 20.999 22.0029 20.999H28.0027C28.5562 20.999 29.0033 21.4482 29.0033 22V27.9995C29.0033 28.5513 28.5562 29 28.0027 29H22.0029ZM23.0035 26.999H27.004V23.0005H23.0035V26.999ZM13.0032 29C12.4517 29 12.0027 28.5513 12.0027 27.9995V22C12.0027 21.4482 12.4516 20.999 13.0032 20.999H19.003C19.5564 20.999 20.0035 21.4482 20.0035 22V27.9995C20.0035 28.5513 19.5564 29 19.003 29H13.0032ZM14.0038 26.999H18.0043V23.0005H14.0038V26.999ZM4.00354 29C3.4519 29 3.00293 28.5513 3.00293 27.9995V22C3.00293 21.4482 3.4519 20.999 4.00354 20.999H10.0033C10.5549 20.999 11.0039 21.4482 11.0039 22V27.9995C11.0039 28.5513 10.5549 29 10.0033 29H4.00354ZM5.00403 26.999H9.00269V23.0005H5.00403V26.999ZM22.0029 19.9985C21.4513 19.9985 21.0042 19.5518 21.0042 19V13C21.0042 12.4487 21.4513 11.9995 22.0029 11.9995H28.0027C28.5562 11.9995 29.0033 12.4487 29.0033 13V19C29.0033 19.5518 28.5562 19.9985 28.0027 19.9985H22.0029ZM23.0035 17.9995H27.004V13.999H23.0035V17.9995ZM13.0032 19.9985C12.4517 19.9985 12.0027 19.5518 12.0027 19V13C12.0027 12.4487 12.4516 11.9995 13.0032 11.9995H19.003C19.5564 11.9995 20.0035 12.4487 20.0035 13V19C20.0035 19.5518 19.5564 19.9985 19.003 19.9985H13.0032ZM14.0038 17.9995H18.0043V13.999H14.0038V17.9995ZM4.00354 19.9985C3.4519 19.9985 3.00293 19.5518 3.00293 19V13C3.00293 12.4487 3.4519 11.9995 4.00354 11.9995H10.0033C10.5549 11.9995 11.0039 12.4487 11.0039 13V19C11.0039 19.5518 10.5549 19.9985 10.0033 19.9985H4.00354ZM5.00403 17.9995H9.00269V13.999H5.00403V17.9995ZM22.0029 10.999C21.4513 10.999 21.0042 10.5518 21.0042 10V4.00049C21.0042 3.44678 21.4513 3 22.0029 3H28.0027C28.5562 3 29.0033 3.44678 29.0033 4.00049V10C29.0033 10.5518 28.5562 10.999 28.0027 10.999H22.0029ZM23.0035 8.99951H27.004V4.99902H23.0035V8.99951ZM13.0032 10.999C12.4517 10.999 12.0027 10.5518 12.0027 10V4.00049C12.0027 3.44678 12.4516 3 13.0032 3H19.003C19.5564 3 20.0035 3.44678 20.0035 4.00049V10C20.0035 10.5518 19.5564 10.999 19.003 10.999H13.0032ZM14.0038 8.99951H18.0043V4.99902H14.0038V8.99951ZM4.00354 10.999C3.4519 10.999 3.00293 10.5518 3.00293 10V4.00049C3.00293 3.44678 3.4519 3 4.00354 3H10.0033C10.5549 3 11.0039 3.44678 11.0039 4.00049V10C11.0039 10.5518 10.5549 10.999 10.0033 10.999H4.00354ZM5.00403 8.99951H9.00269V4.99902H5.00403V8.99951Z" fill="#100B33"/>
</svg>
