<svg width="32" height="32" viewBox="0 0 32 32" fill="none" xmlns="http://www.w3.org/2000/svg">
<path fill-rule="evenodd" clip-rule="evenodd" d="M15 24.7479V16.7479C15 16.1956 15.4477 15.7479 16 15.7479C16.5523 15.7479 17 16.1956 17 16.7479V24.7479C17 25.3002 16.5523 25.7479 16 25.7479C15.4477 25.7479 15 25.3002 15 24.7479Z" fill="#100B33"/>
<path fill-rule="evenodd" clip-rule="evenodd" d="M4 24.7479V20.7479C4 20.1956 4.44771 19.7479 5 19.7479C5.55228 19.7479 6 20.1956 6 20.7479V24.7479C6 25.3002 5.55229 25.7479 5 25.7479C4.44772 25.7479 4 25.3002 4 24.7479Z" fill="#100B33"/>
<path fill-rule="evenodd" clip-rule="evenodd" d="M26 24.7479V20.7479C26 20.1956 26.4477 19.7479 27 19.7479C27.5523 19.7479 28 20.1956 28 20.7479V24.7479C28 25.3002 27.5523 25.7479 27 25.7479C26.4477 25.7479 26 25.3002 26 24.7479Z" fill="#100B33"/>
<path fill-rule="evenodd" clip-rule="evenodd" d="M27 21.7479L5 21.7479C4.44772 21.7479 4 21.3002 4 20.7479C4 20.1956 4.44771 19.7479 5 19.7479L27 19.7479C27.5523 19.7479 28 20.1956 28 20.7479C28 21.3002 27.5523 21.7479 27 21.7479Z" fill="#100B33"/>
<path fill-rule="evenodd" clip-rule="evenodd" d="M5 30.7499C3.07 30.7499 1.5 29.1799 1.5 27.2499C1.5 25.3199 3.07 23.7499 5 23.7499C6.929 23.7499 8.5 25.3199 8.5 27.2499C8.5 29.1799 6.929 30.7499 5 30.7499ZM5 25.7499C4.172 25.7499 3.5 26.4229 3.5 27.2499C3.5 28.0769 4.172 28.7499 5 28.7499C5.827 28.7499 6.5 28.0769 6.5 27.2499C6.5 26.4229 5.827 25.7499 5 25.7499Z" fill="#100B33"/>
<path fill-rule="evenodd" clip-rule="evenodd" d="M27 30.7499C25.07 30.7499 23.5 29.1799 23.5 27.2499C23.5 25.3199 25.07 23.7499 27 23.7499C28.929 23.7499 30.5 25.3199 30.5 27.2499C30.5 29.1799 28.929 30.7499 27 30.7499ZM27 25.7499C26.172 25.7499 25.5 26.4229 25.5 27.2499C25.5 28.0769 26.172 28.7499 27 28.7499C27.827 28.7499 28.5 28.0769 28.5 27.2499C28.5 26.4229 27.827 25.7499 27 25.7499Z" fill="#100B33"/>
<path fill-rule="evenodd" clip-rule="evenodd" d="M16 30.7499C14.07 30.7499 12.5 29.1799 12.5 27.2499C12.5 25.3199 14.07 23.7499 16 23.7499C17.929 23.7499 19.5 25.3199 19.5 27.2499C19.5 29.1799 17.929 30.7499 16 30.7499ZM16 25.7499C15.172 25.7499 14.5 26.4229 14.5 27.2499C14.5 28.0769 15.172 28.7499 16 28.7499C16.827 28.7499 17.5 28.0769 17.5 27.2499C17.5 26.4229 16.827 25.7499 16 25.7499Z" fill="#100B33"/>
<path fill-rule="evenodd" clip-rule="evenodd" d="M16.7069 12.314L16.7069 12.3141C17.0974 12.7046 17.0974 13.3378 16.7069 13.7283L13.1714 17.2638C12.7809 17.6543 12.1477 17.6543 11.7572 17.2638L11.7571 17.2638C11.3666 16.8732 11.3666 16.2401 11.7571 15.8495L15.2926 12.314C15.6832 11.9235 16.3163 11.9235 16.7069 12.314Z" fill="#100B33"/>
<path fill-rule="evenodd" clip-rule="evenodd" d="M16.7064 12.3131L20.2419 15.8486C20.6324 16.2391 20.6324 16.8723 20.2419 17.2628L20.2419 17.2628C19.8513 17.6533 19.2182 17.6533 18.8276 17.2628L15.2921 13.7273C14.9016 13.3368 14.9016 12.7036 15.2921 12.3131L15.2922 12.3131C15.6827 11.9225 16.3159 11.9225 16.7064 12.3131Z" fill="#100B33"/>
<path fill-rule="evenodd" clip-rule="evenodd" d="M16 12.7489C16.5523 12.7489 17 13.1966 17 13.7489V20.7488C17 21.3011 16.5523 21.7488 16 21.7488C15.4477 21.7488 15 21.3011 15 20.7488V13.7489C15 13.1966 15.4477 12.7489 16 12.7489Z" fill="#100B33"/>
<path fill-rule="evenodd" clip-rule="evenodd" d="M8.49731 17.75H8.49633L4.68066 17.749C3.00195 16.6318 2 14.7627 2 12.749C2 11.2432 2.56128 9.80176 3.58081 8.69141C4.59326 7.58789 5.96802 6.90723 7.45215 6.77637C8.40405 5.12403 9.77197 3.74024 11.4072 2.77344C13.0896 1.77735 15.0227 1.25098 16.9976 1.25098C22.0283 1.25098 26.4119 4.64942 27.6575 9.51465C29.1213 10.4365 29.9954 12.0186 29.9954 13.7461C29.9954 15.3311 29.2681 16.79 28 17.749H24.4961V15.75H27.2349C27.7256 15.2002 27.9961 14.4883 27.9961 13.7461C27.9961 12.71 27.4719 11.7617 26.594 11.208L25.9165 10.7822L25.72 10.0098C24.7007 6.03028 21.1138 3.25098 16.9976 3.25098C15.3838 3.25098 13.802 3.68164 12.4233 4.4961C11.0855 5.28907 9.96582 6.4209 9.18555 7.77051L8.66846 8.67383L7.63404 8.76856C6.64796 8.85547 5.73096 9.30958 5.05201 10.0469C4.3733 10.7871 3.99952 11.7471 3.99952 12.749C3.99952 13.8955 4.49195 14.9902 5.35059 15.75H8.49732V17.749L8.49731 17.75Z" fill="#100B33"/>
</svg>
