<svg width="32" height="32" viewBox="0 0 32 32" fill="none" xmlns="http://www.w3.org/2000/svg">
<path fill-rule="evenodd" clip-rule="evenodd" d="M2.50049 29.0001C2.22412 29.0001 2 28.776 2 28.5006V27.4998C2 27.2244 2.22412 27.0004 2.50049 27.0004H12V24.0006H3C2.44824 24.0006 2 23.5524 2 22.9998V3.99988C2 3.44824 2.44824 3 3 3H29C29.5525 3 30 3.44824 30 3.99988V22.9998C30 23.5524 29.5525 24.0006 29 24.0006H20V27.0004H29.5005C29.7766 27.0004 30 27.2244 30 27.4998V28.5006C30 28.776 29.7766 29.0001 29.5005 29.0001H2.50049ZM18.0002 27.0004V24.0006H14.0005V27.0004H18.0002ZM4.00074 21.9999H28V4.99975H4.00074V21.9999ZM14.5 20.0001C14.2239 20.0001 14.0005 19.776 14.0005 19.5006V18.4998C14.0005 18.2244 14.2239 18.0002 14.5 18.0002H17.5007C17.7761 18.0002 18.0002 18.2244 18.0002 18.4998V19.5006C18.0002 19.776 17.7761 20.0001 17.5007 20.0001H14.5ZM6.50001 12.9999C6.22364 12.9999 6.0005 12.7767 6.0005 12.5004V11.5005C6.0005 11.2242 6.22364 11.0001 6.50001 11.0001H15.5C15.7764 11.0001 16.0005 11.2242 16.0005 11.5005V12.5004C16.0005 12.7767 15.7764 12.9999 15.5 12.9999H6.50001ZM6.50001 9.00024C6.22364 9.00024 6.0005 8.77624 6.0005 8.49987V7.49999C6.0005 7.22374 6.22364 7.00048 6.50001 7.00048H25.5C25.7761 7.00048 26.0002 7.22375 26.0002 7.49999V8.49987C26.0002 8.77624 25.7761 9.00024 25.5 9.00024H6.50001Z" fill="#100B33"/>
</svg>
