<svg width="32" height="32" viewBox="0 0 32 32" fill="none" xmlns="http://www.w3.org/2000/svg">
<path fill-rule="evenodd" clip-rule="evenodd" d="M3 25.0005V19.0002V13.0009V7.00049C3 3.84339 11.1709 3 16.0005 3C20.8298 3 29 3.84338 29 7.00049V13.0009V19.0002V25.0005C29 28.1577 20.8298 29.0001 16.0005 29.0001C11.1709 29.0001 3 28.1577 3 25.0005ZM5.00048 25.0005C5.34252 25.6728 9.32519 27.0004 16.0005 27.0004C22.6758 27.0004 26.6582 25.6729 27.012 24.9294L27.0046 21.3051C24.2764 22.5977 19.3398 23.0007 16.0005 23.0007C12.6631 23.0007 7.73022 22.5982 5.00048 21.3075V25.0005ZM5.00048 19.0002C5.34252 19.6725 9.32519 21 16.0005 21C22.6758 21 26.6582 19.6725 27.012 18.9292L27.0046 15.3049C24.2764 16.5973 19.3398 17.0005 16.0005 17.0005C12.6631 17.0005 7.73022 16.5979 5.00048 15.3075V19.0002ZM5.00048 13.0009C5.34252 13.6722 9.32519 15.0006 16.0005 15.0006C22.6758 15.0006 26.6582 13.6722 27.012 12.9297L27.0046 9.30507C24.2764 10.5974 19.3398 11.0001 16.0005 11.0001C12.6631 11.0001 7.73022 10.598 5.00048 9.30751V13.0009ZM5.03125 7.00049C5.59448 7.75476 9.53394 9.00037 16.0005 9.00037C22.4661 9.00037 26.4062 7.75476 26.9695 7.00049C26.4062 6.24634 22.4661 5.00073 16.0005 5.00073C9.53394 5.00073 5.59448 6.24634 5.03125 7.00049ZM7.00048 24.0006C7.00048 23.448 7.44775 23.0007 8.00024 23.0007C8.55297 23.0007 9.00024 23.448 9.00024 24.0006C9.00024 24.5524 8.55297 25.0005 8.00024 25.0005C7.44775 25.0005 7.00048 24.5524 7.00048 24.0006ZM7.00048 18.0004C7.00048 17.4486 7.44775 17.0005 8.00024 17.0005C8.55297 17.0005 9.00024 17.4486 9.00024 18.0004C9.00024 18.553 8.55297 19.0002 8.00024 19.0002C7.44775 19.0002 7.00048 18.553 7.00048 18.0004ZM7.00048 12C7.00048 11.4484 7.44775 11.0001 8.00024 11.0001C8.55297 11.0001 9.00024 11.4484 9.00024 12C9.00024 12.5526 8.55297 13.0009 8.00024 13.0009C7.44775 13.0009 7.00048 12.5526 7.00048 12Z" fill="#100B33"/>
</svg>
