<svg width="32" height="32" viewBox="0 0 32 32" fill="none" xmlns="http://www.w3.org/2000/svg">
<path fill-rule="evenodd" clip-rule="evenodd" d="M26.2342 27H6.92906C2.99437 26.8828 -0.103233 23.6016 0.00674649 19.667C-0.0852847 15.9541 2.66848 12.7852 6.35807 12.3584C7.69192 8.04492 12.6456 5.07813 17.159 5C22.7835 5.15332 28.32 9.65234 28.52 15.2764C31.6166 16.8076 32.8856 20.5606 31.3547 23.6582C30.7097 24.9619 29.6309 26 28.304 26.5947C27.6461 26.8633 26.9431 27 26.2342 27H26.2342ZM17.1592 7C13.5086 7.0791 9.32099 9.49414 8.2581 12.9883L7.8442 14.2383L6.53023 14.3506C3.87558 14.6895 1.91569 16.9932 2.00674 19.667C1.89774 22.4971 4.09846 24.8828 6.92924 25H26.2354C28.4091 24.9023 30.094 23.0644 30.0041 20.8887C30.033 19.2832 29.1301 17.8057 27.6882 17.0996L26.5974 16.5996L26.5244 15.4004C26.3883 10.831 21.7268 7.1543 17.1592 7H17.1592Z" fill="#100B33"/>
</svg>
