<svg width="32" height="32" viewBox="0 0 32 32" fill="none" xmlns="http://www.w3.org/2000/svg">
<path d="M4 15H28V23C28 23.2652 27.8946 23.5196 27.7071 23.7071C27.5196 23.8946 27.2652 24 27 24H5C4.73478 24 4.48043 23.8946 4.29289 23.7071C4.10536 23.5196 4 23.2652 4 23V15Z" stroke="#5135FF" stroke-width="2"/>
<path d="M8.5 18.5H7.5C7.22386 18.5 7 18.7239 7 19V20C7 20.2761 7.22386 20.5 7.5 20.5H8.5C8.77614 20.5 9 20.2761 9 20V19C9 18.7239 8.77614 18.5 8.5 18.5Z" fill="#5135FF"/>
<path d="M12.5 18.5H11.5C11.2239 18.5 11 18.7239 11 19V20C11 20.2761 11.2239 20.5 11.5 20.5H12.5C12.7761 20.5 13 20.2761 13 20V19C13 18.7239 12.7761 18.5 12.5 18.5Z" fill="#5135FF"/>
<path d="M16.5 18.5H15.5C15.2239 18.5 15 18.7239 15 19V20C15 20.2761 15.2239 20.5 15.5 20.5H16.5C16.7761 20.5 17 20.2761 17 20V19C17 18.7239 16.7761 18.5 16.5 18.5Z" fill="#5135FF"/>
<path d="M24.5 18.5H19.5C19.2239 18.5 19 18.7239 19 19V20C19 20.2761 19.2239 20.5 19.5 20.5H24.5C24.7761 20.5 25 20.2761 25 20V19C25 18.7239 24.7761 18.5 24.5 18.5Z" fill="#5135FF"/>
<path d="M4 15L9 9" stroke="#5135FF" stroke-width="2" stroke-linecap="round"/>
<path d="M9 9H23" stroke="#5135FF" stroke-width="2" stroke-linecap="round"/>
<path d="M28 15L23 9" stroke="#5135FF" stroke-width="2" stroke-linecap="round"/>
</svg>
