<svg width="32" height="32" viewBox="0 0 32 32" fill="none" xmlns="http://www.w3.org/2000/svg">
<path d="M4 20.9707H28V28.9707C28 29.2359 27.8946 29.4903 27.7071 29.6778C27.5196 29.8653 27.2652 29.9707 27 29.9707H5C4.73478 29.9707 4.48043 29.8653 4.29289 29.6778C4.10536 29.4903 4 29.2359 4 28.9707V20.9707Z" stroke="#5135FF" stroke-width="2"/>
<path d="M8.5 24.4707H7.5C7.22386 24.4707 7 24.6946 7 24.9707V25.9707C7 26.2468 7.22386 26.4707 7.5 26.4707H8.5C8.77614 26.4707 9 26.2468 9 25.9707V24.9707C9 24.6946 8.77614 24.4707 8.5 24.4707Z" fill="#5135FF"/>
<path d="M12.5 24.4707H11.5C11.2239 24.4707 11 24.6946 11 24.9707V25.9707C11 26.2468 11.2239 26.4707 11.5 26.4707H12.5C12.7761 26.4707 13 26.2468 13 25.9707V24.9707C13 24.6946 12.7761 24.4707 12.5 24.4707Z" fill="#5135FF"/>
<path d="M16.5 24.4707H15.5C15.2239 24.4707 15 24.6946 15 24.9707V25.9707C15 26.2468 15.2239 26.4707 15.5 26.4707H16.5C16.7761 26.4707 17 26.2468 17 25.9707V24.9707C17 24.6946 16.7761 24.4707 16.5 24.4707Z" fill="#5135FF"/>
<path d="M24.5 24.4707H19.5C19.2239 24.4707 19 24.6946 19 24.9707V25.9707C19 26.2468 19.2239 26.4707 19.5 26.4707H24.5C24.7761 26.4707 25 26.2468 25 25.9707V24.9707C25 24.6946 24.7761 24.4707 24.5 24.4707Z" fill="#5135FF"/>
<path d="M16.7214 19.9711C16.7214 19.9711 16.3817 14.7815 16.2795 14.7062C16.0039 14.0359 15.7436 14.7062 15.7436 14.7062L15.2797 19.9711H16.7214ZM18.8567 21.9711H13.0957L13.7762 14.2473L13.8792 13.9822C14.2562 13.0114 15.0758 12.4082 16.0181 12.4082C16.3564 12.4082 17.4845 12.5135 18.0843 13.8412C18.2449 14.1781 18.2861 14.5006 18.3117 14.7004C18.3329 14.8668 18.3563 15.0876 18.3831 15.3755C18.425 15.8272 18.4756 16.4471 18.5332 17.2178C18.6305 18.5187 18.7163 19.8274 18.7172 19.8405L18.8567 21.9711Z" fill="#5135FF"/>
<path d="M17.9615 10.9366C17.3984 10.5063 16.7093 10.2733 16.0005 10.2736C15.2918 10.2738 14.6028 10.5073 14.04 10.9381" stroke="#5135FF" stroke-width="2" stroke-linecap="round"/>
<path d="M20.1298 7.84416C18.9437 6.93843 17.4925 6.44808 16.0001 6.44872C14.5077 6.44936 13.0569 6.94096 11.8715 7.8477" stroke="#5135FF" stroke-width="2" stroke-linecap="round"/>
<path d="M8.98193 5.13873C8.98193 5.13873 14.9502 -0.429271 23.3242 5.13873" stroke="#5135FF" stroke-width="2" stroke-linecap="round"/>
</svg>
