<svg width="32" height="32" viewBox="0 0 32 32" fill="none" xmlns="http://www.w3.org/2000/svg">
<path d="M27 13V15H5V13H27ZM27 7H5V15L4.7959 14.9893C3.85435 14.8938 3.1062 14.1457 3.01074 13.2041L3 13V7C3 5.96435 3.78722 5.113 4.7959 5.01074L5 5H27L27.2041 5.01074C28.2128 5.113 29 5.96435 29 7V13L28.9893 13.2041C28.8938 14.1457 28.1457 14.8938 27.2041 14.9893L27 15V7Z" fill="#5135FF"/>
<rect x="20" y="9" width="5" height="2" rx="1" fill="#5135FF"/>
<rect x="20" y="21" width="5" height="2" rx="1" fill="#5135FF"/>
<path d="M27 25V27H5V25H27ZM27 19H5V27L4.7959 26.9893C3.85435 26.8938 3.1062 26.1457 3.01074 25.2041L3 25V19C3 17.9643 3.78722 17.113 4.7959 17.0107L5 17H27L27.2041 17.0107C28.2128 17.113 29 17.9643 29 19V25L28.9893 25.2041C28.8938 26.1457 28.1457 26.8938 27.2041 26.9893L27 27V19Z" fill="#5135FF"/>
<path d="M8 15V17H6V15H8Z" fill="#5135FF"/>
<path d="M26 15V17H24V15H26Z" fill="#5135FF"/>
</svg>
