<svg width="32" height="32" viewBox="0 0 32 32" fill="none" xmlns="http://www.w3.org/2000/svg">
<path d="M20 3V19H4V3H20ZM21 1H3C2.73478 1 2.48043 1.10536 2.29289 1.29289C2.10536 1.48043 2 1.73478 2 2V19.862C1.99987 20.0115 2.02921 20.1595 2.08636 20.2976C2.1435 20.4358 2.22732 20.5613 2.33302 20.667C2.43872 20.7727 2.56422 20.8565 2.70235 20.9136C2.84048 20.9708 2.98852 21.0001 3.138 21H21C21.2652 21 21.5196 20.8946 21.7071 20.7071C21.8946 20.5196 22 20.2652 22 20V2C22 1.73478 21.8946 1.48043 21.7071 1.29289C21.5196 1.10536 21.2652 1 21 1Z" fill="#5135FF"/>
<path d="M29 31H11.138C10.8362 30.9995 10.5469 30.8795 10.3336 30.666C10.1202 30.4525 10.0003 30.1632 10 29.8613V27H12V29H28V13H27V11H29C29.2652 11 29.5196 11.1054 29.7071 11.293C29.8946 11.4805 30 11.7348 30 12V30C30 30.2652 29.8946 30.5195 29.7071 30.707C29.5196 30.8946 29.2652 31 29 31Z" fill="#5135FF"/>
<path d="M25 26H7.138C6.83617 25.9995 6.54689 25.8795 6.33356 25.666C6.12023 25.4525 6.00026 25.1632 6 24.8613V22H8V24H24V8H23V6H25C25.2652 6 25.5196 6.10543 25.7071 6.29297C25.8946 6.48051 26 6.73478 26 7V25C26 25.2652 25.8946 25.5195 25.7071 25.707C25.5196 25.8946 25.2652 26 25 26Z" fill="#5135FF"/>
</svg>
