<svg width="32" height="32" viewBox="0 0 32 32" fill="none" xmlns="http://www.w3.org/2000/svg">
<path fill-rule="evenodd" clip-rule="evenodd" d="M12.0001 15.978C12.6214 15.9776 13.2273 15.7843 13.7341 15.4248C14.2408 15.0653 14.6235 14.5573 14.8291 13.971H21.5001C21.6327 13.971 21.7599 13.9183 21.8537 13.8246C21.9474 13.7308 22.0001 13.6036 22.0001 13.471V12.471C22.0001 12.3384 21.9474 12.2112 21.8537 12.1175C21.7599 12.0237 21.6327 11.971 21.5001 11.971H14.8291C14.6447 11.4534 14.3215 10.9963 13.895 10.6498C13.4685 10.3032 12.955 10.0804 12.4106 10.0058C11.8661 9.93119 11.3116 10.0075 10.8076 10.2266C10.3036 10.4456 9.86938 10.7988 9.55242 11.2478C9.23547 11.6967 9.04792 12.2241 9.01023 12.7723C8.97255 13.3206 9.08619 13.8687 9.33875 14.3567C9.59131 14.8448 9.97308 15.2542 10.4424 15.5401C10.9117 15.826 11.4506 15.9775 12.0001 15.978ZM12.0001 13.971C12.1979 13.971 12.3912 13.9124 12.5557 13.8025C12.7201 13.6926 12.8483 13.5364 12.924 13.3537C12.9997 13.171 13.0195 12.9699 12.9809 12.7759C12.9423 12.582 12.8471 12.4038 12.7072 12.2639C12.5674 12.1241 12.3892 12.0288 12.1952 11.9902C12.0012 11.9517 11.8002 11.9715 11.6174 12.0471C11.4347 12.1228 11.2785 12.251 11.1686 12.4155C11.0588 12.5799 11.0001 12.7732 11.0001 12.971C11.0001 13.2362 11.1055 13.4906 11.293 13.6781C11.4805 13.8657 11.7349 13.971 12.0001 13.971Z" fill="#5135FF"/>
<path fill-rule="evenodd" clip-rule="evenodd" d="M17.171 17.9852H10.5C10.3674 17.9852 10.2402 18.0379 10.1464 18.1317C10.0527 18.2254 10 18.3526 10 18.4852V19.4852C10 19.6178 10.0527 19.745 10.1464 19.8388C10.2402 19.9325 10.3674 19.9852 10.5 19.9852H17.171C17.4077 20.6549 17.8736 21.2193 18.4862 21.5788C19.0989 21.9382 19.8189 22.0695 20.5189 21.9494C21.219 21.8293 21.8541 21.4656 22.3119 20.9225C22.7697 20.3794 23.0209 19.692 23.0209 18.9817C23.0209 18.2714 22.7697 17.584 22.3119 17.0409C21.8541 16.4979 21.219 16.1341 20.5189 16.0141C19.8189 15.894 19.0989 16.0252 18.4862 16.3847C17.8736 16.7441 17.4077 17.3085 17.171 17.9782V17.9852ZM20 19.9922C19.8022 19.9922 19.6089 19.9336 19.4444 19.8237C19.28 19.7138 19.1518 19.5576 19.0761 19.3749C19.0004 19.1922 18.9806 18.9911 19.0192 18.7971C19.0578 18.6031 19.153 18.425 19.2929 18.2851C19.4327 18.1452 19.6109 18.05 19.8049 18.0114C19.9989 17.9728 20.2 17.9926 20.3827 18.0683C20.5654 18.144 20.7216 18.2722 20.8315 18.4366C20.9414 18.6011 21 18.7944 21 18.9922C21 19.2574 20.8946 19.5118 20.7071 19.6993C20.5196 19.8869 20.2652 19.9922 20 19.9922Z" fill="#5135FF"/>
<path fill-rule="evenodd" clip-rule="evenodd" d="M3.806 6.63515L15.641 2.06715C15.8721 1.97827 16.1279 1.97827 16.359 2.06715L28.2 6.63715C28.4358 6.72873 28.6384 6.88948 28.7812 7.09829C28.9239 7.30709 29.0002 7.5542 29 7.80715V8.89615C29.0001 11.6098 28.7777 14.3189 28.335 16.9962C28.1129 18.3399 27.7075 19.6467 27.13 20.8802L26.65 21.9052C26.2191 22.8257 25.6683 23.6851 25.012 24.4612C23.0443 26.788 20.4757 28.5299 17.586 29.4972L16.16 29.9742C16.0562 30.0092 15.9438 30.0092 15.84 29.9742L14.414 29.4972C11.5243 28.53 8.95562 26.788 6.988 24.4612C6.33169 23.6851 5.78092 22.8256 5.35 21.9052L4.72 20.5602C4.24276 19.5384 3.8999 18.459 3.7 17.3492C3.23525 14.7879 3.00098 12.1902 3 9.58715V7.81315C2.99975 7.55839 3.0766 7.30951 3.22046 7.09926C3.36432 6.889 3.56845 6.7272 3.806 6.63515ZM5 9.58715V8.32915L16 4.07915L27 8.32915V8.90015C27 11.5036 26.7866 14.1026 26.362 16.6712C26.1699 17.8329 25.8193 18.9627 25.32 20.0292L24.84 21.0542C24.4841 21.8144 24.0291 22.5242 23.487 23.1652C21.756 25.2124 19.4962 26.745 16.954 27.5962L16 27.9122L15.047 27.5932C12.5048 26.742 10.245 25.2094 8.514 23.1622C7.97152 22.5213 7.51624 21.8115 7.16 21.0512L6.53 19.7062C6.12522 18.842 5.83413 17.9291 5.664 16.9902C5.22196 14.5473 4.99974 12.0697 5 9.58715Z" fill="#5135FF"/>
</svg>
