<svg width="32" height="32" viewBox="0 0 32 32" fill="none" xmlns="http://www.w3.org/2000/svg">
<path d="M25 18V30H7V18H25ZM25.165 16H6.83502C6.34843 16.0003 5.88185 16.1937 5.53778 16.5378C5.19371 16.8818 5.00026 17.3484 5 17.835V30.165C5.00026 30.6516 5.19371 31.1182 5.53778 31.4622C5.88185 31.8063 6.34843 31.9997 6.83502 32H25.165C25.6516 31.9997 26.1181 31.8063 26.4622 31.4622C26.8063 31.1182 26.9997 30.6516 27 30.165V17.835C26.9997 17.3484 26.8063 16.8818 26.4622 16.5378C26.1181 16.1937 25.6516 16.0003 25.165 16Z" fill="#5135FF"/>
<path d="M27.0184 14.9999C26.8207 15.0001 26.6274 14.9416 26.4629 14.8319C26.2984 14.7223 26.1701 14.5663 26.0942 14.3837C26.0183 14.2011 25.9982 14.0002 26.0365 13.8062C26.0748 13.6122 26.1698 13.434 26.3094 13.294L29.5874 9.99995L26.2934 6.70594C26.1113 6.51734 26.0105 6.26474 26.0127 6.00254C26.015 5.74034 26.1202 5.48954 26.3056 5.30413C26.491 5.11872 26.7418 5.01355 27.004 5.01127C27.2662 5.00899 27.5188 5.1098 27.7074 5.29195L31.7074 9.29195C31.8945 9.47944 31.9997 9.73353 31.9997 9.99845C31.9997 10.2634 31.8945 10.5175 31.7074 10.7049L27.7254 14.7049C27.6327 14.7982 27.5226 14.8722 27.4013 14.9228C27.28 14.9734 27.1499 14.9997 27.0184 14.9999Z" fill="#5135FF"/>
<path d="M2 11L30 11V9L2 9V11Z" fill="#5135FF"/>
<path d="M4.98224 14.9999C5.17995 15.0001 5.37328 14.9416 5.53778 14.8319C5.70228 14.7223 5.83056 14.5663 5.90643 14.3837C5.98231 14.2011 6.00242 14.0002 5.96411 13.8062C5.9258 13.6122 5.83081 13.434 5.69122 13.294L2.41327 9.99995L5.70721 6.70594C5.88937 6.51734 5.99019 6.26474 5.98792 6.00254C5.98564 5.74034 5.88048 5.48954 5.69507 5.30413C5.50966 5.11872 5.25884 5.01355 4.99664 5.01127C4.73445 5.00899 4.48188 5.1098 4.29327 5.29195L0.293274 9.29195C0.106108 9.47944 0.000976562 9.73353 0.000976562 9.99845C0.000976562 10.2634 0.106108 10.5175 0.293274 10.7049L4.27625 14.7049C4.46317 14.893 4.7171 14.9991 4.98224 14.9999Z" fill="#5135FF"/>
<path d="M16 2C17.3256 2.00159 18.5964 2.52888 19.5338 3.46622C20.4711 4.40355 20.9984 5.6744 21 7H23C23 5.14348 22.2625 3.363 20.9498 2.05025C19.637 0.737493 17.8565 0 16 0C14.1435 0 12.363 0.737493 11.0502 2.05025C9.73748 3.363 9 5.14348 9 7H11C11.0016 5.6744 11.5289 4.40355 12.4662 3.46622C13.4036 2.52888 14.6744 2.00159 16 2Z" fill="#5135FF"/>
<path d="M21 13V16H11V13H9V18H23V13H21Z" fill="#5135FF"/>
<path d="M16 21C16.2652 21 16.5196 21.1054 16.7071 21.2929C16.8946 21.4804 17 21.7348 17 22V26C17 26.2652 16.8946 26.5196 16.7071 26.7071C16.5196 26.8946 16.2652 27 16 27C15.7348 27 15.4804 26.8946 15.2929 26.7071C15.1054 26.5196 15 26.2652 15 26V22C15 21.7348 15.1054 21.4804 15.2929 21.2929C15.4804 21.1054 15.7348 21 16 21Z" fill="#5135FF"/>
</svg>
