<svg width="32" height="32" viewBox="0 0 32 32" fill="none" xmlns="http://www.w3.org/2000/svg">
<path d="M9.50015 28.3051C8.57254 28.303 7.68353 27.9336 7.02761 27.2777C6.37169 26.6218 6.00226 25.7327 6.00015 24.8051C5.99878 23.9768 6.2935 23.1753 6.83115 22.5451C6.76111 22.4843 6.70164 22.4124 6.65515 22.3321L4.15515 18.3321V18.3181L4.13715 18.3051V18.2991C4.13514 18.2931 4.13171 18.2876 4.12715 18.2831C3.26759 18.192 2.47214 17.786 1.89405 17.1434C1.31595 16.5008 0.996094 15.667 0.996094 14.8026C0.996094 13.9383 1.31595 13.1044 1.89405 12.4618C2.47214 11.8192 3.26759 11.4132 4.12715 11.3221L6.63315 6.82213C6.63315 6.81213 6.63315 6.81213 6.63315 6.80813C6.21706 6.22349 5.9956 5.5227 6.00015 4.80513C6.00023 3.96538 6.30224 3.15365 6.85105 2.51806C7.39987 1.88246 8.15891 1.46538 8.98968 1.3429C9.82045 1.22043 10.6676 1.40073 11.3765 1.85091C12.0853 2.30108 12.6087 2.99113 12.8511 3.79513H17.1431C17.3817 2.98625 17.9043 2.2907 18.6148 1.83641C19.3253 1.38212 20.1759 1.19963 21.0102 1.32253C21.8446 1.44542 22.6064 1.86542 23.1558 2.50527C23.7051 3.14513 24.005 3.96182 24.0001 4.80513C24.0055 5.52082 23.7866 6.22022 23.3741 6.80513V6.81913L25.7331 11.0651C25.0959 11.3509 24.5745 11.8445 24.2541 12.4651C24.2036 12.4088 24.1593 12.3471 24.1221 12.2811L21.7741 8.06113C21.4435 8.18623 21.0966 8.26367 20.7441 8.29113L17.1761 13.7911H23.3311C23.3001 13.8161 23.2651 13.8461 23.2181 13.8911L23.2091 13.9011C22.5667 14.4884 21.9671 15.1211 21.4151 15.7941H17.1431L18.8191 18.3841H18.7481C18.0652 18.3857 17.4071 18.6404 16.9011 19.0991L15.3231 16.6621L11.7781 22.1391C12.2863 22.5774 12.6583 23.1521 12.8502 23.7951H17.5001C17.9381 24.2251 18.3891 24.6291 18.8421 24.9951C18.9166 25.2673 19.0081 25.5345 19.1161 25.7951H12.8461C12.632 26.5174 12.1909 27.1515 11.5883 27.6036C10.9857 28.0556 10.2535 28.3016 9.50015 28.3051ZM9.50015 23.3051C9.20348 23.3051 8.91347 23.3931 8.66679 23.5579C8.42012 23.7227 8.22786 23.957 8.11433 24.2311C8.0008 24.5052 7.97109 24.8068 8.02897 25.0978C8.08685 25.3887 8.22971 25.656 8.43949 25.8658C8.64927 26.0756 8.91654 26.2184 9.20751 26.2763C9.49849 26.3342 9.80009 26.3045 10.0742 26.1909C10.3483 26.0774 10.5825 25.8852 10.7474 25.6385C10.9122 25.3918 11.0001 25.1018 11.0001 24.8051C11.0009 24.6076 10.9627 24.4119 10.8877 24.2293C10.8127 24.0466 10.7023 23.8805 10.5629 23.7406C10.4236 23.6007 10.2579 23.4896 10.0756 23.4139C9.89318 23.3381 9.69764 23.2991 9.50015 23.2991V23.3051ZM7.85315 15.8051C7.59206 16.676 7.00541 17.4127 6.21515 17.8621L8.35015 21.2821C8.38633 21.3424 8.41743 21.4057 8.44315 21.4711C8.78412 21.3581 9.14092 21.3 9.50015 21.2991C9.64125 21.2992 9.7822 21.3082 9.92215 21.3261L13.5001 15.7951H7.85415L7.85315 15.8051ZM4.50015 13.2991C4.20348 13.2991 3.91347 13.3871 3.66679 13.5519C3.42012 13.7167 3.22786 13.951 3.11433 14.2251C3.0008 14.4992 2.97109 14.8008 3.02897 15.0918C3.08685 15.3827 3.22971 15.65 3.43949 15.8598C3.64927 16.0696 3.91654 16.2124 4.20751 16.2703C4.49849 16.3282 4.80009 16.2985 5.07417 16.1849C5.34826 16.0714 5.58253 15.8792 5.74735 15.6325C5.91218 15.3858 6.00015 15.0958 6.00015 14.7991C6.00015 14.4013 5.84211 14.0198 5.56081 13.7385C5.27951 13.4572 4.89797 13.2991 4.50015 13.2991ZM8.22515 8.06113L6.18315 11.7311C6.9875 12.1755 7.58694 12.9159 7.85415 13.7951H13.4691L9.90015 8.27813H9.87915C9.77915 8.28613 9.66515 8.29613 9.50515 8.29613C9.06896 8.29623 8.63645 8.21624 8.22915 8.06013L8.22515 8.06113ZM12.8511 5.80513C12.6602 6.45698 12.281 7.03794 11.7611 7.47513L15.3251 12.9871L18.6841 7.79613C17.9437 7.34386 17.3953 6.6353 17.1431 5.80513H12.8511ZM20.4981 3.30513C20.2016 3.30553 19.9117 3.39383 19.6653 3.5589C19.4189 3.72396 19.227 3.95837 19.1138 4.23249C19.0005 4.50661 18.9711 4.80815 19.0292 5.09899C19.0873 5.38983 19.2303 5.65692 19.4402 5.8665C19.6501 6.07607 19.9173 6.21874 20.2082 6.27645C20.4992 6.33417 20.8007 6.30435 21.0746 6.19076C21.3486 6.07717 21.5828 5.88491 21.7475 5.63828C21.9122 5.39165 22.0001 5.10172 22.0001 4.80513C22.0009 4.60764 21.9627 4.41194 21.8877 4.22926C21.8127 4.04658 21.7023 3.88051 21.5629 3.74059C21.4236 3.60067 21.2579 3.48964 21.0756 3.41388C20.8932 3.33813 20.6976 3.29913 20.5001 3.29913L20.4981 3.30513ZM9.49815 3.30513C9.20156 3.30553 8.91175 3.39383 8.66534 3.5589C8.41893 3.72396 8.22698 3.95837 8.11376 4.23249C8.00053 4.50661 7.97111 4.80815 8.02922 5.09899C8.08732 5.38983 8.23034 5.65692 8.4402 5.8665C8.65005 6.07607 8.91733 6.21874 9.20825 6.27645C9.49917 6.33417 9.80066 6.30435 10.0746 6.19076C10.3486 6.07717 10.5828 5.88491 10.7475 5.63828C10.9122 5.39165 11.0001 5.10172 11.0001 4.80513C11.0009 4.60764 10.9627 4.41194 10.8877 4.22926C10.8127 4.04658 10.7023 3.88051 10.5629 3.74059C10.4236 3.60067 10.2579 3.48964 10.0756 3.41388C9.89318 3.33813 9.69764 3.29913 9.50015 3.29913L9.49815 3.30513Z" fill="#5135FF"/>
<path d="M20.4151 29.627C20.4149 29.3961 20.4832 29.1703 20.6114 28.9782C20.7396 28.7861 20.9219 28.6364 21.1352 28.548C21.3486 28.4595 21.5834 28.4364 21.8099 28.4815C22.0364 28.5265 22.2444 28.6378 22.4076 28.8012C22.5708 28.9645 22.6819 29.1727 22.7268 29.3992C22.7717 29.6257 22.7484 29.8605 22.6598 30.0738C22.5712 30.287 22.4213 30.4692 22.2291 30.5972C22.0369 30.7253 21.811 30.7934 21.5801 30.793C21.2713 30.7917 20.9756 30.6684 20.7574 30.45C20.5392 30.2316 20.4161 29.9358 20.4151 29.627ZM23.2391 28.281C23.0879 28.1146 23.0084 27.8952 23.018 27.6705C23.0275 27.4459 23.1253 27.234 23.2901 27.081C23.7496 26.6553 24.1837 26.2028 24.5901 25.726C23.8934 25.6128 23.2159 25.4032 22.5771 25.103C22.5548 25.2207 22.5075 25.3323 22.4385 25.4303C22.3695 25.5283 22.2804 25.6104 22.1771 25.671C22.0454 25.7428 21.898 25.781 21.7481 25.782C21.6012 25.7832 21.4566 25.7455 21.3289 25.6728C21.2012 25.6001 21.095 25.4949 21.0211 25.368V25.358C20.7882 24.9013 20.628 24.4111 20.5461 23.905C19.6708 23.2498 18.8595 22.5132 18.1231 21.705C17.9748 21.5399 17.8944 21.3249 17.8981 21.103C17.903 20.992 17.9298 20.8831 17.977 20.7825C18.0242 20.682 18.0908 20.5917 18.1731 20.517C18.338 20.3641 18.5567 20.2825 18.7815 20.2902C19.0063 20.2979 19.219 20.3942 19.3731 20.558C19.7458 20.9619 20.1386 21.3467 20.5501 21.711C20.663 21.0735 20.8489 20.4511 21.1041 19.856C20.9598 19.7898 20.8394 19.6809 20.7591 19.544C20.7001 19.4504 20.6605 19.3459 20.6424 19.2368C20.6243 19.1276 20.6282 19.0159 20.6538 18.9083C20.6794 18.8006 20.7262 18.6992 20.7915 18.6098C20.8568 18.5205 20.9393 18.4451 21.0341 18.388C21.3834 18.1927 21.7609 18.0527 22.1531 17.973C22.8312 16.9972 23.6179 16.1014 24.4981 15.303C24.6558 15.1584 24.8621 15.0781 25.0761 15.078C25.1901 15.0786 25.3028 15.1021 25.4076 15.147C25.5123 15.1919 25.607 15.2573 25.6861 15.3395C25.7651 15.4216 25.8269 15.5187 25.8678 15.6251C25.9087 15.7316 25.9278 15.8451 25.9241 15.959C25.9143 16.1839 25.8175 16.3962 25.6541 16.551C25.1885 16.9763 24.7506 17.4309 24.3431 17.912C25.0409 18.0208 25.7201 18.2265 26.3611 18.523C26.3814 18.4038 26.4278 18.2906 26.497 18.1913C26.5661 18.0921 26.6563 18.0094 26.7611 17.949C26.8913 17.8732 27.0394 17.8335 27.1901 17.834C27.3388 17.8356 27.4847 17.8755 27.6136 17.9497C27.7424 18.024 27.8501 18.1301 27.9261 18.258C28.1595 18.7212 28.3181 19.2183 28.3961 19.731C29.2714 20.3754 30.0813 21.1042 30.8141 21.907C30.8904 21.9877 30.95 22.0827 30.9893 22.1865C31.0286 22.2904 31.0469 22.401 31.0431 22.512C31.0376 22.7335 30.9449 22.9439 30.7852 23.0974C30.6254 23.2509 30.4116 23.3353 30.1901 23.332C30.0735 23.3333 29.958 23.3099 29.8512 23.2634C29.7443 23.2168 29.6485 23.1482 29.5701 23.062C29.2061 22.669 28.8391 22.312 28.3911 21.912C28.281 22.5494 28.0964 23.1717 27.8411 23.766C27.9773 23.8317 28.0932 23.933 28.1764 24.0593C28.2597 24.1856 28.3071 24.332 28.3138 24.4831C28.3205 24.6342 28.2861 24.7842 28.2143 24.9173C28.1425 25.0504 28.036 25.1616 27.9061 25.239C27.554 25.4272 27.1778 25.5665 26.7881 25.653C26.1079 26.6288 25.3218 27.5263 24.4441 28.329C24.2847 28.474 24.0765 28.5536 23.8611 28.552C23.7443 28.5522 23.6288 28.5282 23.5217 28.4815C23.4147 28.4349 23.3185 28.3666 23.2391 28.281ZM23.1731 19.529C22.5216 20.552 22.168 21.7363 22.1521 22.949C23.1541 23.6515 24.3364 24.052 25.5591 24.103C25.6291 24.103 25.6991 24.103 25.7691 24.103C26.4192 23.0797 26.771 21.8953 26.7851 20.683C25.784 19.9782 24.6013 19.5762 23.3781 19.525C23.3081 19.525 23.2431 19.529 23.1731 19.529ZM25.8151 13.873C25.8149 13.6424 25.8832 13.4168 26.0113 13.225C26.1394 13.0332 26.3216 12.8837 26.5347 12.7955C26.7479 12.7073 26.9824 12.6844 27.2086 12.7297C27.4348 12.7749 27.6424 12.8863 27.8053 13.0497C27.9681 13.2131 28.0788 13.4211 28.1232 13.6475C28.1677 13.8738 28.144 14.1082 28.055 14.3211C27.9661 14.5339 27.816 14.7156 27.6238 14.843C27.4315 14.9705 27.2057 15.038 26.9751 15.037C26.6671 15.0357 26.3722 14.9125 26.1549 14.6944C25.9375 14.4763 25.8153 14.181 25.8151 13.873Z" fill="#5135FF"/>
</svg>
