<svg width="32" height="32" viewBox="0 0 32 32" fill="none" xmlns="http://www.w3.org/2000/svg">
<path d="M19.0405 22H12.9995V24H19.0405V22Z" fill="#5135FF"/>
<path fill-rule="evenodd" clip-rule="evenodd" d="M28.5188 12.276C28.3188 6.652 23.7038 2 17.1568 2C11.7328 2 7.68875 5.045 6.35675 9.358C4.57639 9.56318 2.93717 10.4269 1.76138 11.7794C0.585581 13.132 -0.0417367 14.8754 0.00275422 16.667C-0.0497323 18.5569 0.649739 20.3905 1.94766 21.7653C3.24558 23.1401 5.03592 23.9438 6.92575 24H7.04075V22H6.92575C5.56636 21.9438 4.28471 21.3509 3.36185 20.3512C2.43899 19.3514 1.95023 18.0265 2.00275 16.667C1.95878 15.3765 2.39827 14.1161 3.23512 13.1328C4.07197 12.1494 5.24585 11.514 6.52675 11.351L7.84075 11.238L8.25475 9.988C9.31775 6.494 13.2338 4 17.1568 4C22.2328 4 26.3868 7.831 26.5228 12.4L26.5958 13.6L27.6868 14.1C28.3932 14.4459 28.9863 14.9861 29.3966 15.6572C29.8068 16.3283 30.0171 17.1026 30.0028 17.889C30.0928 20.063 27.4078 21.902 25.2338 22H25.0408V24H25.2328C26.2626 23.9677 27.2809 23.7726 28.2498 23.422C29.5857 22.9097 30.6882 21.9267 31.3498 20.658C32.0853 19.171 32.2003 17.4527 31.6694 15.881C31.1385 14.3092 30.0053 13.0125 28.5188 12.276Z" fill="#5135FF"/>
<path d="M5.75691 25.4848C5.94445 25.2973 6.1988 25.1919 6.46402 25.1919C6.72923 25.1919 6.98359 25.2973 7.17112 25.4848L10.7067 29.0203C10.8942 29.2079 10.9996 29.4622 10.9996 29.7274C10.9996 29.9926 10.8942 30.247 10.7067 30.4345C10.5191 30.6221 10.2648 30.7274 9.99955 30.7274C9.73434 30.7274 9.47998 30.6221 9.29245 30.4345L5.75691 26.899C5.56938 26.7115 5.46402 26.4571 5.46402 26.1919C5.46402 25.9267 5.56938 25.6723 5.75691 25.4848Z" fill="#5135FF"/>
<path d="M9.29304 29.0219L12.8286 25.4864C13.0161 25.2988 13.2705 25.1935 13.5357 25.1935C13.8009 25.1935 14.0553 25.2988 14.2428 25.4864C14.4303 25.6739 14.5357 25.9283 14.5357 26.1935C14.5357 26.4587 14.4303 26.713 14.2428 26.9006L10.7073 30.4361C10.5197 30.6236 10.2654 30.729 10.0002 30.729C9.73493 30.729 9.48058 30.6236 9.29304 30.4361C9.10551 30.2486 9.00015 29.9942 9.00015 29.729C9.00015 29.4638 9.10551 29.2094 9.29304 29.0219Z" fill="#5135FF"/>
<path d="M10 21C10.2652 21 10.5196 21.1054 10.7071 21.2929C10.8946 21.4804 11 21.7348 11 22V29C11 29.2652 10.8946 29.5196 10.7071 29.7071C10.5196 29.8946 10.2652 30 10 30C9.73478 30 9.48043 29.8946 9.29289 29.7071C9.10536 29.5196 9 29.2652 9 29V22C9 21.7348 9.10536 21.4804 9.29289 21.2929C9.48043 21.1054 9.73478 21 10 21Z" fill="#5135FF"/>
<path d="M22.7066 15.565C22.8942 15.7526 22.9995 16.0069 22.9995 16.2721C22.9995 16.5373 22.8942 16.7917 22.7066 16.9792L19.1711 20.5148C18.9835 20.7023 18.7292 20.8077 18.464 20.8077C18.1988 20.8077 17.9444 20.7023 17.7569 20.5148C17.5693 20.3272 17.464 20.0729 17.464 19.8077C17.464 19.5424 17.5693 19.2881 17.7569 19.1006L21.2924 15.565C21.4799 15.3775 21.7343 15.2721 21.9995 15.2721C22.2647 15.2721 22.5191 15.3775 22.7066 15.565Z" fill="#5135FF"/>
<path d="M22.7066 15.564L26.2422 19.0996C26.4297 19.2871 26.535 19.5415 26.535 19.8067C26.535 20.0719 26.4297 20.3263 26.2422 20.5138C26.0546 20.7013 25.8003 20.8067 25.535 20.8067C25.2698 20.8067 25.0155 20.7013 24.8279 20.5138L21.2924 16.9783C21.1049 16.7907 20.9995 16.5364 20.9995 16.2711C20.9995 16.0059 21.1049 15.7516 21.2924 15.564C21.4799 15.3765 21.7343 15.2711 21.9995 15.2711C22.2647 15.2711 22.5191 15.3765 22.7066 15.564Z" fill="#5135FF"/>
<path d="M21.9995 16C22.2647 16 22.5191 16.1054 22.7066 16.2929C22.8942 16.4804 22.9995 16.7348 22.9995 17V24C22.9995 24.2652 22.8942 24.5196 22.7066 24.7071C22.5191 24.8946 22.2647 25 21.9995 25C21.7343 25 21.4799 24.8946 21.2924 24.7071C21.1049 24.5196 20.9995 24.2652 20.9995 24V17C20.9995 16.7348 21.1049 16.4804 21.2924 16.2929C21.4799 16.1054 21.7343 16 21.9995 16Z" fill="#5135FF"/>
</svg>
