<svg width="32" height="32" viewBox="0 0 32 32" fill="none" xmlns="http://www.w3.org/2000/svg">
<path d="M7.99995 28.0008C7.83151 28.001 7.66573 27.9587 7.51801 27.8778C7.37029 27.7968 7.24541 27.6799 7.15495 27.5378L0.154953 16.5378C0.0527971 16.3773 -0.00146484 16.191 -0.00146484 16.0008C-0.00146484 15.8105 0.0527971 15.6243 0.154953 15.4638L7.15495 4.46378C7.29737 4.2398 7.52294 4.08158 7.78202 4.02391C8.0411 3.96624 8.31248 4.01386 8.53645 4.15628C8.76043 4.2987 8.91865 4.52426 8.97632 4.78334C9.03399 5.04242 8.98637 5.3138 8.84395 5.53778L2.18595 16.0008L8.84395 26.4638C8.94021 26.615 8.99405 26.7893 8.99985 26.9684C9.00565 27.1476 8.96319 27.325 8.87691 27.4821C8.79064 27.6392 8.66372 27.7703 8.50944 27.8615C8.35516 27.9528 8.1792 28.0009 7.99995 28.0008Z" fill="#5135FF"/>
<path d="M23.9999 28.0008C23.8207 28.0007 23.6449 27.9525 23.4907 27.8612C23.3366 27.7699 23.2098 27.6388 23.1237 27.4817C23.0375 27.3246 22.9951 27.1473 23.001 26.9682C23.0068 26.7892 23.0607 26.615 23.1569 26.4638L29.8159 16.0008L23.1559 5.53784C23.0853 5.427 23.0373 5.30336 23.0146 5.17398C22.9919 5.04459 22.9948 4.912 23.0234 4.78376C23.0519 4.65552 23.1053 4.53415 23.1808 4.42659C23.2562 4.31902 23.352 4.22736 23.4629 4.15684C23.5737 4.08632 23.6973 4.03832 23.8267 4.01559C23.9561 3.99285 24.0887 3.99582 24.2169 4.02433C24.3452 4.05283 24.4666 4.10632 24.5741 4.18173C24.6817 4.25714 24.7733 4.353 24.8439 4.46384L31.8439 15.4638C31.9456 15.6241 31.9996 15.81 31.9996 15.9998C31.9996 16.1897 31.9456 16.3756 31.8439 16.5358L24.8439 27.5358C24.7537 27.6782 24.6291 27.7954 24.4816 27.8767C24.334 27.958 24.1683 28.0007 23.9999 28.0008Z" fill="#5135FF"/>
<path d="M10 22.0146C9.73478 22.0146 9.48043 21.9093 9.29289 21.7218C9.10536 21.5342 9 21.2799 9 21.0146V12.0146C9 11.7494 9.10536 11.4951 9.29289 11.3075C9.48043 11.12 9.73478 11.0146 10 11.0146H14C14.2652 11.0146 14.5196 11.12 14.7071 11.3075C14.8946 11.4951 15 11.7494 15 12.0146C15 12.2799 14.8946 12.5342 14.7071 12.7218C14.5196 12.9093 14.2652 13.0146 14 13.0146H11V21.0146C11 21.2799 10.8946 21.5342 10.7071 21.7218C10.5196 21.9093 10.2652 22.0146 10 22.0146Z" fill="#5135FF"/>
<path d="M14 17.0146H10C9.73478 17.0146 9.48043 16.9093 9.29289 16.7218C9.10536 16.5342 9 16.2799 9 16.0146C9 15.7494 9.10536 15.4951 9.29289 15.3075C9.48043 15.12 9.73478 15.0146 10 15.0146H14C14.2652 15.0146 14.5196 15.12 14.7071 15.3075C14.8946 15.4951 15 15.7494 15 16.0146C15 16.2799 14.8946 16.5342 14.7071 16.7218C14.5196 16.9093 14.2652 17.0146 14 17.0146Z" fill="#5135FF"/>
<path d="M18 22.0146C17.7348 22.0146 17.4804 21.9093 17.2929 21.7218C17.1054 21.5342 17 21.2799 17 21.0146V16.0146C17 15.7494 17.1054 15.4951 17.2929 15.3075C17.4804 15.12 17.7348 15.0146 18 15.0146C18.2652 15.0146 18.5196 15.12 18.7071 15.3075C18.8946 15.4951 19 15.7494 19 16.0146V21.0146C19 21.2799 18.8946 21.5342 18.7071 21.7218C18.5196 21.9093 18.2652 22.0146 18 22.0146Z" fill="#5135FF"/>
<path d="M22 22.0146C21.7348 22.0146 21.4804 21.9093 21.2929 21.7218C21.1054 21.5342 21 21.2799 21 21.0146V17.0146H18C17.7348 17.0146 17.4804 16.9093 17.2929 16.7218C17.1054 16.5342 17 16.2799 17 16.0146C17 15.7494 17.1054 15.4951 17.2929 15.3075C17.4804 15.12 17.7348 15.0146 18 15.0146H22C22.2652 15.0146 22.5196 15.12 22.7071 15.3075C22.8946 15.4951 23 15.7494 23 16.0146V21.0146C23 21.2799 22.8946 21.5342 22.7071 21.7218C22.5196 21.9093 22.2652 22.0146 22 22.0146Z" fill="#5135FF"/>
</svg>
