<svg width="32" height="32" viewBox="0 0 32 32" fill="none" xmlns="http://www.w3.org/2000/svg">
<path d="M11.1 25H3.5C3.36739 25 3.24019 24.9473 3.14642 24.8535C3.05266 24.7597 3 24.6326 3 24.5V23.5C3 23.3674 3.05266 23.2403 3.14642 23.1465C3.24019 23.0527 3.36739 23 3.5 23H6V13.75C6.00305 11.2949 6.93099 8.93096 8.59894 7.12939C10.2669 5.32783 12.5524 4.22092 15 4.02905V2.5C15 2.36739 15.0527 2.24025 15.1464 2.14648C15.2402 2.05272 15.3674 2 15.5 2H16.5C16.6326 2 16.7598 2.05272 16.8536 2.14648C16.9473 2.24025 17 2.36739 17 2.5V4.02905C19.4476 4.22092 21.7331 5.32783 23.4011 7.12939C25.069 8.93096 25.9969 11.2949 26 13.75V23H28.5C28.6326 23 28.7598 23.0527 28.8536 23.1465C28.9473 23.2403 29 23.3674 29 23.5V24.5C29 24.6326 28.9473 24.7597 28.8536 24.8535C28.7598 24.9473 28.6326 25 28.5 25H20.9C20.6679 26.1286 20.0538 27.1427 19.1613 27.8713C18.2687 28.6 17.1522 28.9985 16 29C14.8477 28.9987 13.7312 28.6001 12.8386 27.8715C11.946 27.1428 11.3319 26.1287 11.1 25ZM16 27C16.6201 26.9992 17.2248 26.8066 17.7311 26.4485C18.2375 26.0904 18.6206 25.5844 18.828 25H13.171C13.3785 25.5846 13.7617 26.0906 14.2682 26.4487C14.7748 26.8068 15.3797 26.9994 16 27ZM8 13.749V22.999H24V13.749C23.9976 11.6943 23.1803 9.7245 21.7274 8.27161C20.2745 6.81872 18.3047 6.00141 16.25 5.99902H15.75C13.6952 6.00167 11.7254 6.81917 10.2725 8.27222C8.81966 9.72527 8.00238 11.6942 8 13.749Z" fill="#5135FF"/>
</svg>
