<svg width="32" height="32" viewBox="0 0 32 32" fill="none" xmlns="http://www.w3.org/2000/svg">
<path d="M12.003 30.4619V28.3721C13.2951 28.7903 14.6449 29.0025 16.003 29.001C17.1903 29.0015 18.3722 28.8409 19.516 28.5225C20.0962 27.3166 20.5126 26.0379 20.754 24.7217C20.2311 24.4827 19.7879 24.099 19.4771 23.6152C19.1664 23.1315 19.0011 22.5681 19.0011 21.9932C19.0011 21.4182 19.1664 20.8558 19.4771 20.3721C19.7879 19.8883 20.2311 19.5037 20.754 19.2647C20.5473 18.1431 20.2117 17.0494 19.754 16.0049C18.8893 15.8531 18.013 15.777 17.135 15.7764C15.7132 15.7773 14.2989 15.9811 12.935 16.3828C13.0676 17.0241 12.9867 17.6912 12.7046 18.2822C12.4226 18.8732 11.9549 19.3559 11.3729 19.6563C10.791 19.9566 10.1268 20.0578 9.48163 19.9453C8.83651 19.8328 8.24592 19.5128 7.80002 19.0332C6.59543 19.9915 5.5452 21.1291 4.68604 22.4063C5.5322 23.8869 6.65726 25.1895 7.99903 26.2422V24C7.99903 23.7348 8.10437 23.4805 8.2919 23.293C8.47944 23.1054 8.73381 23 8.99903 23C9.26424 23 9.51858 23.1054 9.70612 23.293C9.89365 23.4805 9.99903 23.7348 9.99903 24V28C9.99903 28.2652 9.89365 28.5195 9.70612 28.707C9.51858 28.8946 9.26424 29 8.99903 29H4.99903C4.73381 29 4.47944 28.8946 4.2919 28.707C4.10437 28.5195 3.99903 28.2652 3.99903 28C3.99903 27.7348 4.10437 27.4805 4.2919 27.293C4.47944 27.1054 4.73381 27 4.99903 27H5.79901C4.28394 25.5964 3.07545 23.8949 2.24942 22.002C1.4234 20.109 0.997693 18.0654 0.999027 16C1.00194 12.0226 2.58322 8.2089 5.39563 5.39649C8.20805 2.58407 12.0217 1.00291 15.999 1C17.3504 0.999412 18.6957 1.18013 19.999 1.53711V3.62695C18.1227 3.0216 16.1334 2.85019 14.1813 3.12598C12.2292 3.40176 10.3652 4.11733 8.73001 5.21875C9.76297 5.38616 10.7781 5.64975 11.762 6.00586C12.2201 5.49461 12.8396 5.15652 13.5172 5.04688C14.1948 4.93723 14.8896 5.0626 15.4855 5.40332C16.0814 5.74404 16.5424 6.27936 16.7917 6.91895C17.0409 7.55854 17.0633 8.26389 16.855 8.91797C17.2597 9.2513 17.6484 9.60452 18.021 9.97852C19.2758 11.2354 20.3277 12.6799 21.139 14.2598C24.0004 14.9548 26.6331 16.3784 28.781 18.3926C28.927 17.604 29.0004 16.804 29 16.002C29.0054 13.9911 28.5392 12.0071 27.639 10.209C26.7735 8.47202 25.5305 6.95044 24.001 5.75586V8C24.001 8.26522 23.8957 8.5195 23.7081 8.70703C23.5206 8.89457 23.2662 9 23.001 9C22.7358 9 22.4815 8.89457 22.2939 8.70703C22.1064 8.5195 22.001 8.26522 22.001 8V4C22.001 3.73478 22.1064 3.48051 22.2939 3.29297C22.4815 3.10543 22.7358 3 23.001 3H27.001C27.2662 3 27.5206 3.10543 27.7081 3.29297C27.8957 3.48051 28.001 3.73478 28.001 4C28.001 4.26522 27.8957 4.5195 27.7081 4.70703C27.5206 4.89457 27.2662 5 27.001 5H26.201C28.6617 7.28701 30.2838 10.3331 30.8078 13.6514C31.3317 16.9696 30.7272 20.3678 29.0909 23.3018C27.4546 26.2357 24.8812 28.536 21.7827 29.834C18.6842 31.132 15.2399 31.3526 12.001 30.4609L12.003 30.4619ZM22.096 27.4873C24.8797 25.9987 27.0334 23.5565 28.162 20.6084C26.8961 19.2393 25.3864 18.1173 23.71 17.3008C23.2002 17.0505 22.6759 16.8306 22.14 16.6426C22.407 17.4421 22.613 18.2611 22.756 19.0918C23.3998 19.2582 23.97 19.6344 24.3771 20.1602C24.7842 20.6859 25.0051 21.3312 25.0051 21.9961C25.0051 22.661 24.7842 23.3073 24.3771 23.833C23.97 24.3587 23.3998 24.7349 22.756 24.9014C22.6053 25.7796 22.3846 26.6443 22.096 27.4873ZM20.996 21.9971C20.9963 22.1925 21.0538 22.3838 21.1616 22.5469C21.2693 22.71 21.4224 22.838 21.6021 22.915C21.7817 22.992 21.98 23.014 22.1724 22.9795C22.3648 22.945 22.5429 22.8553 22.6846 22.7207C22.8264 22.5861 22.9255 22.413 22.9699 22.2227C23.0143 22.0323 23.0019 21.8328 22.9343 21.6494C22.8666 21.466 22.7468 21.3064 22.5894 21.1904C22.4321 21.0744 22.2442 21.0074 22.049 20.9971H21.949C21.9397 20.998 21.9303 20.998 21.921 20.9971C21.9141 20.9981 21.907 20.9981 21.9 20.9971L21.857 21.0029C21.63 21.0367 21.4215 21.148 21.2665 21.3174C21.1116 21.4867 21.0196 21.7035 21.006 21.9326C21.006 21.9226 21.006 21.9133 21.006 21.9043C21.002 21.9403 21 21.968 21 22L20.996 21.9971ZM2.99604 15.9971C2.99246 17.4677 3.24036 18.9284 3.72904 20.3154C4.39382 19.4643 5.13855 18.678 5.95304 17.9688C6.29104 17.6741 6.63901 17.3936 6.99701 17.127C6.99701 17.082 6.99701 17.0391 6.99701 16.9941C6.99785 16.4331 7.15601 15.8839 7.45349 15.4082C7.75098 14.9325 8.17586 14.549 8.67993 14.3027C9.18401 14.0564 9.74705 13.957 10.3051 14.0147C10.8632 14.0723 11.3939 14.2848 11.837 14.6289C13.5469 14.0637 15.3361 13.7759 17.137 13.7754C17.449 13.7754 17.757 13.7849 18.056 13.7959C18.234 13.8099 18.416 13.823 18.594 13.835C18.0174 12.953 17.3519 12.1321 16.608 11.3857C16.298 11.0771 15.977 10.7829 15.645 10.5029C15.1926 10.7993 14.6685 10.9683 14.1282 10.9912C13.5878 11.0141 13.0513 10.8898 12.5755 10.6328C12.0996 10.3758 11.7021 9.99567 11.4249 9.53125C11.1477 9.06683 11.0013 8.53595 11.001 7.99512C11.001 7.94612 11.001 7.89468 11.001 7.84668C9.58444 7.34939 8.10126 7.06765 6.60102 7.01074C4.28022 9.42645 2.98963 12.6501 3.00202 16L2.99604 15.9971ZM9.99604 17.9971C10.247 17.998 10.4891 17.9047 10.6744 17.7354C10.8596 17.566 10.9745 17.333 10.996 17.083C10.996 17.065 10.996 17.0464 10.996 17.0244C10.996 17.0024 10.996 17.0041 10.996 16.9971C10.996 16.7319 10.8907 16.4776 10.7031 16.29C10.5156 16.1025 10.2613 15.9971 9.99604 15.9971C9.73082 15.9971 9.47645 16.1025 9.28891 16.29C9.10138 16.4776 8.99604 16.7319 8.99604 16.9971C8.99604 17.0111 8.99604 17.026 8.99604 17.042V17.0537C8.99604 17.0697 8.99604 17.0827 8.99604 17.0967V17.1074C8.99604 17.1194 8.99604 17.1277 8.99604 17.1397V17.1582C8.99604 17.1682 8.99601 17.1795 9.00101 17.1895L9.00601 17.2139L9.01102 17.2354C9.01102 17.2414 9.01102 17.2489 9.01602 17.2549L9.02603 17.29V17.3057C9.02603 17.3157 9.03204 17.324 9.03504 17.333V17.3467L9.05103 17.3877C9.12914 17.5734 9.26154 17.7316 9.43088 17.8408C9.60022 17.95 9.79861 18.0055 10 18L9.99604 17.9971ZM13.996 8.99707C14.2613 8.99707 14.5156 8.89164 14.7031 8.7041C14.8907 8.51657 14.996 8.26229 14.996 7.99707C14.996 7.98107 14.996 7.9662 14.996 7.9502C14.996 7.9342 14.996 7.94443 14.996 7.94043C14.996 7.9091 14.9927 7.87704 14.986 7.8457V7.83985C14.986 7.81085 14.975 7.779 14.968 7.75V7.73828C14.968 7.72828 14.963 7.71994 14.96 7.71094C14.9372 7.63106 14.9036 7.55512 14.86 7.48438H14.865C14.7776 7.33388 14.652 7.20877 14.5011 7.12207C14.3502 7.03537 14.1791 6.98998 14.005 6.99024C14.0077 6.99096 14.0104 6.99096 14.013 6.99024C13.7478 6.99024 13.4934 7.09567 13.3059 7.2832C13.1184 7.47074 13.013 7.72502 13.013 7.99024C13.013 8.25545 13.1184 8.50973 13.3059 8.69727C13.4934 8.8848 13.7478 8.99024 14.013 8.99024L13.996 8.99707Z" fill="#5135FF"/>
</svg>
