<svg width="32" height="32" viewBox="0 0 32 32" fill="none" xmlns="http://www.w3.org/2000/svg">
<path d="M16 31.002C7.729 31.002 1 28.302 1 25.002C1 24.971 1 24.941 1 24.91V7.00195H3V25.002C3 27.208 8.832 29.002 16 29.002C23.168 29.002 29 27.202 29 25.002V7.00195H31V25.002C31 28.302 24.271 31.002 16 31.002Z" fill="#5135FF"/>
<path d="M15.999 13C7.72802 13 0.999023 10.308 0.999023 7C0.999023 3.692 7.72802 1 15.999 1C24.27 1 30.999 3.691 30.999 7C30.999 10.309 24.271 13 15.999 13ZM15.999 3C8.83002 3 2.99902 4.794 2.99902 7C2.99902 9.206 8.83202 11 15.999 11C23.166 11 28.999 9.206 28.999 7C28.999 4.794 23.169 3 15.999 3Z" fill="#5135FF"/>
<path d="M10.6362 24.9502L6.39404 20.708C6.30107 20.6151 6.22708 20.5042 6.17676 20.3828C6.12643 20.2614 6.10059 20.1314 6.10059 20C6.10059 19.8686 6.12643 19.7386 6.17676 19.6172C6.22708 19.4958 6.30107 19.3858 6.39404 19.293L10.6362 15.0488C10.7291 14.9557 10.8394 14.8815 10.9609 14.8311C11.0824 14.7806 11.2127 14.7549 11.3442 14.7549C11.4758 14.7549 11.606 14.7806 11.7275 14.8311C11.849 14.8815 11.9594 14.9557 12.0522 15.0488C12.1452 15.1417 12.2187 15.2516 12.269 15.373C12.3194 15.4944 12.3452 15.6244 12.3452 15.7559C12.3452 15.8873 12.3194 16.0183 12.269 16.1396C12.2187 16.261 12.1452 16.371 12.0522 16.4639L8.51709 19.999L12.0522 23.5342C12.1454 23.6271 12.2191 23.7369 12.2695 23.8584C12.3199 23.9799 12.3457 24.1107 12.3457 24.2422C12.3457 24.3737 12.3199 24.5035 12.2695 24.625C12.2191 24.7465 12.1454 24.8573 12.0522 24.9502C11.9591 25.0428 11.8485 25.1161 11.7271 25.166C11.6056 25.2159 11.4756 25.2416 11.3442 25.2412C11.2129 25.2416 11.0824 25.2159 10.9609 25.166C10.8395 25.1161 10.7294 25.0428 10.6362 24.9502ZM19.9492 24.9502C19.7621 24.7627 19.6567 24.5081 19.6567 24.2432C19.6567 23.9782 19.7621 23.7246 19.9492 23.5371L23.4839 20.002L19.9512 16.4668C19.8582 16.3739 19.7842 16.264 19.7339 16.1426C19.6836 16.0212 19.6577 15.8912 19.6577 15.7598C19.6577 15.6284 19.6836 15.4974 19.7339 15.376C19.7842 15.2546 19.8582 15.1446 19.9512 15.0518C20.1387 14.8646 20.3928 14.7598 20.6577 14.7598C20.9226 14.7598 21.1768 14.8646 21.3643 15.0518L25.606 19.2959C25.7931 19.4834 25.8984 19.737 25.8984 20.002C25.8984 20.2669 25.7931 20.5215 25.606 20.709L21.3643 24.9502C21.1768 25.1377 20.9224 25.2431 20.6572 25.2432C20.5255 25.2429 20.3949 25.2158 20.2734 25.165C20.1519 25.1142 20.0419 25.0408 19.9492 24.9473V24.9502ZM14.707 24.834C14.58 24.8002 14.4609 24.742 14.3564 24.6621C14.252 24.5822 14.1645 24.4819 14.0986 24.3682C14.0328 24.2544 13.9899 24.1293 13.9727 23.999C13.9554 23.8687 13.9641 23.7354 13.998 23.6084L16.0708 15.8809C16.1046 15.7538 16.1633 15.6347 16.2432 15.5303C16.323 15.4259 16.4228 15.3383 16.5366 15.2725C16.6504 15.2066 16.7759 15.1637 16.9062 15.1465C17.0366 15.1292 17.1689 15.1379 17.2959 15.1719C17.4228 15.2059 17.5418 15.2648 17.646 15.3447C17.7502 15.4247 17.8377 15.5239 17.9033 15.6377C17.969 15.7515 18.0117 15.8776 18.0288 16.0078C18.0459 16.138 18.037 16.2696 18.0029 16.3965L15.9331 24.125C15.8762 24.338 15.7506 24.526 15.5757 24.6602C15.4008 24.7943 15.1862 24.8674 14.9658 24.8672C14.8783 24.8664 14.7915 24.8541 14.707 24.8311V24.834Z" fill="#5135FF"/>
</svg>
