<svg width="32" height="32" viewBox="0 0 32 32" fill="none" xmlns="http://www.w3.org/2000/svg">
<path fill-rule="evenodd" clip-rule="evenodd" d="M27 25.586V23.5C27 23.3674 27.0527 23.2402 27.1464 23.1464C27.2402 23.0527 27.3674 23 27.5 23H28.5C28.6326 23 28.7598 23.0527 28.8536 23.1464C28.9473 23.2402 29 23.3674 29 23.5V28C29 28.2652 28.8946 28.5196 28.7071 28.7071C28.5196 28.8946 28.2652 29 28 29H23.5C23.3674 29 23.2402 28.9473 23.1464 28.8536C23.0527 28.7598 23 28.6326 23 28.5V27.5C23 27.3674 23.0527 27.2402 23.1464 27.1464C23.2402 27.0527 23.3674 27 23.5 27H25.586L22.964 24.378C22.8761 24.8345 22.632 25.2461 22.2736 25.5421C21.9152 25.8381 21.4648 26 21 26H11C10.5352 26 10.0848 25.8381 9.72639 25.5421C9.36797 25.2461 9.12386 24.8345 9.036 24.378L6.414 27H8.5C8.63261 27 8.75979 27.0527 8.85355 27.1464C8.94732 27.2402 9 27.3674 9 27.5V28.5C9 28.6326 8.94732 28.7598 8.85355 28.8536C8.75979 28.9473 8.63261 29 8.5 29H4C3.73478 29 3.48043 28.8946 3.29289 28.7071C3.10536 28.5196 3 28.2652 3 28V23.5C3 23.3674 3.05268 23.2402 3.14645 23.1464C3.24021 23.0527 3.36739 23 3.5 23H4.5C4.63261 23 4.75979 23.0527 4.85355 23.1464C4.94732 23.2402 5 23.3674 5 23.5V25.586L9 21.586V12C8.99979 11.5169 9.04938 11.035 9.148 10.562L5 6.414V8.5C5 8.63261 4.94732 8.75979 4.85355 8.85355C4.75979 8.94732 4.63261 9 4.5 9H3.5C3.36739 9 3.24021 8.94732 3.14645 8.85355C3.05268 8.75979 3 8.63261 3 8.5V4C3 3.73478 3.10536 3.48043 3.29289 3.29289C3.48043 3.10536 3.73478 3 4 3H8.5C8.63261 3 8.75979 3.05268 8.85355 3.14645C8.94732 3.24021 9 3.36739 9 3.5V4.5C9 4.63261 8.94732 4.75979 8.85355 4.85355C8.75979 4.94732 8.63261 5 8.5 5H6.414L9.928 8.514C10.5411 7.44548 11.4254 6.55769 12.4914 5.9403C13.5575 5.32292 14.7676 4.9978 15.9995 4.9978C17.2314 4.9978 18.4415 5.32292 19.5076 5.9403C20.5736 6.55769 21.4579 7.44548 22.071 8.514L25.586 5H23.5C23.3674 5 23.2402 4.94732 23.1464 4.85355C23.0527 4.75979 23 4.63261 23 4.5V3.5C23 3.36739 23.0527 3.24021 23.1464 3.14645C23.2402 3.05268 23.3674 3 23.5 3H28C28.2652 3 28.5196 3.10536 28.7071 3.29289C28.8946 3.48043 29 3.73478 29 4V8.5C29 8.63261 28.9473 8.75979 28.8536 8.85355C28.7598 8.94732 28.6326 9 28.5 9H27.5C27.3674 9 27.2402 8.94732 27.1464 8.85355C27.0527 8.75979 27 8.63261 27 8.5V6.414L22.852 10.562C22.9506 11.035 23.0002 11.5169 23 12V21.586L27 25.586ZM21 24V12C21 10.6739 20.4732 9.40215 19.5355 8.46447C18.5979 7.52678 17.3261 7 16 7C14.6739 7 13.4021 7.52678 12.4645 8.46447C11.5268 9.40215 11 10.6739 11 12V24H21Z" fill="#5135FF"/>
</svg>
