<svg width="32" height="32" viewBox="0 0 32 32" fill="none" xmlns="http://www.w3.org/2000/svg">
<path d="M21.1261 27H12.0001C11.7348 27 11.4805 26.8946 11.293 26.707C11.1054 26.5195 11.0001 26.2652 11.0001 26C11.0001 25.7348 11.1054 25.4805 11.293 25.293C11.4805 25.1054 11.7348 25 12.0001 25H15.0001V20H5.00006C4.46963 20 3.96092 19.7891 3.58585 19.4141C3.21077 19.039 3.00006 18.5304 3.00006 18V4C3.00006 3.46957 3.21077 2.96101 3.58585 2.58594C3.96092 2.21086 4.46963 2 5.00006 2H27.0001C27.5305 2 28.0392 2.21086 28.4143 2.58594C28.7893 2.96101 29.0001 3.46957 29.0001 4V18C29.0001 18.5304 28.7893 19.039 28.4143 19.4141C28.0392 19.7891 27.5305 20 27.0001 20H17.0001V25H21.1281C21.3498 24.141 21.8509 23.381 22.5523 22.8379C23.2538 22.2948 24.1159 21.9996 25.0031 22C26.0639 22 27.0813 22.4217 27.8315 23.1719C28.5816 23.922 29.0031 24.9391 29.0031 26C29.0031 27.0609 28.5816 28.078 27.8315 28.8281C27.0813 29.5783 26.0639 30 25.0031 30C24.1156 30.0009 23.253 29.7072 22.5511 29.1641C21.8493 28.621 21.3479 27.8593 21.1261 27ZM22.998 26C22.998 26.5304 23.2088 27.039 23.5839 27.4141C23.9589 27.7891 24.4676 28 24.998 28C25.5285 28 26.0372 27.7891 26.4123 27.4141C26.7873 27.039 26.998 26.5304 26.998 26C26.998 25.4696 26.7873 24.961 26.4123 24.5859C26.0372 24.2109 25.5285 24 24.998 24C24.468 24.0005 23.9598 24.2109 23.5851 24.5859C23.2105 24.961 23.0001 25.4699 23.0001 26H22.998ZM4.99805 18H26.998V12H4.99805V18ZM4.99805 10H26.998V4H4.99805V10ZM6.99805 26C6.99805 25.7348 7.10342 25.4805 7.29095 25.293C7.47849 25.1054 7.73283 25 7.99805 25C8.26326 25 8.51763 25.1054 8.70517 25.293C8.89271 25.4805 8.99805 25.7348 8.99805 26C8.99805 26.2652 8.89271 26.5195 8.70517 26.707C8.51763 26.8946 8.26326 27 7.99805 27C7.73318 26.9995 7.47934 26.8945 7.29224 26.707C7.10513 26.5196 7.00006 26.2649 7.00006 26H6.99805ZM2.99805 26C2.99805 25.7348 3.10342 25.4805 3.29095 25.293C3.47849 25.1054 3.73283 25 3.99805 25C4.26326 25 4.51763 25.1054 4.70517 25.293C4.89271 25.4805 4.99805 25.7348 4.99805 26C4.99805 26.2652 4.89271 26.5195 4.70517 26.707C4.51763 26.8946 4.26326 27 3.99805 27C3.73318 26.9995 3.47934 26.8945 3.29224 26.707C3.10513 26.5196 3.00006 26.2649 3.00006 26H2.99805ZM17.498 16C17.3654 16 17.2383 15.9473 17.1445 15.8535C17.0507 15.7597 16.998 15.6326 16.998 15.5V14.5C16.998 14.3674 17.0507 14.2403 17.1445 14.1465C17.2383 14.0527 17.3654 14 17.498 14H24.498C24.6307 14 24.7579 14.0527 24.8516 14.1465C24.9454 14.2403 24.998 14.3674 24.998 14.5V15.5C24.998 15.6326 24.9454 15.7597 24.8516 15.8535C24.7579 15.9473 24.6307 16 24.498 16H17.498ZM7.49805 16C7.36544 16 7.23827 15.9473 7.1445 15.8535C7.05073 15.7597 6.99805 15.6326 6.99805 15.5V14.5C6.99805 14.3674 7.05073 14.2403 7.1445 14.1465C7.23827 14.0527 7.36544 14 7.49805 14H8.49805C8.63066 14 8.75786 14.0527 8.85162 14.1465C8.94539 14.2403 8.99805 14.3674 8.99805 14.5V15.5C8.99805 15.6326 8.94539 15.7597 8.85162 15.8535C8.75786 15.9473 8.63066 16 8.49805 16H7.49805ZM17.498 8C17.3654 8 17.2383 7.94728 17.1445 7.85352C17.0507 7.75975 16.998 7.63261 16.998 7.5V6.5C16.998 6.36739 17.0507 6.24025 17.1445 6.14648C17.2383 6.05272 17.3654 6 17.498 6H24.498C24.6307 6 24.7579 6.05272 24.8516 6.14648C24.9454 6.24025 24.998 6.36739 24.998 6.5V7.5C24.998 7.63261 24.9454 7.75975 24.8516 7.85352C24.7579 7.94728 24.6307 8 24.498 8H17.498ZM7.49805 8C7.36544 8 7.23827 7.94728 7.1445 7.85352C7.05073 7.75975 6.99805 7.63261 6.99805 7.5V6.5C6.99805 6.36739 7.05073 6.24025 7.1445 6.14648C7.23827 6.05272 7.36544 6 7.49805 6H8.49805C8.63066 6 8.75786 6.05272 8.85162 6.14648C8.94539 6.24025 8.99805 6.36739 8.99805 6.5V7.5C8.99805 7.63261 8.94539 7.75975 8.85162 7.85352C8.75786 7.94728 8.63066 8 8.49805 8H7.49805Z" fill="#5135FF"/>
</svg>
