<svg width="32" height="32" viewBox="0 0 32 32" fill="none" xmlns="http://www.w3.org/2000/svg">
<path d="M2.00002 29.7261V24.1528C2.00002 23.8876 2.10546 23.6333 2.29299 23.4458C2.48053 23.2583 2.73481 23.1528 3.00002 23.1528C3.17206 23.1529 3.34115 23.1977 3.49099 23.2822L8.44314 26.0708C8.59823 26.1577 8.72728 26.2846 8.81716 26.438C8.90705 26.5913 8.95437 26.7656 8.95437 26.9434C8.95437 27.1211 8.90705 27.2959 8.81716 27.4492C8.72728 27.6026 8.59823 27.7291 8.44314 27.8159L3.49099 30.603C3.34124 30.6879 3.17215 30.7326 3.00002 30.7329C2.86811 30.7329 2.73753 30.7069 2.61575 30.6562C2.49396 30.6056 2.3835 30.5311 2.29055 30.4375C2.1976 30.3439 2.12408 30.233 2.07424 30.1108C2.0244 29.9887 1.9991 29.858 2.00002 29.7261ZM4.00002 28.019L5.92092 26.939L4.00002 25.8579V28.019ZM16 27.999H12C11.7348 27.999 11.4805 27.8936 11.293 27.7061C11.1055 27.5185 11 27.2642 11 26.999C11 26.7338 11.1055 26.4795 11.293 26.292C11.4805 26.1045 11.7348 25.999 12 25.999H15V16.999H12C11.7348 16.999 11.4805 16.8936 11.293 16.7061C11.1055 16.5185 11 16.2642 11 15.999C11 15.7338 11.1055 15.4795 11.293 15.292C11.4805 15.1045 11.7348 14.999 12 14.999H15V5.99902H12C11.7348 5.99902 11.4805 5.89359 11.293 5.70605C11.1055 5.51852 11 5.26424 11 4.99902C11 4.73381 11.1055 4.47953 11.293 4.29199C11.4805 4.10446 11.7348 3.99902 12 3.99902H16C16.2652 3.99902 16.5195 4.10446 16.7071 4.29199C16.8946 4.47953 17 4.73381 17 4.99902V14.999H20C20.2652 14.999 20.5195 15.1045 20.7071 15.292C20.8946 15.4795 21 15.7338 21 15.999C21 16.2642 20.8946 16.5185 20.7071 16.7061C20.5195 16.8936 20.2652 16.999 20 16.999H17V26.999C17 27.2642 16.8946 27.5185 16.7071 27.7061C16.5195 27.8936 16.2652 27.999 16 27.999ZM2.00002 18.7861V13.209C2.00002 12.9438 2.10546 12.6895 2.29299 12.502C2.48053 12.3144 2.73481 12.209 3.00002 12.209C3.17233 12.2099 3.34143 12.2553 3.49099 12.3408L8.44314 15.127C8.59896 15.2136 8.72873 15.3405 8.81912 15.4941C8.9095 15.6478 8.95706 15.8227 8.95706 16.001C8.95706 16.1793 8.9095 16.3541 8.81912 16.5078C8.72873 16.6615 8.59896 16.7884 8.44314 16.875L3.49099 19.6602C3.3415 19.7455 3.17218 19.7899 3.00002 19.7891C2.86853 19.7891 2.73842 19.7633 2.61697 19.7129C2.49551 19.6625 2.38515 19.5887 2.29226 19.4956C2.19938 19.4025 2.1256 19.292 2.07546 19.1704C2.02533 19.0489 1.99976 18.9176 2.00002 18.7861ZM4.00002 17.0811L5.92092 16L4.00002 14.9199V17.0811ZM23 18.7759V13.2241C23 12.9589 23.1055 12.7046 23.293 12.5171C23.4805 12.3296 23.7348 12.2241 24 12.2241C24.1736 12.2233 24.3442 12.2691 24.4939 12.3569L29.3731 15.1328C29.5274 15.2199 29.6558 15.3465 29.7451 15.4995C29.8345 15.6526 29.8819 15.8267 29.8819 16.0039C29.8819 16.1811 29.8345 16.3553 29.7451 16.5083C29.6558 16.6613 29.5274 16.7879 29.3731 16.875L24.4939 19.6509C24.3437 19.7377 24.1735 19.7838 24 19.7842C23.868 19.7842 23.7374 19.7578 23.6155 19.707C23.4937 19.6563 23.383 19.582 23.2901 19.4883C23.1971 19.3946 23.1235 19.2834 23.0738 19.1611C23.024 19.0389 22.999 18.9079 23 18.7759ZM25 17.0601L26.8631 16L25 14.939V17.0601ZM2.00002 7.78613V2.20898C2.00002 1.94377 2.10546 1.68949 2.29299 1.50195C2.48053 1.31442 2.73481 1.20898 3.00002 1.20898C3.17205 1.21009 3.34095 1.2547 3.49099 1.33887L8.44314 4.12695C8.59896 4.21358 8.72873 4.34047 8.81912 4.49414C8.9095 4.64781 8.95706 4.8227 8.95706 5.00098C8.95706 5.17926 8.9095 5.35414 8.81912 5.50781C8.72873 5.66148 8.59896 5.78837 8.44314 5.875L3.49099 8.66016C3.34115 8.74468 3.17206 8.78901 3.00002 8.78906C2.86845 8.78906 2.73825 8.76284 2.61672 8.7124C2.4952 8.66196 2.38467 8.58829 2.29177 8.49512C2.19887 8.40194 2.1253 8.29111 2.07522 8.16943C2.02514 8.04776 1.99963 7.91771 2.00002 7.78613ZM4.00002 6.0791L5.92092 4.99902L4.00002 3.91699V6.0791Z" fill="#5135FF"/>
</svg>
