<svg width="32" height="32" viewBox="0 0 32 32" fill="none" xmlns="http://www.w3.org/2000/svg">
<path d="M18.5279 19.6582H21.5019C22.168 19.6577 22.8068 19.3929 23.2779 18.9219C23.749 18.451 24.0141 17.8124 24.0149 17.1462V14.1712C24.0144 13.5049 23.7494 12.866 23.2783 12.3948C22.8071 11.9237 22.1682 11.6587 21.5019 11.6582H18.5279C17.8616 11.6587 17.2227 11.9237 16.7515 12.3948C16.2804 12.866 16.0154 13.5049 16.0149 14.1712V14.6582H8.01489V16.6582H8.99689V18.5582H10.9969V16.6582H12.3969V18.5582H13.3969V16.6582H16.0149V17.1462C16.0157 17.8124 16.2807 18.451 16.7519 18.9219C17.223 19.3929 17.8617 19.6577 18.5279 19.6582ZM18.0149 14.1712C18.0152 14.0352 18.0693 13.9049 18.1654 13.8087C18.2616 13.7126 18.3919 13.6585 18.5279 13.6582H21.5019C21.6379 13.6585 21.7682 13.7126 21.8643 13.8087C21.9605 13.9049 22.0146 14.0352 22.0149 14.1712V17.1462C22.0146 17.2821 21.9605 17.4123 21.8643 17.5083C21.7681 17.6043 21.6378 17.6582 21.5019 17.6582H18.5279C18.392 17.6582 18.2617 17.6043 18.1655 17.5083C18.0693 17.4123 18.0152 17.2821 18.0149 17.1462V14.1712Z" fill="#5135FF"/>
<path d="M25.2058 6.63519C23.317 4.73324 20.8812 3.469 18.2388 3.01919L19.5508 1.70819C19.7384 1.52068 19.8439 1.26631 19.844 1.00104C19.8441 0.735774 19.7388 0.481332 19.5513 0.293691C19.3638 0.10605 19.1094 0.000582115 18.8441 0.000488344C18.5789 0.000394573 18.3244 0.105683 18.1368 0.293191L15.3078 3.12019C15.1222 3.30891 15.019 3.56351 15.0208 3.82819C15.0212 3.97432 15.0533 4.11863 15.1148 4.25119V4.25819L15.1338 4.29419L15.1398 4.30519L15.1568 4.33819L15.1668 4.35319L15.1838 4.38119L15.1938 4.39619L15.2128 4.42219L15.2258 4.43919L15.2428 4.46219L15.2578 4.47919L15.2758 4.50019L15.2938 4.51919L15.3098 4.53619L18.1368 7.36519C18.3247 7.5527 18.5794 7.65788 18.8448 7.6576C19.1103 7.65732 19.3648 7.5516 19.5523 7.36369C19.7398 7.17578 19.845 6.92109 19.8447 6.65563C19.8444 6.39017 19.7387 6.1357 19.5508 5.94819L18.8048 5.20219C21.188 5.82447 23.293 7.22921 24.7823 9.19105C26.2716 11.1529 27.0587 13.5581 27.0175 16.0209C26.9762 18.4836 26.1089 20.8611 24.5547 22.7719C23.0005 24.6827 20.8495 26.0161 18.4468 26.5582L18.9328 28.5012C21.1955 27.9806 23.2775 26.8635 24.9624 25.266C26.6473 23.6685 27.8737 21.6489 28.5139 19.4171C29.1542 17.1852 29.1851 14.8227 28.6033 12.5749C28.0215 10.3271 26.8484 8.27616 25.2058 6.63519Z" fill="#5135FF"/>
<path d="M13.8958 24.2892C13.7083 24.1017 13.454 23.9964 13.1888 23.9964C12.9237 23.9964 12.6694 24.1017 12.4818 24.2892C12.2947 24.4767 12.1895 24.7308 12.1895 24.9957C12.1895 25.2606 12.2947 25.5147 12.4818 25.7022L13.2298 26.4512C10.8468 25.8294 8.74171 24.4251 7.25226 22.4638C5.7628 20.5024 4.97532 18.0976 5.01614 15.6351C5.05696 13.1726 5.92372 10.7952 7.47737 8.88431C9.03102 6.97338 11.1815 5.6397 13.5838 5.0972L13.0978 3.1582C10.1695 3.82886 7.56386 5.49299 5.72384 7.86767C3.88383 10.2424 2.92304 13.181 3.00482 16.184C3.08661 19.187 4.20591 22.069 6.17245 24.3401C8.13898 26.6111 10.8314 28.1309 13.7918 28.6412L12.4788 29.9532C12.2914 30.1407 12.186 30.395 12.186 30.6602C12.186 30.9254 12.2914 31.1797 12.4788 31.3672C12.6664 31.5547 12.9207 31.66 13.1858 31.66C13.451 31.66 13.7053 31.5547 13.8928 31.3672L16.7208 28.5382C16.8008 28.4565 16.8664 28.3618 16.9148 28.2582C17.0055 28.071 17.0355 27.8602 17.0007 27.6552C16.9659 27.4501 16.8681 27.261 16.7208 27.1142L13.8958 24.2892Z" fill="#5135FF"/>
</svg>
