<svg width="32" height="32" viewBox="0 0 32 32" fill="none" xmlns="http://www.w3.org/2000/svg">
<path d="M26.6313 29.2514H14.7353V27.2134H26.4613V14.9814H8.10934V19.5694H6.06934V14.8144C6.06986 14.3185 6.26702 13.843 6.61757 13.4923C6.96812 13.1416 7.44345 12.9442 7.93934 12.9434H26.6313C27.1272 12.9442 27.6026 13.1416 27.9531 13.4923C28.3037 13.843 28.5008 14.3185 28.5013 14.8144V27.3804C28.5008 27.8762 28.3037 28.3517 27.9531 28.7024C27.6026 29.0532 27.1272 29.2506 26.6313 29.2514Z" fill="#5135FF"/>
<path d="M10.147 14.9821V9.88214H12.187V12.9391H22.387V9.88514H24.427V14.9851L10.147 14.9821ZM22.383 9.88214C22.383 8.52954 21.8457 7.23233 20.8892 6.2759C19.9328 5.31946 18.6356 4.78214 17.283 4.78214C15.9304 4.78214 14.6332 5.31946 13.6767 6.2759C12.7203 7.23233 12.183 8.52954 12.183 9.88214H10.147C10.147 7.98903 10.899 6.17345 12.2376 4.83481C13.5763 3.49618 15.3919 2.74414 17.285 2.74414C19.1781 2.74414 20.9937 3.49618 22.3323 4.83481C23.6709 6.17345 24.423 7.98903 24.423 9.88214H22.383Z" fill="#5135FF"/>
<path d="M17.2846 18.0391C17.4185 18.0389 17.5512 18.0652 17.6749 18.1163C17.7987 18.1675 17.9111 18.2425 18.0058 18.3372C18.1006 18.4318 18.1757 18.5442 18.227 18.6679C18.2783 18.7916 18.3046 18.9242 18.3046 19.0581V23.1391C18.3039 23.409 18.196 23.6675 18.0048 23.858C17.8135 24.0485 17.5546 24.1553 17.2846 24.1551C17.0147 24.1553 16.7557 24.0485 16.5645 23.858C16.3733 23.6675 16.2654 23.409 16.2646 23.1391V19.0581C16.2646 18.9242 16.291 18.7916 16.3423 18.6679C16.3936 18.5442 16.4687 18.4318 16.5635 18.3372C16.6582 18.2425 16.7706 18.1675 16.8944 18.1163C17.0181 18.0652 17.1507 18.0389 17.2846 18.0391Z" fill="#5135FF"/>
<path d="M9.12802 29.25C8.99392 29.2505 8.86109 29.2244 8.73728 29.1729C8.61348 29.1213 8.5012 29.0456 8.40701 28.9502C8.21643 28.7588 8.10943 28.4996 8.10943 28.2295C8.10943 27.9594 8.21643 27.7011 8.40701 27.5098L9.72302 26.1914H5.56202C5.07719 26.1914 4.59931 26.0765 4.16777 25.8555C3.73623 25.6345 3.3634 25.3143 3.08002 24.9209C2.7011 24.4023 2.49788 23.7761 2.50002 23.1338V22.1338C2.50028 21.8631 2.60794 21.6035 2.79936 21.4121C2.99077 21.2207 3.25032 21.1126 3.52102 21.1123C3.79173 21.1126 4.05126 21.2207 4.24268 21.4121C4.43409 21.6035 4.54175 21.8631 4.54202 22.1338V23.1338C4.54228 23.404 4.64973 23.6625 4.84077 23.8535C5.03181 24.0446 5.29084 24.1521 5.56101 24.1523H9.72502L8.40902 22.8379C8.21862 22.6462 8.11175 22.3864 8.11175 22.1162C8.11175 21.8461 8.21862 21.5872 8.40902 21.3955C8.50341 21.3003 8.61572 21.2243 8.73948 21.1729C8.86324 21.1214 8.99597 21.0956 9.13001 21.0957C9.26406 21.0956 9.3968 21.1214 9.52056 21.1729C9.64431 21.2243 9.75663 21.3003 9.85101 21.3955L12.907 24.4531C13.0027 24.5474 13.0785 24.6602 13.13 24.7842C13.1816 24.9082 13.2077 25.0415 13.207 25.1758C13.2079 25.3099 13.1818 25.4425 13.1303 25.5664C13.0788 25.6903 13.0028 25.8026 12.907 25.8965L9.85101 28.9541C9.75626 29.0491 9.64351 29.125 9.51936 29.1758C9.39521 29.2266 9.26216 29.2513 9.12802 29.25ZM14.189 25.4521C14.2016 25.36 14.2079 25.2678 14.208 25.1748C14.208 25.1088 14.208 25.0416 14.199 24.9746C14.2073 25.041 14.2113 25.108 14.211 25.1748C14.21 25.2679 14.2027 25.3601 14.189 25.4521ZM5.54102 22.1387C5.53943 21.9307 5.5057 21.724 5.44102 21.5264C5.50673 21.7237 5.54049 21.9306 5.54102 22.1387Z" fill="#5135FF"/>
<path d="M8.40601 28.9523C8.21505 28.7607 8.10783 28.5013 8.10783 28.2308C8.10783 27.9603 8.21505 27.7008 8.40601 27.5093L9.72301 26.1953H5.55901C5.15693 26.1957 4.75873 26.1167 4.38722 25.9629C4.01571 25.8092 3.6782 25.5836 3.39402 25.2991C3.10985 25.0147 2.8846 24.677 2.73119 24.3053C2.57778 23.9336 2.49922 23.5354 2.50001 23.1333V22.1333C2.50001 21.8628 2.60747 21.6033 2.79876 21.412C2.99004 21.2207 3.24949 21.1133 3.52001 21.1133C3.79053 21.1133 4.04997 21.2207 4.24125 21.412C4.43254 21.6033 4.54001 21.8628 4.54001 22.1333V23.1333C4.53987 23.2673 4.56617 23.4 4.61738 23.5238C4.66859 23.6476 4.74372 23.7601 4.83846 23.8548C4.93321 23.9496 5.0457 24.0247 5.16951 24.0759C5.29332 24.1271 5.42602 24.1534 5.56001 24.1533H9.72301L8.40601 22.8363C8.22313 22.6433 8.12285 22.3865 8.12653 22.1206C8.13021 21.8548 8.23755 21.6009 8.42568 21.413C8.61382 21.2251 8.86788 21.1181 9.13375 21.1148C9.39961 21.1115 9.65625 21.2121 9.84901 21.3953L12.905 24.4523C13.0002 24.5466 13.0758 24.6588 13.1274 24.7825C13.179 24.9061 13.2055 25.0388 13.2055 25.1728C13.2055 25.3068 13.179 25.4394 13.1274 25.5631C13.0758 25.6868 13.0002 25.799 12.905 25.8933L9.84901 28.9523C9.65714 29.1431 9.39757 29.2501 9.12701 29.2501C8.85644 29.2501 8.59787 29.1431 8.40601 28.9523Z" fill="#5135FF"/>
</svg>
