<svg width="32" height="32" viewBox="0 0 32 32" fill="none" xmlns="http://www.w3.org/2000/svg">
<path d="M24 2V25H4V2H24ZM25 0H3C2.73478 0 2.48043 0.105357 2.29289 0.292893C2.10536 0.48043 2 0.734784 2 1V25.863C2 26.0124 2.02944 26.1603 2.08664 26.2983C2.14385 26.4364 2.22769 26.5617 2.33337 26.6673C2.43906 26.7729 2.56452 26.8567 2.70258 26.9137C2.84064 26.9708 2.9886 27.0001 3.138 27H25C25.2652 27 25.5196 26.8946 25.7071 26.7071C25.8946 26.5196 26 26.2652 26 26V1C26 0.734784 25.8946 0.48043 25.7071 0.292893C25.5196 0.105357 25.2652 0 25 0Z" fill="#5135FF"/>
<path d="M29 32H7.13702C6.83555 31.9997 6.54648 31.8802 6.33331 31.667C6.12014 31.4538 6.00026 31.1648 6 30.8633V28H8V30H28V7H27V5H29C29.2652 5 29.5196 5.10543 29.7071 5.29297C29.8946 5.48051 30 5.73478 30 6V31C30 31.2652 29.8946 31.5195 29.7071 31.707C29.5196 31.8946 29.2652 32 29 32Z" fill="#5135FF"/>
<path d="M12.923 20.7217L8.07898 18.0146C7.75466 17.8367 7.48377 17.5755 7.29425 17.2578C7.10473 16.9401 7.00347 16.5779 7.00098 16.208V10.792C7.00419 10.4232 7.10584 10.0615 7.29535 9.74512C7.48486 9.42869 7.75535 9.16912 8.07898 8.99219L12.923 6.2832C13.2521 6.09902 13.6228 6.00143 14 6C14.3772 6.00013 14.7481 6.09643 15.078 6.2793L19.922 8.98828C20.2454 9.16553 20.5157 9.42583 20.7051 9.74219C20.8946 10.0585 20.9964 10.4194 21 10.7881V16.2041C20.997 16.5739 20.8955 16.9363 20.7061 17.2539C20.5166 17.5715 20.246 17.8324 19.922 18.0107L15.078 20.7178C14.7486 20.9021 14.3775 20.9994 14 21C13.6232 21.0005 13.2525 20.9045 12.923 20.7217ZM15 13.4219V18.4707L18.946 16.2656C18.985 16.2446 19 16.2171 19 16.2061V11.1113L15 13.4219ZM9 16.2061C9 16.2171 9.01502 16.2436 9.05402 16.2656L12.998 18.4658V13.418L8.99799 11.1074L9 16.2061ZM14 11.6885L17.277 9.79492L14.103 8.02344C14.0723 8.00673 14.0379 7.99744 14.003 7.99707C13.968 7.99683 13.9335 8.00616 13.903 8.02344L10.727 9.79688L14 11.6885Z" fill="#5135FF"/>
</svg>
