<svg width="32" height="32" viewBox="0 0 32 32" fill="none" xmlns="http://www.w3.org/2000/svg">
<path d="M14.998 30V26.9541C13.0178 26.7754 11.1232 26.0623 9.51611 24.8916L7.7041 26.7051L6.29199 25.293L8.01416 23.5684C7.55492 23.0854 7.14109 22.5608 6.77808 22.002H9.29102C10.1352 22.9452 11.1688 23.7002 12.3245 24.2168C13.4801 24.7334 14.7317 25 15.9976 25C17.2634 25 18.515 24.7334 19.6707 24.2168C20.8263 23.7002 21.8599 22.9452 22.7041 22.002H25.217C24.8516 22.5593 24.4376 23.0838 23.98 23.5684L25.7051 25.293L24.29 26.7051L22.4741 24.8926C20.8686 26.0636 18.9745 26.7759 16.9951 26.9521V30H14.998ZM23.998 15C24.011 15.151 23.998 20 23.998 20H21.998V12H24.498L26.364 17.917H26.408L28.4971 12H30.9971V20H28.9971C29.0381 16.095 28.9971 15 28.9971 15L27.4971 20H25.4971L23.998 15ZM15.998 20V12H17.998V18.5H20.998V20H15.998ZM5.99805 20V16.5H2.99805V20H0.998047V12H2.99805V15H5.99805V12H7.99805V20H5.99805ZM9.99805 20V12H14.498V13.5H11.998V15H14.498V16.5H11.998V18.5H14.498V20H9.99805ZM22.707 10C21.8636 9.05561 20.83 8.29957 19.6743 7.78223C18.5186 7.26488 17.2667 6.99805 16.0005 6.99805C14.7343 6.99805 13.4824 7.26488 12.3267 7.78223C11.1709 8.29957 10.1374 9.05561 9.29395 10H6.78101C7.14399 9.44018 7.55782 8.91463 8.01709 8.43066L6.29517 6.70508L7.70703 5.29395L9.52002 7.10742C11.1263 5.93471 13.0212 5.22048 15.002 5.04199V2H17.002V5.04297C18.9826 5.22195 20.8776 5.93614 22.4841 7.1084L24.2971 5.2959L25.7122 6.70703L23.9871 8.43262C24.4449 8.91699 24.8589 9.44146 25.2241 9.99902L22.707 10Z" fill="#5135FF"/>
</svg>
