<svg width="32" height="32" viewBox="0 0 32 32" fill="none" xmlns="http://www.w3.org/2000/svg">
<path d="M1.5 9.87305H30.5C30.7652 9.87305 31.0196 9.9784 31.2071 10.1659C31.3946 10.3535 31.5 10.6078 31.5 10.873C31.5 11.1383 31.3946 11.3926 31.2071 11.5802C31.0196 11.7677 30.7652 11.873 30.5 11.873H1.5C1.23478 11.873 0.98043 11.7677 0.792893 11.5802C0.605357 11.3926 0.5 11.1383 0.5 10.873C0.5 10.6078 0.605357 10.3535 0.792893 10.1659C0.98043 9.9784 1.23478 9.87305 1.5 9.87305Z" fill="#5135FF"/>
<path d="M17.5 21.873H18.5V24.873H17.5C17.2348 24.873 16.9804 24.9784 16.7929 25.1659C16.6054 25.3535 16.5 25.6078 16.5 25.873C16.5 26.1383 16.6054 26.3926 16.7929 26.5802C16.9804 26.7677 17.2348 26.873 17.5 26.873H18.5C18.5 27.4035 18.7107 27.9122 19.0858 28.2873C19.4609 28.6623 19.9696 28.873 20.5 28.873V29.873C20.5 30.1383 20.6054 30.3926 20.7929 30.5802C20.9804 30.7677 21.2348 30.873 21.5 30.873C21.7652 30.873 22.0196 30.7677 22.2071 30.5802C22.3946 30.3926 22.5 30.1383 22.5 29.873V28.873H25.5V29.873C25.5 30.1383 25.6054 30.3926 25.7929 30.5802C25.9804 30.7677 26.2348 30.873 26.5 30.873C26.7652 30.873 27.0196 30.7677 27.2071 30.5802C27.3946 30.3926 27.5 30.1383 27.5 29.873V28.873C28.0304 28.873 28.5391 28.6623 28.9142 28.2873C29.2893 27.9122 29.5 27.4035 29.5 26.873H30.5C30.7652 26.873 31.0196 26.7677 31.2071 26.5802C31.3946 26.3926 31.5 26.1383 31.5 25.873C31.5 25.6078 31.3946 25.3535 31.2071 25.1659C31.0196 24.9784 30.7652 24.873 30.5 24.873H29.5V21.873H30.5C30.7652 21.873 31.0196 21.7677 31.2071 21.5802C31.3946 21.3926 31.5 21.1383 31.5 20.873C31.5 20.6078 31.3946 20.3535 31.2071 20.1659C31.0196 19.9784 30.7652 19.873 30.5 19.873H29.5C29.5 19.3426 29.2893 18.8339 28.9142 18.4588C28.5391 18.0838 28.0304 17.873 27.5 17.873V16.873C27.5 16.6078 27.3946 16.3535 27.2071 16.1659C27.0196 15.9784 26.7652 15.873 26.5 15.873C26.2348 15.873 25.9804 15.9784 25.7929 16.1659C25.6054 16.3535 25.5 16.6078 25.5 16.873V17.873H22.5V16.873C22.5 16.6078 22.3946 16.3535 22.2071 16.1659C22.0196 15.9784 21.7652 15.873 21.5 15.873C21.2348 15.873 20.9804 15.9784 20.7929 16.1659C20.6054 16.3535 20.5 16.6078 20.5 16.873V17.873C19.9696 17.873 19.4609 18.0838 19.0858 18.4588C18.7107 18.8339 18.5 19.3426 18.5 19.873H17.5C17.2348 19.873 16.9804 19.9784 16.7929 20.1659C16.6054 20.3535 16.5 20.6078 16.5 20.873C16.5 21.1383 16.6054 21.3926 16.7929 21.5802C16.9804 21.7677 17.2348 21.873 17.5 21.873ZM27.5 19.873V26.873H20.5V19.873H27.5Z" fill="#5135FF"/>
<path d="M22.9 20.873H25.1C25.4713 20.873 25.8274 21.0205 26.0899 21.2831C26.3525 21.5456 26.5 21.9017 26.5 22.273V24.473C26.5 24.8444 26.3525 25.2004 26.0899 25.463C25.8274 25.7255 25.4713 25.873 25.1 25.873H22.9C22.5287 25.873 22.1726 25.7255 21.9101 25.463C21.6475 25.2004 21.5 24.8444 21.5 24.473V22.273C21.5 21.9017 21.6475 21.5456 21.9101 21.2831C22.1726 21.0205 22.5287 20.873 22.9 20.873ZM24.5 22.873H23.5V23.873H24.5V22.873Z" fill="#5135FF"/>
<path d="M1.5 21.873H2.5V24.873H1.5C1.23478 24.873 0.98043 24.9784 0.792893 25.1659C0.605357 25.3535 0.5 25.6078 0.5 25.873C0.5 26.1383 0.605357 26.3926 0.792893 26.5802C0.98043 26.7677 1.23478 26.873 1.5 26.873H2.5C2.5 27.4035 2.71071 27.9122 3.08579 28.2873C3.46086 28.6623 3.96957 28.873 4.5 28.873V29.873C4.5 30.1383 4.60536 30.3926 4.79289 30.5802C4.98043 30.7677 5.23478 30.873 5.5 30.873C5.76522 30.873 6.01957 30.7677 6.20711 30.5802C6.39464 30.3926 6.5 30.1383 6.5 29.873V28.873H9.5V29.873C9.5 30.1383 9.60536 30.3926 9.79289 30.5802C9.98043 30.7677 10.2348 30.873 10.5 30.873C10.7652 30.873 11.0196 30.7677 11.2071 30.5802C11.3946 30.3926 11.5 30.1383 11.5 29.873V28.873C12.0304 28.873 12.5391 28.6623 12.9142 28.2873C13.2893 27.9122 13.5 27.4035 13.5 26.873H14.5C14.7652 26.873 15.0196 26.7677 15.2071 26.5802C15.3946 26.3926 15.5 26.1383 15.5 25.873C15.5 25.6078 15.3946 25.3535 15.2071 25.1659C15.0196 24.9784 14.7652 24.873 14.5 24.873H13.5V21.873H14.5C14.7652 21.873 15.0196 21.7677 15.2071 21.5802C15.3946 21.3926 15.5 21.1383 15.5 20.873C15.5 20.6078 15.3946 20.3535 15.2071 20.1659C15.0196 19.9784 14.7652 19.873 14.5 19.873H13.5C13.5 19.3426 13.2893 18.8339 12.9142 18.4588C12.5391 18.0838 12.0304 17.873 11.5 17.873V16.873C11.5 16.6078 11.3946 16.3535 11.2071 16.1659C11.0196 15.9784 10.7652 15.873 10.5 15.873C10.2348 15.873 9.98043 15.9784 9.79289 16.1659C9.60536 16.3535 9.5 16.6078 9.5 16.873V17.873H6.5V16.873C6.5 16.6078 6.39464 16.3535 6.20711 16.1659C6.01957 15.9784 5.76522 15.873 5.5 15.873C5.23478 15.873 4.98043 15.9784 4.79289 16.1659C4.60536 16.3535 4.5 16.6078 4.5 16.873V17.873C3.96957 17.873 3.46086 18.0838 3.08579 18.4588C2.71071 18.8339 2.5 19.3426 2.5 19.873H1.5C1.23478 19.873 0.98043 19.9784 0.792893 20.1659C0.605357 20.3535 0.5 20.6078 0.5 20.873C0.5 21.1383 0.605357 21.3926 0.792893 21.5802C0.98043 21.7677 1.23478 21.873 1.5 21.873ZM11.5 19.873V26.873H4.5V19.873H11.5Z" fill="#5135FF"/>
<path d="M6.91807 20.873H9.11807C9.48937 20.873 9.84546 21.0205 10.108 21.2831C10.3706 21.5456 10.5181 21.9017 10.5181 22.273V24.473C10.5181 24.8444 10.3706 25.2004 10.108 25.463C9.84546 25.7255 9.48937 25.873 9.11807 25.873H6.91807C6.54676 25.873 6.19067 25.7255 5.92812 25.463C5.66557 25.2004 5.51807 24.8444 5.51807 24.473V22.273C5.51807 21.9017 5.66557 21.5456 5.92812 21.2831C6.19067 21.0205 6.54676 20.873 6.91807 20.873ZM8.51807 22.873H7.51807V23.873H8.51807V22.873Z" fill="#5135FF"/>
<path d="M22 10.873C22 10.4775 22.1173 10.0908 22.3371 9.76191C22.5568 9.43301 22.8692 9.17666 23.2346 9.02529C23.6001 8.87391 24.0022 8.83431 24.3902 8.91148C24.7781 8.98865 25.1345 9.17913 25.4142 9.45883C25.6939 9.73854 25.8844 10.0949 25.9616 10.4829C26.0387 10.8708 25.9991 11.273 25.8478 11.6384C25.6964 12.0039 25.44 12.3162 25.1111 12.536C24.7822 12.7557 24.3956 12.873 24 12.873C23.4696 12.873 22.9609 12.6623 22.5858 12.2873C22.2107 11.9122 22 11.4035 22 10.873Z" fill="#5135FF"/>
<path d="M14 4C14 3.60444 14.1173 3.21776 14.3371 2.88886C14.5568 2.55996 14.8692 2.30362 15.2346 2.15224C15.6001 2.00087 16.0022 1.96126 16.3902 2.03843C16.7781 2.1156 17.1345 2.30608 17.4142 2.58579C17.6939 2.86549 17.8844 3.22186 17.9616 3.60982C18.0387 3.99778 17.9991 4.39992 17.8478 4.76537C17.6964 5.13082 17.44 5.44318 17.1111 5.66294C16.7822 5.8827 16.3956 6 16 6C15.4696 6 14.9609 5.78929 14.5858 5.41421C14.2107 5.03914 14 4.53043 14 4Z" fill="#5135FF"/>
<path d="M6 10.873C6 10.4775 6.1173 10.0908 6.33706 9.76191C6.55682 9.43301 6.86918 9.17666 7.23463 9.02529C7.60009 8.87391 8.00222 8.83431 8.39018 8.91148C8.77814 8.98865 9.13451 9.17913 9.41421 9.45883C9.69392 9.73854 9.8844 10.0949 9.96157 10.4829C10.0387 10.8708 9.99913 11.273 9.84776 11.6384C9.69638 12.0039 9.44004 12.3162 9.11114 12.536C8.78224 12.7557 8.39556 12.873 8 12.873C7.46957 12.873 6.96086 12.6623 6.58579 12.2873C6.21071 11.9122 6 11.4035 6 10.873Z" fill="#5135FF"/>
<path d="M24 9.87305C24.2652 9.87305 24.5196 9.9784 24.7071 10.1659C24.8946 10.3535 25 10.6078 25 10.873V18.873C25 19.1383 24.8946 19.3926 24.7071 19.5802C24.5196 19.7677 24.2652 19.873 24 19.873C23.7348 19.873 23.4804 19.7677 23.2929 19.5802C23.1054 19.3926 23 19.1383 23 18.873V10.873C23 10.6078 23.1054 10.3535 23.2929 10.1659C23.4804 9.9784 23.7348 9.87305 24 9.87305Z" fill="#5135FF"/>
<path d="M16 3.87305C16.2652 3.87305 16.5196 3.9784 16.7071 4.16594C16.8946 4.35348 17 4.60783 17 4.87305V10.873C17 11.1383 16.8946 11.3926 16.7071 11.5802C16.5196 11.7677 16.2652 11.873 16 11.873C15.7348 11.873 15.4804 11.7677 15.2929 11.5802C15.1054 11.3926 15 11.1383 15 10.873V4.87305C15 4.60783 15.1054 4.35348 15.2929 4.16594C15.4804 3.9784 15.7348 3.87305 16 3.87305Z" fill="#5135FF"/>
<path d="M8 9.87305C8.26522 9.87305 8.51957 9.9784 8.70711 10.1659C8.89464 10.3535 9 10.6078 9 10.873V18.873C9 19.1383 8.89464 19.3926 8.70711 19.5802C8.51957 19.7677 8.26522 19.873 8 19.873C7.73478 19.873 7.48043 19.7677 7.29289 19.5802C7.10536 19.3926 7 19.1383 7 18.873V10.873C7 10.6078 7.10536 10.3535 7.29289 10.1659C7.48043 9.9784 7.73478 9.87305 8 9.87305Z" fill="#5135FF"/>
</svg>
