<svg width="32" height="32" viewBox="0 0 32 32" fill="none" xmlns="http://www.w3.org/2000/svg">
<path d="M17 30H4C3.46957 30 2.96086 29.7891 2.58578 29.4141C2.21071 29.039 2 28.5304 2 28V18C2 17.4696 2.21071 16.961 2.58578 16.5859C2.96086 16.2109 3.46957 16 4 16H6C6.029 14.714 5.908 12.682 9 10C12.092 7.318 14.239 4.147 10 1C15 1 22.36 4.778 23 12C24.3 11.956 24 8 24 8C25.719 9.631 26 13.6 26 16H28C28.5304 16 29.0391 16.2109 29.4142 16.5859C29.7893 16.961 30 17.4696 30 18V28C30 28.5304 29.7893 29.039 29.4142 29.4141C29.0391 29.7891 28.5304 30 28 30H17ZM17 28H28V26H17V28ZM4 28H15V26H4V28ZM28 24V22H24C23.4332 22.7569 22.7626 23.4301 22.008 24H28ZM4 24H9.53101C8.79011 23.4416 8.1453 22.7661 7.62201 22H4V24ZM14.368 4.55469C14.48 7.54269 12.108 9.9547 10.313 11.5127C8.04199 13.4787 8.022 14.7348 8.005 15.8418C8.005 15.9088 8.005 15.978 8.005 16.042C7.9343 17.0786 8.07435 18.1186 8.41672 19.0996C8.75908 20.0806 9.29666 20.9824 9.99701 21.75C10.8098 22.5641 11.806 23.1719 12.902 23.5215C12.3207 22.8097 12.0021 21.919 12 21C12 15.04 18.311 13 19 13C18.5988 13.7723 18.3894 14.6297 18.3894 15.5C18.3894 16.3703 18.5988 17.2277 19 18C20.1 19.979 19.989 20.486 20 21C20.0356 21.7747 19.8512 22.5435 19.468 23.2178C20.8244 22.5608 21.9686 21.5361 22.77 20.2598C23.5714 18.9834 23.9976 17.5071 24 16C24 15.237 23.969 14.5081 23.91 13.8301C23.6413 13.9327 23.3575 13.9898 23.07 13.999C22.5584 14.0172 22.0594 13.8388 21.6756 13.5C21.2918 13.1612 21.0525 12.6876 21.007 12.1777C20.8649 10.8235 20.4293 9.51634 19.7306 8.34766C19.0318 7.17897 18.0867 6.17726 16.961 5.41113C16.1369 4.81737 15.2462 4.32144 14.307 3.93457C14.3377 4.14004 14.3574 4.34712 14.366 4.55469H14.368ZM16.233 16.5303C15.5383 17.0499 14.9746 17.7239 14.5869 18.5C14.1992 19.2761 13.9982 20.1325 14 21C14 21.5304 14.2107 22.039 14.5858 22.4141C14.9609 22.7891 15.4696 23 16 23C16.28 23.0165 16.5606 22.9773 16.8254 22.8848C17.0902 22.7923 17.3341 22.6482 17.543 22.4609C17.7113 22.268 17.8386 22.0426 17.917 21.7988C17.9954 21.555 18.0233 21.2979 17.999 21.043V20.8555C18.0078 20.7287 17.9922 20.6014 17.953 20.4805C17.7733 19.9552 17.5387 19.4496 17.253 18.9736C16.8096 18.1702 16.5315 17.2866 16.435 16.374C16.367 16.422 16.3 16.4753 16.231 16.5293L16.233 16.5303ZM28 20V18H25.8C25.6587 18.6871 25.4455 19.3575 25.164 20H28ZM4 20H6.60699C6.37608 19.3517 6.21158 18.6816 6.116 18H4V20ZM6 16.5381C6 16.5201 6 16.5033 6 16.4863C6 16.5003 6 16.5211 6 16.5381Z" fill="#5135FF"/>
</svg>
