<svg width="32" height="32" viewBox="0 0 32 32" fill="none" xmlns="http://www.w3.org/2000/svg">
<path d="M16.0001 31.0001C14.0294 31.0053 12.0773 30.6193 10.2567 29.8653C8.43603 29.1112 6.78295 28.0045 5.39306 26.6075C3.99576 25.2178 2.888 23.5639 2.13394 21.7432C1.37987 19.9225 0.994474 17.9707 1.00006 16.0001C0.994738 14.0297 1.38026 12.0782 2.13432 10.2579C2.88838 8.43752 3.996 6.78401 5.39306 5.39459C6.78255 3.99692 8.43551 2.88924 10.2562 2.13482C12.0769 1.38041 14.0292 0.994733 16.0001 1.00006C17.9708 0.994602 19.9231 1.38058 21.7438 2.13482C23.5645 2.88906 25.2175 3.99613 26.6071 5.39361C28.0041 6.78323 29.1116 8.43637 29.8654 10.2569C30.6193 12.0774 31.0046 14.0296 30.9991 16.0001C31.0046 17.9707 30.6192 19.9225 29.8652 21.7432C29.1111 23.5639 28.0034 25.2178 26.6061 26.6075C25.2163 28.0043 23.5634 29.1113 21.7429 29.8653C19.9224 30.6193 17.9705 31.0051 16.0001 31.0001ZM16.0001 3.00006C12.5534 3.00376 9.24893 4.37441 6.81176 6.81158C4.37459 9.24875 3.00376 12.5534 3.00006 16.0001C3.00429 19.4466 4.37529 22.7505 6.81235 25.1876C9.24941 27.6246 12.5535 28.9958 16.0001 29.0001C19.4466 28.9958 22.7507 27.6246 25.1878 25.1876C27.6248 22.7505 28.9958 19.4466 29.0001 16.0001C28.9963 12.5534 27.6255 9.24875 25.1883 6.81158C22.7512 4.37441 19.4467 3.00376 16.0001 3.00006Z" fill="#5135FF"/>
<path d="M9 14V10C9 9.73478 9.10536 9.48051 9.29289 9.29297C9.48043 9.10543 9.73478 9 10 9H14C14.2652 9 14.5196 9.10543 14.7071 9.29297C14.8946 9.48051 15 9.73478 15 10C15 10.2652 14.8946 10.5195 14.7071 10.707C14.5196 10.8946 14.2652 11 14 11H12.414L14.657 13.2432C14.8442 13.4307 14.9493 13.6843 14.9493 13.9492C14.9493 14.2141 14.8442 14.4688 14.657 14.6562C14.5641 14.7494 14.4538 14.8226 14.3323 14.873C14.2108 14.9235 14.0805 14.9502 13.949 14.9502C13.8175 14.9502 13.6872 14.9235 13.5657 14.873C13.4442 14.8226 13.3339 14.7494 13.241 14.6562L11 12.4141V14C11 14.2652 10.8946 14.5195 10.7071 14.707C10.5196 14.8946 10.2652 15 10 15C9.73478 15 9.48043 14.8946 9.29289 14.707C9.10536 14.5195 9 14.2652 9 14Z" fill="#5135FF"/>
<path d="M22.999 18V22C22.999 22.2652 22.8937 22.5196 22.7061 22.7071C22.5186 22.8946 22.2642 23 21.999 23H17.999C17.7338 23 17.4795 22.8946 17.2919 22.7071C17.1044 22.5196 16.999 22.2652 16.999 22C16.999 21.7348 17.1044 21.4804 17.2919 21.2929C17.4795 21.1054 17.7338 21 17.999 21H19.585L17.342 18.757C17.1642 18.5677 17.0671 18.3166 17.0711 18.0569C17.0751 17.7972 17.1801 17.5493 17.3636 17.3656C17.5472 17.1819 17.7951 17.0768 18.0548 17.0726C18.3144 17.0684 18.5656 17.1653 18.755 17.343L20.999 19.587V18C20.999 17.7348 21.1044 17.4804 21.2919 17.2929C21.4795 17.1054 21.7338 17 21.999 17C22.2642 17 22.5186 17.1054 22.7061 17.2929C22.8937 17.4804 22.999 17.7348 22.999 18Z" fill="#5135FF"/>
<path d="M17.998 9H21.998C22.2633 9 22.5176 9.10536 22.7052 9.29289C22.8927 9.48043 22.998 9.73478 22.998 10V14C22.998 14.2652 22.8927 14.5196 22.7052 14.7071C22.5176 14.8946 22.2633 15 21.998 15C21.7328 15 21.4785 14.8946 21.2909 14.7071C21.1034 14.5196 20.998 14.2652 20.998 14V12.414L18.755 14.657C18.6633 14.7547 18.5529 14.8329 18.4303 14.8871C18.3078 14.9413 18.1756 14.9702 18.0416 14.9723C17.9076 14.9744 17.7746 14.9495 17.6504 14.8992C17.5262 14.8489 17.4134 14.7741 17.3187 14.6793C17.224 14.5845 17.1493 14.4717 17.0991 14.3475C17.0488 14.2232 17.024 14.0902 17.0262 13.9562C17.0284 13.8222 17.0575 13.6901 17.1117 13.5675C17.166 13.445 17.2443 13.3347 17.342 13.243L19.585 11H17.998C17.7328 11 17.4785 10.8946 17.2909 10.7071C17.1034 10.5196 16.998 10.2652 16.998 10C16.998 9.73478 17.1034 9.48043 17.2909 9.29289C17.4785 9.10536 17.7328 9 17.998 9Z" fill="#5135FF"/>
<path d="M13.999 22.999H9.99902C9.73381 22.999 9.47945 22.8937 9.29192 22.7061C9.10438 22.5186 8.99902 22.2642 8.99902 21.999V17.999C8.99902 17.7338 9.10438 17.4795 9.29192 17.2919C9.47945 17.1044 9.73381 16.999 9.99902 16.999C10.2642 16.999 10.5186 17.1044 10.7061 17.2919C10.8937 17.4795 10.999 17.7338 10.999 17.999V19.586L13.242 17.343C13.4315 17.1654 13.6826 17.0684 13.9423 17.0726C14.202 17.0768 14.4498 17.1819 14.6334 17.3656C14.817 17.5493 14.9219 17.7973 14.9259 18.0569C14.93 18.3166 14.8328 18.5677 14.655 18.757L12.413 20.999H13.999C14.2642 20.999 14.5186 21.1044 14.7061 21.2919C14.8937 21.4795 14.999 21.7338 14.999 21.999C14.999 22.2642 14.8937 22.5186 14.7061 22.7061C14.5186 22.8937 14.2642 22.999 13.999 22.999Z" fill="#5135FF"/>
</svg>
