<svg width="32" height="32" viewBox="0 0 32 32" fill="none" xmlns="http://www.w3.org/2000/svg">
<path d="M21.9345 10.4946C21.8375 10.3977 21.7606 10.2826 21.7081 10.1559C21.6557 10.0293 21.6288 9.89346 21.6291 9.75636L21.6291 4.47569C21.6288 4.26906 21.6899 4.06702 21.8046 3.89514C21.9193 3.72326 22.0824 3.58928 22.2733 3.51016C22.4642 3.43104 22.6742 3.41033 22.8769 3.45067C23.0795 3.49101 23.2656 3.59058 23.4117 3.73676L28.6923 9.01743C28.8385 9.16346 28.9381 9.34958 28.9784 9.55223C29.0188 9.75488 28.9981 9.96495 28.9189 10.1558C28.8398 10.3467 28.7058 10.5098 28.534 10.6245C28.3621 10.7392 28.16 10.8003 27.9534 10.8001H22.6727C22.5356 10.8003 22.3998 10.7734 22.2732 10.721C22.1465 10.6685 22.0314 10.5916 21.9345 10.4946ZM23.7171 6.99652L23.7171 8.71196L25.4319 8.71126L23.7171 6.99652Z" fill="#5135FF"/>
<path d="M27.6641 28.3663C27.6451 28.3843 20.4341 28.3663 20.4341 28.3663V25.9659H27.3411V10.0851L22.696 5.43857C21.136 5.44857 12.865 5.39778 11.761 5.34678C11.696 5.34678 11.539 5.34651 11.5 5.39951C11.5 5.39951 11.4831 5.42657 11.4751 5.43857V12.587H9.38599V5.33897C9.38607 5.30322 9.38818 5.26708 9.39209 5.23154C9.45889 4.67079 9.7351 4.15598 10.1653 3.79014C10.5955 3.42429 11.148 3.23475 11.7122 3.25889C11.7592 3.25889 11.812 3.25889 11.856 3.25889C13.078 3.30789 23.0479 3.34287 23.1169 3.34287H23.126C23.4023 3.34135 23.6679 3.44998 23.865 3.64365L29.125 8.90732C29.222 9.00416 29.2991 9.11857 29.3516 9.24521C29.4041 9.37186 29.4312 9.50851 29.4312 9.64561V27.2335C29.4312 27.2335 29.5091 28.3663 27.6641 28.3663Z" fill="#5135FF"/>
<path d="M5.76087 25.5329H3.69987C3.14892 25.5466 2.61503 25.3412 2.21534 24.9617C1.81565 24.5823 1.5828 24.0598 1.56787 23.5089V19.0089C1.58435 18.459 1.81789 17.9381 2.21741 17.5599C2.61693 17.1817 3.14993 16.9772 3.69987 16.9909H5.75987C6.02509 16.9909 6.27944 17.0962 6.46698 17.2838C6.65451 17.4713 6.75987 17.7257 6.75987 17.9909V24.5329C6.75987 24.7979 6.65465 25.0521 6.46733 25.2396C6.28001 25.4271 6.02591 25.5326 5.76087 25.5329ZM3.56787 23.4879C3.60533 23.5175 3.65215 23.5328 3.69987 23.5309H4.75987V18.9909H3.69987C3.65227 18.9887 3.60546 19.0036 3.56787 19.0329V23.4879Z" fill="#5135FF"/>
<path d="M11.435 27.8369C11.2346 27.8371 11.0361 27.7977 10.851 27.7209L5.37899 25.4559C5.19611 25.3804 5.03978 25.2522 4.92977 25.0877C4.81976 24.9232 4.76102 24.7298 4.76099 24.5319V17.9929C4.76102 17.7951 4.81976 17.6016 4.92977 17.4372C5.03978 17.2727 5.19611 17.1445 5.37899 17.0689L10.852 14.8039C11.0368 14.7274 11.2349 14.6879 11.435 14.6879C11.8118 14.6785 12.1771 14.8189 12.4506 15.0784C12.724 15.3378 12.8835 15.6951 12.894 16.0719V26.4529C12.8835 26.8298 12.724 27.1871 12.4506 27.4465C12.1771 27.706 11.8118 27.8464 11.435 27.8369ZM6.76099 23.8629L10.894 25.5729V16.9509L6.76099 18.6609V23.8629Z" fill="#5135FF"/>
<path d="M17.3631 26.9659C17.187 26.9658 17.014 26.9192 16.8617 26.8309C16.7094 26.7425 16.5832 26.6155 16.4957 26.4627C16.4082 26.3099 16.3627 26.1366 16.3636 25.9606C16.3645 25.7845 16.412 25.6118 16.5011 25.4599C17.1436 24.2776 17.4669 22.9483 17.4391 21.6029C17.4952 20.0271 17.0317 18.4765 16.1201 17.1899C16.0369 17.0882 15.9747 16.9711 15.9368 16.8453C15.8989 16.7196 15.8862 16.5876 15.8993 16.4569C15.9124 16.3262 15.9512 16.1993 16.0134 16.0836C16.0755 15.9679 16.1598 15.8655 16.2616 15.7824C16.3633 15.6993 16.4804 15.637 16.6061 15.5991C16.7319 15.5613 16.8639 15.5485 16.9946 15.5617C17.1253 15.5748 17.2521 15.6136 17.3679 15.6757C17.4836 15.7379 17.5859 15.8222 17.6691 15.9239C18.8805 17.5644 19.5053 19.5645 19.4431 21.6029C19.4701 23.3039 19.052 24.9824 18.2301 26.4719C18.1414 26.623 18.0147 26.7481 17.8626 26.8348C17.7104 26.9215 17.5382 26.9667 17.3631 26.9659Z" fill="#5135FF"/>
<path d="M14.5109 24.7672C14.3305 24.7671 14.1536 24.7182 13.9987 24.6257C13.8439 24.5332 13.717 24.4005 13.6314 24.2417C13.5459 24.083 13.5048 23.904 13.5126 23.7239C13.5204 23.5437 13.5768 23.369 13.6759 23.2182C13.9863 22.7392 14.1433 22.1768 14.1259 21.6062C14.144 21.11 14.0432 20.6166 13.8319 20.1672C13.6327 20.0026 13.505 19.7672 13.4755 19.5104C13.4461 19.2537 13.5172 18.9955 13.6739 18.79C13.8306 18.5845 14.0608 18.4477 14.3162 18.4082C14.5716 18.3687 14.8324 18.4297 15.0439 18.5782C15.4273 18.9781 15.7219 19.4545 15.9083 19.9761C16.0948 20.4978 16.1689 21.0529 16.1259 21.6052C16.1448 22.5662 15.8737 23.5106 15.3479 24.3152C15.2568 24.4542 15.1327 24.5682 14.9865 24.6471C14.8404 24.726 14.6769 24.7673 14.5109 24.7672Z" fill="#5135FF"/>
</svg>
