<svg width="32" height="32" viewBox="0 0 32 32" fill="none" xmlns="http://www.w3.org/2000/svg">
<path d="M29 1H3C1.89543 1 1 1.89543 1 3V29C1 30.1046 1.89543 31 3 31H29C30.1046 31 31 30.1046 31 29V3C31 1.89543 30.1046 1 29 1Z" stroke="#5135FF" stroke-width="2"/>
<path d="M16.4889 10.343L15.4904 10.343C15.3578 10.3429 15.2307 10.2903 15.1369 10.1965C15.0432 10.1028 14.9905 9.97562 14.9905 9.84304L14.9898 6.61793L13.9242 7.68354C13.8304 7.77731 13.7032 7.82998 13.5706 7.82998C13.438 7.82998 13.3108 7.77731 13.2171 7.68354L12.51 6.97643C12.4162 6.88266 12.3635 6.75549 12.3635 6.62288C12.3635 6.49027 12.4162 6.36309 12.51 6.26932L15.6877 3.09159C15.7815 2.99782 15.9087 2.94514 16.0413 2.94514C16.1739 2.94514 16.301 2.99782 16.3948 3.09159L19.3951 6.09184C19.4888 6.18561 19.5415 6.31279 19.5415 6.44539C19.5415 6.578 19.4888 6.70518 19.3951 6.79895L18.688 7.50605C18.5942 7.59982 18.467 7.6525 18.3344 7.6525C18.2018 7.6525 18.0746 7.59982 17.9809 7.50605L16.9888 6.51398L16.9895 9.84233C16.9895 9.97492 16.9368 10.1021 16.843 10.1958C16.7493 10.2896 16.6214 10.3429 16.4889 10.343Z" fill="#5135FF"/>
<path d="M12.6536 26.2899C12.5599 26.1961 12.5072 26.0689 12.5072 25.9363C12.5072 25.8037 12.5599 25.6765 12.6536 25.5828L13.3607 24.8757C13.4545 24.7819 13.5817 24.7292 13.7143 24.7292C13.8469 24.7292 13.9741 24.7819 14.0678 24.8757L14.9871 25.7949L14.9871 22.5422C14.9871 22.4096 15.0398 22.2825 15.1335 22.1887C15.2273 22.095 15.3544 22.0423 15.487 22.0423L16.489 22.0515C16.6216 22.0515 16.7487 22.1042 16.8425 22.1979C16.9362 22.2917 16.9889 22.4188 16.9889 22.5514L16.9889 25.8677L17.981 24.8757C18.0747 24.7819 18.2019 24.7292 18.3345 24.7292C18.4671 24.7292 18.5943 24.7819 18.6881 24.8757L19.3952 25.5828C19.489 25.6765 19.5416 25.8037 19.5416 25.9363C19.5416 26.0689 19.489 26.1961 19.3952 26.2899L16.3956 29.2894C16.2949 29.3835 16.1622 29.4358 16.0244 29.4358C15.8866 29.4358 15.7539 29.3835 15.6532 29.2894L12.6536 26.2899Z" fill="#5135FF"/>
<path d="M20.3588 12.5478L19.6518 11.8408C19.558 11.7471 19.5054 11.6199 19.5054 11.4873C19.5054 11.3548 19.558 11.2276 19.6518 11.1338L22.5908 8.19385H21.2648C21.1322 8.19385 21.005 8.14117 20.9112 8.0474C20.8174 7.95363 20.7648 7.82646 20.7648 7.69385V6.69385C20.7648 6.56124 20.8174 6.43406 20.9112 6.34029C21.005 6.24653 21.1322 6.19385 21.2648 6.19385H25.5058C25.6384 6.19385 25.7655 6.24653 25.8593 6.34029C25.9531 6.43406 26.0058 6.56124 26.0058 6.69385V10.9368C26.0058 11.0695 25.9531 11.1966 25.8593 11.2904C25.7655 11.3842 25.6384 11.4368 25.5058 11.4368H24.5058C24.3732 11.4368 24.246 11.3842 24.1522 11.2904C24.0584 11.1966 24.0058 11.0695 24.0058 10.9368V9.60785L21.0648 12.5478C20.971 12.6416 20.8438 12.6942 20.7113 12.6942C20.5787 12.6942 20.4525 12.6416 20.3588 12.5478Z" fill="#5135FF"/>
<path d="M21.3392 25.9489C21.2066 25.9489 21.0794 25.8962 20.9856 25.8024C20.8919 25.7086 20.8392 25.5815 20.8392 25.4489V24.4489C20.8392 24.3162 20.8919 24.1891 20.9856 24.0953C21.0794 24.0015 21.2066 23.9489 21.3392 23.9489H22.6882L20.3222 21.5829C20.2284 21.4891 20.1758 21.3619 20.1758 21.2294C20.1758 21.0968 20.2284 20.9696 20.3222 20.8759L21.0292 20.1689C21.1229 20.0751 21.2501 20.0225 21.3827 20.0225C21.5153 20.0225 21.6424 20.0751 21.7362 20.1689L24.0812 22.5139V21.1989C24.0812 21.0662 24.1339 20.9391 24.2276 20.8453C24.3214 20.7515 24.4486 20.6989 24.5812 20.6989H25.5812C25.7138 20.6989 25.841 20.7515 25.9347 20.8453C26.0285 20.9391 26.0812 21.0662 26.0812 21.1989V25.4489C26.0812 25.5815 26.0285 25.7086 25.9347 25.8024C25.841 25.8962 25.7138 25.9489 25.5812 25.9489H21.3392Z" fill="#5135FF"/>
<path d="M7.13101 5.94H7.17301L10.371 5.94C10.5036 5.94 10.6308 5.99268 10.7246 6.08644C10.8183 6.18021 10.871 6.30739 10.871 6.44V7.44C10.871 7.57261 10.8183 7.69978 10.7246 7.79355C10.6308 7.88732 10.5036 7.94 10.371 7.94H8.79301L11.316 10.465C11.4097 10.5588 11.4624 10.6859 11.4624 10.8185C11.4624 10.9511 11.4097 11.0782 11.316 11.172L10.609 11.879C10.5152 11.9727 10.3881 12.0254 10.2555 12.0254C10.1229 12.0254 9.99577 11.9727 9.90201 11.879L7.63101 9.608V10.683C7.63101 10.8156 7.57833 10.9428 7.48456 11.0366C7.39079 11.1303 7.26362 11.183 7.13101 11.183H6.13101C5.9984 11.183 5.87122 11.1303 5.77746 11.0366C5.68369 10.9428 5.63101 10.8156 5.63101 10.683L5.63101 6.442C5.63101 6.30939 5.68369 6.18221 5.77746 6.08844C5.87122 5.99468 5.9984 5.942 6.13101 5.942L7.13101 5.94Z" fill="#5135FF"/>
<path d="M10.612 20.169L11.318 20.876C11.4117 20.9698 11.4644 21.0969 11.4644 21.2295C11.4644 21.3621 11.4117 21.4892 11.318 21.583L9.04696 23.854H10.374C10.5066 23.854 10.6337 23.9067 10.7275 24.0005C10.8213 24.0942 10.874 24.2214 10.874 24.354V25.354C10.874 25.4866 10.8213 25.6138 10.7275 25.7076C10.6337 25.8013 10.5066 25.854 10.374 25.854H6.13296C6.00035 25.854 5.87318 25.8013 5.77941 25.7076C5.68564 25.6138 5.63296 25.4866 5.63296 25.354L5.63296 21.112C5.63296 20.9794 5.68564 20.8522 5.77941 20.7585C5.87318 20.6647 6.00035 20.612 6.13296 20.612H7.13296C7.26557 20.612 7.39275 20.6647 7.48652 20.7585C7.58028 20.8522 7.63296 20.9794 7.63296 21.112V22.44L9.90396 20.169C9.99773 20.0753 10.1249 20.0226 10.2575 20.0226C10.39 20.0226 10.5182 20.0753 10.612 20.169Z" fill="#5135FF"/>
<path d="M22.4309 16.8166L22.4309 15.8167C22.4309 15.6841 22.4835 15.557 22.5773 15.4632C22.671 15.3695 22.7982 15.3168 22.9308 15.3168L26.0279 15.3168L25.0768 14.3657C24.9831 14.272 24.9304 14.1448 24.9304 14.0122C24.9304 13.8796 24.9831 13.7524 25.0768 13.6586L25.784 12.9515C25.8777 12.8577 26.0049 12.8051 26.1375 12.8051C26.2701 12.8051 26.3973 12.8577 26.4911 12.9515L29.4913 15.9518C29.5476 16.0081 29.5896 16.0771 29.6139 16.153C29.6381 16.2289 29.6438 16.3095 29.6306 16.388C29.6173 16.4993 29.567 16.6029 29.4878 16.6822L26.4875 19.6825C26.3938 19.7762 26.2666 19.8289 26.134 19.8289C26.0014 19.8289 25.8742 19.7762 25.7804 19.6825L25.0733 18.9754C24.9795 18.8816 24.9269 18.7544 24.9269 18.6218C24.9269 18.4892 24.9795 18.362 25.0733 18.2682L26.023 17.3186L22.9308 17.3165C22.7982 17.3165 22.671 17.2638 22.5773 17.17C22.4835 17.0763 22.4309 16.9491 22.4309 16.8166Z" fill="#5135FF"/>
<path d="M5.32982 12.9624C5.42359 12.8686 5.55076 12.8159 5.68337 12.8159C5.81598 12.8159 5.94316 12.8686 6.03693 12.9624L6.74403 13.6695C6.8378 13.7633 6.89048 13.8904 6.89048 14.023C6.89048 14.1556 6.8378 14.2828 6.74403 14.3766L5.80429 15.3163L9.069 15.317C9.20158 15.3171 9.32873 15.3697 9.42248 15.4635C9.51623 15.5572 9.5689 15.6844 9.56892 15.817L9.56892 16.8168C9.5689 16.9494 9.51623 17.0765 9.42248 17.1703C9.32873 17.264 9.20158 17.3167 9.069 17.3167L5.80429 17.3175L6.74403 18.2572C6.8378 18.351 6.89048 18.4781 6.89048 18.6107C6.89048 18.7434 6.8378 18.8705 6.74403 18.9643L6.03693 19.6714C5.94316 19.7652 5.81598 19.8179 5.68337 19.8179C5.55076 19.8179 5.42359 19.7652 5.32982 19.6714L2.32886 16.6704C2.23509 16.5767 2.18241 16.4495 2.18241 16.3169C2.18241 16.1843 2.23509 16.0571 2.32886 15.9633L5.32982 12.9624Z" fill="#5135FF"/>
<path fill-rule="evenodd" clip-rule="evenodd" d="M13.189 18.1928C12.7939 18.177 12.4212 18.0049 12.1529 17.7145C11.8846 17.424 11.7425 17.0389 11.758 16.6438C11.7441 16.2687 11.8714 15.9021 12.1146 15.6162C12.3579 15.3304 12.6995 15.1461 13.072 15.0998L13.454 15.0668L13.574 14.7038C13.7883 14.1935 14.1473 13.7571 14.6066 13.4483C15.0659 13.1395 15.6055 12.9718 16.159 12.9658C16.8297 12.9778 17.4738 13.2308 17.9733 13.6787C18.4727 14.1266 18.7943 14.7393 18.879 15.4048L18.9 15.7528L19.217 15.8978C19.4222 15.9983 19.5944 16.1553 19.7135 16.3504C19.8325 16.5454 19.8934 16.7704 19.889 16.9988C19.9017 17.3021 19.7937 17.5981 19.5887 17.8219C19.3836 18.0457 19.0982 18.1791 18.795 18.1928H13.189Z" fill="#5135FF"/>
<path d="M15.8452 22C19.1589 22 21.8452 19.3137 21.8452 16C21.8452 12.6863 19.1589 10 15.8452 10C12.5315 10 9.84521 12.6863 9.84521 16C9.84521 19.3137 12.5315 22 15.8452 22Z" stroke="#5135FF" stroke-width="2"/>
</svg>
