<svg width="32" height="32" viewBox="0 0 32 32" fill="none" xmlns="http://www.w3.org/2000/svg">
<path d="M24.777 11.5929H18.437C18.1718 11.5929 17.9174 11.4876 17.7299 11.3C17.5424 11.1125 17.437 10.8581 17.437 10.5929V4.25293C17.437 3.98771 17.5424 3.73336 17.7299 3.54582C17.9174 3.35829 18.1718 3.25293 18.437 3.25293C18.7022 3.25293 18.9566 3.35829 19.1441 3.54582C19.3317 3.73336 19.437 3.98771 19.437 4.25293V9.59293H24.777C25.0422 9.59293 25.2966 9.69829 25.4841 9.88582C25.6717 10.0734 25.777 10.3277 25.777 10.5929C25.777 10.8581 25.6717 11.1125 25.4841 11.3C25.2966 11.4876 25.0422 11.5929 24.777 11.5929Z" fill="#5135FF"/>
<path d="M11.8879 19.3828C11.5798 19.3823 11.2745 19.4425 10.9896 19.56C10.7047 19.6774 10.4458 19.8499 10.2275 20.0675C10.0093 20.285 9.83609 20.5435 9.71777 20.828C9.59945 21.1126 9.53834 21.4176 9.53795 21.7258C9.5376 21.8278 9.54428 21.9297 9.55795 22.0308C9.50932 22.3653 9.53326 22.7064 9.62812 23.0309C9.72298 23.3553 9.88655 23.6555 10.1077 23.9112C10.3289 24.1668 10.6025 24.3719 10.9099 24.5124C11.2173 24.653 11.5514 24.7257 11.8894 24.7257C12.2275 24.7257 12.5616 24.653 12.869 24.5124C13.1764 24.3719 13.45 24.1668 13.6712 23.9112C13.8924 23.6555 14.0559 23.3553 14.1508 23.0309C14.2456 22.7064 14.2696 22.3653 14.2209 22.0308C14.3006 21.4133 14.1317 20.7894 13.7514 20.2964C13.3711 19.8033 12.8105 19.4816 12.1929 19.4018C12.0918 19.389 11.9899 19.3826 11.8879 19.3828ZM12.8009 22.0308C12.8009 22.7148 12.5619 23.4458 11.8879 23.4458C11.2139 23.4458 10.9769 22.7148 10.9769 22.0308C10.9769 21.1658 11.3229 20.6488 11.8879 20.6488C12.4529 20.6488 12.8009 21.1648 12.8009 22.0308Z" fill="#5135FF"/>
<path d="M17.0839 19.4707L16.4299 21.9247C16.3589 22.1757 16.2959 22.4147 16.2369 22.6547V22.6357C16.1789 22.4057 16.1209 22.1697 16.0539 21.9257L15.3859 19.4707H13.9109L15.4859 24.6287H16.9449L18.5269 19.4707H17.0839Z" fill="#5135FF"/>
<path d="M20.8061 19.478H19.3661L17.7151 24.639H19.1561L19.4881 23.439H20.6601L20.9891 24.639H22.4671L20.8061 19.478ZM20.3321 22.24H19.8171L19.8761 22.021C19.9431 21.79 20.0101 21.546 20.0761 21.299C20.1401 21.546 20.2061 21.79 20.2761 22.019L20.3321 22.24Z" fill="#5135FF"/>
<path d="M7.657 1.99981H18.646C19.3373 1.99629 20.0034 2.25915 20.506 2.73381L26.206 8.13381C26.4552 8.36974 26.654 8.65369 26.7905 8.96855C26.9269 9.28341 26.9982 9.62265 27 9.96581V27.4298C26.9874 28.1221 26.701 28.7811 26.2036 29.2628C25.7062 29.7444 25.0383 30.0094 24.346 29.9998H7.657C6.96417 30.0102 6.29547 29.7456 5.79742 29.2639C5.29938 28.7821 5.01263 28.1226 5 27.4298V4.56981C5.01263 3.87702 5.29938 3.21749 5.79742 2.73576C6.29547 2.25402 6.96417 1.98937 7.657 1.99981ZM24.342 27.9998C24.5046 28.0106 24.6649 27.9567 24.7881 27.85C24.9113 27.7433 24.9875 27.5923 25 27.4298V9.96581C24.999 9.89352 24.9831 9.82221 24.9533 9.75632C24.9236 9.69043 24.8806 9.63137 24.827 9.58281L19.127 4.18281C18.995 4.06175 18.8221 3.99528 18.643 3.99681H7.657C7.49405 3.98636 7.33358 4.04071 7.21052 4.14804C7.08747 4.25536 7.0118 4.40695 7 4.56981V27.4298C7.01255 27.5921 7.08854 27.743 7.21151 27.8497C7.33448 27.9563 7.49454 28.0103 7.657 27.9998H24.342Z" fill="#5135FF"/>
</svg>
