<svg width="32" height="32" viewBox="0 0 32 32" fill="none" xmlns="http://www.w3.org/2000/svg">
<path d="M29.8 11.9701L21.838 8.7991C21.4463 8.64314 21.0097 8.64314 20.618 8.7991L12.662 11.9681L13.402 13.8261L21.229 10.7081L28.968 13.7901V14.4641C28.9676 16.2927 28.8225 18.1184 28.534 19.9241C28.3985 20.766 28.1517 21.5862 27.8 22.3631L27.478 23.0741C27.2257 23.6312 26.9016 24.153 26.514 24.6261C25.3227 26.0867 23.7492 27.1879 21.969 27.8071L21.229 28.0631L20.489 27.8071C18.8203 27.2215 17.3336 26.2101 16.176 24.8731V23.6831H11.235V21.6831H20.117C20.0154 21.8904 19.9886 22.1265 20.0413 22.3514C20.0939 22.5762 20.2227 22.7758 20.4059 22.9165C20.589 23.0571 20.8152 23.13 21.046 23.1228C21.2768 23.1156 21.4979 23.0288 21.672 22.8771L23.272 21.4231C23.3751 21.3294 23.4575 21.2151 23.5139 21.0877C23.5703 20.9603 23.5994 20.8225 23.5994 20.6831C23.5994 20.5438 23.5703 20.4059 23.5139 20.2785C23.4575 20.1511 23.3751 20.0368 23.272 19.9431L21.672 18.4891C21.4979 18.3374 21.2768 18.2506 21.046 18.2434C20.8152 18.2362 20.589 18.3091 20.4059 18.4498C20.2227 18.5904 20.0939 18.79 20.0413 19.0149C19.9886 19.2397 20.0154 19.4758 20.117 19.6831H8.765V17.6831H14.176V18.6831H16.176V16.6831C16.176 16.4179 16.0706 16.1635 15.8831 15.976C15.6956 15.7885 15.4412 15.6831 15.176 15.6831H2C1.73478 15.6831 1.48043 15.7885 1.29289 15.976C1.10536 16.1635 1 16.4179 1 16.6831V28.6831C1 28.9483 1.10536 29.2027 1.29289 29.3902C1.48043 29.5777 1.73478 29.6831 2 29.6831H15.176C15.3073 29.6831 15.4374 29.6572 15.5587 29.607C15.68 29.5567 15.7902 29.4831 15.8831 29.3902C15.976 29.2974 16.0496 29.1871 16.0999 29.0658C16.1501 28.9445 16.176 28.8144 16.176 28.6831V27.6271C17.2653 28.5267 18.5041 29.228 19.836 29.6991L20.792 30.0291C20.9332 30.0779 21.0816 30.1029 21.231 30.1031C21.3781 30.1035 21.5242 30.0788 21.663 30.0301L22.622 29.6991C24.7512 28.9597 26.6336 27.6443 28.06 25.8991C28.5588 25.2901 28.9756 24.6184 29.3 23.9011L29.623 23.1901C30.0482 22.2512 30.3461 21.2598 30.509 20.2421C30.8147 18.3316 30.9685 16.3999 30.969 14.4651V13.7111C30.9721 13.3369 30.8622 12.9706 30.6536 12.6599C30.445 12.3493 30.1475 12.1088 29.8 11.9701ZM9.235 23.6831H3V21.6831H9.235V23.6831ZM6.765 19.6831H3V17.6831H6.765V19.6831ZM3 25.6831H4.294V27.6831H3V25.6831ZM6.294 25.6831H14.176V27.6831H6.294V25.6831Z" fill="#5135FF"/>
<path d="M7.22899 5.209H9.46799V4.24H7.22899V2.732H9.85099V1.771H5.96899V7.553H7.22899V5.209Z" fill="#5135FF"/>
<path d="M11.741 5.33686H12.584C13.938 5.33686 15.018 4.74286 15.018 3.42186C15.018 2.05486 13.946 1.60986 12.55 1.60986H10.481V7.39086H11.741V5.33686ZM11.741 2.52386H12.456C13.324 2.52386 13.784 2.75086 13.784 3.42386C13.784 4.09686 13.367 4.42386 12.499 4.42386H11.741V2.52386Z" fill="#5135FF"/>
<path d="M16.4429 4.97686C16.4429 4.42986 16.3429 3.62486 16.2809 3.07686H16.3149L16.8149 4.43586L17.7929 6.86586H18.5169L19.4869 4.43586L19.9999 3.08286H20.0339C19.9739 3.62886 19.8809 4.43386 19.8809 4.98286V7.39086H21.0299V1.60986H19.6299L18.5829 4.30986C18.4469 4.66886 18.3359 5.05186 18.1999 5.42686H18.1579C18.0299 5.05186 17.9109 4.66886 17.7739 4.30986L16.7069 1.60986H15.3069V7.39086H16.4389L16.4429 4.97686Z" fill="#5135FF"/>
<path d="M23.6399 6.50007C23.049 6.47534 22.4844 6.24914 22.0399 5.85907L21.3159 6.65907C21.9571 7.20627 22.773 7.5057 23.6159 7.50307C25.0709 7.50307 25.9309 6.70307 25.9309 5.75307C25.9279 5.38648 25.8009 5.03171 25.5704 4.74659C25.34 4.46148 25.0197 4.26284 24.6619 4.18307L23.8359 3.86307C23.2999 3.66307 22.8479 3.51907 22.8479 3.10607C22.8479 2.72307 23.2059 2.49607 23.7589 2.49607C24.2462 2.49622 24.7186 2.66472 25.0959 2.97307L25.7339 2.24607C25.191 1.76088 24.487 1.49497 23.7589 1.50007C22.4819 1.50007 21.5799 2.22607 21.5799 3.17207C21.5997 3.53326 21.7343 3.87872 21.9639 4.15819C22.1936 4.43767 22.5064 4.63661 22.8569 4.72607L23.6999 5.05507C24.2609 5.27307 24.6449 5.40607 24.6449 5.83607C24.6449 6.24207 24.2949 6.50007 23.6399 6.50007Z" fill="#5135FF"/>
</svg>
