<svg width="32" height="32" viewBox="0 0 32 32" fill="none" xmlns="http://www.w3.org/2000/svg">
<path d="M15.0017 29V26.928C13.8446 26.7611 12.7482 26.3055 11.8137 25.603L10.3447 27.071L8.93073 25.656L10.3997 24.187C9.90728 23.5284 9.53486 22.788 9.29968 22H11.4287C11.8174 22.8906 12.4572 23.6486 13.2699 24.1814C14.0826 24.7142 15.0329 24.9987 16.0047 25C16.9765 24.9987 17.9268 24.7142 18.7395 24.1814C19.5522 23.6486 20.192 22.8906 20.5807 22H22.7087C22.4736 22.7884 22.1013 23.5291 21.6087 24.188L23.0777 25.657L21.6627 27.072L20.1947 25.604C19.2603 26.3066 18.1639 26.7622 17.0067 26.929V29H15.0017ZM20.5777 20C20.189 19.1094 19.5492 18.3514 18.7365 17.8186C17.9238 17.2858 16.9735 17.0013 16.0017 17C15.0299 17.0013 14.0796 17.2858 13.2669 17.8186C12.4542 18.3514 11.8144 19.1094 11.4257 20H9.29669C9.53189 19.212 9.9043 18.4716 10.3967 17.813L8.92773 16.344L10.3417 14.929L11.8107 16.397C12.7454 15.694 13.8421 15.238 14.9997 15.071V13H16.9997V15.071C18.1571 15.2378 19.2539 15.6934 20.1887 16.396L21.6567 14.928L23.0717 16.343L21.6027 17.812C22.0951 18.4707 22.4675 19.211 22.7027 19.999L20.5777 20Z" fill="#5135FF"/>
<path d="M16.001 31.002C7.72998 31.002 1.00098 28.302 1.00098 25.002C1.00098 24.971 1.00098 24.941 1.00098 24.91V7.00195H3.00098V25.002C3.00098 27.208 8.83298 29.002 16.001 29.002C23.169 29.002 29.001 27.202 29.001 25.002V7.00195H31.001V25.002C31.001 28.302 24.272 31.002 16.001 31.002Z" fill="#5135FF"/>
<path d="M15.999 13C7.72802 13 0.999023 10.308 0.999023 7C0.999023 3.692 7.72802 1 15.999 1C24.27 1 30.999 3.691 30.999 7C30.999 10.309 24.271 13 15.999 13ZM15.999 3C8.83002 3 2.99902 4.794 2.99902 7C2.99902 9.206 8.83202 11 15.999 11C23.166 11 28.999 9.206 28.999 7C28.999 4.794 23.169 3 15.999 3Z" fill="#5135FF"/>
</svg>
