<svg width="32" height="32" viewBox="0 0 32 32" fill="none" xmlns="http://www.w3.org/2000/svg">
<path d="M4 2C4 1.44772 3.55228 1 3 1C2.44772 1 2 1.44772 2 2V30C2 30.5523 2.44772 31 3 31C3.55228 31 4 30.5523 4 30V2Z" fill="#5135FF"/>
<path d="M29.999 27H14.999V25H28.999C29.2642 25 29.5186 24.8946 29.7061 24.707C29.8937 24.5195 29.999 24.2652 29.999 24V8C29.999 7.73478 29.8937 7.48051 29.7061 7.29297C29.5186 7.10543 29.2642 7 28.999 7H3.99902V5H29.999C30.5295 5 31.0382 5.21086 31.4132 5.58594C31.7883 5.96101 31.999 6.46957 31.999 7V25C31.999 25.5304 31.7883 26.039 31.4132 26.4141C31.0382 26.7891 30.5295 27 29.999 27ZM7.99902 27H3.99902V25H7.99902V27Z" fill="#5135FF"/>
<path d="M25.9989 27V22C25.9989 21.7348 26.1043 21.4805 26.2918 21.293C26.4793 21.1054 26.7337 21 26.9989 21C27.2641 21 27.5185 21.1054 27.706 21.293C27.8936 21.4805 27.9989 21.7348 27.9989 22V27H25.9989ZM21.9989 27V22C21.9989 21.7348 22.1043 21.4805 22.2918 21.293C22.4793 21.1054 22.7337 21 22.9989 21C23.2641 21 23.5185 21.1054 23.706 21.293C23.8936 21.4805 23.9989 21.7348 23.9989 22V27H21.9989ZM17.9989 27V22C17.9989 21.7348 18.1043 21.4805 18.2918 21.293C18.4793 21.1054 18.7337 21 18.9989 21C19.2641 21 19.5185 21.1054 19.706 21.293C19.8936 21.4805 19.9989 21.7348 19.9989 22V27H17.9989ZM12.9989 24C12.9989 23.7348 12.8936 23.4805 12.706 23.293C12.5185 23.1054 12.2641 23 11.9989 23H10.9989C10.7337 23 10.4793 23.1054 10.2918 23.293C10.1043 23.4805 9.99891 23.7348 9.99891 24V27H8.00391V22C8.0039 21.736 8.1083 21.4823 8.29433 21.2949C8.48035 21.1076 8.73291 21.0018 8.99691 21H13.9989C14.2629 21.0018 14.5155 21.1076 14.7015 21.2949C14.8875 21.4823 14.9919 21.736 14.9919 22V26.9922L12.9989 27V24ZM19.9989 16.9941C19.8679 16.9949 19.738 16.9695 19.6167 16.9199C19.4954 16.8703 19.3851 16.7975 19.2922 16.7051C19.1992 16.6127 19.1255 16.5018 19.0751 16.3809C19.0248 16.2599 18.9989 16.131 18.9989 16V12C18.9989 11.736 19.1033 11.4823 19.2893 11.2949C19.4754 11.1076 19.7279 11.0018 19.9919 11H23.9919C24.2571 11 24.5115 11.1054 24.699 11.293C24.8865 11.4805 24.9919 11.7348 24.9919 12V16C24.9898 16.2638 24.8835 16.5154 24.6962 16.7012C24.5089 16.887 24.2557 16.9922 23.9919 16.9922L19.9989 16.9941ZM20.9989 15H22.9989V13H20.9989V15ZM9.99891 17C9.73507 17 9.48192 16.8948 9.29462 16.709C9.10731 16.5232 9.00102 16.2716 8.99891 16.0078V12.0078C8.99891 11.7426 9.10427 11.4883 9.2918 11.3008C9.47934 11.1132 9.73369 11.0078 9.99891 11.0078H13.9989C14.2641 11.0078 14.5185 11.1132 14.706 11.3008C14.8936 11.4883 14.9989 11.7426 14.9989 12.0078V16.0078C14.9968 16.2716 14.8905 16.5232 14.7032 16.709C14.5159 16.8948 14.2627 17 13.9989 17H9.99891ZM10.9989 15.0059H12.9989V13.0059H10.9989V15.0059Z" fill="#5135FF"/>
<path d="M3 1H1C0.447715 1 0 1.44772 0 2C0 2.55228 0.447715 3 1 3H3C3.55228 3 4 2.55228 4 2C4 1.44772 3.55228 1 3 1Z" fill="#5135FF"/>
<path d="M3 29H1C0.447715 29 0 29.4477 0 30C0 30.5523 0.447715 31 1 31H3C3.55228 31 4 30.5523 4 30C4 29.4477 3.55228 29 3 29Z" fill="#5135FF"/>
</svg>
