<svg width="32" height="32" viewBox="0 0 32 32" fill="none" xmlns="http://www.w3.org/2000/svg">
<path d="M14.9659 26.5713L11.709 23.3144C11.5214 23.1268 11.4162 22.8725 11.4162 22.6073C11.4162 22.3421 11.5214 22.0877 11.709 21.9002C11.8965 21.7126 12.1509 21.6074 12.4161 21.6074C12.6813 21.6074 12.9356 21.7126 13.1232 21.9002L15.673 24.45L21.3298 18.7931C21.5174 18.6056 21.7717 18.5003 22.0369 18.5003C22.3021 18.5003 22.5565 18.6056 22.744 18.7931C22.9316 18.9806 23.0368 19.235 23.0368 19.5002C23.0368 19.7654 22.9316 20.0198 22.744 20.2073L16.3801 26.5713C16.1925 26.7588 15.9382 26.8641 15.673 26.8641C15.4078 26.8641 15.1534 26.7588 14.9659 26.5713Z" fill="#5135FF"/>
<path d="M11.8892 12.1442L14.3641 9.66929L11.8892 7.19441C11.7017 7.00688 11.5963 6.75235 11.5963 6.48713C11.5963 6.22192 11.7017 5.96774 11.8892 5.7802C12.0768 5.59266 12.331 5.48724 12.5962 5.48724C12.8614 5.48724 13.1159 5.59266 13.3034 5.7802L15.7783 8.25507L18.2532 5.7802C18.4407 5.59266 18.6949 5.48724 18.9601 5.48724C19.2253 5.48724 19.4799 5.59266 19.6674 5.7802C19.8549 5.96774 19.9602 6.22209 19.9602 6.48731C19.9602 6.75252 19.8549 7.00688 19.6674 7.19441L17.1925 9.66929L19.6674 12.1442C19.8549 12.3317 19.9602 12.5861 19.9602 12.8513C19.9602 13.1165 19.8549 13.3708 19.6674 13.5584C19.4799 13.7459 19.2255 13.8512 18.9603 13.8512C18.6951 13.8512 18.4407 13.7459 18.2532 13.5584L15.7783 11.0835L13.3034 13.5584C13.1159 13.7459 12.8616 13.8512 12.5963 13.8512C12.3311 13.8512 12.0768 13.7459 11.8892 13.5584C11.7017 13.3708 11.5963 13.1163 11.5963 12.8511C11.5963 12.5859 11.7017 12.3317 11.8892 12.1442Z" fill="#5135FF"/>
<path d="M4.00098 30C2.9406 29.9984 1.92412 29.577 1.17432 28.8271C0.424515 28.0773 0.00256356 27.0604 0.000976562 26V6C0.00256356 4.93962 0.424515 3.92265 1.17432 3.17285C1.92412 2.42305 2.9406 2.00159 4.00098 2H28.001C29.0618 2 30.0792 2.42173 30.8293 3.17188C31.5795 3.92202 32.001 4.93913 32.001 6V15V17V26C32.001 27.0609 31.5795 28.078 30.8293 28.8281C30.0792 29.5783 29.0618 30 28.001 30H4.00098ZM2.00098 26C2.00098 26.5304 2.2116 27.039 2.58667 27.4141C2.96174 27.7891 3.47054 28 4.00098 28H28.001C28.5314 28 29.0402 27.7891 29.4153 27.4141C29.7904 27.039 30.001 26.5304 30.001 26V17H2.00098V26ZM30.001 15V6C30.001 5.46957 29.7904 4.96101 29.4153 4.58594C29.0402 4.21086 28.5314 4 28.001 4H4.00098C3.47054 4 2.96174 4.21086 2.58667 4.58594C2.2116 4.96101 2.00098 5.46957 2.00098 6V15H30.001Z" fill="#5135FF"/>
</svg>
