<svg width="32" height="32" viewBox="0 0 32 32" fill="none" xmlns="http://www.w3.org/2000/svg">
<path d="M24.5 10.5H7.5C6.94772 10.5 6.5 10.9477 6.5 11.5V20.5C6.5 21.0523 6.94772 21.5 7.5 21.5H24.5C25.0523 21.5 25.5 21.0523 25.5 20.5V11.5C25.5 10.9477 25.0523 10.5 24.5 10.5Z" stroke="#5135FF" stroke-width="2"/>
<path d="M17 14H10V18H17V14Z" stroke="#5135FF" stroke-width="2"/>
<path d="M10 8.5V10.5" stroke="#5135FF" stroke-width="2" stroke-linecap="round"/>
<path d="M14 8.5V10.5" stroke="#5135FF" stroke-width="2" stroke-linecap="round"/>
<path d="M18 8.5V10.5" stroke="#5135FF" stroke-width="2" stroke-linecap="round"/>
<path d="M22 8.5V10.5" stroke="#5135FF" stroke-width="2" stroke-linecap="round"/>
<path d="M10 21.5V23.5" stroke="#5135FF" stroke-width="2" stroke-linecap="round"/>
<path d="M14 21.5V23.5" stroke="#5135FF" stroke-width="2" stroke-linecap="round"/>
<path d="M18 21.5V23.5" stroke="#5135FF" stroke-width="2" stroke-linecap="round"/>
<path d="M22 21.5V23.5" stroke="#5135FF" stroke-width="2" stroke-linecap="round"/>
<path d="M5.5 7.5L2.5 4.5L5.5 1.5" stroke="#5135FF" stroke-width="2" stroke-miterlimit="10" stroke-linecap="round" stroke-linejoin="round"/>
<path d="M2.5 4.5H18.5" stroke="#5135FF" stroke-width="2" stroke-linecap="round"/>
<path d="M26.5 30.5L29.5 27.5L26.5 24.5" stroke="#5135FF" stroke-width="2" stroke-miterlimit="10" stroke-linecap="round" stroke-linejoin="round"/>
<path d="M29.5 27.5H13.5" stroke="#5135FF" stroke-width="2" stroke-linecap="round"/>
</svg>
