<svg width="32" height="32" viewBox="0 0 32 32" fill="none" xmlns="http://www.w3.org/2000/svg">
<path d="M29 1H3C1.89543 1 1 1.89543 1 3V29C1 30.1046 1.89543 31 3 31H29C30.1046 31 31 30.1046 31 29V3C31 1.89543 30.1046 1 29 1Z" stroke="#5135FF" stroke-width="2"/>
<path fill-rule="evenodd" clip-rule="evenodd" d="M11.9399 27.6236C11.3053 27.5975 10.707 27.3211 10.2759 26.8547C9.84475 26.3884 9.61605 25.7702 9.63987 25.1356C9.61937 24.5335 9.82446 23.9454 10.215 23.4866C10.6055 23.0279 11.1532 22.7315 11.7509 22.6556L12.3639 22.6026L12.5599 22.0166C12.9045 21.1971 13.4813 20.4964 14.2192 20.0007C14.9572 19.5049 15.824 19.2358 16.7129 19.2266C18.8439 19.2986 21.0189 21.0136 21.0819 23.1456L21.1159 23.7056L21.6249 23.9386C21.9544 24.1 22.2311 24.3521 22.4224 24.6653C22.6137 24.9784 22.7117 25.3397 22.7049 25.7066C22.7252 26.1938 22.5516 26.6692 22.2221 27.0287C21.8926 27.3882 21.434 27.6025 20.9469 27.6246L11.9399 27.6236Z" stroke="#5135FF" stroke-width="2"/>
<path d="M18.3484 13.0436L18.3484 12.0437C18.3484 11.9111 18.4011 11.784 18.4948 11.6902C18.5886 11.5965 18.7157 11.5438 18.8483 11.5438L23.9395 11.5438L22.992 10.5963C22.8982 10.5025 22.8455 10.3753 22.8455 10.2427C22.8455 10.1101 22.8982 9.98292 22.992 9.88915L23.6991 9.18205C23.7928 9.08828 23.92 9.0356 24.0526 9.0356C24.1852 9.0356 24.3124 9.08828 24.4062 9.18205L27.4064 12.1823C27.4627 12.2387 27.5047 12.3077 27.529 12.3836C27.5532 12.4594 27.5589 12.54 27.5457 12.6186C27.5326 12.7282 27.4837 12.8304 27.4064 12.9092L24.4062 15.9095C24.3124 16.0032 24.1852 16.0559 24.0526 16.0559C23.92 16.0559 23.7928 16.0032 23.6991 15.9095L22.992 15.2024C22.8982 15.1086 22.8455 14.9814 22.8455 14.8488C22.8455 14.7162 22.8982 14.589 22.992 14.4952L23.9416 13.5456L18.849 13.5442C18.7831 13.5441 18.7179 13.531 18.6571 13.5056C18.5963 13.4803 18.5412 13.4432 18.4948 13.3964C18.4012 13.3028 18.3486 13.1759 18.3484 13.0436Z" fill="#5135FF"/>
<path d="M7.93914 12.6364C8.03291 12.5426 8.16009 12.4899 8.2927 12.4899C8.4253 12.4899 8.55248 12.5426 8.64625 12.6364L9.35336 13.3435C9.44712 13.4373 9.4998 13.5644 9.4998 13.6971C9.4998 13.8297 9.44712 13.9568 9.35336 14.0506L8.40371 15.0003L13.4949 15.0003C13.6275 15.0003 13.7546 15.0529 13.8484 15.1467C13.9421 15.2404 13.9948 15.3676 13.9948 15.5002L14.0005 16.5C14.0004 16.6326 13.9478 16.7598 13.854 16.8535C13.7603 16.9473 13.6331 16.9999 13.5005 17L8.40937 17L9.36114 17.9517C9.4549 18.0455 9.50758 18.1727 9.50758 18.3053C9.50758 18.4379 9.4549 18.5651 9.36114 18.6588L8.65403 19.3659C8.56026 19.4597 8.43308 19.5124 8.30047 19.5124C8.16787 19.5124 8.04069 19.4597 7.94692 19.3659L4.94455 16.3636C4.85046 16.2656 4.79769 16.1351 4.79716 15.9993C4.79664 15.8634 4.8484 15.7325 4.94172 15.6338L7.93914 12.6364Z" fill="#5135FF"/>
<path d="M12.9831 4.11393C13.0769 4.02017 13.204 3.96749 13.3366 3.96749C13.4693 3.96749 13.5964 4.02017 13.6902 4.11393L14.3973 4.82104C14.4911 4.91481 14.5437 5.04199 14.5437 5.17459C14.5437 5.3072 14.4911 5.43438 14.3973 5.52815L13.4477 6.47779L18.5388 6.47779C18.6714 6.47781 18.7986 6.53049 18.8923 6.62424C18.9861 6.71799 19.0387 6.84513 19.0388 6.97772L19.0444 7.97756C19.0444 8.11015 18.9917 8.23729 18.898 8.33104C18.8042 8.42479 18.6771 8.47747 18.5445 8.47749L13.4533 8.47749L14.4051 9.42925C14.4988 9.52302 14.5515 9.6502 14.5515 9.78281C14.5515 9.91542 14.4988 10.0426 14.4051 10.1364L13.698 10.8435C13.6042 10.9372 13.477 10.9899 13.3444 10.9899C13.2118 10.9899 13.0846 10.9372 12.9909 10.8435L9.98849 7.84109C9.89441 7.74309 9.84163 7.61265 9.84111 7.47679C9.84058 7.34094 9.89234 7.21009 9.98566 7.11136L12.9831 4.11393Z" fill="#5135FF"/>
</svg>
