<svg width="32" height="32" viewBox="0 0 32 32" fill="none" xmlns="http://www.w3.org/2000/svg">
<path fill-rule="evenodd" clip-rule="evenodd" d="M13 6C12.7348 6 12.4804 6.10536 12.2929 6.29289C12.1054 6.48043 12 6.73478 12 7V13C12 13.2652 12.1054 13.5196 12.2929 13.7071C12.4804 13.8946 12.7348 14 13 14H23C23.2652 14 23.5196 13.8946 23.7071 13.7071C23.8946 13.5196 24 13.2652 24 13V7C24 6.73478 23.8946 6.48043 23.7071 6.29289C23.5196 6.10536 23.2652 6 23 6H13ZM14 8V12H22V8H14Z" fill="#5135FF"/>
<path d="M12.5 24C12.3674 24 12.2402 24.0527 12.1464 24.1464C12.0527 24.2402 12 24.3674 12 24.5V25.5C12 25.6326 12.0527 25.7598 12.1464 25.8536C12.2402 25.9473 12.3674 26 12.5 26H23.5C23.6326 26 23.7598 25.9473 23.8536 25.8536C23.9473 25.7598 24 25.6326 24 25.5V24.5C24 24.3674 23.9473 24.2402 23.8536 24.1464C23.7598 24.0527 23.6326 24 23.5 24H12.5Z" fill="#5135FF"/>
<path fill-rule="evenodd" clip-rule="evenodd" d="M4 4C4 3.46957 4.21071 2.96086 4.58579 2.58579C4.96086 2.21071 5.46957 2 6 2H26C26.5304 2 27.0391 2.21071 27.4142 2.58579C27.7893 2.96086 28 3.46957 28 4V28C28 28.5304 27.7893 29.0391 27.4142 29.4142C27.0391 29.7893 26.5304 30 26 30H6C5.46957 30 4.96086 29.7893 4.58579 29.4142C4.21071 29.0391 4 28.5304 4 28V4ZM10 4H26V28H10V4ZM8 4H6V28H8V4Z" fill="#5135FF"/>
</svg>
