<svg width="32" height="32" viewBox="0 0 32 32" fill="none" xmlns="http://www.w3.org/2000/svg">
<path d="M19 17H18C17.7348 17 17.4804 16.8946 17.2929 16.7071C17.1054 16.5196 17 16.2652 17 16C17 15.7348 17.1054 15.4804 17.2929 15.2929C17.4804 15.1054 17.7348 15 18 15H19C19.2652 15 19.5196 15.1054 19.7071 15.2929C19.8946 15.4804 20 15.7348 20 16C20 16.2652 19.8946 16.5196 19.7071 16.7071C19.5196 16.8946 19.2652 17 19 17Z" fill="#5135FF"/>
<path d="M22.218 9.00053C22.0058 9.00053 21.8023 8.91624 21.6523 8.76621C21.5023 8.61618 21.418 8.4127 21.418 8.20053V2.59053C21.418 2.37835 21.5023 2.17487 21.6523 2.02484C21.8023 1.87481 22.0058 1.79053 22.218 1.79053C22.323 1.79053 22.4271 1.81122 22.5241 1.85142C22.6212 1.89163 22.7094 1.95056 22.7837 2.02484C22.8579 2.09913 22.9169 2.18732 22.9571 2.28438C22.9973 2.38144 23.018 2.48547 23.018 2.59053V8.19953C23.0181 8.30467 22.9975 8.40881 22.9574 8.50598C22.9172 8.60316 22.8583 8.69147 22.784 8.76586C22.7097 8.84025 22.6215 8.89927 22.5243 8.93954C22.4272 8.9798 22.3231 9.00053 22.218 9.00053Z" fill="#5135FF"/>
<path d="M13.0071 9.0007C12.8439 9.00082 12.6847 8.95108 12.5506 8.85814C12.4166 8.76519 12.3142 8.6335 12.2571 8.4807L10.9041 4.8737L9.55206 8.4807C9.5151 8.57919 9.45909 8.66944 9.38725 8.74628C9.3154 8.82313 9.22913 8.88507 9.13334 8.92858C9.03756 8.97208 8.93415 8.99629 8.82901 8.99983C8.72386 9.00337 8.61906 8.98616 8.52056 8.9492C8.42207 8.91223 8.33183 8.85623 8.25498 8.78438C8.17813 8.71254 8.11619 8.62626 8.07268 8.53048C8.02918 8.43469 8.00497 8.33128 8.00143 8.22614C7.99789 8.121 8.0151 8.01619 8.05206 7.9177L10.1521 2.3097C10.2089 2.15659 10.3112 2.02455 10.4453 1.93131C10.5794 1.83806 10.7388 1.78809 10.9021 1.78809C11.0654 1.78809 11.2248 1.83806 11.3588 1.93131C11.4929 2.02455 11.5952 2.15659 11.6521 2.3097L13.7521 7.9177C13.7979 8.03892 13.8136 8.16946 13.7978 8.2981C13.7821 8.42674 13.7353 8.54962 13.6615 8.65616C13.5877 8.76271 13.4891 8.84973 13.3743 8.90975C13.2594 8.96977 13.1317 9.00098 13.0021 9.0007H13.0071Z" fill="#5135FF"/>
<path d="M12.3012 7.59658H9.50117C9.289 7.59658 9.08552 7.5123 8.93549 7.36227C8.78546 7.21224 8.70117 7.00876 8.70117 6.79658C8.70117 6.58441 8.78546 6.38093 8.93549 6.2309C9.08552 6.08087 9.289 5.99658 9.50117 5.99658H12.3012C12.5133 5.99658 12.7168 6.08087 12.8669 6.2309C13.0169 6.38093 13.1012 6.58441 13.1012 6.79658C13.1012 7.00876 13.0169 7.21224 12.8669 7.36227C12.7168 7.5123 12.5133 7.59658 12.3012 7.59658Z" fill="#5135FF"/>
<path d="M15.9111 9.00053C15.806 9.00053 15.702 8.97983 15.6049 8.93963C15.5079 8.89943 15.4197 8.8405 15.3454 8.76621C15.2711 8.69193 15.2122 8.60373 15.172 8.50667C15.1318 8.40961 15.1111 8.30558 15.1111 8.20053V2.59053C15.1111 2.48547 15.1318 2.38144 15.172 2.28438C15.2122 2.18732 15.2711 2.09913 15.3454 2.02484C15.4197 1.95055 15.5079 1.89163 15.6049 1.85142C15.702 1.81122 15.806 1.79053 15.9111 1.79053H17.3111C17.9883 1.79053 18.6378 2.05956 19.1167 2.53843C19.5956 3.0173 19.8646 3.6668 19.8646 4.34403C19.8646 5.02126 19.5956 5.67075 19.1167 6.14962C18.6378 6.6285 17.9883 6.89753 17.3111 6.89753H16.7111V8.19753C16.7115 8.30284 16.6911 8.40719 16.6511 8.50459C16.611 8.602 16.5522 8.69055 16.4778 8.76515C16.4035 8.83976 16.3152 8.89895 16.2179 8.93934C16.1207 8.97974 16.0164 9.00053 15.9111 9.00053ZM16.7111 5.29553H17.3111C17.5555 5.28431 17.7862 5.17932 17.9552 5.00239C18.1242 4.82546 18.2185 4.5902 18.2185 4.34553C18.2185 4.10086 18.1242 3.8656 17.9552 3.68867C17.7862 3.51173 17.5555 3.40674 17.3111 3.39553H16.7111V5.29553Z" fill="#5135FF"/>
<path d="M22.917 3.39053H21.517C21.3049 3.39053 21.1014 3.30624 20.9514 3.15621C20.8013 3.00618 20.717 2.8027 20.717 2.59053C20.717 2.37835 20.8013 2.17487 20.9514 2.02484C21.1014 1.87481 21.3049 1.79053 21.517 1.79053H22.917C23.1292 1.79053 23.3327 1.87481 23.4827 2.02484C23.6328 2.17487 23.717 2.37835 23.717 2.59053C23.717 2.8027 23.6328 3.00618 23.4827 3.15621C23.3327 3.30624 23.1292 3.39053 22.917 3.39053Z" fill="#5135FF"/>
<path d="M22.9161 8.99746H21.5161C21.3039 8.99746 21.1004 8.91318 20.9504 8.76315C20.8003 8.61312 20.7161 8.40963 20.7161 8.19746C20.7161 7.98529 20.8003 7.7818 20.9504 7.63178C21.1004 7.48175 21.3039 7.39746 21.5161 7.39746H22.9161C23.1282 7.39746 23.3317 7.48175 23.4818 7.63178C23.6318 7.7818 23.7161 7.98529 23.7161 8.19746C23.7161 8.40963 23.6318 8.61312 23.4818 8.76315C23.3317 8.91318 23.1282 8.99746 22.9161 8.99746Z" fill="#5135FF"/>
<path d="M1 32H14C14.2652 32 14.5196 31.8946 14.7071 31.7071C14.8946 31.5196 15 31.2652 15 31V21C15 20.7348 14.8946 20.4804 14.7071 20.2929C14.5196 20.1054 14.2652 20 14 20H1C0.734784 20 0.48043 20.1054 0.292893 20.2929C0.105357 20.4804 0 20.7348 0 21V31C0 31.2652 0.105357 31.5196 0.292893 31.7071C0.48043 31.8946 0.734784 32 1 32ZM13 30H2V22H13V30Z" fill="#5135FF"/>
<path d="M18 32H31C31.2652 32 31.5196 31.8946 31.7071 31.7071C31.8946 31.5196 32 31.2652 32 31V21C32 20.7348 31.8946 20.4804 31.7071 20.2929C31.5196 20.1054 31.2652 20 31 20H18C17.7348 20 17.4804 20.1054 17.2929 20.2929C17.1054 20.4804 17 20.7348 17 21V31C17 31.2652 17.1054 31.5196 17.2929 31.7071C17.4804 31.8946 17.7348 32 18 32ZM30 30H19V22H30V30Z" fill="#5135FF"/>
<path d="M5.75003 23.5C5.48484 23.5001 5.23052 23.6055 5.04303 23.793L3.54303 25.293C3.35556 25.4805 3.25024 25.7348 3.25024 26C3.25024 26.2652 3.35556 26.5195 3.54303 26.707L5.04303 28.207C5.13528 28.3025 5.24562 28.3787 5.36763 28.4311C5.48963 28.4835 5.62085 28.5111 5.75363 28.5123C5.88641 28.5134 6.01809 28.4881 6.14098 28.4378C6.26388 28.3875 6.37553 28.3133 6.46943 28.2194C6.56332 28.1255 6.63757 28.0139 6.68785 27.891C6.73813 27.7681 6.76343 27.6364 6.76228 27.5036C6.76113 27.3708 6.73354 27.2396 6.68113 27.1176C6.62872 26.9956 6.55254 26.8852 6.45703 26.793L5.66403 26L6.45703 25.207C6.59684 25.0671 6.69205 24.889 6.73061 24.695C6.76918 24.5011 6.74938 24.3 6.67371 24.1173C6.59804 23.9346 6.4699 23.7785 6.30549 23.6686C6.14108 23.5587 5.94778 23.5 5.75003 23.5Z" fill="#5135FF"/>
<path d="M9.25008 23.5C9.05233 23.5 8.85903 23.5587 8.69462 23.6686C8.53021 23.7785 8.40207 23.9346 8.3264 24.1173C8.25073 24.3 8.23093 24.5011 8.2695 24.695C8.30807 24.889 8.40327 25.0671 8.54308 25.207L9.33608 26L8.54308 26.793C8.44757 26.8852 8.37139 26.9956 8.31898 27.1176C8.26657 27.2396 8.23898 27.3708 8.23783 27.5036C8.23668 27.6364 8.26198 27.7681 8.31226 27.891C8.36254 28.0139 8.43679 28.1255 8.53069 28.2194C8.62458 28.3133 8.73623 28.3875 8.85913 28.4378C8.98202 28.4881 9.1137 28.5134 9.24648 28.5123C9.37926 28.5111 9.51048 28.4835 9.63249 28.4311C9.75449 28.3787 9.86483 28.3025 9.95708 28.207L11.4571 26.707C11.6446 26.5195 11.7499 26.2652 11.7499 26C11.7499 25.7348 11.6446 25.4805 11.4571 25.293L9.95708 23.793C9.76959 23.6055 9.51528 23.5001 9.25008 23.5Z" fill="#5135FF"/>
<path d="M22.75 23.5C22.4848 23.5001 22.2305 23.6055 22.043 23.793L20.543 25.293C20.3556 25.4805 20.2502 25.7348 20.2502 26C20.2502 26.2652 20.3556 26.5195 20.543 26.707L22.043 28.207C22.2316 28.3892 22.4842 28.49 22.7464 28.4877C23.0086 28.4854 23.2594 28.3802 23.4448 28.1948C23.6303 28.0094 23.7354 27.7586 23.7377 27.4964C23.74 27.2342 23.6392 26.9816 23.457 26.793L22.664 26L23.457 25.207C23.5968 25.0671 23.692 24.889 23.7306 24.695C23.7692 24.5011 23.7494 24.3 23.6737 24.1173C23.598 23.9346 23.4699 23.7785 23.3055 23.6686C23.1411 23.5587 22.9478 23.5 22.75 23.5Z" fill="#5135FF"/>
<path d="M26.25 23.5C26.0523 23.5 25.859 23.5587 25.6946 23.6686C25.5302 23.7785 25.402 23.9346 25.3264 24.1173C25.2507 24.3 25.2309 24.5011 25.2694 24.695C25.308 24.889 25.4032 25.0671 25.543 25.207L26.336 26L25.543 26.793C25.3609 26.9816 25.2601 27.2342 25.2624 27.4964C25.2646 27.7586 25.3698 28.0094 25.5552 28.1948C25.7406 28.3802 25.9914 28.4854 26.2536 28.4877C26.5158 28.49 26.7684 28.3892 26.957 28.207L28.457 26.707C28.6445 26.5195 28.7498 26.2652 28.7498 26C28.7498 25.7348 28.6445 25.4805 28.457 25.293L26.957 23.793C26.7695 23.6055 26.5152 23.5001 26.25 23.5Z" fill="#5135FF"/>
<path d="M7 21C6.73478 21 6.48043 20.8946 6.29289 20.7071C6.10536 20.5196 6 20.2652 6 20V15.917C6 15.6518 6.10536 15.3974 6.29289 15.2099C6.48043 15.0224 6.73478 14.917 7 14.917H13V12C13 11.7348 13.1054 11.4804 13.2929 11.2929C13.4804 11.1054 13.7348 11 14 11C14.2652 11 14.5196 11.1054 14.7071 11.2929C14.8946 11.4804 15 11.7348 15 12V15.917C15 16.0483 14.9741 16.1784 14.9239 16.2997C14.8736 16.421 14.8 16.5312 14.7071 16.6241C14.6142 16.717 14.504 16.7906 14.3827 16.8409C14.2614 16.8911 14.1313 16.917 14 16.917H8V20C8 20.2652 7.89464 20.5196 7.70711 20.7071C7.51957 20.8946 7.26522 21 7 21Z" fill="#5135FF"/>
<path d="M25 17C24.7348 17 24.4804 17.1054 24.2929 17.2929C24.1054 17.4804 24 17.7348 24 18V19C24 19.2652 24.1054 19.5196 24.2929 19.7071C24.4804 19.8946 24.7348 20 25 20C25.2652 20 25.5196 19.8946 25.7071 19.7071C25.8946 19.5196 26 19.2652 26 19V18C26 17.7348 25.8946 17.4804 25.7071 17.2929C25.5196 17.1054 25.2652 17 25 17Z" fill="#5135FF"/>
<path d="M23 15H22C21.7348 15 21.4804 15.1054 21.2929 15.2929C21.1054 15.4804 21 15.7348 21 16C21 16.2652 21.1054 16.5196 21.2929 16.7071C21.4804 16.8946 21.7348 17 22 17H23C23.2652 17 23.5196 16.8946 23.7071 16.7071C23.8946 16.5196 24 16.2652 24 16C24 15.7348 23.8946 15.4804 23.7071 15.2929C23.5196 15.1054 23.2652 15 23 15Z" fill="#5135FF"/>
<path d="M19 15H18C17.7348 15 17.4804 15.1054 17.2929 15.2929C17.1054 15.4804 17 15.7348 17 16C17 16.2652 17.1054 16.5196 17.2929 16.7071C17.4804 16.8946 17.7348 17 18 17H19C19.2652 17 19.5196 16.8946 19.7071 16.7071C19.8946 16.5196 20 16.2652 20 16C20 15.7348 19.8946 15.4804 19.7071 15.2929C19.5196 15.1054 19.2652 15 19 15Z" fill="#5135FF"/>
<path d="M18 14C17.7348 14 17.4804 13.8946 17.2929 13.7071C17.1054 13.5196 17 13.2652 17 13V12C17 11.7348 17.1054 11.4804 17.2929 11.2929C17.4804 11.1054 17.7348 11 18 11C18.2652 11 18.5196 11.1054 18.7071 11.2929C18.8946 11.4804 19 11.7348 19 12V13C19 13.2652 18.8946 13.5196 18.7071 13.7071C18.5196 13.8946 18.2652 14 18 14Z" fill="#5135FF"/>
</svg>
