<svg width="32" height="32" viewBox="0 0 32 32" fill="none" xmlns="http://www.w3.org/2000/svg">
<path d="M29 1H3C1.89543 1 1 1.89543 1 3V29C1 30.1046 1.89543 31 3 31H29C30.1046 31 31 30.1046 31 29V3C31 1.89543 30.1046 1 29 1Z" stroke="#5135FF" stroke-width="2"/>
<path fill-rule="evenodd" clip-rule="evenodd" d="M11.649 14.2607C10.9411 14.2315 10.2736 13.9228 9.79289 13.4022C9.31224 12.8817 9.05766 12.1917 9.085 11.4837C9.06264 10.8118 9.29172 10.1557 9.72745 9.64383C10.1632 9.13191 10.7742 8.80095 11.441 8.71567L12.125 8.65667L12.341 8.00567C12.7253 7.09062 13.3689 6.30796 14.1924 5.75412C15.016 5.20027 15.9836 4.89944 16.976 4.88867C19.355 4.96867 21.782 6.88367 21.853 9.26267L21.891 9.88767L22.459 10.1477C22.8269 10.3278 23.1357 10.6091 23.3494 10.9585C23.563 11.308 23.6725 11.7112 23.665 12.1207C23.6878 12.6647 23.4939 13.1955 23.126 13.5969C22.758 13.9982 22.2459 14.2373 21.702 14.2617L11.649 14.2607Z" stroke="#5135FF" stroke-width="2"/>
<path d="M32 18H0V20H32V18Z" fill="#5135FF"/>
<path d="M32 24H0V26H32V24Z" fill="#5135FF"/>
<path d="M12 24H10V31H12V24Z" fill="#5135FF"/>
<path d="M23 24H21V31H23V24Z" fill="#5135FF"/>
<path d="M6 18H4V25H6V18Z" fill="#5135FF"/>
<path d="M17 18H15V25H17V18Z" fill="#5135FF"/>
<path d="M28 18H26V25H28V18Z" fill="#5135FF"/>
</svg>
