<svg width="32" height="32" viewBox="0 0 32 32" fill="none" xmlns="http://www.w3.org/2000/svg">
<path d="M28.1722 30.9997L21.6722 24.4997C19.1671 26.3282 16.0911 27.2014 12.999 26.9619C9.90681 26.7225 7.00196 25.3861 4.80822 23.1937C3.60088 21.9865 2.64315 20.5534 1.98973 18.976C1.33631 17.3987 1 15.7081 1 14.0007C1 12.2934 1.33631 10.6028 1.98973 9.02544C2.64315 7.44809 3.60088 6.01491 4.80822 4.80772C6.01539 3.60053 7.44851 2.64293 9.02577 1.9896C10.603 1.33627 12.2935 1 14.0007 1C15.7079 1 17.3984 1.33627 18.9757 1.9896C20.5529 2.64293 21.9861 3.60053 23.1932 4.80772C25.3855 7.00129 26.7218 9.90597 26.9613 12.998C27.2008 16.09 26.3276 19.1658 24.4992 21.6707L30.9992 28.1707C31.3637 28.5478 31.5654 29.0529 31.5611 29.5773C31.5567 30.1017 31.3465 30.6034 30.9759 30.9744C30.6052 31.3453 30.1036 31.5558 29.5792 31.5606C29.0548 31.5653 28.5496 31.3639 28.1722 30.9997ZM2.99922 13.9997C2.99922 16.1753 3.64436 18.3021 4.85306 20.111C6.06175 21.9199 7.77972 23.3298 9.78971 24.1624C11.7997 24.995 14.0114 25.2128 16.1452 24.7884C18.279 24.3639 20.239 23.3163 21.7774 21.7779C23.3158 20.2395 24.3634 18.2795 24.7879 16.1457C25.2123 14.0119 24.9945 11.8002 24.1619 9.79021C23.3293 7.78022 21.9194 6.06225 20.1105 4.85356C18.3016 3.64486 16.1748 2.99972 13.9992 2.99972C11.0829 3.00316 8.287 4.16319 6.22485 6.22535C4.16269 8.2875 3.00266 11.0834 2.99922 13.9997Z" fill="#5135FF"/>
<path d="M17.0484 19.1943C16.9554 19.1015 16.8814 18.9905 16.8311 18.8691C16.7807 18.7477 16.7549 18.6177 16.7549 18.4863C16.7549 18.3549 16.7807 18.2249 16.8311 18.1035C16.8814 17.9821 16.9554 17.8722 17.0484 17.7793L20.5879 14.2422L17.0552 10.707C16.9614 10.6148 16.8868 10.5051 16.8359 10.3838C16.7851 10.2625 16.7593 10.1315 16.7593 10C16.7593 9.86848 16.7851 9.73848 16.8359 9.61719C16.8868 9.49589 16.9614 9.38617 17.0552 9.29395C17.1474 9.20019 17.2571 9.12603 17.3784 9.0752C17.4997 9.02437 17.6302 8.99805 17.7617 8.99805C17.8932 8.99805 18.0232 9.02437 18.1445 9.0752C18.2658 9.12603 18.376 9.20019 18.4683 9.29395L22.707 13.5332C22.8953 13.7219 23.001 13.9776 23.001 14.2441C22.9996 14.5072 22.8939 14.7592 22.707 14.9443L18.4683 19.1895C18.2796 19.3764 18.0249 19.4823 17.7593 19.4824C17.4938 19.4829 17.2387 19.3795 17.0484 19.1943ZM9.53419 19.1943L5.292 14.9482C5.19971 14.8565 5.12629 14.7471 5.07618 14.627C5.02608 14.5068 5.00028 14.3782 5.00001 14.248C4.99938 14.1161 5.02509 13.9853 5.07521 13.8633C5.12532 13.7413 5.19884 13.6305 5.292 13.5371L9.53419 9.29785C9.62642 9.20409 9.73614 9.12993 9.85743 9.0791C9.97873 9.02827 10.1092 9.00195 10.2407 9.00195C10.3723 9.00195 10.5023 9.02827 10.6235 9.0791C10.7448 9.12993 10.8551 9.20409 10.9473 9.29785C11.041 9.39008 11.1152 9.4998 11.166 9.62109C11.2169 9.74239 11.2432 9.87337 11.2432 10.0049C11.2432 10.1364 11.2169 10.2664 11.166 10.3877C11.1152 10.509 11.041 10.6187 10.9473 10.7109L7.41407 14.2461L10.9512 17.7832C11.0442 17.8761 11.1177 17.986 11.168 18.1074C11.2183 18.2288 11.2446 18.3588 11.2446 18.4902C11.2446 18.6216 11.2183 18.7516 11.168 18.873C11.1177 18.9944 11.0442 19.1054 10.9512 19.1982C10.7617 19.3852 10.5064 19.4901 10.2402 19.4902C10.1089 19.4897 9.97857 19.4629 9.85743 19.4121C9.7363 19.3613 9.62666 19.2876 9.53419 19.1943ZM12.7661 19.0732C12.6393 19.0392 12.5202 18.9804 12.416 18.9004C12.3118 18.8204 12.2244 18.7202 12.1587 18.6064C12.093 18.4927 12.0508 18.3675 12.0337 18.2373C12.0166 18.1071 12.0251 17.9745 12.0591 17.8477L14.1299 10.1201C14.1988 9.86409 14.367 9.64606 14.5967 9.51367C14.8264 9.38128 15.0989 9.3453 15.355 9.41406C15.4819 9.44806 15.6009 9.50695 15.7051 9.58691C15.8093 9.66688 15.8968 9.76613 15.9624 9.87988C16.0281 9.99364 16.0708 10.1198 16.0879 10.25C16.105 10.3802 16.0961 10.5118 16.062 10.6387L13.9922 18.3672C13.9353 18.5795 13.81 18.7664 13.6358 18.9004C13.4615 19.0343 13.2481 19.108 13.0283 19.1084C12.9398 19.1083 12.8515 19.0964 12.7661 19.0732Z" fill="#5135FF"/>
</svg>
