<svg width="32" height="32" viewBox="0 0 32 32" fill="none" xmlns="http://www.w3.org/2000/svg">
<path d="M4 4H26V15H28V4C28 3.46957 27.7893 2.96086 27.4142 2.58579C27.0391 2.21071 26.5304 2 26 2H4C3.46957 2 2.96086 2.21071 2.58579 2.58579C2.21071 2.96086 2 3.46957 2 4V26C2 26.5304 2.21071 27.0391 2.58579 27.4142C2.96086 27.7893 3.46957 28 4 28H12V26H4V4Z" fill="#5135FF"/>
<path d="M15.9999 27.0012C15.8246 27.0008 15.6524 26.9544 15.5006 26.8664C15.3489 26.7785 15.2229 26.6523 15.1354 26.5003C15.0479 26.3483 15.0019 26.176 15.002 26.0007C15.002 25.8253 15.0482 25.6531 15.1359 25.5012L18.0359 20.5092C18.1182 20.3676 18.2341 20.2483 18.3733 20.162C18.5125 20.0756 18.6707 20.0248 18.8342 20.0139C18.9976 20.0031 19.1612 20.0325 19.3106 20.0997C19.46 20.1669 19.5906 20.2697 19.6909 20.3992L20.6019 21.5752L22.8579 16.5902C22.9295 16.43 23.0419 16.2915 23.1839 16.1885C23.3259 16.0855 23.4925 16.0217 23.667 16.0035C23.8415 15.9852 24.0177 16.0132 24.1779 16.0846C24.3382 16.156 24.4768 16.2683 24.5799 16.4102L27.1429 20.0102H28.5669C28.7505 20.0101 28.9305 20.0605 29.0873 20.1559C29.2442 20.2514 29.3717 20.3881 29.4559 20.5512L31.6989 24.5612C31.7592 24.6779 31.7959 24.8053 31.8069 24.9361C31.818 25.067 31.8031 25.1988 31.7633 25.3239C31.7234 25.449 31.6592 25.5651 31.5745 25.6654C31.4898 25.7657 31.3861 25.8484 31.2694 25.9087C31.1528 25.969 31.0253 26.0057 30.8945 26.0167C30.7636 26.0277 30.6319 26.0129 30.5067 25.973C30.3816 25.9331 30.2656 25.869 30.1652 25.7843C30.0649 25.6995 29.9822 25.5959 29.9219 25.4792L27.9579 22.0102H26.6329C26.4751 22.0102 26.3196 21.9729 26.179 21.9013C26.0384 21.8297 25.9167 21.7258 25.8239 21.5982L23.9999 19.0002L21.7929 24.0002C21.7085 24.1494 21.5867 24.274 21.4393 24.3617C21.292 24.4494 21.1243 24.4971 20.9529 24.5002C20.766 24.4984 20.5821 24.4521 20.4165 24.3651C20.251 24.2782 20.1085 24.1531 20.0009 24.0002L19.0199 22.7942L16.8659 26.5022C16.778 26.654 16.6517 26.78 16.4997 26.8676C16.3477 26.9552 16.1754 27.0013 15.9999 27.0012Z" fill="#5135FF"/>
<path d="M19 8H7V10H19V8Z" fill="#5135FF"/>
<path d="M15 12H7V14H15V12Z" fill="#5135FF"/>
<path d="M31 31H15C14.7348 31 14.4804 30.8946 14.2929 30.7071C14.1054 30.5196 14 30.2652 14 30C14 29.7348 14.1054 29.4804 14.2929 29.2929C14.4804 29.1054 14.7348 29 15 29H31C31.2652 29 31.5196 29.1054 31.7071 29.2929C31.8946 29.4804 32 29.7348 32 30C32 30.2652 31.8946 30.5196 31.7071 30.7071C31.5196 30.8946 31.2652 31 31 31Z" fill="#5135FF"/>
</svg>
