<svg width="32" height="32" viewBox="0 0 32 32" fill="none" xmlns="http://www.w3.org/2000/svg">
<path d="M4 4H26V14L28 16V4C28 3.46957 27.7893 2.96086 27.4142 2.58579C27.0391 2.21071 26.5304 2 26 2H4C3.46957 2 2.96086 2.21071 2.58579 2.58579C2.21071 2.96086 2 3.46957 2 4V26C2 26.5304 2.21071 27.0391 2.58579 27.4142C2.96086 27.7893 3.46957 28 4 28H14V26H4V4Z" fill="#5135FF"/>
<path fill-rule="evenodd" clip-rule="evenodd" d="M18 32H28C28.5304 32 29.0391 31.7893 29.4142 31.4142C29.7893 31.0391 30 30.5304 30 30V21.828C29.9999 21.2976 29.7891 20.789 29.414 20.414L25.586 16.586C25.211 16.2109 24.7024 16.0001 24.172 16H18C17.4696 16 16.9609 16.2107 16.5858 16.5858C16.2107 16.9609 16 17.4696 16 18V30C16 30.5304 16.2107 31.0391 16.5858 31.4142C16.9609 31.7893 17.4696 32 18 32ZM28 30H18V18H23V22C23 22.2652 23.1054 22.5196 23.2929 22.7071C23.4804 22.8946 23.7348 23 24 23H28V30ZM27.172 21H25V18.828L27.172 21Z" fill="#5135FF"/>
<path d="M19 8H7V10H19V8Z" fill="#5135FF"/>
<path d="M15 12H7V14H15V12Z" fill="#5135FF"/>
</svg>
