<svg width="32" height="32" viewBox="0 0 32 32" fill="none" xmlns="http://www.w3.org/2000/svg">
<path d="M14.999 19H28.999V26C28.999 26.7956 28.683 27.5587 28.1203 28.1213C27.5577 28.6839 26.7947 29 25.999 29H14.999L14.999 19ZM25.999 27C26.2642 27 26.5186 26.8946 26.7061 26.7071C26.8937 26.5196 26.999 26.2652 26.999 26V21H16.999V27H25.999Z" fill="#5135FF"/>
<path d="M17 21H3V11H17V21ZM5 13V19H15V13H5Z" fill="#5135FF"/>
<path d="M29 21H15V11H29V21ZM17 13V19H27V13H17Z" fill="#5135FF"/>
<path d="M17 29H6C5.20435 29 4.44129 28.6839 3.87868 28.1213C3.31607 27.5587 3 26.7956 3 26V19H17V29ZM5 21V26C5 26.2652 5.10536 26.5196 5.29289 26.7071C5.48043 26.8946 5.73478 27 6 27H15V21H5Z" fill="#5135FF"/>
<path d="M5 13H3V6C3 5.20435 3.31605 4.44152 3.87866 3.87891C4.44127 3.3163 5.20435 3 6 3H26C26.7956 3 27.5587 3.3163 28.1213 3.87891C28.6839 4.44152 29 5.20435 29 6V13H27V6C27 5.73478 26.8947 5.48051 26.7072 5.29297C26.5196 5.10543 26.2652 5 26 5H6C5.73478 5 5.48038 5.10543 5.29285 5.29297C5.10531 5.48051 5 5.73478 5 6V13Z" fill="#5135FF"/>
</svg>
