<svg width="32" height="32" viewBox="0 0 32 32" fill="none" xmlns="http://www.w3.org/2000/svg">
<path d="M26.293 31.7077C26.1999 31.6148 26.126 31.504 26.0756 31.3825C26.0252 31.261 25.9992 31.1312 25.9992 30.9997C25.9992 30.8681 26.0252 30.7383 26.0756 30.6168C26.126 30.4954 26.1999 30.3845 26.293 30.2917L28.583 27.9997H17.999C17.7338 27.9997 17.4795 27.8942 17.2919 27.7067C17.1044 27.5192 16.999 27.2649 16.999 26.9997C16.999 26.7344 17.1044 26.4802 17.2919 26.2926C17.4795 26.1051 17.7338 25.9997 17.999 25.9997H28.49L26.29 23.9997C26.1969 23.9068 26.123 23.796 26.0726 23.6745C26.0222 23.553 25.9962 23.4232 25.9962 23.2917C25.9962 23.1601 26.0222 23.0303 26.0726 22.9088C26.123 22.7873 26.1969 22.6765 26.29 22.5836C26.4788 22.3986 26.7326 22.2946 26.997 22.2946C27.2614 22.2946 27.5152 22.3986 27.704 22.5836L31.704 26.2917C31.7971 26.3845 31.871 26.4954 31.9214 26.6168C31.9719 26.7383 31.9978 26.8681 31.9978 26.9997C31.9978 27.1312 31.9719 27.261 31.9214 27.3825C31.871 27.504 31.7971 27.6148 31.704 27.7077L27.704 31.7077C27.5165 31.8951 27.2622 32.0006 26.997 32.0006C26.7318 32.0006 26.4775 31.8951 26.29 31.7077H26.293ZM15.171 27.9997H3.99902C3.46859 27.9997 2.95988 27.7888 2.58481 27.4137C2.20974 27.0387 1.99902 26.5301 1.99902 25.9997V15.9997C1.99902 15.4692 2.20974 14.9607 2.58481 14.5856C2.95988 14.2105 3.46859 13.9997 3.99902 13.9997H25.999C26.5295 13.9997 27.0382 14.2105 27.4132 14.5856C27.7883 14.9607 27.999 15.4692 27.999 15.9997V20.4606C27.6756 20.3497 27.336 20.2929 26.994 20.2926C26.2029 20.2897 25.4429 20.601 24.881 21.1579L24.87 21.1686C24.6301 21.4099 24.4329 21.6903 24.287 21.9977H3.99902V25.9977H15.177C15.0621 26.3185 15.0039 26.6569 15.005 26.9977C15.0047 27.3384 15.0629 27.6767 15.177 27.9977L15.171 27.9997ZM3.99902 19.9997H25.999V15.9997H3.99902V19.9997ZM10.499 18.9997C10.3664 18.9997 10.2392 18.9469 10.1455 18.8532C10.0517 18.7594 9.99902 18.6323 9.99902 18.4997V17.4997C9.99902 17.3671 10.0517 17.2399 10.1455 17.1461C10.2392 17.0524 10.3664 16.9997 10.499 16.9997H11.499C11.6316 16.9997 11.7588 17.0524 11.8526 17.1461C11.9463 17.2399 11.999 17.3671 11.999 17.4997V18.4997C11.999 18.6323 11.9463 18.7594 11.8526 18.8532C11.7588 18.9469 11.6316 18.9997 11.499 18.9997H10.499ZM6.49902 18.9997C6.36642 18.9997 6.23925 18.9469 6.14548 18.8532C6.05171 18.7594 5.99902 18.6323 5.99902 18.4997V17.4997C5.99794 17.4337 6.01014 17.3684 6.03488 17.3073C6.05963 17.2461 6.09642 17.1899 6.14307 17.1432C6.18971 17.0966 6.24525 17.0605 6.3064 17.0358C6.36755 17.011 6.43306 16.9986 6.49902 16.9997H7.49902C7.63163 16.9997 7.7588 17.0524 7.85257 17.1461C7.94634 17.2399 7.99902 17.3671 7.99902 17.4997V18.4997C7.99902 18.6323 7.94634 18.7594 7.85257 18.8532C7.7588 18.9469 7.63163 18.9997 7.49902 18.9997H6.49902ZM21.172 11.153C20.4751 10.4382 20.0587 9.49617 19.999 8.49966H21.999C22.0288 9.02222 22.2411 9.51812 22.599 9.90005C23.0021 10.2154 23.506 10.3728 24.017 10.3444C24.5232 10.381 25.0262 10.2401 25.439 9.94497C25.5852 9.83639 25.7044 9.69503 25.7874 9.53286C25.8703 9.37069 25.9146 9.19154 25.917 9.00943C25.9211 8.79761 25.8502 8.59115 25.717 8.42642C25.5227 8.2305 25.2818 8.08705 25.017 8.00943C24.787 7.93143 24.264 7.79088 23.448 7.58755C22.649 7.44148 21.8942 7.1137 21.242 6.62954C20.7697 6.22933 20.4608 5.66926 20.374 5.0563C20.2872 4.44335 20.4284 3.82 20.771 3.30435C21.0648 2.86446 21.4849 2.52429 21.976 2.32778C22.5824 2.08807 23.2312 1.97383 23.883 1.99185C24.8655 1.9184 25.8415 2.20232 26.631 2.79165C26.9373 3.07043 27.1818 3.40986 27.3491 3.78872C27.5163 4.16759 27.6024 4.57772 27.602 4.99185L25.644 5.00454C25.6044 4.59255 25.4117 4.21011 25.104 3.93325C24.738 3.6907 24.3019 3.57718 23.864 3.60903C23.3935 3.58239 22.9265 3.70483 22.53 3.95962C22.4319 4.02537 22.3521 4.11448 22.2979 4.21939C22.2437 4.32429 22.2169 4.44119 22.22 4.55923C22.2201 4.67258 22.2465 4.7849 22.2969 4.88638C22.3474 4.98786 22.4207 5.07572 22.511 5.14419C23.0655 5.47 23.676 5.68989 24.311 5.79165C25.0402 5.94185 25.7494 6.17697 26.424 6.49185C26.8623 6.71662 27.2312 7.05585 27.491 7.47427C27.7577 7.94897 27.8914 8.48759 27.8782 9.03189C27.865 9.57619 27.7053 10.1068 27.416 10.568C27.1035 11.0565 26.6446 11.4339 26.105 11.6461C25.4351 11.9013 24.7216 12.0214 24.005 12.0006C22.99 12.0688 21.9845 11.7672 21.175 11.151L21.172 11.153ZM16.999 11.9997L12.999 5.49966V11.9997H10.999V1.99966H12.999L16.999 8.49966V1.99966H18.999V11.9997H16.999ZM1.99902 11.9997V1.99966H4.99902C5.73951 1.98406 6.47941 2.05134 7.20502 2.19986C7.78329 2.36561 8.30604 2.68437 8.71802 3.12271C9.15138 3.58852 9.47827 4.14299 9.67603 4.74771C9.91073 5.4746 10.02 6.2361 9.99902 6.99966C10.0166 7.75971 9.91543 8.51792 9.69904 9.24673C9.48612 9.91427 9.11806 10.5213 8.62503 11.0192C8.2188 11.3916 7.73221 11.6661 7.20303 11.82C6.47914 11.9651 5.74098 12.0265 5.00302 12.0036L1.99902 11.9997ZM3.99902 10.3317C4.78778 10.3713 5.57849 10.3417 6.36203 10.2428C6.66487 10.1761 6.94569 10.0332 7.17801 9.82778C7.43568 9.55751 7.61808 9.22464 7.70703 8.86196C7.89687 8.25938 7.99529 7.63143 7.99902 6.99966C7.9999 6.40143 7.90088 5.80745 7.70602 5.24185C7.59942 4.8755 7.40278 4.54198 7.13403 4.27114C6.87 4.0312 6.5458 3.86678 6.19601 3.79653C5.46648 3.70507 4.73086 3.67202 3.99603 3.69693L3.99902 10.3317Z" fill="#5135FF"/>
</svg>
