<svg width="32" height="32" viewBox="0 0 32 32" fill="none" xmlns="http://www.w3.org/2000/svg">
<path d="M7.44994 23.7539H5.54994C5.38995 23.7382 5.24258 23.6601 5.13966 23.5366C5.03675 23.4131 4.98656 23.2541 4.99994 23.0939V22.4139C4.98654 22.2539 5.0366 22.095 5.1393 21.9715C5.24201 21.848 5.38913 21.7699 5.54894 21.7539H7.44894C7.60892 21.7696 7.7563 21.8477 7.85921 21.9712C7.96213 22.0947 8.01232 22.2537 7.99894 22.4139V23.0939C8.01232 23.2541 7.96213 23.4131 7.85921 23.5366C7.7563 23.6601 7.60992 23.7382 7.44994 23.7539Z" fill="#5135FF"/>
<path d="M7.44994 20.7539H5.54994C5.38995 20.7382 5.24258 20.6601 5.13966 20.5366C5.03675 20.4131 4.98656 20.2541 4.99994 20.0939V19.4139C4.98654 19.2539 5.0366 19.095 5.1393 18.9715C5.24201 18.848 5.38913 18.7699 5.54894 18.7539H7.44894C7.60892 18.7696 7.7563 18.8477 7.85921 18.9712C7.96213 19.0947 8.01232 19.2537 7.99894 19.4139V20.0939C8.01232 20.2541 7.96213 20.4131 7.85921 20.5366C7.7563 20.6601 7.60992 20.7382 7.44994 20.7539Z" fill="#5135FF"/>
<path d="M3.752 14.7539H9.252C9.71571 14.7552 10.16 14.9402 10.4876 15.2684C10.8152 15.5966 10.9995 16.0412 11 16.5049V29.0049C10.9987 29.4689 10.8136 29.9134 10.4852 30.2412C10.1568 30.569 9.71198 30.7534 9.248 30.7539H3.752C3.2875 30.7534 2.84218 30.5686 2.51373 30.2402C2.18528 29.9117 2.00053 29.4664 2 29.0019V16.5059C2.00053 16.0414 2.18528 15.5961 2.51373 15.2676C2.84218 14.9392 3.2875 14.7544 3.752 14.7539ZM9 16.7539H4V28.7539H9V16.7539Z" fill="#5135FF"/>
<path d="M27.4499 21.7539H25.5499C25.3899 21.7382 25.2426 21.6601 25.1397 21.5366C25.0367 21.4131 24.9866 21.2541 24.9999 21.0939V20.4139C24.9865 20.2539 25.0366 20.095 25.1393 19.9715C25.242 19.848 25.3891 19.7699 25.5489 19.7539H27.4489C27.6089 19.7696 27.7563 19.8477 27.8592 19.9712C27.9621 20.0947 28.0123 20.2537 27.9989 20.4139V21.0939C28.0123 21.2541 27.9621 21.4131 27.8592 21.5366C27.7563 21.6601 27.6089 21.7382 27.4489 21.7539" fill="#5135FF"/>
<path d="M27.4499 24.7539H25.5499C25.3899 24.7382 25.2426 24.6601 25.1397 24.5366C25.0367 24.4131 24.9866 24.2541 24.9999 24.0939V23.4139C24.9865 23.2539 25.0366 23.095 25.1393 22.9715C25.242 22.848 25.3891 22.7699 25.5489 22.7539H27.4489C27.6089 22.7696 27.7563 22.8477 27.8592 22.9712C27.9621 23.0947 28.0123 23.2537 27.9989 23.4139V24.0939C28.0123 24.2541 27.9621 24.4131 27.8592 24.5366C27.7563 24.6601 27.6089 24.7382 27.4489 24.7539" fill="#5135FF"/>
<path d="M23.77 16.7539H29.229C29.6985 16.7544 30.1487 16.9412 30.4807 17.2732C30.8127 17.6052 30.9995 18.0554 31 18.5249V28.9839C30.9995 29.4532 30.8128 29.9031 30.481 30.2349C30.1492 30.5667 29.6993 30.7534 29.23 30.7539H23.77C23.3007 30.7534 22.8508 30.5667 22.519 30.2349C22.1872 29.9031 22.0005 29.4532 22 28.9839V18.5239C22.0005 18.0546 22.1872 17.6047 22.519 17.2729C22.8508 16.9411 23.3007 16.7544 23.77 16.7539ZM29 18.7539H24V28.7539H29V18.7539Z" fill="#5135FF"/>
<path d="M17.5749 11.7539H15.6749C15.5151 11.7379 15.368 11.6598 15.2653 11.5363C15.1626 11.4128 15.1125 11.2539 15.1259 11.0939V10.4139C15.1125 10.2539 15.1626 10.095 15.2653 9.9715C15.368 9.84803 15.5151 9.76988 15.6749 9.75391H17.5749C17.7349 9.76963 17.8823 9.84768 17.9852 9.97118C18.0881 10.0947 18.1383 10.2537 18.1249 10.4139V11.0939C18.1383 11.2541 18.0881 11.4131 17.9852 11.5366C17.8823 11.6601 17.7349 11.7382 17.5749 11.7539Z" fill="#5135FF"/>
<path d="M17.5749 14.7539H15.6749C15.5151 14.7379 15.368 14.6598 15.2653 14.5363C15.1626 14.4128 15.1125 14.2539 15.1259 14.0939V13.4139C15.1125 13.2539 15.1626 13.095 15.2653 12.9715C15.368 12.848 15.5151 12.7699 15.6749 12.7539H17.5749C17.7349 12.7696 17.8823 12.8477 17.9852 12.9712C18.0881 13.0947 18.1383 13.2537 18.1249 13.4139V14.0939C18.1383 14.2541 18.0881 14.4131 17.9852 14.5366C17.8823 14.6601 17.7349 14.7382 17.5749 14.7539Z" fill="#5135FF"/>
<path d="M13.925 6.75391H19.325C19.8024 6.75391 20.2602 6.94355 20.5978 7.28111C20.9354 7.61868 21.125 8.07652 21.125 8.55391V17.9539C21.125 18.4313 20.9354 18.8891 20.5978 19.2267C20.2602 19.5643 19.8024 19.7539 19.325 19.7539H13.925C13.4476 19.7539 12.9898 19.5643 12.6522 19.2267C12.3146 18.8891 12.125 18.4313 12.125 17.9539V8.55391C12.125 8.07652 12.3146 7.61868 12.6522 7.28111C12.9898 6.94355 13.4476 6.75391 13.925 6.75391ZM19.125 8.75391H14.125V17.7539H19.125V8.75391Z" fill="#5135FF"/>
<path d="M11 26.7539H22V28.7539H11V26.7539Z" fill="#5135FF"/>
<path d="M17.625 28.7539H15.625V18.7539H17.625V28.7539Z" fill="#5135FF"/>
<path d="M31 16.7538C30.7348 16.7538 30.4804 16.6484 30.2929 16.4609C30.1054 16.2734 30 16.019 30 15.7538C29.9981 14.9735 29.8103 14.2048 29.4523 13.5115C29.0942 12.8181 28.5762 12.2201 27.941 11.7668L27.541 11.4808L27.523 10.9888C27.4445 8.8195 26.6108 6.74575 25.166 5.12571C23.7212 3.50568 21.756 2.4411 19.6098 2.11585C17.4636 1.7906 15.2712 2.22511 13.4113 3.34432C11.5514 4.46353 10.1407 6.19716 9.423 8.24578L9.166 8.97878L8.392 8.91178C8.252 8.89978 8.068 8.88578 7.892 8.88578C6.33073 8.88578 4.83329 9.50544 3.72855 10.6087C2.62382 11.7119 2.00212 13.2085 2 14.7698C2 15.035 1.89464 15.2893 1.70711 15.4769C1.51957 15.6644 1.26522 15.7698 1 15.7698C0.734784 15.7698 0.48043 15.6644 0.292893 15.4769C0.105357 15.2893 0 15.035 0 14.7698C0.00221955 12.6939 0.822038 10.7024 2.28193 9.22665C3.74182 7.75085 5.72427 6.9095 7.8 6.88478C8.79212 4.55409 10.5376 2.6237 12.757 1.40272C14.9764 0.181733 17.5412 -0.259228 20.041 0.150439C22.5407 0.560107 24.8306 1.79671 26.5442 3.66224C28.2577 5.52777 29.2957 7.91433 29.492 10.4398C30.2746 11.0871 30.905 11.8988 31.3384 12.8172C31.7719 13.7356 31.9978 14.7382 32 15.7538C32 16.019 31.8946 16.2734 31.7071 16.4609C31.5196 16.6484 31.2652 16.7538 31 16.7538Z" fill="#5135FF"/>
</svg>
