<svg width="32" height="32" viewBox="0 0 32 32" fill="none" xmlns="http://www.w3.org/2000/svg">
<path d="M24 25.9999C23.7975 25.9999 23.5998 25.9384 23.433 25.8236C23.2663 25.7088 23.1383 25.546 23.066 25.3569C22.9937 25.1678 22.9805 24.9612 23.0282 24.7644C23.0759 24.5676 23.1822 24.3899 23.333 24.2549C24.7007 23.0317 25.7407 21.4857 26.3583 19.7579C26.9758 18.03 27.1513 16.1752 26.8689 14.3621C26.5864 12.5491 25.8548 10.8356 24.7408 9.37751C23.6269 7.91946 22.1659 6.76323 20.4908 6.01412C18.8158 5.26501 16.98 4.94681 15.1506 5.0885C13.3212 5.23019 11.5563 5.82726 10.0166 6.82535C8.47687 7.82344 7.21131 9.19084 6.33512 10.803C5.45894 12.4152 4.99996 14.221 5 16.0559C5 16.3211 4.89464 16.5754 4.70711 16.763C4.51957 16.9505 4.26522 17.0559 4 17.0559C3.73478 17.0559 3.48043 16.9505 3.29289 16.763C3.10536 16.5754 3 16.3211 3 16.0559C3.00015 13.4848 3.76267 10.9716 5.19114 8.83386C6.61961 6.69617 8.64988 5.03004 11.0252 4.04617C13.4006 3.06229 16.0143 2.80485 18.536 3.3064C21.0576 3.80794 23.3739 5.04594 25.192 6.86387C26.4421 8.11404 27.4241 9.60607 28.0779 11.2487C28.7317 12.8914 29.0435 14.6501 28.9944 16.4174C28.9453 18.1847 28.5361 19.9234 27.7921 21.5272C27.048 23.1309 25.9847 24.5661 24.667 25.7449C24.4836 25.9091 24.2461 25.9999 24 25.9999Z" fill="#5135FF"/>
<path d="M28 26H24C23.7348 26 23.4804 25.8946 23.2929 25.7071C23.1054 25.5196 23 25.2652 23 25V21C23 20.7348 23.1054 20.4804 23.2929 20.2929C23.4804 20.1054 23.7348 20 24 20C24.2652 20 24.5196 20.1054 24.7071 20.2929C24.8946 20.4804 25 20.7348 25 21V24H28C28.2652 24 28.5196 24.1054 28.7071 24.2929C28.8946 24.4804 29 24.7348 29 25C29 25.2652 28.8946 25.5196 28.7071 25.7071C28.5196 25.8946 28.2652 26 28 26Z" fill="#5135FF"/>
<path d="M10.9999 15C11.1551 15.0002 11.3082 15.0365 11.4469 15.106L17.4469 18.106C17.6131 18.189 17.7528 18.3167 17.8505 18.4747C17.9481 18.6327 17.9999 18.8148 17.9999 19.0005C17.9999 19.1862 17.9481 19.3683 17.8505 19.5263C17.7528 19.6843 17.6131 19.812 17.4469 19.895L11.4469 22.895C11.3081 22.9644 11.1551 23.0005 10.9999 23.0005C10.8448 23.0005 10.6917 22.9644 10.5529 22.895L4.55293 19.895C4.38679 19.812 4.24705 19.6843 4.14939 19.5263C4.05173 19.3683 4 19.1862 4 19.0005C4 18.8148 4.05173 18.6327 4.14939 18.4747C4.24705 18.3167 4.38679 18.189 4.55293 18.106L10.5529 15.106C10.6917 15.0365 10.8447 15.0002 10.9999 15ZM14.7639 19L10.9999 17.118L7.23593 19L10.9999 20.882L14.7639 19Z" fill="#5135FF"/>
<path d="M11 29C10.8448 28.9998 10.6918 28.9635 10.553 28.894L4.553 25.894C4.38692 25.811 4.24722 25.6834 4.14955 25.5255C4.05188 25.3676 4.0001 25.1857 4 25V19C4 18.7348 4.10536 18.4804 4.29289 18.2929C4.48043 18.1054 4.73478 18 5 18C5.26522 18 5.51957 18.1054 5.70711 18.2929C5.89464 18.4804 6 18.7348 6 19V24.382L11 26.882L16 24.382V19C16 18.7348 16.1054 18.4804 16.2929 18.2929C16.4804 18.1054 16.7348 18 17 18C17.2652 18 17.5196 18.1054 17.7071 18.2929C17.8946 18.4804 18 18.7348 18 19V25C17.9999 25.1857 17.9481 25.3676 17.8504 25.5255C17.7528 25.6834 17.6131 25.811 17.447 25.894L11.447 28.894C11.3082 28.9635 11.1552 28.9998 11 29Z" fill="#5135FF"/>
<path d="M11 29C10.7348 29 10.4804 28.8946 10.2929 28.7071C10.1054 28.5196 10 28.2652 10 28V22C10 21.7348 10.1054 21.4804 10.2929 21.2929C10.4804 21.1054 10.7348 21 11 21C11.2652 21 11.5196 21.1054 11.7071 21.2929C11.8946 21.4804 12 21.7348 12 22V28C12 28.2652 11.8946 28.5196 11.7071 28.7071C11.5196 28.8946 11.2652 29 11 29Z" fill="#5135FF"/>
</svg>
