<svg width="32" height="32" viewBox="0 0 32 32" fill="none" xmlns="http://www.w3.org/2000/svg">
<path d="M27 3H5C4.20435 3 3.44129 3.31607 2.87868 3.87868C2.31607 4.44129 2 5.20435 2 6V20C2 20.7956 2.31607 21.5587 2.87868 22.1213C3.44129 22.6839 4.20435 23 5 23H11V27H4V29H28V27H22V23H27C27.7956 23 28.5587 22.6839 29.1213 22.1213C29.6839 21.5587 30 20.7956 30 20V6C30 5.20435 29.6839 4.44129 29.1213 3.87868C28.5587 3.31607 27.7956 3 27 3ZM20 27H13V23H20V27ZM28 20C28 20.2652 27.8946 20.5196 27.7071 20.7071C27.5196 20.8946 27.2652 21 27 21H5C4.73478 21 4.48043 20.8946 4.29289 20.7071C4.10536 20.5196 4 20.2652 4 20V6C4 5.73478 4.10536 5.48043 4.29289 5.29289C4.48043 5.10536 4.73478 5 5 5H27C27.2652 5 27.5196 5.10536 27.7071 5.29289C27.8946 5.48043 28 5.73478 28 6V20Z" fill="#5135FF"/>
<path d="M13.4219 11.2282C13.4214 10.7566 13.2338 10.3044 12.9003 9.97086C12.5667 9.63735 12.1146 9.44975 11.6429 9.44922H8.1999C7.72824 9.44975 7.27605 9.63735 6.94254 9.97086C6.60903 10.3044 6.42143 10.7566 6.4209 11.2282V14.6692C6.42143 15.141 6.609 15.5933 6.94248 15.9269C7.27596 16.2606 7.72815 16.4484 8.1999 16.4492H11.6419C12.1136 16.4484 12.5658 16.2606 12.8993 15.9269C13.2328 15.5933 13.4204 15.141 13.4209 14.6692V13.9492H17.5659V15.5492H19.5659V13.9492H20.8799V15.5492H22.8799V13.9492H25.5799V11.9492H13.4219V11.2282ZM11.4219 14.4492H8.4219V11.4492H11.4219V14.4492Z" fill="#5135FF"/>
</svg>
