<svg width="32" height="32" viewBox="0 0 32 32" fill="none" xmlns="http://www.w3.org/2000/svg">
<path d="M16.001 31.0001C14.0304 31.0053 12.0783 30.6193 10.2577 29.8653C8.43701 29.1112 6.78393 28.0045 5.39404 26.6075C3.99673 25.2178 2.88898 23.5639 2.13491 21.7432C1.38085 19.9225 0.99545 17.9707 1.00104 16.0001C0.995715 14.0297 1.38124 12.0782 2.13529 10.2579C2.88935 8.43752 3.99697 6.78401 5.39404 5.39459C6.78353 3.99692 8.43649 2.88924 10.2572 2.13482C12.0779 1.38041 14.0302 0.994733 16.001 1.00006C17.9718 0.994602 19.924 1.38058 21.7447 2.13482C23.5655 2.88906 25.2185 3.99613 26.608 5.39361C28.005 6.78323 29.1125 8.43637 29.8664 10.2569C30.6203 12.0774 31.0056 14.0296 31 16.0001C31.0056 17.9707 30.6202 19.9225 29.8662 21.7432C29.1121 23.5639 28.0043 25.2178 26.607 26.6075C25.2173 28.0043 23.5643 29.1113 21.7439 29.8653C19.9234 30.6193 17.9715 31.0051 16.001 31.0001ZM16.001 3.00006C12.5544 3.00376 9.24991 4.37441 6.81274 6.81158C4.37557 9.24875 3.00474 12.5534 3.00103 16.0001C3.00527 19.4466 4.37627 22.7505 6.81333 25.1876C9.25038 27.6246 12.5545 28.9958 16.001 29.0001C19.4475 28.9958 22.7517 27.6246 25.1887 25.1876C27.6258 22.7505 28.9968 19.4466 29.001 16.0001C28.9973 12.5534 27.6265 9.24875 25.1893 6.81158C22.7522 4.37441 19.4477 3.00376 16.001 3.00006Z" fill="#5135FF"/>
<path d="M9.00098 14V10C9.00098 9.73478 9.10633 9.48051 9.29387 9.29297C9.48141 9.10543 9.73576 9 10.001 9H14.001C14.2662 9 14.5205 9.10543 14.7081 9.29297C14.8956 9.48051 15.001 9.73478 15.001 10C15.001 10.2652 14.8956 10.5195 14.7081 10.707C14.5205 10.8946 14.2662 11 14.001 11H12.415L14.658 13.2432C14.8451 13.4307 14.9503 13.6843 14.9503 13.9492C14.9503 14.2141 14.8451 14.4688 14.658 14.6562C14.5651 14.7494 14.4547 14.8226 14.3332 14.873C14.2118 14.9235 14.0815 14.9502 13.95 14.9502C13.8184 14.9502 13.6882 14.9235 13.5667 14.873C13.4452 14.8226 13.3349 14.7494 13.242 14.6562L11.001 12.4141V14C11.001 14.2652 10.8956 14.5195 10.7081 14.707C10.5205 14.8946 10.2662 15 10.001 15C9.73576 15 9.48141 14.8946 9.29387 14.707C9.10633 14.5195 9.00098 14.2652 9.00098 14Z" fill="#5135FF"/>
<path d="M23 18V22C23 22.2652 22.8946 22.5196 22.7071 22.7071C22.5196 22.8946 22.2652 23 22 23H18C17.7348 23 17.4804 22.8946 17.2929 22.7071C17.1054 22.5196 17 22.2652 17 22C17 21.7348 17.1054 21.4804 17.2929 21.2929C17.4804 21.1054 17.7348 21 18 21H19.586L17.343 18.757C17.1652 18.5677 17.0681 18.3166 17.0721 18.0569C17.0761 17.7972 17.181 17.5493 17.3646 17.3656C17.5482 17.1819 17.796 17.0768 18.0557 17.0726C18.3154 17.0684 18.5665 17.1653 18.756 17.343L21 19.587V18C21 17.7348 21.1054 17.4804 21.2929 17.2929C21.4804 17.1054 21.7348 17 22 17C22.2652 17 22.5196 17.1054 22.7071 17.2929C22.8946 17.4804 23 17.7348 23 18Z" fill="#5135FF"/>
<path d="M22 15H18C17.7348 15 17.4804 14.8946 17.2929 14.7071C17.1054 14.5196 17 14.2652 17 14V10C17 9.73478 17.1054 9.48043 17.2929 9.29289C17.4804 9.10536 17.7348 9 18 9C18.2652 9 18.5196 9.10536 18.7071 9.29289C18.8946 9.48043 19 9.73478 19 10V11.586L21.243 9.343C21.4323 9.16521 21.6834 9.06805 21.9431 9.07209C22.2028 9.07612 22.4507 9.18103 22.6344 9.36461C22.8181 9.54819 22.9232 9.79605 22.9274 10.0557C22.9316 10.3154 22.8347 10.5665 22.657 10.756L20.413 13H22C22.2652 13 22.5196 13.1054 22.7071 13.2929C22.8946 13.4804 23 13.7348 23 14C23 14.2652 22.8946 14.5196 22.7071 14.7071C22.5196 14.8946 22.2652 15 22 15Z" fill="#5135FF"/>
<path d="M10 17H14C14.2652 17 14.5196 17.1054 14.7071 17.2929C14.8946 17.4804 15 17.7348 15 18V22C15 22.2652 14.8946 22.5196 14.7071 22.7071C14.5196 22.8946 14.2652 23 14 23C13.7348 23 13.4804 22.8946 13.2929 22.7071C13.1054 22.5196 13 22.2652 13 22V20.414L10.757 22.657C10.5684 22.8392 10.3158 22.94 10.0536 22.9377C9.7914 22.9354 9.54059 22.8302 9.35518 22.6448C9.16977 22.4594 9.0646 22.2086 9.06233 21.9464C9.06005 21.6842 9.16084 21.4316 9.343 21.243L11.586 19H10C9.73478 19 9.48043 18.8946 9.29289 18.7071C9.10536 18.5196 9 18.2652 9 18C9 17.7348 9.10536 17.4804 9.29289 17.2929C9.48043 17.1054 9.73478 17 10 17Z" fill="#5135FF"/>
</svg>
