<svg width="32" height="32" viewBox="0 0 32 32" fill="none" xmlns="http://www.w3.org/2000/svg">
<path fill-rule="evenodd" clip-rule="evenodd" d="M6.92575 27C5.03592 26.9438 3.24558 26.1401 1.94766 24.7653C0.649739 23.3905 -0.0497323 21.5569 0.00275422 19.667C-0.0417866 17.8757 0.585253 16.1325 1.76064 14.7801C2.93602 13.4276 4.57475 12.5636 6.35475 12.358C7.68875 8.045 12.6408 5.078 17.1568 5C22.7818 5.153 28.3188 9.652 28.5188 15.276C29.5827 15.8022 30.4751 16.6201 31.0916 17.6343C31.7082 18.6486 32.0236 19.8173 32.0009 21.004C31.9783 22.1907 31.6186 23.3466 30.9637 24.3365C30.3089 25.3265 29.386 26.1098 28.3028 26.595C27.6454 26.8626 26.9425 27.0001 26.2328 27H6.92575ZM6.92575 25C5.56636 24.9438 4.28471 24.3509 3.36185 23.3512C2.43899 22.3514 1.95023 21.0265 2.00275 19.667C1.95878 18.3765 2.39827 17.1161 3.23512 16.1328C4.07197 15.1494 5.24585 14.514 6.52675 14.351L7.84075 14.238L8.25475 12.988C9.31775 9.494 13.5058 7.079 17.1568 7C21.7248 7.154 26.3868 10.831 26.5228 15.4L26.5958 16.6L27.6868 17.1C28.3932 17.4459 28.9863 17.9861 29.3966 18.6572C29.8068 19.3283 30.0171 20.1026 30.0028 20.889C30.0462 21.9334 29.6739 22.9525 28.9675 23.7231C28.261 24.4936 27.278 24.9527 26.2338 25H6.92575Z" fill="#5135FF"/>
<path d="M9.54053 24C8.84829 24 8.17161 23.7947 7.59603 23.4101C7.02046 23.0256 6.57186 22.4789 6.30695 21.8394C6.04204 21.1999 5.97273 20.4961 6.10778 19.8172C6.24283 19.1383 6.57617 18.5146 7.06566 18.0251C7.55514 17.5356 8.17878 17.2023 8.85771 17.0673C9.53665 16.9322 10.2404 17.0015 10.8799 17.2664C11.5195 17.5313 12.0661 17.9799 12.4507 18.5555C12.8353 19.1311 13.0405 19.8078 13.0405 20.5C13.0405 21.4283 12.6718 22.3185 12.0154 22.9749C11.359 23.6313 10.4688 24 9.54053 24ZM9.54053 19C9.24386 19 8.95385 19.088 8.70717 19.2528C8.4605 19.4176 8.26824 19.6519 8.15471 19.926C8.04118 20.2001 8.01147 20.5017 8.06935 20.7926C8.12723 21.0836 8.27009 21.3509 8.47987 21.5607C8.68965 21.7704 8.95692 21.9133 9.24789 21.9712C9.53886 22.0291 9.84046 21.9994 10.1146 21.8858C10.3886 21.7723 10.6229 21.58 10.7877 21.3334C10.9526 21.0867 11.0405 20.7967 11.0405 20.5C11.0405 20.1022 10.8825 19.7206 10.6012 19.4393C10.3199 19.158 9.93835 19 9.54053 19Z" fill="#5135FF"/>
<path d="M19.541 14.0789L20.048 14.9789L20.621 15.9999H18.461L19.034 14.9809L19.541 14.0809M19.541 11.0259C19.328 11.0469 19.1246 11.1247 18.9521 11.2512C18.7795 11.3776 18.6441 11.5482 18.56 11.7449L18.272 12.2589L16.31 15.7449L16.022 16.2589C15.482 17.2159 15.941 17.9999 17.041 17.9999H22.041C23.141 17.9999 23.6 17.2159 23.06 16.2569L22.772 15.7429L20.81 12.2569L20.522 11.7429C20.4379 11.5462 20.3025 11.3756 20.1299 11.2492C19.9573 11.1227 19.7539 11.0449 19.541 11.0239V11.0259Z" fill="#5135FF"/>
</svg>
