<svg width="33" height="32" viewBox="0 0 33 32" fill="none" xmlns="http://www.w3.org/2000/svg">
<path d="M14 27.0003C13.688 27.0082 13.378 26.9477 13.092 26.8226L2.90601 21.556C2.64334 21.4136 2.42191 21.2057 2.26318 20.9525C2.10445 20.6993 2.0138 20.4102 2 20.1117V8.87926C2.01426 8.57751 2.10207 8.28383 2.2558 8.02379C2.40952 7.76374 2.62452 7.54503 2.88202 7.38707L13.118 2.20152C13.3914 2.06431 13.6941 1.99547 14 2.00133C14.3059 1.99543 14.6086 2.06427 14.882 2.20152L25.118 7.38707C25.3751 7.54571 25.5899 7.76491 25.7441 8.02476C25.8982 8.28461 25.9871 8.57755 26.003 8.87926V15.2992C25.3678 15.1407 24.7156 15.0605 24.061 15.0609H24V10.5521L15 14.6449V24.4935L16.106 23.9212C16.1803 24.616 16.346 25.2983 16.599 25.9496L14.905 26.8236C14.6201 26.9486 14.311 27.0088 14 27.0003ZM4 10.5541V19.8353L13 24.4955V14.6439L4 10.5541ZM13.981 4.03941L4.75702 8.7025L13.999 12.9027L23.244 8.7025L14.02 4.03941H13.98H13.981ZM26 18.3851C25.3755 18.17 24.7195 18.0606 24.059 18.0619H24V17.0619H24.059C24.7197 17.061 25.3759 17.1701 26.001 17.3841V18.3841L26 18.3851Z" fill="#5135FF"/>
<path d="M30.2941 30.7071L27.5361 27.9491C26.5217 28.673 25.3062 29.0611 24.0601 29.0591C22.8734 29.0591 21.7133 28.7072 20.7266 28.0479C19.7399 27.3886 18.9709 26.4515 18.5168 25.3552C18.0627 24.2588 17.9438 23.0524 18.1753 21.8885C18.4069 20.7247 18.9783 19.6556 19.8174 18.8164C20.6565 17.9773 21.7256 17.4059 22.8895 17.1744C24.0534 16.9429 25.2598 17.0617 26.3562 17.5158C27.4525 17.9699 28.3896 18.739 29.0489 19.7257C29.7082 20.7124 30.0601 21.8724 30.0601 23.0591C30.0621 24.3052 29.6739 25.5207 28.9501 26.5351L31.7071 29.2921C31.8026 29.3843 31.8788 29.4947 31.9312 29.6167C31.9836 29.7387 32.0112 29.8699 32.0123 30.0027C32.0135 30.1355 31.9882 30.2671 31.9379 30.39C31.8876 30.5129 31.8133 30.6246 31.7195 30.7185C31.6256 30.8124 31.5139 30.8866 31.391 30.9369C31.2681 30.9872 31.1364 31.0125 31.0037 31.0113C30.8709 31.0102 30.7397 30.9826 30.6177 30.9302C30.4957 30.8778 30.3853 30.8016 30.2931 30.7061L30.2941 30.7071ZM20.0601 23.0591C20.0601 23.8502 20.2947 24.6236 20.7342 25.2814C21.1737 25.9392 21.7984 26.4519 22.5293 26.7546C23.2602 27.0574 24.0645 27.1366 24.8404 26.9822C25.6163 26.8279 26.3291 26.4469 26.8885 25.8875C27.4479 25.3281 27.8289 24.6154 27.9832 23.8394C28.1375 23.0635 28.0583 22.2593 27.7556 21.5284C27.4528 20.7974 26.9401 20.1727 26.2823 19.7332C25.6245 19.2937 24.8512 19.0591 24.0601 19.0591C22.9992 19.0591 21.9818 19.4805 21.2316 20.2307C20.4815 20.9808 20.0601 21.9982 20.0601 23.0591Z" fill="#5135FF"/>
</svg>
