<svg width="32" height="32" viewBox="0 0 32 32" fill="none" xmlns="http://www.w3.org/2000/svg">
<path d="M13 28H4C3.46957 28 2.96089 27.7891 2.58582 27.4141C2.21074 27.039 2 26.5304 2 26V4C2 3.46957 2.21074 2.96101 2.58582 2.58594C2.96089 2.21086 3.46957 2 4 2H26C26.5304 2 27.0391 2.21086 27.4142 2.58594C27.7893 2.96101 28 3.46957 28 4V14.4932C27.3392 14.3516 26.6717 14.2429 26 14.168V4H4V26H13V28ZM7 14V12H15V14H7ZM7 10V8H19V10H7Z" fill="#5135FF"/>
<path fill-rule="evenodd" clip-rule="evenodd" d="M17.734 16.735C19.4409 16.2198 21.2173 15.9718 23 16C24.7827 15.9718 26.5591 16.2198 28.266 16.735C28.9123 16.9317 29.5208 17.2359 30.066 17.635C30.3416 17.8272 30.5693 18.0804 30.7312 18.3749C30.8932 18.6694 30.9852 18.9972 31 19.333V29.055C30.9816 29.386 30.8804 29.7072 30.7057 29.989C30.531 30.2708 30.2884 30.5043 30 30.6679C29.4456 31.0082 28.8418 31.2602 28.21 31.415C26.5051 31.8297 24.7544 32.0263 23 32C21.2446 32.0269 19.4929 31.8306 17.787 31.416C17.1562 31.2606 16.5534 31.0082 16 30.6679C15.7116 30.5043 15.469 30.2708 15.2943 29.989C15.1196 29.7072 15.0184 29.386 15 29.055V19.333C15.0151 18.9981 15.1069 18.6713 15.2683 18.3776C15.4297 18.0839 15.6564 17.8312 15.931 17.639C16.4768 17.2382 17.0864 16.9326 17.734 16.735ZM17.034 19.3349C17.0754 19.2902 17.1206 19.249 17.169 19.212C17.5347 18.955 17.9401 18.7598 18.369 18.634C19.8712 18.1871 21.433 17.9733 23 18C24.5676 17.9724 26.1301 18.1856 27.633 18.632C28.0619 18.7578 28.4673 18.953 28.833 19.2099C28.8814 19.247 28.9266 19.2882 28.968 19.333C28.9266 19.3778 28.8815 19.4189 28.833 19.456C28.4673 19.7129 28.0619 19.9081 27.633 20.034C26.1301 20.4807 24.5676 20.6942 23 20.667C21.4324 20.6945 19.8699 20.4813 18.367 20.035C17.9381 19.9091 17.5327 19.7139 17.167 19.457C17.1195 19.4195 17.0754 19.378 17.035 19.333L17.034 19.3349ZM29 23.885V21.65C28.767 21.75 28.52 21.85 28.266 21.932C26.5591 22.4472 24.7827 22.6951 23 22.667C21.2173 22.6951 19.4409 22.4472 17.734 21.932C17.48 21.847 17.234 21.754 17 21.65V23.885C17.0476 23.9348 17.0994 23.9803 17.155 24.021C17.5329 24.2818 17.947 24.486 18.384 24.627C19.8737 25.1132 21.4331 25.3517 23 25.333C24.5669 25.3517 26.1263 25.1132 27.616 24.627C28.053 24.486 28.4671 24.2818 28.845 24.021C28.9006 23.9803 28.9524 23.9348 29 23.885ZM29 26.225V28.9249C28.9682 28.9522 28.9348 28.9776 28.9 29.0009C28.5231 29.2217 28.1152 29.3849 27.69 29.485C26.1545 29.8531 24.5788 30.0261 23 30C21.4223 30.0262 19.8475 29.8535 18.313 29.486C17.8866 29.3855 17.4778 29.2217 17.1 29C17.0652 28.9766 17.0318 28.9512 17 28.924V26.224C17.227 26.324 17.467 26.424 17.716 26.511C19.4201 27.074 21.2054 27.3517 23 27.333C24.7945 27.352 26.5799 27.0746 28.284 26.5119C28.533 26.4239 28.773 26.328 29 26.225Z" fill="#5135FF"/>
</svg>
