<svg width="32" height="32" viewBox="0 0 32 32" fill="none" xmlns="http://www.w3.org/2000/svg">
<path d="M2.99897 16C2.99489 14.2921 3.32973 12.6004 3.98335 11.0225C4.63696 9.44456 5.59599 8.01189 6.80659 6.80713C8.52852 5.07898 10.7042 3.87264 13.082 3.32715L13.5683 5.27002C11.1416 5.83462 8.97563 7.20057 7.42085 9.14746C5.86606 11.0943 5.01286 13.5085 4.99897 16C5.0159 18.7396 6.04762 21.3758 7.89448 23.3994C9.74133 25.423 12.2723 26.6905 14.999 26.957V28.9629C13.4679 28.8492 11.9696 28.4635 10.5742 27.8232C9.17143 27.1781 7.89455 26.2874 6.80463 25.1938C5.59428 23.9888 4.63466 22.5561 3.98139 20.978C3.32812 19.4 2.99449 17.7079 2.99897 16ZM16.999 5.04297V3.03711C18.5301 3.15023 20.0285 3.53596 21.4238 4.17676C22.8262 4.8214 24.1025 5.71215 25.1914 6.80615C26.4026 8.0106 27.3629 9.4433 28.0165 11.0215C28.6702 12.5997 29.0039 14.2918 28.999 16C29.0035 17.7082 28.6686 19.4 28.0146 20.978C27.3606 22.556 26.4009 23.9887 25.1894 25.1929C23.4687 26.921 21.2939 28.1274 18.9169 28.6729L18.4316 26.73C20.8578 26.1648 23.0237 24.7984 24.5781 22.8516C26.1324 20.9047 26.985 18.4912 26.999 16C26.982 13.2604 25.9503 10.6242 24.1035 8.60059C22.2566 6.57699 19.7256 5.30951 16.999 5.04297Z" fill="#5135FF"/>
<path d="M19.0474 20.9521C18.9544 20.8593 18.8804 20.7484 18.8301 20.627C18.7798 20.5056 18.7539 20.3756 18.7539 20.2441C18.7539 20.1127 18.7798 19.9827 18.8301 19.8613C18.8804 19.7399 18.9544 19.63 19.0474 19.5371L22.5869 16L19.0542 12.4648C18.9605 12.3726 18.8858 12.2629 18.835 12.1416C18.7841 12.0203 18.7583 11.8893 18.7583 11.7578C18.7583 11.6263 18.7841 11.4963 18.835 11.375C18.8858 11.2537 18.9605 11.144 19.0542 11.0518C19.1464 10.958 19.2562 10.8838 19.3775 10.833C19.4987 10.7822 19.6292 10.7559 19.7608 10.7559C19.8923 10.7559 20.0223 10.7822 20.1436 10.833C20.2649 10.8838 20.3751 10.958 20.4673 11.0518L24.7061 15.291C24.8943 15.4798 25 15.7354 25 16.002C24.9986 16.265 24.8929 16.517 24.7061 16.7021L20.4673 20.9473C20.2787 21.1342 20.0239 21.2401 19.7583 21.2402C19.4928 21.2407 19.2377 21.1373 19.0474 20.9521ZM11.5332 20.9521L7.29103 16.7061C7.19873 16.6143 7.12531 16.5049 7.07521 16.3848C7.0251 16.2647 6.99931 16.136 6.99903 16.0059C6.9984 15.8739 7.02412 15.7431 7.07423 15.6211C7.12434 15.4991 7.19786 15.3883 7.29103 15.2949L11.5332 11.0557C11.6254 10.9619 11.7352 10.8877 11.8565 10.8369C11.9778 10.7861 12.1082 10.7598 12.2398 10.7598C12.3713 10.7598 12.5013 10.7861 12.6226 10.8369C12.7439 10.8877 12.8541 10.9619 12.9463 11.0557C13.0401 11.1479 13.1142 11.2576 13.1651 11.3789C13.2159 11.5002 13.2422 11.6312 13.2422 11.7627C13.2422 11.8942 13.2159 12.0242 13.1651 12.1455C13.1142 12.2668 13.0401 12.3765 12.9463 12.4688L9.4131 16.0039L12.9502 19.541C13.0432 19.6339 13.1167 19.7438 13.167 19.8652C13.2173 19.9866 13.2437 20.1166 13.2437 20.248C13.2437 20.3795 13.2173 20.5095 13.167 20.6309C13.1167 20.7523 13.0432 20.8632 12.9502 20.9561C12.7608 21.143 12.5054 21.2479 12.2393 21.248C12.1079 21.2475 11.9776 21.2207 11.8565 21.1699C11.7353 21.1191 11.6257 21.0454 11.5332 20.9521ZM14.7651 20.8311C14.6383 20.7971 14.5192 20.7382 14.4151 20.6582C14.3109 20.5782 14.2234 20.478 14.1577 20.3643C14.0921 20.2505 14.0498 20.1253 14.0327 19.9951C14.0156 19.8649 14.0241 19.7323 14.0581 19.6055L16.1289 11.8779C16.1978 11.6219 16.366 11.4039 16.5957 11.2715C16.8254 11.1391 17.098 11.1031 17.354 11.1719C17.4809 11.2059 17.5999 11.2648 17.7041 11.3447C17.8083 11.4247 17.8958 11.5239 17.9614 11.6377C18.0271 11.7515 18.0698 11.8776 18.0869 12.0078C18.104 12.138 18.0951 12.2696 18.061 12.3965L15.9912 20.125C15.9343 20.3373 15.809 20.5243 15.6348 20.6582C15.4605 20.7921 15.2471 20.8658 15.0274 20.8662C14.9389 20.8661 14.8506 20.8542 14.7651 20.8311Z" fill="#5135FF"/>
<path d="M15.292 3.29199L18.1211 0.464844C18.3086 0.277373 18.563 0.171875 18.8281 0.171875C19.0933 0.171875 19.3476 0.277373 19.5352 0.464844C19.6281 0.557717 19.7016 0.668153 19.752 0.789551C19.8023 0.910949 19.8281 1.04095 19.8281 1.17236C19.8281 1.30378 19.8023 1.43378 19.752 1.55518C19.7016 1.67657 19.6281 1.78701 19.5352 1.87988L17.4141 4L19.5381 6.12402C19.7256 6.31155 19.8311 6.56589 19.8311 6.83105C19.8311 7.09622 19.7256 7.35007 19.5381 7.5376C19.4452 7.63087 19.3345 7.70487 19.2129 7.75537C19.0913 7.80587 18.9617 7.83203 18.8301 7.83203C18.6984 7.83203 18.5679 7.80587 18.4463 7.75537C18.3247 7.70487 18.214 7.63087 18.1211 7.5376L15.2949 4.70898L15.2783 4.69189L15.2598 4.67285L15.2412 4.65186L15.2266 4.63477L15.208 4.61182L15.1953 4.59473L15.1758 4.56885L15.165 4.55371L15.1484 4.52588L15.1377 4.51074L15.1201 4.479L15.1143 4.46777L15.0947 4.43164V4.42383C15.0329 4.29139 15.001 4.14715 15.001 4.00098C15.0005 3.86947 15.0262 3.73885 15.0762 3.61719C15.1261 3.49553 15.1992 3.38523 15.292 3.29199Z" fill="#5135FF"/>
<path d="M12.4626 30.123L14.5856 28L12.4655 25.877C12.3725 25.7841 12.299 25.6736 12.2487 25.5522C12.1984 25.4308 12.1725 25.3008 12.1725 25.1694C12.1725 25.038 12.1984 24.908 12.2487 24.7866C12.299 24.6652 12.3725 24.5548 12.4655 24.4619C12.653 24.2744 12.9073 24.1689 13.1725 24.1689C13.4377 24.1689 13.692 24.2744 13.8795 24.4619L16.7057 27.291C16.8528 27.438 16.9504 27.627 16.985 27.832C17.0196 28.0371 16.9898 28.248 16.8991 28.4351C16.8505 28.5362 16.7849 28.6285 16.7057 28.708L13.8776 31.5366C13.7847 31.6296 13.6748 31.7036 13.5534 31.7539C13.432 31.8042 13.302 31.8301 13.1706 31.8301C13.0391 31.8301 12.9091 31.8042 12.7877 31.7539C12.6663 31.7036 12.5554 31.6296 12.4626 31.5366C12.3694 31.4437 12.2952 31.3334 12.2448 31.2119C12.1943 31.0904 12.1686 30.9607 12.1686 30.8291C12.1692 30.5641 12.2749 30.3101 12.4626 30.123Z" fill="#5135FF"/>
</svg>
