<svg width="32" height="32" viewBox="0 0 32 32" fill="none" xmlns="http://www.w3.org/2000/svg">
<path d="M13 28H4C3.73478 28 3.48043 27.8946 3.29289 27.7071C3.10536 27.5196 3 27.2652 3 27V3C3 2.73478 3.10536 2.48043 3.29289 2.29289C3.48043 2.10536 3.73478 2 4 2H24C24.2652 2 24.5196 2.10536 24.7071 2.29289C24.8946 2.48043 25 2.73478 25 3V14C25 14.2652 24.8946 14.5196 24.7071 14.7071C24.5196 14.8946 24.2652 15 24 15C23.7348 15 23.4804 14.8946 23.2929 14.7071C23.1054 14.5196 23 14.2652 23 14V4H5V26H13C13.2652 26 13.5196 26.1054 13.7071 26.2929C13.8946 26.4804 14 26.7348 14 27C14 27.2652 13.8946 27.5196 13.7071 27.7071C13.5196 27.8946 13.2652 28 13 28Z" fill="#5135FF"/>
<path d="M20 11H8C7.73478 11 7.48043 10.8946 7.29289 10.7071C7.10536 10.5196 7 10.2652 7 10C7 9.73478 7.10536 9.48043 7.29289 9.29289C7.48043 9.10536 7.73478 9 8 9H20C20.2652 9 20.5196 9.10536 20.7071 9.29289C20.8946 9.48043 21 9.73478 21 10C21 10.2652 20.8946 10.5196 20.7071 10.7071C20.5196 10.8946 20.2652 11 20 11Z" fill="#5135FF"/>
<path d="M15 15H8C7.73478 15 7.48043 14.8946 7.29289 14.7071C7.10536 14.5196 7 14.2652 7 14C7 13.7348 7.10536 13.4804 7.29289 13.2929C7.48043 13.1054 7.73478 13 8 13H15C15.2652 13 15.5196 13.1054 15.7071 13.2929C15.8946 13.4804 16 13.7348 16 14C16 14.2652 15.8946 14.5196 15.7071 14.7071C15.5196 14.8946 15.2652 15 15 15Z" fill="#5135FF"/>
<path d="M27.733 30.648L24.975 27.89C23.9607 28.6139 22.7452 29.002 21.499 29C20.3123 29 19.1523 28.6481 18.1656 27.9888C17.1789 27.3295 16.4099 26.3925 15.9557 25.2961C15.5016 24.1997 15.3828 22.9933 15.6143 21.8295C15.8458 20.6656 16.4173 19.5965 17.2564 18.7574C18.0955 17.9182 19.1646 17.3468 20.3285 17.1153C21.4924 16.8838 22.6988 17.0026 23.7951 17.4567C24.8915 17.9109 25.8286 18.6799 26.4878 19.6666C27.1471 20.6533 27.499 21.8133 27.499 23C27.5011 24.2462 27.1129 25.4617 26.389 26.476L29.146 29.233C29.2415 29.3252 29.3177 29.4356 29.3701 29.5576C29.4225 29.6796 29.4501 29.8108 29.4513 29.9436C29.4524 30.0764 29.4271 30.2081 29.3768 30.331C29.3266 30.4539 29.2523 30.5655 29.1584 30.6594C29.0645 30.7533 28.9529 30.8275 28.83 30.8778C28.7071 30.9281 28.5754 30.9534 28.4426 30.9523C28.3098 30.9511 28.1786 30.9235 28.0566 30.8711C27.9346 30.8187 27.8243 30.7425 27.732 30.647L27.733 30.648ZM17.499 23C17.499 23.7911 17.7336 24.5645 18.1731 25.2223C18.6127 25.8801 19.2374 26.3928 19.9683 26.6955C20.6992 26.9983 21.5035 27.0775 22.2794 26.9231C23.0553 26.7688 23.768 26.3878 24.3275 25.8284C24.8869 25.269 25.2678 24.5563 25.4222 23.7804C25.5765 23.0044 25.4973 22.2002 25.1945 21.4693C24.8918 20.7384 24.3791 20.1136 23.7213 19.6741C23.0635 19.2346 22.2902 19 21.499 19C20.4382 19 19.4207 19.4214 18.6706 20.1716C17.9205 20.9217 17.499 21.9391 17.499 23Z" fill="#5135FF"/>
</svg>
