<svg width="32" height="32" viewBox="0 0 32 32" fill="none" xmlns="http://www.w3.org/2000/svg">
<path d="M20.6391 6.56006H23.7291C24.2474 6.56059 24.7444 6.76673 25.1109 7.13325C25.4774 7.49977 25.6836 7.99672 25.6841 8.51506V11.6051C25.6836 12.1234 25.4774 12.6203 25.1109 12.9869C24.7444 13.3534 24.2474 13.5595 23.7291 13.5601H20.6391C20.1207 13.5595 19.6238 13.3534 19.2573 12.9869C18.8908 12.6203 18.6846 12.1234 18.6841 11.6051V8.51506C18.6846 7.99672 18.8908 7.49977 19.2573 7.13325C19.6238 6.76673 20.1207 6.56059 20.6391 6.56006ZM23.6841 8.56006H20.6841V11.5601H23.6841V8.56006Z" fill="#5135FF"/>
<path d="M17.6951 2.56006H26.6731C27.4714 2.56085 28.2368 2.87834 28.8013 3.44284C29.3658 4.00734 29.6833 4.77274 29.6841 5.57106V14.5491C29.6833 15.3474 29.3658 16.1128 28.8013 16.6773C28.2368 17.2418 27.4714 17.5593 26.6731 17.5601H17.6951C16.8968 17.5593 16.1314 17.2418 15.5669 16.6773C15.0024 16.1128 14.6849 15.3474 14.6841 14.5491V5.57106C14.6849 4.77274 15.0024 4.00734 15.5669 3.44284C16.1314 2.87834 16.8968 2.56085 17.6951 2.56006ZM26.6731 15.5601C26.9411 15.5598 27.1981 15.4532 27.3877 15.2637C27.5772 15.0741 27.6838 14.8171 27.6841 14.5491V5.57106C27.6838 5.30301 27.5772 5.04601 27.3877 4.85647C27.1981 4.66692 26.9411 4.56032 26.6731 4.56006H17.6951C17.427 4.56032 17.17 4.66692 16.9805 4.85647C16.7909 5.04601 16.6843 5.30301 16.6841 5.57106V14.5491C16.6843 14.8171 16.7909 15.0741 16.9805 15.2637C17.17 15.4532 17.427 15.5598 17.6951 15.5601H26.6731Z" fill="#5135FF"/>
<path d="M15.6841 8.56006H13.6841C13.4189 8.56006 13.1645 8.4547 12.977 8.26717C12.7894 8.07963 12.6841 7.82528 12.6841 7.56006C12.6841 7.29484 12.7894 7.04049 12.977 6.85295C13.1645 6.66542 13.4189 6.56006 13.6841 6.56006H15.6841C15.9493 6.56006 16.2037 6.66542 16.3912 6.85295C16.5787 7.04049 16.6841 7.29484 16.6841 7.56006C16.6841 7.82528 16.5787 8.07963 16.3912 8.26717C16.2037 8.4547 15.9493 8.56006 15.6841 8.56006Z" fill="#5135FF"/>
<path d="M15.6841 14.5601H13.6841C13.4189 14.5601 13.1645 14.4547 12.977 14.2672C12.7894 14.0796 12.6841 13.8253 12.6841 13.5601C12.6841 13.2948 12.7894 13.0405 12.977 12.853C13.1645 12.6654 13.4189 12.5601 13.6841 12.5601H15.6841C15.9493 12.5601 16.2037 12.6654 16.3912 12.853C16.5787 13.0405 16.6841 13.2948 16.6841 13.5601C16.6841 13.8253 16.5787 14.0796 16.3912 14.2672C16.2037 14.4547 15.9493 14.5601 15.6841 14.5601Z" fill="#5135FF"/>
<path d="M30.6841 8.56006H28.6841C28.4189 8.56006 28.1645 8.4547 27.977 8.26717C27.7894 8.07963 27.6841 7.82528 27.6841 7.56006C27.6841 7.29484 27.7894 7.04049 27.977 6.85295C28.1645 6.66542 28.4189 6.56006 28.6841 6.56006H30.6841C30.9493 6.56006 31.2037 6.66542 31.3912 6.85295C31.5787 7.04049 31.6841 7.29484 31.6841 7.56006C31.6841 7.82528 31.5787 8.07963 31.3912 8.26717C31.2037 8.4547 30.9493 8.56006 30.6841 8.56006Z" fill="#5135FF"/>
<path d="M30.6841 14.5601H28.6841C28.4189 14.5601 28.1645 14.4547 27.977 14.2672C27.7894 14.0796 27.6841 13.8253 27.6841 13.5601C27.6841 13.2948 27.7894 13.0405 27.977 12.853C28.1645 12.6654 28.4189 12.5601 28.6841 12.5601H30.6841C30.9493 12.5601 31.2037 12.6654 31.3912 12.853C31.5787 13.0405 31.6841 13.2948 31.6841 13.5601C31.6841 13.8253 31.5787 14.0796 31.3912 14.2672C31.2037 14.4547 30.9493 14.5601 30.6841 14.5601Z" fill="#5135FF"/>
<path d="M19.1841 20.0601C18.9189 20.0601 18.6645 19.9547 18.477 19.7672C18.2894 19.5796 18.1841 19.3253 18.1841 19.0601V17.0601C18.1841 16.7948 18.2894 16.5405 18.477 16.353C18.6645 16.1654 18.9189 16.0601 19.1841 16.0601C19.4493 16.0601 19.7037 16.1654 19.8912 16.353C20.0787 16.5405 20.1841 16.7948 20.1841 17.0601V19.0601C20.1841 19.3253 20.0787 19.5796 19.8912 19.7672C19.7037 19.9547 19.4493 20.0601 19.1841 20.0601Z" fill="#5135FF"/>
<path d="M25.1841 20.0601C24.9189 20.0601 24.6645 19.9547 24.477 19.7672C24.2894 19.5796 24.1841 19.3253 24.1841 19.0601V17.0601C24.1841 16.7948 24.2894 16.5405 24.477 16.353C24.6645 16.1654 24.9189 16.0601 25.1841 16.0601C25.4493 16.0601 25.7037 16.1654 25.8912 16.353C26.0787 16.5405 26.1841 16.7948 26.1841 17.0601V19.0601C26.1841 19.3253 26.0787 19.5796 25.8912 19.7672C25.7037 19.9547 25.4493 20.0601 25.1841 20.0601Z" fill="#5135FF"/>
<path d="M19.1841 4.56006C18.9189 4.56006 18.6645 4.4547 18.477 4.26717C18.2894 4.07963 18.1841 3.82528 18.1841 3.56006V1.56006C18.1841 1.29484 18.2894 1.04049 18.477 0.852952C18.6645 0.665415 18.9189 0.560059 19.1841 0.560059C19.4493 0.560059 19.7037 0.665415 19.8912 0.852952C20.0787 1.04049 20.1841 1.29484 20.1841 1.56006V3.56006C20.1841 3.82528 20.0787 4.07963 19.8912 4.26717C19.7037 4.4547 19.4493 4.56006 19.1841 4.56006Z" fill="#5135FF"/>
<path d="M25.1841 4.56006C24.9189 4.56006 24.6645 4.4547 24.477 4.26717C24.2894 4.07963 24.1841 3.82528 24.1841 3.56006V1.56006C24.1841 1.29484 24.2894 1.04049 24.477 0.852952C24.6645 0.665415 24.9189 0.560059 25.1841 0.560059C25.4493 0.560059 25.7037 0.665415 25.8912 0.852952C26.0787 1.04049 26.1841 1.29484 26.1841 1.56006V3.56006C26.1841 3.82528 26.0787 4.07963 25.8912 4.26717C25.7037 4.4547 25.4493 4.56006 25.1841 4.56006Z" fill="#5135FF"/>
<path d="M5 8C4.73478 8 4.48043 7.89464 4.29289 7.70711C4.10536 7.51957 4 7.26522 4 7V6C4 5.20435 4.31607 4.44129 4.87868 3.87868C5.44129 3.31607 6.20435 3 7 3H10C10.2652 3 10.5196 3.10536 10.7071 3.29289C10.8946 3.48043 11 3.73478 11 4C11 4.26522 10.8946 4.51957 10.7071 4.70711C10.5196 4.89464 10.2652 5 10 5H7C6.73478 5 6.48043 5.10536 6.29289 5.29289C6.10536 5.48043 6 5.73478 6 6V7C6 7.26522 5.89464 7.51957 5.70711 7.70711C5.51957 7.89464 5.26522 8 5 8Z" fill="#5135FF"/>
<path d="M8.50003 7.99992C8.30228 7.99988 8.10898 7.94121 7.94457 7.83132C7.78016 7.72144 7.65202 7.56527 7.57635 7.38257C7.50068 7.19987 7.48088 6.99884 7.51945 6.80489C7.55802 6.61093 7.65322 6.43277 7.79303 6.29292L10.086 3.99992L7.79303 1.70692C7.61087 1.51832 7.51008 1.26571 7.51236 1.00352C7.51464 0.741321 7.6198 0.490508 7.80521 0.3051C7.99062 0.119692 8.24143 0.0145233 8.50363 0.0122448C8.76583 0.00996641 9.01843 0.110761 9.20703 0.292919L12.207 3.29292C12.3945 3.48045 12.4998 3.73475 12.4998 3.99992C12.4998 4.26508 12.3945 4.51939 12.207 4.70692L9.20703 7.70692C9.01954 7.89447 8.76523 7.99986 8.50003 7.99992Z" fill="#5135FF"/>
<path d="M27.5 20.9761C27.7652 20.9761 28.0196 21.0814 28.2071 21.269C28.3946 21.4565 28.5 21.7109 28.5 21.9761V22.9761C28.5 23.7717 28.1839 24.5348 27.6213 25.0974C27.0587 25.66 26.2956 25.9761 25.5 25.9761H22.5C22.2348 25.9761 21.9804 25.8707 21.7929 25.6832C21.6054 25.4956 21.5 25.2413 21.5 24.9761C21.5 24.7109 21.6054 24.4565 21.7929 24.269C21.9804 24.0814 22.2348 23.9761 22.5 23.9761H25.5C25.7652 23.9761 26.0196 23.8707 26.2071 23.6832C26.3946 23.4956 26.5 23.2413 26.5 22.9761V21.9761C26.5 21.7109 26.6054 21.4565 26.7929 21.269C26.9804 21.0814 27.2348 20.9761 27.5 20.9761Z" fill="#5135FF"/>
<path d="M24 20.9761C24.1978 20.9761 24.3911 21.0348 24.5555 21.1447C24.7199 21.2546 24.848 21.4107 24.9237 21.5934C24.9994 21.7761 25.0192 21.9772 24.9806 22.1711C24.942 22.3651 24.8468 22.5432 24.707 22.6831L22.414 24.9761L24.707 27.2691C24.8025 27.3613 24.8787 27.4717 24.9311 27.5937C24.9835 27.7157 25.0111 27.8469 25.0123 27.9797C25.0134 28.1125 24.9881 28.2441 24.9379 28.367C24.8876 28.4899 24.8133 28.6016 24.7194 28.6955C24.6255 28.7894 24.5139 28.8636 24.391 28.9139C24.2681 28.9642 24.1364 28.9895 24.0036 28.9883C23.8709 28.9872 23.7396 28.9596 23.6176 28.9072C23.4956 28.8548 23.3853 28.7786 23.293 28.6831L20.293 25.6831C20.1056 25.4955 20.0002 25.2412 20.0002 24.9761C20.0002 24.7109 20.1056 24.4566 20.293 24.2691L23.293 21.2691C23.4805 21.0815 23.7348 20.9761 24 20.9761Z" fill="#5135FF"/>
<path d="M6.08705 21.0137C5.79705 21.0133 5.5103 21.0747 5.24596 21.194C4.98162 21.3133 4.74577 21.4876 4.55419 21.7053C4.3626 21.923 4.21969 22.1791 4.13499 22.4565C4.0503 22.7338 4.02577 23.0261 4.06305 23.3137C4.02696 23.6028 4.0521 23.8964 4.13683 24.1752C4.22155 24.454 4.36397 24.7119 4.55485 24.9321C4.74572 25.1523 4.98077 25.3299 5.24474 25.4533C5.50871 25.5768 5.79569 25.6433 6.08705 25.6487C6.37854 25.6435 6.66566 25.577 6.9298 25.4536C7.19393 25.3303 7.42916 25.1527 7.62022 24.9325C7.81127 24.7123 7.95388 24.4544 8.03879 24.1755C8.1237 23.8966 8.149 23.603 8.11305 23.3137C8.15019 23.0259 8.1255 22.7336 8.04062 22.4562C7.95575 22.1787 7.81264 21.9226 7.62087 21.7049C7.4291 21.4872 7.19308 21.3129 6.92858 21.1937C6.66407 21.0745 6.37718 21.0131 6.08705 21.0137ZM6.88005 23.3137C6.88005 23.9077 6.67205 24.5427 6.08705 24.5427C5.50205 24.5427 5.30005 23.9077 5.30005 23.3137C5.30005 22.5627 5.60005 22.1137 6.09105 22.1137C6.58205 22.1137 6.88405 22.5617 6.88405 23.3137" fill="#5135FF"/>
<path d="M10.6 21.0918L10.032 23.2228C9.96999 23.4408 9.91599 23.6488 9.86399 23.8568V23.8408C9.81399 23.6408 9.76399 23.4408 9.70499 23.2238L9.12499 21.0918H7.84399L9.21199 25.5718H10.479L11.853 21.0918H10.6Z" fill="#5135FF"/>
<path d="M13.8329 21.0918H12.5819L11.1479 25.5718H12.3999L12.6879 24.5238H13.7059L13.9919 25.5718H15.2749L13.8329 21.0918ZM13.4209 23.4918H12.9739L13.0249 23.3008C13.0829 23.1008 13.1409 22.8878 13.1959 22.6748C13.2519 22.8878 13.3089 23.0998 13.3669 23.2988L13.4209 23.4918Z" fill="#5135FF"/>
<path d="M15.757 29.9761H3.243C2.64836 29.9753 2.07831 29.7387 1.65784 29.3182C1.23736 28.8978 1.00079 28.3277 1 27.7331V11.2191C1.00079 10.6244 1.23736 10.0544 1.65784 9.63391C2.07831 9.21344 2.64836 8.97687 3.243 8.97607H11.485C11.892 8.97607 12.216 9.18907 12.833 9.69707C13.168 9.97307 13.605 10.3531 14.133 10.8281C15.033 11.6401 15.933 12.4971 16.073 12.6281L14.659 14.0421C14.303 13.6861 11.959 11.4991 11.233 10.9711H3.243C3.21066 10.9711 3.17865 10.9775 3.14884 10.99C3.11903 11.0026 3.09201 11.0209 3.06938 11.044C3.04675 11.0671 3.02896 11.0945 3.01704 11.1245C3.00513 11.1546 2.99933 11.1867 3 11.2191V27.7331C3 27.7975 3.0256 27.8593 3.07117 27.9049C3.11674 27.9505 3.17855 27.9761 3.243 27.9761H15.757C15.8214 27.9761 15.8833 27.9505 15.9288 27.9049C15.9744 27.8593 16 27.7975 16 27.7331V15.9761H18V27.7331C17.9992 28.3277 17.7626 28.8978 17.3422 29.3182C16.9217 29.7387 16.3516 29.9753 15.757 29.9761Z" fill="#5135FF"/>
<path d="M16.2209 17.9761H10.5139C10.2487 17.9761 9.99435 17.8707 9.80681 17.6832C9.61927 17.4956 9.51392 17.2413 9.51392 16.9761V9.97607H11.5139V15.9761H16.2209V17.9761Z" fill="#5135FF"/>
</svg>
