<svg width="32" height="32" viewBox="0 0 32 32" fill="none" xmlns="http://www.w3.org/2000/svg">
<path d="M16 12.286C11.543 12.286 4 11.413 4 8.143C4 4.873 11.543 4 16 4C20.457 4 28 4.872 28 8.143C28 11.414 20.457 12.286 16 12.286ZM16 6C9.915 6 6.2 7.426 6 8.158C6.2 8.858 9.915 10.286 16 10.286C22.045 10.286 25.748 8.88 26 8.143C25.747 7.405 22.043 6 16 6Z" fill="#5135FF"/>
<path d="M16 20.1429C11.543 20.1429 4 19.2709 4 15.9999H6C6.2 16.7169 9.915 18.1429 16 18.1429C22.085 18.1429 25.8 16.7169 26 15.9849L28 15.9999C28 19.2709 20.457 20.1429 16 20.1429Z" fill="#5135FF"/>
<path d="M16 28.0001C14 28.0001 4 27.8301 4 24.4851V8.14307C4 7.87785 4.10536 7.6235 4.29289 7.43596C4.48043 7.24842 4.73478 7.14307 5 7.14307C5.26522 7.14307 5.51957 7.24842 5.70711 7.43596C5.89464 7.6235 6 7.87785 6 8.14307V24.3631C6.557 24.9461 9.99 26.0001 16 26.0001C22.01 26.0001 25.443 24.9461 26 24.3631V8.14307C26 7.87785 26.1054 7.6235 26.2929 7.43596C26.4804 7.24842 26.7348 7.14307 27 7.14307C27.2652 7.14307 27.5196 7.24842 27.7071 7.43596C27.8946 7.6235 28 7.87785 28 8.14307V24.4851C28 27.8301 18 28.0001 16 28.0001Z" fill="#5135FF"/>
</svg>
