<svg width="32" height="32" viewBox="0 0 32 32" fill="none" xmlns="http://www.w3.org/2000/svg">
<path d="M22.924 30.7236L18.0779 28.0166C17.7536 27.8382 17.4827 27.5768 17.2932 27.2588C17.1037 26.9408 17.0025 26.5782 16.9999 26.208V25.9473C16.6679 25.9838 16.334 26.0018 15.9999 26.002C15.6658 26.0019 15.332 25.9836 14.9999 25.9463V26.208C14.9974 26.5782 14.8962 26.9408 14.7067 27.2588C14.5172 27.5768 14.2463 27.8382 13.9219 28.0166L9.07794 30.7236C8.74774 30.9053 8.37683 31.0007 7.99994 31C7.62356 31.0006 7.25324 30.9049 6.92395 30.7227L2.07996 28.0156C1.75534 27.8375 1.48421 27.5759 1.29468 27.2578C1.10514 26.9398 1.00409 26.5773 1.00195 26.207V20.793C1.00389 20.4231 1.10491 20.0608 1.29449 19.7432C1.48408 19.4255 1.7553 19.1646 2.07996 18.9873L6.92395 16.2783C6.95995 16.2573 6.99691 16.2377 7.03491 16.2197C7.18379 14.4287 7.87051 12.7249 9.00494 11.3311C9.00494 11.2901 9.00494 11.248 9.00494 11.207V5.79004C9.00837 5.42126 9.11008 5.05956 9.29956 4.74316C9.48905 4.42677 9.75945 4.16733 10.0829 3.99024L14.9269 1.28125C15.255 1.09822 15.6242 1.00128 15.9999 1C16.3773 0.999683 16.7484 1.09636 17.0779 1.28027L21.9219 3.98926C22.2457 4.16625 22.5164 4.42581 22.7062 4.74219C22.896 5.05856 22.9981 5.42013 23.002 5.78906V11.2061C23.002 11.2481 23.002 11.2901 23.002 11.3311C24.1361 12.7247 24.8227 14.4281 24.9719 16.2188C25.0089 16.2368 25.0459 16.2563 25.0829 16.2773L29.9269 18.9863C30.251 19.1642 30.5218 19.4247 30.7113 19.7422C30.9008 20.0597 31.0022 20.4223 31.0049 20.792V26.2061C31.002 26.5761 30.9006 26.9389 30.7111 27.2568C30.5217 27.5748 30.251 27.8359 29.9269 28.0146L25.0829 30.7217C24.7514 30.9049 24.3787 31.0009 23.9999 31C23.6236 31.0009 23.2533 30.9056 22.924 30.7236ZM25.0009 23.4238V28.4746L28.9479 26.2686C28.9869 26.2476 29.002 26.22 29.002 26.208V21.1143L25.0009 23.4238ZM9.00092 23.4238V28.4746L12.9479 26.2686C12.9869 26.2476 13.002 26.22 13.002 26.208V21.1143L9.00092 23.4238ZM19.0009 26.208C19.0009 26.22 19.0159 26.2466 19.0549 26.2686L22.9979 28.4688V23.4199L18.9979 21.1104L19.0009 26.208ZM3.00092 26.208C3.00092 26.22 3.01593 26.2466 3.05493 26.2686L6.99994 28.4688V23.4199L2.99994 21.1104L3.00092 26.208ZM16.0009 24.001C16.3355 24.001 16.6697 23.977 17.0009 23.9297V20.7939C17.0033 20.4241 17.1045 20.0617 17.294 19.7441C17.4835 19.4266 17.7545 19.1659 18.0789 18.9883L22.9249 16.2793L22.9619 16.2578C22.8442 15.1196 22.4453 14.0287 21.801 13.083L17.0779 15.7207C16.7488 15.9053 16.3773 16.0017 15.9999 16C15.6226 16.001 15.2514 15.9046 14.9219 15.7207L10.1989 13.083C9.55478 14.0284 9.15587 15.119 9.03796 16.2568L9.07697 16.2783L13.921 18.9873C14.2453 19.1649 14.5163 19.4256 14.7059 19.7432C14.8954 20.0607 14.9966 20.4232 14.999 20.793V23.9287C15.3305 23.976 15.665 24 15.9999 24L16.0009 24.001ZM23.9009 18.0264L20.7249 19.8008L24.0029 21.6914L27.278 19.7988L24.106 18.0264C24.0752 18.0099 24.0408 18.001 24.0059 18.001C23.969 17.9993 23.9333 18.0084 23.9009 18.0264ZM7.90094 18.0264L4.72491 19.8008L8.00293 21.6914L11.2809 19.7988L8.10693 18.0264C8.07616 18.0099 8.04184 18.001 8.00696 18.001C7.96966 17.9992 7.93357 18.0082 7.90094 18.0264ZM17.0009 8.42578V13.4746L20.9479 11.2754C20.9869 11.2544 21.002 11.2258 21.002 11.2148V6.12109L17.0009 8.42578ZM11.0009 11.2109C11.0009 11.2219 11.0159 11.2495 11.0549 11.2715L14.9999 13.4707V8.42188L10.9999 6.11328L11.0009 11.2109ZM15.9009 3.02832L12.7269 4.80078L16.002 6.69336L19.28 4.79883L16.106 3.02832C16.0752 3.01189 16.0408 3.00291 16.0059 3.00293C15.9691 3.00069 15.9325 3.00908 15.9 3.02637L15.9009 3.02832Z" fill="#5135FF"/>
</svg>
