<svg width="32" height="32" viewBox="0 0 32 32" fill="none" xmlns="http://www.w3.org/2000/svg">
<path d="M24.6597 27.6202H4.7667C4.34156 27.6229 3.92185 27.5246 3.54214 27.3333C3.16244 27.1421 2.8336 26.8634 2.5827 26.5202C2.33326 26.1855 2.16692 25.7964 2.09737 25.3849C2.02783 24.9733 2.05707 24.5512 2.1827 24.1532L5.1997 14.5062C5.37118 13.957 5.71439 13.4774 6.17883 13.1379C6.64327 12.7984 7.20441 12.6169 7.7797 12.6202H12.9237C13.6365 12.6179 14.3213 12.8975 14.8287 13.3982L16.8767 15.4162C17.0114 15.5446 17.1905 15.6163 17.3767 15.6162H27.3547C27.7985 15.6148 28.2358 15.7228 28.6279 15.9307C29.02 16.1387 29.3548 16.44 29.6027 16.8082C29.8463 17.1692 29.9973 17.5846 30.0425 18.0178C30.0877 18.451 30.0256 18.8886 29.8617 19.2922L27.1617 25.9382C26.9601 26.4362 26.6141 26.8625 26.1682 27.1623C25.7224 27.462 25.197 27.6215 24.6597 27.6202ZM7.7797 14.6202C7.63084 14.6185 7.48534 14.6643 7.36431 14.751C7.24329 14.8377 7.15305 14.9607 7.1067 15.1022L4.0927 24.7482C4.06131 24.8467 4.05401 24.9514 4.07141 25.0533C4.08881 25.1553 4.1304 25.2516 4.1927 25.3342C4.25856 25.424 4.34491 25.4968 4.44457 25.5465C4.54423 25.5963 4.65432 25.6215 4.7657 25.6202H24.6597C24.7992 25.6207 24.9357 25.5801 25.0522 25.5034C25.1687 25.4268 25.26 25.3175 25.3147 25.1892L28.0147 18.5442C28.0564 18.4444 28.0723 18.3358 28.061 18.2283C28.0496 18.1208 28.0114 18.0179 27.9497 17.9292C27.8848 17.8328 27.7971 17.7542 27.6942 17.7002C27.5914 17.6463 27.4768 17.6188 27.3607 17.6202H17.3807C16.668 17.6227 15.9833 17.3434 15.4757 16.8432L13.4267 14.8242C13.2921 14.6954 13.1129 14.6237 12.9267 14.6242L7.7797 14.6202Z" fill="#5135FF"/>
<path d="M4.06274 25.6201H2.06274V10.3001C2.06274 9.58986 2.34469 8.90864 2.84664 8.40613C3.34859 7.90362 4.02948 7.62091 4.73974 7.62012H13.1697C13.6024 7.6212 14.0289 7.72253 14.4158 7.91616C14.8028 8.10979 15.1395 8.39045 15.3997 8.73612L17.3267 11.3001C17.4001 11.3977 17.495 11.4769 17.6042 11.5316C17.7133 11.5863 17.8337 11.6148 17.9557 11.6151H19.0627V13.6151H17.9557C17.5233 13.614 17.0971 13.5127 16.7103 13.3193C16.3236 13.1258 15.987 12.8455 15.7267 12.5001L13.7997 9.93512C13.7264 9.83753 13.6314 9.7583 13.5223 9.70364C13.4131 9.64898 13.2928 9.62039 13.1707 9.62012H4.73974C4.56027 9.62038 4.38823 9.69179 4.26133 9.8187C4.13442 9.9456 4.06301 10.1176 4.06274 10.2971V25.6201Z" fill="#5135FF"/>
<path d="M24.3057 13.3201C24.0404 13.3201 23.7861 13.2148 23.5986 13.0272C23.411 12.8397 23.3057 12.5853 23.3057 12.3201V5.62012C23.3057 5.3549 23.411 5.10055 23.5986 4.91301C23.7861 4.72547 24.0404 4.62012 24.3057 4.62012C24.5709 4.62012 24.8252 4.72547 25.0128 4.91301C25.2003 5.10055 25.3057 5.3549 25.3057 5.62012V12.3201C25.3057 12.5853 25.2003 12.8397 25.0128 13.0272C24.8252 13.2148 24.5709 13.3201 24.3057 13.3201Z" fill="#5135FF"/>
<path d="M24.3046 14.863C24.0394 14.8629 23.7851 14.7575 23.5976 14.57L19.7196 10.691C19.6241 10.5987 19.5479 10.4884 19.4955 10.3664C19.4431 10.2444 19.4155 10.1131 19.4143 9.98037C19.4132 9.84759 19.4385 9.71591 19.4888 9.59301C19.5391 9.47012 19.6133 9.35847 19.7072 9.26457C19.8011 9.17068 19.9127 9.09643 20.0356 9.04615C20.1585 8.99587 20.2902 8.97056 20.423 8.97172C20.5558 8.97287 20.687 9.00046 20.809 9.05287C20.931 9.10528 21.0413 9.18146 21.1336 9.27697L24.3046 12.449L27.4766 9.27697C27.6652 9.09481 27.9178 8.99402 28.18 8.99629C28.4422 8.99857 28.693 9.10374 28.8784 9.28915C29.0638 9.47456 29.169 9.72537 29.1713 9.98757C29.1735 10.2498 29.0728 10.5024 28.8906 10.691L25.0116 14.57C24.8241 14.7575 24.5698 14.8629 24.3046 14.863Z" fill="#5135FF"/>
</svg>
