<svg width="32" height="32" viewBox="0 0 32 32" fill="none" xmlns="http://www.w3.org/2000/svg">
<path d="M24 25.9999C23.7975 25.9999 23.5998 25.9384 23.433 25.8236C23.2663 25.7088 23.1383 25.546 23.066 25.3569C22.9937 25.1678 22.9805 24.9612 23.0282 24.7644C23.0759 24.5676 23.1822 24.3899 23.333 24.2549C24.7007 23.0317 25.7407 21.4857 26.3583 19.7579C26.9758 18.03 27.1513 16.1752 26.8689 14.3621C26.5864 12.5491 25.8548 10.8356 24.7408 9.37751C23.6269 7.91946 22.1659 6.76323 20.4908 6.01412C18.8158 5.26501 16.98 4.94681 15.1506 5.0885C13.3212 5.23019 11.5563 5.82726 10.0166 6.82535C8.47687 7.82344 7.21131 9.19084 6.33512 10.803C5.45894 12.4152 4.99996 14.221 5 16.0559C5 16.3211 4.89464 16.5754 4.70711 16.763C4.51957 16.9505 4.26522 17.0559 4 17.0559C3.73478 17.0559 3.48043 16.9505 3.29289 16.763C3.10536 16.5754 3 16.3211 3 16.0559C3.00015 13.4848 3.76267 10.9716 5.19114 8.83386C6.61961 6.69617 8.64988 5.03004 11.0252 4.04617C13.4006 3.06229 16.0143 2.80485 18.536 3.3064C21.0576 3.80794 23.3739 5.04594 25.192 6.86387C26.4421 8.11404 27.4241 9.60607 28.0779 11.2487C28.7317 12.8914 29.0435 14.6501 28.9944 16.4174C28.9453 18.1847 28.5361 19.9234 27.7921 21.5272C27.048 23.1309 25.9847 24.5661 24.667 25.7449C24.4836 25.9091 24.2461 25.9999 24 25.9999Z" fill="#5135FF"/>
<path d="M28 26H24C23.7348 26 23.4804 25.8946 23.2929 25.7071C23.1054 25.5196 23 25.2652 23 25V21C23 20.7348 23.1054 20.4804 23.2929 20.2929C23.4804 20.1054 23.7348 20 24 20C24.2652 20 24.5196 20.1054 24.7071 20.2929C24.8946 20.4804 25 20.7348 25 21V24H28C28.2652 24 28.5196 24.1054 28.7071 24.2929C28.8946 24.4804 29 24.7348 29 25C29 25.2652 28.8946 25.5196 28.7071 25.7071C28.5196 25.8946 28.2652 26 28 26Z" fill="#5135FF"/>
<path d="M5.3999 19.8799H6.3999V22.8799H5.3999C5.13469 22.8799 4.88033 22.9852 4.6928 23.1728C4.50526 23.3603 4.3999 23.6147 4.3999 23.8799C4.3999 24.1451 4.50526 24.3995 4.6928 24.587C4.88033 24.7745 5.13469 24.8799 5.3999 24.8799H6.3999C6.3999 25.4103 6.61062 25.919 6.98569 26.2941C7.36076 26.6692 7.86947 26.8799 8.3999 26.8799V27.8799C8.3999 28.1451 8.50526 28.3995 8.6928 28.587C8.88033 28.7745 9.13469 28.8799 9.3999 28.8799C9.66512 28.8799 9.91947 28.7745 10.107 28.587C10.2945 28.3995 10.3999 28.1451 10.3999 27.8799V26.8799H13.3999V27.8799C13.3999 28.1451 13.5053 28.3995 13.6928 28.587C13.8803 28.7745 14.1347 28.8799 14.3999 28.8799C14.6651 28.8799 14.9195 28.7745 15.107 28.587C15.2945 28.3995 15.3999 28.1451 15.3999 27.8799V26.8799C15.9303 26.8799 16.439 26.6692 16.8141 26.2941C17.1892 25.919 17.3999 25.4103 17.3999 24.8799H18.3999C18.6651 24.8799 18.9195 24.7745 19.107 24.587C19.2945 24.3995 19.3999 24.1451 19.3999 23.8799C19.3999 23.6147 19.2945 23.3603 19.107 23.1728C18.9195 22.9852 18.6651 22.8799 18.3999 22.8799H17.3999V19.8799H18.3999C18.6651 19.8799 18.9195 19.7745 19.107 19.587C19.2945 19.3995 19.3999 19.1451 19.3999 18.8799C19.3999 18.6147 19.2945 18.3603 19.107 18.1728C18.9195 17.9852 18.6651 17.8799 18.3999 17.8799H17.3999C17.3999 17.3494 17.1892 16.8407 16.8141 16.4657C16.439 16.0906 15.9303 15.8799 15.3999 15.8799V14.8799C15.3999 14.6147 15.2945 14.3603 15.107 14.1728C14.9195 13.9852 14.6651 13.8799 14.3999 13.8799C14.1347 13.8799 13.8803 13.9852 13.6928 14.1728C13.5053 14.3603 13.3999 14.6147 13.3999 14.8799V15.8799H10.3999V14.8799C10.3999 14.6147 10.2945 14.3603 10.107 14.1728C9.91947 13.9852 9.66512 13.8799 9.3999 13.8799C9.13469 13.8799 8.88033 13.9852 8.6928 14.1728C8.50526 14.3603 8.3999 14.6147 8.3999 14.8799V15.8799C7.86947 15.8799 7.36076 16.0906 6.98569 16.4657C6.61062 16.8407 6.3999 17.3494 6.3999 17.8799H5.3999C5.13469 17.8799 4.88033 17.9852 4.6928 18.1728C4.50526 18.3603 4.3999 18.6147 4.3999 18.8799C4.3999 19.1451 4.50526 19.3995 4.6928 19.587C4.88033 19.7745 5.13469 19.8799 5.3999 19.8799ZM15.3999 17.8799V24.8799H8.3999V17.8799H15.3999Z" fill="#5135FF"/>
<path d="M10.7999 18.8799H12.9999C13.3712 18.8799 13.7273 19.0274 13.9899 19.2899C14.2524 19.5525 14.3999 19.9086 14.3999 20.2799V22.4799C14.3999 22.8512 14.2524 23.2073 13.9899 23.4698C13.7273 23.7324 13.3712 23.8799 12.9999 23.8799H10.7999C10.4286 23.8799 10.0725 23.7324 9.80995 23.4698C9.5474 23.2073 9.3999 22.8512 9.3999 22.4799V20.2799C9.3999 19.9086 9.5474 19.5525 9.80995 19.2899C10.0725 19.0274 10.4286 18.8799 10.7999 18.8799ZM12.3999 20.8799H11.3999V21.8799H12.3999V20.8799Z" fill="#5135FF"/>
</svg>
