<svg width="32" height="32" viewBox="0 0 32 32" fill="none" xmlns="http://www.w3.org/2000/svg">
<path d="M16.9858 21.5H14.9858V14.5H16.9858V21.5Z" fill="#5135FF"/>
<path d="M14.792 9.75H17.292C17.8224 9.75 18.3311 9.96071 18.7062 10.3358C19.0813 10.7109 19.292 11.2196 19.292 11.75V14.25C19.292 14.7804 19.0813 15.2891 18.7062 15.6642C18.3311 16.0393 17.8224 16.25 17.292 16.25H14.792C14.2616 16.25 13.7529 16.0393 13.3778 15.6642C13.0027 15.2891 12.792 14.7804 12.792 14.25V11.75C12.792 11.2196 13.0027 10.7109 13.3778 10.3358C13.7529 9.96071 14.2616 9.75 14.792 9.75ZM17.292 14.25V11.75H14.792V14.25H17.292Z" fill="#5135FF"/>
<path d="M18.3089 20.0161H16.5269V18.0161H18.3089V20.0161Z" fill="#5135FF"/>
<path d="M16.1218 25.748C16.6535 25.748 17.1732 25.9057 17.6152 26.2011C18.0572 26.4964 18.4018 26.9162 18.6052 27.4074C18.8087 27.8986 18.8619 28.439 18.7582 28.9605C18.6545 29.4819 18.3985 29.9608 18.0225 30.3368C17.6466 30.7127 17.1677 30.9687 16.6462 31.0724C16.1248 31.1761 15.5844 31.1229 15.0932 30.9194C14.602 30.716 14.1822 30.3715 13.8868 29.9294C13.5915 29.4874 13.4338 28.9677 13.4338 28.436C13.4349 27.7235 13.7184 27.0404 14.2223 26.5365C14.7262 26.0326 15.4093 25.7491 16.1218 25.748ZM16.1218 29.124C16.2579 29.124 16.3909 29.0837 16.5041 29.0081C16.6172 28.9325 16.7054 28.825 16.7575 28.6993C16.8095 28.5736 16.8232 28.4353 16.7966 28.3018C16.7701 28.1684 16.7045 28.0458 16.6083 27.9496C16.5121 27.8533 16.3895 27.7878 16.2561 27.7613C16.1226 27.7347 15.9843 27.7483 15.8586 27.8004C15.7328 27.8525 15.6254 27.9407 15.5498 28.0538C15.4742 28.167 15.4338 28.3 15.4338 28.436C15.4341 28.6184 15.5067 28.7933 15.6356 28.9222C15.7646 29.0512 15.9395 29.1238 16.1218 29.124Z" fill="#5135FF"/>
<path d="M3.0889 12.939C3.6205 12.9392 4.14009 13.097 4.582 13.3925C5.02391 13.6879 5.36828 14.1078 5.57158 14.599C5.77487 15.0902 5.82796 15.6306 5.72413 16.152C5.6203 16.6733 5.36422 17.1522 4.98825 17.528C4.61229 17.9038 4.13333 18.1598 3.61194 18.2634C3.09054 18.367 2.55013 18.3137 2.05902 18.1103C1.56791 17.9068 1.14816 17.5623 0.852843 17.1202C0.557526 16.6782 0.399902 16.1586 0.399902 15.627C0.400697 14.9141 0.684288 14.2307 1.18843 13.7268C1.69257 13.2228 2.37607 12.9395 3.0889 12.939ZM3.0889 16.315C3.22493 16.3148 3.35785 16.2742 3.47086 16.1985C3.58387 16.1228 3.6719 16.0153 3.72382 15.8896C3.77574 15.7638 3.78922 15.6255 3.76256 15.4921C3.7359 15.3587 3.6703 15.2362 3.57404 15.1401C3.47778 15.044 3.35519 14.9786 3.22176 14.9521C3.08833 14.9256 2.95004 14.9393 2.82439 14.9914C2.69873 15.0435 2.59134 15.1317 2.51578 15.2448C2.44023 15.358 2.3999 15.4909 2.3999 15.627C2.40017 15.8095 2.47288 15.9845 2.60206 16.1135C2.73124 16.2425 2.90634 16.315 3.0889 16.315Z" fill="#5135FF"/>
<path d="M29.011 12.939C29.5426 12.939 30.0623 13.0966 30.5044 13.392C30.9464 13.6873 31.2909 14.1071 31.4944 14.5983C31.6978 15.0895 31.7511 15.6299 31.6473 16.1514C31.5436 16.6728 31.2876 17.1517 30.9117 17.5277C30.5358 17.9036 30.0568 18.1596 29.5354 18.2633C29.014 18.367 28.4735 18.3138 27.9823 18.1104C27.4912 17.9069 27.0714 17.5624 26.776 17.1203C26.4806 16.6783 26.323 16.1586 26.323 15.627C26.3241 14.9144 26.6076 14.2313 27.1115 13.7274C27.6153 13.2236 28.2984 12.94 29.011 12.939ZM29.011 16.315C29.1471 16.315 29.2801 16.2746 29.3932 16.199C29.5064 16.1234 29.5946 16.016 29.6466 15.8903C29.6987 15.7645 29.7123 15.6262 29.6858 15.4927C29.6592 15.3593 29.5937 15.2367 29.4975 15.1405C29.4013 15.0443 29.2787 14.9787 29.1452 14.9522C29.0118 14.9256 28.8734 14.9393 28.7477 14.9913C28.622 15.0434 28.5145 15.1316 28.4389 15.2447C28.3633 15.3579 28.323 15.4909 28.323 15.627C28.3233 15.8094 28.3958 15.9842 28.5248 16.1132C28.6538 16.2421 28.8286 16.3147 29.011 16.315Z" fill="#5135FF"/>
<path d="M27.3229 16.627H23.9429V14.627H27.3229V16.627Z" fill="#5135FF"/>
<path d="M8.15783 16.627H4.77783V14.627H8.15783V16.627Z" fill="#5135FF"/>
<path d="M16.05 7.6L23.05 10.427V10.486C23.0495 12.3446 22.9034 14.2003 22.613 16.036C22.4889 16.8293 22.2602 17.6027 21.933 18.336L21.6 19.078C21.3741 19.583 21.0837 20.0567 20.736 20.487C19.6292 21.8662 18.1599 22.9096 16.493 23.5L16.053 23.653L15.614 23.5C13.9439 22.9094 12.4717 21.8645 11.363 20.483C11.015 20.0534 10.7242 19.5805 10.498 19.076L10.063 18.105C9.79874 17.5147 9.60993 16.8935 9.50099 16.256C9.19868 14.5139 9.04612 12.7491 9.04498 10.981V10.421L16.05 7.6ZM16.05 5.5C15.9647 5.50005 15.8802 5.51634 15.801 5.548L7.60398 8.85C7.43659 8.92054 7.29402 9.03936 7.19445 9.19129C7.09489 9.34322 7.04285 9.52137 7.04498 9.703V10.986C7.04588 12.8678 7.20814 14.746 7.52999 16.6C7.6681 17.4011 7.9056 18.1817 8.23699 18.924L8.67299 19.897C8.97073 20.56 9.35326 21.1815 9.81098 21.746C11.1514 23.416 12.9311 24.679 14.95 25.393L15.938 25.738C16.0095 25.7633 16.0875 25.7633 16.159 25.738L17.147 25.393C19.1672 24.6804 20.9486 23.4184 22.291 21.749C22.7492 21.1847 23.1321 20.5631 23.43 19.9L23.763 19.158C24.1629 18.2618 24.4423 17.3166 24.594 16.347C24.8994 14.4083 25.0518 12.4486 25.05 10.486V9.7C25.0512 9.52023 24.9991 9.34413 24.9003 9.19392C24.8016 9.04371 24.6605 8.92613 24.495 8.856L16.295 5.546C16.2169 5.51552 16.1338 5.49992 16.05 5.5Z" fill="#5135FF"/>
<path d="M17.0498 27.3112H15.0498V24.6372H17.0498V27.3112Z" fill="#5135FF"/>
<path d="M16.1228 0C16.6544 0.000197765 17.174 0.158014 17.6159 0.453496C18.0578 0.748977 18.4022 1.16885 18.6055 1.66004C18.8088 2.15122 18.8619 2.69166 18.7581 3.21302C18.6542 3.73437 18.3982 4.21323 18.0222 4.58906C17.6462 4.96488 17.1673 5.22079 16.6459 5.32442C16.1245 5.42806 15.5841 5.37477 15.093 5.17129C14.6018 4.96781 14.1821 4.62329 13.8868 4.18127C13.5915 3.73925 13.4338 3.21959 13.4338 2.688C13.4346 1.97517 13.7182 1.29178 14.2224 0.787821C14.7265 0.283867 15.41 0.000529347 16.1228 0ZM16.1228 3.376C16.2589 3.3758 16.3918 3.33528 16.5048 3.25957C16.6178 3.18385 16.7058 3.07633 16.7578 2.95059C16.8097 2.82486 16.8232 2.68656 16.7965 2.55317C16.7698 2.41977 16.7042 2.29728 16.608 2.20116C16.5117 2.10504 16.3891 2.03961 16.2557 2.01315C16.1223 1.98668 15.984 2.00036 15.8583 2.05247C15.7327 2.10457 15.6253 2.19275 15.5497 2.30587C15.4742 2.41899 15.4338 2.55197 15.4338 2.688C15.4341 2.87056 15.5068 3.04555 15.636 3.17455C15.7652 3.30355 15.9403 3.376 16.1228 3.376Z" fill="#5135FF"/>
<path d="M17.1948 6.48699H15.1948V3.81299H17.1948V6.48699Z" fill="#5135FF"/>
</svg>
