<svg width="32" height="32" viewBox="0 0 32 32" fill="none" xmlns="http://www.w3.org/2000/svg">
<path d="M9.74678 7C10.5062 7.01318 11.2369 7.29216 11.8119 7.78839C12.3869 8.28462 12.7697 8.9667 12.8938 9.716L12.9358 10.908L14.0068 11.437C14.1447 11.5054 14.2609 11.6108 14.3423 11.7415C14.4237 11.8722 14.4671 12.023 14.4676 12.177C14.4681 12.3309 14.4257 12.482 14.3452 12.6132C14.2647 12.7445 14.1493 12.8507 14.0118 12.92C13.9625 12.9369 13.9108 12.9453 13.8588 12.945H5.16878C4.84808 12.9294 4.54621 12.789 4.32774 12.5537C4.10928 12.3184 3.99156 12.007 3.99978 11.686V11.634V11.581C3.99078 11.2702 4.09886 10.9674 4.30259 10.7326C4.50633 10.4977 4.79085 10.348 5.09978 10.313L6.39978 10.164L6.78578 8.917C7.05424 8.35526 7.47299 7.87881 7.99562 7.54045C8.51825 7.20209 9.12436 7.01503 9.74678 7ZM9.75678 5C8.70499 5.00855 7.67942 5.32922 6.8101 5.92134C5.94079 6.51347 5.26686 7.35039 4.87378 8.326C4.0686 8.41864 3.3272 8.80914 2.79537 9.42074C2.26353 10.0323 1.97973 10.8208 1.99978 11.631C1.97609 12.4854 2.29236 13.3143 2.87917 13.9358C3.46598 14.5573 4.2754 14.9206 5.12978 14.946H13.8588C14.179 14.946 14.4962 14.8839 14.7928 14.763C15.2825 14.5438 15.6997 14.1898 15.9959 13.7424C16.292 13.295 16.4548 12.7726 16.4653 12.2362C16.4758 11.6998 16.3335 11.1714 16.0551 10.7128C15.7766 10.2542 15.3735 9.88419 14.8928 9.646C14.7998 7.1 12.2998 5.069 9.75678 5Z" fill="#5135FF"/>
<path d="M22.0768 17.9468C23.9768 18.0208 25.7388 19.5468 25.7968 21.1798L25.8398 22.3728L26.9088 22.9018C27.1006 22.9966 27.2619 23.1432 27.3745 23.3251C27.4871 23.507 27.5465 23.7167 27.5458 23.9306C27.5452 24.1445 27.4846 24.354 27.371 24.5352C27.2573 24.7164 27.0951 24.8621 26.9028 24.9558C26.8206 24.9849 26.734 24.9998 26.6468 24.9998H16.9818C16.5663 24.9806 16.175 24.7992 15.8917 24.4946C15.6085 24.19 15.4559 23.7866 15.4668 23.3708V23.3178V23.2658C15.4553 22.8644 15.5952 22.4734 15.8586 22.1703C16.122 21.8672 16.4898 21.6743 16.8888 21.6298L18.1888 21.4798L18.5738 20.2338C18.8834 19.5608 19.3769 18.989 19.9974 18.5844C20.6179 18.1797 21.3401 17.9587 22.0808 17.9468M22.0908 15.9468C20.9214 15.9568 19.7813 16.3138 18.8149 16.9725C17.8486 17.6312 17.0996 18.5619 16.6628 19.6468C15.7588 19.7783 14.9355 20.2396 14.3512 20.9419C13.767 21.6441 13.4632 22.5377 13.4983 23.4505C13.5335 24.3633 13.9051 25.2309 14.5415 25.8862C15.178 26.5415 16.0344 26.9381 16.9458 26.9998H26.6458C27.0021 27.0008 27.3553 26.9329 27.6858 26.7998C28.23 26.5558 28.6935 26.1621 29.0224 25.6647C29.3513 25.1673 29.532 24.5866 29.5435 23.9903C29.5549 23.3941 29.3966 22.8069 29.087 22.2972C28.7773 21.7876 28.3292 21.3764 27.7948 21.1118C27.6948 18.2858 24.9118 16.0258 22.0858 15.9488" fill="#5135FF"/>
<path d="M11.041 24.9458C9.45029 24.9439 7.92524 24.3112 6.80042 23.1864C5.6756 22.0616 5.04287 20.5365 5.04102 18.9458C5.04102 18.6806 5.14637 18.4262 5.33391 18.2387C5.52145 18.0512 5.7758 17.9458 6.04102 17.9458C6.30623 17.9458 6.56059 18.0512 6.74812 18.2387C6.93566 18.4262 7.04102 18.6806 7.04102 18.9458C7.04102 20.0067 7.46244 21.0241 8.21259 21.7742C8.96273 22.5244 9.98015 22.9458 11.041 22.9458C11.3062 22.9458 11.5606 23.0512 11.7481 23.2387C11.9357 23.4262 12.041 23.6806 12.041 23.9458C12.041 24.211 11.9357 24.4654 11.7481 24.6529C11.5606 24.8404 11.3062 24.9458 11.041 24.9458Z" fill="#5135FF"/>
<path d="M25.97 13.9458C25.7294 13.9456 25.4969 13.8586 25.3153 13.7008C25.1336 13.543 25.0149 13.325 24.981 13.0868C24.7747 11.6589 24.0607 10.3531 22.97 9.40875C21.8793 8.46438 20.4848 7.94466 19.042 7.94482C18.7768 7.94482 18.5224 7.83947 18.3349 7.65193C18.1473 7.46439 18.042 7.21004 18.042 6.94482C18.042 6.67961 18.1473 6.42525 18.3349 6.23772C18.5224 6.05018 18.7768 5.94482 19.042 5.94482C20.9656 5.9445 22.8249 6.63728 24.2793 7.89624C25.7336 9.1552 26.6857 10.896 26.961 12.7998C26.9814 12.9418 26.9709 13.0865 26.9305 13.2241C26.89 13.3616 26.8204 13.4889 26.7264 13.5972C26.6324 13.7056 26.5162 13.7924 26.3857 13.8518C26.2552 13.9113 26.1134 13.942 25.97 13.9418V13.9458Z" fill="#5135FF"/>
<path d="M26.3578 14.8949C26.2026 14.8947 26.0495 14.8584 25.9108 14.7889L23.3808 13.5239C23.2623 13.4658 23.1564 13.3849 23.0693 13.2857C22.9823 13.1865 22.9157 13.0711 22.8734 12.9461C22.8312 12.821 22.8141 12.6889 22.8232 12.5572C22.8322 12.4255 22.8673 12.297 22.9263 12.1789C22.9853 12.0609 23.067 11.9556 23.1669 11.8693C23.2668 11.783 23.3827 11.7174 23.5081 11.6761C23.6334 11.6348 23.7657 11.6188 23.8973 11.6289C24.0289 11.6389 24.1572 11.675 24.2748 11.7349L25.9108 12.5529L26.7288 10.9169C26.7868 10.7984 26.8678 10.6925 26.967 10.6055C27.0662 10.5184 27.1816 10.4518 27.3066 10.4096C27.4317 10.3673 27.5638 10.3502 27.6955 10.3593C27.8271 10.3684 27.9557 10.4034 28.0738 10.4624C28.1918 10.5214 28.297 10.6032 28.3833 10.703C28.4696 10.8029 28.5353 10.9188 28.5766 11.0442C28.6179 11.1696 28.6339 11.3018 28.6238 11.4334C28.6137 11.565 28.5777 11.6933 28.5178 11.8109L27.2528 14.3409C27.1698 14.507 27.0422 14.6467 26.8843 14.7444C26.7264 14.842 26.5444 14.8938 26.3588 14.8939L26.3578 14.8949Z" fill="#5135FF"/>
<path d="M7.95797 20.2001C7.826 20.1992 7.6955 20.1723 7.57399 20.1208C7.45247 20.0693 7.34235 19.9943 7.24997 19.9001L5.95797 18.6111L4.66497 19.9001C4.47506 20.0728 4.22599 20.1658 3.96936 20.16C3.71272 20.1541 3.46817 20.0498 3.28633 19.8686C3.1045 19.6874 2.9993 19.4432 2.99254 19.1866C2.98577 18.93 3.07794 18.6806 3.24997 18.4901L5.24997 16.4901C5.4375 16.3026 5.69181 16.1973 5.95697 16.1973C6.22214 16.1973 6.47645 16.3026 6.66397 16.4901L8.66397 18.4901C8.80475 18.6297 8.90085 18.808 8.94004 19.0024C8.97924 19.1968 8.95976 19.3984 8.88409 19.5817C8.80842 19.765 8.67998 19.9216 8.51507 20.0317C8.35017 20.1418 8.15626 20.2004 7.95797 20.2001Z" fill="#5135FF"/>
</svg>
