<svg width="32" height="32" viewBox="0 0 32 32" fill="none" xmlns="http://www.w3.org/2000/svg">
<path d="M9.54102 29C8.84878 29 8.17209 28.7947 7.59652 28.4101C7.02095 28.0256 6.57235 27.4789 6.30744 26.8394C6.04253 26.1999 5.97322 25.4961 6.10827 24.8172C6.24332 24.1383 6.57666 23.5146 7.06614 23.0251C7.55563 22.5356 8.17927 22.2023 8.8582 22.0673C9.53713 21.9322 10.2409 22.0015 10.8804 22.2664C11.52 22.5313 12.0666 22.9799 12.4512 23.5555C12.8357 24.1311 13.041 24.8078 13.041 25.5C13.041 26.4283 12.6723 27.3185 12.0159 27.9749C11.3595 28.6313 10.4693 29 9.54102 29ZM9.54102 24C9.24435 24 8.95434 24.088 8.70766 24.2528C8.46099 24.4176 8.26873 24.6519 8.1552 24.926C8.04167 25.2001 8.01196 25.5017 8.06984 25.7926C8.12772 26.0836 8.27058 26.3509 8.48036 26.5607C8.69014 26.7704 8.95741 26.9133 9.24838 26.9712C9.53935 27.0291 9.84095 26.9994 10.115 26.8858C10.3891 26.7723 10.6234 26.58 10.7882 26.3334C10.953 26.0867 11.041 25.7967 11.041 25.5C11.041 25.1022 10.883 24.7206 10.6017 24.4393C10.3204 24.158 9.93884 24 9.54102 24Z" fill="#5135FF"/>
<path d="M19.5415 19.0789L20.0485 19.9789L20.6215 20.9999H18.4615L19.0345 19.9809L19.5415 19.0809M19.5415 16.0259C19.3285 16.0469 19.1251 16.1247 18.9525 16.2512C18.78 16.3776 18.6445 16.5482 18.5605 16.7449L18.2725 17.2589L16.3105 20.7449L16.0225 21.2589C15.4825 22.2159 15.9415 22.9999 17.0415 22.9999H22.0415C23.1415 22.9999 23.6005 22.2159 23.0605 21.2569L22.7725 20.7429L20.8105 17.2569L20.5225 16.7429C20.4384 16.5462 20.3029 16.3756 20.1304 16.2492C19.9578 16.1227 19.7544 16.0449 19.5415 16.0239V16.0259Z" fill="#5135FF"/>
<path fill-rule="evenodd" clip-rule="evenodd" d="M6.92624 32C5.03641 31.9438 3.24607 31.1401 1.94815 29.7653C0.650227 28.3905 -0.049244 26.5569 0.0032425 24.667C-0.0412983 22.8757 0.585741 21.1325 1.76113 19.7801C2.93651 18.4276 4.57524 17.5636 6.35524 17.358C7.68924 13.045 12.6412 11.078 17.1572 11C22.7822 11.153 28.3192 14.652 28.5192 20.276C29.5832 20.8022 30.4755 21.6201 31.0921 22.6343C31.7087 23.6486 32.0241 24.8173 32.0014 26.004C31.9788 27.1907 31.619 28.3466 30.9642 29.3365C30.3094 30.3265 29.3865 31.1098 28.3032 31.595C27.6459 31.8626 26.9429 32.0001 26.2332 32H6.92624ZM6.92624 30C5.56685 29.9438 4.2852 29.3509 3.36234 28.3512C2.43948 27.3514 1.95072 26.0265 2.00324 24.667C1.95927 23.3765 2.39876 22.1161 3.23561 21.1328C4.07245 20.1494 5.24634 19.514 6.52724 19.351L7.84124 19.238L8.25524 17.988C9.31824 14.494 13.5062 13.079 17.1572 13C21.7252 13.154 26.3872 15.831 26.5232 20.4L26.5962 21.6L27.6872 22.1C28.3937 22.4459 28.9868 22.9861 29.397 23.6572C29.8073 24.3283 30.0176 25.1026 30.0032 25.889C30.0466 26.9334 29.6744 27.9525 28.9679 28.7231C28.2615 29.4936 27.2785 29.9527 26.2342 30H6.92624Z" fill="#5135FF"/>
<mask id="mask0_2920_5782" style="mask-type:luminance" maskUnits="userSpaceOnUse" x="0" y="0" width="33" height="21">
<path d="M0.00341797 0H32.0034V20.375L30.4504 19.668L29.5564 16.255H3.00342L0.00341797 18.632V0Z" fill="white"/>
</mask>
<g mask="url(#mask0_2920_5782)">
<path fill-rule="evenodd" clip-rule="evenodd" d="M6.92624 21C5.03641 20.9438 3.24607 20.1401 1.94815 18.7653C0.650227 17.3905 -0.049244 15.5569 0.0032425 13.667C-0.0412983 11.8757 0.585741 10.1325 1.76113 8.78006C2.93651 7.42759 4.57524 6.56364 6.35524 6.358C7.68924 2.045 12.6412 0.078 17.1572 0C22.7822 0.153 28.3192 3.652 28.5192 9.276C29.5832 9.80217 30.4755 10.6201 31.0921 11.6343C31.7087 12.6486 32.0241 13.8173 32.0014 15.004C31.9788 16.1907 31.619 17.3466 30.9642 18.3365C30.3094 19.3265 29.3865 20.1098 28.3032 20.595C27.6459 20.8626 26.9429 21.0001 26.2332 21H6.92624ZM6.92624 19C5.56685 18.9438 4.2852 18.3509 3.36234 17.3512C2.43948 16.3514 1.95072 15.0265 2.00324 13.667C1.95927 12.3765 2.39876 11.1161 3.23561 10.1328C4.07245 9.14942 5.24634 8.51399 6.52724 8.351L7.84124 8.238L8.25524 6.988C9.31824 3.494 13.5062 2.079 17.1572 2C21.7252 2.154 26.3872 4.831 26.5232 9.4L26.5962 10.6L27.6872 11.1C28.3937 11.4459 28.9868 11.9861 29.397 12.6572C29.8073 13.3283 30.0176 14.1026 30.0032 14.889C30.0466 15.9334 29.6744 16.9525 28.9679 17.7231C28.2615 18.4936 27.2785 18.9527 26.2342 19H6.92624Z" fill="#5135FF"/>
</g>
</svg>
