<svg width="32" height="32" viewBox="0 0 32 32" fill="none" xmlns="http://www.w3.org/2000/svg">
<path d="M25.989 3L26 3.011V28L6 27.989L6.011 3H25.989ZM25.989 1H6.011C5.47765 1 4.96614 1.21187 4.58901 1.58901C4.21187 1.96614 4 2.47765 4 3.011V27.989C4 28.5224 4.21187 29.0339 4.58901 29.411C4.96614 29.7881 5.47765 30 6.011 30H26C26.5304 30 27.0391 29.7893 27.4142 29.4142C27.7893 29.0391 28 28.5304 28 28V3.011C28 2.47765 27.7881 1.96614 27.411 1.58901C27.0339 1.21187 26.5224 1 25.989 1Z" fill="#5135FF"/>
<path d="M14 22C13.7348 22 13.4804 21.8946 13.2929 21.707C13.1054 21.5195 13 21.2652 13 21C13 20.7348 13.1054 20.4805 13.2929 20.293C13.4804 20.1054 13.7348 20 14 20H23C23.2652 20 23.5196 20.1054 23.7071 20.293C23.8946 20.4805 24 20.7348 24 21V21.0068C24 21.2721 23.8946 21.5263 23.7071 21.7139C23.5196 21.9014 23.2652 22.0068 23 22.0068L14 22ZM9 22C8.73478 22 8.48044 21.8946 8.29291 21.707C8.10537 21.5195 8 21.2652 8 21C8 20.7348 8.10537 20.4805 8.29291 20.293C8.48044 20.1054 8.73478 20 9 20H10C10.2652 20 10.5196 20.1054 10.7071 20.293C10.8946 20.4805 11 20.7348 11 21V21.0068C11 21.2721 10.8946 21.5263 10.7071 21.7139C10.5196 21.9014 10.2652 22.0068 10 22.0068L9 22ZM14 17C13.7348 17 13.4804 16.8946 13.2929 16.707C13.1054 16.5195 13 16.2652 13 16C13 15.7348 13.1054 15.4805 13.2929 15.293C13.4804 15.1054 13.7348 15 14 15H23C23.2652 15 23.5196 15.1054 23.7071 15.293C23.8946 15.4805 24 15.7348 24 16V16.0068C24 16.2721 23.8946 16.5263 23.7071 16.7139C23.5196 16.9014 23.2652 17.0068 23 17.0068L14 17ZM9 17C8.73478 17 8.48044 16.8946 8.29291 16.707C8.10537 16.5195 8 16.2652 8 16C8 15.7348 8.10537 15.4805 8.29291 15.293C8.48044 15.1054 8.73478 15 9 15H10C10.2652 15 10.5196 15.1054 10.7071 15.293C10.8946 15.4805 11 15.7348 11 16V16.0068C11 16.2721 10.8946 16.5263 10.7071 16.7139C10.5196 16.9014 10.2652 17.0068 10 17.0068L9 17ZM14 12C13.7348 12 13.4804 11.8946 13.2929 11.707C13.1054 11.5195 13 11.2652 13 11C13 10.7348 13.1054 10.4805 13.2929 10.293C13.4804 10.1054 13.7348 10 14 10H23C23.2652 10 23.5196 10.1054 23.7071 10.293C23.8946 10.4805 24 10.7348 24 11V11.0068C24 11.2721 23.8946 11.5263 23.7071 11.7139C23.5196 11.9014 23.2652 12.0068 23 12.0068L14 12ZM9 12C8.73478 12 8.48044 11.8946 8.29291 11.707C8.10537 11.5195 8 11.2652 8 11C8 10.7348 8.10537 10.4805 8.29291 10.293C8.48044 10.1054 8.73478 10 9 10H10C10.2652 10 10.5196 10.1054 10.7071 10.293C10.8946 10.4805 11 10.7348 11 11V11.0068C11 11.2721 10.8946 11.5263 10.7071 11.7139C10.5196 11.9014 10.2652 12.0068 10 12.0068L9 12Z" fill="#5135FF"/>
</svg>
