<svg width="32" height="32" viewBox="0 0 32 32" fill="none" xmlns="http://www.w3.org/2000/svg">
<path d="M26.3239 21.5999V21.5879L26.3169 21.5999H26.3239Z" fill="#5135FF"/>
<path d="M18.839 19.3892H25.159C25.912 19.39 26.6339 19.6894 27.1663 20.2219C27.6988 20.7543 27.9982 21.4762 27.999 22.2292V27.1532C27.9972 27.9054 27.6972 28.6263 27.1649 29.1579C26.6326 29.6894 25.9113 29.9884 25.159 29.9892H18.839C18.0867 29.9884 17.3654 29.6894 16.8331 29.1579C16.3008 28.6263 16.0009 27.9054 15.999 27.1532V22.2292C15.9998 21.4762 16.2993 20.7543 16.8317 20.2219C17.3641 19.6894 18.0861 19.39 18.839 19.3892ZM25.159 27.9892C25.381 27.9889 25.5939 27.9009 25.7513 27.7443C25.9087 27.5876 25.9977 27.3752 25.999 27.1532V22.2292C25.9988 22.0065 25.9102 21.793 25.7527 21.6355C25.5952 21.478 25.3817 21.3894 25.159 21.3892H18.839C18.6163 21.3894 18.4028 21.478 18.2453 21.6355C18.0879 21.793 17.9993 22.0065 17.999 22.2292V27.1532C17.9993 27.3759 18.0879 27.5894 18.2453 27.7468C18.4028 27.9043 18.6163 27.9929 18.839 27.9932L25.159 27.9892Z" fill="#5135FF"/>
<path d="M25.008 18.993H23.008V17.63C23.0002 17.4733 22.9308 17.3261 22.8148 17.2204C22.6988 17.1147 22.5458 17.0592 22.389 17.066H21.451C21.2944 17.0595 21.1416 17.1151 21.0259 17.2208C20.9101 17.3264 20.8408 17.4735 20.833 17.63V18.993H18.833V17.63C18.8409 16.9431 19.121 16.2874 19.6118 15.8067C20.1026 15.326 20.7641 15.0596 21.451 15.066H22.389C23.0757 15.0609 23.7364 15.3277 24.2271 15.8081C24.7178 16.2884 24.9985 16.9434 25.008 17.63V18.993Z" fill="#5135FF"/>
<path d="M22 26.2149C21.7348 26.2149 21.4804 26.1096 21.2929 25.9221C21.1054 25.7345 21 25.4802 21 25.2149V24.1689C21 23.9037 21.1054 23.6494 21.2929 23.4618C21.4804 23.2743 21.7348 23.1689 22 23.1689C22.2652 23.1689 22.5196 23.2743 22.7071 23.4618C22.8946 23.6494 23 23.9037 23 24.1689V25.2149C23 25.4802 22.8946 25.7345 22.7071 25.9221C22.5196 26.1096 22.2652 26.2149 22 26.2149Z" fill="#5135FF"/>
<path d="M16 4C11.543 4 4 4.872 4 8.142V24.485C4 27.42 11.694 27.91 14.935 27.985V25.993C9.585 25.873 6.523 24.911 6 24.363V18.463C8.547 19.74 12.979 20.143 16 20.143C16.317 20.143 15.656 20.136 16 20.127V18.127C15.673 18.136 16.342 18.141 16 18.141C9.913 18.141 6.2 16.716 6 15.999V10.605C8.547 11.882 12.979 12.286 16 12.286C19.021 12.286 23.453 11.886 26 10.605V17.586H28V8.142C28 4.872 20.457 4 16 4ZM16 10.286C9.922 10.286 6.213 8.865 6 8.162V8.154C6.214 7.421 9.924 6 16 6C22.043 6 25.747 7.405 26 8.142C25.751 8.88 22.048 10.286 16 10.286Z" fill="#5135FF"/>
</svg>
