<svg width="32" height="32" viewBox="0 0 32 32" fill="none" xmlns="http://www.w3.org/2000/svg">
<path d="M25.8159 28H23.8159V20H25.8159V28Z" fill="#5135FF"/>
<path d="M23.8369 15H25.8369C26.3673 15 26.8761 15.2107 27.2511 15.5858C27.6262 15.9609 27.8369 16.4696 27.8369 17V19C27.8369 19.5304 27.6262 20.0391 27.2511 20.4142C26.8761 20.7893 26.3673 21 25.8369 21H23.8369C23.3065 21 22.7978 20.7893 22.4227 20.4142C22.0476 20.0391 21.8369 19.5304 21.8369 19V17C21.8369 16.4696 22.0476 15.9609 22.4227 15.5858C22.7978 15.2107 23.3065 15 23.8369 15ZM25.8369 19V17H23.8369V19H25.8369Z" fill="#5135FF"/>
<path d="M27 22.417H25.283V23.584H27V22.417Z" fill="#5135FF"/>
<path d="M24.783 21.917H27.5V24.084H24.783V21.917ZM26.5 22.917H25.783V23.084H26.5V22.917Z" fill="#5135FF"/>
<path d="M26.999 27H25.282V25H26.999V27Z" fill="#5135FF"/>
<path d="M16 26C9.99 26 6.557 24.947 6 24.364V18.464C8.547 19.74 12.979 20.144 16 20.144C17.043 20.144 18.257 20.091 19.5 19.976V17.976C18.442 18.082 17.277 18.147 16 18.147C9.915 18.147 6.2 16.721 6 16.004V10.606C8.547 11.882 12.979 12.287 16 12.287C19.021 12.287 23.453 11.887 26 10.606V13H28V8.143C28 4.872 20.457 4 16 4C11.543 4 4 4.872 4 8.143V24.486C4 27.83 14 28 16 28C16.6 28 17.936 27.984 19.5 27.871V25.871C18.451 25.95 17.289 26 16 26ZM6 8.155C6.214 7.422 9.924 6 16 6C22.043 6 25.747 7.406 26 8.143C25.751 8.88 22.048 10.287 16 10.287C9.922 10.287 6.213 8.865 6 8.162V8.155Z" fill="#5135FF"/>
</svg>
