<svg width="32" height="32" viewBox="0 0 32 32" fill="none" xmlns="http://www.w3.org/2000/svg">
<path d="M9.99992 29.9999C9.7347 29.9999 9.48035 29.8946 9.29281 29.707C9.10528 29.5195 8.99992 29.2651 8.99992 28.9999V10.4139L3.29292 4.70692C3.11076 4.51832 3.00997 4.26571 3.01224 4.00352C3.01452 3.74132 3.11969 3.49051 3.3051 3.3051C3.49051 3.11969 3.74132 3.01452 4.00352 3.01224C4.26571 3.00997 4.51832 3.11076 4.70692 3.29292L10.7069 9.29292C10.8945 9.48041 10.9999 9.73472 10.9999 9.99992V28.9999C10.9999 29.2651 10.8946 29.5195 10.707 29.707C10.5195 29.8946 10.2651 29.9999 9.99992 29.9999Z" fill="#5135FF"/>
<path d="M3 9C2.73478 9 2.48043 8.89464 2.29289 8.70711C2.10536 8.51957 2 8.26522 2 8V3C2 2.73478 2.10536 2.48043 2.29289 2.29289C2.48043 2.10536 2.73478 2 3 2H8C8.26522 2 8.51957 2.10536 8.70711 2.29289C8.89464 2.48043 9 2.73478 9 3C9 3.26522 8.89464 3.51957 8.70711 3.70711C8.51957 3.89464 8.26522 4 8 4H4V8C4 8.26522 3.89464 8.51957 3.70711 8.70711C3.51957 8.89464 3.26522 9 3 9Z" fill="#5135FF"/>
<path d="M16 30C15.7348 30 15.4804 29.8946 15.2929 29.7071C15.1054 29.5196 15 29.2652 15 29V3C15 2.73478 15.1054 2.48043 15.2929 2.29289C15.4804 2.10536 15.7348 2 16 2C16.2652 2 16.5196 2.10536 16.7071 2.29289C16.8946 2.48043 17 2.73478 17 3V29C17 29.2652 16.8946 29.5196 16.7071 29.7071C16.5196 29.8946 16.2652 30 16 30Z" fill="#5135FF"/>
<path d="M29 2H24C23.7348 2 23.4804 2.10536 23.2929 2.29289C23.1054 2.48043 23 2.73478 23 3C23 3.26522 23.1054 3.51957 23.2929 3.70711C23.4804 3.89464 23.7348 4 24 4H28V8C28 8.26522 28.1054 8.51957 28.2929 8.70711C28.4804 8.89464 28.7348 9 29 9C29.2652 9 29.5196 8.89464 29.7071 8.70711C29.8946 8.51957 30 8.26522 30 8V3C30 2.73478 29.8946 2.48043 29.7071 2.29289C29.5196 2.10536 29.2652 2 29 2Z" fill="#5135FF"/>
<path d="M22 24C21.7348 24 21.4804 24.1054 21.2929 24.2929C21.1054 24.4804 21 24.7348 21 25V29C21 29.2652 21.1054 29.5196 21.2929 29.7071C21.4804 29.8946 21.7348 30 22 30C22.2652 30 22.5196 29.8946 22.7071 29.7071C22.8946 29.5196 23 29.2652 23 29V25C23 24.7348 22.8946 24.4804 22.7071 24.2929C22.5196 24.1054 22.2652 24 22 24Z" fill="#5135FF"/>
<path d="M22 16C21.7348 16 21.4804 16.1054 21.2929 16.2929C21.1054 16.4804 21 16.7348 21 17V21C21 21.2652 21.1054 21.5196 21.2929 21.7071C21.4804 21.8946 21.7348 22 22 22C22.2652 22 22.5196 21.8946 22.7071 21.7071C22.8946 21.5196 23 21.2652 23 21V17C23 16.7348 22.8946 16.4804 22.7071 16.2929C22.5196 16.1054 22.2652 16 22 16Z" fill="#5135FF"/>
<path d="M23 8C22.7348 8.00006 22.4805 8.10545 22.293 8.293L21.293 9.293C21.1054 9.48049 21.0001 9.73481 21 10V13C21 13.2652 21.1054 13.5196 21.2929 13.7071C21.4804 13.8946 21.7348 14 22 14C22.2652 14 22.5196 13.8946 22.7071 13.7071C22.8946 13.5196 23 13.2652 23 13V10.414L23.707 9.707C23.8468 9.56715 23.942 9.38898 23.9806 9.19503C24.0192 9.00108 23.9993 8.80005 23.9237 8.61735C23.848 8.43465 23.7199 8.27848 23.5555 8.1686C23.391 8.05871 23.1978 8.00004 23 8Z" fill="#5135FF"/>
<path d="M27.9999 3C27.7347 3.00006 27.4804 3.10545 27.2929 3.293L25.2929 5.293C25.1108 5.4816 25.01 5.7342 25.0122 5.9964C25.0145 6.2586 25.1197 6.50941 25.3051 6.69482C25.4905 6.88023 25.7413 6.9854 26.0035 6.98767C26.2657 6.98995 26.5183 6.88916 26.7069 6.707L28.7069 4.707C28.8467 4.56715 28.9419 4.38898 28.9805 4.19503C29.0191 4.00108 28.9993 3.80005 28.9236 3.61735C28.8479 3.43465 28.7198 3.27848 28.5554 3.1686C28.391 3.05871 28.1977 3.00004 27.9999 3Z" fill="#5135FF"/>
<path d="M5.99979 20.9999C5.73459 20.9999 5.48028 20.8945 5.29279 20.7069L2.29279 17.7069C2.10532 17.5194 2 17.2651 2 16.9999C2 16.7348 2.10532 16.4804 2.29279 16.2929L5.29279 13.2929C5.48139 13.1108 5.73399 13.01 5.99619 13.0122C6.25838 13.0145 6.5092 13.1197 6.6946 13.3051C6.88001 13.4905 6.98518 13.7413 6.98746 14.0035C6.98974 14.2657 6.88894 14.5183 6.70679 14.7069L4.41379 16.9999L6.70679 19.2929C6.8466 19.4328 6.9418 19.6109 6.98037 19.8049C7.01894 19.9988 6.99913 20.1999 6.92346 20.3826C6.84779 20.5653 6.71965 20.7214 6.55524 20.8313C6.39084 20.9412 6.19754 20.9999 5.99979 20.9999Z" fill="#5135FF"/>
<path d="M13.9999 26.0002C13.9999 26.2654 13.8945 26.5197 13.7069 26.7072L10.7069 29.7072C10.5194 29.8947 10.2651 30 9.99992 30C9.73475 30 9.48045 29.8947 9.29292 29.7072L6.29292 26.7072C6.11076 26.5186 6.00997 26.266 6.01224 26.0038C6.01452 25.7416 6.11969 25.4908 6.3051 25.3054C6.49051 25.12 6.74132 25.0148 7.00352 25.0125C7.26571 25.0103 7.51832 25.1111 7.70692 25.2932L9.99992 27.5862L12.2929 25.2932C12.4328 25.1534 12.6109 25.0582 12.8049 25.0196C12.9988 24.9811 13.1999 25.0009 13.3826 25.0765C13.5653 25.1522 13.7214 25.2803 13.8313 25.4448C13.9412 25.6092 13.9999 25.8025 13.9999 26.0002Z" fill="#5135FF"/>
<path d="M25.9999 26.0002C25.9999 26.2654 25.8945 26.5197 25.7069 26.7072L22.7069 29.7072C22.5194 29.8947 22.2651 30 21.9999 30C21.7348 30 21.4804 29.8947 21.2929 29.7072L18.2929 26.7072C18.1108 26.5186 18.01 26.266 18.0122 26.0038C18.0145 25.7416 18.1197 25.4908 18.3051 25.3054C18.4905 25.12 18.7413 25.0148 19.0035 25.0125C19.2657 25.0103 19.5183 25.1111 19.7069 25.2932L21.9999 27.5862L24.2929 25.2932C24.4328 25.1534 24.6109 25.0582 24.8049 25.0196C24.9988 24.9811 25.1999 25.0009 25.3826 25.0765C25.5653 25.1522 25.7214 25.2803 25.8313 25.4448C25.9412 25.6092 25.9999 25.8025 25.9999 26.0002Z" fill="#5135FF"/>
<path d="M25.9998 20.9999C25.802 20.9999 25.6087 20.9412 25.4443 20.8313C25.2799 20.7214 25.1518 20.5653 25.0761 20.3826C25.0004 20.1999 24.9806 19.9988 25.0192 19.8049C25.0578 19.6109 25.153 19.4328 25.2928 19.2929L27.5858 16.9999L25.2928 14.7069C25.1106 14.5183 25.0098 14.2657 25.0121 14.0035C25.0144 13.7413 25.1196 13.4905 25.305 13.3051C25.4904 13.1197 25.7412 13.0145 26.0034 13.0122C26.2656 13.01 26.5182 13.1108 26.7068 13.2929L29.7068 16.2929C29.8943 16.4804 29.9996 16.7348 29.9996 16.9999C29.9996 17.2651 29.8943 17.5194 29.7068 17.7069L26.7068 20.7069C26.5193 20.8945 26.265 20.9999 25.9998 20.9999Z" fill="#5135FF"/>
</svg>
