<svg width="32" height="32" viewBox="0 0 32 32" fill="none" xmlns="http://www.w3.org/2000/svg">
<path d="M31.5 10.974C31.3825 10.5909 31.1632 10.2469 30.8656 9.9785C30.568 9.71013 30.2032 9.52748 29.81 9.45C29.0873 9.31267 28.3545 9.23408 27.619 9.215C27.266 6.417 26.474 5 25.258 5C24.692 5 23.229 5 22.509 11.333H21.258V9H18.258V11.333H17.258V9H14.258V11.333H13.258V9H10.258V11.333H9.25805V9H6.25805V11.333H5.25805V9H2.25805V11.333H1.40005C1.13483 11.333 0.880476 11.4384 0.69294 11.6259C0.505404 11.8134 0.400047 12.0678 0.400047 12.333V13.4C0.398552 13.4293 0.398552 13.4587 0.400047 13.488C0.730047 17.124 3.00005 24 9.25805 24C14.675 24 18.791 22.657 26.137 15.357C26.667 15.201 27.949 14.815 29.254 14.341C29.9086 14.0937 30.4965 13.6972 30.971 13.183C31.2505 12.8971 31.4471 12.5407 31.5399 12.1519C31.6327 11.763 31.6182 11.3563 31.498 10.975M29.525 11.801C29.2631 12.0911 28.9376 12.3166 28.574 12.46C26.974 13.041 25.357 13.5 25.34 13.505C25.1759 13.5513 25.0264 13.6391 24.906 13.76C17.9 20.766 14.277 22 9.25805 22C3.41405 22 2.47505 14.08 2.40105 13.353L23.412 13.334C23.6618 13.3351 23.9028 13.2427 24.0879 13.0751C24.2729 12.9074 24.3886 12.6766 24.412 12.428C24.5469 10.8164 24.8315 9.22085 25.262 7.662C25.4942 8.52028 25.6478 9.3979 25.721 10.284C25.7422 10.5344 25.8568 10.7677 26.0421 10.9374C26.2274 11.1071 26.4698 11.2009 26.721 11.2C27.6217 11.1824 28.522 11.2527 29.409 11.41C29.452 11.4159 29.4924 11.434 29.5254 11.4621C29.5584 11.4903 29.5826 11.5274 29.595 11.569C29.6084 11.6095 29.6097 11.653 29.5987 11.6943C29.5877 11.7355 29.5649 11.7726 29.533 11.801" fill="#5135FF"/>
<path d="M17.2588 1H14.2588V4H17.2588V1Z" fill="#5135FF"/>
<path d="M17.2588 5H14.2588V8H17.2588V5Z" fill="#5135FF"/>
<path d="M9.25879 5H6.25879V8H9.25879V5Z" fill="#5135FF"/>
<path d="M13.2588 5H10.2588V8H13.2588V5Z" fill="#5135FF"/>
<path d="M6.14491 26.5C5.8162 26.5 5.49487 26.5975 5.22155 26.7801C4.94824 26.9627 4.73522 27.2223 4.60942 27.526C4.48363 27.8297 4.45072 28.1638 4.51485 28.4862C4.57897 28.8086 4.73726 29.1048 4.9697 29.3372C5.20213 29.5696 5.49827 29.7279 5.82067 29.7921C6.14307 29.8562 6.47724 29.8233 6.78093 29.6975C7.08462 29.5717 7.34419 29.3587 7.52681 29.0854C7.70944 28.812 7.80691 28.4907 7.80691 28.162C7.80665 27.7213 7.63146 27.2987 7.31983 26.9871C7.0082 26.6755 6.58562 26.5003 6.14491 26.5ZM6.14491 29.191C5.94139 29.191 5.74245 29.1306 5.57323 29.0176C5.40401 28.9045 5.27212 28.7438 5.19424 28.5558C5.11636 28.3678 5.09598 28.1609 5.13568 27.9613C5.17539 27.7616 5.27339 27.5783 5.4173 27.4344C5.56121 27.2905 5.74456 27.1925 5.94416 27.1528C6.14377 27.1131 6.35067 27.1334 6.53869 27.2113C6.72672 27.2892 6.88743 27.4211 7.00049 27.5903C7.11356 27.7595 7.17391 27.9585 7.17391 28.162C7.17338 28.4347 7.0648 28.6962 6.87194 28.889C6.67908 29.0819 6.41766 29.1905 6.14491 29.191Z" fill="#5135FF"/>
<path d="M4.00795 25.0791C3.92387 25.0791 3.84324 25.1125 3.7838 25.1719C3.72435 25.2314 3.69095 25.312 3.69095 25.3961V26.8631C3.39556 26.6304 3.02992 26.5047 2.65386 26.5068C2.2778 26.5088 1.91356 26.6385 1.62074 26.8744C1.32791 27.1104 1.12383 27.4388 1.04188 27.8058C0.959921 28.1728 1.00494 28.5568 1.16958 28.8949C1.33422 29.233 1.60872 29.5053 1.94819 29.6671C2.28766 29.8289 2.672 29.8708 3.03834 29.7858C3.40468 29.7008 3.73134 29.494 3.96487 29.1992C4.19841 28.9045 4.325 28.5392 4.32395 28.1631V25.4001C4.32408 25.3585 4.316 25.3173 4.30018 25.2789C4.28436 25.2404 4.2611 25.2055 4.23175 25.176C4.20239 25.1466 4.16751 25.1232 4.12911 25.1073C4.0907 25.0913 4.04953 25.0831 4.00795 25.0831M2.66195 29.1951C2.45843 29.1951 2.25948 29.1348 2.09027 29.0217C1.92105 28.9086 1.78916 28.7479 1.71128 28.5599C1.63339 28.3719 1.61302 28.165 1.65272 27.9654C1.69242 27.7657 1.79043 27.5824 1.93434 27.4385C2.07824 27.2946 2.26159 27.1966 2.4612 27.1569C2.66081 27.1172 2.8677 27.1375 3.05573 27.2154C3.24375 27.2933 3.40446 27.4252 3.51753 27.5944C3.6306 27.7636 3.69095 27.9626 3.69095 28.1661C3.69042 28.4388 3.58184 28.7003 3.38898 28.8931C3.19612 29.086 2.93469 29.1946 2.66195 29.1951Z" fill="#5135FF"/>
<path d="M29.3383 26.5002C28.9645 26.5001 28.6018 26.6266 28.3093 26.8592V25.4002C28.3117 25.3572 28.3053 25.3141 28.2905 25.2736C28.2757 25.2331 28.2528 25.196 28.2231 25.1647C28.1935 25.1333 28.1578 25.1084 28.1182 25.0913C28.0786 25.0742 28.0359 25.0654 27.9928 25.0654C27.9497 25.0654 27.907 25.0742 27.8674 25.0913C27.8278 25.1084 27.792 25.1333 27.7624 25.1647C27.7328 25.196 27.7099 25.2331 27.6951 25.2736C27.6802 25.3141 27.6739 25.3572 27.6763 25.4002V28.1702C27.6779 28.4986 27.7767 28.8191 27.9603 29.0914C28.1438 29.3637 28.404 29.5754 28.7078 29.7C29.0116 29.8246 29.3455 29.8563 29.6674 29.7913C29.9893 29.7263 30.2847 29.5674 30.5163 29.3346C30.7479 29.1019 30.9054 28.8057 30.9689 28.4835C31.0324 28.1614 30.999 27.8276 30.873 27.5244C30.747 27.2211 30.5339 26.9621 30.2608 26.7798C29.9877 26.5975 29.6667 26.5002 29.3383 26.5002ZM29.3383 29.1912C29.1348 29.1912 28.9358 29.1309 28.7666 29.0178C28.5974 28.9047 28.4655 28.744 28.3876 28.556C28.3097 28.368 28.2893 28.1611 28.3291 27.9615C28.3688 27.7619 28.4668 27.5785 28.6107 27.4346C28.7546 27.2907 28.9379 27.1927 29.1375 27.153C29.3371 27.1133 29.544 27.1337 29.7321 27.2116C29.9201 27.2894 30.0808 27.4213 30.1939 27.5905C30.3069 27.7598 30.3673 27.9587 30.3673 28.1622C30.3668 28.435 30.2582 28.6964 30.0653 28.8893C29.8724 29.0821 29.611 29.1907 29.3383 29.1912Z" fill="#5135FF"/>
<path d="M9.78614 27.1369C10.0022 27.1387 10.2122 27.2087 10.3861 27.3369C10.4197 27.3614 10.4577 27.379 10.4981 27.3888C10.5385 27.3986 10.5804 27.4003 10.6214 27.3939C10.6625 27.3875 10.7019 27.3731 10.7373 27.3514C10.7728 27.3298 10.8036 27.3014 10.8281 27.2679C10.8526 27.2343 10.8703 27.1963 10.8801 27.1559C10.8898 27.1155 10.8916 27.0736 10.8852 27.0326C10.8788 26.9915 10.8643 26.9521 10.8427 26.9167C10.8211 26.8812 10.7927 26.8504 10.7591 26.8259C10.4757 26.6174 10.133 26.5052 9.78114 26.5059C9.34035 26.5059 8.91761 26.681 8.60593 26.9927C8.29424 27.3043 8.11914 27.7271 8.11914 28.1679C8.11914 28.6087 8.29424 29.0314 8.60593 29.3431C8.91761 29.6548 9.34035 29.8299 9.78114 29.8299C10.133 29.8305 10.4757 29.7184 10.7591 29.5099C10.7973 29.4877 10.8304 29.4578 10.8563 29.4221C10.8822 29.3863 10.9003 29.3456 10.9095 29.3024C10.9187 29.2592 10.9188 29.2146 10.9097 29.1715C10.9006 29.1283 10.8825 29.0875 10.8567 29.0517C10.8309 29.0159 10.7979 28.9859 10.7597 28.9637C10.7216 28.9414 10.6793 28.9274 10.6354 28.9225C10.5916 28.9176 10.5472 28.922 10.5051 28.9353C10.463 28.9486 10.4242 28.9706 10.3911 28.9999C10.2597 29.0959 10.1073 29.1593 9.94658 29.185C9.78583 29.2106 9.62129 29.1978 9.46647 29.1475C9.31165 29.0972 9.17097 29.011 9.05598 28.8957C8.94099 28.7805 8.85498 28.6397 8.805 28.4847C8.75503 28.3298 8.74252 28.1653 8.76851 28.0046C8.79449 27.8439 8.85823 27.6916 8.95449 27.5604C9.05074 27.4291 9.17677 27.3225 9.32221 27.2494C9.46765 27.1763 9.62836 27.1388 9.79114 27.1399" fill="#5135FF"/>
<path d="M14.0918 26.4998C14.0472 26.4289 13.9762 26.3785 13.8945 26.3598C13.8128 26.341 13.727 26.3554 13.6558 26.3998L11.7648 27.5738V25.3158C11.7603 25.2349 11.725 25.1589 11.6661 25.1032C11.6073 25.0476 11.5293 25.0166 11.4483 25.0166C11.3674 25.0166 11.2894 25.0476 11.2306 25.1032C11.1717 25.1589 11.1364 25.2349 11.1318 25.3158V29.4318C11.1294 29.4749 11.1358 29.518 11.1506 29.5585C11.1654 29.599 11.1884 29.636 11.218 29.6674C11.2476 29.6987 11.2833 29.7237 11.3229 29.7407C11.3625 29.7578 11.4052 29.7666 11.4483 29.7666C11.4915 29.7666 11.5342 29.7578 11.5738 29.7407C11.6134 29.7237 11.6491 29.6987 11.6787 29.6674C11.7083 29.636 11.7313 29.599 11.7461 29.5585C11.7609 29.518 11.7673 29.4749 11.7648 29.4318V28.3118L12.1598 28.0668L13.5878 29.6448C13.6179 29.6769 13.6544 29.7023 13.6948 29.7195C13.7353 29.7367 13.7789 29.7453 13.8228 29.7448C13.9013 29.7451 13.977 29.7158 14.0348 29.6628C14.0658 29.635 14.0909 29.6014 14.1088 29.5638C14.1267 29.5263 14.137 29.4856 14.1391 29.4441C14.1413 29.4026 14.1352 29.361 14.1212 29.3218C14.1073 29.2827 14.0857 29.2466 14.0578 29.2158L12.7068 27.7228L13.9898 26.9228C14.0251 26.9008 14.0556 26.872 14.0797 26.8382C14.1038 26.8043 14.121 26.766 14.1303 26.7255C14.1396 26.685 14.1408 26.6431 14.1338 26.6021C14.1269 26.5612 14.1119 26.522 14.0898 26.4868" fill="#5135FF"/>
<path d="M15.9201 26.5C15.6531 26.5 15.3901 26.5658 15.1546 26.6918C14.9191 26.8177 14.7183 26.9998 14.57 27.2219C14.4217 27.444 14.3305 27.6993 14.3046 27.9651C14.2786 28.2309 14.3186 28.4991 14.4211 28.7457C14.5235 28.9923 14.6853 29.2099 14.892 29.379C15.0987 29.5482 15.3439 29.6637 15.6059 29.7153C15.8679 29.767 16.1387 29.7532 16.3941 29.6752C16.6495 29.5971 16.8817 29.4573 17.0701 29.268C17.1013 29.2389 17.1263 29.2039 17.1436 29.1649C17.1609 29.126 17.1701 29.084 17.1708 29.0414C17.1715 28.9987 17.1636 28.9564 17.1476 28.917C17.1316 28.8775 17.1077 28.8416 17.0775 28.8116C17.0473 28.7815 17.0114 28.7578 16.9718 28.742C16.9323 28.7261 16.8899 28.7184 16.8473 28.7193C16.8047 28.7202 16.7627 28.7296 16.7239 28.7471C16.685 28.7646 16.6501 28.7897 16.6211 28.821C16.5023 28.9404 16.3548 29.0274 16.1929 29.0738C16.0309 29.1203 15.8598 29.1246 15.6957 29.0863C15.5316 29.048 15.3801 28.9685 15.2554 28.8552C15.1306 28.7419 15.0369 28.5987 14.9831 28.439H17.2271C17.3109 28.4387 17.3911 28.4054 17.4503 28.3462C17.5095 28.287 17.5429 28.2067 17.5431 28.123C17.5426 27.6927 17.3714 27.2802 17.0672 26.976C16.7629 26.6717 16.3504 26.5005 15.9201 26.5ZM14.9831 27.806C15.0491 27.6096 15.1751 27.4389 15.3433 27.318C15.5115 27.197 15.7135 27.132 15.9206 27.132C16.1278 27.132 16.3297 27.197 16.498 27.318C16.6662 27.4389 16.7922 27.6096 16.8581 27.806H14.9831Z" fill="#5135FF"/>
<path d="M20.0519 26.588C19.5284 26.4939 18.989 26.5469 18.4939 26.741C18.4963 26.698 18.4899 26.6549 18.4751 26.6144C18.4603 26.5739 18.4373 26.5368 18.4077 26.5055C18.3781 26.4741 18.3424 26.4492 18.3028 26.4321C18.2632 26.4151 18.2205 26.4062 18.1774 26.4062C18.1342 26.4062 18.0915 26.4151 18.0519 26.4321C18.0123 26.4492 17.9766 26.4741 17.947 26.5055C17.9174 26.5368 17.8944 26.5739 17.8796 26.6144C17.8648 26.6549 17.8584 26.698 17.8609 26.741V29.511C17.8584 29.5541 17.8648 29.5972 17.8796 29.6377C17.8944 29.6782 17.9174 29.7153 17.947 29.7466C17.9766 29.778 18.0123 29.8029 18.0519 29.82C18.0915 29.837 18.1342 29.8458 18.1774 29.8458C18.2205 29.8458 18.2632 29.837 18.3028 29.82C18.3424 29.8029 18.3781 29.778 18.4077 29.7466C18.4373 29.7153 18.4603 29.6782 18.4751 29.6377C18.4899 29.5972 18.4963 29.5541 18.4939 29.511V27.771C18.4876 27.6993 18.4986 27.6271 18.5259 27.5605C18.5532 27.4939 18.5961 27.4348 18.6509 27.388C19.0492 27.1838 19.5054 27.1217 19.9439 27.212C20.0247 27.2221 20.1063 27.2006 20.1717 27.1521C20.2372 27.1036 20.2814 27.0318 20.2953 26.9515C20.3092 26.8713 20.2917 26.7887 20.2463 26.7211C20.201 26.6534 20.1314 26.6058 20.0519 26.588Z" fill="#5135FF"/>
<path d="M22.619 26.662C22.3118 26.6509 22.0074 26.7242 21.739 26.874V25.554C21.7414 25.511 21.735 25.4679 21.7202 25.4274C21.7054 25.3869 21.6825 25.3498 21.6528 25.3185C21.6232 25.2871 21.5875 25.2622 21.5479 25.2451C21.5083 25.228 21.4656 25.2192 21.4225 25.2192C21.3793 25.2192 21.3367 25.228 21.2971 25.2451C21.2574 25.2622 21.2217 25.2871 21.1921 25.3185C21.1625 25.3498 21.1396 25.3869 21.1247 25.4274C21.1099 25.4679 21.1035 25.511 21.106 25.554V29.432C21.1035 29.4751 21.1099 29.5182 21.1247 29.5587C21.1396 29.5992 21.1625 29.6363 21.1921 29.6676C21.2217 29.6989 21.2574 29.7239 21.2971 29.741C21.3367 29.758 21.3793 29.7668 21.4225 29.7668C21.4656 29.7668 21.5083 29.758 21.5479 29.741C21.5875 29.7239 21.6232 29.6989 21.6528 29.6676C21.6825 29.6363 21.7054 29.5992 21.7202 29.5587C21.735 29.5182 21.7414 29.4751 21.739 29.432V28.087C21.7299 27.9816 21.743 27.8754 21.7775 27.7754C21.8119 27.6753 21.8669 27.5836 21.939 27.506C22.122 27.3605 22.3513 27.2856 22.585 27.295H22.606C23.416 27.295 23.473 27.761 23.477 27.849V29.512C23.4815 29.5929 23.5168 29.669 23.5757 29.7246C23.6346 29.7802 23.7125 29.8112 23.7935 29.8112C23.8745 29.8112 23.9524 29.7802 24.0112 29.7246C24.0701 29.669 24.1054 29.5929 24.11 29.512V27.849C24.11 27.838 24.093 26.667 22.61 26.662" fill="#5135FF"/>
<path d="M27.1212 26.5C27.0371 26.5 26.9565 26.5334 26.897 26.5928C26.8376 26.6523 26.8042 26.7329 26.8042 26.817V28.447C26.7623 28.6434 26.6516 28.8183 26.4921 28.9402C26.3325 29.0622 26.1347 29.1231 25.9342 29.112C25.7905 29.1178 25.6481 29.0834 25.5229 29.0127C25.3976 28.9421 25.2945 28.8379 25.2252 28.712C25.1161 28.5264 25.06 28.3143 25.0632 28.099V26.9C25.0656 26.8569 25.0592 26.8138 25.0444 26.7733C25.0296 26.7328 25.0067 26.6958 24.977 26.6644C24.9474 26.6331 24.9117 26.6081 24.8721 26.5911C24.8325 26.574 24.7898 26.5652 24.7467 26.5652C24.7036 26.5652 24.6609 26.574 24.6213 26.5911C24.5817 26.6081 24.546 26.6331 24.5163 26.6644C24.4867 26.6958 24.4638 26.7328 24.449 26.7733C24.4342 26.8138 24.4278 26.8569 24.4302 26.9V28.1C24.4267 28.4312 24.5142 28.7571 24.6832 29.042C24.8085 29.2617 24.991 29.4434 25.2112 29.5677C25.4315 29.692 25.6813 29.7543 25.9342 29.748C26.2455 29.7555 26.5517 29.6672 26.8112 29.495C26.8275 29.5713 26.8713 29.6389 26.9344 29.6849C26.9974 29.7309 27.0752 29.752 27.1529 29.7442C27.2305 29.7364 27.3026 29.7003 27.3552 29.6427C27.4079 29.585 27.4374 29.51 27.4382 29.432V26.821C27.4382 26.7369 27.4048 26.6563 27.3453 26.5968C27.2859 26.5374 27.2053 26.504 27.1212 26.504" fill="#5135FF"/>
</svg>
