<svg width="32" height="32" viewBox="0 0 32 32" fill="none" xmlns="http://www.w3.org/2000/svg">
<path d="M10 9H19C19.2652 9 19.5196 8.89464 19.7071 8.70711C19.8946 8.51957 20 8.26522 20 8C20 7.73478 19.8946 7.48043 19.7071 7.29289C19.5196 7.10536 19.2652 7 19 7H10C9.73478 7 9.48043 7.10536 9.29289 7.29289C9.10536 7.48043 9 7.73478 9 8C9 8.26522 9.10536 8.51957 9.29289 8.70711C9.48043 8.89464 9.73478 9 10 9Z" fill="#5135FF"/>
<path d="M22 13H10C9.73478 13 9.48043 13.1054 9.29289 13.2929C9.10536 13.4804 9 13.7348 9 14C9 14.2652 9.10536 14.5196 9.29289 14.7071C9.48043 14.8946 9.73478 15 10 15H22C22.2652 15 22.5196 14.8946 22.7071 14.7071C22.8946 14.5196 23 14.2652 23 14C23 13.7348 22.8946 13.4804 22.7071 13.2929C22.5196 13.1054 22.2652 13 22 13Z" fill="#5135FF"/>
<path d="M22 19H10C9.73478 19 9.48043 19.1054 9.29289 19.2929C9.10536 19.4804 9 19.7348 9 20C9 20.2652 9.10536 20.5196 9.29289 20.7071C9.48043 20.8946 9.73478 21 10 21H22C22.2652 21 22.5196 20.8946 22.7071 20.7071C22.8946 20.5196 23 20.2652 23 20C23 19.7348 22.8946 19.4804 22.7071 19.2929C22.5196 19.1054 22.2652 19 22 19Z" fill="#5135FF"/>
<path d="M6 3H26V17H28V2C28 1.73478 27.8946 1.48043 27.7071 1.29289C27.5196 1.10536 27.2652 1 27 1H5C4.73478 1 4.48043 1.10536 4.29289 1.29289C4.10536 1.48043 4 1.73478 4 2V29C4 29.2652 4.10536 29.5196 4.29289 29.7071C4.48043 29.8946 4.73478 30 5 30H16V28H6V3Z" fill="#5135FF"/>
<path d="M28.325 21.2189C28.2224 21.1368 28.1047 21.0757 27.9785 21.0391C27.8524 21.0025 27.7202 20.9911 27.5896 21.0056C27.4591 21.0201 27.3326 21.0602 27.2176 21.1235C27.1025 21.1869 27.001 21.2723 26.919 21.3749L21.674 27.9319L18.007 24.2649C17.8184 24.0828 17.5658 23.982 17.3036 23.9842C17.0414 23.9865 16.7906 24.0917 16.6051 24.2771C16.4197 24.4625 16.3146 24.7133 16.3123 24.9755C16.31 25.2377 16.4108 25.4903 16.593 25.6789L21.05 30.1359C21.2375 30.3235 21.4918 30.4289 21.757 30.4289H21.812C21.9524 30.4213 22.0897 30.3841 22.2148 30.3199C22.3399 30.2556 22.45 30.1657 22.538 30.0559L28.481 22.6269C28.5631 22.5244 28.6242 22.4067 28.6608 22.2805C28.6974 22.1543 28.7088 22.0222 28.6943 21.8916C28.6798 21.761 28.6397 21.6346 28.5764 21.5195C28.513 21.4044 28.4276 21.303 28.325 21.2209" fill="#5135FF"/>
</svg>
