<svg width="32" height="32" viewBox="0 0 32 32" fill="none" xmlns="http://www.w3.org/2000/svg">
<path d="M30 29H2C1.73478 29 1.48043 28.8946 1.29289 28.7071C1.10536 28.5196 1 28.2652 1 28V9C1 8.73478 1.10536 8.48043 1.29289 8.29289C1.48043 8.10536 1.73478 8 2 8H30C30.2652 8 30.5196 8.10536 30.7071 8.29289C30.8946 8.48043 31 8.73478 31 9V28C31 28.2652 30.8946 28.5196 30.7071 28.7071C30.5196 28.8946 30.2652 29 30 29ZM3 27H29V10H3V27Z" fill="#5135FF"/>
<path d="M23.886 13.123C24.5106 13.123 25.1212 13.3083 25.6405 13.6553C26.1598 14.0023 26.5646 14.4955 26.8036 15.0725C27.0427 15.6496 27.1052 16.2846 26.9833 16.8971C26.8615 17.5097 26.5607 18.0724 26.1191 18.5141C25.6774 18.9557 25.1147 19.2565 24.5021 19.3784C23.8895 19.5002 23.2546 19.4377 22.6775 19.1987C22.1005 18.9596 21.6073 18.5549 21.2602 18.0355C20.9132 17.5162 20.728 16.9056 20.728 16.281C20.7291 15.4438 21.0621 14.6412 21.6542 14.0492C22.2462 13.4572 23.0488 13.1241 23.886 13.123ZM23.886 17.439C24.1151 17.439 24.3389 17.3711 24.5294 17.2439C24.7198 17.1166 24.8682 16.9358 24.9559 16.7242C25.0435 16.5126 25.0665 16.2798 25.0218 16.0551C24.9771 15.8305 24.8668 15.6242 24.7049 15.4622C24.5429 15.3003 24.3366 15.19 24.1119 15.1453C23.8873 15.1006 23.6545 15.1235 23.4429 15.2112C23.2313 15.2988 23.0504 15.4473 22.9232 15.6377C22.7959 15.8281 22.728 16.052 22.728 16.281C22.7283 16.5881 22.8504 16.8825 23.0675 17.0996C23.2846 17.3167 23.579 17.4388 23.886 17.439Z" fill="#5135FF"/>
<path d="M23.886 15.1241C23.6208 15.1241 23.3664 15.0187 23.1789 14.8312C22.9913 14.6436 22.886 14.3893 22.886 14.1241V12.6851C22.886 12.4198 22.9913 12.1655 23.1789 11.978C23.3664 11.7904 23.6208 11.6851 23.886 11.6851C24.1512 11.6851 24.4056 11.7904 24.5931 11.978C24.7806 12.1655 24.886 12.4198 24.886 12.6851V14.1241C24.886 14.3893 24.7806 14.6436 24.5931 14.8312C24.4056 15.0187 24.1512 15.1241 23.886 15.1241Z" fill="#5135FF"/>
<path d="M22.016 16.2019C21.8404 16.2019 21.668 16.1557 21.516 16.0679L20.271 15.3489C20.0413 15.2163 19.8737 14.9979 19.8051 14.7417C19.7364 14.4855 19.7724 14.2126 19.905 13.9829C20.0376 13.7532 20.256 13.5856 20.5122 13.517C20.7683 13.4483 21.0413 13.4843 21.271 13.6169L22.517 14.3359C22.7076 14.446 22.8566 14.6159 22.9408 14.8192C23.025 15.0226 23.0398 15.2481 22.9828 15.4607C22.9259 15.6733 22.8003 15.8612 22.6257 15.9952C22.4511 16.1292 22.2371 16.2019 22.017 16.2019H22.016Z" fill="#5135FF"/>
<path d="M20.771 19.0788C20.5953 19.079 20.4226 19.0329 20.2704 18.9451C20.1182 18.8573 19.9918 18.731 19.904 18.5788C19.8384 18.4651 19.7958 18.3395 19.7787 18.2092C19.7617 18.079 19.7704 17.9467 19.8045 17.8198C19.8386 17.693 19.8973 17.5741 19.9774 17.4699C20.0574 17.3658 20.1572 17.2784 20.271 17.2128L21.517 16.4938C21.7467 16.3612 22.0196 16.3253 22.2758 16.3939C22.532 16.4626 22.7504 16.6302 22.883 16.8598C23.0156 17.0895 23.0515 17.3625 22.9829 17.6186C22.9142 17.8748 22.7467 18.0932 22.517 18.2258L21.271 18.9448C21.119 19.0326 20.9465 19.0788 20.771 19.0788Z" fill="#5135FF"/>
<path d="M23.886 20.877C23.6208 20.877 23.3664 20.7716 23.1789 20.5841C22.9913 20.3966 22.886 20.1422 22.886 19.877V18.438C22.886 18.1728 22.9913 17.9184 23.1789 17.7309C23.3664 17.5433 23.6208 17.438 23.886 17.438C24.1512 17.438 24.4056 17.5433 24.5931 17.7309C24.7806 17.9184 24.886 18.1728 24.886 18.438V19.877C24.886 20.1422 24.7806 20.3966 24.5931 20.5841C24.4056 20.7716 24.1512 20.877 23.886 20.877Z" fill="#5135FF"/>
<path d="M26.9989 19.0788C26.8233 19.0788 26.6509 19.0326 26.4989 18.9448L25.2539 18.2258C25.0242 18.0932 24.8566 17.8748 24.788 17.6186C24.7193 17.3625 24.7553 17.0895 24.8879 16.8598C25.0205 16.6302 25.2389 16.4626 25.4951 16.3939C25.7513 16.3253 26.0242 16.3612 26.2539 16.4938L27.4999 17.2128C27.6905 17.3229 27.8395 17.4928 27.9237 17.6962C28.008 17.8995 28.0227 18.125 27.9658 18.3377C27.9088 18.5503 27.7832 18.7382 27.6086 18.8722C27.434 19.0062 27.22 19.0788 26.9999 19.0788H26.9989Z" fill="#5135FF"/>
<path d="M25.7539 16.2019C25.5782 16.2021 25.4055 16.1559 25.2533 16.0682C25.1011 15.9804 24.9747 15.854 24.8869 15.7019C24.8213 15.5881 24.7787 15.4625 24.7617 15.3323C24.7446 15.202 24.7533 15.0697 24.7874 14.9429C24.8215 14.816 24.8802 14.6971 24.9603 14.593C25.0403 14.4888 25.1401 14.4015 25.2539 14.3359L26.4999 13.6169C26.7296 13.4843 27.0025 13.4483 27.2587 13.517C27.5149 13.5856 27.7333 13.7532 27.8659 13.9829C27.9985 14.2126 28.0344 14.4855 27.9658 14.7417C27.8972 14.9979 27.7296 15.2163 27.4999 15.3489L26.2539 16.0679C26.1019 16.1557 25.9294 16.2019 25.7539 16.2019Z" fill="#5135FF"/>
<path d="M2 2H30C30.2652 2 30.5196 2.10536 30.7071 2.29289C30.8946 2.48043 31 2.73478 31 3V9C31 9.26522 30.8946 9.51957 30.7071 9.70711C30.5196 9.89464 30.2652 10 30 10H2C1.73478 10 1.48043 9.89464 1.29289 9.70711C1.10536 9.51957 1 9.26522 1 9V3C1 2.73478 1.10536 2.48043 1.29289 2.29289C1.48043 2.10536 1.73478 2 2 2ZM29 4H3V8H29V4Z" fill="#5135FF"/>
<circle cx="6" cy="6" r="1" fill="#5135FF"/>
<circle cx="10" cy="6" r="1" fill="#5135FF"/>
<path d="M17.3459 27V21.9258H9.34595V26.999H7.34595V21.6387C7.34621 21.1842 7.52652 20.7486 7.8479 20.4272C8.16928 20.1059 8.60531 19.9251 9.05981 19.9248H17.6301C18.0846 19.9251 18.5207 20.1059 18.842 20.4272C19.1634 20.7486 19.3437 21.1842 19.344 21.6387V21.9258H20.344C20.6092 21.9258 20.8635 22.0312 21.051 22.2188C21.2386 22.4063 21.344 22.6606 21.344 22.9258C21.344 23.191 21.2386 23.4453 21.051 23.6328C20.8635 23.8203 20.6092 23.9258 20.344 23.9258H19.344V26.9976L17.3459 27ZM10.3567 27C10.3518 26.9759 10.349 26.9513 10.3479 26.9268V24.9268C10.3479 24.3963 10.5588 23.8878 10.9338 23.5127C11.3089 23.1376 11.8175 22.9268 12.3479 22.9268H14.3479C14.8783 22.9268 15.3869 23.1376 15.762 23.5127C16.137 23.8878 16.3479 24.3963 16.3479 24.9268V26.9268C16.3479 26.9508 16.3391 26.975 16.3391 27H10.3567ZM12.3459 26.9258H14.3459V24.9258H12.3459V26.9258ZM6.34595 23.9258C6.08073 23.9258 5.82645 23.8203 5.63892 23.6328C5.45138 23.4453 5.34595 23.191 5.34595 22.9258C5.34595 22.6606 5.45138 22.4063 5.63892 22.2188C5.82645 22.0312 6.08073 21.9258 6.34595 21.9258H7.34595V23.9258H6.34595ZM15.3459 19.9258V18.9258C15.3459 18.6606 15.4514 18.4063 15.6389 18.2188C15.8265 18.0312 16.0807 17.9258 16.3459 17.9258C16.6112 17.9258 16.8654 18.0312 17.053 18.2188C17.2405 18.4063 17.3459 18.6606 17.3459 18.9258V19.9258H15.3459ZM9.34595 19.9258V18.9258C9.34595 18.6606 9.45138 18.4063 9.63892 18.2188C9.82645 18.0312 10.0807 17.9258 10.3459 17.9258C10.6112 17.9258 10.8654 18.0312 11.053 18.2188C11.2405 18.4063 11.3459 18.6606 11.3459 18.9258V19.9258H9.34595Z" fill="#5135FF"/>
</svg>
