<svg width="32" height="32" viewBox="0 0 32 32" fill="none" xmlns="http://www.w3.org/2000/svg">
<path d="M24.7852 30.346H7.16723C6.50419 30.3486 5.86027 30.124 5.34277 29.7095C4.82527 29.295 4.46544 28.7156 4.32323 28.068L2.00823 17.731C1.90899 17.2861 1.94197 16.8219 2.10312 16.3955C2.26426 15.9691 2.54654 15.5991 2.91523 15.331C2.87455 15.0736 2.89024 14.8105 2.9612 14.5598C3.03217 14.309 3.15673 14.0767 3.32627 13.8788C3.49581 13.681 3.70628 13.5223 3.94316 13.4137C4.18004 13.3051 4.43766 13.2493 4.69823 13.25H9.25123C9.71874 13.2513 10.178 13.3731 10.5847 13.6036C10.9915 13.8341 11.3319 14.1656 11.5732 14.566L11.7552 14.866H22.3782C22.9525 14.8632 23.5102 15.0575 23.9585 15.4164C24.4068 15.7753 24.7183 16.2771 24.8412 16.838L27.1932 27.338C27.2742 27.6989 27.273 28.0735 27.1896 28.4339C27.1063 28.7943 26.9429 29.1313 26.7117 29.4201C26.4805 29.7088 26.1873 29.9419 25.8538 30.102C25.5204 30.2621 25.1551 30.3461 24.7852 30.346ZM5.05123 15.336L5.13423 15.704C5.16575 15.8445 5.16786 15.9901 5.14041 16.1314C5.11297 16.2728 5.05657 16.407 4.97477 16.5255C4.89296 16.6441 4.78752 16.7444 4.66507 16.8202C4.54261 16.896 4.4058 16.9456 4.26323 16.966C4.22686 16.9712 4.19197 16.9839 4.16081 17.0034C4.12964 17.0229 4.10288 17.0486 4.08223 17.079C4.06245 17.107 4.04891 17.1388 4.04253 17.1725C4.03615 17.2061 4.03707 17.2408 4.04523 17.274L6.36123 27.611C6.4015 27.7945 6.50349 27.9586 6.65017 28.076C6.79686 28.1934 6.97936 28.2569 7.16723 28.256H24.7852C24.8421 28.2557 24.8982 28.2426 24.9493 28.2176C25.0004 28.1927 25.0452 28.1565 25.0804 28.1118C25.1156 28.0671 25.1402 28.015 25.1525 27.9595C25.1648 27.904 25.1643 27.8464 25.1512 27.791L22.8022 17.291C22.7812 17.1944 22.7276 17.1079 22.6504 17.046C22.5732 16.9841 22.4772 16.9506 22.3782 16.951H11.1672C10.986 16.9517 10.8078 16.9053 10.65 16.8162C10.4922 16.7271 10.3603 16.5985 10.2672 16.443L9.78123 15.631C9.72609 15.5397 9.64836 15.4641 9.55553 15.4116C9.4627 15.359 9.3579 15.3313 9.25123 15.331L5.05123 15.336Z" fill="#5135FF"/>
<path d="M16.9448 9.93794C16.8478 9.84107 16.7708 9.72599 16.7184 9.5993C16.666 9.47262 16.6391 9.33682 16.6393 9.19972L16.6393 3.91905C16.6391 3.71242 16.7002 3.51038 16.8149 3.3385C16.9296 3.16662 17.0927 3.03264 17.2835 2.95352C17.4744 2.87439 17.6845 2.85369 17.8871 2.89403C18.0898 2.93437 18.2759 3.03394 18.4219 3.18012L23.7026 8.46079C23.8488 8.60682 23.9483 8.79294 23.9887 8.99559C24.029 9.19824 24.0083 9.40831 23.9292 9.59918C23.8501 9.79006 23.7161 9.95317 23.5442 10.0678C23.3723 10.1825 23.1703 10.2436 22.9637 10.2434H17.683C17.5459 10.2436 17.4101 10.2167 17.2834 10.1643C17.1567 10.1119 17.0416 10.035 16.9448 9.93794ZM18.7274 6.43988L18.7274 8.15532L20.4421 8.15462L18.7274 6.43988Z" fill="#5135FF"/>
<path d="M24.1155 13.4581H22.0264V9.52842L17.3813 4.88193C15.8213 4.89193 10.6553 4.92707 9.55127 4.87607C9.48627 4.87607 9.32928 4.87581 9.29028 4.92881C9.29028 4.92881 9.27338 4.95587 9.26538 4.96787V11.2315H7.17627V4.86826C7.17636 4.83251 7.17846 4.79637 7.18237 4.76084C7.24917 4.20009 7.52538 3.68528 7.95557 3.31943C8.38575 2.95359 8.93824 2.76405 9.50244 2.78818C9.54944 2.78818 9.60224 2.78818 9.64624 2.78818C10.8682 2.83718 17.7332 2.78818 17.8022 2.78818H17.8113C18.0876 2.78666 18.3532 2.89529 18.5503 3.08897L23.8103 8.35264C23.9073 8.44947 23.9844 8.56389 24.0369 8.69053C24.0894 8.81717 24.1165 8.95382 24.1165 9.09092L24.1155 13.4581Z" fill="#5135FF"/>
<path d="M27.3164 27.9297L25.2634 27.5449L27.7485 14.2012H24.8875V12.1133H29.0044C29.1572 12.1139 29.3081 12.1478 29.4463 12.2129C29.5845 12.278 29.7067 12.3728 29.8044 12.4902C29.9025 12.6078 29.9735 12.7444 30.0122 12.8926C30.0509 13.0407 30.0565 13.1971 30.0286 13.3477L27.3164 27.9297Z" fill="#5135FF"/>
</svg>
