<svg width="32" height="32" viewBox="0 0 32 32" fill="none" xmlns="http://www.w3.org/2000/svg">
<path d="M17 30.5H15V14H17V30.5Z" fill="#5135FF"/>
<path d="M14.471 3H17.528C18.7136 3.00132 19.8503 3.4729 20.6887 4.31128C21.5271 5.14966 21.9987 6.28636 22 7.472V10.529C21.9987 11.7144 21.5272 12.8508 20.689 13.689C19.8508 14.5272 18.7144 14.9987 17.529 15H14.471C13.2856 14.9987 12.1492 14.5272 11.311 13.689C10.4728 12.8508 10.0013 11.7144 10 10.529V7.471C10.0013 6.28562 10.4728 5.14918 11.311 4.31099C12.1492 3.4728 13.2856 3.00132 14.471 3ZM17.529 13C18.1841 12.9992 18.8122 12.7386 19.2754 12.2754C19.7386 11.8122 19.9992 11.1841 20 10.529V7.472C19.9992 6.81663 19.7385 6.18833 19.2751 5.72491C18.8117 5.26149 18.1834 5.00079 17.528 5H14.471C13.8159 5.00079 13.1878 5.26139 12.7246 5.72462C12.2614 6.18785 12.0008 6.81589 12 7.471V10.529C12.0008 11.1841 12.2614 11.8122 12.7246 12.2754C13.1878 12.7386 13.8159 12.9992 14.471 13H17.529Z" fill="#5135FF"/>
<path d="M19 23.4878H17V21.4878H19V23.4878Z" fill="#5135FF"/>
<path d="M19 28.373H17V25.373H19V28.373Z" fill="#5135FF"/>
</svg>
