<svg width="32" height="32" viewBox="0 0 32 32" fill="none" xmlns="http://www.w3.org/2000/svg">
<path d="M9.40572 27.158H2.99972C2.79238 27.1579 2.59017 27.0934 2.4211 26.9734C2.25203 26.8533 2.12445 26.6837 2.05603 26.488C1.9876 26.2923 1.9817 26.0801 2.03916 25.8809C2.09661 25.6816 2.21458 25.5052 2.37672 25.376L11.9187 17.767C12.1261 17.6016 12.3907 17.5254 12.6543 17.5551C12.9179 17.5849 13.1589 17.7181 13.3242 17.9255C13.4896 18.1329 13.5658 18.3975 13.5361 18.661C13.5063 18.9246 13.3731 19.1656 13.1657 19.331L5.85672 25.158H8.97372L11.8127 22.135C11.9977 21.9595 12.2428 21.8613 12.4978 21.8605C12.7528 21.8598 12.9985 21.9564 13.1846 22.1308C13.3707 22.3051 13.4831 22.544 13.499 22.7985C13.5148 23.053 13.4328 23.3039 13.2697 23.5L10.1347 26.838C10.0416 26.9384 9.92884 27.0186 9.80344 27.0736C9.67804 27.1287 9.54267 27.1574 9.40572 27.158Z" fill="#5135FF"/>
<path d="M23.1717 17.3637C22.9172 17.3645 22.672 17.2681 22.486 17.0943C22.3001 16.9205 22.1874 16.6823 22.171 16.4284C22.1545 16.1744 22.2355 15.9237 22.3975 15.7274C22.5595 15.531 22.7902 15.4039 23.0427 15.3717C23.4738 15.3142 23.8848 15.1545 24.2417 14.906C24.5985 14.6574 24.8908 14.3271 25.0942 13.9427C25.2975 13.5582 25.406 13.1308 25.4107 12.6959C25.4153 12.261 25.316 11.8314 25.1209 11.4427C24.9258 11.054 24.6407 10.7175 24.2893 10.4614C23.9378 10.2052 23.5302 10.0367 23.1005 9.97001C22.6708 9.90329 22.2313 9.94024 21.8187 10.0778C21.4061 10.2153 21.0324 10.4495 20.7287 10.7607L20.7157 10.7737L17.5157 13.9227C17.4234 14.0209 17.3123 14.0995 17.189 14.1536C17.0656 14.2078 16.9326 14.2365 16.7979 14.238C16.6631 14.2395 16.5295 14.2137 16.405 14.1623C16.2805 14.1108 16.1677 14.0347 16.0733 13.9386C15.9789 13.8425 15.9049 13.7283 15.8558 13.6028C15.8066 13.4774 15.7833 13.3433 15.7873 13.2086C15.7913 13.074 15.8224 12.9415 15.8788 12.8192C15.9352 12.6968 16.0158 12.5872 16.1157 12.4967L19.3157 9.35374C19.843 8.81384 20.4917 8.40786 21.2078 8.16967C21.9239 7.93147 22.6866 7.86797 23.4322 7.98446C24.1779 8.10094 24.8848 8.39404 25.4942 8.8393C26.1035 9.28456 26.5975 9.86907 26.935 10.5441C27.2725 11.2191 27.4437 11.965 27.4343 12.7196C27.4249 13.4742 27.2352 14.2157 26.8811 14.8821C26.5269 15.5485 26.0185 16.1205 25.3982 16.5505C24.778 16.9804 24.064 17.2558 23.3157 17.3537C23.268 17.3605 23.2199 17.3638 23.1717 17.3637Z" fill="#5135FF"/>
<path d="M26.4217 15.3461L30.5217 14.3461C30.6261 14.3332 30.7244 14.2901 30.8045 14.2221C30.8846 14.1541 30.9431 14.0641 30.9728 13.9632C31.0024 13.8624 31.002 13.755 30.9714 13.6545C30.9408 13.5539 30.8815 13.4644 30.8007 13.3971L26.4167 11.0781L26.4217 15.3461Z" fill="#5135FF"/>
<path d="M24.2857 12.1427C24.2857 12.3539 24.223 12.5604 24.1057 12.7361C23.9883 12.9117 23.8215 13.0486 23.6264 13.1294C23.4312 13.2102 23.2165 13.2314 23.0093 13.1902C22.8021 13.149 22.6118 13.0473 22.4625 12.8979C22.3131 12.7485 22.2114 12.5582 22.1702 12.3511C22.129 12.1439 22.1501 11.9292 22.231 11.734C22.3118 11.5388 22.4487 11.3721 22.6243 11.2547C22.7999 11.1373 23.0064 11.0747 23.2177 11.0747C23.5009 11.0747 23.7726 11.1872 23.9728 11.3875C24.1731 11.5878 24.2857 11.8595 24.2857 12.1427Z" fill="#5135FF"/>
<path d="M12.5407 19.5487C12.3243 19.5487 12.1137 19.4786 11.9407 19.3487L11.3937 18.9387C10.1083 17.9748 9.03017 16.7619 8.2237 15.3724C7.41723 13.9828 6.89891 12.445 6.69965 10.8507L6.31965 7.81174C6.28595 7.54349 6.33143 7.27124 6.45049 7.02852C6.56956 6.7858 6.75702 6.58319 6.98978 6.44566C7.22254 6.30813 7.49044 6.24168 7.76049 6.25449C8.03054 6.26729 8.29095 6.3588 8.50965 6.51774L19.5357 14.5367C19.6454 14.6125 19.7388 14.7095 19.8105 14.822C19.8822 14.9344 19.9306 15.0601 19.953 15.1916C19.9754 15.323 19.9713 15.4576 19.9408 15.5875C19.9104 15.7173 19.8544 15.8398 19.7759 15.9476C19.6975 16.0555 19.5983 16.1465 19.4841 16.2155C19.37 16.2844 19.2432 16.3298 19.1112 16.349C18.9792 16.3682 18.8448 16.3608 18.7157 16.3273C18.5866 16.2938 18.4656 16.2348 18.3597 16.1537L8.48165 8.97074L8.68165 10.6027C8.85042 11.9297 9.28327 13.2093 9.95464 14.3662C10.626 15.5231 11.5223 16.5339 12.5907 17.3387L13.1377 17.7487C13.3056 17.8747 13.4296 18.0502 13.4922 18.2506C13.5547 18.4509 13.5527 18.6659 13.4863 18.865C13.42 19.0641 13.2926 19.2373 13.1224 19.36C12.9521 19.4827 12.7475 19.5487 12.5377 19.5487H12.5407Z" fill="#5135FF"/>
<path d="M16.8118 14.2109C16.5466 14.2109 16.2922 14.1056 16.1047 13.918C15.9171 13.7305 15.8118 13.4762 15.8118 13.2109V6.67494C15.8109 6.3125 15.9175 5.95794 16.1183 5.65617C16.3191 5.35441 16.6049 5.11901 16.9395 4.9798C17.2741 4.84059 17.6426 4.80383 17.9981 4.87417C18.3537 4.94451 18.6803 5.11879 18.9368 5.37494L21.7898 8.23294C21.9719 8.42154 22.0727 8.67414 22.0704 8.93634C22.0682 9.19854 21.963 9.44935 21.7776 9.63476C21.5922 9.82016 21.3414 9.92533 21.0792 9.92761C20.817 9.92989 20.5644 9.8291 20.3758 9.64694L17.8118 7.08294V13.2109C17.8118 13.4762 17.7064 13.7305 17.5189 13.918C17.3313 14.1056 17.077 14.2109 16.8118 14.2109Z" fill="#5135FF"/>
<path d="M13.9998 26.1577H10.9998C10.7345 26.1577 10.4802 26.0524 10.2926 25.8648C10.1051 25.6773 9.99976 25.4229 9.99976 25.1577C9.99976 24.8925 10.1051 24.6381 10.2926 24.4506C10.4802 24.2631 10.7345 24.1577 10.9998 24.1577H13.9998C18.9628 24.1577 22.9998 21.0177 22.9998 17.1577C22.9998 16.8925 23.1051 16.6381 23.2926 16.4506C23.4802 16.2631 23.7345 16.1577 23.9998 16.1577C24.265 16.1577 24.5193 16.2631 24.7069 16.4506C24.8944 16.6381 24.9998 16.8925 24.9998 17.1577C24.9776 18.4121 24.6687 19.6447 24.0967 20.7613C23.5247 21.8779 22.7048 22.8488 21.6998 23.5997C19.4957 25.2976 16.7817 26.1993 13.9998 26.1577Z" fill="#5135FF"/>
</svg>
