<svg width="32" height="32" viewBox="0 0 32 32" fill="none" xmlns="http://www.w3.org/2000/svg">
<path d="M16 3.03583H16.021L29 10.0818V22.8318L16.105 28.9568C16.0353 28.9662 15.9647 28.9662 15.895 28.9568L3 22.8318V10.0818L15.981 3.03583H16ZM16 0.99983C15.6942 0.994216 15.3915 1.06284 15.118 1.19983L1.88199 8.38383C1.62487 8.54416 1.41036 8.76431 1.25677 9.02551C1.10319 9.28671 1.0151 9.5812 1 9.88383V23.1098C1.01465 23.4086 1.10562 23.6987 1.26422 23.9524C1.42282 24.206 1.64379 24.4148 1.90601 24.5588L15.094 30.8218C15.6747 31.0591 16.3253 31.0591 16.906 30.8218L30.094 24.5588C30.3562 24.4147 30.5771 24.2059 30.7357 23.9523C30.8943 23.6986 30.9853 23.4086 31 23.1098V9.87883C30.9849 9.5762 30.8968 9.28172 30.7432 9.02052C30.5896 8.75932 30.3751 8.53915 30.118 8.37883L16.882 1.19983C16.6085 1.06284 16.3058 0.994216 16 0.99983Z" fill="#5135FF"/>
<path d="M17 16H15V29H17V16Z" fill="#5135FF"/>
<path d="M15.9999 16.753C15.5427 16.759 15.0895 16.6669 14.6709 16.483L1.5769 10.373L2.42291 8.56104L15.5169 14.671C15.8304 14.7778 16.1704 14.7778 16.4839 14.671L29.5769 8.56104L30.4229 10.373L17.3289 16.483C16.9103 16.6669 16.4571 16.759 15.9999 16.753Z" fill="#5135FF"/>
</svg>
