<svg width="32" height="32" viewBox="0 0 32 32" fill="none" xmlns="http://www.w3.org/2000/svg">
<path d="M4 10C3.46957 10 2.96086 9.78929 2.58579 9.41421C2.21071 9.03914 2 8.53043 2 8V4C2 3.46957 2.21071 2.96086 2.58579 2.58579C2.96086 2.21071 3.46957 2 4 2H28C28.5304 2 29.0391 2.21071 29.4142 2.58579C29.7893 2.96086 30 3.46957 30 4V8C30 8.53043 29.7893 9.03914 29.4142 9.41421C29.0391 9.78929 28.5304 10 28 10H4ZM4 8H28V4H4V8ZM6 7V5H8V7H6Z" fill="#5135FF"/>
<path d="M4 20C3.46957 20 2.96086 19.7893 2.58579 19.4142C2.21071 19.0391 2 18.5304 2 18V14C2 13.4696 2.21071 12.9609 2.58579 12.5858C2.96086 12.2107 3.46957 12 4 12H28C28.5304 12 29.0391 12.2107 29.4142 12.5858C29.7893 12.9609 30 13.4696 30 14V18C30 18.5304 29.7893 19.0391 29.4142 19.4142C29.0391 19.7893 28.5304 20 28 20H4ZM4 18H28V14H4V18ZM6 17V15H8V17H6Z" fill="#5135FF"/>
<path d="M4 30C3.46957 30 2.96086 29.7893 2.58579 29.4142C2.21071 29.0391 2 28.5304 2 28V24C2 23.4696 2.21071 22.9609 2.58579 22.5858C2.96086 22.2107 3.46957 22 4 22H28C28.5304 22 29.0391 22.2107 29.4142 22.5858C29.7893 22.9609 30 23.4696 30 24V28C30 28.5304 29.7893 29.0391 29.4142 29.4142C29.0391 29.7893 28.5304 30 28 30H4ZM4 28H28V24H4V28ZM6 27V25H8V27H6Z" fill="#5135FF"/>
</svg>
