<svg width="32" height="32" viewBox="0 0 32 32" fill="none" xmlns="http://www.w3.org/2000/svg">
<path d="M25 30C24.7348 30 24.4804 29.8946 24.2928 29.707C24.1053 29.5195 24 29.2652 24 29V28H21C20.9444 27.9998 20.8889 27.9954 20.834 27.9863C20.6292 28.5747 20.2464 29.0844 19.7385 29.4453C19.2307 29.8062 18.623 30.0001 18 30C17.2044 30 16.4413 29.6837 15.8787 29.1211C15.3161 28.5585 15 27.7956 15 27C15 26.2044 15.3161 25.4415 15.8787 24.8789C16.4413 24.3163 17.2044 24 18 24C18.6231 23.9996 19.2309 24.193 19.7389 24.5537C20.2469 24.9144 20.63 25.4243 20.835 26.0127C20.8895 26.0039 20.9447 25.9999 21 26H24V25C24 24.7348 24.1053 24.4805 24.2928 24.293C24.4804 24.1054 24.7348 24 25 24H31C31.2652 24 31.5196 24.1054 31.7072 24.293C31.8947 24.4805 32 24.7348 32 25V29C32 29.2652 31.8947 29.5195 31.7072 29.707C31.5196 29.8946 31.2652 30 31 30H25ZM26 28H30V26H26V28ZM17 27C17 27.2652 17.1053 27.5195 17.2928 27.707C17.4804 27.8946 17.7348 28 18 28C18.2652 28 18.5196 27.8946 18.7072 27.707C18.8947 27.5195 19 27.2652 19 27C19 26.7348 18.8947 26.4805 18.7072 26.293C18.5196 26.1054 18.2652 26 18 26C17.7348 26 17.4804 26.1054 17.2928 26.293C17.1053 26.4805 17 26.7348 17 27ZM25 23C24.7348 23 24.4804 22.8946 24.2928 22.707C24.1053 22.5195 24 22.2652 24 22V21H21C20.9444 20.9998 20.8888 20.9955 20.834 20.9863C20.6292 21.5747 20.2464 22.0844 19.7385 22.4453C19.2307 22.8062 18.623 23.0001 18 23C17.2044 23 16.4413 22.6837 15.8787 22.1211C15.3161 21.5585 15 20.7956 15 20C15 19.2044 15.3161 18.4415 15.8787 17.8789C16.4413 17.3163 17.2044 17 18 17C18.623 16.9999 19.2307 17.1938 19.7385 17.5547C20.2464 17.9156 20.6292 18.4253 20.834 19.0137C20.8889 19.0046 20.9444 19.0002 21 19H24V18C24 17.7348 24.1053 17.4805 24.2928 17.293C24.4804 17.1054 24.7348 17 25 17H31C31.2652 17 31.5196 17.1054 31.7072 17.293C31.8947 17.4805 32 17.7348 32 18V22C32 22.2652 31.8947 22.5195 31.7072 22.707C31.5196 22.8946 31.2652 23 31 23H25ZM26 21H30V19H26V21ZM17 20C17 20.2652 17.1053 20.5195 17.2928 20.707C17.4804 20.8946 17.7348 21 18 21C18.2652 21 18.5196 20.8946 18.7072 20.707C18.8947 20.5195 19 20.2652 19 20C19 19.7348 18.8947 19.4805 18.7072 19.293C18.5196 19.1054 18.2652 19 18 19C17.7348 19 17.4804 19.1054 17.2928 19.293C17.1053 19.4805 17 19.7348 17 20Z" fill="#5135FF"/>
<path d="M4 4H26V15H28V4C28 3.46957 27.7893 2.96086 27.4142 2.58579C27.0391 2.21071 26.5304 2 26 2H4C3.46957 2 2.96086 2.21071 2.58579 2.58579C2.21071 2.96086 2 3.46957 2 4V26C2 26.5304 2.21071 27.0391 2.58579 27.4142C2.96086 27.7893 3.46957 28 4 28H13V26H4V4Z" fill="#5135FF"/>
<path d="M19 8H7V10H19V8Z" fill="#5135FF"/>
<path d="M15 12H7V14H15V12Z" fill="#5135FF"/>
</svg>
