<svg width="32" height="32" viewBox="0 0 32 32" fill="none" xmlns="http://www.w3.org/2000/svg">
<path d="M4.5 5C4.36739 5 4.24021 5.05268 4.14645 5.14645C4.05268 5.24021 4 5.36739 4 5.5V6.5C4 6.63261 4.05268 6.75979 4.14645 6.85355C4.24021 6.94732 4.36739 7 4.5 7H26.5C26.6326 7 26.7598 6.94732 26.8536 6.85355C26.9473 6.75979 27 6.63261 27 6.5V5.5C27 5.36739 26.9473 5.24021 26.8536 5.14645C26.7598 5.05268 26.6326 5 26.5 5H4.5Z" fill="#5135FF"/>
<path d="M4.5 10C4.36739 10 4.24021 10.0527 4.14645 10.1464C4.05268 10.2402 4 10.3674 4 10.5V11.5C4 11.6326 4.05268 11.7598 4.14645 11.8536C4.24021 11.9473 4.36739 12 4.5 12H26.5C26.6326 12 26.7598 11.9473 26.8536 11.8536C26.9473 11.7598 27 11.6326 27 11.5V10.5C27 10.3674 26.9473 10.2402 26.8536 10.1464C26.7598 10.0527 26.6326 10 26.5 10H4.5Z" fill="#5135FF"/>
<path d="M14.071 20H4.5C4.36739 20 4.24021 20.0527 4.14645 20.1464C4.05268 20.2402 4 20.3674 4 20.5V21.5C4 21.6326 4.05268 21.7598 4.14645 21.8536C4.24021 21.9473 4.36739 22 4.5 22H14.674C14.3734 21.3675 14.1701 20.6932 14.071 20Z" fill="#5135FF"/>
<path d="M4.5 15H15.255C14.8285 15.6108 14.5027 16.2861 14.29 17H4.5C4.36739 17 4.24021 16.9473 4.14645 16.8536C4.05268 16.7598 4 16.6326 4 16.5V15.5C4 15.3674 4.05268 15.2402 4.14645 15.1464C4.24021 15.0527 4.36739 15 4.5 15Z" fill="#5135FF"/>
<path fill-rule="evenodd" clip-rule="evenodd" d="M24.929 22.0928C25.6943 21.1208 26.0715 19.8993 25.9874 18.665C25.9034 17.4308 25.3641 16.2717 24.4742 15.4124C23.5842 14.553 22.4069 14.0547 21.1705 14.0139C19.9341 13.9732 18.7265 14.3929 17.7819 15.1917C16.8373 15.9905 16.2228 17.1116 16.0577 18.3376C15.8925 19.5637 16.1884 20.8074 16.8879 21.8277C17.5875 22.848 18.6409 23.5723 19.8441 23.8602C21.0472 24.148 22.3144 23.979 23.4 23.3858L26.92 27.2968C27.0088 27.3953 27.133 27.4546 27.2654 27.4615C27.3978 27.4684 27.5275 27.4225 27.626 27.3338L28.369 26.6648C28.4675 26.5761 28.5268 26.4519 28.5337 26.3195C28.5407 26.1871 28.4947 26.0574 28.406 25.9588L24.929 22.0928ZM21 21.9998C21.5934 21.9998 22.1734 21.8239 22.6667 21.4942C23.1601 21.1646 23.5446 20.6961 23.7717 20.1479C23.9987 19.5997 24.0582 18.9965 23.9424 18.4146C23.8266 17.8326 23.5409 17.2981 23.1214 16.8785C22.7018 16.459 22.1673 16.1732 21.5853 16.0575C21.0034 15.9417 20.4002 16.0011 19.852 16.2282C19.3038 16.4553 18.8353 16.8398 18.5056 17.3331C18.176 17.8265 18 18.4065 18 18.9998C18 19.7955 18.3161 20.5585 18.8787 21.1212C19.4413 21.6838 20.2044 21.9998 21 21.9998Z" fill="#5135FF"/>
</svg>
