<svg width="32" height="32" viewBox="0 0 32 32" fill="none" xmlns="http://www.w3.org/2000/svg">
<path d="M4.00031 27.0005C3.47197 26.9938 2.9672 26.7804 2.59358 26.4067C2.21995 26.0331 2.00705 25.5288 2.00031 25.0005V9.00049C1.97617 8.6086 2.05592 8.21691 2.23151 7.86572C2.40711 7.51454 2.67232 7.21631 3.00031 7.00049C5.13331 6.01649 7.20031 5.00796 9.00031 4.10596V0.999512H11.0003V3.09424C13.1763 1.98124 14.6844 1.17032 14.9864 1.00732L14.9974 0.999512C15.0464 1.03051 20.3264 3.91851 26.9974 6.99951C27.3236 7.21716 27.5874 7.51596 27.7628 7.8667C27.9381 8.21743 28.019 8.60797 27.9974 8.99951V14.4907C27.3367 14.348 26.6692 14.24 25.9974 14.1655V8.99951L14.9974 3.49951L3.99738 8.99951V24.9995H12.9974V26.9995L4.00031 27.0005ZM19.0003 12.0005V10.0005H23.0003V12.0005H19.0003ZM13.0003 12.0005V10.0005H17.0003V12.0005H13.0003ZM7.00031 12.0005V10.0005H11.0003V12.0005H7.00031Z" fill="#5135FF"/>
<path fill-rule="evenodd" clip-rule="evenodd" d="M17.734 16.7352C19.4409 16.22 21.2173 15.9721 23 16.0002C24.7827 15.9721 26.5591 16.22 28.266 16.7352C28.9123 16.9319 29.5208 17.2362 30.066 17.6352C30.3416 17.8275 30.5693 18.0807 30.7312 18.3752C30.8932 18.6696 30.9852 18.9974 31 19.3332V29.0552C30.9816 29.3863 30.8804 29.7074 30.7057 29.9892C30.531 30.2711 30.2884 30.5045 30 30.6682C29.4456 31.0084 28.8418 31.2604 28.21 31.4152C26.5051 31.8299 24.7544 32.0265 23 32.0002C21.2446 32.0271 19.4929 31.8309 17.787 31.4162C17.1562 31.2608 16.5534 31.0085 16 30.6682C15.7116 30.5045 15.469 30.2711 15.2943 29.9892C15.1196 29.7074 15.0184 29.3863 15 29.0552V19.3332C15.0151 18.9984 15.1069 18.6715 15.2683 18.3778C15.4297 18.0841 15.6564 17.8314 15.931 17.6392C16.4768 17.2385 17.0864 16.9328 17.734 16.7352ZM17.034 19.3352C17.0754 19.2904 17.1206 19.2493 17.169 19.2122C17.5347 18.9553 17.9401 18.76 18.369 18.6342C19.8712 18.1873 21.433 17.9735 23 18.0002C24.5676 17.9726 26.1301 18.1858 27.633 18.6322C28.0619 18.758 28.4673 18.9533 28.833 19.2102C28.8814 19.2473 28.9266 19.2884 28.968 19.3332C28.9266 19.378 28.8815 19.4192 28.833 19.4562C28.4673 19.7131 28.0619 19.9084 27.633 20.0342C26.1301 20.4809 24.5676 20.6944 23 20.6672C21.4324 20.6947 19.8699 20.4816 18.367 20.0352C17.9381 19.9094 17.5327 19.7141 17.167 19.4572C17.1195 19.4197 17.0754 19.3782 17.035 19.3332L17.034 19.3352ZM29 23.8852V21.6502C28.767 21.7502 28.52 21.8502 28.266 21.9322C26.5591 22.4474 24.7827 22.6954 23 22.6672C21.2173 22.6954 19.4409 22.4474 17.734 21.9322C17.48 21.8472 17.234 21.7542 17 21.6502V23.8852C17.0476 23.935 17.0994 23.9805 17.155 24.0212C17.5329 24.2821 17.947 24.4862 18.384 24.6272C19.8737 25.1135 21.4331 25.352 23 25.3332C24.5669 25.352 26.1263 25.1135 27.616 24.6272C28.053 24.4862 28.4671 24.2821 28.845 24.0212C28.9006 23.9805 28.9524 23.935 29 23.8852ZM29 26.2252V28.9252C28.9682 28.9524 28.9348 28.9778 28.9 29.0012C28.5231 29.222 28.1152 29.3851 27.69 29.4852C26.1545 29.8533 24.5788 30.0264 23 30.0002C21.4223 30.0264 19.8475 29.8537 18.313 29.4862C17.8866 29.3858 17.4778 29.2219 17.1 29.0002C17.0652 28.9768 17.0318 28.9514 17 28.9242V26.2242C17.227 26.3242 17.467 26.4242 17.716 26.5112C19.4201 27.0742 21.2054 27.352 23 27.3332C24.7945 27.3523 26.5799 27.0749 28.284 26.5122C28.533 26.4242 28.773 26.3282 29 26.2252Z" fill="#5135FF"/>
</svg>
