<svg width="32" height="32" viewBox="0 0 32 32" fill="none" xmlns="http://www.w3.org/2000/svg">
<path d="M26 21.5H7V10.5H26V21.5ZM26.455 8.5H6.544C6.13441 8.50027 5.74169 8.66316 5.45217 8.95287C5.16264 9.24259 5 9.63541 5 10.045V21.955C5 22.3646 5.16264 22.7574 5.45217 23.0471C5.74169 23.3368 6.13441 23.4997 6.544 23.5H26.455C26.8648 23.5 27.2577 23.3372 27.5475 23.0475C27.8372 22.7577 28 22.3648 28 21.955V10.045C28 9.63524 27.8372 9.24226 27.5475 8.95252C27.2577 8.66278 26.8648 8.5 26.455 8.5Z" fill="#5135FF"/>
<path d="M18.7549 19.7831H21.7289C22.3951 19.7826 23.0338 19.5178 23.505 19.0468C23.9761 18.5759 24.2411 17.9373 24.2419 17.2711V14.3001C24.2414 13.6338 23.9765 12.9949 23.5053 12.5237C23.0342 12.0526 22.3953 11.7876 21.7289 11.7871H18.7549C18.0886 11.7876 17.4497 12.0526 16.9786 12.5237C16.5074 12.9949 16.2425 13.6338 16.2419 14.3001V14.7871H9.24194V16.7871H10.2239V18.6871H12.2239V16.7871H13.6239V18.6871H14.6239V16.7871H16.2369V17.2751C16.2377 17.9413 16.5028 18.5799 16.9739 19.0508C17.4451 19.5218 18.0838 19.7866 18.7499 19.7871M18.2419 14.3001C18.2422 14.1641 18.2963 14.0338 18.3925 13.9377C18.4886 13.8415 18.619 13.7874 18.7549 13.7871H21.7289C21.8649 13.7874 21.9952 13.8415 22.0914 13.9377C22.1875 14.0338 22.2417 14.1641 22.2419 14.3001V17.2751C22.2417 17.411 22.1875 17.5412 22.0913 17.6372C21.9952 17.7332 21.8648 17.7871 21.7289 17.7871H18.7549C18.6191 17.7871 18.4887 17.7332 18.3926 17.6372C18.2964 17.5412 18.2422 17.411 18.2419 17.2751V14.3001Z" fill="#5135FF"/>
<path d="M9 3C9.19778 3 9.39112 3.05865 9.55557 3.16853C9.72002 3.27841 9.84819 3.43459 9.92388 3.61732C9.99957 3.80004 10.0194 4.00111 9.98079 4.19509C9.9422 4.38907 9.84696 4.56725 9.70711 4.70711C9.56726 4.84696 9.38907 4.9422 9.19509 4.98079C9.00111 5.01937 8.80004 4.99957 8.61732 4.92388C8.43459 4.84819 8.27841 4.72002 8.16853 4.55557C8.05865 4.39112 8 4.19778 8 4C8 3.73478 8.10536 3.48043 8.29289 3.29289C8.48043 3.10536 8.73478 3 9 3ZM9 1C8.40666 1 7.82664 1.17595 7.33329 1.50559C6.83994 1.83524 6.45543 2.30377 6.22836 2.85195C6.0013 3.40013 5.94189 4.00333 6.05765 4.58527C6.1734 5.16721 6.45912 5.70176 6.87868 6.12132C7.29824 6.54088 7.83279 6.8266 8.41473 6.94236C8.99667 7.05811 9.59987 6.9987 10.1481 6.77164C10.6962 6.54458 11.1648 6.16006 11.4944 5.66671C11.8241 5.17336 12 4.59334 12 4C12 3.20435 11.6839 2.44129 11.1213 1.87868C10.5587 1.31607 9.79565 1 9 1Z" fill="#5135FF"/>
<path d="M23 3C23.1978 3 23.3911 3.05865 23.5556 3.16853C23.72 3.27841 23.8482 3.43459 23.9239 3.61732C23.9996 3.80004 24.0194 4.00111 23.9808 4.19509C23.9422 4.38907 23.847 4.56725 23.7071 4.70711C23.5673 4.84696 23.3891 4.9422 23.1951 4.98079C23.0011 5.01937 22.8 4.99957 22.6173 4.92388C22.4346 4.84819 22.2784 4.72002 22.1685 4.55557C22.0586 4.39112 22 4.19778 22 4C22 3.73478 22.1054 3.48043 22.2929 3.29289C22.4804 3.10536 22.7348 3 23 3ZM23 1C22.4067 1 21.8266 1.17595 21.3333 1.50559C20.8399 1.83524 20.4554 2.30377 20.2284 2.85195C20.0013 3.40013 19.9419 4.00333 20.0576 4.58527C20.1734 5.16721 20.4591 5.70176 20.8787 6.12132C21.2982 6.54088 21.8328 6.8266 22.4147 6.94236C22.9967 7.05811 23.5999 6.9987 24.1481 6.77164C24.6962 6.54458 25.1648 6.16006 25.4944 5.66671C25.8241 5.17336 26 4.59334 26 4C26 3.20435 25.6839 2.44129 25.1213 1.87868C24.5587 1.31607 23.7957 1 23 1Z" fill="#5135FF"/>
<path d="M9 27C9.19778 27 9.39112 27.0586 9.55557 27.1685C9.72002 27.2784 9.84819 27.4346 9.92388 27.6173C9.99957 27.8 10.0194 28.0011 9.98079 28.1951C9.9422 28.3891 9.84696 28.5673 9.70711 28.7071C9.56726 28.847 9.38907 28.9422 9.19509 28.9808C9.00111 29.0194 8.80004 28.9996 8.61732 28.9239C8.43459 28.8482 8.27841 28.72 8.16853 28.5556C8.05865 28.3911 8 28.1978 8 28C8 27.7348 8.10536 27.4804 8.29289 27.2929C8.48043 27.1054 8.73478 27 9 27ZM9 25C8.40666 25 7.82664 25.1759 7.33329 25.5056C6.83994 25.8352 6.45543 26.3038 6.22836 26.8519C6.0013 27.4001 5.94189 28.0033 6.05765 28.5853C6.1734 29.1672 6.45912 29.7018 6.87868 30.1213C7.29824 30.5409 7.83279 30.8266 8.41473 30.9424C8.99667 31.0581 9.59987 30.9987 10.1481 30.7716C10.6962 30.5446 11.1648 30.1601 11.4944 29.6667C11.8241 29.1734 12 28.5933 12 28C12 27.2044 11.6839 26.4413 11.1213 25.8787C10.5587 25.3161 9.79565 25 9 25Z" fill="#5135FF"/>
<path d="M23 27C23.1978 27 23.3911 27.0586 23.5556 27.1685C23.72 27.2784 23.8482 27.4346 23.9239 27.6173C23.9996 27.8 24.0194 28.0011 23.9808 28.1951C23.9422 28.3891 23.847 28.5673 23.7071 28.7071C23.5673 28.847 23.3891 28.9422 23.1951 28.9808C23.0011 29.0194 22.8 28.9996 22.6173 28.9239C22.4346 28.8482 22.2784 28.72 22.1685 28.5556C22.0586 28.3911 22 28.1978 22 28C22 27.7348 22.1054 27.4804 22.2929 27.2929C22.4804 27.1054 22.7348 27 23 27ZM23 25C22.4067 25 21.8266 25.1759 21.3333 25.5056C20.8399 25.8352 20.4554 26.3038 20.2284 26.8519C20.0013 27.4001 19.9419 28.0033 20.0576 28.5853C20.1734 29.1672 20.4591 29.7018 20.8787 30.1213C21.2982 30.5409 21.8328 30.8266 22.4147 30.9424C22.9967 31.0581 23.5999 30.9987 24.1481 30.7716C24.6962 30.5446 25.1648 30.1601 25.4944 29.6667C25.8241 29.1734 26 28.5933 26 28C26 27.2044 25.6839 26.4413 25.1213 25.8787C24.5587 25.3161 23.7957 25 23 25Z" fill="#5135FF"/>
<path d="M22.531 26.9182L16 24.0902L9.47005 26.9182L8.67505 25.0832L16 21.9102L23.325 25.0822L22.531 26.9182Z" fill="#5135FF"/>
<path d="M16.0001 10.09L8.67407 6.91803L9.46907 5.08303L16.0001 7.91003L22.5301 5.08203L23.3251 6.91703L16.0001 10.09Z" fill="#5135FF"/>
</svg>
