<svg width="32" height="32" viewBox="0 0 32 32" fill="none" xmlns="http://www.w3.org/2000/svg">
<path d="M4.00098 29C2.94052 28.9987 1.92387 28.577 1.17401 27.8271C0.424152 27.0773 0.00229966 26.0605 0.000976562 25V13C0.000976562 11.9391 0.422401 10.922 1.17255 10.1719C1.92269 9.42173 2.94011 9 4.00098 9H7.242L9.16998 3.6709C9.26237 3.4703 9.41025 3.3009 9.59613 3.18164C9.78201 3.06239 9.99815 2.99841 10.219 2.99805H21.781C22.0019 2.99817 22.2181 3.06138 22.4041 3.18066C22.59 3.29995 22.7378 3.47015 22.83 3.6709L24.7599 9H28.001C29.0618 9 30.0793 9.42173 30.8294 10.1719C31.5796 10.922 32.001 11.9391 32.001 13V25C31.9997 26.0605 31.5778 27.0773 30.8279 27.8271C30.0781 28.577 29.0614 28.9987 28.001 29H4.00098ZM2.00098 13V25C2.00098 25.5304 2.21172 26.039 2.58679 26.4141C2.96186 26.7891 3.47054 27 4.00098 27H28.001C28.5314 27 29.0401 26.7891 29.4152 26.4141C29.7902 26.039 30.001 25.5304 30.001 25V13C30.001 12.4696 29.7902 11.961 29.4152 11.5859C29.0401 11.2109 28.5314 11 28.001 11H24.001V10.9902C23.9513 10.997 23.9011 11.0001 23.851 11H23.382L21.168 5H10.834L8.61798 11H8.151C8.10083 11.0001 8.05069 10.997 8.00098 10.9902V11H4.00098C3.47054 11 2.96186 11.2109 2.58679 11.5859C2.21172 11.961 2.00098 12.4696 2.00098 13Z" fill="#5135FF"/>
<path d="M15.999 24.999C14.1431 24.9972 12.3637 24.2586 11.0513 22.9463C9.73898 21.6339 9.00088 19.855 8.99902 17.999C9.00114 16.1432 9.73934 14.3641 11.0516 13.0518C12.3639 11.7395 14.1432 11.0011 15.999 10.999C17.8548 11.0014 19.6339 11.7395 20.9462 13.0518C22.2584 14.364 22.9966 16.1432 22.999 17.999C22.9969 19.8549 22.2587 21.634 20.9464 22.9463C19.6341 24.2586 17.8549 24.9969 15.999 24.999ZM15.999 12.999C14.6733 13.0003 13.4024 13.5274 12.465 14.4648C11.5276 15.4022 11.0003 16.6733 10.999 17.999C10.999 19.3251 11.5258 20.5965 12.4635 21.5342C13.4012 22.4719 14.6729 22.999 15.999 22.999C17.3247 22.9977 18.5957 22.4706 19.5331 21.5332C20.4705 20.5958 20.9977 19.3247 20.999 17.999C20.9974 16.6734 20.4701 15.4022 19.5328 14.4648C18.5954 13.5275 17.3246 13.0006 15.999 12.999Z" fill="#5135FF"/>
</svg>
