<svg width="32" height="32" viewBox="0 0 32 32" fill="none" xmlns="http://www.w3.org/2000/svg">
<path d="M31 26H1C0.734784 26 0.48043 25.8946 0.292893 25.7071C0.105357 25.5196 0 25.2652 0 25V6C0 5.73478 0.105357 5.48043 0.292893 5.29289C0.48043 5.10536 0.734784 5 1 5H31C31.2652 5 31.5196 5.10536 31.7071 5.29289C31.8946 5.48043 32 5.73478 32 6V25C32 25.2652 31.8946 25.5196 31.7071 25.7071C31.5196 25.8946 31.2652 26 31 26ZM2 24H30V7H2V24Z" fill="#5135FF"/>
<path d="M14 10H5V12H14V10Z" fill="#5135FF"/>
<path d="M14 15H5V17H14V15Z" fill="#5135FF"/>
<path d="M14 20H5V22H14V20Z" fill="#5135FF"/>
<path d="M25.159 22.9272H18.841C18.088 22.9262 17.3662 22.6267 16.8336 22.0943C16.3011 21.562 16.0013 20.8402 16 20.0872V15.1632C16.0011 14.4102 16.3007 13.6883 16.8333 13.1559C17.3659 12.6235 18.0879 12.324 18.841 12.3232H25.159C25.9121 12.3238 26.6343 12.6231 27.167 13.1556C27.6996 13.688 27.9992 14.4101 28 15.1632V20.0872C27.9989 20.8403 27.6993 21.5622 27.1667 22.0946C26.6341 22.627 25.9121 22.9264 25.159 22.9272ZM18.841 14.3272C18.6181 14.3272 18.4044 14.4157 18.2467 14.5732C18.089 14.7307 18.0003 14.9444 18 15.1672V20.0912C18.0003 20.3141 18.089 20.5278 18.2467 20.6853C18.4044 20.8428 18.6181 20.9312 18.841 20.9312H25.159C25.3819 20.9312 25.5956 20.8428 25.7533 20.6853C25.911 20.5278 25.9997 20.3141 26 20.0912V15.1632C25.9997 14.9404 25.911 14.7267 25.7533 14.5692C25.5956 14.4117 25.3819 14.3232 25.159 14.3232L18.841 14.3272Z" fill="#5135FF"/>
<path d="M25.008 11.9271H23.008V10.5651C23.0005 10.4082 22.9311 10.2607 22.8151 10.1548C22.6991 10.0489 22.5459 9.99328 22.389 10.0001H21.451C21.2943 9.99355 21.1413 10.0493 21.0255 10.1552C20.9097 10.261 20.8405 10.4084 20.833 10.5651V11.9271H18.833V10.5651C18.8422 9.87846 19.1227 9.22339 19.6132 8.74283C20.1037 8.26227 20.7644 7.99526 21.451 8.00007H22.389C23.0758 7.99499 23.7368 8.26189 24.2275 8.74247C24.7182 9.22306 24.9988 9.87829 25.008 10.5651V11.9271Z" fill="#5135FF"/>
<path d="M22 19.1481C21.7348 19.1481 21.4804 19.0427 21.2929 18.8552C21.1054 18.6677 21 18.4133 21 18.1481V17.1001C21 16.8349 21.1054 16.5805 21.2929 16.393C21.4804 16.2055 21.7348 16.1001 22 16.1001C22.2652 16.1001 22.5196 16.2055 22.7071 16.393C22.8946 16.5805 23 16.8349 23 17.1001V18.1471C23 18.4123 22.8946 18.6667 22.7071 18.8542C22.5196 19.0417 22.2652 19.1471 22 19.1471" fill="#5135FF"/>
</svg>
