<svg width="32" height="32" viewBox="0 0 32 32" fill="none" xmlns="http://www.w3.org/2000/svg">
<path d="M15.5909 23.8118L12.911 18.4517L7.55298 15.7737C7.37618 15.6852 7.22955 15.5465 7.13166 15.3748C7.03376 15.203 6.98901 15.006 7.00299 14.8088C7.01696 14.6116 7.08911 14.4226 7.21033 14.2664C7.33155 14.1101 7.49635 13.9933 7.68396 13.9307L20.411 9.68873C20.5868 9.62833 20.7761 9.61892 20.957 9.66138C21.138 9.70384 21.3034 9.79643 21.434 9.92872C21.5651 10.0601 21.6571 10.2253 21.6997 10.406C21.7423 10.5867 21.7337 10.7756 21.675 10.9517L17.433 23.6807C17.3702 23.8681 17.2533 24.0328 17.097 24.1538C16.9408 24.2748 16.7522 24.347 16.555 24.3608C16.532 24.3608 16.508 24.3608 16.484 24.3608C16.2989 24.3609 16.1174 24.3096 15.9598 24.2127C15.8021 24.1157 15.6744 23.977 15.5909 23.8118ZM16.3 20.7578L19.147 12.2168L10.607 15.0637L13.483 16.5017L14.8069 15.2688C15.0009 15.088 15.2587 14.9916 15.5236 15.0007C15.7886 15.0099 16.0391 15.1241 16.22 15.3179C16.4008 15.5118 16.4972 15.7695 16.488 16.0344C16.4788 16.2994 16.3648 16.5498 16.171 16.7307L14.885 17.9307L16.3 20.7578Z" fill="#5135FF"/>
<path d="M7.99995 28.0008C7.83151 28.001 7.66573 27.9587 7.51801 27.8778C7.37029 27.7968 7.24541 27.6799 7.15495 27.5378L0.154953 16.5378C0.0527971 16.3773 -0.00146484 16.191 -0.00146484 16.0008C-0.00146484 15.8105 0.0527971 15.6243 0.154953 15.4638L7.15495 4.46378C7.29737 4.2398 7.52294 4.08158 7.78202 4.02391C8.0411 3.96624 8.31248 4.01386 8.53645 4.15628C8.76043 4.2987 8.91865 4.52426 8.97632 4.78334C9.03399 5.04242 8.98637 5.3138 8.84395 5.53778L2.18595 16.0008L8.84395 26.4638C8.94021 26.615 8.99405 26.7893 8.99985 26.9684C9.00565 27.1476 8.96319 27.325 8.87691 27.4821C8.79064 27.6392 8.66372 27.7703 8.50944 27.8615C8.35516 27.9528 8.1792 28.0009 7.99995 28.0008Z" fill="#5135FF"/>
<path d="M23.9999 28.0018C24.1684 28.002 24.3341 27.9597 24.4819 27.8787C24.6296 27.7978 24.7545 27.6809 24.8449 27.5388L31.8449 16.5388C31.9471 16.3783 32.0013 16.192 32.0013 16.0018C32.0013 15.8115 31.9471 15.6252 31.8449 15.4648L24.8449 4.46475C24.7025 4.24078 24.4769 4.08255 24.2179 4.02489C23.9588 3.96722 23.6874 4.01483 23.4634 4.15725C23.2395 4.29968 23.0812 4.52524 23.0236 4.78432C22.9659 5.0434 23.0135 5.31478 23.1559 5.53875L29.8139 16.0018L23.1559 26.4648C23.0597 26.616 23.0058 26.7903 23 26.9694C22.9942 27.1486 23.0367 27.326 23.123 27.4831C23.2092 27.6402 23.3362 27.7712 23.4904 27.8625C23.6447 27.9537 23.8207 28.0018 23.9999 28.0018Z" fill="#5135FF"/>
</svg>
