<svg width="32" height="32" viewBox="0 0 32 32" fill="none" xmlns="http://www.w3.org/2000/svg">
<path d="M22 15.7368H20V25.7368H22V15.7368Z" fill="#5135FF"/>
<path d="M12 20.7368H10V30.7368H12V20.7368Z" fill="#5135FF"/>
<path d="M11 2.99982C11.025 2.99982 11.045 2.99982 11.06 2.99982L29 11.9698V20.4998L11.06 29.4698C11.0202 29.4752 10.9798 29.4752 10.94 29.4698L3 25.4998V6.97283L10.94 3.00282C10.955 3.00282 10.975 3.00282 11 3.00282M11 1.00282C10.692 0.996571 10.3865 1.05944 10.106 1.18681L1.89398 5.29282C1.63581 5.43996 1.4187 5.64953 1.26251 5.90233C1.10632 6.15513 1.01606 6.4431 1 6.73982V25.7398C1.01588 26.0366 1.10606 26.3246 1.26227 26.5775C1.41848 26.8303 1.63569 27.0398 1.89398 27.1868L10.106 31.2928C10.3883 31.4149 10.6925 31.4779 11 31.4779C11.3075 31.4779 11.6117 31.4149 11.894 31.2928L30.106 22.1868C30.3643 22.0398 30.5815 21.8303 30.7377 21.5775C30.8939 21.3246 30.9841 21.0366 31 20.7398V11.7398C30.9839 11.4431 30.8937 11.1551 30.7375 10.9023C30.5813 10.6495 30.3642 10.44 30.106 10.2928L11.894 1.18681C11.6137 1.0584 11.3082 0.994505 11 0.999818V1.00282Z" fill="#5135FF"/>
<path d="M21 16.8548L1.55298 7.1308L2.448 5.3418L21 14.6188L29.553 10.3428L30.448 12.1318L21 16.8548Z" fill="#5135FF"/>
<path d="M11 21.8548L1.55298 17.1308L2.448 15.3418L11 19.6188L29.553 10.3428L30.448 12.1318L11 21.8548Z" fill="#5135FF"/>
<path d="M19.5533 5.34262L1.55298 14.3428L2.4474 16.1316L20.4478 7.13147L19.5533 5.34262Z" fill="#5135FF"/>
</svg>
