<svg width="32" height="32" viewBox="0 0 32 32" fill="none" xmlns="http://www.w3.org/2000/svg">
<path d="M26 31H6C5.73478 31 5.48043 30.8946 5.29289 30.7071C5.10536 30.5196 5 30.2652 5 30V12C5 11.7348 5.10536 11.4804 5.29289 11.2929C5.48043 11.1054 5.73478 11 6 11H26C26.2652 11 26.5196 11.1054 26.7071 11.2929C26.8946 11.4804 27 11.7348 27 12V30C27 30.2652 26.8946 30.5196 26.7071 30.7071C26.5196 30.8946 26.2652 31 26 31ZM7 29H25V13H7V29Z" fill="#5135FF"/>
<path d="M25.9999 9H5.99991C5.83295 8.99999 5.66865 8.95817 5.522 8.87836C5.37535 8.79855 5.25101 8.6833 5.16033 8.5431C5.06966 8.40291 5.01552 8.24225 5.00287 8.07576C4.99022 7.90928 5.01946 7.74228 5.08791 7.59L6.88791 2.59C6.96692 2.41424 7.09503 2.26505 7.25683 2.16038C7.41862 2.05571 7.60721 2.00002 7.79992 2H24.1999C24.3926 2.00002 24.5812 2.05571 24.743 2.16038C24.9048 2.26505 25.0329 2.41424 25.1119 2.59L26.9119 7.59C26.9804 7.74228 27.0096 7.90928 26.997 8.07576C26.9843 8.24225 26.9302 8.40291 26.8395 8.5431C26.7488 8.6833 26.6245 8.79855 26.4778 8.87836C26.3312 8.95817 26.1669 8.99999 25.9999 9ZM7.54591 7H24.4529L23.5529 4H8.44591L7.54591 7Z" fill="#5135FF"/>
</svg>
