<svg width="32" height="32" viewBox="0 0 32 32" fill="none" xmlns="http://www.w3.org/2000/svg">
<path d="M3.00001 29C2.73479 29 2.48051 28.8946 2.29298 28.707C2.10544 28.5195 2.00001 28.2652 2.00001 28C2.00001 27.7348 2.10544 27.4805 2.29298 27.293C2.48051 27.1054 2.73479 27 3.00001 27H15V23H4.00001C3.73773 23.0008 3.47791 22.9494 3.23536 22.8496C2.99281 22.7498 2.77222 22.6031 2.58643 22.418C2.40065 22.2328 2.25324 22.0137 2.1526 21.7715C2.05196 21.5293 2.00014 21.2691 2.00001 21.0068V5.00001C1.99922 4.73714 2.05042 4.47642 2.15064 4.23341C2.25087 3.9904 2.39812 3.76987 2.58399 3.58399C2.76987 3.39812 2.99064 3.25063 3.23365 3.1504C3.47666 3.05017 3.73714 2.99922 4.00001 3.00001H28.01C28.2724 3.00001 28.5321 3.05177 28.7744 3.15235C29.0167 3.25294 29.2369 3.40015 29.4221 3.58595C29.6074 3.77174 29.7542 3.99274 29.854 4.23536C29.9539 4.47798 30.0047 4.73765 30.0039 5.00001V21.0108C30.0037 21.5394 29.7936 22.0462 29.4197 22.4199C29.0458 22.7937 28.5387 23.0039 28.01 23.0039H17V27.0039H29C29.2652 27.0039 29.5195 27.1093 29.707 27.2969C29.8946 27.4844 30 27.7387 30 28.0039C30 28.2691 29.8946 28.5234 29.707 28.7109C29.5195 28.8985 29.2652 29.0039 29 29.0039L3.00001 29ZM4.00001 21.0059H28L27.9929 5.00587H3.99293L4.00001 21.0059Z" fill="#5135FF"/>
<path d="M24 22V17H20.8291C20.6223 17.5848 20.2394 18.091 19.7329 18.4492C19.2265 18.8074 18.6213 18.9999 18.001 19C17.2053 19 16.4422 18.6837 15.8796 18.1211C15.317 17.5585 15.001 16.7956 15.001 16C15.001 15.2044 15.317 14.4415 15.8796 13.8789C16.4422 13.3163 17.2053 13 18.001 13C18.6215 12.9999 19.2267 13.1926 19.7334 13.5508C20.2401 13.909 20.6233 14.415 20.8301 15H25C25.2652 15 25.5195 15.1054 25.707 15.293C25.8946 15.4805 26 15.7348 26 16V22C26 22.2652 25.8946 22.5195 25.707 22.707C25.5195 22.8946 25.2652 23 25 23C24.7348 23 24.4805 22.8946 24.293 22.707C24.1054 22.5195 24 22.2652 24 22ZM17 16C17 16.2652 17.1054 16.5195 17.293 16.707C17.4805 16.8946 17.7348 17 18 17C18.2652 17 18.5195 16.8946 18.707 16.707C18.8946 16.5195 19 16.2652 19 16C19 15.7348 18.8946 15.4805 18.707 15.293C18.5195 15.1054 18.2652 15 18 15C17.7348 15 17.4805 15.1054 17.293 15.293C17.1054 15.4805 17 15.7348 17 16ZM4 18C3.73478 18 3.48051 17.8946 3.29297 17.707C3.10543 17.5195 3 17.2652 3 17C3 16.7348 3.10543 16.4805 3.29297 16.293C3.48051 16.1054 3.73478 16 4 16H9V14.8301C8.41517 14.6233 7.90871 14.2399 7.55054 13.7334C7.19236 13.2269 7.00009 12.6223 7 12.002C7 11.2063 7.31605 10.4435 7.87866 9.88086C8.44127 9.31825 9.20435 9.00195 10 9.00195C10.7956 9.00195 11.5587 9.31825 12.1213 9.88086C12.6839 10.4435 13 11.2063 13 12.002C12.9999 12.6223 12.8076 13.2269 12.4495 13.7334C12.0913 14.2399 11.5848 14.6233 11 14.8301V17C11 17.2652 10.8946 17.5195 10.707 17.707C10.5195 17.8946 10.2652 18 10 18H4ZM9 12C9 12.2652 9.10543 12.5195 9.29297 12.707C9.48051 12.8946 9.73478 13 10 13C10.2652 13 10.5195 12.8946 10.707 12.707C10.8946 12.5195 11 12.2652 11 12C11 11.7348 10.8946 11.4805 10.707 11.293C10.5195 11.1054 10.2652 11 10 11C9.73478 11 9.48051 11.1054 9.29297 11.293C9.10543 11.4805 9 11.7348 9 12ZM19 9C19 8.20435 19.3161 7.44152 19.8787 6.87891C20.4413 6.3163 21.2044 6 22 6C22.6205 5.99988 23.2258 6.19259 23.7324 6.55078C24.2391 6.90897 24.6223 7.415 24.8291 8H29V10H24.8301C24.6233 10.5848 24.2403 11.091 23.7339 11.4492C23.2274 11.8074 22.6223 11.9999 22.002 12C21.6078 12.0003 21.2175 11.9231 20.8533 11.7725C20.4891 11.6218 20.1582 11.4007 19.8794 11.1221C19.6006 10.8435 19.3794 10.5125 19.2285 10.1484C19.0776 9.78433 19 9.39413 19 9ZM21 9C21 9.26522 21.1054 9.51949 21.293 9.70703C21.4805 9.89457 21.7348 10 22 10C22.2652 10 22.5195 9.89457 22.707 9.70703C22.8946 9.51949 23 9.26522 23 9C23 8.73478 22.8946 8.48051 22.707 8.29297C22.5195 8.10543 22.2652 8 22 8C21.7348 8 21.4805 8.10543 21.293 8.29297C21.1054 8.48051 21 8.73478 21 9Z" fill="#5135FF"/>
</svg>
