<svg width="32" height="32" viewBox="0 0 32 32" fill="none" xmlns="http://www.w3.org/2000/svg">
<path d="M16 31.002C7.729 31.002 1 28.302 1 25.002C1 24.971 1 24.941 1 24.91V7.00195H3V25.002C3 27.208 8.832 29.002 16 29.002C23.168 29.002 29 27.202 29 25.002V7.00195H31V25.002C31 28.302 24.271 31.002 16 31.002Z" fill="#5135FF"/>
<path d="M15.999 13C7.72802 13 0.999023 10.308 0.999023 7C0.999023 3.692 7.72802 1 15.999 1C24.27 1 30.999 3.691 30.999 7C30.999 10.309 24.271 13 15.999 13ZM15.999 3C8.83002 3 2.99902 4.794 2.99902 7C2.99902 9.206 8.83202 11 15.999 11C23.166 11 28.999 9.206 28.999 7C28.999 4.794 23.169 3 15.999 3Z" fill="#5135FF"/>
<path d="M25.218 22H17.7853C17.6071 22.0012 17.4318 21.9544 17.278 21.8643C17.1242 21.7742 16.9975 21.6444 16.9113 21.4883C16.8231 21.3337 16.7784 21.1575 16.7819 20.9795C16.7855 20.8015 16.837 20.6276 16.9313 20.4766L20.6481 14.3936C20.7367 14.2467 20.8619 14.126 21.0114 14.042C21.1609 13.958 21.3297 13.9143 21.5012 13.915C21.6726 13.9143 21.8414 13.958 21.9909 14.042C22.1404 14.126 22.2656 14.2467 22.3542 14.3936L26.072 20.4766C26.166 20.6277 26.2176 20.8015 26.2209 20.9795C26.2242 21.1575 26.1793 21.3337 26.091 21.4883C26.0051 21.6443 25.879 21.7741 25.7253 21.8643C25.5716 21.9544 25.3961 22.0012 25.218 22ZM21.5002 16.7998L19.5002 20H23.5002L21.5002 16.7998Z" fill="#5135FF"/>
<path d="M13 26H8C7.46957 26 6.96101 25.7891 6.58594 25.4141C6.21086 25.039 6 24.5304 6 24V19C6 18.4696 6.21086 17.961 6.58594 17.5859C6.96101 17.2109 7.46957 17 8 17H13C13.5304 17 14.039 17.2109 14.4141 17.5859C14.7891 17.961 15 18.4696 15 19V24C15 24.5304 14.7891 25.039 14.4141 25.4141C14.039 25.7891 13.5304 26 13 26ZM8 19V24H13V19H8Z" fill="#5135FF"/>
</svg>
