<svg width="32" height="32" viewBox="0 0 32 32" fill="none" xmlns="http://www.w3.org/2000/svg">
<path d="M20.8194 19.9355H19.4004V27.0605H20.8194V19.9355Z" fill="#5135FF"/>
<path d="M22.5645 19.9355H24.8955C26.4675 19.9355 27.6745 20.4845 27.6745 22.1695C27.6745 23.7965 26.4585 24.5285 24.9325 24.5285H23.9835V27.0605H22.5645V19.9355ZM24.8365 23.3975C25.8145 23.3975 26.2835 22.9835 26.2835 22.1655C26.2835 21.3475 25.7655 21.0585 24.7835 21.0585H23.9785V23.3975H24.8365Z" fill="#5135FF"/>
<path d="M28.8577 6.37675C27.2602 4.26281 25.1645 2.57725 22.7577 1.47036C20.3509 0.363475 17.7076 -0.130336 15.0637 0.0329626C12.4198 0.196262 9.85733 1.0116 7.60486 2.40626C5.35239 3.80093 3.4799 5.73157 2.15437 8.02605C0.828834 10.3205 0.091452 12.9075 0.00797421 15.5563C-0.0755036 18.2052 0.497517 20.8335 1.67594 23.2069C2.85436 25.5804 4.60156 27.6252 6.76174 29.1591C8.92192 30.6929 11.4279 31.6681 14.0563 31.9977V29.9677C11.2124 29.5541 8.56372 28.2777 6.4677 26.3107C6.23399 25.2219 6.11506 24.1115 6.11286 22.9977C6.11817 22.2928 6.16959 21.589 6.26679 20.8907C8.68125 22.3107 11.3415 23.263 14.1083 23.6977C14.2604 25.5421 14.9792 27.2942 16.1662 28.7135C17.3532 30.1329 18.9502 31.15 20.7379 31.6252C22.5257 32.1004 24.4166 32.0105 26.1513 31.3677C27.8859 30.725 29.3792 29.5609 30.4263 28.0353C31.4733 26.5097 32.0228 24.6973 31.9993 22.8468C31.9758 20.9963 31.3804 19.1985 30.2949 17.7C29.2094 16.2015 27.687 15.0758 25.9366 14.4774C24.1862 13.879 22.2936 13.8372 20.5184 14.3577C19.0495 12.3435 17.1802 10.6548 15.0279 9.39775C15.0505 9.26549 15.0642 9.13185 15.0689 8.99775C15.0638 8.88085 15.0521 8.76433 15.0339 8.64875C16.9653 7.68052 19.0769 7.12462 21.2345 7.01634C23.3922 6.90805 25.5487 7.24976 27.5673 8.01975C28.632 9.53454 29.3859 11.2455 29.7853 13.0537H31.8354C31.3866 10.7017 30.4158 8.48046 28.9947 6.55375M16.0644 2.00675C19.3548 2.00371 22.5407 3.16281 25.0604 5.27975C24.0616 5.09819 23.0489 5.00384 22.0338 4.99775C19.3031 5.00085 16.6101 5.63573 14.1653 6.85275C13.8522 6.54393 13.4744 6.30856 13.0592 6.16364C12.6441 6.01871 12.2019 5.96785 11.7647 6.01474C11.3276 6.06163 10.9062 6.20509 10.5312 6.43475C10.1562 6.66441 9.83689 6.97455 9.59631 7.34275C8.44926 7.11388 7.2825 6.99832 6.11286 6.99775C5.83898 6.99775 5.5721 7.02275 5.30322 7.03675C6.62021 5.46214 8.26637 4.19567 10.1257 3.32659C11.985 2.45752 14.0122 2.00698 16.0644 2.00675ZM13.0788 8.99775C13.0788 9.19553 13.0201 9.38887 12.9103 9.55332C12.8005 9.71777 12.6444 9.84594 12.4617 9.92163C12.2791 9.99732 12.0781 10.0171 11.8842 9.97853C11.6903 9.93995 11.5122 9.84471 11.3724 9.70485C11.2326 9.565 11.1374 9.38682 11.0989 9.19284C11.0603 8.99886 11.0801 8.79779 11.1557 8.61506C11.2314 8.43234 11.3595 8.27616 11.5239 8.16628C11.6883 8.0564 11.8815 7.99775 12.0792 7.99775C12.3443 7.99775 12.5985 8.10311 12.786 8.29064C12.9734 8.47818 13.0788 8.73253 13.0788 8.99775ZM9.09453 8.99775C9.09666 9.4365 9.19529 9.8694 9.3834 10.2657C7.34646 12.3101 5.82934 14.8135 4.95937 17.5657C3.90648 16.7294 2.93826 15.7915 2.06866 14.7657C2.25113 12.8041 2.84695 10.9034 3.81688 9.18875C4.57636 9.06779 5.34384 9.00395 6.11286 8.99775C7.1243 8.99735 8.13345 9.09379 9.12652 9.28575C9.11852 9.18975 9.09453 9.09775 9.09453 8.99775ZM4.13674 23.4797C3.05183 21.7437 2.3631 19.7896 2.11964 17.7567C2.84832 18.4522 3.62306 19.0977 4.4386 19.6887C4.23223 20.7797 4.1265 21.8874 4.12274 22.9977C4.12274 23.1597 4.13174 23.3187 4.13674 23.4797ZM6.6896 18.7977C7.4165 16.1136 8.8288 13.6647 10.7878 11.6917C11.3275 11.9631 11.9381 12.0603 12.5353 11.9698C13.1326 11.8794 13.687 11.6058 14.1223 11.1867C15.8638 12.2193 17.3949 13.5713 18.6353 15.1717C17.4466 15.8483 16.4277 16.787 15.656 17.9166C14.8844 19.0462 14.3804 20.337 14.1823 21.6907C11.5166 21.2368 8.96892 20.2531 6.6896 18.7977ZM23.0283 29.9977C21.6431 30.0041 20.2872 29.5989 19.1324 28.8336C17.9776 28.0683 17.0758 26.9773 16.5413 25.6988C16.0068 24.4203 15.8637 23.0118 16.13 21.6518C16.3964 20.2919 17.0602 19.0416 18.0375 18.0594C19.0147 17.0773 20.2614 16.4074 21.6195 16.1347C22.9776 15.862 24.3861 15.9987 25.6665 16.5276C26.9469 17.0564 28.0415 17.9536 28.8118 19.1054C29.582 20.2573 29.9932 21.6119 29.9932 22.9977C29.9954 24.8494 29.2633 26.6262 27.9575 27.9385C26.6518 29.2508 24.8791 29.9914 23.0283 29.9977Z" fill="#5135FF"/>
</svg>
