<svg width="32" height="32" viewBox="0 0 32 32" fill="none" xmlns="http://www.w3.org/2000/svg">
<g clip-path="url(#clip0_2920_5845)">
<path d="M18 23H1V21H18V23Z" fill="#5135FF"/>
<path d="M8.00003 19.9998C7.73484 19.9997 7.48052 19.8943 7.29303 19.7068C7.10556 19.5193 7.00024 19.265 7.00024 18.9998C7.00024 18.7346 7.10556 18.4803 7.29303 18.2928L10.293 15.2928C10.4806 15.1053 10.7349 15 11 15C11.2652 15 11.5195 15.1053 11.707 15.2928C11.8945 15.4803 11.9998 15.7346 11.9998 15.9998C11.9998 16.265 11.8945 16.5193 11.707 16.7068L8.70703 19.7068C8.51954 19.8943 8.26523 19.9997 8.00003 19.9998Z" fill="#5135FF"/>
<path d="M11 19.9998C10.7348 19.9997 10.4805 19.8943 10.293 19.7068L7.29303 16.7068C7.10556 16.5193 7.00024 16.265 7.00024 15.9998C7.00024 15.7346 7.10556 15.4803 7.29303 15.2928C7.48056 15.1053 7.73487 15 8.00003 15C8.26519 15 8.5195 15.1053 8.70703 15.2928L11.707 18.2928C11.8468 18.4326 11.942 18.6108 11.9806 18.8048C12.0192 18.9987 11.9994 19.1997 11.9237 19.3824C11.848 19.5651 11.7199 19.7213 11.5555 19.8312C11.3911 19.9411 11.1978 19.9997 11 19.9998Z" fill="#5135FF"/>
<path d="M9.00008 28.9999C8.73489 28.9999 8.48057 28.8945 8.29308 28.7069L6.29308 26.7069C6.19757 26.6147 6.12139 26.5043 6.06898 26.3823C6.01657 26.2603 5.98898 26.1291 5.98783 25.9963C5.98668 25.8635 6.01198 25.7319 6.06226 25.609C6.11254 25.4861 6.18679 25.3744 6.28069 25.2805C6.37458 25.1866 6.48623 25.1124 6.60913 25.0621C6.73202 25.0118 6.8637 24.9865 6.99648 24.9877C7.12926 24.9888 7.26048 25.0164 7.38249 25.0688C7.50449 25.1212 7.61483 25.1974 7.70708 25.2929L9.00008 26.5859L11.2931 24.2929C11.4817 24.1108 11.7343 24.01 11.9965 24.0122C12.2587 24.0145 12.5095 24.1197 12.6949 24.3051C12.8803 24.4905 12.9855 24.7413 12.9878 25.0035C12.99 25.2657 12.8892 25.5183 12.7071 25.7069L9.70708 28.7069C9.51959 28.8945 9.26528 28.9999 9.00008 28.9999Z" fill="#5135FF"/>
<path d="M4 10C3.73478 10 3.48043 9.89464 3.29289 9.70711C3.10536 9.51957 3 9.26522 3 9V8C3 7.20435 3.31607 6.44129 3.87868 5.87868C4.44129 5.31607 5.20435 5 6 5H9C9.26522 5 9.51957 5.10536 9.70711 5.29289C9.89464 5.48043 10 5.73478 10 6C10 6.26522 9.89464 6.51957 9.70711 6.70711C9.51957 6.89464 9.26522 7 9 7H6C5.73478 7 5.48043 7.10536 5.29289 7.29289C5.10536 7.48043 5 7.73478 5 8V9C5 9.26522 4.89464 9.51957 4.70711 9.70711C4.51957 9.89464 4.26522 10 4 10Z" fill="#5135FF"/>
<path d="M26 27H23C22.7348 27 22.4804 26.8946 22.2929 26.7071C22.1054 26.5196 22 26.2652 22 26C22 25.7348 22.1054 25.4804 22.2929 25.2929C22.4804 25.1054 22.7348 25 23 25H26C26.2652 25 26.5196 24.8946 26.7071 24.7071C26.8946 24.5196 27 24.2652 27 24V23C27 22.7348 27.1054 22.4804 27.2929 22.2929C27.4804 22.1054 27.7348 22 28 22C28.2652 22 28.5196 22.1054 28.7071 22.2929C28.8946 22.4804 29 22.7348 29 23V24C29 24.7956 28.6839 25.5587 28.1213 26.1213C27.5587 26.6839 26.7956 27 26 27Z" fill="#5135FF"/>
<path d="M7.50003 9.99992C7.30228 9.99988 7.10898 9.94121 6.94457 9.83132C6.78016 9.72144 6.65202 9.56527 6.57635 9.38257C6.50068 9.19987 6.48088 8.99884 6.51945 8.80489C6.55802 8.61093 6.65322 8.43277 6.79303 8.29292L9.08603 5.99992L6.79303 3.70692C6.61087 3.51832 6.51008 3.26571 6.51236 3.00352C6.51464 2.74132 6.6198 2.49051 6.80521 2.3051C6.99062 2.11969 7.24143 2.01452 7.50363 2.01224C7.76583 2.00997 8.01843 2.11076 8.20703 2.29292L11.207 5.29292C11.3945 5.48045 11.4998 5.73475 11.4998 5.99992C11.4998 6.26508 11.3945 6.51939 11.207 6.70692L8.20703 9.70692C8.01954 9.89447 7.76523 9.99986 7.50003 9.99992Z" fill="#5135FF"/>
<path d="M24.5 29.9999C24.2348 29.9999 23.9805 29.8945 23.793 29.7069L20.793 26.7069C20.6056 26.5194 20.5002 26.2651 20.5002 25.9999C20.5002 25.7348 20.6056 25.4804 20.793 25.2929L23.793 22.2929C23.9816 22.1108 24.2342 22.01 24.4964 22.0122C24.7586 22.0145 25.0094 22.1197 25.1948 22.3051C25.3803 22.4905 25.4854 22.7413 25.4877 23.0035C25.49 23.2657 25.3892 23.5183 25.207 23.7069L22.914 25.9999L25.207 28.2929C25.3468 28.4328 25.442 28.6109 25.4806 28.8049C25.5192 28.9988 25.4994 29.1999 25.4237 29.3826C25.348 29.5653 25.2199 29.7214 25.0555 29.8313C24.8911 29.9412 24.6978 29.9999 24.5 29.9999Z" fill="#5135FF"/>
<path d="M25.172 2L30 6.828V18H17V2H25.172ZM26 0H16.4C16.0287 0 15.6726 0.1475 15.4101 0.410051C15.1475 0.672601 15 1.0287 15 1.4V18.6C15 18.9713 15.1475 19.3274 15.4101 19.5899C15.6726 19.8525 16.0287 20 16.4 20H30.6C30.9713 20 31.3274 19.8525 31.5899 19.5899C31.8525 19.3274 32 18.9713 32 18.6V6L26 0Z" fill="#5135FF"/>
<path d="M30 8H25C24.7348 8 24.4804 7.89464 24.2929 7.70711C24.1054 7.51957 24 7.26522 24 7V2C24 1.73478 24.1054 1.48043 24.2929 1.29289C24.4804 1.10536 24.7348 1 25 1C25.2652 1 25.5196 1.10536 25.7071 1.29289C25.8946 1.48043 26 1.73478 26 2V6H30C30.2652 6 30.5196 6.10536 30.7071 6.29289C30.8946 6.48043 31 6.73478 31 7C31 7.26522 30.8946 7.51957 30.7071 7.70711C30.5196 7.89464 30.2652 8 30 8Z" fill="#5135FF"/>
<path d="M26.5 10H24.046L23.5 10.924L22.954 10H20.5L22.273 13L20.5 16H22.954L23.5 15.076L24.046 16H26.5L24.727 13L26.5 10Z" fill="#5135FF"/>
<path d="M17 30H2V14H16V12H1.4C1.0287 12 0.672601 12.1475 0.410051 12.4101C0.1475 12.6726 0 13.0287 0 13.4L0 30.6C0 30.9713 0.1475 31.3274 0.410051 31.5899C0.672601 31.8525 1.0287 32 1.4 32H17.6C17.9713 32 18.3274 31.8525 18.5899 31.5899C18.8525 31.3274 19 30.9713 19 30.6V19H17V30Z" fill="#5135FF"/>
</g>
<defs>
<clipPath id="clip0_2920_5845">
<rect width="32" height="32" fill="white"/>
</clipPath>
</defs>
</svg>
