<svg width="32" height="32" viewBox="0 0 32 32" fill="none" xmlns="http://www.w3.org/2000/svg">
<path d="M15.5 30C15.3674 30 15.2402 29.9473 15.1464 29.8535C15.0527 29.7597 15 29.6326 15 29.5V26.5C15 26.3674 15.0527 26.2403 15.1464 26.1465C15.2402 26.0527 15.3674 26 15.5 26H16.5C16.6326 26 16.7598 26.0527 16.8536 26.1465C16.9473 26.2403 17 26.3674 17 26.5V29.5C17 29.6326 16.9473 29.7597 16.8536 29.8535C16.7598 29.9473 16.6326 30 16.5 30H15.5ZM24.838 26.2531L22.717 24.132C22.6232 24.0382 22.5706 23.911 22.5706 23.7784C22.5706 23.6459 22.6232 23.5188 22.717 23.425L23.424 22.719C23.5178 22.6253 23.6449 22.5726 23.7775 22.5726C23.9101 22.5726 24.0372 22.6253 24.131 22.719L26.252 24.84C26.3457 24.9337 26.3984 25.0609 26.3984 25.1935C26.3984 25.3261 26.3457 25.4532 26.252 25.547L25.545 26.254C25.4985 26.3004 25.4432 26.3371 25.3825 26.3622C25.3218 26.3872 25.2567 26.4001 25.191 26.4C25.0588 26.3995 24.9313 26.3466 24.838 26.2531ZM6.45398 26.2531L5.74701 25.546C5.65327 25.4523 5.60059 25.3251 5.60059 25.1925C5.60059 25.0599 5.65327 24.9328 5.74701 24.839L7.86798 22.718C7.96174 22.6243 8.08891 22.5717 8.2215 22.5717C8.35408 22.5717 8.48125 22.6243 8.57501 22.718L9.28101 23.424C9.37474 23.5177 9.42737 23.6449 9.42737 23.7775C9.42737 23.91 9.37474 24.0372 9.28101 24.131L7.15997 26.252C7.06627 26.3454 6.93936 26.3979 6.80701 26.3979C6.6748 26.3982 6.54785 26.3462 6.45398 26.2531ZM14.614 22.926L9.07397 17.386C8.70673 17.0186 8.50043 16.5204 8.50043 16.001C8.50043 15.4815 8.70673 14.9833 9.07397 14.616L14.614 9.07495C14.9814 8.7077 15.4796 8.50146 15.999 8.50146C16.5185 8.50146 17.0166 8.7077 17.384 9.07495L22.925 14.616C23.2922 14.9833 23.4985 15.4815 23.4985 16.001C23.4985 16.5204 23.2922 17.0186 22.925 17.386L17.384 22.926C17.2023 23.1082 16.9865 23.2527 16.7488 23.3512C16.5111 23.4497 16.2563 23.5003 15.999 23.5C15.7419 23.5001 15.4873 23.4495 15.2498 23.351C15.0123 23.2525 14.7956 23.1081 14.614 22.926ZM10.459 16L15.999 21.54L21.54 16L15.999 10.459L10.459 16ZM26.5 17C26.3674 17 26.2402 16.9473 26.1464 16.8535C26.0527 16.7597 26 16.6326 26 16.5V15.5C26 15.3674 26.0527 15.2403 26.1464 15.1465C26.2402 15.0527 26.3674 15 26.5 15H29.5C29.6326 15 29.7598 15.0527 29.8536 15.1465C29.9473 15.2403 30 15.3674 30 15.5V16.5C30 16.6326 29.9473 16.7597 29.8536 16.8535C29.7598 16.9473 29.6326 17 29.5 17H26.5ZM2.5 17C2.36739 17 2.24019 16.9473 2.14642 16.8535C2.05266 16.7597 2 16.6326 2 16.5V15.5C2 15.3674 2.05266 15.2403 2.14642 15.1465C2.24019 15.0527 2.36739 15 2.5 15H5.5C5.63261 15 5.75981 15.0527 5.85358 15.1465C5.94734 15.2403 6 15.3674 6 15.5V16.5C6 16.6326 5.94734 16.7597 5.85358 16.8535C5.75981 16.9473 5.63261 17 5.5 17H2.5ZM23.425 9.28198L22.718 8.57495C22.6243 8.48119 22.5716 8.35414 22.5716 8.22156C22.5716 8.08898 22.6243 7.96181 22.718 7.86804L24.839 5.74695C24.9328 5.65321 25.0599 5.60059 25.1925 5.60059C25.3251 5.60059 25.4523 5.65321 25.546 5.74695L26.253 6.45398C26.3467 6.54774 26.3994 6.67491 26.3994 6.8075C26.3994 6.94008 26.3467 7.06725 26.253 7.16101L24.131 9.28198C24.0373 9.37545 23.9104 9.42795 23.778 9.42798C23.6458 9.42822 23.5189 9.37508 23.425 9.28198ZM7.86798 9.28198L5.74701 7.16101C5.65327 7.06725 5.60059 6.94008 5.60059 6.8075C5.60059 6.67491 5.65327 6.54774 5.74701 6.45398L6.45398 5.74695C6.5477 5.65352 6.67467 5.60107 6.80701 5.60107C6.93934 5.60107 7.06625 5.65352 7.15997 5.74695L9.28101 7.86804C9.37474 7.96181 9.42737 8.08898 9.42737 8.22156C9.42737 8.35414 9.37474 8.48119 9.28101 8.57495L8.57501 9.28198C8.52849 9.32838 8.47328 9.36521 8.41254 9.39026C8.35179 9.41531 8.28671 9.4281 8.22101 9.42798C8.0888 9.42822 7.96185 9.37508 7.86798 9.28198ZM15.5 6C15.3674 6 15.2402 5.94728 15.1464 5.85352C15.0527 5.75975 15 5.63261 15 5.5V2.5C15 2.36739 15.0527 2.24025 15.1464 2.14648C15.2402 2.05272 15.3674 2 15.5 2H16.5C16.6326 2 16.7598 2.05272 16.8536 2.14648C16.9473 2.24025 17 2.36739 17 2.5V5.5C17 5.63261 16.9473 5.75975 16.8536 5.85352C16.7598 5.94728 16.6326 6 16.5 6H15.5Z" fill="#5135FF"/>
</svg>
