<svg width="32" height="32" viewBox="0 0 32 32" fill="none" xmlns="http://www.w3.org/2000/svg">
<path d="M13 28H4C3.46957 28 2.96089 27.7891 2.58582 27.4141C2.21074 27.039 2 26.5304 2 26V4C2 3.46957 2.21074 2.96101 2.58582 2.58594C2.96089 2.21086 3.46957 2 4 2H26C26.5304 2 27.0391 2.21086 27.4142 2.58594C27.7893 2.96101 28 3.46957 28 4V16H26V4H4V26H13V28Z" fill="#5135FF"/>
<path fill-rule="evenodd" clip-rule="evenodd" d="M21.1709 28.0001L26.2549 24.4411C26.7129 24.7682 27.2538 24.9599 27.8156 24.9942C28.3774 25.0285 28.9375 24.904 29.432 24.6351C29.9264 24.3661 30.3352 23.9634 30.6116 23.4731C30.8881 22.9829 31.021 22.4247 30.9952 21.8624C30.9695 21.3001 30.7861 20.7565 30.4659 20.2935C30.1458 19.8305 29.7019 19.467 29.1849 19.2444C28.6679 19.0217 28.0988 18.9491 27.5425 19.0346C26.9861 19.1201 26.4651 19.3605 26.0389 19.7281L23.9509 18.5351C24.0469 18.0048 23.9984 17.4585 23.8103 16.9534C23.6222 16.4484 23.3015 16.0034 22.882 15.6651C22.4625 15.3269 21.9596 15.1078 21.4262 15.0311C20.8928 14.9543 20.3486 15.0227 19.8507 15.2289C19.3528 15.4352 18.9197 15.7718 18.5969 16.2032C18.274 16.6347 18.0733 17.1452 18.016 17.6811C17.9586 18.2169 18.0466 18.7583 18.2708 19.2484C18.4949 19.7385 18.847 20.1591 19.2899 20.4661L17.7789 26.0081C17.2397 26.0479 16.7213 26.2326 16.2785 26.5427C15.8357 26.8528 15.4849 27.2769 15.2633 27.7699C15.0416 28.263 14.9573 28.8069 15.0193 29.3439C15.0813 29.881 15.2872 30.3913 15.6154 30.8209C15.9435 31.2506 16.3817 31.5836 16.8835 31.7847C17.3853 31.9858 17.9321 32.0476 18.4662 31.9635C19.0002 31.8794 19.5016 31.6525 19.9173 31.3069C20.3331 30.9613 20.6477 30.5098 20.8279 30.0001H26.1689C26.4048 30.6673 26.869 31.2297 27.4794 31.5877C28.0898 31.9458 28.8071 32.0766 29.5046 31.9569C30.2021 31.8372 30.8349 31.4748 31.291 30.9338C31.7471 30.3927 31.9973 29.7078 31.9973 29.0001C31.9973 28.2924 31.7471 27.6075 31.291 27.0664C30.8349 26.5254 30.2021 26.163 29.5046 26.0433C28.8071 25.9236 28.0898 26.0544 27.4794 26.4125C26.869 26.7705 26.4048 27.3329 26.1689 28.0001H21.1709ZM21.9989 18.0001C21.9989 18.1979 21.9402 18.3912 21.8304 18.5557C21.7205 18.7201 21.5643 18.8483 21.3816 18.924C21.1989 18.9997 20.9978 19.0195 20.8038 18.9809C20.6098 18.9423 20.4316 18.8471 20.2918 18.7072C20.1519 18.5674 20.0567 18.3892 20.0181 18.1952C19.9795 18.0012 19.9993 17.8001 20.075 17.6174C20.1507 17.4347 20.2789 17.2785 20.4433 17.1686C20.6078 17.0588 20.8011 17.0001 20.9989 17.0001C21.2641 17.0001 21.5185 17.1055 21.706 17.293C21.8935 17.4805 21.9989 17.7349 21.9989 18.0001ZM21.2199 20.9921L19.7089 26.5341L19.7439 26.5581L25.1079 22.8001C24.9878 22.3639 24.9669 21.9064 25.0469 21.4611L22.9589 20.2711C22.4721 20.6926 21.8621 20.9455 21.2199 20.9921ZM29.9989 29.0001C29.9989 29.1979 29.9402 29.3912 29.8304 29.5557C29.7205 29.7201 29.5643 29.8483 29.3816 29.924C29.1989 29.9997 28.9978 30.0195 28.8038 29.9809C28.6098 29.9423 28.4316 29.8471 28.2918 29.7072C28.1519 29.5674 28.0567 29.3892 28.0181 29.1952C27.9795 29.0012 27.9993 28.8001 28.075 28.6174C28.1507 28.4347 28.2789 28.2785 28.4433 28.1686C28.6078 28.0588 28.8011 28.0001 28.9989 28.0001C29.2641 28.0001 29.5185 28.1055 29.706 28.293C29.8935 28.4805 29.9989 28.7349 29.9989 29.0001ZM17.9989 30.0001C18.1967 30.0001 18.39 29.9415 18.5545 29.8316C18.7189 29.7217 18.8471 29.5655 18.9228 29.3828C18.9985 29.2001 19.0183 28.999 18.9797 28.805C18.9411 28.611 18.8459 28.4328 18.706 28.293C18.5662 28.1531 18.388 28.0579 18.194 28.0193C18 27.9807 17.7989 28.0005 17.6162 28.0762C17.4335 28.1519 17.2773 28.2801 17.1674 28.4445C17.0575 28.609 16.9989 28.8023 16.9989 29.0001C16.9989 29.2653 17.1043 29.5197 17.2918 29.7072C17.4793 29.8947 17.7337 30.0001 17.9989 30.0001ZM27.9989 23.0001C28.1967 23.0001 28.39 22.9415 28.5545 22.8316C28.7189 22.7217 28.8471 22.5655 28.9228 22.3828C28.9985 22.2001 29.0183 21.999 28.9797 21.805C28.9411 21.611 28.8459 21.4328 28.706 21.293C28.5662 21.1531 28.388 21.0579 28.194 21.0193C28 20.9807 27.7989 21.0005 27.6162 21.0762C27.4335 21.1519 27.2773 21.2801 27.1674 21.4445C27.0575 21.609 26.9989 21.8023 26.9989 22.0001C26.9989 22.2653 27.1043 22.5197 27.2918 22.7072C27.4793 22.8947 27.7337 23.0001 27.9989 23.0001Z" fill="#5135FF"/>
<path d="M19 8H7V10H19V8Z" fill="#5135FF"/>
<path d="M15 12H7V14H15V12Z" fill="#5135FF"/>
</svg>
