<svg width="32" height="32" viewBox="0 0 32 32" fill="none" xmlns="http://www.w3.org/2000/svg">
<path fill-rule="evenodd" clip-rule="evenodd" d="M5 32H27C27.5304 32 28.0391 31.7893 28.4142 31.4142C28.7893 31.0391 29 30.5304 29 30V8.828C28.9999 8.29761 28.7891 7.78899 28.414 7.414L21.586 0.586C21.211 0.210901 20.7024 0.000113275 20.172 0H5C4.46957 0 3.96086 0.210714 3.58579 0.585786C3.21071 0.960859 3 1.46957 3 2V30C3 30.5304 3.21071 31.0391 3.58579 31.4142C3.96086 31.7893 4.46957 32 5 32ZM27 30H5V2H19V9C19 9.26522 19.1054 9.51957 19.2929 9.70711C19.4804 9.89464 19.7348 10 20 10H27V30ZM26.172 8H21V2.828L26.172 8Z" fill="#5135FF"/>
<path fill-rule="evenodd" clip-rule="evenodd" d="M19 13.9999C19.0001 14.6204 18.8078 15.2257 18.4497 15.7323C18.0915 16.239 17.585 16.6221 17 16.8289V17.9999H19.5C19.8978 17.9999 20.2794 18.158 20.5607 18.4393C20.842 18.7206 21 19.1021 21 19.4999V21.1709C21.6672 21.4068 22.2296 21.871 22.5876 22.4814C22.9457 23.0918 23.0765 23.8092 22.9568 24.5066C22.8371 25.2041 22.4747 25.8369 21.9337 26.293C21.3926 26.7492 20.7077 26.9993 20 26.9993C19.2923 26.9993 18.6074 26.7492 18.0663 26.293C17.5253 25.8369 17.1629 25.2041 17.0432 24.5066C16.9235 23.8092 17.0543 23.0918 17.4124 22.4814C17.7705 21.871 18.3328 21.4068 19 21.1709V19.9999H13V21.1709C13.6672 21.4068 14.2296 21.871 14.5876 22.4814C14.9457 23.0918 15.0765 23.8092 14.9568 24.5066C14.8371 25.2041 14.4747 25.8369 13.9337 26.293C13.3926 26.7492 12.7077 26.9993 12 26.9993C11.2923 26.9993 10.6074 26.7492 10.0663 26.293C9.52528 25.8369 9.16288 25.2041 9.04321 24.5066C8.92354 23.8092 9.0543 23.0918 9.41237 22.4814C9.77045 21.871 10.3328 21.4068 11 21.1709V19.4999C11 19.1021 11.158 18.7206 11.4393 18.4393C11.7207 18.158 12.1022 17.9999 12.5 17.9999H15V16.8289C14.4815 16.6456 14.0233 16.3233 13.6756 15.8971C13.3279 15.471 13.1041 14.9575 13.0285 14.4128C12.9529 13.868 13.0285 13.313 13.2471 12.8083C13.4656 12.3036 13.8187 11.8687 14.2677 11.5512C14.7167 11.2336 15.2444 11.0456 15.7931 11.0076C16.3417 10.9697 16.8903 11.0833 17.3787 11.3361C17.8672 11.5888 18.2768 11.971 18.5627 12.4408C18.8486 12.9106 18.9999 13.4499 19 13.9999ZM17 13.9999C17 14.1977 16.9414 14.391 16.8315 14.5555C16.7216 14.7199 16.5654 14.8481 16.3827 14.9238C16.2 14.9995 15.9989 15.0193 15.8049 14.9807C15.6109 14.9421 15.4328 14.8469 15.2929 14.707C15.153 14.5672 15.0578 14.389 15.0192 14.195C14.9806 14.001 15.0004 13.8 15.0761 13.6172C15.1518 13.4345 15.28 13.2783 15.4444 13.1684C15.6089 13.0586 15.8022 12.9999 16 12.9999C16.2652 12.9999 16.5196 13.1053 16.7071 13.2928C16.8947 13.4803 17 13.7347 17 13.9999ZM13 23.9999C13 24.1977 12.9414 24.391 12.8315 24.5555C12.7216 24.7199 12.5654 24.8481 12.3827 24.9238C12.2 24.9995 11.9989 25.0193 11.8049 24.9807C11.6109 24.9421 11.4328 24.8469 11.2929 24.707C11.153 24.5672 11.0578 24.389 11.0192 24.195C10.9806 24.001 11.0004 23.8 11.0761 23.6172C11.1518 23.4345 11.28 23.2783 11.4444 23.1684C11.6089 23.0586 11.8022 22.9999 12 22.9999C12.2652 22.9999 12.5196 23.1053 12.7071 23.2928C12.8946 23.4803 13 23.7347 13 23.9999ZM20 24.9999C20.1978 24.9999 20.3911 24.9413 20.5556 24.8314C20.72 24.7215 20.8482 24.5653 20.9239 24.3826C20.9996 24.1999 21.0194 23.9988 20.9808 23.8048C20.9422 23.6108 20.847 23.4327 20.7071 23.2928C20.5673 23.153 20.3891 23.0577 20.1951 23.0191C20.0011 22.9805 19.8 23.0003 19.6173 23.076C19.4346 23.1517 19.2784 23.2799 19.1685 23.4443C19.0587 23.6088 19 23.8021 19 23.9999C19 24.2651 19.1054 24.5195 19.2929 24.707C19.4804 24.8946 19.7348 24.9999 20 24.9999Z" fill="#5135FF"/>
</svg>
