<svg width="32" height="32" viewBox="0 0 32 32" fill="none" xmlns="http://www.w3.org/2000/svg">
<path d="M24 25H4V2H24V25ZM25 0H3C2.73478 0 2.48043 0.105357 2.29289 0.292893C2.10536 0.48043 2 0.734784 2 1V25.863C2 26.1646 2.11979 26.4538 2.33302 26.667C2.54625 26.8802 2.83545 27 3.137 27H25C25.2652 27 25.5196 26.8946 25.7071 26.7071C25.8946 26.5196 26 26.2652 26 26V1C26 0.734784 25.8946 0.48043 25.7071 0.292893C25.5196 0.105357 25.2652 0 25 0Z" fill="#5135FF"/>
<path d="M29 32H7.137C6.83553 31.9997 6.54648 31.8799 6.33331 31.6667C6.12014 31.4535 6.00026 31.1645 6 30.863V28H8V30H28V7H27V5H29C29.2652 5 29.5196 5.10536 29.7071 5.29289C29.8946 5.48043 30 5.73478 30 6V31C30 31.2652 29.8946 31.5196 29.7071 31.7071C29.5196 31.8946 29.2652 32 29 32Z" fill="#5135FF"/>
<path d="M12 7H10V6C10 5.73478 10.1054 5.48043 10.2929 5.29289C10.4804 5.10536 10.7348 5 11 5C11.2652 5 11.5196 5.10536 11.7071 5.29289C11.8946 5.48043 12 5.73478 12 6V7Z" fill="#5135FF"/>
<path d="M18 7H16V6C16 5.73478 16.1054 5.48043 16.2929 5.29289C16.4804 5.10536 16.7348 5 17 5C17.2652 5 17.5196 5.10536 17.7071 5.29289C17.8946 5.48043 18 5.73478 18 6V7Z" fill="#5135FF"/>
<path d="M20 11V9H21C21.2652 9 21.5196 9.10536 21.7071 9.29289C21.8946 9.48043 22 9.73478 22 10C22 10.2652 21.8946 10.5196 21.7071 10.7071C21.5196 10.8946 21.2652 11 21 11H20Z" fill="#5135FF"/>
<path d="M20 17V15H21C21.2652 15 21.5196 15.1054 21.7071 15.2929C21.8946 15.4804 22 15.7348 22 16C22 16.2652 21.8946 16.5196 21.7071 16.7071C21.5196 16.8946 21.2652 17 21 17H20Z" fill="#5135FF"/>
<path d="M8 15V17H7C6.73478 17 6.48043 16.8946 6.29289 16.7071C6.10536 16.5196 6 16.2652 6 16C6 15.7348 6.10536 15.4804 6.29289 15.2929C6.48043 15.1054 6.73478 15 7 15H8Z" fill="#5135FF"/>
<path d="M8 9V11H7C6.73478 11 6.48043 10.8946 6.29289 10.7071C6.10536 10.5196 6 10.2652 6 10C6 9.73478 6.10536 9.48043 6.29289 9.29289C6.48043 9.10536 6.73478 9 7 9H8Z" fill="#5135FF"/>
<path d="M16 19H18V20C18 20.2652 17.8946 20.5196 17.7071 20.7071C17.5196 20.8946 17.2652 21 17 21C16.7348 21 16.4804 20.8946 16.2929 20.7071C16.1054 20.5196 16 20.2652 16 20V19Z" fill="#5135FF"/>
<path d="M10 19H12V20C12 20.2652 11.8946 20.5196 11.7071 20.7071C11.5196 20.8946 11.2652 21 11 21C10.7348 21 10.4804 20.8946 10.2929 20.7071C10.1054 20.5196 10 20.2652 10 20V19Z" fill="#5135FF"/>
<path d="M15 16H13C12.4696 16 11.9609 15.7893 11.5858 15.4142C11.2107 15.0391 11 14.5304 11 14V12C11 11.4696 11.2107 10.9609 11.5858 10.5858C11.9609 10.2107 12.4696 10 13 10H15C15.5304 10 16.0391 10.2107 16.4142 10.5858C16.7893 10.9609 17 11.4696 17 12V14C17 14.5304 16.7893 15.0391 16.4142 15.4142C16.0391 15.7893 15.5304 16 15 16ZM13 12V14H15V12H13Z" fill="#5135FF"/>
<path d="M18.286 19H9.714C9.25958 18.9995 8.82393 18.8187 8.5026 18.4974C8.18128 18.1761 8.00053 17.7404 8 17.286V8.714C8.00053 8.25958 8.18128 7.82393 8.5026 7.5026C8.82393 7.18128 9.25958 7.00053 9.714 7H18.286C18.7404 7.00053 19.1761 7.18128 19.4974 7.5026C19.8187 7.82393 19.9995 8.25958 20 8.714V17.286C19.9995 17.7404 19.8187 18.1761 19.4974 18.4974C19.1761 18.8187 18.7404 18.9995 18.286 19ZM10 9V17H18V9H10Z" fill="#5135FF"/>
</svg>
