<svg width="32" height="32" viewBox="0 0 32 32" fill="none" xmlns="http://www.w3.org/2000/svg">
<path d="M12.143 28H3.5C3.36739 28 3.24022 27.9473 3.14645 27.8535C3.05269 27.7597 3 27.6326 3 27.5V26.5C3 26.3674 3.05269 26.2403 3.14645 26.1465C3.24022 26.0527 3.36739 26 3.5 26H12.144C12.323 25.3124 12.6823 24.685 13.1847 24.1826C13.6871 23.6802 14.3144 23.3206 15.002 23.1416V21.9521C12.5355 21.7043 10.2491 20.5493 8.58609 18.7109C6.92312 16.8726 6.00222 14.4818 6.002 12.0029C6.002 9.35076 7.05557 6.807 8.93094 4.93164C10.8063 3.05628 13.3498 2.00293 16.002 2.00293C18.6542 2.00293 21.1977 3.05628 23.0731 4.93164C24.9484 6.807 26.002 9.35076 26.002 12.0029C26.0018 14.4818 25.0809 16.8726 23.4179 18.7109C21.7549 20.5493 19.4685 21.7043 17.002 21.9521V23.1416C17.6896 23.3206 18.3169 23.6802 18.8193 24.1826C19.3217 24.685 19.681 25.3124 19.86 26H28.502C28.6346 26 28.7618 26.0527 28.8556 26.1465C28.9493 26.2403 29.002 26.3674 29.002 26.5V27.5C29.002 27.6326 28.9493 27.7597 28.8556 27.8535C28.7618 27.9473 28.6346 28 28.502 28H19.86C19.639 28.8561 19.1404 29.6144 18.4424 30.1572C17.7444 30.7 16.8862 30.9967 16.002 31C15.1173 30.9979 14.2584 30.7021 13.56 30.1592C12.8616 29.6162 12.3632 28.8568 12.143 28ZM14.001 27C14.001 27.5304 14.2117 28.039 14.5868 28.4141C14.9619 28.7891 15.4706 29 16.001 29C16.5314 29 17.0401 28.7891 17.4152 28.4141C17.7903 28.039 18.001 27.5304 18.001 27C18.001 26.4696 17.7903 25.961 17.4152 25.5859C17.0401 25.2109 16.5314 25 16.001 25C15.7383 24.9999 15.4781 25.0519 15.2353 25.1523C14.9926 25.2528 14.772 25.3992 14.5861 25.585C14.4003 25.7707 14.2529 25.9917 14.1523 26.2344C14.0518 26.4771 14 26.7373 14 27H14.001ZM8.00101 12C8.00286 14.1212 8.8463 16.1554 10.3462 17.6553C11.8461 19.1552 13.8798 19.9981 16.001 20C18.1221 19.9979 20.1557 19.1541 21.6555 17.6543C23.1553 16.1545 23.9989 14.1211 24.001 12C23.9989 9.87892 23.1553 7.84554 21.6555 6.3457C20.1557 4.84587 18.1221 4.00212 16.001 4C13.8798 4.00185 11.8459 4.84487 10.3458 6.34473C8.84579 7.84459 8.00212 9.87875 8 12H8.00101ZM17.357 14.7686L15.293 12.707C15.1944 12.6083 15.1176 12.4896 15.0675 12.3594C15.0174 12.2292 14.9951 12.0905 15.002 11.9512V7C15.002 6.73478 15.1074 6.48051 15.2949 6.29297C15.4824 6.10543 15.7368 6 16.002 6C16.2672 6 16.5216 6.10543 16.7091 6.29297C16.8966 6.48051 17.002 6.73478 17.002 7V11.584L18.773 13.3555C18.9605 13.543 19.0658 13.7964 19.0658 14.0615C19.0658 14.3267 18.9605 14.581 18.773 14.7686C18.5855 14.9561 18.3312 15.0615 18.066 15.0615C17.9342 15.062 17.8037 15.0374 17.6819 14.9873C17.56 14.9372 17.4493 14.8626 17.356 14.7695L17.357 14.7686Z" fill="#5135FF"/>
</svg>
