<svg width="32" height="32" viewBox="0 0 32 32" fill="none" xmlns="http://www.w3.org/2000/svg">
<path d="M11.9572 9.05518H8.66719C8.45501 9.05518 8.25153 9.13946 8.1015 9.28949C7.95147 9.43952 7.86719 9.643 7.86719 9.85518V13.1452C7.86719 13.3573 7.95147 13.5608 8.1015 13.7109C8.25153 13.8609 8.45501 13.9452 8.66719 13.9452H11.9572C12.1694 13.9452 12.3728 13.8609 12.5229 13.7109C12.6729 13.5608 12.7572 13.3573 12.7572 13.1452V9.85518C12.7572 9.643 12.6729 9.43952 12.5229 9.28949C12.3728 9.13946 12.1694 9.05518 11.9572 9.05518ZM11.1572 12.3452H9.46719V10.6552H11.1572V12.3452Z" fill="#5135FF"/>
<path d="M19.9572 9.05518H16.6672C16.455 9.05518 16.2515 9.13946 16.1015 9.28949C15.9515 9.43952 15.8672 9.643 15.8672 9.85518V13.1452C15.8672 13.3573 15.9515 13.5608 16.1015 13.7109C16.2515 13.8609 16.455 13.9452 16.6672 13.9452H19.9572C20.1694 13.9452 20.3728 13.8609 20.5229 13.7109C20.6729 13.5608 20.7572 13.3573 20.7572 13.1452V9.85518C20.7572 9.643 20.6729 9.43952 20.5229 9.28949C20.3728 9.13946 20.1694 9.05518 19.9572 9.05518ZM19.1572 12.3452H17.4672V10.6552H19.1572V12.3452Z" fill="#5135FF"/>
<path d="M24.2571 5H4.36914V3C4.36914 2.73478 4.26378 2.48043 4.07625 2.29289C3.88871 2.10536 3.63436 2 3.36914 2H1.86914C1.60392 2 1.34957 2.10536 1.16203 2.29289C0.974498 2.48043 0.869141 2.73478 0.869141 3C0.869141 3.26522 0.974498 3.51957 1.16203 3.70711C1.34957 3.89464 1.60392 4 1.86914 4H2.36914V6.988V7V19.5V19.512V23.999H1.86914C1.60392 23.999 1.34957 24.1044 1.16203 24.2919C0.974498 24.4794 0.869141 24.7338 0.869141 24.999C0.869141 25.2642 0.974498 25.5186 1.16203 25.7061C1.34957 25.8936 1.60392 25.999 1.86914 25.999H3.36914C3.63436 25.999 3.88871 25.8936 4.07625 25.7061C4.26378 25.5186 4.36914 25.2642 4.36914 24.999V21.499H7.65214V18.988C7.65214 18.7228 7.7575 18.4684 7.94503 18.2809C8.13257 18.0934 8.38692 17.988 8.65214 17.988H9.09514C9.36036 17.988 9.61471 18.0934 9.80225 18.2809C9.98978 18.4684 10.0951 18.7228 10.0951 18.988V21.5H16.9171V19.5H15.8671V17.43C15.8671 17.1648 15.7618 16.9104 15.5742 16.7229C15.3867 16.5354 15.1324 16.43 14.8671 16.43C14.6019 16.43 14.3476 16.5354 14.16 16.7229C13.9725 16.9104 13.8671 17.1648 13.8671 17.43V19.5H11.7231V17.411C11.7299 17.1389 11.6283 16.8753 11.4408 16.6781C11.2533 16.4808 10.9952 16.3661 10.7231 16.359H7.02314C6.75109 16.3661 6.49296 16.4808 6.30547 16.6781C6.11797 16.8753 6.01642 17.1389 6.02314 17.411V19.5H4.36914V7H24.2571V9.625H26.2571V7C26.2571 6.46957 26.0464 5.96086 25.6714 5.58579C25.2963 5.21071 24.7876 5 24.2571 5Z" fill="#5135FF"/>
<path d="M30.9173 20.2328C30.7313 20.0328 30.5483 19.8458 30.3663 19.6648C29.78 19.0771 29.1499 18.5349 28.4813 18.0428C28.4055 17.5258 28.2451 17.0247 28.0063 16.5598C27.9565 16.4748 27.8904 16.4003 27.8119 16.3408C27.7333 16.2813 27.6437 16.2378 27.5484 16.2129C27.453 16.188 27.3536 16.1822 27.256 16.1957C27.1583 16.2093 27.0643 16.2419 26.9793 16.2918C26.87 16.3576 26.7795 16.4506 26.7168 16.5617C26.6541 16.6728 26.6212 16.7983 26.6213 16.9258C26.4963 16.8678 26.3773 16.8258 26.2553 16.7718C25.6381 16.5075 24.9878 16.3282 24.3223 16.2388C24.768 15.7039 25.2484 15.1988 25.7603 14.7268C25.8356 14.6608 25.8969 14.5803 25.9406 14.4901C25.9843 14.3999 26.0095 14.3019 26.0147 14.2018C26.0198 14.1018 26.0049 14.0017 25.9708 13.9075C25.9366 13.8133 25.8839 13.7269 25.8159 13.6534C25.7478 13.5799 25.6656 13.5208 25.5743 13.4795C25.483 13.4383 25.3844 13.4158 25.2842 13.4133C25.184 13.4108 25.0844 13.4285 24.9911 13.4651C24.8979 13.5018 24.8129 13.5568 24.7413 13.6268C24.5693 13.7858 24.4133 13.9428 24.2553 14.0998C23.566 14.7773 22.9416 15.5179 22.3903 16.3118C21.9945 16.3916 21.6134 16.5319 21.2603 16.7278C21.0933 16.8317 20.9739 16.9973 20.9282 17.1887C20.8826 17.38 20.9142 17.5817 21.0163 17.7498C21.1077 17.8953 21.2471 18.0042 21.4103 18.0578C21.2092 18.5233 21.0516 19.0064 20.9393 19.5008H20.0793C19.8793 19.3078 19.6793 19.1008 19.4733 18.8828C19.3354 18.7482 19.151 18.6718 18.9584 18.6693C18.7657 18.6669 18.5794 18.7386 18.4381 18.8696C18.2968 19.0006 18.2113 19.181 18.1992 19.3733C18.1872 19.5656 18.2495 19.7552 18.3733 19.9028C18.5263 20.0678 18.6733 20.2188 18.8263 20.3708C19.243 20.7928 19.6503 21.1695 20.0483 21.5008C20.3073 21.7178 20.5633 21.9228 20.8133 22.1008C20.8891 22.614 21.0492 23.111 21.2873 23.5718C21.368 23.7125 21.4926 23.8227 21.6421 23.8855C21.7915 23.9483 21.9575 23.9602 22.1144 23.9194C22.2713 23.8786 22.4104 23.7873 22.5103 23.6596C22.6103 23.5319 22.6654 23.3749 22.6673 23.2128C23.3934 23.5601 24.1695 23.7912 24.9673 23.8978C24.5234 24.4309 24.045 24.9343 23.5353 25.4048C23.46 25.4709 23.3987 25.5514 23.355 25.6416C23.3113 25.7318 23.2861 25.8298 23.281 25.9298C23.2758 26.0299 23.2907 26.13 23.3248 26.2242C23.359 26.3184 23.4117 26.4048 23.4798 26.4783C23.5478 26.5518 23.63 26.6109 23.7213 26.6521C23.8126 26.6934 23.9113 26.7159 24.0114 26.7184C24.1116 26.7208 24.2112 26.7032 24.3045 26.6666C24.3977 26.6299 24.4827 26.5749 24.5543 26.5048C25.4377 25.7003 26.2271 24.7982 26.9073 23.8158C27.3014 23.7361 27.6811 23.5968 28.0333 23.4028C28.2006 23.2991 28.3201 23.1335 28.3658 22.9421C28.4115 22.7507 28.3797 22.5489 28.2773 22.3808C28.1866 22.2358 28.0479 22.1271 27.8853 22.0738C28.1838 21.4044 28.3888 20.6971 28.4943 19.9718C28.9578 20.3747 29.3994 20.802 29.8173 21.2518C29.8834 21.3272 29.9639 21.3885 30.0541 21.4322C30.1442 21.4758 30.2422 21.501 30.3423 21.5062C30.4424 21.5114 30.5424 21.4964 30.6366 21.4623C30.7308 21.4282 30.8172 21.3755 30.8907 21.3074C30.9643 21.2393 31.0234 21.1572 31.0646 21.0659C31.1058 20.9745 31.1284 20.8759 31.1308 20.7757C31.1333 20.6756 31.1157 20.5759 31.079 20.4827C31.0423 20.3894 30.9874 20.3045 30.9173 20.2328ZM26.0023 22.4448C24.8117 22.4712 23.6401 22.1422 22.6373 21.4998C22.5033 21.4218 22.3693 21.3458 22.2293 21.2558C22.2174 20.661 22.3011 20.0681 22.4773 19.4998C22.6704 18.8648 22.9422 18.2564 23.2863 17.6888C23.6102 17.6705 23.9351 17.6873 24.2553 17.7388C24.9545 17.8548 25.63 18.0842 26.2553 18.4178C26.5295 18.5574 26.7965 18.7106 27.0553 18.8768C27.0539 20.143 26.6873 21.3819 25.9993 22.4448" fill="#5135FF"/>
<path d="M27.152 11.0571C26.9696 11.0585 26.7906 11.1073 26.6328 11.1988C26.475 11.2904 26.3438 11.4214 26.252 11.5791C26.1407 11.7387 26.0811 11.9286 26.0811 12.1231C26.0811 12.3177 26.1407 12.5076 26.252 12.6671C26.3438 12.8248 26.475 12.9559 26.6328 13.0474C26.7906 13.139 26.9696 13.1878 27.152 13.1891C27.4347 13.1891 27.7059 13.0768 27.9058 12.8769C28.1057 12.677 28.218 12.4058 28.218 12.1231C28.218 11.8404 28.1057 11.5693 27.9058 11.3694C27.7059 11.1694 27.4347 11.0571 27.152 11.0571Z" fill="#5135FF"/>
<path d="M21.7541 26.812C21.5431 26.8114 21.3367 26.8734 21.161 26.9902C20.9853 27.107 20.8482 27.2733 20.7671 27.468C20.6859 27.6627 20.6644 27.8772 20.7052 28.0841C20.746 28.2911 20.8473 28.4813 20.9962 28.6307C21.1452 28.7801 21.3351 28.8819 21.542 28.9233C21.7489 28.9647 21.9633 28.9437 22.1583 28.8632C22.3533 28.7826 22.5199 28.6459 22.6372 28.4706C22.7545 28.2952 22.8171 28.089 22.8171 27.878C22.8171 27.5953 22.7047 27.3242 22.5048 27.1242C22.3049 26.9243 22.0338 26.812 21.7511 26.812" fill="#5135FF"/>
</svg>
