<svg width="32" height="32" viewBox="0 0 32 32" fill="none" xmlns="http://www.w3.org/2000/svg">
<path d="M27 4.00195H5C4.44772 4.00195 4 4.44967 4 5.00195V27.002C4 27.5542 4.44772 28.002 5 28.002H27C27.5523 28.002 28 27.5542 28 27.002V5.00195C28 4.44967 27.5523 4.00195 27 4.00195Z" stroke="#5135FF" stroke-width="2"/>
<path d="M11 14.002C12.6569 14.002 14 12.6588 14 11.002C14 9.3451 12.6569 8.00195 11 8.00195C9.34315 8.00195 8 9.3451 8 11.002C8 12.6588 9.34315 14.002 11 14.002Z" stroke="#5135FF" stroke-width="2"/>
<path d="M3.55322 24.1777L9.76001 18.252L14.7451 22.8262" stroke="#5135FF" stroke-width="2" stroke-linejoin="round"/>
<path d="M9.24609 28.4141L22.24 15.4219L28.54 20.3086" stroke="#5135FF" stroke-width="2" stroke-linejoin="round"/>
</svg>
