<svg width="32" height="32" viewBox="0 0 32 32" fill="none" xmlns="http://www.w3.org/2000/svg">
<path d="M25 30H7C6.73478 30 6.48043 29.8946 6.29289 29.7071C6.10536 29.5196 6 29.2652 6 29V11C6 10.7348 6.10536 10.4804 6.29289 10.2929C6.48043 10.1054 6.73478 10 7 10H25C25.2652 10 25.5196 10.1054 25.7071 10.2929C25.8946 10.4804 26 10.7348 26 11V29C26 29.2652 25.8946 29.5196 25.7071 29.7071C25.5196 29.8946 25.2652 30 25 30ZM8 28H24V12H8V28Z" fill="#5135FF"/>
<path d="M24.9999 8H6.99991C6.83295 7.99999 6.66865 7.95817 6.522 7.87836C6.37535 7.79855 6.25101 7.6833 6.16033 7.5431C6.06966 7.40291 6.01552 7.24225 6.00287 7.07576C5.99022 6.90928 6.01946 6.74228 6.08791 6.59L7.88791 2.59C7.96692 2.41424 8.09503 2.26505 8.25683 2.16038C8.41862 2.05571 8.60721 2.00002 8.79992 2H23.1999C23.3926 2.00002 23.5812 2.05571 23.743 2.16038C23.9048 2.26505 24.0329 2.41424 24.1119 2.59L25.9119 6.59C25.9804 6.74228 26.0096 6.90928 25.997 7.07576C25.9843 7.24225 25.9302 7.40291 25.8395 7.5431C25.7488 7.6833 25.6245 7.79855 25.4778 7.87836C25.3312 7.95817 25.1669 7.99999 24.9999 8ZM8.54591 6H23.4529L22.5529 4H9.44591L8.54591 6Z" fill="#5135FF"/>
<path d="M3 30C2.73478 30 2.48043 29.8946 2.29289 29.7071C2.10536 29.5196 2 29.2652 2 29V11C2 10.7348 2.10536 10.4804 2.29289 10.2929C2.48043 10.1054 2.73478 10 3 10C3.26522 10 3.51957 10.1054 3.70711 10.2929C3.89464 10.4804 4 10.7348 4 11V29C4 29.2652 3.89464 29.5196 3.70711 29.7071C3.51957 29.8946 3.26522 30 3 30Z" fill="#5135FF"/>
<path d="M29 30C28.7348 30 28.4804 29.8946 28.2929 29.7071C28.1054 29.5196 28 29.2652 28 29V11C28 10.7348 28.1054 10.4804 28.2929 10.2929C28.4804 10.1054 28.7348 10 29 10C29.2652 10 29.5196 10.1054 29.7071 10.2929C29.8946 10.4804 30 10.7348 30 11V29C30 29.2652 29.8946 29.5196 29.7071 29.7071C29.5196 29.8946 29.2652 30 29 30Z" fill="#5135FF"/>
</svg>
