<svg width="32" height="32" viewBox="0 0 32 32" fill="none" xmlns="http://www.w3.org/2000/svg">
<path d="M12.657 16.2749C13.9913 16.2749 15.073 15.1932 15.073 13.8589C15.073 12.5246 13.9913 11.4429 12.657 11.4429C11.3226 11.4429 10.241 12.5246 10.241 13.8589C10.241 15.1932 11.3226 16.2749 12.657 16.2749Z" stroke="#5135FF" stroke-width="2" stroke-linecap="round" stroke-linejoin="round"/>
<path d="M12.656 9.83301V11.444" stroke="#5135FF" stroke-width="2" stroke-linecap="round" stroke-linejoin="round"/>
<path d="M9.16895 11.8462L10.5639 12.6512" stroke="#5135FF" stroke-width="2" stroke-linecap="round" stroke-linejoin="round"/>
<path d="M9.16895 15.8729L10.5639 15.0679" stroke="#5135FF" stroke-width="2" stroke-linecap="round" stroke-linejoin="round"/>
<path d="M12.656 17.8859V16.2749" stroke="#5135FF" stroke-width="2" stroke-linecap="round" stroke-linejoin="round"/>
<path d="M16.144 15.8729L14.749 15.0679" stroke="#5135FF" stroke-width="2" stroke-linecap="round" stroke-linejoin="round"/>
<path d="M16.144 11.8462L14.749 12.6512" stroke="#5135FF" stroke-width="2" stroke-linecap="round" stroke-linejoin="round"/>
<path d="M4.5 7C5.88071 7 7 5.88071 7 4.5C7 3.11929 5.88071 2 4.5 2C3.11929 2 2 3.11929 2 4.5C2 5.88071 3.11929 7 4.5 7Z" stroke="#5135FF" stroke-width="2" stroke-linecap="round" stroke-linejoin="round"/>
<path d="M27.5 7C28.8807 7 30 5.88071 30 4.5C30 3.11929 28.8807 2 27.5 2C26.1193 2 25 3.11929 25 4.5C25 5.88071 26.1193 7 27.5 7Z" stroke="#5135FF" stroke-width="2" stroke-linecap="round" stroke-linejoin="round"/>
<path d="M27.5 30C28.8807 30 30 28.8807 30 27.5C30 26.1193 28.8807 25 27.5 25C26.1193 25 25 26.1193 25 27.5C25 28.8807 26.1193 30 27.5 30Z" stroke="#5135FF" stroke-width="2" stroke-linecap="round" stroke-linejoin="round"/>
<path d="M4.5 30C5.88071 30 7 28.8807 7 27.5C7 26.1193 5.88071 25 4.5 25C3.11929 25 2 26.1193 2 27.5C2 28.8807 3.11929 30 4.5 30Z" stroke="#5135FF" stroke-width="2" stroke-linecap="round" stroke-linejoin="round"/>
<path d="M8 27.5H25" stroke="#5135FF" stroke-width="2" stroke-linecap="round" stroke-linejoin="round"/>
<path d="M8 4.5H25" stroke="#5135FF" stroke-width="2" stroke-linecap="round" stroke-linejoin="round"/>
<path d="M7 7L9 9" stroke="#5135FF" stroke-width="2" stroke-linecap="round" stroke-linejoin="round"/>
<path d="M24 24L25 25" stroke="#5135FF" stroke-width="2" stroke-linecap="round" stroke-linejoin="round"/>
<path d="M19.4349 20.694C18.9661 20.6631 18.5265 20.4551 18.2054 20.1121C17.8843 19.7691 17.7056 19.3169 17.7056 18.847C17.7056 18.3771 17.8843 17.9249 18.2054 17.5819C18.5265 17.2389 18.9661 17.0309 19.4349 17" stroke="#5135FF" stroke-width="2" stroke-linecap="round" stroke-linejoin="round"/>
<path d="M24.5999 17C25.0687 17.0309 25.5083 17.2389 25.8294 17.5819C26.1505 17.9249 26.3292 18.3771 26.3292 18.847C26.3292 19.3169 26.1505 19.7691 25.8294 20.1121C25.5083 20.4551 25.0687 20.6631 24.5999 20.694" stroke="#5135FF" stroke-width="2" stroke-linecap="round" stroke-linejoin="round"/>
<path d="M24.5318 17C24.5318 17 23.2908 17 22.0498 18.847C20.8088 20.694 19.5688 20.694 19.5688 20.694" stroke="#5135FF" stroke-width="2" stroke-linecap="round" stroke-linejoin="round"/>
<path d="M19.5679 17C19.5679 17 20.8089 17 22.0499 18.847C23.2909 20.694 24.5309 20.694 24.5309 20.694" stroke="#5135FF" stroke-width="2" stroke-linecap="round" stroke-linejoin="round"/>
</svg>
