<svg width="32" height="32" viewBox="0 0 32 32" fill="none" xmlns="http://www.w3.org/2000/svg">
<path d="M1 7.5H6C6.26522 7.5 6.51957 7.60536 6.70711 7.79289C6.89464 7.98043 7 8.23478 7 8.5V27.5C7 27.7652 6.89464 28.0196 6.70711 28.2071C6.51957 28.3946 6.26522 28.5 6 28.5H1C0.734784 28.5 0.48043 28.3946 0.292893 28.2071C0.105357 28.0196 0 27.7652 0 27.5V8.5C0 8.23478 0.105357 7.98043 0.292893 7.79289C0.48043 7.60536 0.734784 7.5 1 7.5ZM5 9.5H2V26.5H5V9.5Z" fill="#5135FF"/>
<path d="M26 7.5H31C31.2652 7.5 31.5196 7.60536 31.7071 7.79289C31.8946 7.98043 32 8.23478 32 8.5V27.5C32 27.7652 31.8946 28.0196 31.7071 28.2071C31.5196 28.3946 31.2652 28.5 31 28.5H26C25.7348 28.5 25.4804 28.3946 25.2929 28.2071C25.1054 28.0196 25 27.7652 25 27.5V8.5C25 8.23478 25.1054 7.98043 25.2929 7.79289C25.4804 7.60536 25.7348 7.5 26 7.5ZM30 9.5H27V26.5H30V9.5Z" fill="#5135FF"/>
<path d="M6 9.5H26C26.2652 9.5 26.5196 9.60536 26.7071 9.79289C26.8946 9.98043 27 10.2348 27 10.5V25.5C27 25.7652 26.8946 26.0196 26.7071 26.2071C26.5196 26.3946 26.2652 26.5 26 26.5H6C5.73478 26.5 5.48043 26.3946 5.29289 26.2071C5.10536 26.0196 5 25.7652 5 25.5V10.5C5 10.2348 5.10536 9.98043 5.29289 9.79289C5.48043 9.60536 5.73478 9.5 6 9.5ZM25 11.5H7V24.5H25V11.5Z" fill="#5135FF"/>
<path d="M12.179 20.8529C11.5045 20.8095 10.8718 20.5109 10.4095 20.0179C9.94723 19.5249 9.68994 18.8743 9.68994 18.1984C9.68994 17.5226 9.94723 16.872 10.4095 16.379C10.8718 15.886 11.5045 15.5874 12.179 15.5439" stroke="#5135FF" stroke-width="2" stroke-linecap="round" stroke-linejoin="round"/>
<path d="M12.179 21.8529C11.2411 21.8064 10.3571 21.401 9.70975 20.7208C9.06243 20.0405 8.70142 19.1375 8.70142 18.1984C8.70142 17.2594 9.06243 16.3563 9.70975 15.6761C10.3571 14.9958 11.2411 14.5905 12.179 14.5439C12.4442 14.5439 12.6986 14.6493 12.8861 14.8368C13.0736 15.0244 13.179 15.2787 13.179 15.5439C13.179 15.8092 13.0736 16.0635 12.8861 16.2511C12.6986 16.4386 12.4442 16.5439 12.179 16.5439C11.7708 16.5878 11.3931 16.7809 11.1187 17.0864C10.8444 17.3918 10.6926 17.7879 10.6926 18.1984C10.6926 18.609 10.8444 19.0051 11.1187 19.3105C11.3931 19.6159 11.7708 19.8091 12.179 19.8529C12.4442 19.8529 12.6986 19.9583 12.8861 20.1458C13.0736 20.3334 13.179 20.5877 13.179 20.8529C13.179 21.1182 13.0736 21.3725 12.8861 21.5601C12.6986 21.7476 12.4442 21.8529 12.179 21.8529Z" fill="#5135FF"/>
<path d="M19.6001 21.8529C19.3349 21.8529 19.0805 21.7476 18.893 21.5601C18.7055 21.3725 18.6001 21.1182 18.6001 20.8529C18.6001 20.5877 18.7055 20.3334 18.893 20.1458C19.0805 19.9583 19.3349 19.8529 19.6001 19.8529C20.0083 19.8091 20.386 19.6159 20.6604 19.3105C20.9347 19.0051 21.0865 18.609 21.0865 18.1984C21.0865 17.7879 20.9347 17.3918 20.6604 17.0864C20.386 16.7809 20.0083 16.5878 19.6001 16.5439C19.3349 16.5439 19.0805 16.4386 18.893 16.2511C18.7055 16.0635 18.6001 15.8092 18.6001 15.5439C18.6001 15.2787 18.7055 15.0244 18.893 14.8368C19.0805 14.6493 19.3349 14.5439 19.6001 14.5439C20.538 14.5905 21.422 14.9958 22.0694 15.6761C22.7167 16.3563 23.0777 17.2594 23.0777 18.1984C23.0777 19.1375 22.7167 20.0405 22.0694 20.7208C21.422 21.401 20.538 21.8064 19.6001 21.8529Z" fill="#5135FF"/>
<path d="M19.4999 15.5439C19.4999 15.5439 17.7169 15.5439 15.9329 18.1979C14.1489 20.8519 12.3669 20.8529 12.3669 20.8529" stroke="#5135FF" stroke-width="2" stroke-linecap="round" stroke-linejoin="round"/>
<path d="M12.3701 15.5439C12.3701 15.5439 14.1531 15.5439 15.9371 18.1979C17.7211 20.8519 19.5001 20.8529 19.5001 20.8529" stroke="#5135FF" stroke-width="2" stroke-linecap="round" stroke-linejoin="round"/>
<path d="M22 11C21.7348 11 21.4804 10.8946 21.2929 10.7071C21.1054 10.5196 21 10.2652 21 10V8H11V10C11 10.2652 10.8946 10.5196 10.7071 10.7071C10.5196 10.8946 10.2652 11 10 11C9.73478 11 9.48043 10.8946 9.29289 10.7071C9.10536 10.5196 9 10.2652 9 10V7C9 6.73478 9.10536 6.48043 9.29289 6.29289C9.48043 6.10536 9.73478 6 10 6H22C22.2652 6 22.5196 6.10536 22.7071 6.29289C22.8946 6.48043 23 6.73478 23 7V10C23 10.2652 22.8946 10.5196 22.7071 10.7071C22.5196 10.8946 22.2652 11 22 11Z" fill="#5135FF"/>
<path d="M16 8C15.7348 8 15.4804 7.89464 15.2929 7.70711C15.1054 7.51957 15 7.26522 15 7V4C15 3.73478 15.1054 3.48043 15.2929 3.29289C15.4804 3.10536 15.7348 3 16 3C16.2652 3 16.5196 3.10536 16.7071 3.29289C16.8946 3.48043 17 3.73478 17 4V7C17 7.26522 16.8946 7.51957 16.7071 7.70711C16.5196 7.89464 16.2652 8 16 8Z" fill="#5135FF"/>
<path d="M24 4H8C7.73478 4 7.48043 3.89464 7.29289 3.70711C7.10536 3.51957 7 3.26522 7 3C7 2.73478 7.10536 2.48043 7.29289 2.29289C7.48043 2.10536 7.73478 2 8 2H24C24.2652 2 24.5196 2.10536 24.7071 2.29289C24.8946 2.48043 25 2.73478 25 3C25 3.26522 24.8946 3.51957 24.7071 3.70711C24.5196 3.89464 24.2652 4 24 4Z" fill="#5135FF"/>
</svg>
