<svg width="32" height="32" viewBox="0 0 32 32" fill="none" xmlns="http://www.w3.org/2000/svg">
<path d="M6.5 15H13V17H6.5C6.23478 17 5.98043 16.8946 5.79289 16.7071C5.60536 16.5196 5.5 16.2652 5.5 16C5.5 15.7348 5.60536 15.4804 5.79289 15.2929C5.98043 15.1054 6.23478 15 6.5 15Z" fill="#5135FF"/>
<path d="M19 15H23.5C23.7652 15 24.0196 15.1054 24.2071 15.2929C24.3946 15.4804 24.5 15.7348 24.5 16C24.5 16.2652 24.3946 16.5196 24.2071 16.7071C24.0196 16.8946 23.7652 17 23.5 17H19V15Z" fill="#5135FF"/>
<path d="M21.5179 20.9999C21.3202 21.0001 21.1269 20.9416 20.9624 20.8319C20.7979 20.7223 20.6696 20.5663 20.5937 20.3837C20.5178 20.2011 20.4977 20.0002 20.536 19.8062C20.5744 19.6122 20.6693 19.434 20.8089 19.294L24.0869 15.9999L20.7929 12.7059C20.6108 12.5173 20.51 12.2647 20.5122 12.0025C20.5145 11.7403 20.6197 11.4895 20.8051 11.3041C20.9905 11.1187 21.2413 11.0135 21.5035 11.0113C21.7657 11.009 22.0183 11.1098 22.2069 11.2919L26.2069 15.2919C26.3941 15.4794 26.4992 15.7335 26.4992 15.9985C26.4992 16.2634 26.3941 16.5174 26.2069 16.7049L22.2249 20.7049C22.1322 20.7982 22.0221 20.8722 21.9008 20.9228C21.7795 20.9734 21.6494 20.9997 21.5179 20.9999Z" fill="#5135FF"/>
<path d="M15.9999 5.72217C15.826 5.72204 15.6553 5.76793 15.5049 5.85516L10.5049 8.71217C10.3526 8.80011 10.2262 8.92666 10.1384 9.07906C10.0506 9.23145 10.0045 9.4043 10.0049 9.58017V13.0002H12.0049V10.1612L15.0049 8.44617V23.5542L12.0049 21.8392V19.0002H10.0049V23.0002L15.5049 26.1452C15.6553 26.2324 15.826 26.2783 15.9999 26.2782C16.2651 26.2782 16.5194 26.1728 16.707 25.9853C16.8945 25.7977 16.9999 25.5434 16.9999 25.2782V6.72318C17 6.59177 16.9742 6.46162 16.924 6.34018C16.8738 6.21874 16.8002 6.10838 16.7073 6.01541C16.6145 5.92245 16.5042 5.8487 16.3828 5.79839C16.2614 5.74807 16.1313 5.72217 15.9999 5.72217Z" fill="#5135FF"/>
<path d="M16 2L29 8.118V9.856C29 21.822 24.747 28.406 16 29.97C7.253 28.406 3 21.822 3 9.856L3.00501 8.104L16 2ZM16 0C15.7075 2.34762e-06 15.4187 0.0645317 15.154 0.188995L2.15399 6.295C1.80839 6.4582 1.51636 6.71637 1.31201 7.03935C1.10767 7.36234 0.999462 7.73681 1 8.119V9.85699C1 27.974 10.8 31.157 16 32C21.2 31.154 31 27.974 31 9.85699V8.119C31.0005 7.73681 30.8923 7.36234 30.688 7.03935C30.4836 6.71637 30.1916 6.4582 29.846 6.295L16.846 0.188995C16.5813 0.0645317 16.2925 2.34762e-06 16 0Z" fill="#5135FF"/>
</svg>
