<svg width="32" height="32" viewBox="0 0 32 32" fill="none" xmlns="http://www.w3.org/2000/svg">
<path d="M16.0001 32.0001C13.8981 32.0056 11.8158 31.5944 9.87382 30.7901C7.93181 29.9858 6.16855 28.8047 4.68606 27.3145C3.19589 25.832 2.01447 24.068 1.21013 22.126C0.405788 20.184 -0.00550004 18.102 5.55394e-05 16.0001C-0.00536774 13.8982 0.405983 11.8159 1.21032 9.87408C2.01465 7.93224 3.19601 6.16896 4.68606 4.68658C6.16847 3.19623 7.93168 2.0155 9.8737 1.21099C11.8157 0.406481 13.898 -0.00536903 16.0001 5.55541e-05C18.102 -0.00550002 20.1843 0.405678 22.1263 1.21002C24.0683 2.01436 25.8316 3.19544 27.3141 4.6856C28.8042 6.1681 29.9856 7.93206 30.79 9.87408C31.5943 11.8161 32.0056 13.8981 32.0001 16.0001C32.0057 18.1022 31.5945 20.1848 30.7902 22.127C29.9858 24.0692 28.8043 25.8329 27.3141 27.3155C25.8315 28.8055 24.0682 29.9859 22.1262 30.7901C20.1842 31.5943 18.102 32.0057 16.0001 32.0001ZM16.0001 2.13287C14.1792 2.12888 12.3756 2.48644 10.6935 3.18365C9.01141 3.88086 7.48417 4.9044 6.20006 6.19537C4.90909 7.47943 3.88549 9.00641 3.18844 10.6885C2.49139 12.3707 2.13471 14.1743 2.13905 15.9952C2.13395 17.8171 2.49025 19.6224 3.18732 21.3057C3.88438 22.9891 4.90839 24.5168 6.20006 25.8018C7.48382 27.0933 9.01097 28.1181 10.6931 28.8155C12.3753 29.5129 14.1791 29.8696 16.0001 29.8653C17.821 29.8697 19.6247 29.5127 21.3069 28.8155C22.989 28.1182 24.5162 27.0941 25.8001 25.8028C27.0921 24.5187 28.1168 22.9913 28.8147 21.3086C29.5126 19.626 29.87 17.8217 29.8661 16.0001C29.8704 14.1792 29.5137 12.3755 28.8167 10.6934C28.1196 9.01129 27.096 7.48432 25.8051 6.20025C24.5208 4.90778 22.9929 3.88272 21.3099 3.18463C19.6269 2.48653 17.8221 2.12887 16.0001 2.13287Z" fill="#5135FF"/>
<path d="M14.999 6V10C14.999 10.2652 14.8937 10.5196 14.7061 10.7071C14.5186 10.8946 14.2642 11 13.999 11H9.99902C9.73381 11 9.47945 10.8946 9.29192 10.7071C9.10438 10.5196 8.99902 10.2652 8.99902 10C8.99902 9.73478 9.10438 9.48043 9.29192 9.29289C9.47945 9.10536 9.73381 9 9.99902 9H11.585L9.34202 6.758C9.24924 6.66502 9.17569 6.55468 9.12555 6.43328C9.07541 6.31188 9.04968 6.18179 9.04982 6.05044C9.04996 5.91909 9.07597 5.78906 9.12636 5.66776C9.17676 5.54646 9.25055 5.43628 9.34352 5.3435C9.4365 5.25072 9.54684 5.17716 9.66824 5.12703C9.78965 5.07689 9.91974 5.05116 10.0511 5.0513C10.1824 5.05144 10.3125 5.07745 10.4338 5.12784C10.5551 5.17823 10.6652 5.25202 10.758 5.345L12.999 7.586V6C12.999 5.73478 13.1044 5.48043 13.2919 5.29289C13.4795 5.10536 13.7338 5 13.999 5C14.2642 5 14.5186 5.10536 14.7061 5.29289C14.8937 5.48043 14.999 5.73478 14.999 6Z" fill="#5135FF"/>
<path d="M16.998 18.001V14.001C16.998 13.7358 17.1034 13.4814 17.2909 13.2939C17.4785 13.1063 17.7328 13.001 17.998 13.001H21.998C22.2633 13.001 22.5176 13.1063 22.7052 13.2939C22.8927 13.4814 22.998 13.7358 22.998 14.001C22.998 14.2662 22.8927 14.5205 22.7052 14.7081C22.5176 14.8956 22.2633 15.001 21.998 15.001H20.412L22.656 17.244C22.8382 17.4326 22.939 17.6852 22.9367 17.9474C22.9344 18.2096 22.8293 18.4604 22.6439 18.6458C22.4585 18.8312 22.2076 18.9364 21.9454 18.9387C21.6833 18.9409 21.4306 18.8401 21.242 18.658L18.998 16.415V18.001C18.998 18.2662 18.8927 18.5205 18.7052 18.7081C18.5176 18.8956 18.2633 19.001 17.998 19.001C17.7328 19.001 17.4785 18.8956 17.2909 18.7081C17.1034 18.5205 16.998 18.2662 16.998 18.001Z" fill="#5135FF"/>
<path d="M17.998 5H21.998C22.2633 5 22.5176 5.10536 22.7052 5.29289C22.8927 5.48043 22.998 5.73478 22.998 6V10C22.998 10.2652 22.8927 10.5196 22.7052 10.7071C22.5176 10.8946 22.2633 11 21.998 11C21.7328 11 21.4785 10.8946 21.2909 10.7071C21.1034 10.5196 20.998 10.2652 20.998 10V8.414L18.755 10.657C18.6633 10.7547 18.5529 10.8329 18.4303 10.8871C18.3078 10.9413 18.1756 10.9702 18.0416 10.9723C17.9076 10.9744 17.7746 10.9495 17.6504 10.8992C17.5262 10.8489 17.4134 10.7741 17.3187 10.6793C17.224 10.5845 17.1493 10.4717 17.0991 10.3475C17.0488 10.2232 17.024 10.0902 17.0262 9.95621C17.0284 9.82224 17.0575 9.69006 17.1117 9.56754C17.166 9.44502 17.2443 9.33466 17.342 9.243L19.585 7H17.998C17.7328 7 17.4785 6.89464 17.2909 6.70711C17.1034 6.51957 16.998 6.26522 16.998 6C16.998 5.73478 17.1034 5.48043 17.2909 5.29289C17.4785 5.10536 17.7328 5 17.998 5Z" fill="#5135FF"/>
<path d="M13.999 18.999H9.99902C9.73381 18.999 9.47945 18.8937 9.29192 18.7061C9.10438 18.5186 8.99902 18.2642 8.99902 17.999V13.999C8.99902 13.7338 9.10438 13.4795 9.29192 13.2919C9.47945 13.1044 9.73381 12.999 9.99902 12.999C10.2642 12.999 10.5186 13.1044 10.7061 13.2919C10.8937 13.4795 10.999 13.7338 10.999 13.999V15.586L13.242 13.343C13.4315 13.1654 13.6826 13.0684 13.9423 13.0726C14.202 13.0768 14.4498 13.1819 14.6334 13.3656C14.817 13.5493 14.9219 13.7973 14.9259 14.0569C14.93 14.3166 14.8328 14.5677 14.655 14.757L12.413 16.999H13.999C14.2642 16.999 14.5186 17.1044 14.7061 17.2919C14.8937 17.4795 14.999 17.7338 14.999 17.999C14.999 18.2642 14.8937 18.5186 14.7061 18.7061C14.5186 18.8937 14.2642 18.999 13.999 18.999Z" fill="#5135FF"/>
<path fill-rule="evenodd" clip-rule="evenodd" d="M13.0772 26.8154C12.6407 26.7969 12.2291 26.6066 11.9324 26.2858C11.6357 25.9651 11.4778 25.5401 11.4932 25.1034C11.4789 24.6879 11.6203 24.2821 11.8896 23.9654C12.1589 23.6487 12.5368 23.444 12.9492 23.3914L13.3722 23.3554L13.5052 22.9554C13.7424 22.389 14.1401 21.9045 14.6494 21.5615C15.1587 21.2186 15.7573 21.0322 16.3712 21.0254C17.1139 21.0396 17.8268 21.3199 18.3801 21.8155C18.9335 22.311 19.2905 22.9888 19.3862 23.7254L19.4102 24.1154L19.7612 24.2764C19.9888 24.3877 20.1798 24.5616 20.312 24.7777C20.4441 24.9938 20.5119 25.2431 20.5072 25.4964C20.52 25.832 20.3995 26.159 20.1721 26.4061C19.9446 26.6532 19.6287 26.8003 19.2932 26.8154H13.0772Z" stroke="#5135FF" stroke-width="2"/>
</svg>
