<svg width="32" height="32" viewBox="0 0 32 32" fill="none" xmlns="http://www.w3.org/2000/svg">
<g clip-path="url(#clip0_2998_80742)">
<path d="M12.8963 8.88599C13.5913 8.88599 14.2707 9.09208 14.8486 9.4782C15.4265 9.86433 15.8769 10.4131 16.1428 11.0552C16.4088 11.6973 16.4784 12.4039 16.3428 13.0855C16.2072 13.7672 15.8725 14.3933 15.3811 14.8848C14.8897 15.3762 14.2635 15.7109 13.5819 15.8465C12.9002 15.9821 12.1937 15.9125 11.5516 15.6465C10.9095 15.3805 10.3607 14.9301 9.97454 14.3523C9.58842 13.7744 9.38232 13.095 9.38232 12.4C9.38232 11.468 9.75255 10.5742 10.4116 9.91521C11.0706 9.25621 11.9644 8.88599 12.8963 8.88599Z" fill="white"/>
<path d="M12.8963 15.913C12.2013 15.913 11.5219 15.7069 10.9441 15.3208C10.3662 14.9347 9.91578 14.3859 9.64981 13.7438C9.38385 13.1017 9.31426 12.3951 9.44985 11.7135C9.58543 11.0318 9.92011 10.4057 10.4116 9.91424C10.903 9.4228 11.5291 9.08812 12.2108 8.95253C12.8924 8.81694 13.599 8.88653 14.2411 9.1525C14.8832 9.41846 15.432 9.86886 15.8181 10.4467C16.2042 11.0246 16.4103 11.704 16.4103 12.399C16.409 13.3306 16.0384 14.2236 15.3796 14.8823C14.7209 15.541 13.8279 15.9117 12.8963 15.913ZM12.8963 10.885C12.5969 10.885 12.3042 10.9738 12.0552 11.1402C11.8062 11.3065 11.6122 11.543 11.4976 11.8196C11.383 12.0963 11.353 12.4007 11.4114 12.6944C11.4698 12.9881 11.614 13.2578 11.8258 13.4696C12.0375 13.6813 12.3073 13.8255 12.601 13.8839C12.8946 13.9423 13.1991 13.9124 13.4757 13.7978C13.7524 13.6832 13.9888 13.4891 14.1552 13.2401C14.3215 12.9912 14.4103 12.6985 14.4103 12.399C14.4095 11.9978 14.2497 11.6133 13.9659 11.3297C13.6822 11.0461 13.2975 10.8865 12.8963 10.886" fill="#5135FF"/>
<path d="M15.6652 16.7339H10.3362C9.7404 16.7329 9.15737 16.9069 8.65958 17.2344C8.16179 17.5619 7.77117 18.0284 7.53624 18.5759L6.94824 19.9009C7.38664 20.4637 7.90047 20.9634 8.47524 21.3859L9.36824 19.3729C9.4492 19.1833 9.58412 19.0216 9.75622 18.908C9.92832 18.7944 10.13 18.7338 10.3362 18.7339H15.6652C15.8802 18.7366 16.0895 18.8037 16.266 18.9265C16.4425 19.0493 16.5781 19.2223 16.6552 19.4229L17.5982 21.3369C18.1636 20.9138 18.6683 20.4151 19.0982 19.8549L18.4722 18.5859C18.2377 18.0357 17.8465 17.5666 17.3475 17.237C16.8484 16.9073 16.2634 16.7317 15.6652 16.7319" fill="#5135FF"/>
<path d="M26.501 28.8855C25.4666 28.8855 24.4746 28.4743 23.7432 27.7429C23.0118 27.0115 22.6011 26.0194 22.6011 24.9851C22.6038 24.6575 22.6492 24.332 22.7368 24.0163L20.9077 22.6531C19.897 23.7362 18.6742 24.5991 17.3149 25.1882C15.9557 25.7773 14.4893 26.0798 13.0078 26.0769H12.9399V25.155C12.9398 24.7893 12.8901 24.4253 12.792 24.073H13.0078C15.2449 24.0702 17.398 23.2211 19.0347 21.696C19.2628 21.4865 19.4788 21.2641 19.6816 21.03C20.6871 19.8804 21.3789 18.4921 21.6899 16.9968C22.001 15.5015 21.9211 13.9501 21.4575 12.4949C20.9939 11.0396 20.1626 9.73001 19.044 8.69017C17.9253 7.65033 16.5569 6.91556 15.0718 6.55931C13.5866 6.20306 12.035 6.23579 10.5664 6.65501C9.09779 7.07424 7.76178 7.86532 6.68848 8.95189C5.61518 10.0385 4.8406 11.3845 4.43946 12.8581C4.03832 14.3318 4.02445 15.8833 4.39893 17.364C3.72181 17.5763 3.11753 17.9744 2.65479 18.5124C2.30571 17.4424 2.12769 16.3235 2.12696 15.198C2.12482 12.9584 2.81445 10.773 4.10157 8.94017C5.38869 7.10737 7.2105 5.71786 9.31788 4.9597C11.4253 4.20154 13.7153 4.11305 15.875 4.70579C18.0348 5.29853 19.9586 6.54259 21.3838 8.27025L22.584 7.364C22.2088 6.66186 22.0097 5.87883 22.0039 5.08275C22.0039 4.09384 22.2973 3.12765 22.8467 2.3054C23.3961 1.48316 24.1767 0.842045 25.0903 0.463607C26.004 0.0851688 27.0096 -0.0125223 27.9795 0.180404C28.9494 0.37333 29.8403 0.848329 30.5396 1.54759C31.2388 2.24685 31.7148 3.13823 31.9077 4.10814C32.1006 5.07804 32.0015 6.08318 31.6231 6.99681C31.2446 7.91044 30.604 8.69154 29.7817 9.24095C28.9595 9.79036 27.9928 10.0827 27.0039 10.0827C25.8459 10.0793 24.7257 9.67119 23.8389 8.9265L22.5171 9.9265C23.4731 11.6441 23.9435 13.5888 23.8779 15.5535C23.8124 17.5181 23.2134 19.4268 22.145 21.0769L23.7207 22.2566C24.0815 21.8843 24.5135 21.5869 24.9912 21.3855C25.4689 21.1841 25.9826 21.0811 26.501 21.0827C27.5353 21.0827 28.5274 21.4939 29.2588 22.2253C29.9902 22.9567 30.4009 23.9488 30.4009 24.9831C30.4009 26.0175 29.9902 27.0096 29.2588 27.741C28.5274 28.4723 27.5353 28.8835 26.501 28.8835V28.8855ZM26.501 23.0847C26.1252 23.0847 25.7578 23.1962 25.4453 23.405C25.1329 23.6138 24.8894 23.9114 24.7456 24.2585C24.6018 24.6057 24.5639 24.9876 24.6372 25.3562C24.7105 25.7247 24.8915 26.0631 25.1572 26.3288C25.423 26.5946 25.7618 26.7751 26.1304 26.8484C26.4989 26.9217 26.8809 26.8848 27.228 26.741C27.5752 26.5971 27.8718 26.3542 28.0806 26.0417C28.2893 25.7293 28.4009 25.3609 28.4009 24.9851C28.401 24.7355 28.3518 24.4892 28.2564 24.2585C28.1609 24.0279 28.0212 23.8179 27.8447 23.6413C27.6683 23.4648 27.4586 23.3248 27.228 23.2292C26.9974 23.1337 26.7506 23.0847 26.501 23.0847ZM27.001 2.0847C26.4076 2.0847 25.8273 2.26092 25.334 2.59056C24.8406 2.9202 24.4561 3.39004 24.229 3.93822C24.0019 4.48639 23.9428 5.0887 24.0586 5.67064C24.1744 6.25258 24.4598 6.78819 24.8794 7.20775C25.299 7.62731 25.8336 7.9123 26.4155 8.02806C26.9975 8.14382 27.6008 8.0852 28.1489 7.85814C28.6971 7.63108 29.1655 7.24602 29.4951 6.75267C29.8248 6.25932 30.001 5.67804 30.001 5.0847C30.0011 4.69065 29.9237 4.30231 29.773 3.93822C29.6222 3.57412 29.4012 3.24229 29.1226 2.96361C28.844 2.68493 28.513 2.46404 28.1489 2.31322C27.7849 2.16239 27.395 2.0847 27.001 2.0847ZM3.20069 19.8777C3.20163 19.8744 3.20163 19.8712 3.20069 19.8679C3.35659 19.5458 3.57715 19.2592 3.84864 19.0261C4.12013 18.793 4.43685 18.6198 4.77881 18.5144V18.5222C4.43641 18.6266 4.11982 18.8003 3.84864 19.0339C3.57746 19.2676 3.35795 19.5545 3.20411 19.8777H3.20069Z" fill="#5135FF"/>
<path d="M11.4561 23.9339C11.2267 23.4499 10.8651 23.0407 10.4129 22.7537C9.9608 22.4667 9.43665 22.3135 8.9011 22.3119V20.9499C8.89161 20.2624 8.6102 19.6066 8.11844 19.1261C7.62668 18.6456 6.96461 18.3794 6.2771 18.3859H5.5581C5.29136 18.3873 5.02649 18.4305 4.7731 18.5139C4.24987 18.6753 3.79096 18.9978 3.46182 19.4354C3.13267 19.873 2.95009 20.4034 2.9401 20.9509V22.3129C2.18713 22.3136 1.46522 22.6131 0.932792 23.1456C0.40036 23.678 0.100892 24.3999 0.100098 25.1529V29.0759C0.101156 29.8287 0.400709 30.5505 0.933083 31.0829C1.46546 31.6152 2.18721 31.9148 2.9401 31.9159H8.9011C9.65416 31.9151 10.3762 31.6156 10.9088 31.0832C11.4413 30.5508 11.741 29.8289 11.7421 29.0759V25.1519C11.7398 24.7296 11.6414 24.3133 11.4561 23.9339ZM6.2771 20.3859C6.43401 20.3791 6.58723 20.4347 6.70323 20.5406C6.81923 20.6465 6.88858 20.794 6.8961 20.9509V22.3129H4.9401V20.9499C4.94914 20.7937 5.01881 20.6473 5.13424 20.5417C5.24968 20.4362 5.40177 20.3799 5.5581 20.3849L6.2771 20.3859ZM9.7411 29.0809C9.74083 29.3037 9.65211 29.5174 9.49442 29.6749C9.33673 29.8324 9.12297 29.9209 8.9001 29.9209H2.9451C2.72222 29.9209 2.50846 29.8324 2.35077 29.6749C2.19308 29.5174 2.10436 29.3037 2.1041 29.0809V25.1559C2.10436 24.933 2.19308 24.7193 2.35077 24.5618C2.50846 24.4043 2.72222 24.3159 2.9451 24.3159H8.9011C9.12397 24.3159 9.33773 24.4043 9.49542 24.5618C9.65311 24.7193 9.74183 24.933 9.7421 25.1559V29.0839L9.7411 29.0809Z" fill="#5135FF"/>
<path d="M5.91797 25.5859C5.65275 25.5859 5.3984 25.6913 5.21086 25.8788C5.02333 26.0664 4.91797 26.3207 4.91797 26.5859V27.6339C4.91797 27.8992 5.02333 28.1535 5.21086 28.341C5.3984 28.5286 5.65275 28.6339 5.91797 28.6339C6.18319 28.6339 6.43754 28.5286 6.62508 28.341C6.81261 28.1535 6.91797 27.8992 6.91797 27.6339V26.5859C6.91797 26.3207 6.81261 26.0664 6.62508 25.8788C6.43754 25.6913 6.18319 25.5859 5.91797 25.5859Z" fill="#5135FF"/>
</g>
<defs>
<clipPath id="clip0_2998_80742">
<rect width="32" height="32" fill="white"/>
</clipPath>
</defs>
</svg>
