<svg width="32" height="32" viewBox="0 0 32 32" fill="none" xmlns="http://www.w3.org/2000/svg">
<path d="M4.69995 9C4.43473 9 4.18038 8.89464 3.99284 8.70711C3.80531 8.51957 3.69995 8.26522 3.69995 8V7C3.69995 6.20435 4.01602 5.44129 4.57863 4.87868C5.14124 4.31607 5.9043 4 6.69995 4H9.69995C9.96517 4 10.2195 4.10536 10.4071 4.29289C10.5946 4.48043 10.7 4.73478 10.7 5C10.7 5.26522 10.5946 5.51957 10.4071 5.70711C10.2195 5.89464 9.96517 6 9.69995 6H6.69995C6.43473 6 6.18038 6.10536 5.99284 6.29289C5.80531 6.48043 5.69995 6.73478 5.69995 7V8C5.69995 8.26522 5.59459 8.51957 5.40706 8.70711C5.21952 8.89464 4.96517 9 4.69995 9Z" fill="#5135FF"/>
<path d="M22.7 28H19.7C19.4347 28 19.1804 27.8946 18.9928 27.7071C18.8053 27.5196 18.7 27.2652 18.7 27C18.7 26.7348 18.8053 26.4804 18.9928 26.2929C19.1804 26.1054 19.4347 26 19.7 26H22.7C22.9652 26 23.2195 25.8946 23.4071 25.7071C23.5946 25.5196 23.7 25.2652 23.7 25V24C23.7 23.7348 23.8053 23.4804 23.9928 23.2929C24.1804 23.1054 24.4347 23 24.7 23C24.9652 23 25.2195 23.1054 25.4071 23.2929C25.5946 23.4804 25.7 23.7348 25.7 24V25C25.7 25.7956 25.3839 26.5587 24.8213 27.1213C24.2587 27.6839 23.4956 28 22.7 28Z" fill="#5135FF"/>
<path d="M8.19998 8.99992C8.00223 8.99988 7.80893 8.9412 7.64452 8.83132C7.48011 8.72144 7.35197 8.56527 7.2763 8.38257C7.20063 8.19987 7.18083 7.99884 7.2194 7.80489C7.25797 7.61093 7.35317 7.43277 7.49298 7.29292L9.78698 4.99992L7.49398 2.70692C7.31182 2.51832 7.21103 2.26571 7.21331 2.00352C7.21559 1.74132 7.32076 1.49051 7.50616 1.3051C7.69157 1.11969 7.94238 1.01452 8.20458 1.01224C8.46678 1.00997 8.71938 1.11076 8.90798 1.29292L11.908 4.29292C12.0955 4.48045 12.2008 4.73475 12.2008 4.99992C12.2008 5.26508 12.0955 5.51939 11.908 5.70692L8.90798 8.70692C8.72049 8.89447 8.46618 8.99986 8.20098 8.99992" fill="#5135FF"/>
<path d="M21.2 30.9999C20.9348 30.9999 20.6805 30.8945 20.493 30.7069L17.493 27.7069C17.3055 27.5194 17.2002 27.2651 17.2002 26.9999C17.2002 26.7348 17.3055 26.4804 17.493 26.2929L20.493 23.2929C20.6816 23.1108 20.9342 23.01 21.1964 23.0122C21.4586 23.0145 21.7094 23.1197 21.8948 23.3051C22.0802 23.4905 22.1854 23.7413 22.1877 24.0035C22.1899 24.2657 22.0891 24.5183 21.907 24.7069L19.614 26.9999L21.907 29.2929C22.0468 29.4328 22.142 29.6109 22.1806 29.8049C22.2191 29.9988 22.1993 30.1999 22.1237 30.3826C22.048 30.5653 21.9198 30.7214 21.7554 30.8313C21.591 30.9412 21.3977 30.9999 21.2 30.9999Z" fill="#5135FF"/>
<path d="M18.955 7.4917H22.046C22.5641 7.49223 23.0608 7.69827 23.4271 8.0646C23.7934 8.43093 23.9995 8.92763 24 9.4457V12.5367C23.9995 13.055 23.7933 13.552 23.4268 13.9185C23.0603 14.285 22.5633 14.4912 22.045 14.4917H18.955C18.4367 14.4912 17.9397 14.285 17.5732 13.9185C17.2067 13.552 17.0005 13.055 17 12.5367V9.4467C17.0005 8.92836 17.2067 8.43141 17.5732 8.06489C17.9397 7.69837 18.4367 7.49223 18.955 7.4917ZM22 9.4917H19V12.4917H22V9.4917Z" fill="#5135FF"/>
<path d="M16.011 3.4917H24.989C25.7873 3.49249 26.5527 3.80998 27.1172 4.37448C27.6817 4.93898 27.9992 5.70438 28 6.5027V15.4807C27.9992 16.279 27.6817 17.0444 27.1172 17.6089C26.5527 18.1734 25.7873 18.4909 24.989 18.4917H16.011C15.2127 18.4909 14.4473 18.1734 13.8828 17.6089C13.3183 17.0444 13.0008 16.279 13 15.4807V6.5027C13.0008 5.70438 13.3183 4.93898 13.8828 4.37448C14.4473 3.80998 15.2127 3.49249 16.011 3.4917ZM24.989 16.4917C25.2571 16.4914 25.5141 16.3848 25.7036 16.1953C25.8931 16.0057 25.9997 15.7488 26 15.4807V6.5027C25.9997 6.23465 25.8931 5.97765 25.7036 5.78811C25.5141 5.59856 25.2571 5.49196 24.989 5.4917H16.011C15.7429 5.49196 15.4859 5.59856 15.2964 5.78811C15.1069 5.97765 15.0003 6.23465 15 6.5027V15.4807C15.0003 15.7488 15.1069 16.0057 15.2964 16.1953C15.4859 16.3848 15.7429 16.4914 16.011 16.4917H24.989Z" fill="#5135FF"/>
<path d="M14 9.4917H12C11.7348 9.4917 11.4804 9.38634 11.2929 9.19881C11.1054 9.01127 11 8.75692 11 8.4917C11 8.22648 11.1054 7.97213 11.2929 7.78459C11.4804 7.59706 11.7348 7.4917 12 7.4917H14C14.2652 7.4917 14.5196 7.59706 14.7071 7.78459C14.8946 7.97213 15 8.22648 15 8.4917C15 8.75692 14.8946 9.01127 14.7071 9.19881C14.5196 9.38634 14.2652 9.4917 14 9.4917Z" fill="#5135FF"/>
<path d="M14 15.4917H12C11.7348 15.4917 11.4804 15.3863 11.2929 15.1988C11.1054 15.0113 11 14.7569 11 14.4917C11 14.2265 11.1054 13.9721 11.2929 13.7846C11.4804 13.5971 11.7348 13.4917 12 13.4917H14C14.2652 13.4917 14.5196 13.5971 14.7071 13.7846C14.8946 13.9721 15 14.2265 15 14.4917C15 14.7569 14.8946 15.0113 14.7071 15.1988C14.5196 15.3863 14.2652 15.4917 14 15.4917Z" fill="#5135FF"/>
<path d="M29 9.4917H27C26.7348 9.4917 26.4804 9.38634 26.2929 9.19881C26.1054 9.01127 26 8.75692 26 8.4917C26 8.22648 26.1054 7.97213 26.2929 7.78459C26.4804 7.59706 26.7348 7.4917 27 7.4917H29C29.2652 7.4917 29.5196 7.59706 29.7071 7.78459C29.8946 7.97213 30 8.22648 30 8.4917C30 8.75692 29.8946 9.01127 29.7071 9.19881C29.5196 9.38634 29.2652 9.4917 29 9.4917Z" fill="#5135FF"/>
<path d="M29 15.4917H27C26.7348 15.4917 26.4804 15.3863 26.2929 15.1988C26.1054 15.0113 26 14.7569 26 14.4917C26 14.2265 26.1054 13.9721 26.2929 13.7846C26.4804 13.5971 26.7348 13.4917 27 13.4917H29C29.2652 13.4917 29.5196 13.5971 29.7071 13.7846C29.8946 13.9721 30 14.2265 30 14.4917C30 14.7569 29.8946 15.0113 29.7071 15.1988C29.5196 15.3863 29.2652 15.4917 29 15.4917Z" fill="#5135FF"/>
<path d="M17.5 20.9917C17.2348 20.9917 16.9804 20.8863 16.7929 20.6988C16.6054 20.5113 16.5 20.2569 16.5 19.9917V17.9917C16.5 17.7265 16.6054 17.4721 16.7929 17.2846C16.9804 17.0971 17.2348 16.9917 17.5 16.9917C17.7652 16.9917 18.0196 17.0971 18.2071 17.2846C18.3946 17.4721 18.5 17.7265 18.5 17.9917V19.9917C18.5 20.2569 18.3946 20.5113 18.2071 20.6988C18.0196 20.8863 17.7652 20.9917 17.5 20.9917Z" fill="#5135FF"/>
<path d="M23.5 20.9917C23.2348 20.9917 22.9804 20.8863 22.7929 20.6988C22.6054 20.5113 22.5 20.2569 22.5 19.9917V17.9917C22.5 17.7265 22.6054 17.4721 22.7929 17.2846C22.9804 17.0971 23.2348 16.9917 23.5 16.9917C23.7652 16.9917 24.0196 17.0971 24.2071 17.2846C24.3946 17.4721 24.5 17.7265 24.5 17.9917V19.9917C24.5 20.2569 24.3946 20.5113 24.2071 20.6988C24.0196 20.8863 23.7652 20.9917 23.5 20.9917Z" fill="#5135FF"/>
<path d="M17.5 5.4917C17.2348 5.4917 16.9804 5.38634 16.7929 5.19881C16.6054 5.01127 16.5 4.75692 16.5 4.4917V2.4917C16.5 2.22648 16.6054 1.97213 16.7929 1.78459C16.9804 1.59706 17.2348 1.4917 17.5 1.4917C17.7652 1.4917 18.0196 1.59706 18.2071 1.78459C18.3946 1.97213 18.5 2.22648 18.5 2.4917V4.4917C18.5 4.75692 18.3946 5.01127 18.2071 5.19881C18.0196 5.38634 17.7652 5.4917 17.5 5.4917Z" fill="#5135FF"/>
<path d="M23.5 5.4917C23.2348 5.4917 22.9804 5.38634 22.7929 5.19881C22.6054 5.01127 22.5 4.75692 22.5 4.4917V2.4917C22.5 2.22648 22.6054 1.97213 22.7929 1.78459C22.9804 1.59706 23.2348 1.4917 23.5 1.4917C23.7652 1.4917 24.0196 1.59706 24.2071 1.78459C24.3946 1.97213 24.5 2.22648 24.5 2.4917V4.4917C24.5 4.75692 24.3946 5.01127 24.2071 5.19881C24.0196 5.38634 23.7652 5.4917 23.5 5.4917Z" fill="#5135FF"/>
<path d="M13.352 31.2417H4.652C3.94926 31.242 3.27516 30.9632 2.77787 30.4667C2.28058 29.9701 2.0008 29.2964 2 28.5937V12.8937C1.99973 12.191 2.27851 11.5169 2.77505 11.0196C3.27158 10.5223 3.94526 10.2425 4.648 10.2417H13.348V12.2417H4.648C4.47622 12.242 4.31155 12.3103 4.19009 12.4318C4.06862 12.5533 4.00026 12.7179 4 12.8897V28.5897C3.99961 28.6751 4.01607 28.7597 4.04844 28.8388C4.08082 28.9178 4.12847 28.9896 4.18867 29.0502C4.24887 29.1108 4.32043 29.1589 4.39925 29.1917C4.47807 29.2246 4.5626 29.2416 4.648 29.2417H13.348C13.4334 29.2421 13.518 29.2256 13.5971 29.1933C13.6761 29.1609 13.7479 29.1132 13.8085 29.053C13.8691 28.9928 13.9172 28.9213 13.95 28.8424C13.9829 28.7636 13.9999 28.6791 14 28.5937V17.2417H16V28.5937C15.9992 29.2957 15.72 29.9688 15.2235 30.4652C14.7271 30.9617 14.054 31.2409 13.352 31.2417Z" fill="#5135FF"/>
<path d="M11.34 24.2417H6.659C6.57238 24.2417 6.4866 24.2246 6.40658 24.1914C6.32656 24.1583 6.25387 24.1096 6.19266 24.0483C6.13146 23.987 6.08294 23.9143 6.04988 23.8342C6.01682 23.7541 5.99987 23.6683 6 23.5817V22.9017C5.99987 22.8151 6.01682 22.7293 6.04988 22.6492C6.08294 22.5691 6.13146 22.4964 6.19266 22.4351C6.25387 22.3738 6.32656 22.3251 6.40658 22.292C6.4866 22.2588 6.57238 22.2417 6.659 22.2417H11.34C11.515 22.2417 11.6829 22.3112 11.8067 22.435C11.9305 22.5588 12 22.7267 12 22.9017V23.5817C12 23.7567 11.9305 23.9246 11.8067 24.0484C11.6829 24.1722 11.515 24.2417 11.34 24.2417Z" fill="#5135FF"/>
<path d="M11.34 21.2417H6.659C6.57238 21.2417 6.4866 21.2246 6.40658 21.1914C6.32656 21.1583 6.25387 21.1096 6.19266 21.0483C6.13146 20.987 6.08294 20.9143 6.04988 20.8342C6.01682 20.7541 5.99987 20.6683 6 20.5817V19.9017C5.99987 19.8151 6.01682 19.7293 6.04988 19.6492C6.08294 19.5691 6.13146 19.4964 6.19266 19.4351C6.25387 19.3738 6.32656 19.3251 6.40658 19.292C6.4866 19.2588 6.57238 19.2417 6.659 19.2417H11.34C11.515 19.2417 11.6829 19.3112 11.8067 19.435C11.9305 19.5588 12 19.7267 12 19.9017V20.5817C12 20.7567 11.9305 20.9246 11.8067 21.0484C11.6829 21.1722 11.515 21.2417 11.34 21.2417Z" fill="#5135FF"/>
<path d="M11.34 18.2417H6.659C6.57238 18.2417 6.4866 18.2246 6.40658 18.1914C6.32656 18.1583 6.25387 18.1096 6.19266 18.0483C6.13146 17.987 6.08294 17.9143 6.04988 17.8342C6.01682 17.7541 5.99987 17.6683 6 17.5817V16.9017C5.99987 16.8151 6.01682 16.7293 6.04988 16.6492C6.08294 16.5691 6.13146 16.4964 6.19266 16.4351C6.25387 16.3738 6.32656 16.3251 6.40658 16.292C6.4866 16.2588 6.57238 16.2417 6.659 16.2417H11.34C11.515 16.2417 11.6829 16.3112 11.8067 16.435C11.9305 16.5588 12 16.7267 12 16.9017V17.5817C12 17.7567 11.9305 17.9246 11.8067 18.0484C11.6829 18.1722 11.515 18.2417 11.34 18.2417Z" fill="#5135FF"/>
<path d="M9.355 28.2417H8.645C8.47394 28.2417 8.30988 28.1737 8.18892 28.0528C8.06796 27.9318 8 27.7678 8 27.5967V26.8867C8 26.7156 8.06796 26.5516 8.18892 26.4306C8.30988 26.3097 8.47394 26.2417 8.645 26.2417H9.355C9.52606 26.2417 9.69012 26.3097 9.81108 26.4306C9.93204 26.5516 10 26.7156 10 26.8867V27.5967C10 27.7678 9.93204 27.9318 9.81108 28.0528C9.69012 28.1737 9.52606 28.2417 9.355 28.2417Z" fill="#5135FF"/>
</svg>
