<svg width="32" height="32" viewBox="0 0 32 32" fill="none" xmlns="http://www.w3.org/2000/svg">
<path d="M27 32.001H5C3.67392 32.001 2.40216 31.4738 1.46448 30.5361C0.526796 29.5985 0 28.3271 0 27.001V5.00098C0.00132369 3.6753 0.528547 2.40419 1.46594 1.4668C2.40334 0.529402 3.67432 0.00230025 5 0.000976562H27C28.3255 0.0028284 29.5962 0.530493 30.5335 1.46777C31.4708 2.40505 31.9981 3.67546 32 5.00098V27.001C31.9984 28.3266 31.4711 29.5978 30.5338 30.5352C29.5964 31.4725 28.3256 31.9994 27 32.001ZM5 1.50098C4.07174 1.50098 3.18149 1.86999 2.52512 2.52637C1.86874 3.18274 1.5 4.07272 1.5 5.00098V27.001C1.5 27.9292 1.86874 28.8192 2.52512 29.4756C3.18149 30.132 4.07174 30.501 5 30.501H27C27.9283 30.501 28.8185 30.132 29.4749 29.4756C30.1313 28.8192 30.5 27.9292 30.5 27.001V5.00098C30.5 4.07272 30.1313 3.18274 29.4749 2.52637C28.8185 1.86999 27.9283 1.50098 27 1.50098H5Z" fill="#5135FF"/>
<path fill-rule="evenodd" clip-rule="evenodd" d="M9.5 16C10.7856 16 12.0423 15.6188 13.1112 14.9046C14.1801 14.1903 15.0132 13.1752 15.5052 11.9874C15.9972 10.7997 16.1259 9.49279 15.8751 8.23192C15.6243 6.97104 15.0052 5.81285 14.0962 4.90381C13.1872 3.99477 12.029 3.3757 10.7681 3.1249C9.50721 2.87409 8.20028 3.00282 7.01256 3.49479C5.82484 3.98676 4.80968 4.81988 4.09545 5.8888C3.38122 6.95772 3 8.21442 3 9.5C3 11.2239 3.68482 12.8772 4.90381 14.0962C6.12279 15.3152 7.77609 16 9.5 16ZM9.5 14C10.39 14 11.26 13.7361 12.0001 13.2416C12.7401 12.7471 13.3169 12.0443 13.6575 11.2221C13.9981 10.3998 14.0872 9.49501 13.9135 8.6221C13.7399 7.74918 13.3113 6.94736 12.682 6.31802C12.0526 5.68869 11.2508 5.2601 10.3779 5.08647C9.50499 4.91284 8.60019 5.00195 7.77792 5.34255C6.95566 5.68314 6.25285 6.25992 5.75839 6.99994C5.26392 7.73996 5 8.60999 5 9.5C5 10.6935 5.47411 11.8381 6.31802 12.682C7.16193 13.5259 8.30653 14 9.5 14Z" fill="#5135FF"/>
<path fill-rule="evenodd" clip-rule="evenodd" d="M12.6339 17.5L6.86493 27.5C6.77716 27.652 6.73096 27.8244 6.73096 28C6.73096 28.1755 6.77716 28.3479 6.86493 28.4999C6.95269 28.652 7.07893 28.7782 7.23094 28.866C7.38296 28.9537 7.5554 29 7.73093 29H19.2689C19.4445 29 19.6169 28.9537 19.7689 28.866C19.9209 28.7782 20.0472 28.652 20.1349 28.4999C20.2227 28.3479 20.2689 28.1755 20.2689 28C20.2689 27.8244 20.2227 27.652 20.1349 27.5L14.3659 17.5C14.2782 17.3479 14.1519 17.2217 13.9999 17.134C13.8479 17.0462 13.6755 17 13.4999 17C13.3244 17 13.152 17.0462 13 17.134C12.8479 17.2217 12.7217 17.3479 12.6339 17.5ZM17.5339 27L13.4999 20L9.46293 27H17.5339Z" fill="#5135FF"/>
<path fill-rule="evenodd" clip-rule="evenodd" d="M18 10C18 9.46957 18.2107 8.96086 18.5858 8.58579C18.9609 8.21071 19.4696 8 20 8H27C27.5304 8 28.0391 8.21071 28.4142 8.58579C28.7893 8.96086 29 9.46957 29 10V17C29 17.5304 28.7893 18.0391 28.4142 18.4142C28.0391 18.7893 27.5304 19 27 19H20C19.4696 19 18.9609 18.7893 18.5858 18.4142C18.2107 18.0391 18 17.5304 18 17V10ZM20 10H27V17H20V10Z" fill="#5135FF"/>
</svg>
