<svg width="32" height="32" viewBox="0 0 32 32" fill="none" xmlns="http://www.w3.org/2000/svg">
<path d="M21 29V27H17V29C17 29.2652 16.8946 29.5196 16.707 29.7071C16.5195 29.8946 16.2652 30 16 30C15.7348 30 15.4805 29.8946 15.293 29.7071C15.1054 29.5196 15 29.2652 15 29V27H11V29C11 29.2652 10.8946 29.5196 10.707 29.7071C10.5195 29.8946 10.2652 30 10 30C9.73478 30 9.48051 29.8946 9.29297 29.7071C9.10543 29.5196 9 29.2652 9 29V27C7.93913 27 6.92178 26.5786 6.17163 25.8284C5.42149 25.0783 5 24.0609 5 23H3C2.73478 23 2.48051 22.8946 2.29297 22.7071C2.10543 22.5196 2 22.2652 2 22C2 21.7348 2.10543 21.4804 2.29297 21.2929C2.48051 21.1054 2.73478 21 3 21H5V17H3C2.73478 17 2.48051 16.8946 2.29297 16.7071C2.10543 16.5196 2 16.2652 2 16C2 15.7348 2.10543 15.4804 2.29297 15.2929C2.48051 15.1054 2.73478 15 3 15H5V11H3C2.73478 11 2.48051 10.8946 2.29297 10.7071C2.10543 10.5196 2 10.2652 2 10C2 9.73478 2.10543 9.48044 2.29297 9.29291C2.48051 9.10537 2.73478 9 3 9H5C5 7.93913 5.42149 6.92172 6.17163 6.17157C6.92178 5.42142 7.93913 5 9 5V3C9 2.73478 9.10543 2.48044 9.29297 2.29291C9.48051 2.10537 9.73478 2 10 2C10.2652 2 10.5195 2.10537 10.707 2.29291C10.8946 2.48044 11 2.73478 11 3V5H15V3C15 2.73478 15.1054 2.48044 15.293 2.29291C15.4805 2.10537 15.7348 2 16 2C16.2652 2 16.5195 2.10537 16.707 2.29291C16.8946 2.48044 17 2.73478 17 3V5H21V3C21 2.73478 21.1054 2.48044 21.293 2.29291C21.4805 2.10537 21.7348 2 22 2C22.2652 2 22.5195 2.10537 22.707 2.29291C22.8946 2.48044 23 2.73478 23 3V5C24.0609 5 25.0782 5.42142 25.8284 6.17157C26.5785 6.92172 27 7.93913 27 9H29C29.2652 9 29.5195 9.10537 29.707 9.29291C29.8946 9.48044 30 9.73478 30 10C30 10.2652 29.8946 10.5196 29.707 10.7071C29.5195 10.8946 29.2652 11 29 11H27V15H29C29.2652 15 29.5195 15.1054 29.707 15.2929C29.8946 15.4804 30 15.7348 30 16C30 16.2652 29.8946 16.5196 29.707 16.7071C29.5195 16.8946 29.2652 17 29 17H27V21H29C29.2652 21 29.5195 21.1054 29.707 21.2929C29.8946 21.4804 30 21.7348 30 22C30 22.2652 29.8946 22.5196 29.707 22.7071C29.5195 22.8946 29.2652 23 29 23H27C27 24.0609 26.5785 25.0783 25.8284 25.8284C25.0782 26.5786 24.0609 27 23 27V29C23 29.2652 22.8946 29.5196 22.707 29.7071C22.5195 29.8946 22.2652 30 22 30C21.7348 30 21.4805 29.8946 21.293 29.7071C21.1054 29.5196 21 29.2652 21 29ZM7 23C7 23.5304 7.21062 24.0391 7.58569 24.4142C7.96077 24.7893 8.46957 25 9 25H23C23.5304 25 24.0392 24.7893 24.4143 24.4142C24.7894 24.0391 25 23.5304 25 23V9C25 8.46957 24.7894 7.96089 24.4143 7.58582C24.0392 7.21074 23.5304 7 23 7H9C8.46957 7 7.96077 7.21074 7.58569 7.58582C7.21062 7.96089 7 8.46957 7 9V9.96002C7 9.97402 7 9.98698 7 10.001C7 10.015 7 10.028 7 10.042V15.96C7 15.974 7 15.987 7 16.001C7 16.015 7 16.028 7 16.042V21.96C7 21.974 7 21.987 7 22.001C7 22.015 7 22.028 7 22.042V23ZM12 22C11.4696 22 10.9608 21.7893 10.5857 21.4142C10.2106 21.0391 10 20.5304 10 20V12C10 11.4696 10.2106 10.9609 10.5857 10.5858C10.9608 10.2107 11.4696 10 12 10H20C20.5304 10 21.0392 10.2107 21.4143 10.5858C21.7894 10.9609 22 11.4696 22 12V20C22 20.5304 21.7894 21.0391 21.4143 21.4142C21.0392 21.7893 20.5304 22 20 22H12ZM12 20H20V12H12V20Z" fill="#5135FF"/>
</svg>
