<svg width="32" height="32" viewBox="0 0 32 32" fill="none" xmlns="http://www.w3.org/2000/svg">
<path d="M8.00098 4H24.001C25.0618 4 26.0793 4.42143 26.8294 5.17157C27.5795 5.92172 28.001 6.93913 28.001 8V24C28.001 25.0609 27.5795 26.0783 26.8294 26.8284C26.0793 27.5786 25.0618 28 24.001 28H8.00098C6.94011 28 5.92269 27.5786 5.17255 26.8284C4.4224 26.0783 4.00098 25.0609 4.00098 24V8C4.00098 6.93913 4.4224 5.92172 5.17255 5.17157C5.92269 4.42143 6.94011 4 8.00098 4ZM24.001 26C24.5314 26 25.0401 25.7893 25.4152 25.4142C25.7903 25.0391 26.001 24.5304 26.001 24V8C26.001 7.46957 25.7903 6.96086 25.4152 6.58579C25.0401 6.21071 24.5314 6 24.001 6H8.00098C7.47054 6 6.96184 6.21071 6.58676 6.58579C6.21169 6.96086 6.00098 7.46957 6.00098 8V24C6.00098 24.5304 6.21169 25.0391 6.58676 25.4142C6.96184 25.7893 7.47054 26 8.00098 26H24.001Z" fill="#5135FF"/>
<path d="M20.5298 5.5C20.2646 5.5 20.0102 5.39464 19.8227 5.20711C19.6351 5.01957 19.5298 4.76522 19.5298 4.5V2.5C19.5298 2.23478 19.6351 1.98043 19.8227 1.79289C20.0102 1.60536 20.2646 1.5 20.5298 1.5C20.795 1.5 21.0494 1.60536 21.2369 1.79289C21.4244 1.98043 21.5298 2.23478 21.5298 2.5V4.5C21.5298 4.76522 21.4244 5.01957 21.2369 5.20711C21.0494 5.39464 20.795 5.5 20.5298 5.5Z" fill="#5135FF"/>
<path d="M20.5298 30.5C20.2646 30.5 20.0102 30.3946 19.8227 30.2071C19.6351 30.0196 19.5298 29.7652 19.5298 29.5V27.5C19.5298 27.2348 19.6351 26.9804 19.8227 26.7929C20.0102 26.6054 20.2646 26.5 20.5298 26.5C20.795 26.5 21.0494 26.6054 21.2369 26.7929C21.4244 26.9804 21.5298 27.2348 21.5298 27.5V29.5C21.5298 29.7652 21.4244 30.0196 21.2369 30.2071C21.0494 30.3946 20.795 30.5 20.5298 30.5Z" fill="#5135FF"/>
<path d="M11.5298 5.5C11.2646 5.5 11.0102 5.39464 10.8227 5.20711C10.6351 5.01957 10.5298 4.76522 10.5298 4.5V2.5C10.5298 2.23478 10.6351 1.98043 10.8227 1.79289C11.0102 1.60536 11.2646 1.5 11.5298 1.5C11.795 1.5 12.0494 1.60536 12.2369 1.79289C12.4244 1.98043 12.5298 2.23478 12.5298 2.5V4.5C12.5298 4.76522 12.4244 5.01957 12.2369 5.20711C12.0494 5.39464 11.795 5.5 11.5298 5.5Z" fill="#5135FF"/>
<path d="M11.5298 30.5C11.2646 30.5 11.0102 30.3946 10.8227 30.2071C10.6351 30.0196 10.5298 29.7652 10.5298 29.5V27.5C10.5298 27.2348 10.6351 26.9804 10.8227 26.7929C11.0102 26.6054 11.2646 26.5 11.5298 26.5C11.795 26.5 12.0494 26.6054 12.2369 26.7929C12.4244 26.9804 12.5298 27.2348 12.5298 27.5V29.5C12.5298 29.7652 12.4244 30.0196 12.2369 30.2071C12.0494 30.3946 11.795 30.5 11.5298 30.5Z" fill="#5135FF"/>
<path d="M26.5298 20.5C26.5298 20.2348 26.6351 19.9804 26.8227 19.7929C27.0102 19.6054 27.2646 19.5 27.5298 19.5H29.5298C29.795 19.5 30.0494 19.6054 30.2369 19.7929C30.4244 19.9804 30.5298 20.2348 30.5298 20.5C30.5298 20.7652 30.4244 21.0196 30.2369 21.2071C30.0494 21.3946 29.795 21.5 29.5298 21.5H27.5298C27.2646 21.5 27.0102 21.3946 26.8227 21.2071C26.6351 21.0196 26.5298 20.7652 26.5298 20.5Z" fill="#5135FF"/>
<path d="M1.52979 20.5C1.52979 20.2348 1.63514 19.9804 1.82268 19.7929C2.01021 19.6054 2.26457 19.5 2.52979 19.5H4.52979C4.795 19.5 5.04936 19.6054 5.23689 19.7929C5.42443 19.9804 5.52979 20.2348 5.52979 20.5C5.52979 20.7652 5.42443 21.0196 5.23689 21.2071C5.04936 21.3946 4.795 21.5 4.52979 21.5H2.52979C2.26457 21.5 2.01021 21.3946 1.82268 21.2071C1.63514 21.0196 1.52979 20.7652 1.52979 20.5Z" fill="#5135FF"/>
<path d="M26.5298 11.5C26.5298 11.2348 26.6351 10.9804 26.8227 10.7929C27.0102 10.6054 27.2646 10.5 27.5298 10.5H29.5298C29.795 10.5 30.0494 10.6054 30.2369 10.7929C30.4244 10.9804 30.5298 11.2348 30.5298 11.5C30.5298 11.7652 30.4244 12.0196 30.2369 12.2071C30.0494 12.3946 29.795 12.5 29.5298 12.5H27.5298C27.2646 12.5 27.0102 12.3946 26.8227 12.2071C26.6351 12.0196 26.5298 11.7652 26.5298 11.5Z" fill="#5135FF"/>
<path d="M1.52979 11.5C1.52979 11.2348 1.63514 10.9804 1.82268 10.7929C2.01021 10.6054 2.26457 10.5 2.52979 10.5H4.52979C4.795 10.5 5.04936 10.6054 5.23689 10.7929C5.42443 10.9804 5.52979 11.2348 5.52979 11.5C5.52979 11.7652 5.42443 12.0196 5.23689 12.2071C5.04936 12.3946 4.795 12.5 4.52979 12.5H2.52979C2.26457 12.5 2.01021 12.3946 1.82268 12.2071C1.63514 12.0196 1.52979 11.7652 1.52979 11.5Z" fill="#5135FF"/>
<mask id="mask0_2920_5847" style="mask-type:luminance" maskUnits="userSpaceOnUse" x="6" y="11" width="20" height="10">
<path d="M25.8268 11.0542H6.17383V20.9472H25.8268V11.0542Z" fill="white"/>
</mask>
<g mask="url(#mask0_2920_5847)">
<path d="M7.425 16.0334C7.39132 15.6135 7.44585 15.1913 7.58508 14.7938C7.7243 14.3962 7.94514 14.0322 8.23341 13.7251C8.52169 13.418 8.87101 13.1746 9.25895 13.0105C9.64688 12.8464 10.0649 12.7653 10.486 12.7724C10.8552 12.767 11.2216 12.836 11.5636 12.9753C11.9055 13.1147 12.2158 13.3215 12.476 13.5834L11.69 14.5364C11.5394 14.3831 11.3599 14.2613 11.1617 14.1782C10.9636 14.0951 10.7509 14.0524 10.536 14.0524C9.616 14.0524 8.955 14.7724 8.955 15.9834C8.955 17.2214 9.507 17.9404 10.67 17.9404C10.8763 17.9462 11.0797 17.8912 11.255 17.7824V16.7824H10.268V15.5564H12.584V18.4724C12.0108 18.9742 11.2717 19.2454 10.51 19.2334C10.0888 19.2567 9.66752 19.189 9.27486 19.0348C8.88221 18.8806 8.5274 18.6436 8.23462 18.3399C7.94184 18.0362 7.71796 17.673 7.57825 17.275C7.43853 16.8769 7.38626 16.4535 7.425 16.0334Z" fill="#5135FF"/>
<path d="M10.5108 19.3292C10.0769 19.352 9.64319 19.2815 9.23889 19.1223C8.83459 18.9632 8.46912 18.7192 8.16715 18.4068C7.86517 18.0944 7.63372 17.7209 7.48841 17.3114C7.3431 16.902 7.28731 16.4661 7.32481 16.0332C7.29183 15.6003 7.34943 15.1653 7.49394 14.756C7.63845 14.3466 7.86669 13.9719 8.16411 13.6556C8.46153 13.3394 8.8216 13.0886 9.22134 12.9193C9.62109 12.75 10.0517 12.6658 10.4858 12.6722C10.868 12.6668 11.2473 12.7384 11.6012 12.8828C11.9551 13.0271 12.2764 13.2411 12.5458 13.5122L12.6108 13.5722L11.7008 14.6722L11.6248 14.6112C11.4832 14.4657 11.3139 14.3502 11.1268 14.2713C10.9398 14.1925 10.7388 14.152 10.5358 14.1522C9.63581 14.1522 9.05481 14.8712 9.05481 15.9842C9.05481 17.2162 9.59781 17.8412 10.6698 17.8412C10.8382 17.8439 11.0047 17.8055 11.1548 17.7292V16.8792H10.1678V15.4562H12.6838V18.5102L12.6528 18.5402C12.0618 19.0605 11.2981 19.3418 10.5108 19.3292ZM10.4858 12.8722C10.1013 12.8653 9.71916 12.9346 9.36149 13.076C9.00383 13.2174 8.67768 13.4282 8.40181 13.6962C8.10702 14.0075 7.87755 14.3746 7.72693 14.776C7.57631 15.1774 7.50758 15.6049 7.52481 16.0332C7.50355 16.4579 7.56941 16.8825 7.71834 17.2808C7.86727 17.6791 8.09612 18.0427 8.39081 18.3492C8.96789 18.877 9.7293 19.1568 10.5108 19.1282C11.2318 19.1414 11.9332 18.8927 12.4848 18.4282V15.6562H10.3678V16.6772H11.3548V17.8322L11.3148 17.8622C11.1226 17.985 10.8978 18.047 10.6698 18.0402C9.48281 18.0402 8.85481 17.3292 8.85481 15.9832C8.85481 14.7722 9.52981 13.9522 10.5358 13.9522C10.9587 13.9498 11.3667 14.1078 11.6778 14.3942L12.3398 13.5942C11.839 13.122 11.1741 12.863 10.4858 12.8722Z" fill="#5135FF"/>
<path d="M13.8389 12.8804H16.0309C17.3939 12.8804 18.5229 13.3744 18.5229 14.9134C18.5229 16.3934 17.3849 17.0454 16.0639 17.0454H15.3389V19.1114H13.8389V12.8804ZM15.9879 15.8664C16.7159 15.8664 17.0669 15.5234 17.0669 14.9134C17.0669 14.2854 16.6669 14.0684 15.9459 14.0684H15.3389V15.8684L15.9879 15.8664Z" fill="#5135FF"/>
<path d="M13.7388 12.7803H16.0308C17.7308 12.7803 18.6228 13.5173 18.6228 14.9133C18.6371 15.2375 18.5745 15.5606 18.4402 15.856C18.3059 16.1515 18.1035 16.4109 17.8498 16.6133C17.3296 16.9832 16.7015 17.1702 16.0638 17.1453H15.4388V19.2113H13.7388V12.7803ZM16.0658 16.9453C17.2068 16.9453 18.4248 16.4113 18.4248 14.9133C18.4248 13.6313 17.6248 12.9803 16.0328 12.9803H13.9388V19.0113H15.2388V16.9453H16.0658ZM15.2388 13.9683H15.9488C16.4728 13.9683 17.1698 14.0683 17.1698 14.9133C17.1698 15.5923 16.7508 15.9663 15.9908 15.9663H15.2388V13.9683ZM15.9908 15.7683C16.6498 15.7683 16.9698 15.4893 16.9698 14.9153C16.9698 14.3863 16.6698 14.1703 15.9488 14.1703H15.4388V15.7703L15.9908 15.7683Z" fill="#5135FF"/>
<path d="M19.5576 16.1843V12.8813H21.0466V16.3433C21.0466 17.5223 21.3976 17.9433 22.0836 17.9433C22.7696 17.9433 23.1376 17.5253 23.1376 16.3433V12.8813H24.5766V16.1813C24.5766 18.2813 23.7406 19.2263 22.0846 19.2263C20.4286 19.2263 19.5576 18.2833 19.5576 16.1843Z" fill="#5135FF"/>
<path d="M22.083 19.3252C20.316 19.3252 19.458 18.3003 19.458 16.1843V12.7812H21.147V16.3433C21.147 17.6593 21.597 17.8432 22.084 17.8432C22.556 17.8432 23.038 17.6653 23.038 16.3433V12.7812H24.677V16.1813C24.675 18.3003 23.827 19.3252 22.083 19.3252ZM19.658 12.9813V16.1813C19.5953 16.9779 19.8125 17.7715 20.272 18.4252C20.5013 18.6712 20.7835 18.862 21.0971 18.9832C21.4108 19.1044 21.7479 19.153 22.083 19.1252C23.715 19.1252 24.475 18.1892 24.475 16.1802V12.9813H23.236V16.3433C23.236 17.5013 22.869 18.0432 22.082 18.0432C21.295 18.0432 20.945 17.5193 20.945 16.3433V12.9813H19.658Z" fill="#5135FF"/>
</g>
<path d="M9.00098 9.99902C9.55326 9.99902 10.001 9.55131 10.001 8.99902C10.001 8.44674 9.55326 7.99902 9.00098 7.99902C8.44869 7.99902 8.00098 8.44674 8.00098 8.99902C8.00098 9.55131 8.44869 9.99902 9.00098 9.99902Z" fill="#5135FF"/>
<path d="M9.00098 23.999C9.55326 23.999 10.001 23.5513 10.001 22.999C10.001 22.4467 9.55326 21.999 9.00098 21.999C8.44869 21.999 8.00098 22.4467 8.00098 22.999C8.00098 23.5513 8.44869 23.999 9.00098 23.999Z" fill="#5135FF"/>
<path d="M16.001 9.99902C16.5533 9.99902 17.001 9.55131 17.001 8.99902C17.001 8.44674 16.5533 7.99902 16.001 7.99902C15.4487 7.99902 15.001 8.44674 15.001 8.99902C15.001 9.55131 15.4487 9.99902 16.001 9.99902Z" fill="#5135FF"/>
<path d="M16.001 23.999C16.5533 23.999 17.001 23.5513 17.001 22.999C17.001 22.4467 16.5533 21.999 16.001 21.999C15.4487 21.999 15.001 22.4467 15.001 22.999C15.001 23.5513 15.4487 23.999 16.001 23.999Z" fill="#5135FF"/>
<path d="M12.501 10C13.0533 10 13.501 9.55228 13.501 9C13.501 8.44772 13.0533 8 12.501 8C11.9487 8 11.501 8.44772 11.501 9C11.501 9.55228 11.9487 10 12.501 10Z" fill="#5135FF"/>
<path d="M12.501 24C13.0533 24 13.501 23.5523 13.501 23C13.501 22.4477 13.0533 22 12.501 22C11.9487 22 11.501 22.4477 11.501 23C11.501 23.5523 11.9487 24 12.501 24Z" fill="#5135FF"/>
<path d="M19.501 10C20.0533 10 20.501 9.55228 20.501 9C20.501 8.44772 20.0533 8 19.501 8C18.9487 8 18.501 8.44772 18.501 9C18.501 9.55228 18.9487 10 19.501 10Z" fill="#5135FF"/>
<path d="M19.501 24C20.0533 24 20.501 23.5523 20.501 23C20.501 22.4477 20.0533 22 19.501 22C18.9487 22 18.501 22.4477 18.501 23C18.501 23.5523 18.9487 24 19.501 24Z" fill="#5135FF"/>
<path d="M23.001 9.99902C23.5533 9.99902 24.001 9.55131 24.001 8.99902C24.001 8.44674 23.5533 7.99902 23.001 7.99902C22.4487 7.99902 22.001 8.44674 22.001 8.99902C22.001 9.55131 22.4487 9.99902 23.001 9.99902Z" fill="#5135FF"/>
<path d="M23.001 23.999C23.5533 23.999 24.001 23.5513 24.001 22.999C24.001 22.4467 23.5533 21.999 23.001 21.999C22.4487 21.999 22.001 22.4467 22.001 22.999C22.001 23.5513 22.4487 23.999 23.001 23.999Z" fill="#5135FF"/>
</svg>
