<svg width="32" height="32" viewBox="0 0 32 32" fill="none" xmlns="http://www.w3.org/2000/svg">
<path opacity="0.45" d="M17.9001 24.8359H3.80595C3.34097 24.8359 2.89503 24.6512 2.56624 24.3224C2.23745 23.9936 2.05273 23.5477 2.05273 23.0827V8.45117H27.4122V14.5585L25.0523 13.5452C24.8116 13.4391 24.5514 13.3843 24.2884 13.3843C24.0253 13.3843 23.7651 13.4391 23.5244 13.5452L18.2376 15.8147L18.1841 15.8419C17.7887 16.0294 17.4554 16.3266 17.2239 16.6979C16.9924 17.0693 16.8723 17.4994 16.878 17.937V18.7636C16.8794 20.0561 16.9882 21.3462 17.2032 22.6207C17.3091 23.2467 17.4874 23.8583 17.7344 24.4432L17.901 24.8333L17.9001 24.8359Z" fill="#5135FF"/>
<g opacity="0.75">
<path d="M10.5872 11.5698H5.22151C4.97944 11.5698 4.7832 11.7661 4.7832 12.0081V12.6919C4.7832 12.934 4.97944 13.1302 5.22151 13.1302H10.5872C10.8293 13.1302 11.0255 12.934 11.0255 12.6919V12.0081C11.0255 11.7661 10.8293 11.5698 10.5872 11.5698Z" fill="#5135FF"/>
<path d="M15.271 16.2518H5.22326C5.10702 16.2518 4.99553 16.2056 4.91333 16.1234C4.83113 16.0412 4.78496 15.9297 4.78496 15.8135V15.1289C4.78496 15.0126 4.83113 14.9011 4.91333 14.8189C4.99553 14.7367 5.10702 14.6906 5.22326 14.6906H15.271C15.3872 14.6906 15.4987 14.7367 15.5809 14.8189C15.6631 14.9011 15.7093 15.0126 15.7093 15.1289V15.8135C15.7093 15.9297 15.6631 16.0412 15.5809 16.1234C15.4987 16.2056 15.3872 16.2518 15.271 16.2518Z" fill="#5135FF"/>
</g>
<path d="M27.4111 8.44926H2.05078V5.52226C2.05078 5.05728 2.23549 4.61134 2.56429 4.28255C2.89308 3.95376 3.33902 3.76904 3.804 3.76904H25.6579C26.1229 3.76904 26.5688 3.95376 26.8976 4.28255C27.2264 4.61134 27.4111 5.05728 27.4111 5.52226V8.44926ZM10.2453 5.32766C10.0907 5.32696 9.93935 5.37218 9.81045 5.45758C9.68154 5.54298 9.58088 5.66472 9.52123 5.80738C9.46158 5.95004 9.44561 6.10719 9.47535 6.25893C9.50509 6.41067 9.5792 6.55017 9.68829 6.65976C9.79738 6.76934 9.93655 6.84408 10.0882 6.8745C10.2398 6.90492 10.397 6.88966 10.5399 6.83065C10.6828 6.77164 10.805 6.67153 10.891 6.54301C10.977 6.41449 11.0229 6.26334 11.0229 6.10871C11.0227 5.90224 10.9408 5.70424 10.7951 5.55791C10.6494 5.41159 10.4518 5.32881 10.2453 5.32766ZM7.90303 5.32766C7.74855 5.32766 7.59754 5.37346 7.4691 5.45929C7.34065 5.54511 7.24054 5.6671 7.18142 5.80982C7.12231 5.95254 7.10684 6.10958 7.13698 6.26109C7.16711 6.4126 7.2415 6.55177 7.35074 6.66101C7.45997 6.77024 7.59914 6.84463 7.75065 6.87477C7.90216 6.9049 8.05921 6.88944 8.20193 6.83032C8.34465 6.7712 8.46663 6.67109 8.55246 6.54265C8.63828 6.4142 8.68409 6.26319 8.68409 6.10871C8.68386 5.90164 8.60149 5.70311 8.45507 5.55668C8.30864 5.41025 8.11011 5.32789 7.90303 5.32766ZM5.55722 5.32766C5.40274 5.32766 5.25173 5.37346 5.12329 5.45929C4.99484 5.54511 4.89473 5.6671 4.83562 5.80982C4.7765 5.95254 4.76103 6.10958 4.79117 6.26109C4.82131 6.4126 4.8957 6.55177 5.00493 6.66101C5.11416 6.77024 5.25333 6.84463 5.40484 6.87477C5.55635 6.9049 5.7134 6.88944 5.85612 6.83032C5.99884 6.7712 6.12082 6.67109 6.20665 6.54265C6.29247 6.4142 6.33828 6.26319 6.33828 6.10871C6.3384 6.00611 6.31827 5.90449 6.27906 5.80968C6.23985 5.71487 6.18232 5.62872 6.10977 5.55617C6.03722 5.48361 5.95107 5.42609 5.85626 5.38688C5.76144 5.34766 5.65982 5.32754 5.55722 5.32766Z" fill="#5135FF"/>
<path fill-rule="evenodd" clip-rule="evenodd" d="M24.1712 15.1203C24.2066 15.1046 24.245 15.0965 24.2838 15.0965C24.3226 15.0965 24.361 15.1046 24.3965 15.1203L29.6903 17.3854C29.8005 17.4371 29.8932 17.5198 29.9572 17.6233C30.0211 17.7268 30.0536 17.8467 30.0506 17.9684V18.4996C30.052 19.7467 29.9567 20.992 29.7657 22.2243C29.6724 22.8258 29.5043 23.4134 29.2651 23.9731L29.0697 24.4307C28.7209 25.2526 28.1893 25.9841 27.5154 26.5697C26.8754 27.1289 26.1438 27.5737 25.3528 27.8846L24.3886 28.2615C24.3222 28.2866 24.2489 28.2866 24.1826 28.2615L23.2183 27.8846C22.4271 27.5735 21.6953 27.1287 21.0548 26.5697C20.3833 25.982 19.8543 25.2494 19.5076 24.4272L19.2516 23.8338C19.0546 23.3686 18.9128 22.882 18.8291 22.3838C18.6277 21.2029 18.5265 20.007 18.5267 18.809V17.9701C18.5237 17.8481 18.5563 17.7279 18.6204 17.6241C18.6845 17.5203 18.7774 17.4374 18.8878 17.3854L24.1712 15.1203Z" fill="#5135FF"/>
</svg>
