<svg width="32" height="32" viewBox="0 0 32 32" fill="none" xmlns="http://www.w3.org/2000/svg">
<path opacity="0.45" d="M27.3721 3.75098H4.62207C4.13882 3.75098 3.74707 4.14273 3.74707 4.62598V22.126C3.74707 22.6092 4.13882 23.001 4.62207 23.001H27.3721C27.8553 23.001 28.2471 22.6092 28.2471 22.126V4.62598C28.2471 4.14273 27.8553 3.75098 27.3721 3.75098Z" fill="#5135FF"/>
<path opacity="0.75" d="M29.125 30H2.875C2.64294 30 2.42038 29.9078 2.25628 29.7437C2.09219 29.5796 2 29.3571 2 29.125V27.375C2 27.1429 2.09219 26.9204 2.25628 26.7563C2.42038 26.5922 2.64294 26.5 2.875 26.5H14.25V24.75H3.75C3.28587 24.75 2.84075 24.5656 2.51256 24.2374C2.18437 23.9092 2 23.4641 2 23V3.75C2 3.28587 2.18437 2.84075 2.51256 2.51256C2.84075 2.18437 3.28587 2 3.75 2H28.25C28.7141 2 29.1592 2.18437 29.4874 2.51256C29.8156 2.84075 30 3.28587 30 3.75V23C30 23.4641 29.8156 23.9092 29.4874 24.2374C29.1592 24.5656 28.7141 24.75 28.25 24.75H17.75V26.5H29.125C29.3571 26.5 29.5796 26.5922 29.7437 26.7563C29.9078 26.9204 30 27.1429 30 27.375V29.125C30 29.3571 29.9078 29.5796 29.7437 29.7437C29.5796 29.9078 29.3571 30 29.125 30ZM4.625 3.75C4.39294 3.75 4.17038 3.84219 4.00628 4.00628C3.84219 4.17038 3.75 4.39294 3.75 4.625V22.125C3.75 22.3571 3.84219 22.5796 4.00628 22.7437C4.17038 22.9078 4.39294 23 4.625 23H27.375C27.6071 23 27.8296 22.9078 27.9937 22.7437C28.1578 22.5796 28.25 22.3571 28.25 22.125V4.625C28.25 4.39294 28.1578 4.17038 27.9937 4.00628C27.8296 3.84219 27.6071 3.75 27.375 3.75H4.625Z" fill="#5135FF"/>
<path d="M13.8837 19.4211C13.7505 19.3679 13.6291 19.289 13.5265 19.1888C13.4239 19.0886 13.3421 18.9692 13.2858 18.8373C13.2295 18.7055 13.1997 18.5638 13.1982 18.4204C13.1968 18.277 13.2236 18.1348 13.2773 18.0018L16.7773 9.25181C16.889 8.98754 17.1 8.77767 17.3649 8.6673C17.6297 8.55693 17.9273 8.55487 18.1937 8.66157C18.46 8.76827 18.6739 8.97521 18.7893 9.23791C18.9047 9.50061 18.9124 9.7981 18.8108 10.0664L15.3108 18.8164C15.2294 19.0194 15.0892 19.1933 14.9081 19.3158C14.7271 19.4384 14.5135 19.504 14.2949 19.5042C14.1537 19.5038 14.0139 19.4755 13.8837 19.4211ZM21.1287 18.3046C20.9247 18.0992 20.8102 17.8214 20.8102 17.5319C20.8102 17.2424 20.9247 16.9647 21.1287 16.7593L23.8569 14.0293L21.1287 11.3054C20.9296 11.099 20.8196 10.8226 20.8223 10.5358C20.825 10.249 20.9403 9.97481 21.1433 9.77219C21.3462 9.56957 21.6207 9.45477 21.9074 9.45253C22.1942 9.45028 22.4704 9.56077 22.6765 9.76018L26.1765 13.2602C26.3819 13.4658 26.4972 13.7444 26.4972 14.035C26.4972 14.3256 26.3819 14.6042 26.1765 14.8098L22.6765 18.3098C22.4711 18.5148 22.1928 18.63 21.9026 18.63C21.6124 18.63 21.334 18.5148 21.1287 18.3098V18.3046ZM9.31616 18.3046L5.81616 14.8046C5.71438 14.7028 5.63364 14.582 5.57856 14.4491C5.52347 14.3161 5.49512 14.1737 5.49512 14.0297C5.49512 13.8858 5.52347 13.7433 5.57856 13.6104C5.63364 13.4775 5.71438 13.3567 5.81616 13.2549L9.31616 9.75493C9.52177 9.54956 9.80054 9.43427 10.0912 9.43443C10.3818 9.4346 10.6604 9.5502 10.8658 9.75581C11.0712 9.96142 11.1864 10.2402 11.1863 10.5308C11.1861 10.8214 11.0705 11.1001 10.8649 11.3054L8.13841 14.0293L10.864 16.7593C11.0631 16.9658 11.1731 17.2421 11.1704 17.5289C11.1677 17.8157 11.0524 18.0899 10.8494 18.2926C10.6465 18.4952 10.372 18.61 10.0852 18.6122C9.79846 18.6145 9.52227 18.504 9.31616 18.3046Z" fill="#5135FF"/>
</svg>
