<svg width="32" height="32" viewBox="0 0 32 32" fill="none" xmlns="http://www.w3.org/2000/svg">
<path opacity="0.45" d="M19.3332 29.8215C19.2797 29.8216 19.2268 29.8116 19.1769 29.7923L17.7218 29.2259C17.3192 29.0692 16.9263 28.8886 16.5452 28.6851C16.6716 28.4544 16.7378 28.1955 16.7379 27.9324V25.9712C16.7717 26.0105 16.8074 26.0488 16.8512 26.0927C17.273 26.5137 17.8447 26.7502 18.4407 26.7502C19.0367 26.7502 19.6083 26.5137 20.0301 26.0927L21.5447 24.5781C21.9663 24.1564 22.2031 23.5845 22.2031 22.9882C22.2031 22.3919 21.9663 21.82 21.5447 21.3983L20.0311 19.8846C19.6095 19.4631 19.0377 19.2263 18.4416 19.2263C17.8454 19.2263 17.2737 19.4631 16.8521 19.8846C16.8128 19.9239 16.7754 19.9641 16.7389 20.0061V18.0467C16.7386 17.6301 16.573 17.2307 16.2783 16.9363C15.9837 16.6418 15.5842 16.4764 15.1677 16.4764H10.6788C10.6623 16.0178 10.655 15.5611 10.655 15.1144V14.3178C10.6509 14.1349 10.6999 13.9548 10.796 13.7991C10.8921 13.6435 11.0313 13.519 11.1967 13.4409L19.1587 10.0336C19.2123 10.0108 19.2699 9.99902 19.3281 9.99902C19.3864 9.99902 19.444 10.0108 19.4976 10.0336L27.4586 13.4409C27.6242 13.5193 27.7635 13.644 27.8597 13.8C27.9558 13.956 28.0047 14.1365 28.0003 14.3196V15.5839C28.0003 17.3853 27.8475 19.1833 27.5436 20.9589C27.4177 21.7083 27.2046 22.4404 26.9087 23.1403L26.5241 24.0328C26.0013 25.2686 25.2052 26.3698 24.1956 27.2537C23.2327 28.0931 22.1323 28.7602 20.9427 29.2259L19.4811 29.7923C19.4339 29.8108 19.3838 29.8207 19.3332 29.8215Z" fill="#5135FF"/>
<path d="M17.6805 25.2584C17.5263 25.1041 17.4228 24.9064 17.384 24.6918C17.3451 24.4771 17.3727 24.2557 17.4631 24.0572H13.5287C13.2447 24.0572 12.9724 23.9444 12.7717 23.7436C12.5709 23.5428 12.4581 23.2705 12.4581 22.9866C12.4581 22.7026 12.5709 22.4303 12.7717 22.2295C12.9724 22.0288 13.2447 21.916 13.5287 21.916H17.4631C17.36 21.6877 17.3402 21.4304 17.4071 21.1891C17.4741 20.9477 17.6236 20.7374 17.8296 20.5949C18.0356 20.4523 18.285 20.3865 18.5345 20.4089C18.784 20.4313 19.0177 20.5405 19.195 20.7175L20.7087 22.2302C20.8082 22.3296 20.8871 22.4477 20.941 22.5776C20.9948 22.7076 21.0225 22.8468 21.0225 22.9875C21.0225 23.1281 20.9948 23.2674 20.941 23.3973C20.8871 23.5273 20.8082 23.6453 20.7087 23.7448L19.195 25.2584C19.0956 25.3579 18.9776 25.4368 18.8476 25.4907C18.7177 25.5445 18.5784 25.5722 18.4378 25.5722C18.2971 25.5722 18.1578 25.5445 18.0279 25.4907C17.898 25.4368 17.7799 25.3579 17.6805 25.2584Z" fill="#5135FF"/>
<path d="M6.47779 6.01957H8.9031V4.96997H6.47779V3.33574H9.31874V2.29528H5.1167V8.55906H6.47779V6.01957Z" fill="#5135FF"/>
<path d="M11.3647 6.15849H12.2782C13.7452 6.15849 14.9154 5.51905 14.9154 4.08396C14.9154 2.6032 13.7544 2.12088 12.2416 2.12088H9.99993V8.38375H11.3647V6.15849ZM11.3647 3.1111H12.1393C13.0793 3.1111 13.5781 3.35682 13.5781 4.08396C13.5781 4.8111 13.1231 5.16736 12.1859 5.16736H11.3638L11.3647 3.1111Z" fill="#5135FF"/>
<path d="M16.4588 5.76843C16.4588 5.17558 16.3482 4.30685 16.2834 3.71217H16.3199L16.868 5.18471L17.9276 7.81738H18.7123L19.7628 5.18471L20.3164 3.71217H20.353C20.2881 4.30411 20.1876 5.17375 20.1876 5.76843V8.38375H21.4327V2.12088H19.9172L18.7854 5.04952C18.6383 5.43866 18.5178 5.85339 18.3707 6.25989H18.325C18.1862 5.85339 18.0574 5.43775 17.9094 5.04952L16.7456 2.12088H15.2329V8.38375H16.4588V5.76843Z" fill="#5135FF"/>
<path d="M24.2564 7.41892C23.6155 7.39273 23.0029 7.14771 22.5208 6.72467L21.7361 7.58792C22.4304 8.18012 23.3137 8.50417 24.2263 8.5014C25.8029 8.5014 26.7338 7.62902 26.7338 6.60592C26.731 6.20924 26.594 5.82519 26.3453 5.51621C26.0965 5.20723 25.7505 4.9915 25.3636 4.90409L24.4683 4.55697C23.8874 4.34595 23.3977 4.18426 23.3977 3.73483C23.3977 3.3201 23.786 3.07438 24.3843 3.07438C24.9124 3.07452 25.4242 3.25717 25.8331 3.59141L26.5246 2.80398C25.9359 2.27993 25.1734 1.99342 24.3852 2.00011C23.0022 2.00011 22.0248 2.78663 22.0248 3.81156C22.0469 4.2026 22.1928 4.57647 22.4414 4.87911C22.6901 5.18176 23.0285 5.39749 23.4078 5.49512L24.3213 5.85138C24.9287 6.08797 25.3453 6.23139 25.3453 6.69727C25.3453 7.13665 24.9662 7.41618 24.2564 7.41618" fill="#5135FF"/>
<g opacity="0.75">
<path d="M7.56744 17.6543H3.45674C3.20449 17.6543 3 17.8588 3 18.111V20.023C3 20.2752 3.20449 20.4797 3.45674 20.4797H7.56744C7.81969 20.4797 8.02418 20.2752 8.02418 20.023V18.111C8.02418 17.8588 7.81969 17.6543 7.56744 17.6543Z" fill="#5135FF"/>
<path d="M3.3791 21.5759H10.8286C10.9291 21.5759 11.0256 21.6158 11.0966 21.6869C11.1677 21.758 11.2077 21.8545 11.2077 21.955V24.0231C11.2077 24.1237 11.1677 24.2201 11.0966 24.2912C11.0256 24.3623 10.9291 24.4022 10.8286 24.4022H3.3791C3.27855 24.4022 3.18213 24.3623 3.11104 24.2912C3.03994 24.2201 3 24.1237 3 24.0231V21.955C3 21.8545 3.03994 21.758 3.11104 21.6869C3.18213 21.6158 3.27855 21.5759 3.3791 21.5759Z" fill="#5135FF"/>
<path d="M15.1028 17.6543H9.73697C9.48472 17.6543 9.28022 17.8588 9.28022 18.111V20.023C9.28022 20.2752 9.48472 20.4797 9.73697 20.4797H15.1028C15.355 20.4797 15.5595 20.2752 15.5595 20.023V18.111C15.5595 17.8588 15.355 17.6543 15.1028 17.6543Z" fill="#5135FF"/>
<path d="M5.05535 25.4984H3.45674C3.20449 25.4984 3 25.7029 3 25.9552V27.8671C3 28.1193 3.20449 28.3238 3.45674 28.3238H5.05535C5.3076 28.3238 5.51209 28.1193 5.51209 27.8671V25.9552C5.51209 25.7029 5.3076 25.4984 5.05535 25.4984Z" fill="#5135FF"/>
<path d="M15.1028 25.4984H7.22488C6.97263 25.4984 6.76813 25.7029 6.76813 25.9552V27.8671C6.76813 28.1193 6.97263 28.3238 7.22488 28.3238H15.1028C15.355 28.3238 15.5595 28.1193 15.5595 27.8671V25.9552C15.5595 25.7029 15.355 25.4984 15.1028 25.4984Z" fill="#5135FF"/>
</g>
</svg>
