<svg width="32" height="32" viewBox="0 0 32 32" fill="none" xmlns="http://www.w3.org/2000/svg">
<path opacity="0.45" d="M15.9993 28.7809C14.502 28.7836 13.0158 28.5227 11.6089 28.01C12.6126 27.4397 13.5351 26.7372 14.3518 25.9214C14.6143 25.6588 14.8899 25.3605 15.1603 25.0341C15.3885 25.1146 15.6272 25.1615 15.869 25.1732C15.9122 25.179 15.9558 25.1813 15.9993 25.1802C16.641 25.1798 17.258 24.9333 17.7234 24.4915C18.1888 24.0497 18.467 23.4463 18.5008 22.8055C18.5191 22.4774 18.4719 22.149 18.362 21.8394C18.252 21.5297 18.0815 21.2451 17.8604 21.0021C17.7576 20.8873 17.6446 20.7821 17.5226 20.688C17.9088 19.4519 18.105 18.1644 18.1045 16.8695C18.1045 16.6306 18.0966 16.3637 18.0782 16.0312C18.8139 15.8667 19.5329 15.635 20.2262 15.3391C20.4887 15.2271 20.7302 15.1177 20.9568 15.004C21.3593 15.316 21.8481 15.4965 22.3567 15.5211C22.3777 15.5211 22.3996 15.5211 22.4215 15.5211H22.4862C23.1275 15.5196 23.744 15.2727 24.2091 14.8311C24.6743 14.3896 24.9528 13.7868 24.9877 13.1463C25.0077 12.7768 24.9443 12.4074 24.8022 12.0657C25.5906 11.178 26.2533 10.1861 26.7717 9.11783C26.4686 8.6467 26.1358 8.19545 25.7751 7.76682C25.3112 8.91576 24.6628 9.98124 23.8555 10.9212C23.4864 10.6778 23.059 10.5373 22.6174 10.5143C22.5719 10.5143 22.53 10.5143 22.481 10.5143C21.8402 10.515 21.224 10.7613 20.7593 11.2026C20.2946 11.6439 20.0168 12.2465 19.983 12.8865C19.9645 13.1944 20.0052 13.503 20.1028 13.7956C19.3992 14.1343 18.662 14.3983 17.9032 14.5831C17.7317 13.6556 17.4613 12.7492 17.0965 11.8793C16.9495 11.5363 16.7868 11.196 16.6127 10.867C16.928 10.4603 17.1112 9.96686 17.1377 9.45295C17.1546 9.12503 17.1068 8.79698 16.997 8.48755C16.8871 8.17812 16.7173 7.89337 16.4974 7.64959C16.2774 7.4058 16.0116 7.20776 15.715 7.06678C15.4185 6.9258 15.0971 6.84464 14.7692 6.82795C14.7239 6.82224 14.6783 6.8199 14.6327 6.82095C14.2556 6.82041 13.8833 6.90601 13.5442 7.0712C12.8552 6.48932 12.1068 5.98164 11.3114 5.55657C11.2754 5.59693 11.2368 5.63493 11.1959 5.67032C11.4119 5.47235 11.5601 5.21133 11.6193 4.92435C11.6785 4.63736 11.6458 4.33901 11.5257 4.07169L11.5187 4.05769V4.05069L11.5091 4.04019C13.4421 3.31324 15.5226 3.06581 17.5721 3.3191C19.6217 3.57239 21.5793 4.31886 23.2772 5.49454C24.9751 6.67022 26.3627 8.24005 27.321 10.0695C28.2794 11.899 28.7799 13.9335 28.7797 15.9988C28.7776 16.6285 28.7279 17.2571 28.631 17.8792L27.6046 16.817L27.588 16.8003L27.5784 16.7907C27.2109 16.368 26.6936 16.1045 26.1356 16.0557C25.8522 16.0738 25.5761 16.1528 25.326 16.2874C25.076 16.4219 24.8579 16.6088 24.6867 16.8353L21.7005 19.8803L21.6944 19.8873C21.5278 20.0586 21.4073 20.2693 21.3444 20.4998L21.3383 20.5252C21.3064 20.661 21.2891 20.7997 21.2866 20.9391C21.2832 20.9845 21.2832 21.0302 21.2866 21.0756C21.2999 21.4916 21.475 21.886 21.7747 22.1748C22.0745 22.4636 22.4751 22.624 22.8913 22.6217H23.0733C22.8723 23.9143 22.2305 25.0977 21.2569 25.9712C21.2088 26.0071 21.1055 26.0876 21.0285 26.1462L21.0005 26.1672L20.8938 26.2486C20.6453 26.4392 20.4687 26.7083 20.3926 27.012C20.3165 27.3158 20.3454 27.6364 20.4747 27.9216V27.9356L20.4799 27.9452L20.4843 27.9549C19.0515 28.4988 17.532 28.7787 15.9993 28.7809ZM9.91672 27.247C8.83313 26.6565 7.83987 25.9137 6.96727 25.0411C5.54395 23.6364 4.47539 21.9131 3.84993 20.0137C3.22447 18.1142 3.06009 16.0932 3.37037 14.1176L4.39668 15.1842L4.40981 15.1965C4.77697 15.6264 5.29884 15.8943 5.86222 15.942C6.14595 15.925 6.42265 15.8468 6.67334 15.7128C6.92404 15.5789 7.1428 15.3923 7.31463 15.1658L10.3008 12.1173H10.3069C10.4756 11.9404 10.5961 11.7232 10.6569 11.4865V11.4742C10.6909 11.34 10.7086 11.2022 10.7094 11.0638C10.7094 11.021 10.7094 10.9763 10.7094 10.9238C10.6953 10.5087 10.5204 10.1153 10.2216 9.8268C9.92285 9.53828 9.52361 9.37724 9.10827 9.3777H8.92365C9.12435 8.08855 9.7634 6.90804 10.733 6.0352C10.7829 5.99407 10.9273 5.88295 11.013 5.8182L10.9255 5.88907L10.8197 5.97657L10.8074 5.9862C10.8004 5.9932 10.7934 5.99757 10.7873 6.00282C10.7734 6.0163 10.7581 6.02832 10.7418 6.0387C10.5396 6.22008 10.3515 6.41665 10.1792 6.6267C10.9986 7.01796 11.7677 7.50684 12.4698 8.0827C12.2565 8.45321 12.1418 8.87222 12.1365 9.29971C12.1313 9.72721 12.2357 10.1489 12.4398 10.5245C12.6439 10.9002 12.941 11.2172 13.3025 11.4454C13.664 11.6735 14.078 11.8051 14.5049 11.8277C14.5469 11.8277 14.5924 11.8277 14.6344 11.8277C14.8943 11.8275 15.1527 11.7883 15.4009 11.7113C15.9041 12.6927 16.2599 13.7429 16.4569 14.8281C16.0317 14.8692 15.6222 14.8893 15.239 14.8893C13.1265 14.8917 11.0559 14.2995 9.26401 13.1805L8.21407 14.2523C8.86101 14.6755 9.54477 15.0396 10.2571 15.34C11.8334 16.0125 13.5304 16.3564 15.2443 16.3506C15.7076 16.3495 16.1705 16.3235 16.6311 16.2727C16.6389 16.4477 16.6477 16.67 16.6477 16.8703C16.6491 17.9901 16.4827 19.1038 16.1542 20.1743H16.0667H15.9976C15.5349 20.1748 15.0815 20.3035 14.6876 20.5462C14.2937 20.7889 13.9748 21.136 13.7663 21.5491C13.5578 21.9621 13.4679 22.4249 13.5065 22.8859C13.5452 23.347 13.7109 23.7883 13.9852 24.1608C12.8758 25.4834 11.4804 26.5365 9.90447 27.2409H9.91234H9.91672V27.247ZM15.9993 23.7225H15.9442C15.6673 23.7047 15.4085 23.5789 15.2233 23.3723C15.038 23.1656 14.9413 22.8946 14.9538 22.6173C14.9679 22.3512 15.0834 22.1006 15.2766 21.917C15.4697 21.7335 15.7259 21.6309 15.9923 21.6303C16.002 21.6295 16.0116 21.6295 16.0212 21.6303H16.051C16.1883 21.6371 16.323 21.6709 16.4473 21.7298C16.5715 21.7887 16.6829 21.8716 16.7751 21.9738C16.8672 22.0759 16.9382 22.1952 16.9841 22.3249C17.0299 22.4546 17.0497 22.592 17.0423 22.7293C17.0278 22.9966 16.9118 23.2483 16.7179 23.4329C16.5241 23.6175 16.267 23.7211 15.9993 23.7225ZM22.4836 14.0668H22.4591H22.4285C22.2912 14.0597 22.1566 14.0255 22.0326 13.9662C21.9086 13.9069 21.7974 13.8237 21.7057 13.7213C21.6139 13.6189 21.5432 13.4994 21.4977 13.3697C21.4523 13.2399 21.4328 13.1025 21.4406 12.9652C21.4543 12.6987 21.5698 12.4476 21.7632 12.2638C21.9566 12.08 22.2132 11.9774 22.4801 11.9773H22.5387C22.6764 11.9837 22.8114 12.0176 22.9359 12.0769C23.0603 12.1363 23.1716 12.2199 23.2632 12.323C23.4465 12.5311 23.5407 12.8029 23.5256 13.0798C23.5097 13.3459 23.3931 13.5959 23.1996 13.7792C23.0061 13.9625 22.7501 14.0653 22.4836 14.0668ZM14.6379 10.3717H14.6126C14.6029 10.3717 14.5933 10.3717 14.5828 10.3717C14.4457 10.3649 14.3113 10.331 14.1873 10.272C14.0634 10.2131 13.9523 10.1302 13.8605 10.0281C13.7687 9.92607 13.698 9.80686 13.6524 9.67737C13.6068 9.54787 13.5873 9.41064 13.595 9.27358C13.6092 9.00672 13.7247 8.75534 13.9178 8.57065C14.1109 8.38596 14.3672 8.28187 14.6344 8.27958H14.6931C14.9708 8.29764 15.2307 8.42318 15.4175 8.62958C15.5525 8.78001 15.6409 8.96632 15.6722 9.16598C15.7035 9.36564 15.6762 9.57009 15.5938 9.75458C15.5113 9.93908 15.3771 10.0957 15.2075 10.2056C15.0378 10.3154 14.84 10.3737 14.6379 10.3735V10.3717Z" fill="#5135FF"/>
<path d="M21.8036 27.6779C21.8114 27.6779 21.9917 27.6377 22.2953 27.5659C23.6494 27.2725 24.9004 26.6224 25.9187 25.6829C27.0559 24.578 27.7968 23.1288 28.0266 21.5599H29.5255C29.5569 21.5599 29.5882 21.5552 29.6182 21.5459C29.7262 21.515 29.8214 21.4504 29.8899 21.3614C29.9584 21.2724 29.9966 21.1638 29.9988 21.0515C29.9972 20.9558 29.972 20.8621 29.9253 20.7785C29.9108 20.7516 29.8925 20.7268 29.8711 20.705L26.8357 17.555C26.7298 17.4474 26.4148 17.1228 26.1357 17.1228C25.8566 17.1228 25.5678 17.4456 25.4654 17.5603L22.4563 20.6315C22.4148 20.6727 22.3846 20.724 22.3688 20.7803C22.3532 20.845 22.3452 20.9114 22.3452 20.978C22.3441 20.9987 22.3441 21.0194 22.3452 21.0401C22.3493 21.1808 22.4081 21.3143 22.509 21.4124C22.61 21.5104 22.7452 21.5652 22.8859 21.5651H24.1984C24.2273 22.5438 24.0422 23.5169 23.6561 24.4166C23.2699 25.3162 22.6921 26.1208 21.9628 26.774L21.9558 26.781C21.9156 26.816 21.7126 26.9718 21.5419 27.1039C21.4832 27.1491 21.4414 27.2129 21.4233 27.2848C21.4052 27.3567 21.4118 27.4326 21.4422 27.5003C21.4671 27.557 21.5081 27.6052 21.56 27.6391C21.6118 27.673 21.6725 27.691 21.7344 27.691C21.7559 27.6911 21.7773 27.689 21.7983 27.6849" fill="#5135FF"/>
<path d="M10.5523 4.50423C10.5273 4.44751 10.4864 4.39927 10.4345 4.3654C10.3826 4.33154 10.322 4.31349 10.26 4.31348C10.2386 4.31341 10.2172 4.31546 10.1961 4.3196C10.1883 4.3196 10.008 4.35898 9.70526 4.4316C8.35065 4.72474 7.09924 5.37522 6.08101 6.31548C4.94336 7.42008 4.20236 8.86947 3.97313 10.4385H2.47338C2.44192 10.4391 2.4107 10.4441 2.38063 10.4534C2.27265 10.4842 2.17741 10.5489 2.10891 10.6379C2.0404 10.7269 2.00223 10.8355 2 10.9477C2.00161 11.0434 2.02686 11.1372 2.0735 11.2207C2.08802 11.2477 2.10628 11.2724 2.12775 11.2942L5.164 14.4442C5.269 14.551 5.58488 14.8765 5.86401 14.8765C6.14313 14.8765 6.43188 14.5536 6.53426 14.439L9.53989 11.3765C9.58164 11.3355 9.61182 11.2842 9.62739 11.2277C9.64299 11.163 9.65092 11.0966 9.65101 11.03C9.65206 11.0093 9.65206 10.9886 9.65101 10.9679C9.64692 10.8273 9.58826 10.6939 9.48748 10.5959C9.3867 10.4979 9.25171 10.443 9.11114 10.4429H7.79863C7.76913 9.46402 7.95366 8.49054 8.33935 7.5904C8.72503 6.69026 9.30258 5.88517 10.0316 5.23135L10.0386 5.22523C10.0789 5.19023 10.2819 5.03448 10.4534 4.90235C10.5119 4.8569 10.5534 4.79313 10.5713 4.72126C10.5893 4.64939 10.5825 4.57358 10.5523 4.50598" fill="#5135FF"/>
<path opacity="0.75" d="M11.6033 28.0095C11.0159 27.796 10.4458 27.5377 9.89804 27.2368C11.4751 26.5327 12.8714 25.4791 13.9814 24.156C13.7066 23.7834 13.5404 23.3419 13.5015 22.8806C13.4626 22.4192 13.5524 21.9562 13.761 21.5428C13.9695 21.1295 14.2887 20.7821 14.6828 20.5393C15.077 20.2966 15.5308 20.1679 15.9938 20.1677H16.1268C16.1343 20.1685 16.142 20.1685 16.1495 20.1677C16.4772 19.097 16.6436 17.9834 16.643 16.8637C16.643 16.6843 16.6369 16.4901 16.6264 16.2652C16.1659 16.3172 15.703 16.3435 15.2396 16.3439C13.5259 16.3485 11.8291 16.0047 10.2524 15.3333C9.54142 15.0345 8.85882 14.6723 8.21289 14.2509L9.26283 13.1782C11.0559 14.2984 13.128 14.8915 15.2422 14.8897C15.6517 14.8897 16.0638 14.8669 16.4601 14.8284C16.2618 13.7431 15.9054 12.6927 15.4023 11.7108C15.1551 11.79 14.8972 11.8304 14.6376 11.8307C14.5956 11.8307 14.5501 11.8307 14.5081 11.8307C14.0798 11.8088 13.6643 11.6772 13.3014 11.4487C12.9384 11.2202 12.6403 10.9022 12.4354 10.5254C12.2305 10.1486 12.1259 9.72551 12.1314 9.29663C12.1369 8.86776 12.2524 8.44748 12.4669 8.07605C11.7645 7.49978 10.9947 7.01087 10.1745 6.62005C10.3464 6.40993 10.5342 6.21335 10.7362 6.03205C10.7633 6.01308 10.7893 5.99263 10.8141 5.9708C10.8789 5.92093 10.9698 5.85005 11.0346 5.7958L11.0486 5.7888L11.1098 5.7433C11.1807 5.68569 11.2471 5.6228 11.3085 5.55518C12.107 5.97984 12.8584 6.48783 13.5501 7.07068C13.8892 6.90586 14.2614 6.82029 14.6385 6.82043C14.684 6.82043 14.726 6.82043 14.775 6.82043C15.2328 6.84449 15.6752 6.99382 16.0539 7.25211C16.4327 7.51041 16.7332 7.86777 16.9228 8.28519C17.1124 8.70262 17.1837 9.16409 17.1289 9.61927C17.0742 10.0745 16.8955 10.5059 16.6124 10.8664C16.7874 11.1998 16.9519 11.5402 17.098 11.8814C17.4615 12.7492 17.7316 13.6532 17.9038 14.5782C18.6616 14.3941 19.3982 14.1316 20.1017 13.7951C20.0053 13.5019 19.9647 13.1932 19.9818 12.8851C20.0156 12.2462 20.2927 11.6445 20.7563 11.2036C21.22 10.7628 21.8348 10.5163 22.4745 10.5147C22.52 10.5147 22.562 10.5147 22.611 10.5147C23.0532 10.5352 23.4815 10.6749 23.8508 10.9189C24.661 9.97981 25.3113 8.91383 25.7757 7.76368C26.1371 8.19189 26.4703 8.64317 26.7731 9.11468C26.2546 10.1837 25.591 11.176 24.801 12.0634C24.9565 12.444 25.016 12.8569 24.9744 13.2659C24.9328 13.6748 24.7913 14.0673 24.5623 14.4087C24.3334 14.7501 24.024 15.03 23.6615 15.2237C23.2989 15.4175 22.8943 15.5191 22.4833 15.5197H22.3538C21.8454 15.4953 21.3567 15.3154 20.9539 15.0043C20.7133 15.1233 20.4683 15.2353 20.2224 15.3377C19.5294 15.6336 18.8107 15.8653 18.0753 16.0298C18.0919 16.3387 18.1015 16.6108 18.1015 16.8681C18.102 18.1627 17.9061 19.4498 17.5206 20.6857C17.642 20.7798 17.7548 20.8846 17.8574 20.9989C18.0784 21.2424 18.2488 21.5273 18.3586 21.8372C18.4684 22.1472 18.5154 22.4758 18.497 22.8041C18.4632 23.444 18.1856 24.0467 17.7211 24.4883C17.2567 24.9298 16.6407 25.1766 15.9999 25.178C15.957 25.178 15.9124 25.178 15.8704 25.178C15.6281 25.1661 15.3887 25.119 15.16 25.038C14.9045 25.3468 14.635 25.6443 14.3533 25.927C13.5359 26.7425 12.6127 27.4447 11.6086 28.0147L11.6033 28.0095ZM14.95 22.6177C14.9357 22.8951 15.0319 23.1669 15.2175 23.3735C15.4031 23.5802 15.6631 23.7048 15.9404 23.7202C15.9597 23.7202 15.9763 23.7202 15.9955 23.7202C16.2632 23.7186 16.5201 23.6148 16.7138 23.43C16.9075 23.2453 17.0233 22.9935 17.0376 22.7262C17.0521 22.4496 16.9563 22.1785 16.771 21.9726C16.5858 21.7667 16.3264 21.6428 16.0498 21.6281H15.992C15.7247 21.6282 15.4675 21.7309 15.2736 21.915C15.0797 22.0991 14.9639 22.3507 14.95 22.6177ZM21.4386 12.9612C21.4309 13.0983 21.4504 13.2356 21.4958 13.3652C21.5413 13.4948 21.6119 13.6141 21.7036 13.7164C21.7953 13.8187 21.9063 13.9018 22.0301 13.9611C22.154 14.0204 22.2884 14.0547 22.4255 14.0619C22.4448 14.0619 22.464 14.0619 22.4806 14.0619C22.7492 14.0624 23.0078 13.9598 23.2031 13.7754C23.3984 13.591 23.5156 13.3388 23.5306 13.0706C23.5454 12.7934 23.4512 12.5214 23.2681 12.3128C23.1763 12.2102 23.065 12.127 22.9405 12.0681C22.8161 12.0092 22.6812 11.9757 22.5436 11.9698H22.4745C22.2078 11.9713 21.9519 12.0748 21.7592 12.2592C21.5665 12.4436 21.4518 12.6948 21.4386 12.9612ZM13.5947 9.27043C13.5874 9.40737 13.6071 9.54441 13.6528 9.67371C13.6985 9.803 13.7693 9.92201 13.8611 10.0239C13.9528 10.1258 14.0638 10.2087 14.1875 10.2677C14.3113 10.3266 14.4456 10.3606 14.5825 10.3677C14.6018 10.3677 14.621 10.3677 14.6376 10.3677C14.9063 10.3694 15.1653 10.2675 15.3609 10.0832C15.5564 9.89894 15.6734 9.64639 15.6876 9.37806C15.6952 9.24056 15.6757 9.1029 15.63 8.97298C15.5843 8.84306 15.5134 8.72345 15.4214 8.62101C15.3294 8.51856 15.218 8.43531 15.0937 8.37603C14.9694 8.31675 14.8346 8.2826 14.6971 8.27555H14.6341C14.3668 8.27786 14.1104 8.38208 13.9172 8.56695C13.7241 8.75182 13.6087 9.00342 13.5947 9.27043Z" fill="#5135FF"/>
</svg>
