<svg width="32" height="32" viewBox="0 0 32 32" fill="none" xmlns="http://www.w3.org/2000/svg">
<path d="M1.45459 4.36368C1.45459 2.75703 2.75703 1.45459 4.36368 1.45459H24.7273C26.334 1.45459 27.6364 2.75703 27.6364 4.36368H1.45459Z" fill="#5135FF"/>
<path d="M28.5874 30.209L25.4271 27.0489C24.0192 28.05 22.2866 28.4856 20.5727 28.2694C18.8587 28.0533 17.2885 27.2011 16.1733 25.8818C15.0581 24.5625 14.4792 22.8724 14.5514 21.1465C14.6237 19.4205 15.3417 17.7847 16.5633 16.5632C17.7848 15.3417 19.4207 14.6237 21.1467 14.5514C22.8727 14.4792 24.5629 15.0581 25.8822 16.1732C27.2016 17.2884 28.0538 18.8586 28.2699 20.5724C28.4861 22.2863 28.0505 24.0189 27.0494 25.4267L30.2096 28.5869C30.4247 28.8021 30.5455 29.094 30.5454 29.3984C30.5453 29.7027 30.4243 29.9945 30.209 30.2096C29.9937 30.4247 29.7018 30.5455 29.3975 30.5454C29.0931 30.5453 28.8025 30.4243 28.5874 30.209ZM16.8458 21.4381C16.8468 22.3454 17.1167 23.2322 17.6214 23.9863C18.1261 24.7403 18.8431 25.3279 19.6816 25.6747C20.5201 26.0215 21.4426 26.112 22.3326 25.9347C23.2225 25.7575 24.0399 25.3204 24.6816 24.6788C25.3232 24.0372 25.7603 23.2198 25.9376 22.3299C26.1148 21.44 26.0243 20.5175 25.6775 19.679C25.3307 18.8405 24.7431 18.1236 23.989 17.6189C23.2349 17.1142 22.3481 16.8443 21.4407 16.8433C20.8371 16.8427 20.2393 16.9611 19.6816 17.1918C19.1238 17.4225 18.617 17.7609 18.1902 18.1877C17.7634 18.6145 17.425 19.1212 17.1943 19.679C16.9636 20.2367 16.8452 20.8345 16.8458 21.4381Z" fill="#5135FF"/>
<path opacity="0.4" d="M27.6364 16.4149C27.4003 16.1233 27.1439 15.8466 26.8665 15.5889L26.5867 15.3403C25.1539 14.1293 23.3433 13.4641 21.4752 13.4547L21.1009 13.4618C19.2266 13.5403 17.4439 14.276 16.0625 15.5335L15.7919 15.792C14.4655 17.1185 13.6514 18.8667 13.4858 20.7274L13.4617 21.101C13.3852 22.9285 13.9404 24.7202 15.0228 26.182H3.63641C2.43142 26.182 1.45459 25.2051 1.45459 24.0001V4.36377H27.6364V16.4149Z" fill="#5135FF"/>
<g opacity="0.75">
<path d="M9.45477 16.8731C9.85643 16.8731 10.182 17.1987 10.182 17.6004V22.5457C10.182 22.9473 9.85643 23.2729 9.45477 23.2729H8.00022C7.59856 23.2729 7.27295 22.9473 7.27295 22.5457V17.6004C7.27295 17.1987 7.59856 16.8731 8.00022 16.8731H9.45477Z" fill="#5135FF"/>
<path d="M15.2729 12.0727C15.6745 12.0727 16.0001 12.3984 16.0002 12.7999V15.5933L15.7921 15.7921C14.4656 17.1186 13.6515 18.8668 13.486 20.7275L13.4619 21.1011C13.4313 21.8315 13.5021 22.5562 13.6664 23.2566C13.3378 23.1867 13.0911 22.8952 13.0911 22.5457V12.7999C13.0913 12.3984 13.4168 12.0727 13.8184 12.0727H15.2729Z" fill="#5135FF"/>
<path d="M21.0911 7.27295C21.4928 7.27295 21.8184 7.59856 21.8184 8.00022V13.4633C21.7043 13.4578 21.5899 13.4553 21.4754 13.4548L21.1011 13.4619C20.3489 13.4934 19.6119 13.6323 18.9093 13.8667V8.00022C18.9093 7.59856 19.2349 7.27295 19.6366 7.27295H21.0911Z" fill="#5135FF"/>
</g>
</svg>
