<svg width="32" height="32" viewBox="0 0 32 32" fill="none" xmlns="http://www.w3.org/2000/svg">
<circle cx="6.00377" cy="26.4408" r="3.3944" fill="#5135FF"/>
<circle cx="26.6073" cy="26.4413" r="3.3944" fill="#5135FF"/>
<path opacity="0.45" d="M16.0664 10.1777C16.5497 10.1777 16.9414 10.5695 16.9414 11.0527V16L26.2285 16C26.2967 16 26.3634 16.0059 26.4277 16.0176H26.4307C26.4878 16.0059 26.5469 16 26.6074 16C27.0907 16 27.4824 16.3918 27.4824 16.875L27.4824 21.4248C27.4823 21.9079 27.0906 22.2998 26.6074 22.2998C26.1243 22.2998 25.7326 21.9079 25.7324 21.4248L25.7324 17.75L16.9414 17.75V21.4629C16.9414 21.9461 16.5497 22.3379 16.0664 22.3379C15.5834 22.3378 15.1917 21.9468 15.1914 21.4639V17.75H6.70508V21.4248C6.70485 21.9079 6.31319 22.2998 5.83008 22.2998C5.34698 22.2998 4.9553 21.9079 4.95508 21.4248L4.95508 16.874C4.95528 16.391 5.34696 15.999 5.83008 15.999C5.85109 15.999 5.87193 16.0005 5.89258 16.002C5.90941 16.0012 5.92631 16 5.94336 16H15.1914L15.1914 11.0527C15.1914 10.5695 15.5832 10.1778 16.0664 10.1777Z" fill="#5135FF"/>
<circle cx="16.3046" cy="26.4413" r="3.3944" fill="#5135FF"/>
<circle cx="15.9999" cy="6.09362" r="3.3944" fill="#5135FF"/>
</svg>
