<svg width="32" height="32" viewBox="0 0 32 32" fill="none" xmlns="http://www.w3.org/2000/svg">
<path d="M25.4216 16.7537L28.4354 19.4998L29.7539 18.2237C30.0051 17.9806 30.2813 17.4465 29.3772 16.5714L28.4354 15.6599C28.0587 15.2953 27.1545 15.0765 26.5518 15.6599L25.4216 16.7537Z" fill="#5135FF"/>
<path d="M27.4936 20.3999L24.4799 17.6653L16.192 25.6867C15.8781 26.1121 15.1372 27.3639 14.6852 28.9682C14.4968 29.4544 14.4968 30.3173 16.0037 29.8797C17.8873 29.3328 18.4523 29.1505 19.2058 28.4213L27.4936 20.3999Z" fill="#5135FF"/>
<path opacity="0.45" fill-rule="evenodd" clip-rule="evenodd" d="M13.5586 27.8843C14.0542 26.4457 14.7132 25.3336 15.066 24.8556L15.1351 24.7619L25.5785 14.6541C26.2209 14.0324 27.0187 13.8564 27.6883 13.9089C27.7588 13.9144 27.8295 13.9226 27.9 13.9333V13.7043C27.8966 13.5254 27.8364 13.3521 27.728 13.2097C27.6197 13.0672 27.4688 12.9629 27.2972 12.9119L24.6995 12.1997L24.6625 12.1118C24.3033 11.2686 24.1399 10.8831 23.7977 9.98437L25.1374 7.63338C25.2306 7.47851 25.2678 7.29634 25.2428 7.11731C25.2179 6.93829 25.1322 6.77327 25.0002 6.64982L23.2504 4.89852C23.0946 4.74102 22.883 4.65128 22.6615 4.64877C22.5212 4.64824 22.3838 4.68782 22.2653 4.76285L19.9143 6.10253L19.7786 6.04549C18.9816 5.70633 18.5807 5.53675 17.6989 5.19914L16.9882 2.60148C16.9364 2.43021 16.8317 2.27975 16.689 2.17173C16.5464 2.0637 16.3732 2.00367 16.1943 2.00024H13.7045C13.5238 1.99577 13.347 2.05284 13.203 2.16208C13.059 2.27133 12.9564 2.42627 12.9121 2.60148L12.2014 5.20068L12.0796 5.25155C11.2517 5.60304 10.8725 5.76337 9.98605 6.10253L7.63349 4.76285C7.50778 4.68882 7.36468 4.64945 7.21879 4.64877C7.11183 4.64866 7.00601 4.6708 6.90808 4.7138C6.81014 4.75679 6.72222 4.8197 6.64992 4.89852L4.89861 6.64982C4.7683 6.77438 4.68397 6.93937 4.65934 7.11795C4.6347 7.29653 4.67122 7.47819 4.76294 7.63338L6.10263 9.98437L6.04559 10.12C5.70643 10.9171 5.53685 11.3179 5.19923 12.1997L2.60155 12.9119C2.43027 12.9632 2.27973 13.0676 2.17166 13.21C2.06359 13.3525 2.00358 13.5256 2.00031 13.7043V16.1941C1.99527 16.3749 2.05212 16.552 2.16146 16.6961C2.27079 16.8402 2.42606 16.9426 2.60155 16.9865L5.20077 17.6987L5.25781 17.8344C5.59543 18.6314 5.76501 19.0322 6.10263 19.914L4.76294 22.265C4.66926 22.4197 4.63162 22.6018 4.65632 22.7809C4.68102 22.96 4.76657 23.1251 4.89861 23.2486L6.64992 25.0014C6.80581 25.1588 7.01734 25.2485 7.23883 25.2512C7.37842 25.252 7.51535 25.213 7.63349 25.1386L9.98605 23.7974L10.1078 23.8498C10.9357 24.2013 11.3134 24.3617 12.1999 24.7008L12.9121 27.2985C12.9634 27.4697 13.0678 27.6203 13.2102 27.7284C13.3134 27.8067 13.4327 27.8597 13.5586 27.8843ZM12.5102 11.3678C13.2095 10.9018 14.0312 10.6538 14.8715 10.655C15.9969 10.6566 17.0756 11.1048 17.8708 11.9011C18.666 12.6975 19.1126 13.7768 19.1126 14.9022C19.1126 15.7425 18.8634 16.5639 18.3964 17.2624C17.9294 17.961 17.2657 18.5054 16.4893 18.8267C15.7128 19.148 14.8586 19.2317 14.0345 19.0673C13.2104 18.9029 12.4537 18.4978 11.8599 17.9032C11.2662 17.3086 10.8622 16.5513 10.699 15.727C10.5358 14.9027 10.6208 14.0485 10.9432 13.2726C11.2656 12.4966 11.8109 11.8337 12.5102 11.3678Z" fill="#5135FF"/>
</svg>
