<svg width="32" height="32" viewBox="0 0 32 32" fill="none" xmlns="http://www.w3.org/2000/svg">
<g clip-path="url(#clip0_3912_14067)">
<path fill-rule="evenodd" clip-rule="evenodd" d="M23.3327 15.334C24.4299 15.334 25.4827 15.7823 26.2585 16.5807C27.0343 17.3792 27.4701 18.4626 27.4701 19.5918V21.4948C27.6009 21.5107 27.729 21.5461 27.8503 21.6003C28.0137 21.6733 28.162 21.779 28.2858 21.9108C28.4096 22.0425 28.5069 22.1981 28.5723 22.3685C28.6377 22.539 28.6697 22.7216 28.6667 22.9049V28.5814C28.6697 28.7646 28.6376 28.9467 28.5723 29.1172C28.5069 29.2877 28.4097 29.4437 28.2858 29.5755C28.162 29.7073 28.0137 29.8124 27.8503 29.8854C27.687 29.9583 27.5114 29.9976 27.3334 30.0007H19.334C19.1559 29.9976 18.9799 29.9584 18.8164 29.8854C18.6531 29.8125 18.5053 29.7072 18.3815 29.5755C18.2577 29.4437 18.1605 29.2877 18.0951 29.1172C18.0297 28.9467 17.9977 28.7647 18.0007 28.5814V22.9049C17.9977 22.7216 18.0297 22.539 18.0951 22.3685C18.1605 22.198 18.2578 22.0425 18.3815 21.9108C18.5054 21.779 18.653 21.6733 18.8164 21.6003C18.9375 21.5462 19.0655 21.5108 19.196 21.4948V19.5918C19.196 18.4626 19.6317 17.3792 20.4076 16.5807C21.1834 15.7824 22.2356 15.334 23.3327 15.334ZM23.3334 17.4629C22.7849 17.4629 22.259 17.6874 21.8711 18.0866C21.4832 18.4858 21.265 19.0273 21.265 19.5918L21.2644 21.485H25.4017V19.5918C25.4017 19.0273 25.1835 18.4858 24.7956 18.0866C24.4077 17.6874 23.8819 17.4629 23.3334 17.4629Z" fill="#5135FF"/>
<path opacity="0.45" d="M14.0008 2.00098C14.3112 2.00099 14.6176 2.07287 14.8953 2.21061L23.562 6.50553C23.8938 6.66998 24.1728 6.92326 24.368 7.23665C24.3826 7.26005 24.3955 7.28436 24.409 7.30827C24.4103 7.31059 24.4123 7.31311 24.4136 7.31543C24.4313 7.34708 24.4478 7.3793 24.4637 7.41178C24.467 7.41849 24.4702 7.42522 24.4735 7.43197C24.4812 7.4481 24.4897 7.46383 24.4969 7.48014C24.5023 7.49234 24.5067 7.50496 24.5119 7.51725C24.5183 7.53253 24.5241 7.54805 24.5301 7.56348C24.5398 7.58833 24.5494 7.61315 24.5581 7.63835C24.5635 7.65392 24.5687 7.66952 24.5737 7.68522C24.5792 7.70263 24.5856 7.71976 24.5907 7.7373C24.5937 7.74783 24.5956 7.75864 24.5985 7.76921C24.6011 7.77912 24.6031 7.7892 24.6056 7.79915C24.6134 7.82985 24.6209 7.86056 24.6271 7.8916C24.6417 7.96378 24.652 8.03677 24.6584 8.11035C24.6633 8.16667 24.6668 8.22346 24.6668 8.28027V13.4854C24.2328 13.3868 23.786 13.3343 23.3328 13.3343C21.6864 13.3343 20.1197 14.0082 18.9735 15.1878C17.8292 16.3655 17.1961 17.9507 17.1961 19.5921V20.2829C17.1009 20.364 17.0098 20.45 16.924 20.5413C16.6585 20.8239 16.4446 21.1491 16.2899 21.501L16.2274 21.6533C16.074 22.0534 15.9978 22.4782 16.0008 22.9053L16.0002 24.5745L14.8953 25.1227L14.7957 25.1689C14.5606 25.2711 14.3075 25.3278 14.0503 25.335H13.95C13.6928 25.3278 13.4398 25.2711 13.2046 25.1689L13.105 25.1227L4.43831 20.8265C4.10669 20.6621 3.82748 20.4092 3.63232 20.096C3.43715 19.7828 3.33385 19.4216 3.3335 19.0531V8.28027C3.33352 8.22347 3.33642 8.16665 3.34131 8.11035C3.34772 8.03679 3.35799 7.96376 3.37256 7.8916C3.37881 7.86056 3.38632 7.82984 3.39404 7.79915C3.39656 7.7892 3.39853 7.77912 3.4012 7.76921C3.40877 7.74101 3.41713 7.71306 3.42594 7.68522C3.43093 7.66953 3.43619 7.65392 3.44157 7.63835C3.45024 7.61315 3.45987 7.58832 3.46956 7.56348C3.4756 7.54806 3.48136 7.53253 3.48779 7.51725C3.49985 7.48851 3.51278 7.46016 3.5262 7.43197C3.52943 7.42522 3.53267 7.41849 3.53597 7.41178C3.56524 7.35209 3.59697 7.29344 3.63232 7.23665C3.82749 6.92324 4.10655 6.66998 4.43831 6.50553L13.105 2.21061C13.3828 2.07287 13.6891 2.00099 13.9995 2.00098H14.0008Z" fill="#5135FF"/>
<path d="M14.0262 2.00163C14.3279 2.00545 14.6251 2.07663 14.8953 2.21061L23.562 6.50553C23.8641 6.65526 24.1215 6.87928 24.3127 7.15462C24.1336 7.34126 23.9165 7.37884 23.6714 7.49512L14.9364 11.7913C14.6458 11.929 14.3248 12.001 13.9995 12.001C13.6742 12.001 13.3532 11.929 13.0627 11.7913L4.66683 7.33431C4.41311 7.21371 4.18797 7.00605 4.00537 6.80111C4.0119 6.79378 4.01892 6.78676 4.02555 6.77962C4.15072 6.67218 4.28893 6.57958 4.43831 6.50553L13.105 2.21061C13.3828 2.07287 13.6891 2.00099 13.9995 2.00098L14.0262 2.00163Z" fill="#5135FF"/>
</g>
<defs>
<clipPath id="clip0_3912_14067">
<rect width="32" height="32" fill="white" transform="translate(0 0.000976562)"/>
</clipPath>
</defs>
</svg>
