<svg width="32" height="32" viewBox="0 0 32 32" fill="none" xmlns="http://www.w3.org/2000/svg">
<g clip-path="url(#clip0_2601_20835)">
<path d="M18.9753 20.2463H28.4245C28.6349 20.2498 28.8425 20.2946 29.0356 20.3782C29.2286 20.4618 29.4033 20.5826 29.5495 20.7336C29.6958 20.8845 29.8109 21.0628 29.8881 21.2582C29.9653 21.4535 30.0032 21.6621 29.9997 21.8721V28.3744C30.0032 28.5844 29.9653 28.793 29.8881 28.9883C29.8109 29.1837 29.6958 29.3619 29.5495 29.5129C29.4033 29.6639 29.2286 29.7846 29.0356 29.8682C28.8425 29.9519 28.6349 29.9967 28.4245 30.0002H18.9753C18.7649 29.9967 18.5573 29.9519 18.3642 29.8682C18.1712 29.7846 17.9965 29.6639 17.8503 29.5129C17.704 29.3619 17.5889 29.1837 17.5117 28.9883C17.4345 28.793 17.3966 28.5844 17.4001 28.3744V21.8721C17.3966 21.6621 17.4345 21.4535 17.5117 21.2582C17.5889 21.0628 17.704 20.8845 17.8503 20.7336C17.9965 20.5826 18.1712 20.4618 18.3642 20.3782C18.5573 20.2946 18.7649 20.2498 18.9753 20.2463Z" fill="#5135FF"/>
<path d="M21.2555 21.3288H18.8123V18.0771C18.8123 16.7837 19.3272 15.5432 20.2436 14.6286C21.1601 13.714 22.4031 13.2002 23.6992 13.2002C24.9952 13.2002 26.2382 13.714 27.1547 14.6286C28.0711 15.5432 28.586 16.7837 28.586 18.0771V21.3288H26.1428V18.0771C26.1428 17.4305 25.8854 16.8103 25.4273 16.3531C24.9691 15.8958 24.3476 15.6389 23.6997 15.6389C23.0517 15.6389 22.4303 15.8958 21.9721 16.3531C21.5139 16.8103 21.2565 17.4305 21.2565 18.0771L21.2555 21.3288Z" fill="#5135FF"/>
<path d="M18.9753 20.2463H28.4245C28.6349 20.2498 28.8425 20.2946 29.0356 20.3782C29.2286 20.4618 29.4033 20.5826 29.5495 20.7336C29.6958 20.8845 29.8109 21.0628 29.8881 21.2582C29.9653 21.4535 30.0032 21.6621 29.9997 21.8721V28.3744C30.0032 28.5844 29.9653 28.793 29.8881 28.9883C29.8109 29.1837 29.6958 29.3619 29.5495 29.5129C29.4033 29.6639 29.2286 29.7846 29.0356 29.8682C28.8425 29.9519 28.6349 29.9967 28.4245 30.0002H18.9753C18.7649 29.9967 18.5573 29.9519 18.3642 29.8682C18.1712 29.7846 17.9965 29.6639 17.8503 29.5129C17.704 29.3619 17.5889 29.1837 17.5117 28.9883C17.4345 28.793 17.3966 28.5844 17.4001 28.3744V21.8721C17.3966 21.6621 17.4345 21.4535 17.5117 21.2582C17.5889 21.0628 17.704 20.8845 17.8503 20.7336C17.9965 20.5826 18.1712 20.4618 18.3642 20.3782C18.5573 20.2946 18.7649 20.2498 18.9753 20.2463Z" fill="#5135FF"/>
<path d="M21.2555 21.3288H18.8123V18.0771C18.8123 16.7837 19.3272 15.5432 20.2436 14.6286C21.1601 13.714 22.4031 13.2002 23.6992 13.2002C24.9952 13.2002 26.2382 13.714 27.1547 14.6286C28.0711 15.5432 28.586 16.7837 28.586 18.0771V21.3288H26.1428V18.0771C26.1428 17.4305 25.8854 16.8103 25.4273 16.3531C24.9691 15.8958 24.3476 15.6389 23.6997 15.6389C23.0517 15.6389 22.4303 15.8958 21.9721 16.3531C21.5139 16.8103 21.2565 17.4305 21.2565 18.0771L21.2555 21.3288Z" fill="#5135FF"/>
<path d="M18.9753 20.2463H28.4245C28.6349 20.2498 28.8425 20.2946 29.0356 20.3782C29.2286 20.4618 29.4033 20.5826 29.5495 20.7336C29.6958 20.8845 29.8109 21.0628 29.8881 21.2582C29.9653 21.4535 30.0032 21.6621 29.9997 21.8721V28.3744C30.0032 28.5844 29.9653 28.793 29.8881 28.9883C29.8109 29.1837 29.6958 29.3619 29.5495 29.5129C29.4033 29.6639 29.2286 29.7846 29.0356 29.8682C28.8425 29.9519 28.6349 29.9967 28.4245 30.0002H18.9753C18.7649 29.9967 18.5573 29.9519 18.3642 29.8682C18.1712 29.7846 17.9965 29.6639 17.8503 29.5129C17.704 29.3619 17.5889 29.1837 17.5117 28.9883C17.4345 28.793 17.3966 28.5844 17.4001 28.3744V21.8721C17.3966 21.6621 17.4345 21.4535 17.5117 21.2582C17.5889 21.0628 17.704 20.8845 17.8503 20.7336C17.9965 20.5826 18.1712 20.4618 18.3642 20.3782C18.5573 20.2946 18.7649 20.2498 18.9753 20.2463Z" fill="#5135FF"/>
<path d="M21.2555 21.3288H18.8123V18.0771C18.8123 16.7837 19.3272 15.5432 20.2436 14.6286C21.1601 13.714 22.4031 13.2002 23.6992 13.2002C24.9952 13.2002 26.2382 13.714 27.1547 14.6286C28.0711 15.5432 28.586 16.7837 28.586 18.0771V21.3288H26.1428V18.0771C26.1428 17.4305 25.8854 16.8103 25.4273 16.3531C24.9691 15.8958 24.3476 15.6389 23.6997 15.6389C23.0517 15.6389 22.4303 15.8958 21.9721 16.3531C21.5139 16.8103 21.2565 17.4305 21.2565 18.0771L21.2555 21.3288Z" fill="#5135FF"/>
<g opacity="0.45">
<path d="M11.239 6.44431C15.7348 4.76175 20.8027 6.46143 22.8519 10.7202C22.9711 10.9679 23.075 11.2193 23.1671 11.4721C22.452 11.5296 21.7558 11.7024 21.1033 11.9794C21.0502 11.8464 20.9934 11.7133 20.9303 11.5822C19.3903 8.38225 15.5341 7.0122 11.9725 8.36179L11.9329 8.37615L11.7756 8.4322C10.9938 8.7265 10.2604 9.24361 9.66676 9.83562C9.02266 10.4781 8.6262 11.1255 8.49508 11.5309C8.48169 11.5723 8.46593 11.6132 8.44723 11.6526L8.41032 11.7367C8.32434 11.9507 8.23747 12.2817 8.16696 12.678C8.08952 13.1133 8.04467 13.5509 8.03161 13.849L8.02819 14.1293C8.04494 15.6714 8.62475 19.2224 10.4433 22.638L10.4625 22.6749C10.74 23.2517 10.8337 23.429 11.0517 23.8042L11.3231 24.2677C11.9618 25.3591 12.6922 26.368 13.4641 27.3602L14.2475 28.3501C14.6058 28.7964 14.5228 29.4393 14.0609 29.7856C13.6275 30.1103 13.0147 30.0587 12.6445 29.6831L12.5741 29.6038C11.51 28.2785 10.4114 26.8696 9.47809 25.2746L9.19577 24.7906C9.04065 24.5233 8.93646 24.3358 8.7945 24.0537L8.54088 23.5369C6.58693 19.85 5.92334 15.9924 5.90973 14.1115L5.9152 13.7622C5.93222 13.3737 5.9871 12.8495 6.07926 12.3314C6.16407 11.8548 6.29469 11.3068 6.49284 10.8644C6.76318 10.0741 7.37212 9.18334 8.14508 8.41238C8.94754 7.61206 10.011 6.85572 11.239 6.44431Z" fill="#5135FF"/>
<path d="M17.5787 25.7408L17.9881 26.1345C18.5224 26.6375 18.9686 27.0377 19.4633 27.363C19.9469 27.6809 20.072 28.3177 19.7429 28.7848C19.4138 29.2514 18.7552 29.3723 18.2718 29.0549C17.962 28.8512 17.6747 28.6297 17.4009 28.4007C17.4009 28.392 17.4001 28.3833 17.4003 28.3747V25.5576C17.4578 25.6173 17.5162 25.6787 17.5787 25.7408Z" fill="#5135FF"/>
<path d="M18.3026 20.4081C18.9291 21.4249 19.6457 22.3253 20.4464 23.111L20.6583 23.314C20.9469 23.5851 21.1766 23.7796 21.4218 23.9751L22.2811 24.6423C22.529 24.8361 22.8555 25.0833 23.1247 25.2842C23.2584 25.3839 23.3773 25.4713 23.4617 25.5337C23.5035 25.5646 23.537 25.5898 23.5601 25.6068C23.5714 25.6152 23.5808 25.6216 23.5868 25.626C23.5896 25.628 23.5921 25.6303 23.5936 25.6314L23.5957 25.6328C24.0611 25.975 24.1515 26.6174 23.7973 27.067C23.4431 27.5164 22.7787 27.603 22.3132 27.2611L22.3105 27.2597C22.3089 27.2586 22.306 27.2565 22.303 27.2543C22.2967 27.2496 22.2874 27.2424 22.2756 27.2338C22.2517 27.2161 22.2161 27.1911 22.1731 27.1593C22.0869 27.0955 21.9665 27.0055 21.8299 26.9036C21.5585 26.701 21.2163 26.4427 20.9488 26.2337L20.0731 25.5535C19.7956 25.3319 19.5148 25.0944 19.181 24.781L18.9349 24.5445C18.384 24.0038 17.8731 23.4198 17.4003 22.7952V21.8723C17.3967 21.6625 17.4352 21.4537 17.5124 21.2585C17.5896 21.0632 17.7045 20.8844 17.8507 20.7335C17.981 20.5991 18.1344 20.4897 18.3026 20.4081Z" fill="#5135FF"/>
<path d="M10.0359 2.8657C14.4837 1.12287 19.8691 2.05858 23.4193 5.24871L23.757 5.56521C24.1968 5.99304 24.4779 6.31124 24.7906 6.6863L25.1214 7.08689C25.5991 7.66766 25.9724 8.29647 26.2918 8.90867L26.5946 9.51228C27.0085 10.3618 27.2507 11.2399 27.4587 12.0347C27.5233 12.282 27.5857 12.52 27.6473 12.7511C26.9013 12.1997 26.049 11.8123 25.1467 11.6109C25.0143 11.1784 24.8668 10.7717 24.6778 10.3839L24.3975 9.824C24.1145 9.28211 23.8194 8.79309 23.4631 8.35974L23.1445 7.97351C22.8543 7.62529 22.6257 7.36869 22.2538 7.00691L21.9742 6.74509C19.0288 4.10034 14.5138 3.31373 10.8214 4.76541C10.8174 4.76695 10.813 4.76869 10.809 4.77019L10.526 4.8823C7.63263 6.07392 5.36463 8.49905 4.48102 11.5138C4.48021 11.5175 4.47922 11.5219 4.47828 11.5261C4.47168 11.556 4.46142 11.6009 4.44957 11.656C4.4258 11.7667 4.39415 11.9221 4.35934 12.0983C4.28805 12.4593 4.21259 12.8812 4.17819 13.1962L4.14332 13.5776C4.00886 15.4895 4.41245 17.527 5.23639 19.7088L5.90153 21.3234L5.90358 21.3282C6.53395 22.8851 7.33937 24.5507 8.07262 25.6649C8.38629 26.1417 8.24009 26.7741 7.74655 27.0772C7.25292 27.3801 6.59879 27.2388 6.28502 26.7621C5.44846 25.4909 4.58668 23.6914 3.93346 22.0788L3.26354 20.4539L3.2526 20.4279L3.08034 19.9555C2.29817 17.7567 1.8799 15.5765 2.03034 13.4388L2.07203 12.9815C2.11616 12.5775 2.20514 12.0861 2.27848 11.7148C2.31586 11.5256 2.35003 11.3592 2.37555 11.2404C2.38828 11.1811 2.39894 11.1329 2.40631 11.0996C2.40994 11.0832 2.41317 11.0697 2.4152 11.0606L2.41862 11.0456L2.43366 10.9875L2.5403 10.6388C3.66386 7.16736 6.32433 4.38864 9.69479 3.00037L10.0236 2.87048L10.0263 2.8698C10.0295 2.86857 10.0327 2.86692 10.0359 2.8657Z" fill="#5135FF"/>
<path d="M13.7355 9.57039C14.3831 9.42168 14.8459 9.34024 15.5347 9.41043L15.8464 9.44939C17.5795 9.71251 18.9622 11.0696 19.5467 12.2843C19.6226 12.4418 19.689 12.5978 19.7511 12.7505C19.5769 12.8792 19.4085 13.0171 19.2466 13.1634L19.0081 13.3903C18.6653 13.7324 18.3647 14.1085 18.1078 14.51C17.9865 14.0425 17.8506 13.6142 17.6258 13.1469C17.2538 12.3739 16.3744 11.6016 15.517 11.4715L15.3447 11.4475C14.9691 11.4046 14.7518 11.44 14.225 11.561L14.0766 11.6007C13.3339 11.8241 12.6031 12.4339 12.2521 13.1285L12.1974 13.2461C11.938 13.8457 11.9164 14.6147 12.0819 15.5204C12.257 16.4779 12.6125 17.4485 12.9391 18.3259L13.1025 18.7476C13.7539 20.3765 14.6207 21.887 15.6503 23.3475V26.7395C15.4014 26.4687 15.1648 26.1868 14.8819 25.8235L14.5811 25.4318C13.1891 23.5945 11.9921 21.6502 11.1262 19.4852L10.9451 19.0177C10.6258 18.1601 10.2068 17.0313 9.99557 15.8759C9.79909 14.8008 9.75715 13.575 10.2437 12.4538L10.349 12.2309C10.942 11.0573 12.1232 10.0389 13.4648 9.64148L13.7355 9.57039Z" fill="#5135FF"/>
<path d="M20.4053 15.0166C20.5779 15.7414 20.7787 16.4922 21.2113 17.418L21.3036 17.606C21.2732 17.76 21.2571 17.9178 21.2571 18.077L21.2564 20.2461H23.1418C23.2765 20.3837 23.4144 20.5187 23.5581 20.6487L23.7344 20.8046C24.169 21.1794 24.4658 21.4376 24.7885 21.6796L25.1269 21.9202C25.3166 22.0489 25.6231 22.282 25.8898 22.4787C26.1102 22.6412 26.3272 22.798 26.5201 22.9251L26.7047 23.0413C27.2001 23.3409 27.3506 23.972 27.041 24.4509C26.7501 24.8999 26.1567 25.056 25.6752 24.8268L25.5815 24.7762C25.2575 24.5805 24.8995 24.3236 24.604 24.1056C24.2814 23.8678 24.054 23.6926 23.9101 23.595L23.6927 23.4446C23.2037 23.0953 22.8151 22.7556 22.3228 22.331L22.1068 22.1403C21.0417 21.1758 20.1891 20.05 19.5139 18.736L19.2774 18.2527C19.1195 17.9143 18.989 17.5946 18.8768 17.2923C19.0278 16.3686 19.4426 15.5034 20.0772 14.804L20.244 14.629C20.2627 14.6103 20.2825 14.5926 20.3014 14.5743C20.3366 14.7242 20.3708 14.8715 20.4053 15.0166Z" fill="#5135FF"/>
<path d="M26.1434 18.5863C26.7053 19.189 27.3475 19.7241 28.0623 20.1941L28.4779 20.4552C28.9743 20.7539 29.1259 21.3853 28.817 21.8648C28.527 22.3142 27.9351 22.4711 27.4532 22.2428L27.3582 22.1923C26.4327 21.6357 25.5901 20.9881 24.8487 20.2461H26.1434V18.5863Z" fill="#5135FF"/>
<path d="M14.6454 13.3616C15.1822 13.254 15.7086 13.5591 15.8704 14.0534L15.8977 14.1546L15.9804 14.5251C16.2666 15.7662 16.629 16.913 17.0646 17.967C17.064 18.0036 17.0626 18.0404 17.0626 18.077V19.1147C16.9395 19.202 16.8217 19.2971 16.7112 19.4005L16.5936 19.516C16.3258 19.7925 16.1077 20.1128 15.949 20.4628L15.9339 20.4976C15.058 18.8602 14.3839 17.0136 13.9126 14.9694L13.8237 14.5716L13.8066 14.4677C13.7511 13.952 14.1086 13.4695 14.6454 13.3616Z" fill="#5135FF"/>
<path d="M25.6964 13.6275C26.2344 13.8681 26.7302 14.2049 27.1551 14.629L27.3219 14.804C28.1336 15.6986 28.5865 16.8645 28.5866 18.077V18.2541C28.3955 18.216 28.2125 18.1273 28.0623 17.9861L27.754 17.6846C27.0972 17.0144 26.6538 16.1252 26.2521 15.2305L26.1632 15.022C25.9741 14.5595 25.8259 14.0866 25.6964 13.6275Z" fill="#5135FF"/>
<path d="M23.6674 13.3486C23.7467 13.7207 23.8192 14.0674 23.9286 14.497L23.9949 14.7445C24.0899 15.0823 24.2025 15.4073 24.3278 15.7214C24.1247 15.6675 23.914 15.6394 23.7003 15.6393C23.1646 15.6393 22.6467 15.8145 22.2244 16.1336C22.1241 15.8584 22.0332 15.5761 21.9516 15.2866L21.871 14.9851C21.7499 14.5098 21.6697 14.1215 21.5927 13.7601C21.5874 13.735 21.5817 13.71 21.5763 13.6849C22.2135 13.3781 22.9154 13.2111 23.6353 13.2016C23.6459 13.251 23.6571 13.3 23.6674 13.3486Z" fill="#5135FF"/>
</g>
</g>
<defs>
<clipPath id="clip0_2601_20835">
<rect width="28" height="28" fill="white" transform="translate(2 2)"/>
</clipPath>
</defs>
</svg>
