<svg width="32" height="32" viewBox="0 0 32 32" fill="none" xmlns="http://www.w3.org/2000/svg">
<path opacity="0.45" d="M14.0665 29.1012H13.9135H13.9084H13.7759C11.759 29.059 9.80617 28.3861 8.19141 27.1769C6.57665 25.9677 5.38151 24.2828 4.77344 22.3593C4.4867 21.427 4.33928 20.4583 4.33594 19.483V19.3617C4.33948 18.3366 4.50193 17.318 4.81787 16.3428C5.48524 14.2642 6.40608 12.2761 7.55994 10.4229C9.32526 7.53212 11.3411 4.80169 13.5837 2.26331C13.7368 2.08218 13.8574 2.00098 13.9729 2.00098C14.0753 2.00098 14.1778 2.06333 14.3134 2.21033C14.8008 2.73095 15.254 3.23732 15.6627 3.71594L15.6503 3.7356L15.631 3.7655C15.617 3.78825 15.6023 3.81107 15.5883 3.83557L14.3634 5.91199C14.169 6.23996 14.0865 6.62256 14.1288 7.00146C14.1712 7.38037 14.3356 7.73532 14.5975 8.01233L14.8603 8.29944C14.8603 8.33881 14.8603 8.37717 14.8603 8.41479C14.8603 8.45242 14.8603 8.48998 14.8603 8.52673C14.8603 8.59673 14.8603 8.67522 14.8603 8.75659L14.5975 9.04028C14.3362 9.31857 14.1724 9.67432 14.1301 10.0537C14.0879 10.4331 14.1698 10.8159 14.3634 11.1449L15.5883 13.2136V13.2239C15.7494 13.4873 15.975 13.7049 16.2441 13.8562C16.5133 14.0075 16.8168 14.0879 17.1255 14.0886C17.2554 14.0886 17.3847 14.0735 17.5114 14.045L17.9147 13.9579C18.0563 14.0477 18.2023 14.1305 18.3522 14.2057L18.4697 14.574C18.5857 14.9325 18.8125 15.2445 19.1174 15.4661C19.4222 15.6876 19.7894 15.8074 20.1663 15.807H22.6216C22.7443 15.8066 22.8665 15.7938 22.9865 15.7686C23.1659 16.3685 23.3132 16.9774 23.4283 17.5929H21.0096V21.7278H16.8718V28.674C15.9641 28.9593 15.0179 29.103 14.0665 29.1012Z" fill="#5135FF"/>
<g opacity="0.75">
<path d="M25.1485 17.5884H21.0115V21.7254H25.1485V17.5884Z" fill="#5135FF"/>
<path d="M21.0115 21.7254H16.8745V25.8624H21.0115V21.7254Z" fill="#5135FF"/>
</g>
<path d="M27.0756 9.30957C27.0197 9.24617 26.9772 9.17206 26.9507 9.09174C26.9242 9.01143 26.9144 8.92657 26.9216 8.84232C26.9278 8.73557 26.9313 8.62445 26.9313 8.52032C26.9313 8.4162 26.9313 8.30245 26.9216 8.1992C26.9144 8.11495 26.9242 8.03009 26.9507 7.94978C26.9772 7.86946 27.0197 7.79535 27.0756 7.73195L27.4694 7.31107C27.5802 7.19374 27.6498 7.04352 27.6676 6.88312C27.6855 6.72273 27.6506 6.56088 27.5683 6.42207L26.3433 4.34745C26.2585 4.20808 26.1323 4.09872 25.9823 4.0347C25.8323 3.97068 25.666 3.95521 25.5068 3.99045L24.9354 4.11382C24.8504 4.12995 24.763 4.12913 24.6783 4.11141C24.5937 4.09369 24.5133 4.05942 24.4419 4.01057C24.2593 3.89032 24.0696 3.78105 23.874 3.68332C23.7969 3.64904 23.7272 3.59985 23.6691 3.53859C23.611 3.47732 23.5656 3.40519 23.5354 3.32632L23.3604 2.78382C23.3084 2.62963 23.2089 2.49582 23.0763 2.40153C22.9437 2.30724 22.7846 2.25729 22.6219 2.25882H20.1719C20.0092 2.25743 19.8502 2.30743 19.7176 2.4017C19.585 2.49597 19.4855 2.6297 19.4334 2.78382L19.2584 3.32632C19.229 3.40615 19.1841 3.47931 19.1261 3.54152C19.0681 3.60372 18.9982 3.65372 18.9206 3.68857C18.7241 3.78422 18.5336 3.89175 18.3501 4.01057C18.2082 4.10685 18.0343 4.1439 17.8654 4.11382L17.2958 3.98957C17.1356 3.95409 16.9683 3.97 16.8176 4.03503C16.667 4.10006 16.5407 4.21091 16.4566 4.35182L15.2378 6.42382C15.1552 6.56272 15.1202 6.72475 15.1381 6.88533C15.1559 7.04591 15.2256 7.1963 15.3366 7.3137L15.7313 7.7337C15.7871 7.79717 15.8294 7.87131 15.8557 7.95163C15.882 8.03194 15.8918 8.11676 15.8844 8.20095C15.8783 8.3077 15.8748 8.41882 15.8748 8.52295C15.8748 8.62707 15.8748 8.74082 15.8844 8.84407C15.8921 8.92828 15.8824 9.01317 15.8561 9.09352C15.8298 9.17387 15.7873 9.24799 15.7313 9.31132L15.3358 9.7322C15.225 9.84956 15.1555 9.99985 15.1378 10.1603C15.1201 10.3207 15.1552 10.4825 15.2378 10.6212L16.4628 12.6932C16.5472 12.8329 16.6733 12.9426 16.8234 13.0068C16.9735 13.071 17.1399 13.0865 17.2993 13.0511L17.868 12.9277C18.0395 12.8959 18.2167 12.9334 18.3606 13.0318C18.5438 13.1507 18.734 13.2582 18.9303 13.3538C19.0078 13.3886 19.0776 13.4386 19.1354 13.5008C19.1933 13.563 19.2381 13.6362 19.2671 13.7161L19.4421 14.2577C19.4932 14.4129 19.592 14.548 19.7245 14.6436C19.857 14.7391 20.0164 14.7903 20.1798 14.7897H22.6298C22.7924 14.7908 22.9513 14.7407 23.0838 14.6465C23.2164 14.5523 23.3159 14.4187 23.3683 14.2647L23.5433 13.7222C23.5728 13.6425 23.6179 13.5694 23.6759 13.5073C23.7338 13.4451 23.8036 13.395 23.881 13.3599C24.077 13.2634 24.267 13.155 24.4498 13.0353C24.5937 12.9367 24.7709 12.8992 24.9424 12.9312L25.5111 13.0546C25.6703 13.0894 25.8365 13.0736 25.9863 13.0095C26.1361 12.9453 26.2621 12.836 26.3468 12.6967L27.5718 10.6247C27.6545 10.486 27.6899 10.3242 27.6725 10.1637C27.6551 10.0031 27.586 9.8526 27.4755 9.73482L27.0756 9.30957Z" fill="#5135FF"/>
<path d="M25.1486 21.725H21.0116V25.862H25.1486V21.725Z" fill="#5135FF"/>
<path d="M21.0116 25.862H16.8746V29.999H21.0116V25.862Z" fill="#5135FF"/>
<path d="M18.559 8.35157L18.2457 8.03832C18.1843 7.97717 18.1012 7.94291 18.0145 7.94308C17.9279 7.94324 17.8449 7.97782 17.7837 8.0392C17.7226 8.10058 17.6883 8.18374 17.6885 8.27038C17.6886 8.35702 17.7232 8.44005 17.7846 8.5012L18.6543 9.37095C18.7154 9.4317 18.7979 9.46581 18.884 9.46581C18.9701 9.46581 19.0527 9.4317 19.1137 9.37095L19.9835 8.5012C20.0404 8.43931 20.0713 8.35782 20.0696 8.27374C20.0679 8.18966 20.0338 8.10947 19.9745 8.04989C19.9151 7.99031 19.8351 7.95594 19.751 7.95395C19.6669 7.95196 19.5853 7.9825 19.5232 8.0392L19.21 8.35245C19.2142 8.01567 19.3053 7.68569 19.4744 7.39442C19.6435 7.10314 19.8849 6.86042 20.1752 6.68973C20.4656 6.51905 20.795 6.42617 21.1318 6.42007C21.4685 6.41398 21.8011 6.49488 22.0975 6.65495C22.1724 6.69707 22.2608 6.70796 22.3437 6.68525C22.4266 6.66255 22.4971 6.60809 22.5401 6.53368C22.5831 6.45927 22.595 6.37092 22.5732 6.2878C22.5514 6.20468 22.4978 6.1335 22.4238 6.0897L22.409 6.08182C22.0133 5.86851 21.5693 5.76094 21.12 5.76952C20.6706 5.7781 20.231 5.90255 19.8438 6.13082C19.4566 6.35909 19.1349 6.68345 18.9098 7.0725C18.6847 7.46155 18.5639 7.90213 18.559 8.35157Z" fill="white"/>
<path d="M23.5858 8.69107C23.5811 9.0276 23.4896 9.35721 23.3203 9.64811C23.1511 9.939 22.9097 10.1814 22.6195 10.3518C22.3292 10.5222 22 10.615 21.6635 10.6211C21.327 10.6273 20.9946 10.5466 20.6983 10.3868C20.6228 10.3508 20.5364 10.3451 20.4568 10.371C20.3773 10.3969 20.3107 10.4523 20.2708 10.5259C20.231 10.5994 20.2209 10.6855 20.2426 10.7662C20.2644 10.847 20.3163 10.9164 20.3877 10.9599C20.7833 11.1735 21.2272 11.2813 21.6766 11.2729C22.1261 11.2644 22.5657 11.1401 22.9529 10.9119C23.3402 10.6837 23.6619 10.3593 23.887 9.97023C24.1121 9.58116 24.2329 9.14054 24.2377 8.69107L24.551 9.00432C24.5804 9.03552 24.6157 9.06062 24.6548 9.07818C24.6939 9.09575 24.7361 9.10544 24.7789 9.1067C24.8218 9.10796 24.8645 9.10076 24.9046 9.08552C24.9447 9.07029 24.9813 9.0473 25.0125 9.01789C25.0437 8.98847 25.0688 8.9532 25.0864 8.91408C25.104 8.87497 25.1136 8.83277 25.1149 8.78991C25.1162 8.74705 25.109 8.70437 25.0937 8.66429C25.0785 8.62421 25.0555 8.58752 25.0261 8.55632L25.013 8.54232L24.138 7.67257C24.0768 7.61177 23.9941 7.57764 23.9078 7.57764C23.8216 7.57764 23.7389 7.61177 23.6777 7.67257L22.808 8.54232C22.7495 8.6017 22.716 8.6812 22.7142 8.76452C22.7125 8.84784 22.7427 8.92866 22.7986 8.99043C22.8546 9.05219 22.932 9.09022 23.0151 9.09671C23.0982 9.10319 23.1806 9.07765 23.2455 9.02532L23.2533 9.01832L23.2673 9.00432L23.5858 8.69107Z" fill="white"/>
</svg>
