<svg width="32" height="32" viewBox="0 0 32 32" fill="none" xmlns="http://www.w3.org/2000/svg">
<path opacity="0.75" d="M16.0075 32.0001C15.9212 32.0001 15.8358 31.9838 15.7555 31.9521L13.4065 31.0351C11.4861 30.2848 9.70944 29.209 8.15452 27.8551C6.52043 26.4301 5.2296 24.6542 4.37852 22.6601L3.90752 21.5511C3.32656 20.1902 2.91741 18.7622 2.68952 17.3001C2.22891 14.3098 1.99856 11.2886 2.00052 8.26311V6.97311C1.99281 6.67742 2.0716 6.38593 2.22721 6.13439C2.38283 5.88285 2.60849 5.68221 2.87652 5.55711L15.7265 0.0571064C15.813 0.0203881 15.906 0.00146484 16 0.00146484C16.094 0.00146484 16.187 0.0203881 16.2735 0.0571064L29.1235 5.55711C29.3921 5.68265 29.6182 5.88391 29.774 6.13618C29.9298 6.38844 30.0085 6.68072 30.0005 6.97711V9.01611C30.0008 11.9236 29.7556 14.8259 29.2675 17.6921C29.0637 18.9016 28.7197 20.0832 28.2425 21.2131L27.6225 22.6531C26.7781 24.6485 25.4922 26.4264 23.8615 27.8531C22.3076 29.2069 20.5319 30.2827 18.6125 31.0331L16.2595 31.9501C16.1794 31.9825 16.0939 31.9995 16.0075 32.0001ZM16.0005 3.00011C15.9266 2.99976 15.8534 3.01474 15.7855 3.04411L5.68852 7.51211C5.4765 7.61924 5.29927 7.7844 5.17747 7.98835C5.05567 8.19229 4.99431 8.42664 5.00052 8.66411V9.71511C5.0008 12.1738 5.18229 14.6291 5.54352 17.0611C5.72301 18.2456 6.04432 19.4043 6.50052 20.5121L6.87252 21.4121C7.53366 23.0235 8.5467 24.4667 9.83752 25.6361C11.053 26.7296 12.4486 27.6045 13.9625 28.2221L15.8085 28.9631C15.8723 28.9875 15.9402 28.9994 16.0085 28.9981C16.0768 28.9987 16.1445 28.9868 16.2085 28.9631L18.0545 28.2221C19.5693 27.6063 20.9652 26.7312 22.1795 25.6361C23.4682 24.4658 24.478 23.0213 25.1345 21.4091L25.6235 20.2371C25.9978 19.3176 26.2662 18.3584 26.4235 17.3781C26.809 15.0466 27.002 12.6873 27.0005 10.3241V8.66811C27.009 8.42957 26.9485 8.19364 26.8263 7.9886C26.7041 7.78357 26.5254 7.61813 26.3115 7.51211L16.2115 3.04511C16.145 3.01593 16.0732 3.00062 16.0005 3.00011Z" fill="#5135FF"/>
<path opacity="0.45" fill-rule="evenodd" clip-rule="evenodd" d="M16.2146 3.04505C16.1471 3.01502 16.074 2.99951 16.0001 2.99951C15.9262 2.99951 15.8532 3.01502 15.7856 3.04505L5.68765 7.51505C5.47485 7.62068 5.29689 7.78523 5.17492 7.9891C5.05295 8.19297 4.99211 8.42759 4.99965 8.66505V9.71505C4.99753 12.1741 5.17904 14.63 5.54265 17.062C5.72027 18.2464 6.04094 19.4049 6.49765 20.512L6.86965 21.412C7.5285 23.0233 8.54153 24.4656 9.83365 25.632C11.0487 26.7272 12.4452 27.6023 13.9606 28.218L15.8066 28.96C15.87 28.9866 15.938 29.0003 16.0066 29.0003C16.0753 29.0003 16.1433 28.9866 16.2066 28.96L18.0546 28.218C19.5697 27.6027 20.9656 26.7276 22.1796 25.632C23.4686 24.4636 24.4779 23.0199 25.1326 21.408L25.6206 20.237C25.9949 19.3168 26.2633 18.3569 26.4206 17.376C26.8064 15.0459 27 12.6879 26.9996 10.326V8.66805C27.0077 8.43022 26.9473 8.19509 26.8255 7.99066C26.7037 7.78623 26.5257 7.62114 26.3126 7.51505L16.2146 3.04505Z" fill="#5135FF"/>
<path d="M20.9996 17.9991V9.99907H22.7996V16.2237H25.4996V17.9991H20.9996ZM15.5996 17.8428C15.2228 17.7487 14.8672 17.5847 14.5516 17.3584C14.2481 17.1362 14.0011 16.8451 13.8306 16.5098C13.6436 16.1466 13.5546 15.7412 13.5726 15.3331H15.1926C15.1868 15.5454 15.2371 15.7558 15.3386 15.9424C15.4247 16.1142 15.5505 16.2626 15.7056 16.376C15.8688 16.4913 16.0518 16.5754 16.2456 16.6241C16.4555 16.6766 16.6712 16.7032 16.8876 16.7032C17.0492 16.7021 17.2106 16.6897 17.3706 16.6661C17.5371 16.6417 17.6991 16.5936 17.8516 16.5225C17.9968 16.4534 18.1246 16.3517 18.2256 16.2266C18.3286 16.0898 18.3812 15.9221 18.3746 15.751C18.3785 15.6574 18.3628 15.5638 18.3283 15.4766C18.2939 15.3894 18.2415 15.3108 18.1746 15.2452C18.025 15.1052 17.8488 14.9964 17.6566 14.9258C17.4206 14.8322 17.1779 14.7571 16.9306 14.7002C16.6579 14.6336 16.3829 14.5618 16.1056 14.4844C15.8229 14.4146 15.5447 14.3271 15.2726 14.2237C15.012 14.126 14.7668 13.9918 14.5446 13.8243C14.3304 13.6574 14.1539 13.4469 14.0266 13.2071C13.8869 12.9299 13.8182 12.6228 13.8266 12.3125C13.8183 11.9555 13.9046 11.6021 14.0766 11.2891C14.2412 11.0037 14.4661 10.7579 14.7356 10.5684C15.0135 10.3711 15.3249 10.2251 15.6546 10.1387C15.9886 10.0451 16.3337 9.99772 16.6806 9.99712C17.0681 9.99543 17.4543 10.0412 17.8306 10.1338C18.1815 10.215 18.5138 10.3629 18.8096 10.5684C19.0943 10.7653 19.3272 11.0277 19.4886 11.334C19.6809 11.6797 19.7824 12.0684 19.7836 12.4639H18.1156C18.109 12.2665 18.0591 12.0735 17.9696 11.8975C17.894 11.7532 17.782 11.6306 17.6446 11.543C17.5016 11.4542 17.3437 11.3922 17.1786 11.3594C16.99 11.3236 16.7985 11.3055 16.6066 11.3067C16.4702 11.3071 16.3342 11.3212 16.2006 11.3487C16.0691 11.375 15.9438 11.4266 15.8316 11.5C15.7224 11.5688 15.6293 11.6598 15.5586 11.7676C15.4829 11.8891 15.4456 12.0309 15.4516 12.1739C15.447 12.3009 15.4771 12.4269 15.5386 12.5381C15.6242 12.6535 15.7402 12.7426 15.8736 12.7959C16.1004 12.8925 16.3345 12.9714 16.5736 13.0313C16.8686 13.1073 17.2546 13.2091 17.7336 13.3311C17.8776 13.3581 18.0756 13.4104 18.3286 13.4844C18.5952 13.568 18.8487 13.6883 19.0816 13.8428C19.34 14.016 19.5602 14.2404 19.7286 14.502C19.9227 14.819 20.0177 15.1863 20.0016 15.5577C20.006 15.893 19.9378 16.2258 19.8016 16.5323C19.6655 16.8343 19.4599 17.0993 19.2016 17.3067C18.9064 17.5397 18.5688 17.7139 18.2076 17.8184C17.7607 17.9461 17.2973 18.0068 16.8326 17.9991C16.4162 18.001 16.0024 17.9483 15.5996 17.8428ZM8.59958 17.8428C8.22244 17.7497 7.86668 17.5856 7.55158 17.3584C7.24811 17.1362 7.00113 16.8451 6.83058 16.5098C6.64357 16.1466 6.55464 15.7412 6.57258 15.3331H8.19258C8.18736 15.5451 8.23696 15.7552 8.33658 15.9424C8.42344 16.1143 8.54992 16.2626 8.70558 16.376C8.86876 16.4913 9.05183 16.5754 9.24558 16.6241C9.45554 16.6766 9.67115 16.7032 9.88758 16.7032C10.0486 16.7022 10.2093 16.6898 10.3686 16.6661C10.5357 16.6416 10.6984 16.5936 10.8516 16.5225C10.9963 16.4527 11.124 16.3511 11.2256 16.2266C11.3286 16.0898 11.3812 15.9221 11.3746 15.751C11.3785 15.6574 11.3628 15.5638 11.3283 15.4766C11.2939 15.3894 11.2415 15.3108 11.1746 15.2452C11.025 15.1052 10.8488 14.9964 10.6566 14.9258C10.4201 14.8319 10.1767 14.7568 9.92858 14.7002C9.65858 14.6362 9.38358 14.5634 9.10558 14.4844C8.82292 14.4146 8.54474 14.3271 8.27258 14.2237C8.01197 14.126 7.76679 13.9918 7.54458 13.8243C7.33039 13.6574 7.15387 13.4469 7.02658 13.2071C6.88694 12.9299 6.81822 12.6228 6.82658 12.3125C6.81833 11.9555 6.90457 11.6021 7.07658 11.2891C7.24119 11.0037 7.46609 10.7579 7.73558 10.5684C8.01351 10.3711 8.32487 10.2251 8.65458 10.1387C8.98856 10.0451 9.33372 9.99772 9.68058 9.99712C10.0681 9.99543 10.4543 10.0412 10.8306 10.1338C11.1815 10.215 11.5138 10.3629 11.8096 10.5684C12.0943 10.7653 12.3272 11.0277 12.4886 11.334C12.6809 11.6797 12.7824 12.0684 12.7836 12.4639H11.1156C11.109 12.2665 11.0591 12.0735 10.9696 11.8975C10.894 11.7532 10.782 11.6306 10.6446 11.543C10.5016 11.4542 10.3437 11.3922 10.1786 11.3594C9.99001 11.3238 9.79847 11.3057 9.60658 11.3067C9.47018 11.3071 9.33418 11.3212 9.20058 11.3487C9.06907 11.375 8.94381 11.4266 8.83158 11.5C8.72242 11.5688 8.62932 11.6598 8.55858 11.7676C8.48291 11.8891 8.44562 12.0309 8.45158 12.1739C8.44609 12.3006 8.47512 12.4266 8.53558 12.5381C8.62213 12.6534 8.73871 12.7425 8.87258 12.7959C9.0994 12.8925 9.33346 12.9714 9.57258 13.0313C9.86758 13.1073 10.2536 13.2091 10.7326 13.3311C10.8766 13.3581 11.0746 13.4104 11.3276 13.4844C11.5942 13.568 11.8477 13.6883 12.0806 13.8428C12.339 14.016 12.5592 14.2404 12.7276 14.502C12.9205 14.8195 13.0155 15.1865 13.0006 15.5577C13.005 15.893 12.9368 16.2258 12.8006 16.5323C12.6638 16.8339 12.4583 17.0987 12.2006 17.3067C11.9054 17.5397 11.5678 17.7139 11.2066 17.8184C10.7597 17.9461 10.2963 18.0068 9.83158 17.9991C9.41554 18.0009 9.00205 17.9482 8.59958 17.8428Z" fill="#5135FF"/>
</svg>
