<svg width="32" height="32" viewBox="0 0 32 32" fill="none" xmlns="http://www.w3.org/2000/svg">
<g clip-path="url(#clip0_2601_19874)">
<path opacity="0.75" d="M17.8572 2C19.6087 2.00015 21.0288 3.43645 21.0288 5.20812C21.0288 6.60473 20.1457 7.79182 18.9142 8.23234V10.6126C22.6216 11.0549 25.4903 14.0743 25.4904 17.735C25.4904 18.7463 25.2481 19.6914 24.8471 20.5596L24.7322 20.442C24.6275 20.3508 24.509 20.2768 24.3814 20.2226L24.1848 20.157L23.978 20.1242C23.84 20.1128 23.7011 20.1226 23.5664 20.1549L23.3677 20.2185L23.3576 20.2247L22.5993 20.5507V20.5548C22.4045 20.6375 22.2319 20.7629 22.0986 20.926L21.9729 21.1106C21.83 21.3631 21.7756 21.6556 21.8147 21.9432L21.8127 21.9453L21.8391 22.1463L21.6384 22.1237H21.6363C21.4708 22.1044 21.3035 22.117 21.1437 22.1606L20.9815 22.216L20.9774 22.2201C20.8945 22.2555 20.8157 22.2996 20.7422 22.3513L20.5375 22.5277C20.4246 22.6492 20.3399 22.7932 20.28 22.9481H20.2759L19.9718 23.7172H19.9759C19.8683 23.9842 19.8463 24.2792 19.9211 24.558C19.9968 24.8392 20.1657 25.0838 20.3955 25.2593L20.3935 25.2635L20.5463 25.3776C19.3835 26.2331 18.2953 26.8454 17.5085 27.3204C17.2716 27.4634 16.9614 27.2918 16.9611 27.0128V25.2648C16.961 25.0716 16.8057 24.9164 16.6151 24.9046C13.4547 24.7086 11.1985 21.8524 10.6092 19.1097H8.16149C7.72605 20.3556 6.55183 21.2487 5.17106 21.2487C3.41959 21.2487 1.99966 19.8122 1.99951 18.0406C1.99951 16.2688 3.41949 14.8325 5.17106 14.8325C6.55195 14.8325 7.72613 15.7254 8.16149 16.9714H10.4984C10.6404 15.6889 11.1363 14.5077 11.8906 13.5172L8.65212 10.2414C8.23823 10.4417 7.77507 10.5552 7.28564 10.5552C5.53422 10.5552 4.11432 9.11866 4.1141 7.34709C4.1141 5.57533 5.53408 4.13897 7.28564 4.13897C9.03713 4.13907 10.4572 5.57539 10.4572 7.34709C10.4571 7.84213 10.345 8.31068 10.147 8.72932L13.4104 12.0304C14.3816 11.3208 15.5386 10.8315 16.8003 10.6427V8.23234C15.5686 7.79191 14.6857 6.60485 14.6857 5.20812C14.6857 3.43635 16.1057 2 17.8572 2ZM17.9735 14.2876C16.1684 14.2876 14.7047 15.6807 14.7046 17.3987C14.7046 19.1167 16.1684 20.5097 17.9735 20.5097C19.7784 20.5095 21.2417 19.1166 21.2417 17.3987C21.2416 15.6808 19.7783 14.2879 17.9735 14.2876Z" fill="#5135FF"/>
<path d="M27.704 29.5873L26.8722 29.9412C26.8122 29.9652 26.7463 29.9695 26.6837 29.9535C26.6212 29.9375 26.5653 29.9021 26.5242 29.8524L25.9183 29.0889C25.5745 29.1014 25.4262 29.1014 25.1018 29.1028H25.0546L24.4627 29.8843C24.4342 29.9259 24.3942 29.9582 24.3476 29.9773C24.2734 30.0075 24.1903 30.0075 24.1161 29.9773L23.2842 29.6428C23.2228 29.6205 23.1709 29.5776 23.1373 29.5215C23.1038 29.4654 23.0905 29.3994 23.0999 29.3346L23.2122 28.363C22.9737 28.1173 22.8614 28.0076 22.6354 27.7911L22.5966 27.7536L21.6262 27.8924C21.5617 27.9027 21.4957 27.8907 21.439 27.8584C21.3823 27.8261 21.3383 27.7755 21.3142 27.7148L20.9607 26.8819C20.9365 26.8219 20.9319 26.7557 20.9476 26.6928C20.9633 26.63 20.9985 26.5737 21.048 26.5321L21.8119 25.9269C21.7994 25.5841 21.7981 25.4272 21.7967 25.1135V25.0608L21.0175 24.4681C20.9647 24.4296 20.9266 24.3743 20.9095 24.3112C20.8923 24.2481 20.8972 24.181 20.9233 24.1211L21.256 23.2882C21.2688 23.2517 21.2891 23.2182 21.3156 23.19C21.3421 23.1618 21.3742 23.1395 21.4099 23.1244C21.4581 23.1044 21.5106 23.0973 21.5624 23.1036L22.5328 23.2147C22.7796 22.9759 22.8822 22.869 23.1082 22.6345L23.1415 22.5998L23.0111 21.6281C23.0009 21.5634 23.0131 21.4972 23.0456 21.4404C23.0782 21.3836 23.1291 21.3397 23.19 21.3158L24.0218 20.9618C24.082 20.937 24.1486 20.932 24.2119 20.9475C24.2751 20.9629 24.3319 20.9981 24.3739 21.0479L24.9784 21.8127C25.3194 21.8002 25.4775 21.8002 25.7908 21.7988H25.8449L26.4368 21.0174C26.4657 20.9753 26.5062 20.9425 26.5533 20.923C26.59 20.9077 26.6293 20.8999 26.6691 20.8999C26.7088 20.8999 26.7481 20.9077 26.7848 20.923L27.6166 21.2561C27.6778 21.2789 27.7293 21.3218 27.7629 21.3778C27.7964 21.4338 27.8098 21.4996 27.801 21.5643L27.6901 22.5359C27.9313 22.7858 28.0409 22.8912 28.2793 23.1217L28.3043 23.1453L29.2747 23.0065C29.3391 22.9997 29.404 23.0135 29.46 23.0459C29.516 23.0783 29.5604 23.1277 29.5867 23.1869L29.9402 24.0197C29.9641 24.0797 29.9684 24.1458 29.9525 24.2084C29.9365 24.271 29.9012 24.3269 29.8515 24.3681L29.0876 24.9747C29.1014 25.3259 29.1014 25.48 29.1028 25.8159V25.8409L29.882 26.4322C29.9344 26.471 29.9722 26.5263 29.9893 26.5893C30.0064 26.6523 30.0018 26.7192 29.9762 26.7792L29.6435 27.612C29.6307 27.6486 29.6104 27.682 29.5839 27.7102C29.5574 27.7384 29.5253 27.7608 29.4896 27.7758C29.4415 27.7961 29.3889 27.8033 29.3371 27.7967L28.3667 27.6842C28.1213 27.9216 28.0118 28.0354 27.7955 28.2617L27.758 28.2991L27.8967 29.2708C27.9072 29.336 27.895 29.4029 27.8622 29.4602C27.8294 29.5176 27.778 29.5619 27.7165 29.5859M24.8287 24.0336C24.5489 24.1523 24.3105 24.3514 24.1437 24.6057C23.977 24.8601 23.8893 25.1582 23.8918 25.4625C23.8943 25.7667 23.9869 26.0634 24.1578 26.3149C24.3288 26.5665 24.5704 26.7616 24.8521 26.8756C25.1339 26.9897 25.443 27.0175 25.7405 26.9555C26.0381 26.8936 26.3105 26.7447 26.5235 26.5277C26.7365 26.3107 26.8804 26.0353 26.937 25.7364C26.9937 25.4375 26.9605 25.1284 26.8417 24.8484C26.6817 24.474 26.38 24.1783 26.0027 24.0261C25.6254 23.8739 25.2032 23.8776 24.8287 24.0364" fill="#5135FF"/>
</g>
<defs>
<clipPath id="clip0_2601_19874">
<rect width="28" height="28" fill="white" transform="translate(1.99951 2)"/>
</clipPath>
</defs>
</svg>
