<svg width="32" height="32" viewBox="0 0 32 32" fill="none" xmlns="http://www.w3.org/2000/svg">
<g opacity="0.45">
<path d="M20.0087 21.4228H6.9328C6.44862 21.4228 5.98427 21.2305 5.64191 20.8881C5.29954 20.5457 5.1072 20.0814 5.1072 19.5972V6.93302C5.1072 6.44884 5.29954 5.98449 5.64191 5.64213C5.98427 5.29976 6.44862 5.10742 6.9328 5.10742H22.7042C23.1883 5.10742 23.6527 5.29976 23.9951 5.64213C24.3374 5.98449 24.5298 6.44884 24.5298 6.93302V14.8224C23.4787 15.0583 22.5388 15.644 21.8638 16.4835C21.1888 17.323 20.8186 18.3667 20.8138 19.4439V20.3567C20.4287 20.6048 20.1433 20.9807 20.0077 21.4182L20.0087 21.4228Z" fill="#5135FF"/>
<path d="M3.92969 25.3077H8.59136V26.5856C8.59136 27.0698 8.39902 27.5341 8.05665 27.8765C7.71429 28.2189 7.24994 28.4112 6.76576 28.4112H5.75529C5.27111 28.4112 4.80676 28.2189 4.46439 27.8765C4.12203 27.5341 3.92969 27.0698 3.92969 26.5856V25.3077Z" fill="#5135FF"/>
</g>
<path opacity="0.75" d="M19.9237 25.3074H3.8256C3.34142 25.3074 2.87707 25.1151 2.53471 24.7727C2.19234 24.4304 2 23.966 2 23.4818V3.8256C2 3.34142 2.19234 2.87707 2.53471 2.53471C2.87707 2.19234 3.34142 2 3.8256 2H25.8122C26.2964 2 26.7607 2.19234 27.1031 2.53471C27.4455 2.87707 27.6378 3.34142 27.6378 3.8256V15.2027C26.9874 14.879 26.2704 14.7114 25.5439 14.7135C25.2032 14.7135 24.8635 14.7502 24.5306 14.823V6.92912C24.5306 6.44494 24.3383 5.98059 23.9959 5.63823C23.6536 5.29586 23.1892 5.10352 22.705 5.10352H6.92912C6.44494 5.10352 5.98059 5.29586 5.63823 5.63823C5.29586 5.98059 5.10352 6.44494 5.10352 6.92912V19.5979C5.10352 20.0821 5.29586 20.5464 5.63823 20.8888C5.98059 21.2311 6.44494 21.4235 6.92912 21.4235H20.0086C19.9524 21.6084 19.9238 21.8007 19.9237 21.994V25.3074Z" fill="#5135FF"/>
<path d="M5.60285 7.72461H4.84249C4.33836 7.72461 3.92969 8.13328 3.92969 8.63741V11.1221C3.92969 11.6262 4.33836 12.0349 4.84249 12.0349H5.60285C6.10698 12.0349 6.51565 11.6262 6.51565 11.1221V8.63741C6.51565 8.13328 6.10698 7.72461 5.60285 7.72461Z" fill="#5135FF"/>
<path d="M5.60285 14.6217H4.84249C4.33836 14.6217 3.92969 15.0304 3.92969 15.5345V18.0192C3.92969 18.5233 4.33836 18.932 4.84249 18.932H5.60285C6.10698 18.932 6.51565 18.5233 6.51565 18.0192V15.5345C6.51565 15.0304 6.10698 14.6217 5.60285 14.6217Z" fill="#5135FF"/>
<path d="M12.4881 16.7613C11.797 16.761 11.1215 16.5557 10.547 16.1715C9.97252 15.7874 9.52483 15.2415 9.26052 14.6029C8.99621 13.9643 8.92715 13.2617 9.06206 12.5839C9.19698 11.9061 9.52982 11.2835 10.0185 10.7948C10.5072 10.3061 11.1298 9.97327 11.8076 9.83835C12.4854 9.70344 13.188 9.7725 13.8266 10.0368C14.4652 10.3011 15.0111 10.7488 15.3952 11.3233C15.7794 11.8978 15.9847 12.5733 15.985 13.2644C15.9838 14.1915 15.615 15.0802 14.9595 15.7358C14.3039 16.3913 13.4152 16.7601 12.4881 16.7613ZM11.7296 14.1525C11.8381 14.244 11.9616 14.316 12.0947 14.3652V15.2087H12.8706V14.3661C13.0079 14.3186 13.1354 14.2462 13.2466 14.1525L13.9769 14.5743L14.3666 13.8997L13.6364 13.478C13.6503 13.4073 13.6574 13.3355 13.6574 13.2635C13.6574 13.193 13.6504 13.1226 13.6364 13.0535L14.3666 12.6282L13.9732 11.9618L13.243 12.3826C13.1359 12.2898 13.0119 12.2186 12.8779 12.1727V11.3229H12.0947V12.1663C11.9614 12.2138 11.8377 12.2849 11.7296 12.3762L10.9993 11.9618L10.6105 12.6318L11.3407 13.0572C11.3268 13.1263 11.3197 13.1966 11.3197 13.2671C11.3196 13.3392 11.3266 13.411 11.3407 13.4816L10.6105 13.9034L10.9993 14.5779L11.7296 14.1525Z" fill="#5135FF"/>
<path d="M18.9973 16.0767V13.2918C18.6152 13.115 18.305 12.813 18.118 12.4359C17.931 12.0587 17.8783 11.629 17.9689 11.2179C18.0594 10.8067 18.2876 10.4388 18.6157 10.1751C18.9438 9.91135 19.3522 9.76758 19.7732 9.76758C20.1941 9.76758 20.6025 9.91135 20.9306 10.1751C21.2587 10.4388 21.4869 10.8067 21.5775 11.2179C21.668 11.629 21.6154 12.0587 21.4283 12.4359C21.2413 12.813 20.9311 13.115 20.549 13.2918V16.0767H18.9973Z" fill="#5135FF"/>
<path d="M22.0022 29.2338C21.7601 29.2338 21.528 29.1377 21.3568 28.9665C21.1856 28.7953 21.0894 28.5631 21.0894 28.321V22.1295C21.0894 21.8909 21.1828 21.6617 21.3496 21.4911C21.5165 21.3204 21.7435 21.222 21.9821 21.2167V19.4431C21.9821 18.9752 22.0743 18.5118 22.2534 18.0794C22.4325 17.6471 22.695 17.2542 23.0259 16.9233C23.3568 16.5924 23.7496 16.3299 24.182 16.1508C24.6143 15.9717 25.0777 15.8796 25.5457 15.8796C26.0137 15.8796 26.4771 15.9717 26.9094 16.1508C27.3418 16.3299 27.7346 16.5924 28.0655 16.9233C28.3964 17.2542 28.6589 17.6471 28.838 18.0794C29.0171 18.5118 29.1093 18.9752 29.1093 19.4431V21.2176C29.3476 21.2233 29.5741 21.322 29.7406 21.4926C29.9071 21.6632 30.0002 21.8921 30.0002 22.1304V28.3219C30.0002 28.564 29.904 28.7962 29.7328 28.9674C29.5616 29.1386 29.3295 29.2347 29.0874 29.2347L22.0022 29.2338ZM24.2075 24.3403C24.2084 24.6157 24.294 24.8842 24.4527 25.1092C24.6114 25.3343 24.8356 25.505 25.0948 25.5982V26.5675H25.9875V25.5982C26.2188 25.5168 26.4232 25.3733 26.5784 25.1835C26.7336 24.9937 26.8336 24.7648 26.8674 24.5219C26.9013 24.2791 26.8676 24.0316 26.7702 23.8066C26.6728 23.5816 26.5153 23.3878 26.3151 23.2463C26.1149 23.1047 25.8795 23.0211 25.6349 23.0044C25.3903 22.9877 25.1458 23.0386 24.9282 23.1515C24.7106 23.2645 24.5282 23.4352 24.4011 23.6448C24.274 23.8545 24.207 24.0951 24.2075 24.3403ZM27.3257 21.2167V19.4431C27.3366 19.2026 27.2986 18.9624 27.2141 18.7369C27.1295 18.5115 27.0002 18.3055 26.8338 18.1314C26.6675 17.9574 26.4675 17.8188 26.2462 17.7242C26.0248 17.6295 25.7865 17.5807 25.5457 17.5807C25.3049 17.5807 25.0667 17.6295 24.8453 17.7242C24.6239 17.8188 24.424 17.9574 24.2576 18.1314C24.0912 18.3055 23.9619 18.5115 23.8774 18.7369C23.7928 18.9624 23.7549 19.2026 23.7657 19.4431V21.2167H27.3257Z" fill="#5135FF"/>
</svg>
