<svg width="32" height="32" viewBox="0 0 32 32" fill="none" xmlns="http://www.w3.org/2000/svg">
<path d="M14.3276 22.6886L21.7203 16.7568V20.9686H30.0002V24.3759H21.7203V28.5858L14.3276 22.6886Z" fill="#5135FF"/>
<path opacity="0.75" d="M19.1997 13.4777L24.4615 9.07959V17.8495L19.1997 13.4777ZM24.4615 15.1704V11.7596H29.9996V15.1704H24.4615Z" fill="#5135FF"/>
<path opacity="0.45" d="M14.7235 1C14.6378 1 14.5531 1.0179 14.4748 1.05254L2.80129 6.05068C2.55679 6.16475 2.35082 6.34759 2.20858 6.57685C2.06635 6.80611 1.994 7.07185 2.00039 7.34158V9.20156C2.00025 11.8454 2.22377 14.4845 2.66857 17.0906C2.85413 18.1882 3.16747 19.2603 3.60219 20.2851L4.16673 21.5951C4.9322 23.4093 6.1001 25.0258 7.58216 26.3223C8.99658 27.5529 10.6119 28.5313 12.3576 29.215L14.4939 30.0477C14.6404 30.103 14.802 30.103 14.9485 30.0477L17.0848 29.215C18.8301 28.5317 20.4449 27.5532 21.8584 26.3223C23.3458 25.0299 24.5188 23.4154 25.2884 21.6015L25.7193 20.5924C26.2469 19.3571 26.618 18.0607 26.8238 16.7333C26.9044 16.2134 26.9772 15.6924 27.0423 15.1705H24.4598V17.8496L19.198 13.4778L24.4598 9.07965V11.7596H27.3568C27.4215 10.6789 27.4533 9.59597 27.452 8.51248V7.33976C27.4588 7.07111 27.3872 6.80628 27.246 6.57766C27.1047 6.34905 26.8999 6.16655 26.6565 6.0525L14.9721 1.05254C14.8938 1.0179 14.8091 1 14.7235 1Z" fill="#5135FF"/>
</svg>
