<svg width="32" height="32" viewBox="0 0 32 32" fill="none" xmlns="http://www.w3.org/2000/svg">
<path opacity="0.45" fill-rule="evenodd" clip-rule="evenodd" d="M16.2049 5.53936C16.0735 5.48623 15.9267 5.48623 15.7954 5.53936L6.15635 9.44973C5.95933 9.53347 5.7917 9.67397 5.67482 9.85333C5.55795 10.0327 5.49712 10.2428 5.5001 10.4569V11.3756C5.49813 13.529 5.67137 15.679 6.0181 17.8042C6.18931 18.8459 6.49582 19.8607 6.92985 20.823L7.2851 21.6105C7.93192 23.0415 8.9003 24.3039 10.1149 25.2995C11.2921 26.2679 12.6229 27.0327 14.0524 27.5622L15.8146 28.2115C15.9364 28.2575 16.0708 28.2575 16.1926 28.2115L17.9566 27.5622C19.3863 27.0332 20.7172 26.2684 21.8941 25.2995C23.1061 24.3012 24.071 23.0363 24.7134 21.6035L25.1789 20.5789C25.5361 19.7789 25.7941 18.9381 25.9471 18.0755C26.3148 16.0416 26.4999 13.9789 26.5001 11.912V10.4586C26.5033 10.2443 26.4426 10.0338 26.3257 9.85416C26.2088 9.67447 26.0411 9.53368 25.8439 9.44973L16.2049 5.53936Z" fill="#5135FF"/>
<path opacity="0.75" d="M6.11878 4.88024L4.88135 6.11768L25.8813 27.1176L27.1187 25.8802L6.11878 4.88024Z" fill="#5135FF"/>
<path d="M23 26.5C23 25.8078 23.2053 25.1311 23.5899 24.5555C23.9744 23.9799 24.5211 23.5313 25.1606 23.2664C25.8001 23.0015 26.5039 22.9322 27.1828 23.0672C27.8617 23.2023 28.4854 23.5356 28.9749 24.0251C29.4644 24.5146 29.7977 25.1382 29.9327 25.8172C30.0678 26.4961 29.9985 27.1998 29.7336 27.8394C29.4687 28.4789 29.0201 29.0256 28.4445 29.4101C27.8689 29.7947 27.1922 30 26.5 30C25.5717 30 24.6815 29.6312 24.0251 28.9749C23.3687 28.3185 23 27.4283 23 26.5ZM15.8031 24.7097L14.775 24.3125C13.7474 23.9041 12.7983 23.3209 11.9697 22.5887C11.2217 21.9333 10.6137 21.1336 10.1821 20.2376L10.0736 20.0162C9.70415 19.2518 9.45026 18.4368 9.32025 17.5977C9.10633 16.2177 8.99927 14.8232 9 13.4266V12.6505C8.99602 12.4579 9.04829 12.2684 9.15039 12.105C9.25249 11.9417 9.40001 11.8117 9.57487 11.7309L15.7795 9.04638C15.8496 9.01651 15.9251 9.00111 16.0013 9.00111C16.0775 9.00111 16.153 9.01651 16.2231 9.04638L22.4242 11.7379C22.5994 11.8174 22.7474 11.9466 22.8497 12.1095C22.9521 12.2723 23.0043 12.4617 23 12.654V13.7793C23.0031 15.1279 22.8921 16.4743 22.6684 17.8042C22.5468 18.5114 22.3265 19.198 22.0139 19.8439L21.8222 20.2332C21.3909 21.1287 20.7842 21.9285 20.0381 22.5852C19.2067 23.3185 18.2551 23.9028 17.225 24.3125L16.2039 24.715C16.0738 24.7666 15.9289 24.7666 15.7987 24.715L15.8031 24.7097ZM2 5.5C2 4.80777 2.20527 4.13108 2.58986 3.55551C2.97444 2.97993 3.52107 2.53133 4.16061 2.26642C4.80015 2.00152 5.50388 1.9322 6.18282 2.06725C6.86175 2.2023 7.48539 2.53564 7.97487 3.02513C8.46436 3.51461 8.7977 4.13825 8.93275 4.81719C9.0678 5.49612 8.99848 6.19985 8.73358 6.83939C8.46867 7.47893 8.02007 8.02556 7.4445 8.41014C6.86892 8.79473 6.19223 9 5.5 9C4.57174 9 3.6815 8.63125 3.02513 7.97487C2.36875 7.3185 2 6.42826 2 5.5Z" fill="#5135FF"/>
</svg>
