<svg width="32" height="32" viewBox="0 0 32 32" fill="none" xmlns="http://www.w3.org/2000/svg">
<path opacity="0.45" d="M18.746 23.2795H4.88333C4.87823 23.233 4.87619 23.1862 4.87721 23.1395V11.1467L14.8417 6.8741C15.0873 6.76839 15.3518 6.71387 15.6191 6.71387C15.8865 6.71387 16.151 6.76839 16.3966 6.8741L26.3523 11.1406V17.4765L25.7206 17.221C25.425 17.0987 25.093 17.0987 24.7975 17.221C24.5975 17.3045 24.4246 17.4417 24.2978 17.6174L23.8735 18.1704H23.8498H23.8288H23.7956C23.765 18.1704 23.7361 18.1704 23.7081 18.1704L23.2767 17.6235L23.2601 17.6007C23.1459 17.4648 23.0033 17.3558 22.8422 17.2812C22.6812 17.2067 22.5057 17.1685 22.3282 17.1694C22.1689 17.1684 22.0108 17.1981 21.8627 17.2569L20.9002 17.6699C20.6494 17.7708 20.4401 17.9536 20.3063 18.1885C20.1725 18.4235 20.1222 18.6968 20.1635 18.964L20.2588 19.6719C20.237 19.6955 20.2098 19.7235 20.1827 19.7497L20.1713 19.762L20.1547 19.7786L19.4363 19.699C19.388 19.691 19.3391 19.6875 19.2902 19.6885C19.1336 19.6892 18.9784 19.7189 18.8326 19.776L18.8238 19.7804C18.6748 19.8428 18.5401 19.9351 18.4282 20.0515C18.3162 20.168 18.2293 20.3062 18.1728 20.4576L17.794 21.4009C17.6902 21.647 17.6722 21.9209 17.743 22.1785C17.8138 22.4361 17.9692 22.6624 18.1842 22.821L18.7451 23.2515V23.2786L18.746 23.2795ZM6.11183 12.5249L8.14708 16.1202L9.85421 13.0962H11.97V12.5249H9.51996L8.14183 14.9626L6.76633 12.5257L6.11183 12.5249ZM20.503 12.496C20.199 12.4964 19.9005 12.5765 19.6371 12.7283C19.3738 12.88 19.1548 13.0981 19.002 13.3608C18.8491 13.6236 18.7678 13.9218 18.7661 14.2257C18.7644 14.5296 18.8424 14.8287 18.9922 15.0931C19.1421 15.3576 19.3586 15.5781 19.6203 15.7328C19.8819 15.8875 20.1795 15.971 20.4834 15.9748C20.7873 15.9787 21.087 15.9029 21.3524 15.7549C21.6179 15.6069 21.84 15.392 21.9966 15.1315L22.9766 13.4979L24.4641 15.9706L25.1203 15.9619L22.9757 12.3954L21.5075 14.8375V14.8427C21.4015 15.0191 21.2512 15.1646 21.0715 15.2647C20.8917 15.3647 20.6889 15.4159 20.4832 15.4131C20.2775 15.4103 20.0761 15.3535 19.8992 15.2486C19.7223 15.1436 19.576 14.994 19.4749 14.8148C19.3739 14.6356 19.3216 14.433 19.3234 14.2273C19.3251 14.0216 19.3808 13.8199 19.4848 13.6425C19.5888 13.465 19.7376 13.3179 19.9163 13.2159C20.0949 13.1139 20.2972 13.0606 20.503 13.0612C20.6923 13.0594 20.8792 13.1043 21.0471 13.1919C21.2149 13.2795 21.3586 13.4071 21.4655 13.5635L21.7735 13.0499C21.6108 12.8756 21.4141 12.7366 21.1956 12.6413C20.9771 12.5461 20.7413 12.4966 20.503 12.496ZM17.9943 12.5249V15.9627H18.564V12.5249H17.9943ZM14.8531 12.5249V12.5327C15.0351 12.6802 15.1721 12.8757 15.2486 13.0971H16.023V15.9627H16.5961V13.0971H17.7695V12.5249H14.8531ZM12.2088 12.5249V15.9627H12.7811V14.4866H13.9063L14.7122 15.9627H15.2845L14.4401 14.414C14.6523 14.3292 14.8283 14.173 14.9376 13.9723C15.0469 13.7716 15.0827 13.539 15.0389 13.3147C14.995 13.0905 14.8742 12.8885 14.6973 12.7438C14.5204 12.5991 14.2985 12.5208 14.07 12.5222H12.2088V12.5249ZM9.53658 13.9765V15.9627H11.97V15.3931H10.1088V14.5452H11.97V13.9765H9.53658ZM14.07 13.924H12.7811V13.1015H14.07C14.124 13.1015 14.1774 13.1121 14.2273 13.1328C14.2772 13.1534 14.3226 13.1837 14.3608 13.2219C14.3989 13.2601 14.4292 13.3055 14.4499 13.3553C14.4706 13.4052 14.4812 13.4587 14.4812 13.5127C14.4812 13.5667 14.4706 13.6202 14.4499 13.6701C14.4292 13.72 14.3989 13.7653 14.3608 13.8035C14.3226 13.8417 14.2772 13.872 14.2273 13.8927C14.1774 13.9133 14.124 13.924 14.07 13.924Z" fill="#5135FF"/>
<g opacity="0.75">
<path d="M3.34225 11.8018V8.56432C3.34217 8.39286 3.39247 8.22515 3.48689 8.08204C3.58132 7.93892 3.71571 7.8267 3.87337 7.75932L14.929 3.01682C15.1474 2.92293 15.3826 2.87451 15.6202 2.87451C15.8579 2.87451 16.0931 2.92293 16.3115 3.01682L27.3584 7.75757C27.5162 7.82501 27.6507 7.93737 27.7451 8.08065C27.8395 8.22394 27.8897 8.39184 27.8895 8.56344V11.8009L16.3964 6.87382C16.1507 6.76841 15.8862 6.71405 15.6189 6.71405C15.3516 6.71405 15.0871 6.76841 14.8415 6.87382L3.34225 11.8009V11.8018Z" fill="#5135FF"/>
<path d="M18.3056 26.3461H4.408C4.00118 26.3454 3.61126 26.1833 3.32385 25.8954C3.03643 25.6075 2.875 25.2173 2.875 24.8104V23.2783H18.7458C18.7458 23.3238 18.7458 23.3658 18.7458 23.4183L18.1997 23.8558L18.1796 23.8707C17.9837 24.0367 17.8451 24.2603 17.7837 24.5096C17.7223 24.7589 17.7411 25.0213 17.8375 25.2593L18.2505 26.2279C18.2671 26.2682 18.285 26.3077 18.3056 26.3461Z" fill="#5135FF"/>
</g>
<path d="M26.4622 28.0779L25.4997 28.4883C25.4301 28.5171 25.3532 28.5226 25.2802 28.5042C25.2072 28.4858 25.1421 28.4443 25.0946 28.3859L24.3946 27.5004C23.9947 27.5153 23.8232 27.5153 23.4452 27.5162H23.3901L22.6997 28.4218C22.6668 28.4699 22.6206 28.5073 22.5667 28.5294C22.4803 28.5646 22.3836 28.5646 22.2972 28.5294L21.3347 28.1409C21.2631 28.1151 21.2027 28.0654 21.1635 28.0003C21.1242 27.9351 21.1087 27.8584 21.1195 27.783L21.2498 26.6534C20.9733 26.369 20.8421 26.2413 20.5805 25.9893L20.5358 25.9455L19.4141 26.0995C19.3391 26.1115 19.2623 26.0975 19.1963 26.06C19.1303 26.0225 19.079 25.9636 19.051 25.893L18.6406 24.9305C18.6123 24.8608 18.607 24.784 18.6252 24.711C18.6434 24.6381 18.6844 24.5728 18.7421 24.5245L19.6293 23.8245C19.6145 23.4273 19.6136 23.2444 19.6118 22.8813V22.8218L18.7062 22.1332C18.645 22.0884 18.6009 22.0242 18.581 21.9511C18.5612 21.8779 18.5667 21.8002 18.5968 21.7307L18.9836 20.7682C18.9979 20.7259 19.0208 20.6872 19.0509 20.6543C19.0811 20.6215 19.1177 20.5953 19.1586 20.5774C19.2139 20.5547 19.2742 20.5466 19.3336 20.5538L20.4641 20.6833C20.7511 20.4059 20.871 20.2817 21.1326 20.0095L21.1702 19.9693L21.0197 18.8458C21.0079 18.7708 21.022 18.6941 21.0597 18.6282C21.0974 18.5623 21.1564 18.5113 21.2271 18.4835L22.1896 18.0723C22.2595 18.0435 22.3367 18.0377 22.4101 18.0556C22.4836 18.0735 22.5494 18.1143 22.5982 18.172L23.2982 19.0593C23.6946 19.0444 23.8775 19.0444 24.2415 19.0427H24.3036L24.9905 18.1362C25.0239 18.0875 25.0707 18.0495 25.1252 18.0268C25.1678 18.0091 25.2134 18 25.2595 18C25.3056 18 25.3513 18.0091 25.3938 18.0268L26.3563 18.4135C26.4277 18.4396 26.488 18.4894 26.5271 18.5545C26.5663 18.6196 26.582 18.6962 26.5716 18.7714L26.4421 19.9019C26.723 20.1924 26.8498 20.3149 27.1272 20.5818L27.1552 20.6098L28.2761 20.4558C28.3508 20.4479 28.4262 20.4638 28.4912 20.5014C28.5563 20.539 28.6078 20.5962 28.6383 20.6649L29.0487 21.6274C29.0775 21.697 29.083 21.774 29.0646 21.8469C29.0462 21.9199 29.0047 21.985 28.9463 22.0325L28.0591 22.7325C28.0748 23.1403 28.0757 23.3197 28.0766 23.709V23.7379L28.9822 24.4239C29.0435 24.4688 29.0877 24.5331 29.1077 24.6064C29.1277 24.6796 29.1224 24.7575 29.0925 24.8273L28.7145 25.7968C28.7001 25.839 28.6771 25.8777 28.647 25.9105C28.6168 25.9434 28.5802 25.9696 28.5395 25.9875C28.4842 26.0105 28.4238 26.0186 28.3645 26.0112L27.227 25.8773C26.9426 26.1529 26.8148 26.285 26.5628 26.5467L26.52 26.5913L26.674 27.713C26.6858 27.7887 26.6714 27.8661 26.6332 27.9325C26.595 27.9988 26.5353 28.0501 26.464 28.0779M23.1083 21.6318C22.7833 21.7696 22.5063 22.0007 22.3126 22.2959C22.1189 22.5911 22.0171 22.9371 22.0201 23.2902C22.023 23.6433 22.1306 23.9875 22.3293 24.2794C22.5279 24.5713 22.8087 24.7978 23.136 24.9301C23.4633 25.0624 23.8226 25.0947 24.1683 25.0229C24.514 24.951 24.8306 24.7783 25.0781 24.5264C25.3256 24.2746 25.4928 23.9551 25.5587 23.6082C25.6245 23.2613 25.5861 22.9027 25.4481 22.5777C25.2625 22.1431 24.9122 21.7998 24.4739 21.6231C24.0357 21.4463 23.5453 21.4503 23.1101 21.6344" fill="#5135FF"/>
</svg>
