<svg width="32" height="32" viewBox="0 0 32 32" fill="none" xmlns="http://www.w3.org/2000/svg">
<g opacity="0.75">
<path d="M16.007 5.09215C16.007 5.5754 16.4148 5.96214 16.9132 6.01427C21.2424 6.46708 24.6171 10.128 24.6171 14.5772C24.6171 15.0619 24.577 15.5373 24.5 16.0002H26.5084C26.7271 16.0002 26.9397 16.0251 27.1435 16.072C27.2085 15.583 27.2421 15.084 27.2421 14.5772C27.2421 8.67775 22.6951 3.8403 16.9145 3.37827C16.4149 3.33834 16.007 3.7339 16.007 4.21715V5.09215Z" fill="#5135FF"/>
<path d="M17.6142 25.6982C17.0893 25.7733 16.5527 25.8123 16.007 25.8123C9.80207 25.8123 4.77196 20.7821 4.77196 14.5772C4.77196 12.128 5.55682 9.8602 6.88735 8.01414L5.61154 8.11924C5.11792 8.1599 4.68229 7.79085 4.64166 7.29758L4.57239 6.45669C4.53226 5.96955 4.89282 5.54455 5.3803 5.50439L9.665 5.15142C10.3469 5.09524 10.9576 5.57235 11.068 6.2476L11.7621 10.4904C11.8411 10.9731 11.5159 11.4258 11.0336 11.5047L10.2009 11.6409C9.71243 11.7208 9.24896 11.3874 9.169 10.8986L8.96102 9.62726C7.975 11.0277 7.39696 12.734 7.39696 14.5772C7.39696 19.3324 11.2518 23.1873 16.007 23.1873C16.4922 23.1873 16.9679 23.1471 17.4312 23.07V24.7502C17.4312 25.0845 17.496 25.4041 17.6142 25.6982Z" fill="#5135FF"/>
</g>
<path d="M15.4784 10.3125C15.4784 9.82925 15.8848 9.4375 16.3861 9.4375C16.8874 9.4375 17.2938 9.82925 17.2938 10.3125V13.1421C17.9663 13.4643 18.4285 14.1332 18.4285 14.9063C18.4285 15.9936 17.5141 16.875 16.3861 16.875C15.2581 16.875 14.3438 15.9936 14.3438 14.9063C14.3438 14.1332 14.8059 13.4643 15.4784 13.1421V10.3125Z" fill="#5135FF"/>
<path fill-rule="evenodd" clip-rule="evenodd" d="M20.1543 16.0001C18.6503 16.0001 17.4311 17.1753 17.4311 18.6251V24.7501C17.4311 26.1998 18.6503 27.3751 20.1543 27.3751H26.5083C28.0123 27.3751 29.2315 26.1998 29.2315 24.7501V18.6251C29.2315 17.1753 28.0123 16.0001 26.5083 16.0001H20.1543ZM21.8063 22.6346L21.2479 23.4663C21.7435 23.8653 22.3574 24.1033 23.0016 24.147V25.0342H23.8334V24.1199C24.2565 24.0999 24.6563 23.9255 24.9503 23.6315C25.2444 23.3375 25.4104 22.9461 25.4157 22.5377C25.4157 21.5324 24.4325 21.2358 23.6416 20.9972L23.631 20.994L23.6188 20.9904C23.1066 20.8381 22.6691 20.708 22.6691 20.4172C22.6691 20.0986 22.9421 19.9302 23.4611 19.9302C23.9371 19.9451 24.3934 20.117 24.7538 20.4172L25.3876 19.6824C24.9624 19.2892 24.4173 19.0363 23.8334 18.9603V18.0589H23.0016V18.9603C22.5842 18.9672 22.1862 19.1334 21.895 19.4217C21.6038 19.7101 21.4433 20.0974 21.4473 20.4998C21.4473 21.5063 22.437 21.8118 23.228 22.0561L23.2291 22.0564H23.2335C23.7479 22.2146 24.1939 22.3521 24.1939 22.6474C24.1939 22.9988 23.8978 23.1587 23.2601 23.1587C22.725 23.1618 22.2076 22.9744 21.8063 22.6332V22.6346Z" fill="#5135FF"/>
</svg>
