<svg width="32" height="32" viewBox="0 0 32 32" fill="none" xmlns="http://www.w3.org/2000/svg">
<path d="M28.4386 29.0003H3.55594C3.14348 28.9991 2.74854 28.8354 2.4573 28.5451C2.16606 28.2549 2.00195 27.8614 2.00195 27.4515V18.1826C2.00195 17.7726 2.16606 17.3792 2.4573 17.0889C2.74854 16.7986 3.14348 16.6349 3.55594 16.6338H11.6044L12.234 18.957H19.769L20.3987 16.6338H28.4471C28.8596 16.6349 29.2545 16.7986 29.5457 17.0889C29.837 17.3792 30.0002 17.7726 30.0002 18.1826V27.4549C29.9998 27.6582 29.9594 27.8599 29.8806 28.0476C29.8019 28.2353 29.6865 28.4051 29.5415 28.5485C29.3965 28.692 29.2249 28.8057 29.0357 28.8831C28.8465 28.9605 28.6432 29.0007 28.4386 29.0003ZM12.4989 22.0443V25.1351H19.4974V22.0443H17.9442V23.5897H14.0528V22.0443H12.4989Z" fill="#5135FF"/>
<g opacity="0.75">
<path d="M28.4409 18.9513H26.5836V12.2875H27.6609C28.5182 12.2875 29.2157 12.7869 29.2157 13.3981L29.9949 17.8424C29.9966 18.4528 29.2973 18.9513 28.4409 18.9513ZM5.40784 18.9513H3.55484C2.69753 18.9513 2 18.452 2 17.839L2.77998 13.3947C2.77998 12.7861 3.47928 12.2841 4.33397 12.2841H5.4087L5.40784 18.9513Z" fill="#5135FF"/>
<path d="M18.791 9.40633H7.33559V6.52614C7.33605 6.13079 7.4943 5.75279 7.77556 5.47324C8.05682 5.19369 8.438 5.03555 8.83576 5.03509H18.2836C18.3261 5.03578 18.3688 5.02869 18.4083 5.01302C18.4478 4.99734 18.4839 4.97469 18.5142 4.94509L20.5859 3.36404C20.7024 3.2479 20.8408 3.15642 20.9934 3.09402C21.146 3.03162 21.3094 2.99959 21.4744 3.00062C21.4829 2.99979 21.4916 2.99979 21.5 3.00062H23.4667C23.7832 3.00108 24.086 3.12628 24.3099 3.34876C24.5337 3.57123 24.6597 3.87305 24.6601 4.18768V6.92522H22.6739C22.4758 6.9241 22.2788 6.96269 22.0955 7.0373C21.9122 7.11191 21.7455 7.22107 21.6051 7.35996L19.0738 9.29424C19.0366 9.3308 18.9925 9.35975 18.944 9.37916C18.8954 9.39856 18.8433 9.40709 18.791 9.40633Z" fill="#5135FF"/>
</g>
<path opacity="0.45" d="M7.03827 21.2713H24.9562C25.3876 21.2702 25.801 21.0993 26.1061 20.7961C26.4112 20.4929 26.5831 20.082 26.5842 19.6532V8.37587C26.5843 8.18542 26.5467 7.9968 26.4735 7.8208C26.4002 7.64479 26.2929 7.48485 26.1574 7.35009C26.022 7.21534 25.8612 7.10841 25.6842 7.03542C25.5072 6.96243 25.3175 6.92481 25.1259 6.92469H22.7184C22.5118 6.91771 22.3059 6.95317 22.1137 7.02888C21.9215 7.10458 21.747 7.21889 21.6013 7.36465L19.0704 9.29666C18.9948 9.36712 18.895 9.40629 18.7914 9.40622H7.24385C7.00252 9.40622 6.76356 9.45348 6.54062 9.54529C6.31767 9.63711 6.11511 9.77169 5.94451 9.94133C5.7739 10.111 5.6386 10.3124 5.54633 10.534C5.45406 10.7556 5.40663 10.9932 5.40674 11.233V19.648C5.4064 19.8611 5.44835 20.0722 5.5302 20.2692C5.61204 20.4662 5.73218 20.6452 5.88373 20.796C6.03527 20.9468 6.21526 21.0664 6.41337 21.1479C6.61148 21.2295 6.82383 21.2714 7.03827 21.2713Z" fill="#5135FF"/>
</svg>
