<svg width="32" height="32" viewBox="0 0 32 32" fill="none" xmlns="http://www.w3.org/2000/svg">
<g clip-path="url(#clip0_2601_19882)">
<path opacity="0.75" d="M15.9989 20.8668C16.1738 20.8668 16.2799 21.0617 16.1875 21.2065C15.299 22.5995 14.283 24.6747 6.74673 24.3702C6.69605 24.3681 6.64563 24.3487 6.60861 24.3148C6.03883 23.7938 4.70823 22.4468 3.89311 21.1751C3.80593 21.0389 3.90863 20.8668 4.0733 20.8668H15.9989ZM15.2817 11.8001C15.9996 11.8001 17.4355 12.3602 17.4355 14.6002C17.4355 16.8402 15.9996 17.4002 15.2817 17.4002H11.1351C10.9433 17.4002 10.8386 17.1655 10.9521 17.0147C11.546 16.226 12.1399 14.8086 12.7337 11.9704C12.7543 11.8723 12.8428 11.8001 12.9455 11.8001H15.2817ZM13.7378 7.9713C14.8845 6.53637 17.5109 4.17212 23.1084 4.79187C23.1535 4.79686 23.1973 4.81572 23.2304 4.84587C23.79 5.35507 24.9949 6.56227 25.8569 7.8838C25.9457 8.02002 25.8444 8.19479 25.6788 8.1962L13.9081 8.29669C13.7325 8.29805 13.6298 8.10644 13.7378 7.9713Z" fill="#5135FF"/>
<path d="M24.724 10.0218L24.7289 10.0228C26.8557 10.1117 27.6171 11.8737 27.7318 12.7669L27.7328 12.7689C28.355 16.4134 27.1883 20.033 24.5384 22.9095L29.557 27.5892L29.6576 27.6927C30.13 28.2325 30.1158 29.0449 29.6019 29.5687C29.0881 30.0922 28.2569 30.1422 27.683 29.7064L27.5707 29.6127L22.4154 24.8041C17.3748 28.4487 11.4159 27.2953 8.41147 25.5365C8.22248 25.4258 8.3222 25.1718 8.54136 25.1957C11.2495 25.49 16.987 25.6321 18.5687 17.9212L18.6468 17.4554C19.1076 14.9511 20.5949 10.0182 24.5599 10.0179L24.724 10.0218Z" fill="#5135FF"/>
<path d="M6.4769 5.19664C11.7057 0.598198 18.2782 1.78641 21.4847 3.66343C21.6738 3.77412 21.574 4.02809 21.3548 4.00425C18.6467 3.70983 12.9093 3.56782 11.3275 11.2787L11.2494 11.7445C10.7886 14.2488 9.30076 19.1829 5.3353 19.183L5.17222 19.1791L5.16733 19.1781C3.17662 19.095 2.3814 17.5462 2.1937 16.6156L2.16343 16.4339C1.4585 12.3101 3.04346 8.21641 6.4769 5.19664Z" fill="#5135FF"/>
</g>
<defs>
<clipPath id="clip0_2601_19882">
<rect width="28" height="28" fill="white" transform="translate(1.99951 2)"/>
</clipPath>
</defs>
</svg>
