<svg width="32" height="32" viewBox="0 0 32 32" fill="none" xmlns="http://www.w3.org/2000/svg">
<path opacity="0.6" d="M16 22.125C19.3827 22.125 22.125 19.3827 22.125 16C22.125 12.6173 19.3827 9.875 16 9.875C12.6173 9.875 9.875 12.6173 9.875 16C9.875 19.3827 12.6173 22.125 16 22.125Z" fill="#5135FF"/>
<g opacity="0.75">
<path d="M15.1597 14.6188L6.9374 11.6262L6.33887 13.2706L14.5612 16.2633L15.1597 14.6188Z" fill="#5135FF"/>
<path d="M15.1248 4.01367V26.7637H16.8748V4.01367H15.1248Z" fill="#5135FF"/>
<path d="M17.4375 16.263L25.6598 13.2703L25.0612 11.6258L16.8389 14.6185L17.4375 16.263Z" fill="#5135FF"/>
</g>
<path d="M16 12.5C16.6922 12.5 17.3689 12.7053 17.9445 13.0899C18.5201 13.4744 18.9687 14.0211 19.2336 14.6606C19.4985 15.3001 19.5678 16.0039 19.4327 16.6828C19.2977 17.3617 18.9644 17.9854 18.4749 18.4749C17.9854 18.9644 17.3617 19.2977 16.6828 19.4327C16.0039 19.5678 15.3001 19.4985 14.6606 19.2336C14.0211 18.9687 13.4744 18.5201 13.0899 17.9445C12.7053 17.3689 12.5 16.6922 12.5 16C12.5 15.0717 12.8687 14.1815 13.5251 13.5251C14.1815 12.8687 15.0717 12.5 16 12.5Z" fill="#5135FF"/>
<path d="M5.5 14.25C7.433 14.25 9 12.683 9 10.75C9 8.817 7.433 7.25 5.5 7.25C3.567 7.25 2 8.817 2 10.75C2 12.683 3.567 14.25 5.5 14.25Z" fill="#5135FF"/>
<path d="M26.5 14.25C28.433 14.25 30 12.683 30 10.75C30 8.817 28.433 7.25 26.5 7.25C24.567 7.25 23 8.817 23 10.75C23 12.683 24.567 14.25 26.5 14.25Z" fill="#5135FF"/>
<path d="M16 9C17.933 9 19.5 7.433 19.5 5.5C19.5 3.567 17.933 2 16 2C14.067 2 12.5 3.567 12.5 5.5C12.5 7.433 14.067 9 16 9Z" fill="#5135FF"/>
<path d="M16 30C17.933 30 19.5 28.433 19.5 26.5C19.5 24.567 17.933 23 16 23C14.067 23 12.5 24.567 12.5 26.5C12.5 28.433 14.067 30 16 30Z" fill="#5135FF"/>
</svg>
