<svg width="32" height="32" viewBox="0 0 32 32" fill="none" xmlns="http://www.w3.org/2000/svg">
<path opacity="0.45" d="M7.83275 16H3.75C3.28587 16 2.84075 15.8156 2.51256 15.4874C2.18437 15.1592 2 14.7141 2 14.25V3.75C2 3.28587 2.18437 2.84075 2.51256 2.51256C2.84075 2.18437 3.28587 2 3.75 2H14.25C14.7141 2 15.1592 2.18437 15.4874 2.51256C15.8156 2.84075 16 3.28587 16 3.75V7.83362H10.75C9.97666 7.83432 9.23518 8.14178 8.68827 8.68853C8.14135 9.23528 7.83368 9.97666 7.83275 10.75V16Z" fill="#5135FF"/>
<path opacity="0.75" d="M14.8327 23H10.75C10.2859 23 9.84075 22.8156 9.51256 22.4874C9.18437 22.1592 9 21.7141 9 21.25V10.75C9 10.2859 9.18437 9.84075 9.51256 9.51256C9.84075 9.18437 10.2859 9 10.75 9H21.25C21.7141 9 22.1592 9.18437 22.4874 9.51256C22.8156 9.84075 23 10.2859 23 10.75V14.8336H17.75C16.9767 14.8346 16.2354 15.1421 15.6885 15.6888C15.1417 16.2355 14.8339 16.9767 14.8327 17.75V23Z" fill="#5135FF"/>
<path d="M17.75 16H28.25C28.7141 16 29.1592 16.1844 29.4874 16.5126C29.8156 16.8408 30 17.2859 30 17.75V28.25C30 28.7141 29.8156 29.1592 29.4874 29.4874C29.1592 29.8156 28.7141 30 28.25 30H17.75C17.2859 30 16.8408 29.8156 16.5126 29.4874C16.1844 29.1592 16 28.7141 16 28.25V17.75C16 17.2859 16.1844 16.8408 16.5126 16.5126C16.8408 16.1844 17.2859 16 17.75 16Z" fill="#5135FF"/>
</svg>
