<svg width="32" height="32" viewBox="0 0 32 32" fill="none" xmlns="http://www.w3.org/2000/svg">
<path opacity="0.45" d="M27.6666 20.3112V15.4177C27.6657 14.7991 27.4195 14.2061 26.982 13.7688C26.5445 13.3314 25.9514 13.0854 25.3328 13.0847H6.66455C6.04601 13.0854 5.45302 13.3314 5.01565 13.7688C4.57828 14.2062 4.33226 14.7992 4.33157 15.4177V19.773C3.67698 19.2349 3.13599 18.572 2.7401 17.8228C2.3442 17.0736 2.10131 16.2531 2.02557 15.4092C1.94983 14.5652 2.04275 13.7146 2.29893 12.9069C2.55511 12.0992 2.96942 11.3505 3.51773 10.7045C4.06704 10.0542 4.73998 9.51954 5.49753 9.13137C6.25508 8.74321 7.08216 8.50932 7.9308 8.44327C8.56322 6.65479 9.7081 5.09203 11.2227 3.94982C12.7373 2.80761 14.5546 2.13649 16.448 2.02013C16.6624 2.00701 16.8742 2.00001 17.0877 2.00001C19.5372 1.99726 21.8968 2.92282 23.6911 4.59026C25.4943 6.25422 26.5882 8.5482 26.746 10.9968C27.6285 11.3697 28.394 11.9737 28.9621 12.7451C29.5302 13.5165 29.8798 14.4268 29.9741 15.3802C30.0684 16.3336 29.904 17.2947 29.498 18.1625C29.0921 19.0303 28.4589 19.7725 27.6666 20.3112Z" fill="#5135FF"/>
<path opacity="0.75" d="M6.66356 14.251H25.3327C25.642 14.251 25.9387 14.3739 26.1575 14.5926C26.3762 14.8114 26.4991 15.1081 26.4991 15.4175V28.836C26.4991 29.1454 26.3762 29.4421 26.1575 29.6609C25.9387 29.8796 25.642 30.0025 25.3327 30.0025H6.66356C6.35419 30.0025 6.05749 29.8796 5.83873 29.6609C5.61997 29.4421 5.49707 29.1454 5.49707 28.836V15.4175C5.49707 15.1081 5.61997 14.8114 5.83873 14.5926C6.05749 14.3739 6.35419 14.251 6.66356 14.251Z" fill="#5135FF"/>
<path d="M26.4991 21.252H5.49707V23.0022H26.4991V21.252Z" fill="#5135FF"/>
<path d="M18.1858 24.7523H24.3114C24.4275 24.7523 24.5388 24.7984 24.6208 24.8805C24.7029 24.9625 24.749 25.0738 24.749 25.1899V26.065C24.749 26.181 24.7029 26.2923 24.6208 26.3744C24.5388 26.4564 24.4275 26.5025 24.3114 26.5025H18.1858C18.0698 26.5025 17.9585 26.4564 17.8764 26.3744C17.7944 26.2923 17.7483 26.181 17.7483 26.065V25.1899C17.7483 25.0738 17.7944 24.9625 17.8764 24.8805C17.9585 24.7984 18.0698 24.7523 18.1858 24.7523Z" fill="#5135FF"/>
<path d="M18.1858 16.0015H24.3114C24.4275 16.0015 24.5388 16.0476 24.6208 16.1296C24.7029 16.2117 24.749 16.323 24.749 16.439V17.3141C24.749 17.4301 24.7029 17.5414 24.6208 17.6235C24.5388 17.7055 24.4275 17.7516 24.3114 17.7516H18.1858C18.0698 17.7516 17.9585 17.7055 17.8764 17.6235C17.7944 17.5414 17.7483 17.4301 17.7483 17.3141V16.439C17.7483 16.323 17.7944 16.2117 17.8764 16.1296C17.9585 16.0476 18.0698 16.0015 18.1858 16.0015Z" fill="#5135FF"/>
</svg>
