<svg width="32" height="32" viewBox="0 0 32 32" fill="none" xmlns="http://www.w3.org/2000/svg">
<path opacity="0.45" d="M3.75195 9.31307V26.6092H28.2441V9.31307C28.2441 9.14186 28.1938 8.97441 28.0996 8.83148C28.0053 8.68855 27.8712 8.5764 27.7138 8.50895L16.6888 3.78395C16.4711 3.69067 16.2367 3.64258 15.9998 3.64258C15.7629 3.64258 15.5285 3.69067 15.3107 3.78395L4.2857 8.50895C4.12769 8.57587 3.99284 8.68779 3.89793 8.83076C3.80303 8.97374 3.75226 9.14147 3.75195 9.31307Z" fill="#5135FF"/>
<path d="M2.00175 12.1762V8.48285C2.00164 8.28713 2.05906 8.0957 2.16687 7.93235C2.27468 7.769 2.42812 7.64095 2.60813 7.5641L15.2143 2.16185C15.4631 2.05507 15.731 2 16.0017 2C16.2725 2 16.5404 2.05507 16.7892 2.16185L29.3892 7.5641C29.569 7.64117 29.7222 7.76931 29.8298 7.93263C29.9375 8.09594 29.9948 8.28726 29.9947 8.48285V12.1736L16.8881 6.55698C16.608 6.43696 16.3065 6.37507 16.0017 6.37507C15.697 6.37507 15.3955 6.43696 15.1154 6.55698L2.00175 12.1762Z" fill="#5135FF"/>
<path d="M2 26.5009H30V28.2509C30 28.715 29.8156 29.1601 29.4874 29.4883C29.1592 29.8165 28.7141 30.0009 28.25 30.0009H3.75C3.28587 30.0009 2.84075 29.8165 2.51256 29.4883C2.18437 29.1601 2 28.715 2 28.2509V26.5009Z" fill="#5135FF"/>
<path d="M13.8866 22.9211C13.7534 22.8679 13.6321 22.789 13.5295 22.6888C13.4269 22.5886 13.3451 22.4692 13.2887 22.3373C13.2324 22.2055 13.2026 22.0638 13.2012 21.9204C13.1997 21.777 13.2266 21.6348 13.2802 21.5018L16.7802 12.7518C16.892 12.4875 17.103 12.2777 17.3678 12.1673C17.6327 12.0569 17.9302 12.0549 18.1966 12.1616C18.4629 12.2683 18.6768 12.4752 18.7922 12.7379C18.9076 13.0006 18.9153 13.2981 18.8137 13.5664L15.3137 22.3164C15.2323 22.5194 15.0921 22.6933 14.9111 22.8158C14.73 22.9384 14.5165 23.004 14.2978 23.0042C14.1566 23.0038 14.0169 22.9755 13.8866 22.9211ZM21.1316 21.8046C20.9276 21.5992 20.8131 21.3214 20.8131 21.0319C20.8131 20.7424 20.9276 20.4647 21.1316 20.2593L23.8598 17.5293L21.1316 14.8054C20.9325 14.599 20.8225 14.3226 20.8252 14.0358C20.828 13.749 20.9432 13.4748 21.1462 13.2722C21.3492 13.0696 21.6236 12.9548 21.9104 12.9525C22.1972 12.9503 22.4734 13.0608 22.6795 13.2602L26.1795 16.7602C26.3848 16.9658 26.5001 17.2444 26.5001 17.535C26.5001 17.8256 26.3848 18.1042 26.1795 18.3098L22.6795 21.8098C22.4741 22.0148 22.1957 22.13 21.9055 22.13C21.6153 22.13 21.337 22.0148 21.1316 21.8098V21.8046ZM9.31909 21.8046L5.81909 18.3046C5.71731 18.2028 5.63657 18.082 5.58148 17.9491C5.5264 17.8161 5.49805 17.6736 5.49805 17.5297C5.49805 17.3858 5.5264 17.2433 5.58148 17.1104C5.63657 16.9775 5.71731 16.8567 5.81909 16.7549L9.31909 13.2549C9.5247 13.0496 9.80347 12.9343 10.0941 12.9344C10.3847 12.9346 10.6633 13.0502 10.8687 13.2558C11.0741 13.4614 11.1894 13.7402 11.1892 14.0308C11.189 14.3214 11.0734 14.6001 10.8678 14.8054L8.14134 17.5293L10.867 20.2593C11.066 20.4658 11.176 20.7421 11.1733 21.0289C11.1706 21.3157 11.0553 21.5899 10.8524 21.7926C10.6494 21.9952 10.375 22.11 10.0882 22.1122C9.80139 22.1145 9.5252 22.004 9.31909 21.8046Z" fill="#5135FF"/>
</svg>
