<svg width="32" height="32" viewBox="0 0 32 32" fill="none" xmlns="http://www.w3.org/2000/svg">
<path fill-rule="evenodd" clip-rule="evenodd" d="M16.2477 2.04903C16.1699 2.01671 16.0858 2 16.0007 2C15.9156 2 15.8315 2.01671 15.7537 2.04903L4.12641 6.86274C3.88139 6.9765 3.67647 7.15369 3.53603 7.37324C3.39559 7.59279 3.32554 7.84545 3.33421 8.10116V9.2319C3.33178 11.8801 3.54077 14.5247 3.95945 17.1438C4.16397 18.4193 4.53321 19.6668 5.05908 20.8591L5.48742 21.8283C6.24605 23.5634 7.41249 25.1166 8.9003 26.3728C10.2993 27.5522 11.9074 28.4945 13.6523 29.1576L15.7779 29.9567C15.8508 29.9853 15.9291 30 16.0082 30C16.0872 30 16.1655 29.9853 16.2385 29.9567L18.3663 29.1576C20.1108 28.4949 21.7182 27.5525 23.116 26.3728C24.6002 25.1145 25.7624 23.5598 26.5163 21.824L27.0782 20.5629C27.5091 19.5719 27.8181 18.5383 27.9993 17.482C28.4435 14.9726 28.6665 12.4334 28.666 9.88988V8.10439C28.6753 7.84828 28.6057 7.59506 28.4654 7.37492C28.3252 7.15478 28.1202 6.97699 27.875 6.86274L16.2477 2.04903Z" fill="#5135FF"/>
<path opacity="0.45" d="M13.5077 18C14.7063 17.9994 16.1098 17.4364 17.0615 16.7059C18.0133 15.9754 18.4966 15.0645 18.8101 13.9045C19.1235 12.7446 19.0474 11.5134 18.5936 10.4011C18.1398 9.28875 17.3335 8.3571 16.2991 7.74992C15.2648 7.14274 14.0598 6.8938 12.8703 7.0415C11.6808 7.18921 10.4979 7.77581 9.64249 8.61765C8.78708 9.45948 8.2318 10.5602 8.06234 11.7499C7.89288 12.9396 8.06262 14.3635 8.64881 15.4118L8.03464 17.773C8.02696 17.8036 8.02732 17.8357 8.0357 17.8661C8.04407 17.8965 8.06017 17.9243 8.08242 17.9466C8.10467 17.9689 8.13232 17.985 8.16265 17.9934C8.19299 18.0018 8.22497 18.0022 8.25549 17.9945L10.6 17.3529C11.4159 17.8126 12.5719 18.0015 13.5077 18Z" fill="white"/>
<path d="M18.5 23C17.3006 22.9994 16.1347 22.6033 15.1823 21.8728C14.2299 21.1422 13.5037 20.0645 13.1901 18.9045C12.8764 17.7446 12.9525 16.5134 13.4066 15.4011C13.8607 14.2888 14.6676 13.3571 15.7027 12.7499C16.7378 12.1427 17.9436 11.8938 19.1339 12.0415C20.3242 12.1892 21.5079 12.7758 22.3639 13.6176C23.2199 14.4595 23.7756 15.5602 23.9451 16.7499C24.1147 17.9396 23.8888 19.1522 23.3022 20.2005L23.9729 22.773C23.9805 22.8036 23.9802 22.8357 23.9718 22.8661C23.9634 22.8965 23.9473 22.9243 23.925 22.9466C23.9028 22.9689 23.8751 22.985 23.8448 22.9934C23.8144 23.0018 23.7824 23.0022 23.7519 22.9945L21.1739 22.3011C20.3575 22.7608 19.4365 23.0015 18.5 23Z" fill="white"/>
</svg>
