<svg width="32" height="32" viewBox="0 0 32 32" fill="none" xmlns="http://www.w3.org/2000/svg">
<path d="M27.8431 29.9991H4.15337C3.58248 29.9984 3.03516 29.7713 2.63148 29.3677C2.22779 28.964 2.00069 28.4166 2 27.8458V14.8301H11.023C11.2963 14.8209 11.5685 14.8682 11.8227 14.9691C12.0768 15.07 12.3074 15.2223 12.5 15.4164L15.846 18.7676C15.9459 18.8618 16.078 18.9141 16.2153 18.9138H30V27.8431C30 28.1263 29.9442 28.4068 29.8358 28.6684C29.7274 28.93 29.5685 29.1677 29.3682 29.368C29.1679 29.5682 28.9301 29.727 28.6685 29.8353C28.4068 29.9436 28.1263 29.9992 27.8431 29.9991ZM10.4578 23.5801C10.2257 23.5801 10.0031 23.6723 9.83903 23.8364C9.67494 24.0005 9.58275 24.2231 9.58275 24.4551C9.58275 24.6872 9.67494 24.9097 9.83903 25.0738C10.0031 25.2379 10.2257 25.3301 10.4578 25.3301H20.9578C21.1898 25.3301 21.4124 25.2379 21.5765 25.0738C21.7406 24.9097 21.8328 24.6872 21.8328 24.4551C21.8328 24.2231 21.7406 24.0005 21.5765 23.8364C21.4124 23.6723 21.1898 23.5801 20.9578 23.5801H10.4578Z" fill="#5135FF"/>
<path d="M13.2542 14.425L5.91562 7.075C5.83585 6.99333 5.78179 6.89006 5.76012 6.77797C5.73845 6.66588 5.75013 6.5499 5.79372 6.44438C5.8373 6.33887 5.91087 6.24845 6.00533 6.18433C6.09978 6.1202 6.21097 6.08519 6.32512 6.08363H10.1664V2H17.1664V6.08363H21.0094C21.1237 6.08486 21.2351 6.11962 21.3298 6.18362C21.4245 6.24761 21.4984 6.33801 21.5422 6.44359C21.586 6.54917 21.5978 6.6653 21.5762 6.77754C21.5546 6.88979 21.5005 6.99322 21.4206 7.075L14.0794 14.425C14.0252 14.4793 13.9609 14.5223 13.8901 14.5517C13.8194 14.5811 13.7435 14.5962 13.6668 14.5962C13.5902 14.5962 13.5143 14.5811 13.4435 14.5517C13.3727 14.5223 13.3084 14.4793 13.2542 14.425Z" fill="#5135FF"/>
<path opacity="0.45" d="M24.5435 16.9591L20.5824 12.9971C20.5415 12.9564 20.5136 12.9045 20.5023 12.8479C20.4909 12.7914 20.4966 12.7327 20.5186 12.6794C20.5407 12.6261 20.578 12.5805 20.626 12.5484C20.6739 12.5164 20.7303 12.4992 20.788 12.4993H23.0018V10.1665H26.5018V12.4993H28.7129C28.7707 12.4991 28.8272 12.5161 28.8753 12.5481C28.9233 12.5801 28.9608 12.6256 28.983 12.679C29.0051 12.7324 29.0109 12.7911 28.9996 12.8477C28.9882 12.9044 28.9603 12.9564 28.9194 12.9971L24.9574 16.9591C24.9026 17.0138 24.8283 17.0446 24.7509 17.0446C24.6735 17.0446 24.5983 17.0138 24.5435 16.9591Z" fill="#5135FF"/>
</svg>
