<svg width="32" height="32" viewBox="0 0 32 32" fill="none" xmlns="http://www.w3.org/2000/svg">
<path opacity="0.75" d="M5.5 30C4.57174 30 3.6815 29.6313 3.02513 28.9749C2.36875 28.3185 2 27.4283 2 26.5V9C2 8.07174 2.36875 7.1815 3.02513 6.52513C3.6815 5.86875 4.57174 5.5 5.5 5.5H6.6655V3.75C6.6655 3.28587 6.84987 2.84075 7.17806 2.51256C7.50625 2.18437 7.95137 2 8.4155 2C8.87963 2 9.32475 2.18437 9.65294 2.51256C9.98113 2.84075 10.1655 3.28587 10.1655 3.75V5.5H21.8319V3.75C21.8319 3.28587 22.0162 2.84075 22.3444 2.51256C22.6726 2.18437 23.1177 2 23.5819 2C24.046 2 24.4911 2.18437 24.8193 2.51256C25.1475 2.84075 25.3319 3.28587 25.3319 3.75V5.5H26.5C27.4279 5.50116 28.3175 5.87028 28.9736 6.5264C29.6297 7.18253 29.9988 8.0721 30 9V26.5C30 27.4283 29.6313 28.3185 28.9749 28.9749C28.3185 29.6313 27.4283 30 26.5 30H5.5ZM3.75 9V26.5C3.75 26.9641 3.93437 27.4092 4.26256 27.7374C4.59075 28.0656 5.03587 28.25 5.5 28.25H26.5C26.9641 28.25 27.4092 28.0656 27.7374 27.7374C28.0656 27.4092 28.25 26.9641 28.25 26.5V9C28.25 8.53587 28.0656 8.09075 27.7374 7.76256C27.4092 7.43437 26.9641 7.25 26.5 7.25H25.3319V9C25.3319 9.46413 25.1475 9.90925 24.8193 10.2374C24.4911 10.5656 24.046 10.75 23.5819 10.75C23.1177 10.75 22.6726 10.5656 22.3444 10.2374C22.0162 9.90925 21.8319 9.46413 21.8319 9V7.25H10.1664V9C10.1664 9.46413 9.982 9.90925 9.65381 10.2374C9.32562 10.5656 8.8805 10.75 8.41638 10.75C7.95225 10.75 7.50713 10.5656 7.17894 10.2374C6.85075 9.90925 6.66638 9.46413 6.66638 9V7.25H5.5C5.03587 7.25 4.59075 7.43437 4.26256 7.76256C3.93437 8.09075 3.75 8.53587 3.75 9Z" fill="#5135FF"/>
<path opacity="0.45" d="M3.74902 13.6665H28.249V26.4993C28.249 26.9634 28.0646 27.4085 27.7365 27.7367C27.4083 28.0649 26.9632 28.2493 26.499 28.2493H5.49902C5.03489 28.2493 4.58978 28.0649 4.26159 27.7367C3.9334 27.4085 3.74902 26.9634 3.74902 26.4993V13.6665Z" fill="#5135FF"/>
<path d="M22.9993 24.7501C22.9227 24.7501 22.8468 24.735 22.776 24.7057C22.7053 24.6763 22.641 24.6333 22.5869 24.5791C22.5328 24.5249 22.4898 24.4606 22.4606 24.3898C22.4314 24.319 22.4164 24.2431 22.4165 24.1665V22.4165C22.4165 22.2617 22.478 22.1133 22.5874 22.0038C22.6969 21.8944 22.8453 21.8329 23.0001 21.8329H24.7501C24.9047 21.8333 25.0528 21.895 25.162 22.0044C25.2712 22.1138 25.3326 22.2619 25.3329 22.4165V24.1665C25.3329 24.3213 25.2714 24.4697 25.1619 24.5792C25.0525 24.6886 24.904 24.7501 24.7493 24.7501H22.9993ZM17.7493 24.7501C17.6727 24.7501 17.5968 24.735 17.526 24.7057C17.4553 24.6763 17.391 24.6333 17.3369 24.5791C17.2828 24.5249 17.2398 24.4606 17.2106 24.3898C17.1814 24.319 17.1664 24.2431 17.1665 24.1665V22.4165C17.1665 22.2619 17.2279 22.1136 17.3371 22.0041C17.4464 21.8947 17.5946 21.8331 17.7493 21.8329H19.4993C19.6539 21.8331 19.8021 21.8947 19.9114 22.0041C20.0206 22.1136 20.082 22.2619 20.082 22.4165V24.1665C20.0821 24.2432 20.0671 24.3191 20.0378 24.39C20.0085 24.4608 19.9655 24.5252 19.9113 24.5794C19.8571 24.6337 19.7927 24.6767 19.7219 24.7059C19.651 24.7352 19.5751 24.7502 19.4984 24.7501H17.7493ZM12.4993 24.7501C12.3446 24.7499 12.1964 24.6883 12.0871 24.5789C11.9779 24.4695 11.9165 24.3211 11.9165 24.1665V22.4165C11.9167 22.2618 11.9783 22.1135 12.0877 22.0041C12.1971 21.8947 12.3454 21.8331 12.5001 21.8329H14.2501C14.4047 21.8333 14.5528 21.895 14.662 22.0044C14.7712 22.1138 14.8326 22.2619 14.8329 22.4165V24.1665C14.8329 24.3213 14.7714 24.4697 14.6619 24.5792C14.5525 24.6886 14.404 24.7501 14.2493 24.7501H12.4993ZM7.24925 24.7501C7.17265 24.7501 7.0968 24.735 7.02604 24.7057C6.95528 24.6763 6.891 24.6333 6.83688 24.5791C6.78275 24.5249 6.73985 24.4606 6.71061 24.3898C6.68138 24.319 6.66639 24.2431 6.6665 24.1665V22.4165C6.6665 22.2617 6.72799 22.1133 6.83744 22.0038C6.9469 21.8944 7.09534 21.8329 7.25013 21.8329H9.00013C9.15476 21.8331 9.30299 21.8947 9.41225 22.0041C9.52151 22.1136 9.58288 22.2619 9.58288 22.4165V24.1665C9.58299 24.2432 9.56798 24.3191 9.53869 24.39C9.5094 24.4608 9.46641 24.5252 9.4122 24.5794C9.35798 24.6337 9.29359 24.6767 9.22273 24.7059C9.15187 24.7352 9.07593 24.7502 8.99925 24.7501H7.24925ZM17.7493 20.0838C17.5946 20.0835 17.4464 20.0219 17.3371 19.9125C17.2279 19.8031 17.1665 19.6548 17.1665 19.5001V17.7501C17.1664 17.6736 17.1813 17.5978 17.2105 17.5271C17.2397 17.4563 17.2825 17.392 17.3366 17.3378C17.3906 17.2836 17.4548 17.2406 17.5254 17.2112C17.5961 17.1818 17.6719 17.1666 17.7484 17.1665H19.4984C19.5751 17.1664 19.651 17.1814 19.7219 17.2107C19.7927 17.24 19.8571 17.283 19.9113 17.3372C19.9655 17.3914 20.0085 17.4558 20.0378 17.5266C20.0671 17.5975 20.0821 17.6735 20.082 17.7501V19.5001C20.082 19.6549 20.0205 19.8034 19.9111 19.9128C19.8016 20.0223 19.6532 20.0838 19.4984 20.0838H17.7493ZM12.4993 20.0838C12.3447 20.0833 12.1966 20.0216 12.0874 19.9123C11.9782 19.8029 11.9167 19.6547 11.9165 19.5001V17.7501C11.9165 17.5955 11.9779 17.4472 12.0871 17.3378C12.1964 17.2283 12.3446 17.1667 12.4993 17.1665H14.2493C14.404 17.1665 14.5525 17.228 14.6619 17.3374C14.7714 17.4469 14.8329 17.5953 14.8329 17.7501V19.5001C14.8326 19.6548 14.7711 19.8032 14.6617 19.9126C14.5523 20.022 14.404 20.0835 14.2493 20.0838H12.4993ZM7.24925 20.0838C7.09462 20.0835 6.9464 20.0219 6.83713 19.9125C6.72787 19.8031 6.6665 19.6548 6.6665 19.5001V17.7501C6.66639 17.6735 6.68141 17.5975 6.7107 17.5266C6.73998 17.4558 6.78297 17.3914 6.83719 17.3372C6.8914 17.283 6.95579 17.24 7.02665 17.2107C7.09751 17.1814 7.17345 17.1664 7.25013 17.1665H9.00013C9.0768 17.1664 9.15275 17.1814 9.22361 17.2107C9.29447 17.24 9.35885 17.283 9.41307 17.3372C9.46729 17.3914 9.51027 17.4558 9.53956 17.5266C9.56885 17.5975 9.58387 17.6735 9.58375 17.7501V19.5001C9.58375 19.6549 9.52227 19.8034 9.41281 19.9128C9.30336 20.0223 9.15492 20.0838 9.00013 20.0838H7.24925Z" fill="#5135FF"/>
</svg>
