<svg width="32" height="32" viewBox="0 0 32 32" fill="none" xmlns="http://www.w3.org/2000/svg">
<path opacity="0.45" d="M28.25 30H19.5C19.0359 30 18.5908 29.8156 18.2626 29.4874C17.9344 29.1592 17.75 28.7141 17.75 28.25V21.2439H19.5C20.5847 21.243 21.6427 20.9068 22.529 20.2814C23.4152 19.6559 24.0865 18.7717 24.4508 17.75H28.25C28.7141 17.75 29.1592 17.9344 29.4874 18.2626C29.8156 18.5908 30 19.0359 30 19.5V28.25C30 28.7141 29.8156 29.1592 29.4874 29.4874C29.1592 29.8156 28.7141 30 28.25 30ZM12.5 30H3.75C3.28587 30 2.84075 29.8156 2.51256 29.4874C2.18437 29.1592 2 28.7141 2 28.25V19.5C2 19.0359 2.18437 18.5908 2.51256 18.2626C2.84075 17.9344 3.28587 17.75 3.75 17.75H7.55275C7.91673 18.7713 8.58741 19.6551 9.473 20.2805C10.3586 20.9059 11.4158 21.2424 12.5 21.2439H14.25V28.25C14.25 28.7141 14.0656 29.1592 13.7374 29.4874C13.4092 29.8156 12.9641 30 12.5 30ZM28.25 14.25H24.4551C24.0928 13.2252 23.4218 12.3379 22.5344 11.7102C21.6471 11.0825 20.587 10.7452 19.5 10.7448H17.75V3.75C17.75 3.28587 17.9344 2.84075 18.2626 2.51256C18.5908 2.18437 19.0359 2 19.5 2H28.25C28.7141 2 29.1592 2.18437 29.4874 2.51256C29.8156 2.84075 30 3.28587 30 3.75V12.5C30 12.9641 29.8156 13.4092 29.4874 13.7374C29.1592 14.0656 28.7141 14.25 28.25 14.25ZM7.54838 14.25H3.75C3.28587 14.25 2.84075 14.0656 2.51256 13.7374C2.18437 13.4092 2 12.9641 2 12.5V3.75C2 3.28587 2.18437 2.84075 2.51256 2.51256C2.84075 2.18437 3.28587 2 3.75 2H12.5C12.9641 2 13.4092 2.18437 13.7374 2.51256C14.0656 2.84075 14.25 3.28587 14.25 3.75V10.7448H12.5C11.4137 10.746 10.3544 11.0837 9.46776 11.7113C8.58111 12.339 7.9106 13.2258 7.54838 14.25Z" fill="#5135FF"/>
<path d="M18.625 3.75H14.25V8.125H18.625V3.75Z" fill="#5135FF"/>
<path d="M18.625 24.75H14.25V28.25H18.625V24.75Z" fill="#5135FF"/>
<path d="M3.75 14.25V18.625H8.125V14.25H3.75Z" fill="#5135FF"/>
<path d="M24.75 14.25V18.625H28.25V14.25H24.75Z" fill="#5135FF"/>
<path d="M27.375 28.25H24.75C24.5179 28.25 24.2954 28.1578 24.1313 27.9937C23.9672 27.8296 23.875 27.6071 23.875 27.375C23.875 27.1429 23.9672 26.9204 24.1313 26.7563C24.2954 26.5922 24.5179 26.5 24.75 26.5H27.375C27.6071 26.5 27.8296 26.5922 27.9937 26.7563C28.1578 26.9204 28.25 27.1429 28.25 27.375C28.25 27.6071 28.1578 27.8296 27.9937 27.9937C27.8296 28.1578 27.6071 28.25 27.375 28.25ZM11.625 28.25H9C8.76794 28.25 8.54538 28.1578 8.38128 27.9937C8.21719 27.8296 8.125 27.6071 8.125 27.375C8.125 27.1429 8.21719 26.9204 8.38128 26.7563C8.54538 26.5922 8.76794 26.5 9 26.5H11.625C11.8571 26.5 12.0796 26.5922 12.2437 26.7563C12.4078 26.9204 12.5 27.1429 12.5 27.375C12.5 27.6071 12.4078 27.8296 12.2437 27.9937C12.0796 28.1578 11.8571 28.25 11.625 28.25ZM30 24.75H17.75V23H30V24.75ZM14.25 24.75H2V23H14.25V24.75ZM30 9H17.75V7.25H30V9ZM14.25 9H2V7.25H14.25V9ZM27.375 5.5H24.75C24.5179 5.5 24.2954 5.40781 24.1313 5.24372C23.9672 5.07962 23.875 4.85706 23.875 4.625C23.875 4.39294 23.9672 4.17038 24.1313 4.00628C24.2954 3.84219 24.5179 3.75 24.75 3.75H27.375C27.6071 3.75 27.8296 3.84219 27.9937 4.00628C28.1578 4.17038 28.25 4.39294 28.25 4.625C28.25 4.85706 28.1578 5.07962 27.9937 5.24372C27.8296 5.40781 27.6071 5.5 27.375 5.5ZM11.625 5.5H9C8.76794 5.5 8.54538 5.40781 8.38128 5.24372C8.21719 5.07962 8.125 4.85706 8.125 4.625C8.125 4.39294 8.21719 4.17038 8.38128 4.00628C8.54538 3.84219 8.76794 3.75 9 3.75H11.625C11.8571 3.75 12.0796 3.84219 12.2437 4.00628C12.4078 4.17038 12.5 4.39294 12.5 4.625C12.5 4.85706 12.4078 5.07962 12.2437 5.24372C12.0796 5.40781 11.8571 5.5 11.625 5.5Z" fill="#5135FF"/>
<path d="M12.527 19.7212C11.6023 19.7063 10.7212 19.3251 10.0771 18.6615C9.43292 17.9978 9.07827 17.1058 9.0909 16.181C9.07826 15.2555 9.43268 14.3627 10.0766 13.698C10.7206 13.0332 11.6016 12.6505 12.527 12.6337V12.6381C12.6418 12.6394 12.7551 12.6633 12.8606 12.7086C12.966 12.7538 13.0615 12.8195 13.1414 12.9018C13.2214 12.9841 13.2843 13.0814 13.3264 13.1881C13.3686 13.2949 13.3892 13.4089 13.3872 13.5236C13.3902 13.7549 13.3015 13.978 13.1405 14.1441C12.9795 14.3103 12.7592 14.4058 12.5279 14.41C12.0653 14.4178 11.6246 14.6085 11.3022 14.9404C10.9799 15.2723 10.802 15.7183 10.8077 16.181C10.802 16.6435 10.9797 17.0894 11.3019 17.4212C11.6241 17.7531 12.0646 17.9439 12.527 17.952H15.1039C15.567 17.9448 16.0083 17.7544 16.3313 17.4225C16.6542 17.0905 16.8324 16.6441 16.8268 16.181C16.8215 16.065 16.8399 15.9492 16.8806 15.8404C16.9214 15.7317 16.9838 15.6324 17.064 15.5485C17.1442 15.4646 17.2406 15.3978 17.3474 15.3521C17.4542 15.3065 17.569 15.283 17.6852 15.283C17.8013 15.283 17.9162 15.3065 18.0229 15.3521C18.1297 15.3978 18.2261 15.4646 18.3063 15.5485C18.3865 15.6324 18.4489 15.7317 18.4897 15.8404C18.5304 15.9492 18.5488 16.065 18.5435 16.181C18.5543 17.1058 18.1986 17.9973 17.5541 18.6607C16.9095 19.3241 16.0287 19.7053 15.1039 19.7212H12.527Z" fill="#5135FF"/>
<path d="M19.8315 12.6364C20.7561 12.6529 21.6366 13.0348 22.2806 13.6984C22.9246 14.3621 23.2798 15.2537 23.2685 16.1784C23.2807 17.1036 22.926 17.9961 22.2819 18.6605C21.6378 19.325 20.7568 19.7073 19.8315 19.7239C19.6001 19.7199 19.3796 19.6245 19.2184 19.4583C19.0572 19.2922 18.9684 19.069 18.9714 18.8375C18.9681 18.6059 19.0568 18.3824 19.2181 18.2161C19.3793 18.0497 19.5999 17.9541 19.8315 17.9502H19.856C20.3142 17.9356 20.7483 17.7418 21.0651 17.4104C21.3819 17.0791 21.556 16.6367 21.55 16.1784C21.5559 15.7159 21.3784 15.2698 21.0564 14.9378C20.7344 14.6058 20.294 14.4148 19.8315 14.4065H17.2529C16.7904 14.4148 16.3501 14.6058 16.028 14.9378C15.706 15.2698 15.5285 15.7159 15.5344 16.1784C15.5344 16.4062 15.4439 16.6248 15.2827 16.7859C15.1216 16.9471 14.903 17.0376 14.6752 17.0376C14.4473 17.0376 14.2287 16.9471 14.0676 16.7859C13.9064 16.6248 13.8159 16.4062 13.8159 16.1784C13.8047 15.2537 14.1598 14.3621 14.8038 13.6984C15.4478 13.0348 16.3283 12.6529 17.2529 12.6364H19.8315Z" fill="#5135FF"/>
</svg>
