<svg width="32" height="32" viewBox="0 0 32 32" fill="none" xmlns="http://www.w3.org/2000/svg">
<g opacity="0.45">
<path d="M18.6355 16.3602L21.4845 14.738C21.5693 14.6898 21.6437 14.6254 21.7036 14.5484C21.7635 14.4715 21.8076 14.3835 21.8335 14.2895C21.8593 14.1954 21.8664 14.0972 21.8542 14.0005C21.8421 13.9037 21.811 13.8103 21.7627 13.7256L15.8005 3.29297V12.9075C15.8001 13.0446 15.838 13.1792 15.9099 13.296L17.6354 16.1038C17.7363 16.2679 17.897 16.3863 18.0836 16.4342C18.2702 16.482 18.4681 16.4555 18.6355 16.3602Z" fill="#5135FF"/>
<path d="M17.2653 23.131L17.2416 26.4026C17.241 26.5006 17.2598 26.5978 17.2968 26.6886C17.3337 26.7793 17.3882 26.8619 17.4571 26.9316C17.526 27.0014 17.608 27.0568 17.6983 27.0949C17.7887 27.1329 17.8856 27.1528 17.9836 27.1533L29.9956 27.2067L21.67 22.3995C21.5507 22.3308 21.4147 22.2966 21.2771 22.3006L17.9862 22.3881C17.7929 22.3935 17.6092 22.4738 17.4738 22.6121C17.3385 22.7504 17.2622 22.9358 17.2609 23.1292" fill="#5135FF"/>
<path d="M11.8989 18.2161L9.08138 16.5667C8.99569 16.5165 8.90093 16.4837 8.80254 16.4701C8.70415 16.4566 8.60405 16.4626 8.50797 16.4878C8.4119 16.513 8.32174 16.5569 8.24266 16.617C8.16358 16.6771 8.09714 16.7522 8.04712 16.838L2 27.2067L10.5076 22.2945L12.1763 19.2118C12.2681 19.0422 12.2904 18.8435 12.2384 18.6577C12.1865 18.4719 12.0653 18.3136 11.8989 18.2161Z" fill="#5135FF"/>
</g>
<path d="M12.9489 16.3515L10.1253 14.7441C9.95185 14.6451 9.82486 14.4812 9.7722 14.2886C9.71953 14.096 9.74549 13.8903 9.84438 13.7168L15.8005 3.29297V13.1166L13.9744 16.0916C13.8707 16.2597 13.7059 16.381 13.5146 16.4299C13.3233 16.4789 13.1205 16.4517 12.9489 16.3541" fill="#5135FF"/>
<path d="M20.0994 18.2178L22.9318 16.5553C23.1009 16.4561 23.3024 16.428 23.4922 16.4772C23.682 16.5264 23.8446 16.6489 23.9441 16.8178L29.9991 27.1988L21.6735 22.3916C21.5547 22.3235 21.4574 22.2235 21.3926 22.1028L19.8176 19.2022C19.7263 19.0333 19.7042 18.8356 19.7557 18.6507C19.8073 18.4658 19.9286 18.3081 20.0941 18.2108" fill="#5135FF"/>
<path d="M14.7348 23.1275L14.7549 26.4192C14.7556 26.5152 14.7373 26.6103 14.7012 26.6992C14.665 26.788 14.6117 26.8689 14.5442 26.9371C14.4767 27.0053 14.3964 27.0595 14.308 27.0966C14.2195 27.1337 14.1246 27.153 14.0286 27.1533L2 27.2067L10.5076 22.2945L14.0138 22.3907C14.206 22.3959 14.3888 22.4757 14.5233 22.6132C14.6579 22.7507 14.7337 22.9351 14.7348 23.1275Z" fill="#5135FF"/>
</svg>
