<svg width="32" height="32" viewBox="0 0 32 32" fill="none" xmlns="http://www.w3.org/2000/svg">
<path opacity="0.75" d="M5.93714 10.75H2L2 9.88192C2 8.84685 2.20369 7.82192 2.59945 6.86564C2.9952 5.90936 3.57527 5.04046 4.30653 4.30856C5.0378 3.57666 5.90593 2.99608 6.86137 2.59998C7.81681 2.20387 8.84084 2 9.875 2C10.9092 2 11.9332 2.20387 12.8886 2.59998C13.8441 2.99608 14.7122 3.57666 15.4435 4.30856C16.1747 5.04046 16.7548 5.90936 17.1506 6.86564C17.5463 7.82192 17.75 8.84685 17.75 9.88192V13.375H13.8114V9.88192C13.8114 8.83681 13.3966 7.8345 12.6583 7.0955C11.9199 6.35649 10.9185 5.94132 9.87428 5.94132C8.83008 5.94132 7.82866 6.35649 7.0903 7.0955C6.35194 7.8345 5.93714 8.83681 5.93714 9.88192V10.75Z" fill="#5135FF"/>
<path opacity="0.45" d="M11.6253 13.375H27.3747C28.0827 13.3874 28.7568 13.6861 29.249 14.2054C29.7412 14.7248 30.0112 15.4222 29.9996 16.1446V27.2304C30.0112 27.9528 29.7412 28.6502 29.249 29.1696C28.7568 29.6889 28.0827 29.9876 27.3747 30H11.6253C10.9173 29.9876 10.2432 29.6889 9.75096 29.1696C9.25876 28.6502 8.98878 27.9528 9.00036 27.2304V16.1446C8.98878 15.4222 9.25876 14.7248 9.75096 14.2054C10.2432 13.6861 10.9173 13.3874 11.6253 13.375Z" fill="#5135FF"/>
<path d="M14.1057 24.75C13.2401 24.75 12.3121 24.4236 11.625 23.7798L12.5352 22.6645C12.9992 23.0725 13.6149 23.3536 14.1414 23.3536C14.7303 23.3536 15.007 23.1269 15.007 22.7642C15.007 22.3744 14.6411 22.2474 14.07 22.0026L13.2223 21.6399C12.5263 21.3588 11.8749 20.7694 11.8749 19.7902C11.8749 18.6567 12.8743 17.75 14.2842 17.75C15.0516 17.75 15.8636 18.0492 16.4436 18.6386L15.6495 19.6541C15.2122 19.3187 14.8017 19.1373 14.2842 19.1373C13.7934 19.1373 13.4989 19.3368 13.4989 19.6904C13.4989 20.0712 13.9094 20.2163 14.4983 20.4521L15.3282 20.7876C16.1492 21.1231 16.6399 21.6852 16.6399 22.6373C16.6399 23.7617 15.7119 24.75 14.1057 24.75Z" fill="#5135FF"/>
<path d="M19.5521 24.75C18.6865 24.75 17.7585 24.4236 17.0714 23.7798L17.9816 22.6645C18.4456 23.0725 19.0613 23.3536 19.5878 23.3536C20.1767 23.3536 20.4534 23.1269 20.4534 22.7642C20.4534 22.3744 20.0875 22.2474 19.5164 22.0026L18.6687 21.6399C17.9727 21.3588 17.3213 20.7694 17.3213 19.7902C17.3213 18.6567 18.3207 17.75 19.7306 17.75C20.498 17.75 21.31 18.0492 21.89 18.6386L21.0959 19.6541C20.6586 19.3187 20.2481 19.1373 19.7306 19.1373C19.2398 19.1373 18.9453 19.3368 18.9453 19.6904C18.9453 20.0712 19.3558 20.2163 19.9447 20.4521L20.7746 20.7876C21.5956 21.1231 22.0864 21.6852 22.0864 22.6373C22.0864 23.7617 21.1583 24.75 19.5521 24.75Z" fill="#5135FF"/>
<path d="M23.1899 24.6231V17.8679H24.7872V23.263H27.375V24.6231H23.1899Z" fill="#5135FF"/>
</svg>
