<svg width="32" height="32" viewBox="0 0 32 32" fill="none" xmlns="http://www.w3.org/2000/svg">
<path opacity="0.45" d="M16.0012 29.9996C12.7622 29.9999 9.6232 28.8772 7.11928 26.8227C4.61536 24.7681 2.90138 21.9091 2.26924 18.7324C1.63709 15.5558 2.12604 12.2581 3.65264 9.40148C5.17925 6.54486 7.64915 4.30607 10.6415 3.06635C13.6338 1.82663 16.9634 1.66237 20.063 2.60237C23.1625 3.54236 25.84 5.52848 27.6397 8.22144C29.4393 10.9144 30.2499 14.1479 29.9327 17.3712C29.6154 20.5946 28.1901 23.6085 25.8999 25.899C24.6032 27.2033 23.0605 28.237 21.3614 28.9409C19.6622 29.6449 17.8404 30.0047 16.0012 29.9996ZM7.97761 16.8748H12.6106C12.7665 17.48 13.0823 18.0322 13.5249 18.4735C13.9675 18.9149 14.5205 19.2293 15.1262 19.3835V24.0208C14.5424 24.2272 14.0506 24.6334 13.7372 25.1675C13.4239 25.7016 13.3091 26.3294 13.4138 26.9397C13.5185 27.55 13.8359 28.1035 14.3093 28.5026C14.7827 28.9017 15.382 29.1204 16.0012 29.1204C16.6204 29.1204 17.2196 28.9017 17.6931 28.5026C18.1665 28.1035 18.4839 27.55 18.5886 26.9397C18.6933 26.3294 18.5785 25.7016 18.2651 25.1675C17.9518 24.6334 17.46 24.2272 16.8762 24.0208V19.3835C17.4818 19.2292 18.0349 18.9148 18.4775 18.4735C18.92 18.0322 19.2357 17.48 19.3918 16.8748H24.0239C24.2303 17.4586 24.6365 17.9509 25.1706 18.2642C25.7048 18.5775 26.3325 18.6919 26.9428 18.5872C27.5531 18.4825 28.1066 18.1651 28.5057 17.6917C28.9048 17.2182 29.1239 16.619 29.1239 15.9998C29.1239 15.3806 28.9048 14.7814 28.5057 14.3079C28.1066 13.8345 27.5531 13.5171 26.9428 13.4124C26.3325 13.3077 25.7048 13.4221 25.1706 13.7354C24.6365 14.0487 24.2303 14.541 24.0239 15.1248H19.3918C19.2356 14.5189 18.9199 13.9659 18.4775 13.5235C18.0351 13.0811 17.4821 12.7654 16.8762 12.6092V7.97193C17.46 7.76553 17.9518 7.35932 18.2651 6.82522C18.5785 6.29111 18.6933 5.66332 18.5886 5.05302C18.4839 4.44272 18.1665 3.88929 17.6931 3.49017C17.2196 3.09105 16.6204 2.87153 16.0012 2.87153C15.382 2.87153 14.7827 3.09105 14.3093 3.49017C13.8359 3.88929 13.5185 4.44272 13.4138 5.05302C13.3091 5.66332 13.4239 6.29111 13.7372 6.82522C14.0506 7.35932 14.5424 7.76553 15.1262 7.97193V12.6092C14.5203 12.7654 13.9673 13.0811 13.5249 13.5235C13.0825 13.9659 12.7668 14.5189 12.6106 15.1248H7.97761C7.7712 14.541 7.36499 14.0487 6.83089 13.7354C6.29679 13.4221 5.66899 13.3077 5.05869 13.4124C4.44839 13.5171 3.89496 13.8345 3.49584 14.3079C3.09672 14.7814 2.87763 15.3806 2.87763 15.9998C2.87763 16.619 3.09672 17.2182 3.49584 17.6917C3.89496 18.1651 4.44839 18.4825 5.05869 18.5872C5.66899 18.6919 6.29679 18.5775 6.83089 18.2642C7.36499 17.9509 7.7712 17.4586 7.97761 16.8748Z" fill="#5135FF"/>
<path d="M15.9999 19.4998C17.9328 19.4998 19.4998 17.9328 19.4998 15.9998C19.4998 14.0669 17.9328 12.4999 15.9999 12.4999C14.0669 12.4999 12.4999 14.0669 12.4999 15.9998C12.4999 17.9328 14.0669 19.4998 15.9999 19.4998Z" fill="#5135FF"/>
<path d="M5.49997 18.6248C6.9497 18.6248 8.12494 17.4496 8.12494 15.9998C8.12494 14.5501 6.9497 13.3749 5.49997 13.3749C4.05024 13.3749 2.875 14.5501 2.875 15.9998C2.875 17.4496 4.05024 18.6248 5.49997 18.6248Z" fill="#5135FF"/>
<path d="M26.4997 18.6248C27.9495 18.6248 29.1247 17.4496 29.1247 15.9998C29.1247 14.5501 27.9495 13.3749 26.4997 13.3749C25.05 13.3749 23.8748 14.5501 23.8748 15.9998C23.8748 17.4496 25.05 18.6248 26.4997 18.6248Z" fill="#5135FF"/>
<path d="M15.9999 8.12494C17.4496 8.12494 18.6248 6.9497 18.6248 5.49997C18.6248 4.05024 17.4496 2.875 15.9999 2.875C14.5501 2.875 13.3749 4.05024 13.3749 5.49997C13.3749 6.9497 14.5501 8.12494 15.9999 8.12494Z" fill="#5135FF"/>
<path d="M15.9999 29.1247C17.4496 29.1247 18.6248 27.9495 18.6248 26.4997C18.6248 25.05 17.4496 23.8748 15.9999 23.8748C14.5501 23.8748 13.3749 25.05 13.3749 26.4997C13.3749 27.9495 14.5501 29.1247 15.9999 29.1247Z" fill="#5135FF"/>
<g opacity="0.75">
<path d="M26.5012 15.1259H5.50146V16.8758H26.5012V15.1259Z" fill="#5135FF"/>
<path d="M16.8763 4.62598H15.1264V25.6257H16.8763V4.62598Z" fill="#5135FF"/>
</g>
</svg>
