<svg width="32" height="32" viewBox="0 0 32 32" fill="none" xmlns="http://www.w3.org/2000/svg">
<path opacity="0.45" d="M12.5112 25.3586C12.2052 25.3583 11.9035 25.2866 11.6301 25.1492L3.08969 20.8467C2.76059 20.6815 2.48419 20.4277 2.29166 20.1138C2.09912 19.7999 1.99812 19.4385 2.00003 19.0703V8.28852C1.99814 7.92043 2.09906 7.55911 2.29142 7.24527C2.48378 6.93142 2.75995 6.67752 3.08881 6.51215L3.35072 6.37988L11.6292 10.5502C11.9025 10.688 12.2043 10.7598 12.5104 10.7598C12.8165 10.7598 13.1183 10.688 13.3916 10.5502L21.67 6.37988L21.9328 6.51215C22.2618 6.6774 22.5382 6.93125 22.7307 7.2451C22.9232 7.55895 23.0243 7.92033 23.0225 8.28852V15.8486L22.8779 15.8092V14.7012C22.8702 14.4354 22.7591 14.183 22.5683 13.9978C22.3775 13.8125 22.1221 13.7089 21.8562 13.7089C21.5902 13.7089 21.3348 13.8125 21.144 13.9978C20.9532 14.183 20.8422 14.4354 20.8344 14.7012V15.8083C19.9221 15.9632 19.0566 16.3226 18.3029 16.8595L17.5207 16.0764C17.4266 15.9781 17.3138 15.8996 17.1889 15.8454C17.064 15.7913 16.9296 15.7627 16.7935 15.7612C16.6574 15.7597 16.5224 15.7855 16.3963 15.8369C16.2703 15.8883 16.1558 15.9643 16.0596 16.0606C15.9634 16.1568 15.8873 16.2713 15.8359 16.3973C15.7845 16.5233 15.7588 16.6583 15.7603 16.7944C15.7617 16.9305 15.7904 17.065 15.8445 17.1898C15.8986 17.3147 15.9771 17.4275 16.0754 17.5217L16.8585 18.3047C16.322 19.0583 15.9627 19.9234 15.8074 20.8353H14.7011C14.5644 20.8313 14.4283 20.8547 14.3008 20.9043C14.1733 20.9538 14.0571 21.0285 13.959 21.1237C13.8609 21.219 13.7829 21.333 13.7296 21.459C13.6764 21.5849 13.6489 21.7203 13.6489 21.857C13.6489 21.9938 13.6764 22.1292 13.7296 22.2551C13.7829 22.3811 13.8609 22.4951 13.959 22.5904C14.0571 22.6856 14.1733 22.7603 14.3008 22.8098C14.4283 22.8594 14.5644 22.8828 14.7011 22.8788H15.8074C15.8609 23.1966 15.9394 23.5097 16.0421 23.8152L13.3916 25.1501C13.1183 25.287 12.8169 25.3583 12.5112 25.3586Z" fill="#5135FF"/>
<path fill-rule="evenodd" clip-rule="evenodd" d="M21.8538 13.679C21.5828 13.6793 21.323 13.7871 21.1315 13.9787C20.94 14.1704 20.8324 14.4303 20.8324 14.7012V15.8075C19.9201 15.9614 19.0547 16.3209 18.3018 16.8586L17.5188 16.0756C17.4246 15.9773 17.3118 15.8987 17.1869 15.8446C17.0621 15.7905 16.9276 15.7619 16.7915 15.7604C16.6554 15.7589 16.5204 15.7846 16.3944 15.836C16.2684 15.8874 16.1539 15.9635 16.0576 16.0597C15.9614 16.156 15.8854 16.2705 15.834 16.3965C15.7825 16.5225 15.7568 16.6575 15.7583 16.7936C15.7598 16.9297 15.7884 17.0641 15.8425 17.189C15.8967 17.3139 15.9752 17.4267 16.0735 17.5208L16.8566 18.3039C16.3188 19.0568 15.9593 19.9221 15.8054 20.8345H14.7009C14.4351 20.8422 14.1827 20.9533 13.9975 21.1441C13.8122 21.3348 13.7086 21.5903 13.7086 21.8562C13.7086 22.1221 13.8122 22.3776 13.9975 22.5684C14.1827 22.7591 14.4351 22.8702 14.7009 22.878H15.8072C15.9609 23.7906 16.3204 24.6563 16.8583 25.4094L16.0761 26.1916C15.8912 26.3847 15.7894 26.6424 15.7922 26.9097C15.7951 27.1769 15.9026 27.4324 16.0916 27.6214C16.2806 27.8104 16.5361 27.9178 16.8033 27.9207C17.0706 27.9236 17.3283 27.8217 17.5214 27.6369L18.3045 26.8547C19.0573 27.3925 19.9227 27.7519 20.8351 27.9058V29.0077C20.8428 29.2735 20.9539 29.5258 21.1447 29.7111C21.3354 29.8964 21.5909 30 21.8568 30C22.1228 30 22.3782 29.8964 22.569 29.7111C22.7598 29.5258 22.8708 29.2735 22.8786 29.0077V27.9005C23.7909 27.7466 24.6563 27.3872 25.4092 26.8494L26.1923 27.6325C26.2864 27.7308 26.3992 27.8093 26.5241 27.8634C26.649 27.9176 26.7834 27.9462 26.9195 27.9477C27.0556 27.9492 27.1906 27.9234 27.3166 27.872C27.4427 27.8206 27.5571 27.7446 27.6534 27.6483C27.7496 27.5521 27.8257 27.4376 27.8771 27.3116C27.9285 27.1856 27.9542 27.0506 27.9527 26.9145C27.9513 26.7784 27.9226 26.6439 27.8685 26.5191C27.8144 26.3942 27.7359 26.2814 27.6376 26.1872L26.8545 25.4042C27.3924 24.651 27.7519 23.7854 27.9056 22.8727H29.0075C29.2733 22.865 29.5257 22.7539 29.7109 22.5631C29.8962 22.3723 29.9998 22.1169 29.9998 21.851C29.9998 21.585 29.8962 21.3296 29.7109 21.1388C29.5257 20.948 29.2733 20.837 29.0075 20.8292H27.9003C27.7465 19.9169 27.387 19.0515 26.8492 18.2987L27.6323 17.5156C27.7306 17.4214 27.8091 17.3086 27.8632 17.1838C27.9174 17.0589 27.946 16.9244 27.9475 16.7884C27.9489 16.6523 27.9232 16.5172 27.8718 16.3912C27.8204 16.2652 27.7444 16.1507 27.6481 16.0545C27.5519 15.9582 27.4374 15.8822 27.3114 15.8308C27.1854 15.7794 27.0503 15.7537 26.9142 15.7551C26.7782 15.7566 26.6437 15.7852 26.5188 15.8394C26.394 15.8935 26.2811 15.972 26.187 16.0703L25.4039 16.8534L24.0611 16.1316L22.876 15.8075V14.7012C22.876 14.4301 22.7683 14.1701 22.5766 13.9784C22.3849 13.7867 22.1249 13.679 21.8538 13.679ZM21.8538 25.942C22.6623 25.9422 23.4528 25.7025 24.1252 25.2535C24.7976 24.8044 25.3217 24.166 25.6312 23.419C25.9407 22.6721 26.0218 21.8501 25.8642 21.0571C25.7065 20.264 25.3173 19.5355 24.7456 18.9637C24.1739 18.3919 23.4455 18.0025 22.6525 17.8447C21.8595 17.6869 21.0375 17.7678 20.2904 18.0772C19.5434 18.3866 18.9049 18.9105 18.4557 19.5828C18.0064 20.2551 17.7667 21.0455 17.7667 21.854C17.7667 22.9381 18.1972 23.9777 18.9637 24.7443C19.7301 25.5109 20.7697 25.9417 21.8538 25.942Z" fill="#5135FF"/>
<path d="M21.8546 23.6435C22.8425 23.6435 23.6433 22.8427 23.6433 21.8549C23.6433 20.8671 22.8425 20.0663 21.8546 20.0663C20.8668 20.0663 20.066 20.8671 20.066 21.8549C20.066 22.8427 20.8668 23.6435 21.8546 23.6435Z" fill="#5135FF"/>
<path d="M11.6281 11.8019L3.08861 7.49937C2.84967 7.37862 2.63778 7.21054 2.46582 7.00535C2.63774 6.80012 2.84964 6.63203 3.08861 6.51132L11.6281 2.20965C11.9017 2.0718 12.2038 2 12.5102 2C12.8165 2 13.1186 2.0718 13.3922 2.20965L21.9317 6.51132C22.1711 6.63185 22.3833 6.79995 22.5554 7.00535C22.3834 7.21104 22.1711 7.37944 21.9317 7.50024L13.3922 11.8019C13.1186 11.9398 12.8165 12.0116 12.5102 12.0116C12.2038 12.0116 11.9017 11.9398 11.6281 11.8019Z" fill="#5135FF"/>
</svg>
