<svg width="32" height="32" viewBox="0 0 32 32" fill="none" xmlns="http://www.w3.org/2000/svg">
<path opacity="0.45" d="M14.8336 26.4565C14.7739 26.4562 14.7148 26.4458 14.6586 26.4258L13.0429 25.83C11.7342 25.3439 10.5154 24.6437 9.43623 23.758C8.32616 22.8433 7.44039 21.6864 6.84691 20.3761L6.52324 19.6551C6.1252 18.7732 5.84519 17.8426 5.69046 16.8875C5.37107 14.9405 5.21074 12.9708 5.21109 10.9978V10.1552C5.20766 9.95879 5.26317 9.76585 5.37045 9.6013C5.47773 9.43675 5.63185 9.30814 5.81293 9.23208L7.15396 8.68783L9.53158 11.0705L8.94636 11.3251C8.78614 11.3984 8.65099 11.5172 8.55767 11.6667C8.46436 11.8162 8.41701 11.9898 8.4215 12.166V12.8808C8.41943 14.1586 8.51594 15.4347 8.71017 16.6976C8.83016 17.4661 9.06458 18.2123 9.40562 18.9113L9.50447 19.117C9.89881 19.9389 10.4552 20.6725 11.1403 21.2738C11.8969 21.9479 12.7679 22.4813 13.7121 22.8488L14.6542 23.2172H14.6481C14.7077 23.2407 14.7713 23.2523 14.8353 23.2513C14.8985 23.2526 14.9613 23.241 15.0199 23.2172L15.9533 22.8488C16.7337 22.543 17.4654 22.125 18.1253 21.6081C17.9779 21.9603 17.9024 22.3384 17.9031 22.7202V25.2735C17.4873 25.4823 17.0603 25.6684 16.6242 25.8308L15.0085 26.4267C14.9523 26.4464 14.8932 26.4564 14.8336 26.4565ZM19.4471 22.2696C19.5463 21.9725 19.7446 21.7186 20.0087 21.5503C19.7461 21.72 19.5476 21.9734 19.4471 22.2696ZM21.1573 15.1821C21.2159 14.5276 21.2448 13.8591 21.2448 13.1985V12.1686C21.2486 11.9924 21.2004 11.819 21.1061 11.6702C21.0118 11.5214 20.8756 11.4038 20.7147 11.3321L15.0383 8.86283C14.9738 8.83534 14.9045 8.82117 14.8344 8.82117C14.7644 8.82117 14.6951 8.83534 14.6306 8.86283L11.1158 10.3818L8.76616 8.03245L14.6437 5.64983C14.7038 5.62442 14.7684 5.61133 14.8336 5.61133C14.8982 5.61135 14.9622 5.62444 15.0217 5.64983L23.849 9.23208C24.0311 9.30843 24.186 9.43796 24.2934 9.60374C24.4007 9.76953 24.4556 9.96385 24.4508 10.1613V11.4913C24.4508 12.2955 24.4184 13.1188 24.3555 13.9413C23.1853 14.0068 22.066 14.4422 21.1591 15.1847L21.1573 15.1821Z" fill="#5135FF"/>
<path opacity="0.75" d="M14.832 23.2545C14.7685 23.2545 14.7055 23.2424 14.6466 23.2186H14.6527L13.7097 22.8503C12.7669 22.4797 11.8965 21.9467 11.1379 21.2753C10.452 20.6735 9.8952 19.9389 9.50117 19.1158L9.40232 18.9154C9.06576 18.2131 8.83298 17.4656 8.71125 16.6964C8.5143 15.4317 8.41661 14.1535 8.41908 12.8735V12.1621C8.41482 11.986 8.46226 11.8125 8.55555 11.663C8.64883 11.5136 8.78386 11.3948 8.94394 11.3213L9.52916 11.0658L6.84099 8.37601C6.23203 8.73633 5.52106 8.88516 4.81876 8.79933C4.11645 8.7135 3.46222 8.39782 2.95791 7.90145C2.45359 7.40507 2.12749 6.75584 2.03037 6.05483C1.93325 5.35382 2.07056 4.64036 2.42092 4.02551C2.77128 3.41066 3.31503 2.92892 3.96754 2.65529C4.62004 2.38167 5.34468 2.3315 6.02865 2.5126C6.71262 2.69369 7.31754 3.0959 7.74925 3.65661C8.18095 4.21731 8.41522 4.90505 8.41558 5.61276C8.41769 6.18561 8.26538 6.74843 7.97469 7.24201L11.1151 10.3841L14.6291 8.85813C14.76 8.80637 14.9058 8.80637 15.0367 8.85813L20.7166 11.3283C20.8768 11.4007 21.012 11.5188 21.1054 11.6677C21.1987 11.8167 21.2461 11.9899 21.2415 12.1656V13.1964C21.2415 13.8544 21.2144 14.5203 21.154 15.18C20.5085 15.7033 19.9882 16.3644 19.6313 17.1149C19.2743 17.8654 19.0898 18.6863 19.0913 19.5174V20.3924C18.6616 20.7001 18.3257 21.1212 18.1212 21.6086C17.46 22.1249 16.7283 22.5436 15.9482 22.852L15.0131 23.2204C14.9555 23.2433 14.894 23.2548 14.832 23.2545Z" fill="#5135FF"/>
<path d="M20.7001 21.3529H28.671C28.8485 21.3559 29.0236 21.3938 29.1865 21.4645C29.3493 21.5352 29.4967 21.6373 29.6201 21.7649C29.7434 21.8926 29.8405 22.0433 29.9056 22.2085C29.9708 22.3736 30.0028 22.55 29.9998 22.7276V28.2252C30.0028 28.4027 29.9708 28.5791 29.9056 28.7443C29.8405 28.9095 29.7434 29.0602 29.6201 29.1878C29.4967 29.3155 29.3493 29.4176 29.1865 29.4883C29.0236 29.5589 28.8485 29.5969 28.671 29.5998H20.7001C20.5226 29.5969 20.3474 29.5589 20.1846 29.4883C20.0217 29.4176 19.8744 29.3155 19.751 29.1878C19.6276 29.0602 19.5306 28.9095 19.4654 28.7443C19.4003 28.5791 19.3683 28.4027 19.3713 28.2252V22.7276C19.3683 22.55 19.4003 22.3736 19.4654 22.2085C19.5306 22.0433 19.6276 21.8926 19.751 21.7649C19.8744 21.6373 20.0217 21.5352 20.1846 21.4645C20.3474 21.3938 20.5226 21.3559 20.7001 21.3529Z" fill="#5135FF"/>
<path d="M22.6235 22.2682H20.5625V19.5189C20.5625 18.4253 20.9969 17.3765 21.7699 16.6032C22.543 15.8299 23.5916 15.3955 24.6849 15.3955C25.7782 15.3955 26.8268 15.8299 27.5998 16.6032C28.3729 17.3765 28.8073 18.4253 28.8073 19.5189V22.2682H26.7463V19.5189C26.7463 18.9722 26.5292 18.4479 26.1427 18.0612C25.7561 17.6746 25.2319 17.4574 24.6853 17.4574C24.1387 17.4574 23.6145 17.6746 23.228 18.0612C22.8415 18.4479 22.6244 18.9722 22.6244 19.5189L22.6235 22.2682Z" fill="#5135FF"/>
</svg>
