<svg width="32" height="32" viewBox="0 0 32 32" fill="none" xmlns="http://www.w3.org/2000/svg">
<g opacity="0.35">
<path d="M29.1549 24.8588C29.1026 24.7994 29.0628 24.73 29.0381 24.6548C29.0133 24.5796 29.0039 24.5002 29.0107 24.4213C29.0168 24.3215 29.0194 24.2209 29.0194 24.1194C29.0194 24.0179 29.0194 23.9182 29.0107 23.8175C29.004 23.7386 29.0133 23.6592 29.0381 23.584C29.0629 23.5088 29.1026 23.4394 29.1549 23.38L29.5239 22.9854C29.6274 22.875 29.6925 22.734 29.7092 22.5835C29.7259 22.4329 29.6934 22.2811 29.6165 22.1506L28.4678 20.2037C28.3882 20.0724 28.2694 19.9694 28.1283 19.9093C27.9871 19.8492 27.8306 19.8349 27.6809 19.8685L27.1468 19.9841C26.986 20.0139 26.82 19.9786 26.6852 19.886C26.5139 19.7732 26.3361 19.6706 26.1527 19.5789C26.08 19.546 26.0145 19.4988 25.9601 19.4402C25.9058 19.3816 25.8637 19.3127 25.8363 19.2377L25.6728 18.7284C25.6242 18.5832 25.531 18.457 25.4065 18.3681C25.282 18.2791 25.1325 18.2319 24.9795 18.2331H22.6898C22.5369 18.2322 22.3876 18.2798 22.2633 18.3691C22.1391 18.4584 22.0463 18.5848 21.9983 18.7301L21.8348 19.2394C21.8075 19.3145 21.7654 19.3834 21.711 19.4421C21.6567 19.5007 21.5912 19.5478 21.5183 19.5807C21.3341 19.6705 21.1554 19.7713 20.9833 19.8825C20.9165 19.9284 20.8414 19.9607 20.7622 19.9775C20.683 19.9943 20.6013 19.9954 20.5217 19.9806L19.9875 19.8642C19.8376 19.8306 19.681 19.845 19.5398 19.9055C19.3985 19.966 19.2799 20.0694 19.2007 20.2011L18.0563 22.1471C17.9794 22.2776 17.9469 22.4294 17.9636 22.58C17.9803 22.7305 18.0454 22.8715 18.149 22.9819L18.5188 23.3756C18.5709 23.4351 18.6105 23.5046 18.6351 23.5797C18.6597 23.6549 18.6689 23.7343 18.6621 23.8132C18.6569 23.9129 18.6534 24.0135 18.6534 24.115C18.6534 24.2165 18.6534 24.3163 18.6621 24.4169C18.6692 24.4958 18.6602 24.5752 18.6355 24.6505C18.6109 24.7257 18.5711 24.7951 18.5188 24.8544L18.1481 25.2499C18.0446 25.3604 17.9798 25.5015 17.9632 25.652C17.9467 25.8025 17.9793 25.9544 18.0563 26.0847L19.2033 28.029C19.2828 28.1604 19.4015 28.2634 19.5427 28.3236C19.6839 28.3837 19.8404 28.3979 19.9901 28.3641L20.5234 28.2486C20.6845 28.2188 20.8508 28.254 20.9859 28.3466C21.1577 28.4581 21.336 28.5589 21.5201 28.6485C21.593 28.6814 21.6587 28.7287 21.713 28.7874C21.7674 28.8462 21.8094 28.9153 21.8366 28.9907L22 29.4991C22.0477 29.6448 22.1403 29.7717 22.2646 29.8615C22.3888 29.9512 22.5383 29.9993 22.6916 29.9987H24.9865C25.1395 29.9995 25.2889 29.9519 25.4132 29.8626C25.5376 29.7734 25.6306 29.647 25.6789 29.5017L25.8424 28.9924C25.87 28.9174 25.9122 28.8486 25.9665 28.7901C26.0208 28.7315 26.0862 28.6843 26.1589 28.6512C26.3429 28.5615 26.5213 28.4607 26.693 28.3493C26.7598 28.3034 26.8349 28.2711 26.9141 28.2543C26.9933 28.2375 27.075 28.2365 27.1546 28.2513L27.6879 28.3668C27.8377 28.4003 27.9942 28.3859 28.1354 28.3256C28.2766 28.2654 28.3953 28.1622 28.4747 28.0308L29.6235 26.0856C29.7002 25.955 29.7326 25.8031 29.7157 25.6526C29.6989 25.5021 29.6337 25.3611 29.53 25.2508L29.1549 24.8588Z" fill="#5135FF"/>
<path d="M17.0052 22.4692L15.9876 22.4684L15.9963 15.9757L29.6976 15.9958C29.7529 15.9951 29.807 16.0115 29.8526 16.0429C29.8981 16.0742 29.9329 16.1189 29.952 16.1708C29.9725 16.2223 29.9763 16.2791 29.9626 16.3328C29.9489 16.3866 29.9186 16.4346 29.8759 16.4701L27.3651 18.9613L27.1028 19.019C26.9769 18.9394 26.8405 18.8606 26.6937 18.7845L26.5835 18.4345V18.424C26.4725 18.0896 26.259 17.7988 25.9733 17.5929C25.6877 17.3869 25.3444 17.2763 24.9924 17.2768H22.6808C22.3281 17.2764 21.9842 17.3878 21.6985 17.5949C21.4129 17.8021 21.2001 18.0945 21.0906 18.4301L20.9761 18.7801C20.8414 18.8493 20.7042 18.9271 20.566 19.0129L20.184 18.9333C20.0642 18.9072 19.942 18.894 19.8194 18.8939C19.5293 18.8944 19.2441 18.9697 18.9915 19.1126C18.7388 19.2554 18.5272 19.461 18.3769 19.7094L17.2343 21.6633C17.0901 21.9075 17.0115 22.1848 17.0061 22.4684L17.0052 22.4692Z" fill="#5135FF"/>
<path d="M15.7088 29.9745C15.6706 29.9747 15.6329 29.9664 15.5982 29.9506C15.5635 29.9347 15.5325 29.9112 15.5077 29.8822L9.57321 23.8835C9.53341 23.8397 9.50979 23.7829 9.50662 23.7237C9.8593 22.8629 10.3103 22.0464 10.8504 21.2892C12.2718 19.2567 14.0115 17.4665 16.0025 15.9886L15.9816 29.701C15.9819 29.737 15.9751 29.7729 15.9615 29.8062C15.9479 29.8394 15.9276 29.8696 15.9022 29.895C15.8768 29.9204 15.8466 29.9404 15.8134 29.954C15.7801 29.9676 15.7447 29.9748 15.7088 29.9745Z" fill="#5135FF"/>
<path d="M2.00197 15.7045C2.00171 15.6663 2.01001 15.6286 2.02587 15.5939C2.04173 15.5591 2.06516 15.5281 2.09417 15.5033L8.08758 9.56354C8.13139 9.5237 8.18813 9.50006 8.24723 9.49689C9.10731 9.84988 9.92306 10.3013 10.6796 10.8419C12.7103 12.2645 14.499 14.0058 15.9755 15.9985L2.27517 15.9775C2.23925 15.9779 2.20341 15.971 2.17016 15.9574C2.1369 15.9439 2.10676 15.9235 2.08137 15.8981C2.05597 15.8726 2.03604 15.8425 2.02246 15.8092C2.00887 15.7759 2.00161 15.7405 2.00197 15.7045Z" fill="#5135FF"/>
<path d="M16.2935 2.0005C16.3316 2.00024 16.3693 2.00856 16.404 2.02443C16.4388 2.0403 16.4697 2.06375 16.4945 2.09279L22.429 8.09148C22.4688 8.13533 22.4925 8.19212 22.4956 8.25128C22.1429 9.11211 21.6919 9.92858 21.1518 10.6858C19.7305 12.7183 17.9907 14.5085 15.9998 15.9863L16.0207 2.27395C16.0203 2.238 16.0272 2.20212 16.0408 2.16884C16.0543 2.13556 16.0747 2.10539 16.1001 2.07997C16.1255 2.05455 16.1556 2.0346 16.1889 2.02101C16.2221 2.00741 16.2576 2.00015 16.2935 2.0005Z" fill="#5135FF"/>
</g>
<path d="M23.8042 22.0778C23.4075 22.0778 23.0198 22.1955 22.69 22.4161C22.3602 22.6367 22.1031 22.9502 21.9513 23.3169C21.7995 23.6837 21.7598 24.0873 21.8372 24.4767C21.9146 24.8661 22.1056 25.2238 22.386 25.5045C22.6665 25.7852 23.0239 25.9764 23.4129 26.0538C23.802 26.1313 24.2052 26.0915 24.5717 25.9396C24.9381 25.7877 25.2513 25.5304 25.4717 25.2003C25.6921 24.8702 25.8097 24.4821 25.8097 24.0851C25.8083 23.5532 25.5966 23.0434 25.2208 22.6673C24.845 22.2911 24.3357 22.0792 23.8042 22.0778ZM23.8042 21.3629C24.3421 21.3629 24.8679 21.5226 25.3152 21.8217C25.7625 22.1208 26.1111 22.5459 26.3169 23.0434C26.5228 23.5408 26.5767 24.0881 26.4717 24.6162C26.3668 25.1442 26.1077 25.6293 25.7274 26.01C25.347 26.3907 24.8624 26.65 24.3348 26.755C23.8072 26.86 23.2603 26.8061 22.7634 26.6001C22.2664 26.394 21.8416 26.0451 21.5427 25.5975C21.2439 25.1498 21.0844 24.6235 21.0844 24.0851C21.0844 23.3631 21.3709 22.6707 21.881 22.1602C22.391 21.6497 23.0828 21.3629 23.8042 21.3629Z" fill="#5135FF"/>
<path d="M17.0062 22.4692H15.9877L15.9964 15.9748C16.8618 17.1263 17.8241 18.2016 18.8727 19.1888C18.6725 19.3262 18.5043 19.5053 18.3797 19.7138L17.2344 21.6625C17.0902 21.9066 17.0116 22.1839 17.0062 22.4675V22.4692Z" fill="#5135FF"/>
<path d="M9.50337 23.724C9.50337 23.724 10.8628 19.8739 15.9999 15.9862L9.51299 15.9774L9.50337 23.724Z" fill="#5135FF"/>
<path d="M8.24707 9.49351C8.24707 9.49351 12.0938 10.8542 15.9781 15.9958L15.9868 9.50313L8.24707 9.49351Z" fill="#5135FF"/>
<path d="M22.4991 8.25098C22.4991 8.25098 21.1397 12.1011 16.0026 15.9888L22.4895 15.9976L22.4991 8.25098Z" fill="#5135FF"/>
</svg>
