<svg width="32" height="32" viewBox="0 0 32 32" fill="none" xmlns="http://www.w3.org/2000/svg">
<path d="M18.0236 17.602L18 22.2455C17.9996 22.2934 18.0135 22.3401 18.0398 22.3797C18.0661 22.4194 18.1036 22.4502 18.1477 22.4683C18.1918 22.4864 18.2403 22.491 18.2873 22.4815C18.3342 22.4719 18.3774 22.4487 18.4114 22.4147L19.7156 21.1105L21.0757 22.4706L23.1376 20.4086L21.7776 19.0486L23.0802 17.7459C23.1143 17.712 23.1377 17.6688 23.1474 17.6218C23.1571 17.5748 23.1526 17.5262 23.1345 17.482C23.1164 17.4379 23.0856 17.4002 23.0459 17.3739C23.0062 17.3475 22.9594 17.3336 22.9116 17.334L18.2675 17.3581C18.2033 17.3585 18.1416 17.3844 18.096 17.43C18.0504 17.4756 18.024 17.5378 18.0236 17.602Z" fill="#5135FF"/>
<path d="M18.0236 29.066L18 24.4224C17.9996 24.3746 18.0135 24.3279 18.0398 24.2882C18.0661 24.2486 18.1036 24.2177 18.1477 24.1996C18.1918 24.1815 18.2403 24.1769 18.2873 24.1865C18.3342 24.196 18.3774 24.2193 18.4114 24.2533L19.7156 25.5575L21.0757 24.1974L23.1376 26.2593L21.7776 27.6194L23.0802 28.922C23.1143 28.956 23.1377 28.9992 23.1474 29.0461C23.1571 29.0931 23.1526 29.1418 23.1345 29.1859C23.1164 29.2301 23.0856 29.2677 23.0459 29.2941C23.0062 29.3204 22.9594 29.3343 22.9116 29.334L18.2675 29.3098C18.2033 29.3094 18.1416 29.2836 18.096 29.238C18.0504 29.1923 18.024 29.1302 18.0236 29.066Z" fill="#5135FF"/>
<path d="M29.732 17.3576L25.0884 17.334C25.0406 17.3336 24.9939 17.3475 24.9543 17.3738C24.9146 17.4001 24.8838 17.4376 24.8656 17.4817C24.8475 17.5258 24.843 17.5743 24.8525 17.6213C24.8621 17.6682 24.8853 17.7114 24.9193 17.7454L26.2235 19.0496L24.8634 20.4097L26.9254 22.4716L28.2854 21.1115L29.5881 22.4142C29.622 22.4483 29.6652 22.4717 29.7122 22.4814C29.7592 22.491 29.8078 22.4866 29.852 22.4685C29.8961 22.4504 29.9338 22.4196 29.9601 22.3799C29.9865 22.3402 30.0004 22.2934 30 22.2456L29.9758 17.6015C29.9755 17.5373 29.9496 17.4756 29.904 17.43C29.8584 17.3844 29.7962 17.358 29.732 17.3576Z" fill="#5135FF"/>
<path d="M29.732 29.3103L25.0884 29.334C25.0406 29.3343 24.9939 29.3205 24.9543 29.2942C24.9146 29.2679 24.8838 29.2303 24.8656 29.1863C24.8475 29.1422 24.843 29.0936 24.8525 29.0467C24.8621 28.9997 24.8853 28.9565 24.9193 28.9226L26.2235 27.6184L24.8634 26.2583L26.9254 24.1964L28.2854 25.5564L29.5881 24.2538C29.622 24.2197 29.6652 24.1963 29.7122 24.1866C29.7592 24.1769 29.8078 24.1814 29.852 24.1995C29.8961 24.2176 29.9338 24.2484 29.9601 24.2881C29.9865 24.3278 30.0004 24.3746 30 24.4224L29.9758 29.0665C29.9755 29.1307 29.9496 29.1924 29.904 29.238C29.8584 29.2836 29.7962 29.31 29.732 29.3103Z" fill="#5135FF"/>
<path d="M13.9908 3.33398C20.6078 3.33405 25.999 4.82509 26 6.66644C26 8.50626 20.6271 10.0007 14.0092 10.0007C7.39143 10.0006 2 8.50626 2 6.66644C2.00104 4.82686 7.37357 3.33398 13.9908 3.33398Z" fill="#5135FF"/>
<g opacity="0.45">
<path d="M2 17.3343C2.00172 19.1737 7.39248 20.6676 14.0091 20.6676C14.6872 20.6676 15.3525 20.6509 16 20.6208V27.9469C15.3511 27.9816 14.6846 28.001 14.0052 28.001C7.38965 28.001 2.00043 26.2904 2 24.1891V17.3343Z" fill="#5135FF"/>
<path d="M26 15.3343H20C18.0386 15.3343 16.4077 16.7462 16.0664 18.609C15.3965 18.6461 14.7078 18.6676 14.0052 18.6676C7.38965 18.6676 2.00043 16.9571 2 14.8558V8.00098C2.00172 9.84037 7.39248 11.3343 14.0091 11.3343C20.6258 11.3343 25.9983 9.84038 26 8.00098V15.3343Z" fill="#5135FF"/>
</g>
</svg>
