<svg width="32" height="32" viewBox="0 0 32 32" fill="none" xmlns="http://www.w3.org/2000/svg">
<path opacity="0.45" d="M18.7473 23.2792H4.88293C4.87851 23.2339 4.87676 23.1883 4.87768 23.1427V11.1438L14.8404 6.87472C15.0861 6.76955 15.3506 6.71533 15.6179 6.71533C15.8851 6.71533 16.1496 6.76955 16.3953 6.87472L26.3528 11.1438V17.478L25.7211 17.2233C25.5755 17.164 25.4197 17.1343 25.2626 17.1358C25.1032 17.1362 24.9454 17.1674 24.7979 17.2277C24.5978 17.3118 24.4247 17.4492 24.2974 17.625L23.8757 18.1815H23.8652C23.8398 18.1815 23.8179 18.1815 23.7926 18.1815H23.7532H23.7269H23.7051L23.2676 17.6276L23.2536 17.6075C23.139 17.471 22.996 17.3611 22.8346 17.2855C22.6732 17.21 22.4973 17.1705 22.3191 17.17C22.16 17.1695 22.0024 17.1992 21.8544 17.2575L20.8919 17.6705C20.6431 17.7736 20.4361 17.9573 20.3043 18.1921C20.1724 18.427 20.1233 18.6993 20.1648 18.9655L20.2602 19.6655L20.2348 19.6908L20.2103 19.7153L20.1963 19.7328H20.1919L20.1841 19.7416L20.1779 19.7468L20.1718 19.753L20.1552 19.7696L19.4368 19.6891C19.3895 19.6829 19.3419 19.68 19.2942 19.6803C19.1368 19.6793 18.9808 19.709 18.8348 19.7678L18.8261 19.7731C18.6771 19.8354 18.5423 19.9272 18.4298 20.043C18.3174 20.1588 18.2295 20.2962 18.1716 20.4468L17.7918 21.3918C17.6888 21.6384 17.6717 21.9125 17.7431 22.17C17.8145 22.4275 17.9703 22.6536 18.1856 22.812L18.7473 23.2425V23.2678V23.2792ZM8.65243 11.7703C8.04256 11.7697 7.45135 11.9806 6.9795 12.367C6.50764 12.7533 6.18434 13.2914 6.06467 13.8894C5.94499 14.4874 6.03635 15.1084 6.32317 15.6466C6.60998 16.1848 7.07453 16.6069 7.63766 16.8411C8.20079 17.0752 8.82768 17.1069 9.41154 16.9306C9.99539 16.7544 10.5001 16.3812 10.8397 15.8747C11.1792 15.3681 11.3327 14.7594 11.2739 14.1524C11.215 13.5454 10.9476 12.9775 10.5171 12.5456C10.0228 12.0504 9.35213 11.7715 8.65243 11.7703ZM20.9164 15.6772L20.7414 15.8872C20.8966 16.0246 21.0968 16.1003 21.3041 16.0998C21.6077 16.0998 21.7958 15.9415 21.7958 15.686C21.7958 15.4462 21.6261 15.3517 21.3714 15.2826C21.1413 15.224 21.0827 15.1951 21.0827 15.1076C21.0827 15.0376 21.1509 14.9921 21.2577 14.9921C21.3852 14.9988 21.5075 15.045 21.6077 15.1242L21.7617 14.9028C21.6247 14.7916 21.4542 14.7299 21.2778 14.7278H21.2664C21.2085 14.7203 21.1497 14.7251 21.0937 14.7418C21.0378 14.7585 20.986 14.7868 20.9416 14.8249C20.8973 14.8629 20.8615 14.9098 20.8365 14.9626C20.8115 15.0154 20.7979 15.0728 20.7966 15.1312C20.7966 15.4077 20.9899 15.4768 21.2419 15.539C21.4712 15.6002 21.5097 15.6405 21.5097 15.714C21.5097 15.7875 21.4388 15.84 21.3198 15.84C21.1713 15.8363 21.0292 15.7788 20.9199 15.6781L20.9164 15.6772ZM22.1152 14.7427V16.0823H23.1328V15.8198H22.4039V15.5398H23.0357V15.2773H22.4039V15.0061H23.1223V14.7436L22.1152 14.7427ZM19.7859 14.734L19.2084 16.078H19.5077L19.6302 15.7787H20.1981L20.3179 16.0788H20.6277L20.0572 14.7331L19.7859 14.734ZM16.8328 14.734L16.2527 16.078H16.5519L16.6744 15.7787H17.2397L17.3631 16.0788H17.6711L17.0971 14.7331L16.8328 14.734ZM14.3242 14.734L13.7502 16.078H14.0494L14.1719 15.7787H14.7372L14.8597 16.0788H15.1677L14.5902 14.734H14.3242ZM15.5684 15.014V16.078H15.8624V15.014H16.2711V14.7427H15.1598V15.0131L15.5684 15.014ZM12.4079 14.7427V16.078H12.9277C13.0183 16.0826 13.109 16.0688 13.1942 16.0373C13.2793 16.0058 13.3571 15.9573 13.423 15.8947C13.4888 15.8322 13.5412 15.7569 13.577 15.6735C13.6128 15.5901 13.6313 15.5003 13.6313 15.4095C13.6313 15.3187 13.6128 15.2288 13.577 15.1454C13.5412 15.062 13.4888 14.9867 13.423 14.9242C13.3571 14.8617 13.2793 14.8132 13.1942 14.7817C13.109 14.7502 13.0183 14.7363 12.9277 14.741L12.4079 14.7427ZM17.9204 14.7427V16.071H18.5574C18.8751 16.071 19.0579 15.9371 19.0579 15.7052C19.0616 15.6299 19.0387 15.5556 18.9933 15.4954C18.9479 15.4351 18.8829 15.3926 18.8094 15.3753C18.8547 15.3526 18.8939 15.3194 18.9238 15.2785C18.9537 15.2376 18.9734 15.1902 18.9813 15.1401C18.9892 15.0901 18.985 15.0388 18.9691 14.9907C18.9532 14.9426 18.9261 14.899 18.8899 14.8635C18.802 14.7862 18.6893 14.7431 18.5723 14.7418H18.5408L17.9204 14.7427ZM12.3458 13.4127V13.4626C12.3565 13.6403 12.4359 13.8069 12.5672 13.9272C12.6908 14.0389 12.8512 14.1012 13.0178 14.1022H13.0484C13.2587 14.1028 13.4622 14.0276 13.6216 13.8905V13.3051H13.0432V13.5597H13.3389V13.7443C13.2616 13.7972 13.1701 13.8252 13.0764 13.8248H13.0327C12.9288 13.8136 12.8329 13.7642 12.7634 13.6863C12.6938 13.6083 12.6557 13.5073 12.6564 13.4029C12.657 13.2985 12.6964 13.198 12.7669 13.1209C12.8374 13.0438 12.934 12.9957 13.0379 12.9857H13.0484C13.1763 12.9856 13.2991 13.0355 13.3906 13.1248L13.5778 12.9017C13.4449 12.783 13.2731 12.717 13.0948 12.7162H13.0519H13.0318C12.8493 12.7181 12.6747 12.7913 12.5453 12.9201C12.4177 13.0507 12.3472 13.2266 12.3493 13.4092L12.3458 13.4127ZM22.3261 12.739V13.502C22.3171 13.6664 22.3734 13.8277 22.4827 13.9508C22.5387 14.0021 22.6044 14.0415 22.676 14.0668C22.7475 14.092 22.8234 14.1026 22.8992 14.0978C22.9796 14.1062 23.0609 14.0962 23.137 14.0686C23.213 14.0411 23.2818 13.9967 23.3383 13.9388C23.3948 13.8809 23.4374 13.811 23.463 13.7343C23.4887 13.6576 23.4966 13.5761 23.4863 13.4958V12.7416H23.1923V13.5046C23.1923 13.7085 23.0882 13.8257 22.9071 13.8257C22.7259 13.8257 22.6192 13.7058 22.6192 13.4958V12.739H22.3261ZM23.8774 12.739V14.0777H24.1653V13.2106L24.5372 13.775H24.5459L24.9204 13.201V14.076H25.2144V12.739H24.8986L24.5486 13.3033L24.1986 12.739H23.8774ZM18.1899 12.739V14.0777H18.4778V13.2272L19.1271 14.0751H19.3782V12.739H19.0903V13.5597L18.4612 12.739H18.1899ZM16.8249 12.739V14.0777H17.8452V13.8152H17.1207V13.5352H17.7498V13.2727H17.1207V13.0015H17.8364V12.739H16.8249ZM15.4547 12.739V14.0777H16.4723V13.8152H15.7478V13.5352H16.3769V13.2727H15.7478V13.0015H16.4636V12.739H15.4547ZM21.1273 12.739V14.0751H22.0898V13.8126H21.4213V12.739H21.1273ZM19.7824 12.739V14.0716H20.0764V13.6691H20.2996C20.3667 13.6782 20.435 13.6728 20.4999 13.6534C20.5648 13.634 20.6248 13.6009 20.6759 13.5565C20.727 13.512 20.7681 13.4571 20.7963 13.3955C20.8245 13.3339 20.8392 13.267 20.8394 13.1992C20.8404 13.134 20.8274 13.0693 20.8013 13.0096C20.7752 12.9498 20.7366 12.8963 20.6881 12.8527C20.6396 12.8091 20.5824 12.7764 20.5202 12.7568C20.458 12.7372 20.3923 12.7311 20.3276 12.739H19.7824ZM14.2874 13.6385H14.5193L14.8081 14.069H15.1519L14.8247 13.5938C14.9106 13.5653 14.9849 13.5095 15.0363 13.435C15.0878 13.3605 15.1136 13.2713 15.1099 13.1808C15.1132 13.125 15.1047 13.069 15.0852 13.0166C15.0656 12.9642 15.0353 12.9164 14.9962 12.8763C14.8969 12.788 14.7686 12.7391 14.6357 12.739H13.9943V14.0655H14.2883V13.6393L14.2874 13.6385ZM8.6533 16.6467C8.13748 16.6482 7.63667 16.4732 7.23403 16.1508C6.8314 15.8283 6.55117 15.3779 6.43989 14.8742C6.3286 14.3705 6.39296 13.8439 6.62226 13.3819C6.85157 12.9198 7.23203 12.5501 7.70046 12.3341C8.1689 12.1182 8.69711 12.0689 9.1974 12.1946C9.69768 12.3202 10.1399 12.6133 10.4507 13.025C10.7615 13.4367 10.922 13.9423 10.9058 14.4579C10.8895 14.9734 10.6974 15.4679 10.3613 15.8592L10.3167 15.91C10.1061 16.142 9.84939 16.3274 9.56292 16.4543C9.27645 16.5812 8.96661 16.6467 8.6533 16.6467ZM8.6778 12.5587C8.42465 12.5578 8.17394 12.6082 7.94087 12.707C7.7078 12.8058 7.49721 12.9509 7.32189 13.1335C7.14656 13.3162 7.01013 13.5325 6.92089 13.7694C6.83164 14.0063 6.79142 14.2588 6.80268 14.5117C6.8232 15.0016 7.03643 15.4636 7.39593 15.7971C7.51539 15.9267 7.6769 16.0098 7.8518 16.0316C8.10205 16.0316 8.2893 15.7516 8.53255 15.3981V15.392C8.67972 15.1647 8.84226 14.9478 9.01905 14.7427C9.20421 14.5451 9.40209 14.3598 9.61143 14.188C9.9133 13.9386 10.1732 13.7225 10.1758 13.488C10.1647 13.3946 10.134 13.3047 10.0857 13.224C10.0375 13.1434 9.97276 13.0738 9.8958 13.0198C9.55802 12.7254 9.12589 12.5618 8.6778 12.5587ZM18.5574 15.8155H18.2074V15.5267H18.5487C18.6896 15.5267 18.7613 15.5792 18.7666 15.6772C18.7718 15.7752 18.6939 15.8155 18.5574 15.8155ZM12.9504 15.8155H12.7011V15.0087L12.9277 15.014H12.9706C13.0206 15.0162 13.0697 15.0287 13.1148 15.0505C13.1599 15.0723 13.2002 15.103 13.2331 15.1408C13.267 15.178 13.2932 15.2217 13.31 15.2692C13.3269 15.3167 13.334 15.367 13.3311 15.4173V15.4567C13.3293 15.5067 13.3173 15.5558 13.2958 15.601C13.2742 15.6461 13.2437 15.6864 13.2059 15.7192C13.1358 15.7822 13.0446 15.8165 12.9504 15.8155ZM20.0974 15.5215H19.7369L19.9119 15.084L20.0931 15.5162L20.0974 15.5215ZM17.1391 15.5215H16.7838L16.9588 15.084L17.1338 15.5162L17.1391 15.5215ZM14.6339 15.5215H14.2734L14.4554 15.084L14.6304 15.5162L14.6339 15.5215ZM18.4752 15.287H18.2127V15H18.5006C18.6231 15 18.6904 15.049 18.6904 15.1373V15.1426C18.6878 15.2362 18.6152 15.2852 18.4752 15.2852V15.287ZM8.14405 15.1452C8.1009 15.1437 8.05968 15.127 8.02768 15.098C7.85176 14.9261 7.751 14.6916 7.74739 14.4457C7.74378 14.1998 7.83763 13.9624 8.00843 13.7855C8.17148 13.6174 8.392 13.5172 8.62582 13.5049C8.85964 13.4925 9.08948 13.569 9.2693 13.719C9.28897 13.7335 9.30504 13.7523 9.31627 13.774C9.3275 13.7957 9.33358 13.8197 9.33405 13.8441C9.3253 13.9386 9.22993 14.0191 9.08468 14.1381C8.96434 14.2319 8.85142 14.3349 8.74693 14.4461C8.64609 14.5643 8.55369 14.6894 8.47043 14.8206C8.3558 15.0026 8.26305 15.1452 8.14405 15.1452ZM20.0721 13.4171V13.0085H20.3013C20.4501 13.0085 20.5393 13.0846 20.5393 13.2106V13.2333C20.5335 13.283 20.5098 13.3288 20.4726 13.3622C20.4353 13.3956 20.3872 13.4142 20.3372 13.4145H20.3066L20.0729 13.4188L20.0721 13.4171ZM14.5832 13.39H14.2866V13.0067H14.5771C14.7241 13.0067 14.8098 13.0767 14.8098 13.1975C14.8098 13.3182 14.7232 13.39 14.5832 13.39Z" fill="#5135FF"/>
<path opacity="0.75" d="M4.408 26.3477C4.0011 26.3468 3.61119 26.1845 3.32379 25.8965C3.0364 25.6084 2.875 25.2181 2.875 24.8112V23.2782H18.7475V23.4182L18.2015 23.8557L18.1822 23.8724C17.9843 24.0372 17.8437 24.2607 17.7808 24.5106C17.7179 24.7604 17.7359 25.0238 17.8322 25.2627L18.2461 26.234C18.2626 26.2744 18.2813 26.3138 18.3021 26.3521L4.408 26.3477ZM16.3973 6.87462C16.1516 6.76926 15.8871 6.71493 15.6198 6.71493C15.3525 6.71493 15.088 6.76926 14.8424 6.87462L3.34225 11.8009V8.56337C3.34217 8.39191 3.39247 8.22421 3.48689 8.08109C3.58132 7.93798 3.71571 7.82576 3.87338 7.75837L14.9281 3.0185C15.1464 2.92416 15.3816 2.87549 15.6194 2.87549C15.8571 2.87549 16.0924 2.92416 16.3106 3.0185L27.3593 7.75925C27.5158 7.82756 27.6489 7.94017 27.7422 8.08322C27.8355 8.22626 27.8848 8.39347 27.8843 8.56425V11.8017L16.3973 6.87462Z" fill="#5135FF"/>
<path d="M26.4617 28.0774L25.4992 28.4878C25.4297 28.5166 25.3527 28.5222 25.2797 28.5037C25.2067 28.4853 25.1416 28.4438 25.0941 28.3854L24.3941 27.4999C23.9942 27.5148 23.8227 27.5148 23.4447 27.5157H23.3896L22.6992 28.4213C22.6663 28.4694 22.6201 28.5068 22.5662 28.5289C22.4798 28.5641 22.3831 28.5641 22.2967 28.5289L21.3342 28.1404C21.2627 28.1146 21.2022 28.065 21.163 27.9998C21.1238 27.9346 21.1082 27.8579 21.119 27.7826L21.2493 26.6529C20.9728 26.3686 20.8416 26.2408 20.58 25.9888L20.5353 25.9451L19.4136 26.0991C19.3386 26.111 19.2618 26.0971 19.1958 26.0595C19.1298 26.022 19.0785 25.9631 19.0505 25.8926L18.6401 24.9301C18.6119 24.8604 18.6065 24.7835 18.6247 24.7105C18.643 24.6376 18.6839 24.5723 18.7416 24.5241L19.6288 23.8241C19.614 23.4268 19.6131 23.2439 19.6113 22.8808V22.8213L18.7057 22.1327C18.6446 22.0879 18.6004 22.0237 18.5805 21.9506C18.5607 21.8775 18.5662 21.7997 18.5963 21.7302L18.9831 20.7677C18.9974 20.7255 19.0203 20.6867 19.0505 20.6538C19.0806 20.621 19.1173 20.5948 19.1581 20.5769C19.2134 20.5542 19.2737 20.5461 19.3331 20.5533L20.4636 20.6828C20.7506 20.4054 20.8696 20.2812 21.1321 20.0091L21.1697 19.9688L21.0192 18.8453C21.0074 18.7703 21.0215 18.6936 21.0592 18.6277C21.0969 18.5618 21.156 18.5108 21.2266 18.4831L22.1891 18.0718C22.259 18.043 22.3362 18.0372 22.4097 18.0551C22.4831 18.073 22.5489 18.1138 22.5977 18.1716L23.2977 19.0588C23.6941 19.0439 23.877 19.0439 24.241 19.0422H24.3031L24.99 18.1357C25.0234 18.087 25.0702 18.049 25.1247 18.0263C25.1673 18.0086 25.2129 17.9995 25.259 17.9995C25.3051 17.9995 25.3508 18.0086 25.3933 18.0263L26.3558 18.4131C26.4272 18.4391 26.4875 18.4889 26.5267 18.554C26.5658 18.6191 26.5815 18.6957 26.5711 18.7709L26.4416 19.9014C26.7225 20.1919 26.8493 20.3144 27.1267 20.5813L27.1547 20.6093L28.2756 20.4553C28.3503 20.4474 28.4257 20.4633 28.4908 20.5009C28.5558 20.5385 28.6073 20.5957 28.6378 20.6644L29.0482 21.6269C29.077 21.6965 29.0826 21.7735 29.0641 21.8465C29.0457 21.9194 29.0042 21.9845 28.9458 22.0321L28.0586 22.7321C28.0743 23.1398 28.0752 23.3192 28.0761 23.7086V23.7374L28.9817 24.4234C29.043 24.4683 29.0872 24.5326 29.1072 24.6059C29.1273 24.6791 29.1219 24.757 29.092 24.8268L28.714 25.7963C28.6996 25.8385 28.6766 25.8772 28.6465 25.91C28.6164 25.9429 28.5797 25.9691 28.539 25.9871C28.4837 26.01 28.4234 26.0181 28.364 26.0107L27.2265 25.8768C26.9421 26.1524 26.8143 26.2846 26.5623 26.5462L26.5195 26.5908L26.6735 27.7126C26.6853 27.7882 26.6709 27.8656 26.6327 27.932C26.5945 27.9983 26.5348 28.0496 26.4635 28.0774M23.1078 21.6322C22.7828 21.77 22.5059 22.0011 22.3122 22.2963C22.1184 22.5915 22.0166 22.9375 22.0196 23.2906C22.0226 23.6437 22.1302 23.9879 22.3288 24.2798C22.5274 24.5717 22.8082 24.7982 23.1355 24.9305C23.4629 25.0628 23.8221 25.0951 24.1678 25.0233C24.5135 24.9514 24.8301 24.7786 25.0776 24.5268C25.3251 24.275 25.4923 23.9554 25.5582 23.6086C25.6241 23.2617 25.5856 22.9031 25.4476 22.5781C25.262 22.1435 24.9117 21.8002 24.4735 21.6234C24.0352 21.4466 23.5448 21.4507 23.1096 21.6348" fill="#5135FF"/>
</svg>
