<svg width="32" height="32" viewBox="0 0 32 32" fill="none" xmlns="http://www.w3.org/2000/svg">
<path opacity="0.45" d="M23.6231 30H4.00188C3.4708 29.9992 2.96173 29.7901 2.58641 29.4175C2.2111 29.045 2.00021 28.5395 2 28.013V3.98405C2.00063 3.45792 2.21187 2.95379 2.58718 2.58183C2.9625 2.20987 3.47121 2.00046 4.00188 2.00005L18.625 2V7.77696C18.6254 8.10146 18.7557 8.41224 18.9872 8.64163C19.2187 8.87101 19.5328 8.99979 19.8601 9L25.625 9.00005V28.0122C25.625 28.5389 25.4143 29.044 25.039 29.4167C24.6636 29.7895 24.1543 29.9992 23.6231 30Z" fill="#5135FF"/>
<path opacity="0.75" d="M25.625 9.00003L19.8485 9C19.5241 8.99979 19.213 8.8708 18.9836 8.64137C18.7542 8.41194 18.6252 8.10083 18.625 7.77637V2" fill="#5135FF"/>
<path d="M5.5 16.7639V10.8531H7.05237V15.5738H9.56739V16.7639H5.5Z" fill="#5135FF"/>
<path d="M12.9137 16.875C11.1532 16.875 9.95636 15.7166 9.95636 13.7808C9.95636 11.8449 11.1532 10.75 12.9137 10.75C14.6742 10.75 15.871 11.8528 15.871 13.7808C15.871 15.7166 14.6742 16.875 12.9137 16.875ZM12.9137 15.6532C13.7636 15.6532 14.2926 14.9233 14.2926 13.7808C14.2926 12.6383 13.7636 11.9639 12.9137 11.9639C12.0638 11.9639 11.5434 12.6383 11.5434 13.7808C11.5434 14.9233 12.0638 15.6532 12.9137 15.6532Z" fill="#5135FF"/>
<path d="M19.9742 16.875C18.1877 16.875 16.7741 15.8436 16.7741 13.8442C16.7741 11.8766 18.2224 10.75 19.9482 10.75C20.8935 10.75 21.57 11.115 22.0123 11.5196L21.197 12.4241C20.8762 12.1622 20.5379 11.9639 20.0002 11.9639C19.0463 11.9639 18.3611 12.6462 18.3611 13.7966C18.3611 14.9709 18.9335 15.6532 20.139 15.6532C20.3645 15.6532 20.6073 15.5976 20.7461 15.5024V14.5504H19.7227V13.392H22.125V16.153C21.674 16.5497 20.8762 16.875 19.9742 16.875Z" fill="#5135FF"/>
<path d="M30 23.0153L23.875 17.75V21.25H17.75V24.75H23.875V28.25L30 23.0153Z" fill="#5135FF"/>
</svg>
