<svg width="32" height="32" viewBox="0 0 32 32" fill="none" xmlns="http://www.w3.org/2000/svg">
<path d="M7.71544 16.1887L11.72 10.4082C11.7951 10.2978 11.8959 10.2074 12.0138 10.1448C12.1317 10.0822 12.263 10.0493 12.3965 10.0489C12.4395 10.0489 12.4825 10.0525 12.5249 10.0596C12.6781 10.0841 12.8212 10.1513 12.9378 10.2535C13.0544 10.3556 13.1399 10.4887 13.1843 10.6372L15.854 19.5367L17.7476 16.5723C17.8217 16.4553 17.9241 16.3589 18.0453 16.292C18.1665 16.2251 18.3027 16.1899 18.4411 16.1896H28.9808C29.6217 14.8765 29.9684 13.4393 29.9968 11.9784V11.5706C30.0551 9.5574 29.3124 7.60331 27.9316 6.13713C26.5508 4.67095 24.6447 3.81244 22.6317 3.75C21.2196 3.76903 19.8429 4.19501 18.6669 4.97686C17.4909 5.75872 16.5653 6.86324 16.0013 8.15795C15.4365 6.8635 14.5105 5.75928 13.3343 4.97752C12.158 4.19575 10.7814 3.76957 9.3692 3.75C7.35591 3.81291 5.44976 4.67178 4.06887 6.13822C2.68798 7.60466 1.94509 9.55894 2.00317 11.5724V11.9802C2.0324 13.4401 2.37908 14.8762 3.01914 16.1887H7.71544Z" fill="#5135FF"/>
<path d="M18.8912 17.8353L16.2744 21.9369C16.1896 22.0696 16.0685 22.1751 15.9255 22.241C15.7826 22.307 15.6237 22.3306 15.4678 22.309C15.3118 22.2875 15.1653 22.2217 15.0456 22.1194C14.9258 22.0172 14.8379 21.8828 14.7922 21.7321L12.0973 12.7491L8.82214 17.4805C8.74689 17.5909 8.6459 17.6812 8.52789 17.7438C8.40988 17.8065 8.27841 17.8394 8.14483 17.8398H3.91564C7.71185 23.9545 15.8675 28.7209 16.0013 28.7325C16.1531 28.7325 24.2971 23.9563 28.0888 17.8371L18.8912 17.8353Z" fill="#5135FF"/>
</svg>
