<svg width="32" height="32" viewBox="0 0 32 32" fill="none" xmlns="http://www.w3.org/2000/svg">
<path d="M15.825 29.9437L10.3125 25.9102C10.275 25.8839 10.2444 25.8489 10.2232 25.8082C10.202 25.7674 10.1909 25.7222 10.1909 25.6763C10.1904 25.6374 10.1977 25.5988 10.2122 25.5627C10.2267 25.5267 10.2483 25.4939 10.2756 25.4663C10.3029 25.4387 10.3354 25.4169 10.3711 25.402C10.4069 25.3872 10.4453 25.3797 10.484 25.3799H13.6742V23.6212H18.3363V25.3799H21.523C21.5843 25.3797 21.6441 25.399 21.6939 25.4349C21.7437 25.4709 21.7809 25.5217 21.8003 25.5801C21.8197 25.6386 21.8202 25.7017 21.8019 25.7605C21.7835 25.8192 21.7472 25.8707 21.698 25.9075L16.175 29.9437C16.1252 29.9803 16.0652 30 16.0035 30C15.9418 30 15.8818 29.9803 15.832 29.9437H15.825ZM3.75 21.5469V18.3452H2V13.6601H3.75V10.4531C3.75036 10.3918 3.76983 10.3321 3.80567 10.2824C3.84151 10.2328 3.89192 10.1956 3.94983 10.1762C4.00774 10.1568 4.07024 10.1561 4.12856 10.1743C4.18688 10.1924 4.23809 10.2284 4.275 10.2773L8.28862 15.8241C8.32503 15.8741 8.34465 15.9345 8.34465 15.9965C8.34465 16.0585 8.32503 16.1188 8.28862 16.1688L4.275 21.7192C4.24869 21.7567 4.21382 21.7873 4.17332 21.8084C4.13282 21.8295 4.08787 21.8405 4.04225 21.8406C4.00384 21.8407 3.96578 21.8332 3.93027 21.8185C3.89476 21.8037 3.8625 21.7821 3.83534 21.7548C3.80818 21.7275 3.78666 21.6951 3.77201 21.6594C3.75736 21.6237 3.74988 21.5855 3.75 21.5469ZM27.725 21.7227L23.7114 16.1767C23.675 16.1267 23.6553 16.0664 23.6553 16.0044C23.6553 15.9424 23.675 15.8821 23.7114 15.832L27.725 10.2808C27.7512 10.2432 27.7861 10.2126 27.8266 10.1914C27.8671 10.1703 27.9121 10.1593 27.9578 10.1594C27.9962 10.1592 28.0343 10.1666 28.0699 10.1813C28.1054 10.196 28.1377 10.2176 28.1649 10.2449C28.1921 10.2722 28.2136 10.3047 28.2282 10.3405C28.2428 10.3762 28.2502 10.4145 28.25 10.4531V13.6601H30V18.3452H28.25V21.5469C28.2504 21.5857 28.243 21.6242 28.2283 21.6601C28.2136 21.696 28.192 21.7286 28.1646 21.756C28.1372 21.7833 28.1046 21.8049 28.0688 21.8195C28.033 21.834 27.9946 21.8412 27.956 21.8406C27.9106 21.8401 27.8659 21.8288 27.8258 21.8076C27.7856 21.7863 27.751 21.7557 27.725 21.7183V21.7227ZM13.6716 8.37876V6.62008H10.4805C10.4192 6.62027 10.3594 6.60101 10.3096 6.56507C10.2598 6.52912 10.2226 6.47831 10.2032 6.41986C10.1838 6.36141 10.1833 6.29831 10.2016 6.23953C10.22 6.18075 10.2563 6.12929 10.3055 6.09247L15.825 2.0563C15.8748 2.01972 15.9348 2 15.9965 2C16.0582 2 16.1182 2.01972 16.168 2.0563L21.6875 6.08984C21.7249 6.11617 21.7554 6.15119 21.7764 6.19192C21.7974 6.23264 21.8083 6.27786 21.8083 6.32374C21.8088 6.3626 21.8017 6.40118 21.7872 6.43722C21.7728 6.47327 21.7513 6.50605 21.7241 6.53365C21.6969 6.56125 21.6645 6.58311 21.6287 6.59795C21.593 6.6128 21.5547 6.62032 21.516 6.62008H18.3336V8.37876H13.6716Z" fill="#5135FF"/>
<path d="M17.7508 14.2414H14.2508V17.7584H17.7508V14.2414Z" fill="#5135FF"/>
<path opacity="0.75" d="M17.752 23.0358V21.2771H19.502V23.0358H17.752ZM12.502 23.0358V21.2771H14.252V23.0358H12.502ZM11.417 21.2771C11.3295 21.277 11.2429 21.2595 11.1622 21.2258C11.0815 21.1921 11.0081 21.1427 10.9464 21.0805C10.8846 21.0182 10.8357 20.9444 10.8023 20.8632C10.7689 20.7819 10.7518 20.6949 10.752 20.607V19.5184H9.00195V17.7597H10.752V14.2423H9.00195V12.4837H10.752V11.3924C10.7524 11.2154 10.8227 11.0458 10.9473 10.9207C11.0719 10.7956 11.2408 10.7252 11.417 10.725H12.502V8.96631H14.252V10.725H17.752V8.96631H19.502V10.725H20.587C20.7633 10.7252 20.9323 10.7957 21.0569 10.921C21.1816 11.0463 21.2517 11.2161 21.252 11.3933V20.607C21.2517 20.7842 21.1816 20.954 21.0569 21.0793C20.9323 21.2046 20.7633 21.2751 20.587 21.2753L11.417 21.2771ZM12.502 13.2971V18.7032C12.502 18.9193 12.5873 19.1265 12.7392 19.2793C12.8911 19.4322 13.0972 19.5182 13.3122 19.5184H18.6917C18.9067 19.5182 19.1128 19.4322 19.2647 19.2793C19.4166 19.1265 19.502 18.9193 19.502 18.7032V13.2971C19.5015 13.0813 19.4159 12.8746 19.2641 12.7221C19.1122 12.5696 18.9064 12.4839 18.6917 12.4837H13.3122C13.0975 12.4837 12.8915 12.5693 12.7396 12.7219C12.5877 12.8744 12.5022 13.0813 12.502 13.2971ZM21.252 19.5184V17.7597H23.002V19.5184H21.252ZM21.252 14.2423V12.4837H23.002V14.2423H21.252Z" fill="#5135FF"/>
</svg>
