<svg width="32" height="32" viewBox="0 0 32 32" fill="none" xmlns="http://www.w3.org/2000/svg">
<path d="M25.5999 25.6791H17.6785C16.9 25.6826 16.1444 25.4157 15.5409 24.924C15.258 24.6956 15.0232 24.4135 14.8499 24.0939C14.6766 23.7743 14.5682 23.4236 14.5311 23.062C14.4997 22.7086 14.5395 22.3525 14.6482 22.0148C14.7568 21.6771 14.9322 21.3646 15.1637 21.0958C15.4473 20.7697 15.7926 20.5029 16.1798 20.3108C16.5669 20.1187 16.9883 20.0052 17.4195 19.9767C17.7715 19.1519 18.3513 18.4444 19.091 17.9373C19.8307 17.4303 20.6996 17.1446 21.5959 17.1137C21.6904 17.1041 21.7822 17.1041 21.9065 17.1041C23.0549 17.0562 24.1794 17.4418 25.0567 18.1846C25.9339 18.9273 26.4998 19.9727 26.642 21.1133C27.0977 21.2743 27.494 21.5694 27.7788 21.9599C28.0637 22.3503 28.2238 22.8178 28.238 23.3008C28.2007 23.965 27.9025 24.5875 27.4084 25.0329C26.9144 25.4784 26.2643 25.7106 25.5999 25.6791Z" fill="#5135FF"/>
<path d="M21.6247 26.7518V25.3273H20.7795V26.7518H21.6247Z" fill="#5135FF"/>
<path d="M28.7761 29.145H24.8972C24.8044 29.145 24.7154 29.1081 24.6498 29.0424C24.5841 28.9768 24.5472 28.8878 24.5472 28.795V28.3732H23.4911V28.795C23.4911 28.8878 23.4542 28.9768 23.3886 29.0424C23.323 29.1081 23.2339 29.145 23.1411 29.145H19.2622C19.1694 29.145 19.0804 29.1081 19.0148 29.0424C18.9491 28.9768 18.9122 28.8878 18.9122 28.795V28.3732H17.8552V28.795C17.8552 28.8409 17.8462 28.8864 17.8286 28.9289C17.811 28.9714 17.7852 29.0099 17.7527 29.0424C17.7202 29.0749 17.6816 29.1007 17.6392 29.1183C17.5967 29.1359 17.5512 29.145 17.5052 29.145H13.6264C13.5335 29.145 13.4445 29.1081 13.3789 29.0424C13.3132 28.9768 13.2764 28.8878 13.2764 28.795V27.1001C13.2764 27.0073 13.3132 26.9182 13.3789 26.8526C13.4445 26.787 13.5335 26.7501 13.6264 26.7501H17.5052C17.5981 26.7501 17.6871 26.787 17.7527 26.8526C17.8184 26.9182 17.8552 27.0073 17.8552 27.1001V27.5271H18.9114V27.1001C18.9114 27.0073 18.9482 26.9182 19.0139 26.8526C19.0795 26.787 19.1685 26.7501 19.2614 26.7501H23.1402C23.2331 26.7501 23.3221 26.787 23.3877 26.8526C23.4534 26.9182 23.4902 27.0073 23.4902 27.1001V27.5271H24.5464V27.1001C24.5464 27.0073 24.5832 26.9182 24.6489 26.8526C24.7145 26.787 24.8035 26.7501 24.8964 26.7501H28.7752C28.8681 26.7501 28.9571 26.787 29.0227 26.8526C29.0884 26.9182 29.1252 27.0073 29.1252 27.1001V28.795C29.1252 28.8876 29.0885 28.9765 29.023 29.0421C28.9576 29.1077 28.8688 29.1447 28.7761 29.145ZM25.3829 27.5971C25.3365 27.5971 25.2919 27.6155 25.2591 27.6483C25.2263 27.6812 25.2079 27.7257 25.2079 27.7721V28.1221C25.2079 28.1685 25.2263 28.213 25.2591 28.2458C25.2919 28.2786 25.3365 28.2971 25.3829 28.2971H26.9342C26.9807 28.2971 27.0252 28.2786 27.058 28.2458C27.0908 28.213 27.1092 28.1685 27.1092 28.1221V27.7721C27.1092 27.7257 27.0908 27.6812 27.058 27.6483C27.0252 27.6155 26.9807 27.5971 26.9342 27.5971H25.3829ZM19.747 27.5971C19.7006 27.5971 19.6561 27.6155 19.6232 27.6483C19.5904 27.6812 19.572 27.7257 19.572 27.7721V28.1221C19.572 28.1685 19.5904 28.213 19.6232 28.2458C19.6561 28.2786 19.7006 28.2971 19.747 28.2971H21.2984C21.3448 28.2971 21.3893 28.2786 21.4221 28.2458C21.4549 28.213 21.4734 28.1685 21.4734 28.1221V27.7721C21.4734 27.7257 21.4549 27.6812 21.4221 27.6483C21.3893 27.6155 21.3448 27.5971 21.2984 27.5971H19.747ZM14.112 27.5971C14.0656 27.5971 14.0211 27.6155 13.9882 27.6483C13.9554 27.6812 13.937 27.7257 13.937 27.7721V28.1221C13.937 28.1685 13.9554 28.213 13.9882 28.2458C14.0211 28.2786 14.0656 28.2971 14.112 28.2971H15.6634C15.7098 28.2971 15.7543 28.2786 15.7871 28.2458C15.8199 28.213 15.8384 28.1685 15.8384 28.1221V27.7721C15.8384 27.7257 15.8199 27.6812 15.7871 27.6483C15.7543 27.6155 15.7098 27.5971 15.6634 27.5971H14.112Z" fill="#5135FF"/>
<g opacity="0.45">
<path d="M14.0326 24.7915H3.87211C3.6074 24.7909 3.35378 24.6851 3.16692 24.4976C2.98007 24.3101 2.87526 24.0561 2.87549 23.7914V4.1013C2.87526 3.83667 2.9801 3.58277 3.16698 3.3954C3.35386 3.20802 3.60748 3.10251 3.87211 3.10205H17.8336C18.0982 3.10251 18.3519 3.20802 18.5387 3.3954C18.7256 3.58277 18.8305 3.83667 18.8302 4.1013V16.8544C17.945 17.3745 17.2143 18.1211 16.7136 19.0174C15.7946 19.2141 14.965 19.7057 14.3511 20.4174C13.8342 21.0151 13.5237 21.7635 13.4657 22.5516C13.4077 23.3397 13.6053 24.1255 14.0291 24.7924L14.0326 24.7915ZM5.96511 12.8303C5.91235 12.8301 5.86165 12.8507 5.8241 12.8878C5.78654 12.9249 5.7652 12.9753 5.76474 13.0281V14.1454C5.76497 14.1984 5.78618 14.2492 5.82374 14.2865C5.86129 14.3239 5.91212 14.3449 5.96511 14.3449H15.738C15.7906 14.3445 15.8409 14.3232 15.8779 14.2859C15.915 14.2485 15.9357 14.198 15.9357 14.1454V13.0289C15.936 13.0029 15.931 12.9771 15.9212 12.953C15.9113 12.9289 15.8967 12.907 15.8783 12.8886C15.8599 12.8702 15.838 12.8556 15.8139 12.8458C15.7898 12.8359 15.764 12.8309 15.738 12.8312L5.96511 12.8303ZM5.96511 9.55868C5.91204 9.55891 5.86121 9.58009 5.82368 9.61762C5.78615 9.65515 5.76497 9.70598 5.76474 9.75905V10.8756C5.76542 10.9285 5.78675 10.9791 5.82418 11.0165C5.86161 11.0539 5.91218 11.0752 5.96511 11.0759H15.738C15.7907 11.0755 15.8412 11.0541 15.8782 11.0166C15.9153 10.979 15.936 10.9283 15.9357 10.8756V9.75905C15.936 9.70629 15.9153 9.65559 15.8782 9.61803C15.8412 9.58048 15.7907 9.55914 15.738 9.55868H5.96511ZM5.96511 6.28618C5.91218 6.28686 5.86161 6.30818 5.82418 6.34562C5.78675 6.38305 5.76542 6.43362 5.76474 6.48655V7.6013C5.76474 7.65444 5.78585 7.70541 5.82343 7.74299C5.861 7.78056 5.91197 7.80168 5.96511 7.80168H15.738C15.7642 7.8018 15.7902 7.79668 15.8144 7.78662C15.8386 7.77656 15.8606 7.76176 15.879 7.74309C15.8974 7.72443 15.9119 7.70227 15.9217 7.67792C15.9314 7.65357 15.9362 7.62752 15.9357 7.6013V6.48655C15.936 6.43379 15.9153 6.38309 15.8782 6.34553C15.8412 6.30798 15.7907 6.28664 15.738 6.28618H5.96511Z" fill="#5135FF"/>
<path d="M21.3001 27.5975H19.7478C19.6512 27.5975 19.5728 27.6758 19.5728 27.7725V28.1268C19.5728 28.2235 19.6512 28.3018 19.7478 28.3018H21.3001C21.3967 28.3018 21.4751 28.2235 21.4751 28.1268V27.7725C21.4751 27.6758 21.3967 27.5975 21.3001 27.5975Z" fill="#5135FF"/>
<path d="M15.6642 27.5975H14.1119C14.0153 27.5975 13.9369 27.6758 13.9369 27.7725V28.1268C13.9369 28.2235 14.0153 28.3018 14.1119 28.3018H15.6642C15.7608 28.3018 15.8392 28.2235 15.8392 28.1268V27.7725C15.8392 27.6758 15.7608 27.5975 15.6642 27.5975Z" fill="#5135FF"/>
<path d="M26.9351 27.5975H25.3828C25.2862 27.5975 25.2078 27.6758 25.2078 27.7725V28.1268C25.2078 28.2235 25.2862 28.3018 25.3828 28.3018H26.9351C27.0317 28.3018 27.1101 28.2235 27.1101 28.1268V27.7725C27.1101 27.6758 27.0317 27.5975 26.9351 27.5975Z" fill="#5135FF"/>
</g>
<path opacity="0.75" d="M18.8281 16.8511V12.4927H23.1716C23.4358 12.4943 23.6886 12.6004 23.8749 12.7878C24.0611 12.9751 24.1656 13.2286 24.1656 13.4928V16.4766C23.4437 16.1947 22.6753 16.0508 21.9002 16.0522C21.8127 16.0522 21.7148 16.0522 21.5931 16.0583H21.5406C20.5854 16.0935 19.6537 16.364 18.8281 16.8458L18.8281 16.8511Z" fill="#5135FF"/>
</svg>
