<svg width="32" height="32" viewBox="0 0 32 32" fill="none" xmlns="http://www.w3.org/2000/svg">
<path opacity="0.45" d="M8.30689 22.8242C6.72364 22.7945 5.21677 22.1382 4.11666 20.9992C3.01655 19.8603 2.41297 18.3315 2.43826 16.7482C2.42525 15.495 2.80125 14.2686 3.51446 13.238C4.22766 12.2075 5.24295 11.4235 6.42039 10.9942C6.73404 8.82917 7.79441 6.84183 9.41814 5.37582C11.0366 3.90609 13.1467 3.09548 15.3329 3.10358C17.5191 3.11167 19.6231 3.93789 21.2306 5.41957C22.863 6.91493 23.9137 8.93952 24.1969 11.1351C25.2058 11.5723 26.0726 12.2826 26.6994 13.1861C27.3378 14.0997 27.7181 15.1685 27.8001 16.2801C27.598 16.2104 27.3857 16.1749 27.1719 16.1751H16.6133C16.0848 16.1806 15.5801 16.3956 15.21 16.773C14.8398 17.1503 14.6346 17.6591 14.6393 18.1876V18.7196C14.6393 18.7537 14.6393 18.7869 14.6393 18.8289V22.8242H8.65076V22.8146C8.51776 22.8216 8.41014 22.8242 8.30689 22.8242ZM16.0191 22.8242V18.7992C16.0189 18.7223 16.026 18.6455 16.0401 18.5699C16.0538 18.5002 16.0735 18.4317 16.0988 18.3652C16.0477 18.5054 16.0217 18.6535 16.0218 18.8027V22.8224L16.0191 22.8242ZM16.0191 18.7196V18.1876C16.0188 18.0321 16.0775 17.8824 16.1834 17.7687C16.2894 17.6549 16.4346 17.5857 16.5896 17.5751C16.4353 17.5873 16.2913 17.6571 16.1859 17.7705C16.0806 17.884 16.0217 18.0328 16.0209 18.1876V18.7126L16.0191 18.7196Z" fill="#5135FF"/>
<path d="M28.8107 28.0802H15.0619C14.9629 28.0803 14.8648 28.0609 14.7733 28.0231C14.6818 27.9853 14.5986 27.9298 14.5286 27.8599C14.4585 27.7899 14.403 27.7068 14.365 27.6154C14.3271 27.5239 14.3076 27.4259 14.3076 27.3269V26.7879H19.7562V27.0565C19.7562 27.1565 19.796 27.2524 19.8667 27.3231C19.9374 27.3939 20.0333 27.4336 20.1334 27.4336H23.7392C23.8393 27.4336 23.9352 27.3939 24.0059 27.3231C24.0766 27.2524 24.1164 27.1565 24.1164 27.0565V26.7879H29.565V27.3269C29.565 27.5265 29.4857 27.718 29.3446 27.8593C29.2035 28.0005 29.0121 28.08 28.8125 28.0802" fill="#5135FF"/>
<path d="M29.5632 26.7896H14.3076L15.9824 25.1131C16.0126 25.2247 16.0788 25.3231 16.1708 25.3932C16.2627 25.4633 16.3752 25.5011 16.4907 25.5007H17.1216C17.0455 25.5007 27.3766 25.5007 27.3766 25.5007C27.4926 25.5012 27.6054 25.4632 27.6976 25.3928C27.7897 25.3223 27.8559 25.2234 27.8859 25.1114L29.5632 26.7896Z" fill="#5135FF"/>
<path d="M27.9454 17.6354C27.9454 17.4961 27.8901 17.3626 27.7916 17.2641C27.6931 17.1657 27.5596 17.1104 27.4204 17.1104H16.4444C16.3051 17.1104 16.1716 17.1657 16.0731 17.2641C15.9747 17.3626 15.9194 17.4961 15.9194 17.6354V26.0266C15.9194 26.1658 15.9747 26.2994 16.0731 26.3978C16.1716 26.4963 16.3051 26.5516 16.4444 26.5516H27.4186C27.5579 26.5516 27.6914 26.4963 27.7898 26.3978C27.8883 26.2994 27.9436 26.1658 27.9436 26.0266L27.9454 17.6354ZM26.6477 23.917C26.6436 24.0189 26.5994 24.1152 26.5247 24.1847C26.4499 24.2542 26.3507 24.2913 26.2487 24.288H17.5539C17.4519 24.2913 17.3527 24.2542 17.2779 24.1847C17.2032 24.1152 17.159 24.0189 17.1549 23.917V18.7256C17.1587 18.6236 17.2029 18.5274 17.2778 18.458C17.3526 18.3886 17.4519 18.3517 17.5539 18.3555H26.2487C26.3507 18.3519 26.4498 18.3889 26.5246 18.4582C26.5994 18.5276 26.6436 18.6237 26.6477 18.7256V23.917Z" fill="#5135FF"/>
</svg>
