<svg width="32" height="32" viewBox="0 0 32 32" fill="none" xmlns="http://www.w3.org/2000/svg">
<path opacity="0.45" d="M16.0419 26.5009H2.87499C2.64293 26.5009 2.42037 26.4087 2.25628 26.2446C2.09219 26.0805 2 25.858 2 25.6259V20.3757C2 20.1436 2.09219 19.921 2.25628 19.7569C2.42037 19.5928 2.64293 19.5007 2.87499 19.5007H14.3112C14.3721 21.9303 14.9621 24.3175 16.0402 26.4957L16.0419 26.5009ZM14.2499 17.7506H2.87499C2.64293 17.7506 2.42037 17.6584 2.25628 17.4943C2.09219 17.3302 2 17.1076 2 16.8756V11.6254C2 11.3933 2.09219 11.1707 2.25628 11.0066C2.42037 10.8425 2.64293 10.7503 2.87499 10.7503H25.6248C25.8569 10.7503 26.0795 10.8425 26.2436 11.0066C26.4076 11.1707 26.4998 11.3933 26.4998 11.6254V14.0422L23.7331 12.6754C23.5051 12.5622 23.254 12.5033 22.9994 12.5033C22.7449 12.5033 22.4938 12.5622 22.2657 12.6754L14.8335 16.3584C14.6585 16.4429 14.5108 16.5751 14.4076 16.7398C14.3043 16.9045 14.2497 17.0951 14.2499 17.2894C14.2499 17.4417 14.2499 17.5966 14.2499 17.7506ZM25.6248 9.00026H2.87499C2.64293 9.00026 2.42037 8.90807 2.25628 8.74397C2.09219 8.57987 2 8.3573 2 8.12523V2.87503C2 2.64296 2.09219 2.42039 2.25628 2.25629C2.42037 2.09219 2.64293 2 2.87499 2H25.6248C25.8569 2 26.0795 2.09219 26.2436 2.25629C26.4076 2.42039 26.4998 2.64296 26.4998 2.87503V8.12523C26.4998 8.3573 26.4076 8.57987 26.2436 8.74397C26.0795 8.90807 25.8569 9.00026 25.6248 9.00026Z" fill="#5135FF"/>
<path d="M14.3104 19.4999H3.75V17.7499H14.25C14.2561 18.3431 14.2736 18.9302 14.3077 19.4999H14.3104ZM24.75 10.7499H3.75V8.99989H24.75V10.7499ZM23.6545 5.93739H15.342C15.0595 5.92609 14.7923 5.80591 14.5964 5.60203C14.4005 5.39815 14.2911 5.12638 14.2911 4.84365C14.2911 4.56091 14.4005 4.28914 14.5964 4.08526C14.7923 3.88138 15.0595 3.7612 15.342 3.7499H23.6545C23.8018 3.744 23.9488 3.76793 24.0866 3.82024C24.2244 3.87255 24.3503 3.95217 24.4566 4.05431C24.5629 4.15646 24.6475 4.27903 24.7053 4.41466C24.7631 4.5503 24.7928 4.69621 24.7928 4.84365C24.7928 4.99108 24.7631 5.13699 24.7053 5.27263C24.6475 5.40827 24.5629 5.53084 24.4566 5.63298C24.3503 5.73513 24.2244 5.81474 24.0866 5.86705C23.9488 5.91936 23.8018 5.94329 23.6545 5.93739Z" fill="#5135FF"/>
<path fill-rule="evenodd" clip-rule="evenodd" d="M22.6394 29.9426C22.8744 30.0181 23.1271 30.0181 23.3621 29.9426C29.1599 28.0657 30.0121 22.8323 29.9999 18.1669C29.9999 18.0094 29.9565 17.855 29.8743 17.7207C29.7922 17.5864 29.6745 17.4773 29.5344 17.4056L23.5844 14.3921C23.4025 14.2997 23.2013 14.2516 22.9973 14.2516C22.7932 14.2516 22.5921 14.2997 22.4101 14.3921L16.4602 17.4056C16.32 17.4773 16.2023 17.5864 16.1202 17.7207C16.0381 17.855 15.9946 18.0094 15.9947 18.1669C15.992 22.8367 16.8417 28.0666 22.6394 29.9426Z" fill="#5135FF"/>
</svg>
