<svg width="32" height="32" viewBox="0 0 32 32" fill="none" xmlns="http://www.w3.org/2000/svg">
<g opacity="0.45">
<path d="M12.676 4.48394C11.8456 4.3617 10.9988 4.53931 10.2874 4.98493C9.57613 5.43055 9.04684 6.11501 8.79451 6.91556C8.75081 7.05927 8.67189 7.18977 8.56492 7.29521C8.45795 7.40065 8.32633 7.47769 8.18201 7.51931C7.35322 7.74914 6.62164 8.24225 6.09763 8.92425C5.57362 9.60625 5.2856 10.4402 5.27701 11.3002C5.27701 11.4831 5.31026 11.6554 5.32513 11.8357C5.32783 11.8502 5.326 11.8652 5.31988 11.8786C5.31231 11.8897 5.30209 11.8987 5.29013 11.9048C4.61944 12.2981 4.05526 12.8497 3.64688 13.5113C3.15063 14.35 2.95567 15.333 3.09426 16.2976C3.23286 17.2622 3.6967 18.1505 4.40901 18.8156C4.53133 18.9311 4.61552 19.0812 4.65038 19.2458C4.68524 19.4104 4.66911 19.5817 4.60413 19.7369C4.36655 20.3227 4.28923 20.9612 4.38013 21.5867C4.5402 22.4956 5.0409 23.3092 5.78013 23.8617C6.37171 24.3661 7.1057 24.6738 7.88013 24.7419C8.06654 24.7584 8.24439 24.8276 8.39285 24.9415C8.54132 25.0554 8.65424 25.2093 8.71838 25.3851C9.00101 26.08 9.49295 26.6697 10.1259 27.0724C10.7589 27.475 11.5016 27.6706 12.2508 27.6321C13.1872 27.5775 14.067 27.166 14.7093 26.4824C15.3515 25.7988 15.7073 24.895 15.7035 23.9571V8.01281C15.7083 7.15866 15.4047 6.33147 14.8486 5.68318C14.2924 5.0349 13.521 4.60908 12.676 4.48394Z" fill="#5135FF"/>
<path d="M19.3663 4.48406C20.1968 4.3616 21.0438 4.53911 21.7554 4.98474C22.4669 5.43037 22.9963 6.11497 23.2486 6.91569C23.2923 7.05939 23.3713 7.1899 23.4782 7.29534C23.5852 7.40078 23.7168 7.47781 23.8611 7.51944C24.6899 7.74926 25.4215 8.24237 25.9455 8.92438C26.4695 9.60638 26.7575 10.4403 26.7661 11.3003C26.7661 11.4832 26.7329 11.6556 26.718 11.8358C26.7153 11.8503 26.7171 11.8653 26.7233 11.8787C26.7308 11.8898 26.7411 11.8988 26.753 11.9049C27.4223 12.2985 27.9853 12.8497 28.3928 13.5106C28.889 14.3492 29.084 15.3322 28.9454 16.2968C28.8068 17.2614 28.3429 18.1498 27.6306 18.8148C27.5083 18.9304 27.4241 19.0804 27.3893 19.245C27.3544 19.4097 27.3705 19.581 27.4355 19.7362C27.6731 20.3219 27.7504 20.9604 27.6595 21.5859C27.4994 22.4948 26.9987 23.3085 26.2595 23.8609C25.6679 24.3654 24.9339 24.673 24.1595 24.7412C23.9731 24.7576 23.7953 24.8269 23.6468 24.9408C23.4983 25.0547 23.3854 25.2085 23.3213 25.3843C23.0386 26.0792 22.5467 26.6689 21.9137 27.0716C21.2807 27.4743 20.5381 27.6699 19.7889 27.6313C18.8525 27.5767 17.9726 27.1653 17.3304 26.4817C16.6881 25.7981 16.3323 24.8943 16.3361 23.9563V8.01294C16.3314 7.1584 16.6354 6.33088 17.1921 5.68254C17.7488 5.0342 18.5208 4.60863 19.3663 4.48406Z" fill="#5135FF"/>
</g>
<path d="M8.72076 25.3861C8.65759 25.2102 8.54526 25.0562 8.39713 24.9424C8.249 24.8285 8.07129 24.7596 7.88513 24.7438C7.1109 24.6754 6.37706 24.3681 5.78513 23.8644C5.04616 23.3117 4.54554 22.4982 4.38513 21.5894C4.29542 20.9636 4.3727 20.3252 4.60913 19.7388C4.67486 19.5835 4.69147 19.4118 4.65675 19.2468C4.62202 19.0818 4.53762 18.9313 4.41488 18.8157C3.70201 18.1514 3.23774 17.2633 3.09911 16.2988C2.96049 15.3343 3.15584 14.3514 3.65276 13.5132C4.05895 12.8529 4.6196 12.3013 5.28638 11.9058C5.2986 11.9 5.3087 11.8905 5.31526 11.8787C5.32193 11.8654 5.32379 11.8503 5.32051 11.8358C5.30563 11.6608 5.27326 11.4858 5.27326 11.3021C5.28055 10.4669 5.55186 9.65548 6.04835 8.9839C6.54484 8.31232 7.24107 7.81502 8.03738 7.56319C8.09928 7.52273 8.16764 7.49313 8.23951 7.47569C8.25351 7.47569 8.28676 7.46432 8.33926 7.45382C8.44814 7.39936 8.54474 7.32323 8.62313 7.23009C8.70153 7.13695 8.76006 7.02877 8.79513 6.91219C9.02106 6.19342 9.47193 5.56624 10.0813 5.12309C10.6906 4.67994 11.4262 4.44427 12.1796 4.45082C12.3453 4.45154 12.5107 4.46294 12.6749 4.48494C13.5205 4.60953 14.2926 5.03523 14.8493 5.68375C15.4061 6.33227 15.7099 7.16 15.705 8.01469V23.9554C15.709 24.8936 15.3532 25.7976 14.7107 26.4813C14.0682 27.165 13.188 27.5763 12.2514 27.6304C12.1998 27.6304 12.1446 27.6357 12.0921 27.6357C11.3698 27.6403 10.6626 27.4285 10.0617 27.0276C9.46079 26.6266 8.99375 26.0549 8.72076 25.3861ZM9.89151 24.9486C10.0711 25.3849 10.3766 25.7578 10.769 26.0198C11.1614 26.2817 11.6229 26.4209 12.0948 26.4194H12.2015C12.8201 26.3725 13.3975 26.0915 13.8161 25.6337C14.2347 25.1759 14.4631 24.5757 14.4546 23.9554V16.9686C13.7116 16.9118 12.9923 16.6813 12.3546 16.2957C11.5316 16.3966 10.7719 16.7886 10.2126 17.4008C10.1052 17.5307 9.95169 17.6141 9.78424 17.6335C9.61679 17.6529 9.44831 17.6068 9.31401 17.5049C9.24741 17.4561 9.19147 17.3943 9.14964 17.3231C9.1078 17.2519 9.08094 17.1729 9.0707 17.091C9.06046 17.0091 9.06705 16.9259 9.09008 16.8467C9.11311 16.7674 9.15209 16.6936 9.20463 16.6299C9.77439 15.9853 10.5069 15.5057 11.3256 15.2413C11.2311 15.0838 11.1506 14.9272 11.0745 14.7793C10.9909 14.6118 10.8986 14.4489 10.798 14.2911C10.5525 13.9077 10.2012 13.6038 9.78651 13.4161C9.45149 13.267 9.0892 13.1889 8.72251 13.1868C8.63907 13.1909 8.55567 13.1781 8.47729 13.1492C8.39891 13.1203 8.32715 13.0759 8.26629 13.0187C8.20542 12.9615 8.15671 12.8926 8.12304 12.8162C8.08937 12.7397 8.07145 12.6573 8.07033 12.5737C8.06921 12.4902 8.08493 12.4073 8.11654 12.33C8.14815 12.2527 8.19501 12.1825 8.25432 12.1237C8.31363 12.0649 8.38418 12.0186 8.46176 11.9876C8.53934 11.9567 8.62237 11.9416 8.70588 11.9434C9.2595 11.9422 9.80708 12.0585 10.3124 12.2847C10.9515 12.5676 11.4941 13.0311 11.8734 13.6182C12.0017 13.8155 12.1185 14.02 12.2234 14.2307C12.332 14.4669 12.4689 14.689 12.6311 14.8922C12.7176 14.989 12.8134 15.0769 12.9173 15.1547L12.94 15.1696C13.392 15.4764 13.9142 15.664 14.4581 15.7147V8.01469C14.4692 7.45679 14.2778 6.91376 13.9194 6.48605C13.561 6.05833 13.0599 5.77486 12.5086 5.68807C12.3996 5.67362 12.2897 5.66631 12.1796 5.66619C11.6929 5.66232 11.2178 5.81466 10.824 6.10083C10.4303 6.387 10.1387 6.79191 9.99213 7.25607C9.97096 7.3273 9.94613 7.39739 9.91776 7.46607C10.3223 7.54045 10.7025 7.71275 11.0251 7.96793C11.3477 8.22311 11.6029 8.55339 11.7684 8.92994C11.8086 9.00694 12.2059 9.74632 12.8595 9.76557C12.9414 9.76683 13.0223 9.78422 13.0975 9.81674C13.1727 9.84926 13.2408 9.89628 13.2978 9.9551C13.3549 10.0139 13.3998 10.0834 13.4299 10.1596C13.4601 10.2358 13.475 10.3171 13.4738 10.3991C13.4725 10.481 13.4551 10.5619 13.4226 10.6371C13.3901 10.7123 13.343 10.7804 13.2842 10.8374C13.2254 10.8944 13.1559 10.9393 13.0797 10.9695C13.0036 10.9997 12.9222 11.0146 12.8403 11.0133H12.8175C12.3441 10.9648 11.8913 10.7948 11.503 10.5197C11.1147 10.2447 10.804 9.87401 10.6011 9.44357C10.5984 9.4369 10.5952 9.43046 10.5915 9.42432C10.4925 9.20139 10.3329 9.01072 10.1309 8.87398C9.92884 8.73725 9.69252 8.65993 9.44876 8.65082C9.1475 8.61493 8.84246 8.62674 8.54488 8.68582L8.49938 8.69457C7.93523 8.86178 7.43935 9.20503 7.0842 9.67416C6.72904 10.1433 6.53323 10.7137 6.52538 11.3021C6.52538 11.3484 6.53588 11.4254 6.54551 11.5077C6.55513 11.5899 6.56301 11.6599 6.57001 11.7369C6.59403 11.9885 6.54028 12.2414 6.41601 12.4614C6.30658 12.6547 6.1489 12.8163 5.95838 12.9304C5.45883 13.219 5.03809 13.6262 4.73338 14.1161C4.37442 14.7219 4.23353 15.4324 4.33413 16.1294C4.43472 16.8264 4.77075 17.468 5.28638 17.9477C5.58321 18.2278 5.78842 18.5911 5.87509 18.9899C5.96175 19.3887 5.92582 19.8044 5.77201 20.1824C5.60913 20.5754 5.55708 21.0054 5.62151 21.4258C5.73712 22.0287 6.07661 22.5654 6.57176 22.9282C6.96601 23.2711 7.45707 23.483 7.97701 23.5346C8.11116 23.5436 8.24416 23.5653 8.37426 23.5993C8.43078 23.5977 8.48727 23.6036 8.54226 23.6168C8.85045 23.6761 9.16594 23.6876 9.47763 23.6509C9.71676 23.6384 9.94764 23.5593 10.1443 23.4227C10.3409 23.286 10.4955 23.0972 10.5906 22.8774C10.5906 22.8704 10.5976 22.8652 10.6003 22.8582C10.8034 22.4282 11.114 22.058 11.5021 21.7833C11.8903 21.5086 12.3427 21.3388 12.8158 21.2902C12.8994 21.2839 12.9835 21.2946 13.063 21.3217C13.1424 21.3487 13.2156 21.3915 13.2781 21.4475C13.3406 21.5036 13.3911 21.5716 13.4267 21.6477C13.4622 21.7237 13.482 21.8061 13.4849 21.89C13.4878 21.9739 13.4737 22.0575 13.4435 22.1358C13.4133 22.2141 13.3675 22.2854 13.3091 22.3456C13.2506 22.4058 13.1805 22.4536 13.1031 22.486C13.0257 22.5185 12.9426 22.5349 12.8586 22.5344C12.2085 22.5537 11.8025 23.3071 11.7675 23.3701C11.5966 23.7585 11.3307 24.0977 10.9943 24.3564C10.6579 24.6151 10.2618 24.7851 9.84251 24.8506C9.86263 24.8803 9.87488 24.9153 9.89151 24.9512V24.9486Z" fill="#5135FF"/>
<path d="M19.8656 5.6653C19.7556 5.6654 19.6457 5.67271 19.5366 5.68717C18.9858 5.77449 18.4852 6.05801 18.1271 6.48544C17.769 6.91288 17.5775 7.45539 17.588 8.01292V23.9554C17.58 24.5759 17.8089 25.1761 18.228 25.6338C18.6471 26.0914 19.2249 26.3721 19.8437 26.4185H19.9505C20.4218 26.4202 20.8829 26.2814 21.275 26.0199C21.6671 25.7584 21.9724 25.386 22.152 24.9503C22.3033 24.556 22.564 24.213 22.9034 23.9617C23.2428 23.7103 23.6469 23.5609 24.0682 23.531C24.5873 23.4776 25.0767 23.2635 25.4682 22.9185C25.9646 22.5594 26.3061 22.0253 26.4237 21.424C26.4856 21.0055 26.4343 20.5779 26.275 20.1859C26.1204 19.8081 26.084 19.3923 26.1706 18.9933C26.2571 18.5944 26.4625 18.231 26.7597 17.9512C27.2744 17.4711 27.6098 16.8296 27.7102 16.133C27.8106 15.4363 27.67 14.7263 27.3118 14.1204C27.0072 13.6303 26.5864 13.2228 26.0868 12.9339C25.8969 12.819 25.7396 12.6572 25.6301 12.464C25.5056 12.2437 25.4519 11.9905 25.4761 11.7387C25.4831 11.6617 25.4918 11.5847 25.5015 11.5094C25.5111 11.4342 25.5207 11.351 25.5207 11.3038C25.512 10.709 25.3114 10.1328 24.9488 9.66125C24.5861 9.18966 24.0809 8.84783 23.5082 8.68667C23.1646 8.59001 22.8509 8.40848 22.5958 8.15879C22.3408 7.90909 22.1526 7.59926 22.0487 7.2578C21.9022 6.79467 21.6114 6.39057 21.2187 6.10465C20.8261 5.81873 20.3522 5.66599 19.8665 5.6688M19.8665 4.45342C20.6203 4.44677 21.3562 4.68272 21.9657 5.12641C22.5751 5.57009 23.0257 6.19801 23.251 6.91742C23.2945 7.06133 23.3733 7.19205 23.4803 7.29766C23.5873 7.40327 23.719 7.48041 23.8635 7.52205C24.6925 7.75111 25.4245 8.24355 25.9492 8.92508C26.4738 9.60661 26.7626 10.4403 26.772 11.3003C26.772 11.4823 26.7387 11.6555 26.723 11.8358C26.7206 11.8503 26.7224 11.8652 26.7282 11.8787C26.736 11.8896 26.7462 11.8986 26.758 11.9049C27.4271 12.2987 27.9897 12.8503 28.3968 13.5114C28.8935 14.3499 29.0888 15.3329 28.9503 16.2976C28.8119 17.2623 28.348 18.1507 27.6356 18.8157C27.5135 18.9314 27.4294 19.0814 27.3946 19.246C27.3597 19.4105 27.3757 19.5818 27.4405 19.737C27.6784 20.3227 27.7557 20.9613 27.6645 21.5868C27.5046 22.4958 27.0038 23.3094 26.2645 23.8618C25.6728 24.3661 24.9389 24.6737 24.1645 24.742C23.9782 24.7586 23.8005 24.8279 23.6522 24.9418C23.504 25.0557 23.3912 25.2095 23.3271 25.3852C23.0547 26.0556 22.5872 26.6288 21.9851 27.0302C21.383 27.4317 20.6741 27.6429 19.9505 27.6365C19.8971 27.6365 19.8437 27.6365 19.7895 27.6365C18.853 27.5819 17.973 27.1705 17.3306 26.487C16.6882 25.8034 16.3322 24.8996 16.3358 23.9615V8.01905C16.3299 7.16312 16.6336 6.3339 17.191 5.68426C17.7483 5.03462 18.5217 4.60836 19.3686 4.48405C19.5339 4.46195 19.7005 4.45084 19.8673 4.4508" fill="#5135FF"/>
<path d="M21.042 11.0098C21.0306 10.8568 21.0799 10.7055 21.1794 10.5887C21.2788 10.4719 21.4203 10.399 21.5731 10.3859L26.0356 10.4043C26.1881 10.4194 26.3286 10.4938 26.4268 10.6114C26.525 10.7291 26.573 10.8806 26.5606 11.0334C26.572 11.1863 26.5226 11.3376 26.4232 11.4544C26.3237 11.5712 26.1823 11.6441 26.0295 11.6573L21.567 11.6363C21.415 11.6209 21.2751 11.5469 21.177 11.4298C21.0789 11.3128 21.0305 11.162 21.042 11.0098Z" fill="#5135FF"/>
<path d="M20.3358 12.5979C20.0258 12.5981 19.7228 12.5063 19.4649 12.3342C19.2071 12.1621 19.0061 11.9174 18.8874 11.6311C18.7686 11.3447 18.7375 11.0296 18.7978 10.7256C18.8582 10.4215 19.0074 10.1422 19.2265 9.92294C19.4457 9.70369 19.7249 9.55435 20.0289 9.49381C20.3329 9.43327 20.6481 9.46425 20.9345 9.58284C21.2209 9.70143 21.4657 9.90229 21.6379 10.16C21.8102 10.4178 21.9021 10.7208 21.9021 11.0308C21.9016 11.4461 21.7365 11.8443 21.4429 12.1381C21.1493 12.4318 20.7512 12.5972 20.3358 12.5979ZM20.3358 10.7184C20.2738 10.7182 20.2131 10.7365 20.1615 10.7708C20.1098 10.8052 20.0695 10.8541 20.0457 10.9114C20.0219 10.9686 20.0156 11.0317 20.0277 11.0925C20.0397 11.1534 20.0696 11.2093 20.1135 11.2531C20.1573 11.297 20.2132 11.3268 20.2741 11.3389C20.3349 11.351 20.398 11.3447 20.4552 11.3209C20.5125 11.2971 20.5614 11.2568 20.5958 11.2051C20.6301 11.1535 20.6484 11.0928 20.6482 11.0308C20.648 10.948 20.615 10.8687 20.5565 10.8101C20.4979 10.7516 20.4186 10.7186 20.3358 10.7184Z" fill="#5135FF"/>
<path d="M22.7955 15.3822L23.7109 16.2597C23.8069 16.14 23.9461 16.063 24.0985 16.0454C24.2509 16.0278 24.4041 16.071 24.5248 16.1656L26.8606 18.3437C26.9618 18.4588 27.0138 18.609 27.0054 18.762C26.9969 18.9151 26.9287 19.0587 26.8155 19.1619C26.7195 19.2815 26.5802 19.3585 26.4278 19.3761C26.2754 19.3937 26.1223 19.3505 26.0015 19.2559L23.6671 17.079C23.566 16.9639 23.5142 16.8137 23.5226 16.6607C23.531 16.5078 23.5991 16.3642 23.7122 16.2608" fill="#5135FF"/>
<path d="M23.2292 17.6109C22.9192 17.6111 22.6162 17.5193 22.3583 17.3473C22.1005 17.1752 21.8995 16.9305 21.7808 16.6441C21.662 16.3578 21.6309 16.0427 21.6912 15.7386C21.7516 15.4346 21.9008 15.1553 22.1199 14.936C22.339 14.7167 22.6183 14.5674 22.9223 14.5069C23.2263 14.4463 23.5414 14.4773 23.8279 14.5959C24.1143 14.7145 24.3591 14.9153 24.5313 15.1731C24.7035 15.4308 24.7955 15.7338 24.7955 16.0438C24.795 16.4591 24.6299 16.8574 24.3363 17.1511C24.0427 17.4449 23.6446 17.6102 23.2292 17.6109ZM23.2292 15.7314C23.1672 15.7313 23.1065 15.7495 23.0549 15.7839C23.0032 15.8182 22.9629 15.8671 22.9391 15.9244C22.9153 15.9817 22.909 16.0447 22.9211 16.1056C22.9331 16.1664 22.963 16.2223 23.0068 16.2662C23.0507 16.3101 23.1066 16.3399 23.1674 16.352C23.2283 16.364 23.2913 16.3577 23.3486 16.3339C23.4059 16.3101 23.4548 16.2698 23.4892 16.2182C23.5235 16.1665 23.5418 16.1058 23.5416 16.0438C23.5414 15.961 23.5084 15.8817 23.4498 15.8232C23.3913 15.7647 23.312 15.7317 23.2292 15.7314Z" fill="#5135FF"/>
<path d="M21.7041 22.2834C21.3941 22.2836 21.091 22.1918 20.8332 22.0198C20.5754 21.8477 20.3744 21.603 20.2556 21.3166C20.1369 21.0303 20.1057 20.7152 20.1661 20.4111C20.2265 20.1071 20.3757 19.8278 20.5948 19.6085C20.8139 19.3892 21.0931 19.2399 21.3972 19.1794C21.7012 19.1188 22.0163 19.1498 22.3027 19.2684C22.5891 19.387 22.8339 19.5878 23.0062 19.8456C23.1784 20.1033 23.2703 20.4063 23.2703 20.7163C23.2699 21.1316 23.1047 21.5299 22.8111 21.8236C22.5175 22.1174 22.1194 22.2827 21.7041 22.2834ZM21.7041 20.4039C21.6421 20.4038 21.5814 20.422 21.5297 20.4564C21.4781 20.4907 21.4378 20.5396 21.414 20.5969C21.3902 20.6542 21.3839 20.7172 21.3959 20.7781C21.408 20.8389 21.4379 20.8948 21.4817 20.9387C21.5256 20.9825 21.5815 21.0124 21.6423 21.0245C21.7032 21.0365 21.7662 21.0302 21.8235 21.0064C21.8808 20.9826 21.9297 20.9423 21.964 20.8907C21.9984 20.839 22.0166 20.7783 22.0165 20.7163C22.0162 20.6335 21.9833 20.5542 21.9247 20.4957C21.8662 20.4372 21.7869 20.4042 21.7041 20.4039Z" fill="#5135FF"/>
<path d="M21.0356 20.1178H17.2757V21.3708H21.0356V20.1178Z" fill="#5135FF"/>
</svg>
