<svg width="32" height="32" viewBox="0 0 32 32" fill="none" xmlns="http://www.w3.org/2000/svg">
<path opacity="0.75" d="M20.4951 29.4807L16.5356 25.4643C14.4689 26.7054 12.0195 27.1183 9.66817 26.622C7.31679 26.1257 5.23312 24.756 3.82596 22.7817C2.4188 20.8073 1.78973 18.3709 2.06219 15.9503C2.33464 13.5298 3.48895 11.2998 5.29863 9.69807C7.10831 8.09631 9.44273 7.23832 11.8439 7.29245C14.245 7.34658 16.5396 8.30892 18.2773 9.99065C20.0151 11.6724 21.0706 13.9521 21.2367 16.3826C21.4029 18.813 20.6678 21.2187 19.1755 23.1277L22.9663 26.973C23.1286 27.1376 23.2574 27.333 23.3453 27.5481C23.4332 27.7632 23.4784 27.9937 23.4785 28.2265C23.4785 28.4594 23.4333 28.6899 23.3455 28.905C23.2577 29.1201 23.129 29.3156 22.9668 29.4803C22.8045 29.6449 22.6118 29.7755 22.3998 29.8647C22.1878 29.9538 21.9605 29.9997 21.731 29.9998C21.5015 29.9998 21.2742 29.954 21.0621 29.8649C20.8501 29.7759 20.6574 29.6453 20.4951 29.4807ZM4.65816 17.0708C4.65816 18.4733 5.06817 19.8444 5.83633 21.0105C6.6045 22.1767 7.69632 23.0856 8.97373 23.6224C10.2511 24.1591 11.6568 24.2995 13.0129 24.0259C14.369 23.7523 15.6146 23.0769 16.5923 22.0851C17.57 21.0934 18.2358 19.8298 18.5055 18.4542C18.7753 17.0786 18.6368 15.6528 18.1077 14.357C17.5786 13.0612 16.6826 11.9537 15.5329 11.1745C14.3833 10.3953 13.0317 9.97936 11.649 9.97936C9.79556 9.98147 8.01862 10.7293 6.70803 12.0587C5.39744 13.3881 4.66024 15.1906 4.65816 17.0708Z" fill="#5135FF"/>
<path fill-rule="evenodd" clip-rule="evenodd" d="M23.0091 23.2741V9.09131L14.2705 16.204L23.0091 23.2741Z" fill="#5135FF"/>
<path d="M29.9999 14.4099H21.2614V17.9556H29.9999V14.4099Z" fill="#5135FF"/>
<g opacity="0.45">
<path fill-rule="evenodd" clip-rule="evenodd" d="M26.5049 10.8643V2L21.2617 6.44542L26.5049 10.8643Z" fill="#5135FF"/>
<path d="M30.0003 4.66016H26.5049V8.20586H30.0003V4.66016Z" fill="#5135FF"/>
</g>
</svg>
