<svg width="32" height="32" viewBox="0 0 32 32" fill="none" xmlns="http://www.w3.org/2000/svg">
<path opacity="0.45" d="M13.3214 2.40848C12.3447 2.26396 11.3484 2.47236 10.5115 2.99629C9.67463 3.52021 9.05189 4.32532 8.75512 5.26708C8.70336 5.43662 8.60994 5.59049 8.48338 5.7146C8.35682 5.83872 8.20118 5.92913 8.03067 5.97757C7.05697 6.24764 6.19741 6.82685 5.58148 7.62793C4.96556 8.42901 4.62664 9.40857 4.61578 10.419C4.61578 10.6343 4.65515 10.8373 4.67265 11.049C4.67571 11.0662 4.67358 11.0838 4.66653 11.0998C4.6576 11.1127 4.64557 11.1233 4.63153 11.1304C3.84401 11.5942 3.18196 12.2436 2.70317 13.0221C2.12037 14.0081 1.89159 15.1634 2.05466 16.2971C2.21774 17.4308 2.76291 18.4748 3.59998 19.2564C3.74384 19.3924 3.84285 19.569 3.8838 19.7627C3.92476 19.9564 3.90571 20.158 3.82921 20.3406C3.55027 21.0292 3.45968 21.7797 3.56673 22.5149C3.75487 23.584 4.3438 24.541 5.21337 25.1906C5.91082 25.7859 6.7768 26.1484 7.69032 26.2275C7.90938 26.2469 8.11838 26.3283 8.29285 26.4622C8.46733 26.5961 8.60006 26.7769 8.6755 26.9835C9.00788 27.8005 9.58633 28.4938 10.3306 28.9672C11.0748 29.4406 11.948 29.6705 12.8288 29.6251C13.9301 29.561 14.9649 29.0771 15.7201 28.273C16.4754 27.4689 16.8935 26.4058 16.8885 25.3026V6.55769C16.8939 5.55227 16.5358 4.57876 15.8804 3.81637C15.225 3.05397 14.3162 2.554 13.3214 2.40848Z" fill="#5135FF"/>
<path d="M26.2966 16.6885H21.9811C21.7855 16.6885 21.5979 16.6108 21.4596 16.4725C21.3212 16.3341 21.2435 16.1465 21.2435 15.9509C21.2435 15.7553 21.3212 15.5677 21.4596 15.4293C21.5979 15.291 21.7855 15.2133 21.9811 15.2133H26.2966C26.177 15.4407 26.1148 15.6939 26.1155 15.9509C26.1157 16.2074 26.1775 16.4601 26.2957 16.6876L26.2966 16.6885Z" fill="#5135FF"/>
<path d="M23.8869 13.4729H22.262C22.0667 13.4729 21.8795 13.3954 21.7414 13.2573C21.6033 13.1192 21.5257 12.9319 21.5257 12.7366C21.5257 12.5413 21.6033 12.3541 21.7414 12.216C21.8795 12.0779 22.0667 12.0003 22.262 12.0003H23.4328L24.621 9.65184C24.757 9.86973 24.9436 10.0515 25.1649 10.1818C25.3863 10.312 25.6358 10.3869 25.8924 10.4L24.544 13.0687C24.4821 13.1898 24.388 13.2916 24.2721 13.3629C24.1562 13.4342 24.0229 13.4723 23.8869 13.4729Z" fill="#5135FF"/>
<path d="M24.6201 22.2508L23.4319 19.9032H21.8376C21.7407 19.9032 21.6447 19.8841 21.5552 19.8471C21.4657 19.81 21.3843 19.7556 21.3158 19.6871C21.2472 19.6185 21.1929 19.5372 21.1558 19.4476C21.1187 19.3581 21.0996 19.2621 21.0996 19.1652C21.0996 19.0683 21.1187 18.9723 21.1558 18.8827C21.1929 18.7932 21.2472 18.7118 21.3158 18.6433C21.3843 18.5748 21.4657 18.5204 21.5552 18.4833C21.6447 18.4462 21.7407 18.4271 21.8376 18.4271H23.8851C24.0214 18.4267 24.1551 18.4643 24.2712 18.5357C24.3873 18.6071 24.4812 18.7095 24.5422 18.8314L25.8915 21.5001C25.6346 21.5131 25.3848 21.5882 25.1634 21.7189C24.9419 21.8497 24.7555 22.0322 24.6201 22.2508Z" fill="#5135FF"/>
<path d="M18.8338 11.7072C18.6386 11.7072 18.4514 11.6298 18.3132 11.4921C18.1749 11.3543 18.0969 11.1674 18.0962 10.9722V8.6736C18.0962 8.47789 18.1739 8.29019 18.3122 8.15172C18.4505 8.01325 18.6381 7.93534 18.8338 7.93511H20.4692V6.20088C20.6968 6.32096 20.9503 6.38345 21.2077 6.38287C21.465 6.38384 21.7187 6.32133 21.9461 6.20088V8.6736C21.9459 8.77024 21.9267 8.86588 21.8895 8.95507C21.8523 9.04426 21.7979 9.12526 21.7294 9.19343C21.6609 9.2616 21.5796 9.31561 21.4903 9.35238C21.4009 9.38914 21.3052 9.40795 21.2085 9.40772H19.5723V10.9722C19.5716 11.1675 19.4935 11.3546 19.355 11.4924C19.2166 11.6302 19.0291 11.7074 18.8338 11.7072Z" fill="#5135FF"/>
<path d="M21.2077 7.26574C20.7469 7.26557 20.2965 7.12878 19.9134 6.87268C19.5304 6.61658 19.2319 6.25266 19.0556 5.82693C18.8794 5.40119 18.8333 4.93276 18.9232 4.48084C19.0132 4.02893 19.2351 3.61383 19.5609 3.28801C19.8867 2.96219 20.3018 2.74029 20.7537 2.65035C21.2056 2.56042 21.6741 2.60649 22.0998 2.78274C22.5255 2.95899 22.8895 3.25751 23.1456 3.64056C23.4017 4.02361 23.5385 4.47399 23.5386 4.93476C23.5379 5.55276 23.2921 6.14525 22.8551 6.58225C22.4181 7.01924 21.8257 7.26505 21.2077 7.26574ZM21.2077 4.07902C21.0382 4.07902 20.8726 4.12926 20.7317 4.22339C20.5909 4.31751 20.4811 4.4513 20.4162 4.60783C20.3514 4.76435 20.3344 4.93659 20.3675 5.10276C20.4005 5.26892 20.4821 5.42156 20.6019 5.54136C20.7217 5.66116 20.8744 5.74274 21.0405 5.7758C21.2067 5.80885 21.3789 5.79188 21.5355 5.72705C21.692 5.66221 21.8258 5.55242 21.9199 5.41155C22.014 5.27068 22.0643 5.10506 22.0643 4.93564C22.064 4.70852 21.9737 4.49077 21.8131 4.33018C21.6525 4.16958 21.4348 4.07925 21.2077 4.07902Z" fill="#5135FF"/>
<path d="M20.4683 25.6528V24.0656H18.8338C18.6382 24.0653 18.4508 23.9876 18.3125 23.8493C18.1742 23.711 18.0964 23.5235 18.0962 23.328V20.9042C18.0928 20.8054 18.1093 20.7069 18.1448 20.6146C18.1802 20.5223 18.2339 20.4381 18.3026 20.3669C18.3713 20.2958 18.4537 20.2393 18.5447 20.2006C18.6357 20.162 18.7336 20.1421 18.8325 20.1421C18.9314 20.1421 19.0292 20.162 19.1203 20.2006C19.2113 20.2393 19.2936 20.2958 19.3623 20.3669C19.431 20.4381 19.4847 20.5223 19.5202 20.6146C19.5557 20.7069 19.5722 20.8054 19.5688 20.9042V22.5903H21.2077C21.4034 22.5906 21.5911 22.6684 21.7296 22.8069C21.868 22.9453 21.9459 23.133 21.9461 23.3288V25.6511C21.7181 25.5329 21.465 25.4713 21.2081 25.4713C20.9512 25.4713 20.6981 25.5329 20.47 25.6511L20.4683 25.6528Z" fill="#5135FF"/>
<path d="M21.2077 24.7384C21.6684 24.7386 22.1188 24.8754 22.5019 25.1315C22.8849 25.3876 23.1834 25.7515 23.3597 26.1773C23.5359 26.603 23.582 27.0714 23.4921 27.5233C23.4021 27.9753 23.1802 28.3904 22.8544 28.7162C22.5286 29.042 22.1135 29.2639 21.6616 29.3538C21.2097 29.4438 20.7412 29.3977 20.3155 29.2214C19.8898 29.0452 19.5258 28.7467 19.2697 28.3636C19.0136 27.9806 18.8768 27.5302 18.8767 27.0694C18.8774 26.4514 19.1232 25.8589 19.5602 25.4219C19.9972 24.9849 20.5897 24.7391 21.2077 24.7384ZM21.2077 27.9252C21.3771 27.9252 21.5427 27.8749 21.6836 27.7808C21.8244 27.6867 21.9342 27.5529 21.9991 27.3964C22.0639 27.2398 22.0809 27.0676 22.0478 26.9014C22.0148 26.7353 21.9332 26.5826 21.8134 26.4628C21.6936 26.343 21.5409 26.2614 21.3748 26.2284C21.2086 26.1953 21.0364 26.2123 20.8798 26.2771C20.7233 26.342 20.5895 26.4518 20.4954 26.5926C20.4013 26.7335 20.351 26.8991 20.351 27.0685C20.3513 27.2957 20.4416 27.5134 20.6022 27.674C20.7628 27.8346 20.9805 27.9249 21.2077 27.9252Z" fill="#5135FF"/>
<path d="M27.669 18.2793C27.208 18.2793 26.7573 18.1425 26.374 17.8864C25.9907 17.6303 25.6919 17.2662 25.5155 16.8403C25.3391 16.4144 25.2929 15.9457 25.3828 15.4935C25.4728 15.0414 25.6948 14.626 26.0208 14.3C26.3468 13.974 26.7621 13.752 27.2143 13.6621C27.6664 13.5721 28.1351 13.6183 28.5611 13.7947C28.987 13.9712 29.351 14.2699 29.6072 14.6533C29.8633 15.0366 30 15.4873 30 15.9483C29.9995 16.5663 29.7538 17.159 29.3168 17.596C28.8797 18.0331 28.2871 18.2788 27.669 18.2793ZM27.669 15.0917C27.4996 15.0917 27.334 15.1419 27.1931 15.236C27.0522 15.3302 26.9424 15.4639 26.8776 15.6205C26.8128 15.777 26.7958 15.9492 26.8289 16.1154C26.8619 16.2816 26.9435 16.4342 27.0633 16.554C27.1831 16.6738 27.3357 16.7554 27.5019 16.7884C27.6681 16.8215 27.8403 16.8045 27.9968 16.7397C28.1534 16.6749 28.2871 16.5651 28.3813 16.4242C28.4754 16.2833 28.5256 16.1177 28.5256 15.9483C28.5249 15.7215 28.4344 15.5042 28.2739 15.3439C28.1133 15.1837 27.8958 15.0936 27.669 15.0934V15.0917Z" fill="#5135FF"/>
<path d="M25.9716 6.47912C26.4327 6.47895 26.8835 6.61551 27.2669 6.87154C27.6503 7.12756 27.9492 7.49155 28.1258 7.91747C28.3024 8.34338 28.3487 8.81209 28.2588 9.26431C28.169 9.71654 27.947 10.132 27.6211 10.458C27.2951 10.7841 26.8798 11.0062 26.4276 11.0962C25.9754 11.1862 25.5067 11.1401 25.0807 10.9637C24.6547 10.7873 24.2906 10.4886 24.0344 10.1052C23.7783 9.72187 23.6415 9.27116 23.6415 8.8101C23.6422 8.19225 23.8879 7.59989 24.3247 7.16293C24.7615 6.72596 25.3538 6.48005 25.9716 6.47912ZM25.9716 9.66672C26.1411 9.66672 26.3067 9.61648 26.4476 9.52235C26.5884 9.42822 26.6982 9.29444 26.7631 9.13791C26.8279 8.98139 26.8449 8.80915 26.8118 8.64298C26.7787 8.47682 26.6972 8.32418 26.5774 8.20438C26.4576 8.08458 26.3049 8.003 26.1388 7.96994C25.9726 7.93689 25.8004 7.95386 25.6438 8.01869C25.4873 8.08353 25.3535 8.19332 25.2594 8.33419C25.1653 8.47506 25.115 8.64068 25.115 8.8101C25.1155 9.03715 25.2059 9.25476 25.3664 9.41531C25.527 9.57586 25.7446 9.66625 25.9716 9.66672Z" fill="#5135FF"/>
<path d="M25.9716 20.7616C26.4327 20.7614 26.8835 20.898 27.2669 21.154C27.6503 21.41 27.9492 21.774 28.1258 22.2C28.3024 22.6259 28.3487 23.0946 28.2588 23.5468C28.169 23.999 27.947 24.4144 27.6211 24.7405C27.2951 25.0666 26.8798 25.2887 26.4276 25.3787C25.9754 25.4687 25.5067 25.4226 25.0807 25.2462C24.6547 25.0698 24.2906 24.771 24.0344 24.3877C23.7783 24.0043 23.6415 23.5536 23.6415 23.0926C23.6422 22.4747 23.8879 21.8824 24.3247 21.4454C24.7615 21.0084 25.3538 20.7625 25.9716 20.7616ZM25.9716 23.9492C26.1411 23.9492 26.3067 23.899 26.4476 23.8048C26.5884 23.7107 26.6982 23.5769 26.7631 23.4204C26.8279 23.2639 26.8449 23.0916 26.8118 22.9255C26.7787 22.7593 26.6972 22.6067 26.5774 22.4869C26.4576 22.3671 26.3049 22.2855 26.1388 22.2524C25.9726 22.2194 25.8004 22.2363 25.6438 22.3012C25.4873 22.366 25.3535 22.4758 25.2594 22.6167C25.1653 22.7575 25.115 22.9232 25.115 23.0926C25.1157 23.3195 25.2062 23.5369 25.3667 23.6972C25.5273 23.8576 25.7447 23.9487 25.9716 23.9492Z" fill="#5135FF"/>
<path d="M20.1838 21.3935H16.4467V19.958H19.8262C20.1195 19.9577 20.4007 19.8406 20.6081 19.6333C20.8154 19.4259 20.9321 19.1455 20.9323 18.8523V13.1477C20.9321 12.8545 20.8154 12.5741 20.6081 12.3667C20.4007 12.1594 20.1195 12.0423 19.8262 12.042H16.4467V10.5997H20.1838C20.764 10.5997 21.3206 10.8303 21.7308 11.2405C22.1411 11.6508 22.3713 12.207 22.3713 12.7872V19.206C22.371 19.786 22.1406 20.3426 21.7304 20.7527C21.3202 21.1627 20.7638 21.3935 20.1838 21.3935ZM19.4579 18.4831H16.4467V13.5135H19.4579V18.4831Z" fill="#5135FF"/>
<path d="M8.66872 26.9828C8.59472 26.7764 8.46306 26.5955 8.28937 26.4617C8.11568 26.3278 7.90724 26.2466 7.68879 26.2277C6.77601 26.1486 5.91054 25.7871 5.21271 25.1934C4.34294 24.544 3.75345 23.5875 3.56433 22.5186C3.45844 21.7828 3.54899 21.032 3.82681 20.3425C3.90412 20.16 3.92367 19.9581 3.88285 19.7642C3.84202 19.5702 3.74277 19.3934 3.59845 19.2575C2.76026 18.4765 2.2143 17.4324 2.05118 16.2984C1.88805 15.1644 2.11757 14.0088 2.70164 13.0232C3.1805 12.2466 3.84113 11.5983 4.6265 11.1341C4.64088 11.1274 4.65281 11.1164 4.66063 11.1026C4.66853 11.0869 4.67069 11.0689 4.66675 11.0518C4.64925 10.841 4.61163 10.6371 4.61163 10.4236C4.62056 9.44151 4.93997 8.48744 5.52414 7.69798C6.10831 6.90851 6.92727 6.32413 7.86378 6.0285C7.93687 5.98198 8.01734 5.94825 8.10176 5.92875C8.11751 5.92875 8.15776 5.91475 8.219 5.90338C8.34702 5.83949 8.46064 5.75011 8.55287 5.64072C8.6451 5.53133 8.714 5.40424 8.75534 5.26726C9.0204 4.42131 9.55035 3.68296 10.267 3.16116C10.9836 2.63936 11.849 2.36175 12.7354 2.36929C12.9312 2.37005 13.1267 2.38349 13.3208 2.40954C14.3149 2.55604 15.2227 3.05655 15.8773 3.81903C16.5319 4.58152 16.8892 5.5547 16.8835 6.55962V25.3019C16.8889 26.4055 16.4708 27.469 15.7153 28.2734C14.9598 29.0778 13.9246 29.5616 12.8229 29.6253C12.7617 29.6253 12.6978 29.6314 12.6366 29.6314C11.7862 29.6374 10.9535 29.3883 10.2462 28.9161C9.53882 28.444 8.98934 27.7705 8.66872 26.9828ZM10.045 26.4718C10.2561 26.9849 10.6152 27.4235 11.0767 27.7316C11.5381 28.0398 12.0809 28.2034 12.6357 28.2017C12.6768 28.2017 12.7171 28.2017 12.7617 28.2017C13.4888 28.1463 14.1675 27.8158 14.6596 27.2776C15.1516 26.7393 15.42 26.0338 15.4101 25.3046V17.0866C14.5356 17.0214 13.6887 16.7516 12.9375 16.2991C11.9707 16.4198 11.0788 16.8823 10.423 17.6029C10.2967 17.7558 10.1161 17.8539 9.91915 17.8768C9.72216 17.8996 9.52396 17.8453 9.36605 17.7254C9.28826 17.668 9.22294 17.5954 9.17408 17.512C9.12521 17.4286 9.09381 17.3361 9.08178 17.2402C9.06975 17.1443 9.07734 17.047 9.1041 16.9541C9.13086 16.8612 9.17622 16.7747 9.23743 16.6999C9.90727 15.942 10.7685 15.3781 11.731 15.0672C11.6199 14.8825 11.5228 14.6979 11.4362 14.5247C11.3381 14.3278 11.2297 14.1362 11.1115 13.9507C10.8233 13.4993 10.4102 13.1412 9.92251 12.9199C9.52889 12.7444 9.10318 12.6524 8.67222 12.6496C8.57593 12.6509 8.48032 12.6333 8.39084 12.5978C8.30135 12.5622 8.21975 12.5093 8.1507 12.4422C8.08164 12.3751 8.02647 12.2951 7.98835 12.2066C7.95023 12.1182 7.9299 12.0231 7.92852 11.9268C7.92714 11.8305 7.94474 11.7349 7.98032 11.6454C8.01589 11.5559 8.06874 11.4743 8.13585 11.4053C8.20296 11.3362 8.28301 11.281 8.37144 11.2429C8.45987 11.2048 8.55494 11.1845 8.65122 11.1831C9.30043 11.1809 9.94274 11.3163 10.5358 11.5803C11.2881 11.9126 11.9268 12.4576 12.3732 13.1483C12.5235 13.3789 12.6605 13.6179 12.7836 13.864C12.9113 14.1418 13.0723 14.403 13.263 14.6419C13.3645 14.7573 13.4774 14.8623 13.5999 14.9552L13.627 14.9727C14.1584 15.3333 14.7724 15.5536 15.4119 15.6132V6.55875C15.4254 5.90304 15.2008 5.26466 14.7799 4.76177C14.3589 4.25889 13.77 3.92557 13.1222 3.82353C12.9939 3.80665 12.8648 3.79818 12.7354 3.79815C12.1642 3.79515 11.6069 3.9749 11.1451 4.31115C10.6832 4.6474 10.341 5.12253 10.1684 5.66713C10.1434 5.75083 10.1142 5.83319 10.0809 5.91388C10.5558 6.00203 11.002 6.20503 11.3805 6.50517C11.759 6.80532 12.0584 7.19349 12.2525 7.63586C12.2997 7.72336 12.7678 8.59835 13.5351 8.61848C13.6333 8.61706 13.7307 8.63537 13.8217 8.67232C13.9126 8.70928 13.9952 8.76412 14.0646 8.8336C14.134 8.90308 14.1887 8.98578 14.2255 9.0768C14.2623 9.16782 14.2804 9.2653 14.2788 9.36346C14.2772 9.46162 14.256 9.55847 14.2162 9.64826C14.1765 9.73804 14.1192 9.81894 14.0476 9.88614C13.9761 9.95335 13.8917 10.0055 13.7996 10.0395C13.7076 10.0735 13.6096 10.0887 13.5115 10.0841C13.5019 10.0841 13.4931 10.0841 13.4844 10.0841C12.9289 10.0276 12.3973 9.82887 11.941 9.50699C11.4848 9.18512 11.1192 8.75101 10.8797 8.24661C10.8765 8.23903 10.8727 8.23171 10.8683 8.22473C10.7538 7.96044 10.5672 7.73375 10.3298 7.57064C10.0924 7.40753 9.81392 7.31459 9.52616 7.30249C9.17191 7.26177 8.81346 7.27713 8.46398 7.34799L8.40799 7.35674C7.74535 7.55325 7.16284 7.95637 6.74542 8.50728C6.32801 9.05819 6.09755 9.72808 6.08765 10.4192C6.08765 10.4735 6.0999 10.5645 6.11128 10.6607C6.12265 10.757 6.1314 10.8357 6.14015 10.9311C6.16828 11.2267 6.10507 11.5239 5.95904 11.7824C5.83034 12.0096 5.64494 12.1995 5.42095 12.3337C4.83357 12.6732 4.33893 13.1522 3.9808 13.7284C3.55691 14.4407 3.38979 15.2768 3.50728 16.0973C3.62477 16.9179 4.01977 17.6734 4.6265 18.2381C4.97494 18.5673 5.21584 18.994 5.31763 19.4624C5.41942 19.9308 5.37736 20.419 5.19696 20.8631C5.00709 21.3237 4.94658 21.8275 5.02198 22.32C5.15788 23.0288 5.55706 23.66 6.13927 24.0866C6.60269 24.4897 7.17994 24.7389 7.79116 24.7997C7.94865 24.8104 8.10478 24.8359 8.2575 24.8758C8.32405 24.8741 8.39054 24.8811 8.45524 24.8968C8.8176 24.9666 9.18854 24.9802 9.55503 24.9371C9.8368 24.923 10.109 24.8304 10.3409 24.6697C10.5728 24.5091 10.7552 24.2868 10.8674 24.0279C10.8674 24.0192 10.8762 24.0139 10.8788 24.0052C11.1177 23.4999 11.483 23.0647 11.9393 22.7419C12.3956 22.4191 12.9275 22.2195 13.4835 22.1625C13.5816 22.1557 13.6801 22.1687 13.773 22.2008C13.866 22.2329 13.9515 22.2833 14.0245 22.3492C14.0976 22.4151 14.1566 22.4949 14.1981 22.5841C14.2395 22.6733 14.2626 22.7699 14.266 22.8681C14.2693 22.9664 14.2529 23.0644 14.2176 23.1561C14.1822 23.2479 14.1288 23.3316 14.0604 23.4023C13.9921 23.473 13.9102 23.5292 13.8196 23.5675C13.7291 23.6058 13.6317 23.6255 13.5334 23.6255C12.7687 23.6473 12.2918 24.5337 12.2507 24.6081C12.05 25.0641 11.738 25.4625 11.3433 25.7666C10.9486 26.0707 10.4838 26.2707 9.99163 26.3484C10.0109 26.3887 10.0292 26.4315 10.045 26.4727V26.4718Z" fill="#5135FF"/>
</svg>
