<svg width="32" height="32" viewBox="0 0 32 32" fill="none" xmlns="http://www.w3.org/2000/svg">
<path opacity="0.45" d="M15.2729 19.3629H12.0223C11.8883 19.3629 11.7598 19.3098 11.665 19.2151C11.5702 19.1205 11.5168 18.9921 11.5166 18.8581V18.3016C11.5174 18.1708 11.567 18.045 11.6557 17.9489C11.7444 17.8527 11.8658 17.7932 11.9961 17.7818C12.5647 17.7464 13.131 17.681 13.6927 17.5858C15.1566 17.1562 14.9387 16.3477 14.9361 16.3398H11.5166V6.8032C11.5166 6.52145 12.0416 6.49082 12.2708 6.49082C12.3312 6.49082 12.3706 6.49082 12.3714 6.49082H14.9509C15.5647 6.45568 16.1766 6.58756 16.7214 6.87244C17.2662 7.15733 17.7236 7.58456 18.0449 8.1087C18.3435 8.60324 18.5372 9.15396 18.6137 9.72657V15.4141H18.5577C18.3716 15.4144 18.1874 15.4523 18.0163 15.5255C17.8452 15.5987 17.6907 15.7058 17.5619 15.8402L16.6799 16.7213C16.463 16.9399 16.3241 17.2239 16.2849 17.5293C16.2457 17.8348 16.3082 18.1447 16.4629 18.4109L16.7578 18.9298C16.3126 19.209 15.7985 19.359 15.2729 19.3629ZM17.3073 17.5009C17.326 17.4691 17.3487 17.4397 17.3747 17.4134L18.2672 16.5253L17.3721 17.4178C17.3469 17.4428 17.3257 17.4707 17.3073 17.5009ZM9.99756 16.1884H7.09606C6.42518 16.1526 5.76667 15.9933 5.15356 15.7186C4.53147 15.4513 3.99343 15.0205 3.59669 14.4718C3.19995 13.9231 2.95934 13.2772 2.90044 12.6027C2.90044 12.5817 2.60731 10.5202 4.09219 9.65045C3.57424 9.1709 3.20581 8.55198 3.03118 7.86806C2.85655 7.18415 2.88316 6.46435 3.10781 5.7952C3.28342 5.16589 3.67285 4.61745 4.20911 4.24424C4.74538 3.87102 5.39494 3.69637 6.04606 3.75032C6.30856 3.75032 6.52906 3.77045 6.69269 3.78445L6.78544 3.79232L8.98344 3.87282C9.25565 3.88213 9.5136 3.99685 9.70282 4.19276C9.89204 4.38868 9.99772 4.65045 9.99756 4.92282V16.1841V16.1884ZM20.1336 16.0274V4.92457C20.1329 4.6519 20.2384 4.38968 20.4277 4.19339C20.617 3.9971 20.8752 3.88214 21.1477 3.87282L23.3448 3.7932L23.4384 3.78532C23.6056 3.77045 23.8296 3.75032 24.0877 3.75032C24.7388 3.69637 25.3884 3.87102 25.9246 4.24424C26.4609 4.61745 26.8503 5.16589 27.0259 5.7952C27.2474 6.46469 27.2724 7.18362 27.0979 7.86687C26.9235 8.55013 26.5569 9.16908 26.0416 9.65045C27.5291 10.5202 27.2359 12.5817 27.2333 12.6027C27.1675 13.3287 26.8928 14.0201 26.4425 14.5934C25.9922 15.1666 25.3855 15.5972 24.6958 15.8332L24.4919 15.0912C24.4896 15.0799 24.4858 15.0691 24.4806 15.0588C24.3929 14.7727 24.2163 14.522 23.9766 14.343C23.7368 14.164 23.4463 14.0659 23.1471 14.0631H21.8731C21.5647 14.0608 21.2644 14.1616 21.0198 14.3494C20.7752 14.5373 20.6003 14.8014 20.5229 15.0999L20.2867 15.9601C20.2342 15.9828 20.1843 16.0029 20.1344 16.0231L20.1336 16.0274Z" fill="#5135FF"/>
<path d="M23.1444 28.2817H21.8721C21.7806 28.2802 21.692 28.2496 21.619 28.1944C21.546 28.1392 21.4925 28.0622 21.4661 27.9745L21.103 26.6472C20.6384 26.4722 20.4389 26.3847 20.0023 26.1992L19.9699 26.1852L18.7676 26.8703C18.7074 26.9083 18.6376 26.9283 18.5664 26.928C18.453 26.9262 18.3448 26.8804 18.2645 26.8003L17.3711 25.906C17.3038 25.8427 17.2603 25.7582 17.2477 25.6667C17.2351 25.5751 17.2543 25.4821 17.302 25.4029L17.9898 24.2007C17.8218 23.7632 17.7369 23.5602 17.5689 23.1629L17.5286 23.0684L16.1969 22.7053C16.1075 22.6824 16.0284 22.6299 15.9726 22.5563C15.9169 22.4827 15.8877 22.3925 15.8898 22.3002V21.0279C15.8914 20.9365 15.922 20.8479 15.9772 20.7749C16.0324 20.702 16.1093 20.6484 16.1969 20.6219L17.5251 20.2579C17.7001 19.8082 17.7876 19.6034 17.9556 19.1965L17.9854 19.1265L17.302 17.9243C17.2551 17.8449 17.2364 17.752 17.2489 17.6607C17.2615 17.5693 17.3045 17.4849 17.3711 17.4212L18.2654 16.5269C18.3023 16.4864 18.3473 16.4542 18.3975 16.4322C18.4477 16.4102 18.502 16.3989 18.5568 16.3992C18.6316 16.3994 18.705 16.4197 18.7694 16.4578L19.9716 17.1455C20.4188 16.9749 20.6218 16.8892 21.0216 16.7185L21.1004 16.6853L21.467 15.3535C21.4895 15.2638 21.5418 15.1844 21.6155 15.1284C21.6891 15.0724 21.7796 15.0432 21.8721 15.0455H23.1444C23.236 15.0472 23.3246 15.078 23.3976 15.1333C23.4706 15.1887 23.5241 15.2658 23.5504 15.3535L23.9135 16.6809C24.351 16.8489 24.554 16.9338 24.9513 17.1018L25.0458 17.142L26.2471 16.4578C26.3078 16.4193 26.3783 16.3989 26.4501 16.3992C26.5634 16.4004 26.6716 16.4463 26.7511 16.5269L27.6454 17.4212C27.7137 17.4838 27.758 17.5683 27.7708 17.6602C27.7836 17.752 27.764 17.8454 27.7154 17.9243L27.0303 19.1265C27.2053 19.5754 27.2928 19.7793 27.4608 20.1853L27.4914 20.2579L28.8188 20.6219C28.9065 20.6482 28.9836 20.7017 29.0389 20.7747C29.0943 20.8477 29.1251 20.9363 29.1268 21.0279V22.3002C29.1251 22.3917 29.0943 22.4804 29.0389 22.5534C28.9836 22.6264 28.9065 22.6799 28.8188 22.7062L27.4914 23.0693C27.3111 23.5409 27.2289 23.7308 27.0346 24.191L27.0303 24.2015L27.7154 25.4029C27.7622 25.4824 27.7808 25.5753 27.7681 25.6667C27.7553 25.758 27.7121 25.8424 27.6454 25.906L26.7511 26.8003C26.7142 26.8408 26.6692 26.8731 26.619 26.8951C26.5688 26.9171 26.5146 26.9284 26.4598 26.928C26.3853 26.9278 26.3123 26.9079 26.248 26.8703L25.0466 26.1852C24.582 26.3602 24.3825 26.4477 23.9459 26.6332L23.9135 26.6472L23.5504 27.9745C23.5276 28.0642 23.475 28.1434 23.4012 28.1993C23.3274 28.2551 23.2369 28.2841 23.1444 28.2817ZM22.4689 19.4687C22.0393 19.4676 21.6191 19.594 21.2615 19.8319C20.9038 20.0698 20.6247 20.4084 20.4596 20.8049C20.2945 21.2015 20.2507 21.6381 20.3338 22.0595C20.4169 22.4809 20.6231 22.8682 20.9264 23.1724C21.2297 23.4766 21.6164 23.6839 22.0376 23.7682C22.4588 23.8525 22.8956 23.8099 23.2926 23.6459C23.6896 23.4819 24.029 23.2038 24.2679 22.8468C24.5067 22.4898 24.6343 22.07 24.6345 21.6404C24.6347 21.0654 24.4068 20.5138 24.0008 20.1067C23.5948 19.6995 23.0439 19.4701 22.4689 19.4687Z" fill="#5135FF"/>
</svg>
