<svg width="32" height="32" viewBox="0 0 32 32" fill="none" xmlns="http://www.w3.org/2000/svg">
<path opacity="0.45" d="M27.3131 24.2482C27.0688 24.5826 26.5859 24.6059 26.2931 24.313L23.2656 21.2856C23.0239 21.0439 22.9949 20.6645 23.1731 20.3729C23.9514 19.099 24.3999 17.6017 24.3999 15.9997C24.3999 14.3977 23.9514 12.9004 23.1731 11.6266C22.9949 11.3349 23.0239 10.9556 23.2656 10.7139L26.2931 7.68638C26.5859 7.39356 27.0689 7.41679 27.3131 7.75121C29.0027 10.0646 29.9999 12.9157 29.9999 15.9997C29.9999 19.0837 29.0026 21.9349 27.3131 24.2482Z" fill="#5135FF"/>
<path fill-rule="evenodd" clip-rule="evenodd" d="M21.6 15.9997C21.6 19.0925 19.0928 21.5997 16 21.5997C12.9072 21.5997 10.4 19.0925 10.4 15.9997C10.4 12.9069 12.9072 10.3997 16 10.3997C16.9962 10.3997 17.9316 10.6598 18.742 11.1158C18.773 11.1332 18.8094 11.1386 18.8441 11.1305L21.3528 10.5402C21.6166 10.4781 21.8478 10.7266 21.767 10.9853L21.0102 13.4072C20.9993 13.4421 21.0025 13.4798 21.0188 13.5126C21.3908 14.2619 21.6 15.1064 21.6 15.9997ZM18.8 15.9997C18.8 17.5461 17.5464 18.7997 16 18.7997C14.4536 18.7997 13.2 17.5461 13.2 15.9997C13.2 14.4533 14.4536 13.1997 16 13.1997C17.5464 13.1997 18.8 14.4533 18.8 15.9997Z" fill="#5135FF"/>
<path d="M24.2485 27.3129C24.5829 27.0687 24.6061 26.5858 24.3133 26.2929L21.2858 23.2655C21.0441 23.0238 20.6648 22.9948 20.3731 23.173C19.0993 23.9512 17.602 24.3997 16 24.3997C14.398 24.3997 12.9007 23.9512 11.6269 23.173C11.3352 22.9948 10.9559 23.0238 10.7142 23.2655L7.68669 26.2929C7.39387 26.5858 7.4171 27.0687 7.75151 27.3129C10.0649 29.0025 12.916 29.9997 16 29.9997C19.084 29.9997 21.9351 29.0025 24.2485 27.3129Z" fill="#5135FF"/>
<path d="M8.82671 11.6266C9.00491 11.3349 8.97593 10.9556 8.73424 10.7139L5.70675 7.68638C5.41393 7.39356 4.93099 7.41679 4.68675 7.75121C2.9972 10.0646 2 12.9157 2 15.9997C2 19.0837 2.99721 21.9349 4.68679 24.2482C4.93103 24.5826 5.41397 24.6059 5.70679 24.313L8.73427 21.2856C8.97597 21.0439 9.00494 20.6645 8.82674 20.3729C8.04848 19.099 7.6 17.6017 7.6 15.9997C7.6 14.3977 8.04847 12.9004 8.82671 11.6266Z" fill="#5135FF"/>
<path opacity="0.75" d="M15.9997 7.6C17.6018 7.6 19.0991 8.04848 20.3729 8.82674C20.6646 9.00494 21.0439 8.97597 21.2856 8.73427L24.3131 5.70679C24.6059 5.41397 24.5827 4.93103 24.2483 4.68679C21.9349 2.99721 19.0838 2 15.9997 2C12.9157 2 10.0646 2.99721 7.7512 4.68679C7.41679 4.93103 7.39356 5.41397 7.68638 5.70679L10.7139 8.73427C10.9556 8.97597 11.3349 9.00494 11.6266 8.82674C12.9004 8.04848 14.3977 7.6 15.9997 7.6Z" fill="#5135FF"/>
</svg>
