<svg width="32" height="32" viewBox="0 0 32 32" fill="none" xmlns="http://www.w3.org/2000/svg">
<path opacity="0.75" d="M15.6522 22.7401C13.627 22.7634 11.6262 22.2966 9.82033 21.3795C8.36814 20.6943 7.23434 19.4778 6.65283 17.981H7.56721C8.00735 18.9299 8.72214 19.7249 9.61908 20.263C11.4353 21.3652 13.5283 21.9262 15.6522 21.88C17.3556 21.9002 19.0434 21.5528 20.6003 20.8615C20.543 21.1529 20.5137 21.4492 20.5128 21.7461C20.5128 21.7759 20.5128 21.8048 20.5128 21.8336C18.9654 22.4437 17.3155 22.7514 15.6522 22.7401ZM21.3835 13.0338C20.868 12.7318 20.3247 12.4798 19.7612 12.2813V11.3748C20.3201 11.5554 20.8633 11.7817 21.3852 12.0511V13.0338H21.3835ZM10.621 12.6645V11.723C11.1465 11.4992 11.6878 11.3147 12.2406 11.1709V12.059C11.6837 12.2144 11.141 12.4167 10.6183 12.6636L10.621 12.6645Z" fill="#5135FF"/>
<g opacity="0.45">
<path d="M9.90936 17.981H3.80448C3.61106 17.9746 3.42806 17.8918 3.29555 17.7508C3.16304 17.6097 3.09182 17.4219 3.09748 17.2285V7.51512C3.09182 7.3216 3.16301 7.1337 3.2955 6.99253C3.42799 6.85135 3.61099 6.76838 3.80448 6.76175H9.90936C10.1027 6.7686 10.2855 6.85167 10.4178 6.99283C10.5501 7.13398 10.6212 7.32175 10.6155 7.51512V17.2276C10.6214 17.4211 10.5504 17.609 10.418 17.7502C10.2857 17.8914 10.1028 17.9744 9.90936 17.981ZM4.66636 11.877C4.61994 11.877 4.57543 11.8954 4.54261 11.9283C4.50979 11.9611 4.49136 12.0056 4.49136 12.052V12.8605C4.49136 12.9069 4.50979 12.9514 4.54261 12.9842C4.57543 13.0171 4.61994 13.0355 4.66636 13.0355H5.47573C5.52214 13.0355 5.56666 13.0171 5.59948 12.9842C5.63229 12.9514 5.65073 12.9069 5.65073 12.8605V12.0529C5.65073 12.0065 5.63229 11.9619 5.59948 11.9291C5.56666 11.8963 5.52214 11.8779 5.47573 11.8779L4.66636 11.877ZM6.45223 9.99925C6.40582 9.99925 6.36131 10.0177 6.32849 10.0505C6.29567 10.0833 6.27723 10.1278 6.27723 10.1743V10.9836C6.27723 11.03 6.29567 11.0745 6.32849 11.1074C6.36131 11.1402 6.40582 11.1586 6.45223 11.1586H7.26073C7.30714 11.1586 7.35166 11.1402 7.38448 11.1074C7.41729 11.0745 7.43573 11.03 7.43573 10.9836V10.1743C7.43573 10.1278 7.41729 10.0833 7.38448 10.0505C7.35166 10.0177 7.30714 9.99925 7.26073 9.99925H6.45223ZM4.66636 9.99925C4.61994 9.99925 4.57543 10.0177 4.54261 10.0505C4.50979 10.0833 4.49136 10.1278 4.49136 10.1743V10.9836C4.49136 11.03 4.50979 11.0745 4.54261 11.1074C4.57543 11.1402 4.61994 11.1586 4.66636 11.1586H5.47573C5.52214 11.1586 5.56666 11.1402 5.59948 11.1074C5.63229 11.0745 5.65073 11.03 5.65073 10.9836V10.1743C5.65073 10.1278 5.63229 10.0833 5.59948 10.0505C5.56666 10.0177 5.52214 9.99925 5.47573 9.99925H4.66636ZM8.23723 8.118C8.19082 8.118 8.14631 8.13644 8.11349 8.16926C8.08067 8.20208 8.06223 8.24659 8.06223 8.293V9.10237C8.06223 9.14879 8.08067 9.1933 8.11349 9.22612C8.14631 9.25894 8.19082 9.27737 8.23723 9.27737H9.04748C9.09389 9.27737 9.13841 9.25894 9.17123 9.22612C9.20404 9.1933 9.22248 9.14879 9.22248 9.10237V8.29038C9.22248 8.24396 9.20404 8.19945 9.17123 8.16663C9.13841 8.13381 9.09389 8.11538 9.04748 8.11538L8.23723 8.118ZM6.45223 8.118C6.40582 8.118 6.36131 8.13644 6.32849 8.16926C6.29567 8.20208 6.27723 8.24659 6.27723 8.293V9.10237C6.27723 9.14879 6.29567 9.1933 6.32849 9.22612C6.36131 9.25894 6.40582 9.27737 6.45223 9.27737H7.26073C7.30714 9.27737 7.35166 9.25894 7.38448 9.22612C7.41729 9.1933 7.43573 9.14879 7.43573 9.10237V8.29038C7.43573 8.24396 7.41729 8.19945 7.38448 8.16663C7.35166 8.13381 7.30714 8.11538 7.26073 8.11538L6.45223 8.118ZM4.66636 8.118C4.61994 8.118 4.57543 8.13644 4.54261 8.16926C4.50979 8.20208 4.49136 8.24659 4.49136 8.293V9.10237C4.49136 9.14879 4.50979 9.1933 4.54261 9.22612C4.57543 9.25894 4.61994 9.27737 4.66636 9.27737H5.47573C5.52214 9.27737 5.56666 9.25894 5.59948 9.22612C5.63229 9.1933 5.65073 9.14879 5.65073 9.10237V8.29038C5.65073 8.24396 5.63229 8.19945 5.59948 8.16663C5.56666 8.13381 5.52214 8.11538 5.47573 8.11538L4.66636 8.118Z" fill="#5135FF"/>
<path d="M19.0514 14.0951H12.9465C12.7531 14.0887 12.5701 14.0059 12.4376 13.8649C12.305 13.7239 12.2338 13.5361 12.2395 13.3426V3.62925C12.2336 3.43558 12.3047 3.24746 12.4372 3.10609C12.5697 2.96472 12.7528 2.88162 12.9465 2.875H19.0514C19.2449 2.88185 19.4278 2.96504 19.5601 3.10639C19.6924 3.24773 19.7634 3.43572 19.7575 3.62925V13.3418C19.7634 13.5352 19.6924 13.7231 19.56 13.8643C19.4277 14.0055 19.2448 14.0885 19.0514 14.0951ZM13.8092 7.99113C13.7628 7.99113 13.7183 8.00956 13.6855 8.04238C13.6527 8.0752 13.6342 8.11971 13.6342 8.16612V8.97463C13.6342 9.02104 13.6527 9.06555 13.6855 9.09837C13.7183 9.13119 13.7628 9.14962 13.8092 9.14962H14.6186C14.665 9.14962 14.7095 9.13119 14.7424 9.09837C14.7752 9.06555 14.7936 9.02104 14.7936 8.97463V8.167C14.7936 8.12059 14.7752 8.07608 14.7424 8.04326C14.7095 8.01044 14.665 7.992 14.6186 7.992L13.8092 7.99113ZM15.5951 6.1125C15.5721 6.1125 15.5494 6.11703 15.5281 6.12582C15.5069 6.13462 15.4876 6.14751 15.4714 6.16376C15.4551 6.18001 15.4422 6.1993 15.4334 6.22053C15.4246 6.24176 15.4201 6.26452 15.4201 6.2875V7.09687C15.4201 7.11986 15.4246 7.14261 15.4334 7.16384C15.4422 7.18508 15.4551 7.20437 15.4714 7.22062C15.4876 7.23687 15.5069 7.24976 15.5281 7.25855C15.5494 7.26735 15.5721 7.27187 15.5951 7.27187H16.4036C16.45 7.27187 16.4945 7.25344 16.5273 7.22062C16.5602 7.1878 16.5786 7.14329 16.5786 7.09687V6.2875C16.5786 6.24109 16.5602 6.19658 16.5273 6.16376C16.4945 6.13094 16.45 6.1125 16.4036 6.1125H15.5951ZM13.8092 6.1125C13.7628 6.1125 13.7183 6.13094 13.6855 6.16376C13.6527 6.19658 13.6342 6.24109 13.6342 6.2875V7.09687C13.6342 7.14329 13.6527 7.1878 13.6855 7.22062C13.7183 7.25344 13.7628 7.27187 13.8092 7.27187H14.6186C14.665 7.27187 14.7095 7.25344 14.7424 7.22062C14.7752 7.1878 14.7936 7.14329 14.7936 7.09687V6.2875C14.7936 6.24109 14.7752 6.19658 14.7424 6.16376C14.7095 6.13094 14.665 6.1125 14.6186 6.1125H13.8092ZM17.381 4.23125C17.3346 4.23125 17.2901 4.24969 17.2572 4.28251C17.2244 4.31533 17.206 4.35984 17.206 4.40625V5.21563C17.206 5.26204 17.2244 5.30655 17.2572 5.33937C17.2901 5.37219 17.3346 5.39062 17.381 5.39062H18.1895C18.2359 5.39062 18.2804 5.37219 18.3132 5.33937C18.346 5.30655 18.3645 5.26204 18.3645 5.21563V4.4045C18.3645 4.35809 18.346 4.31358 18.3132 4.28076C18.2804 4.24794 18.2359 4.2295 18.1895 4.2295L17.381 4.23125ZM15.596 4.23125C15.5496 4.23125 15.5051 4.24969 15.4722 4.28251C15.4394 4.31533 15.421 4.35984 15.421 4.40625V5.21563C15.421 5.26204 15.4394 5.30655 15.4722 5.33937C15.5051 5.37219 15.5496 5.39062 15.596 5.39062H16.4045C16.4509 5.39062 16.4954 5.37219 16.5282 5.33937C16.561 5.30655 16.5795 5.26204 16.5795 5.21563V4.4045C16.5795 4.35809 16.561 4.31358 16.5282 4.28076C16.4954 4.24794 16.4509 4.2295 16.4045 4.2295L15.596 4.23125ZM13.8101 4.23125C13.7637 4.23125 13.7192 4.24969 13.6864 4.28251C13.6535 4.31533 13.6351 4.35984 13.6351 4.40625V5.21563C13.6351 5.26204 13.6535 5.30655 13.6864 5.33937C13.7192 5.37219 13.7637 5.39062 13.8101 5.39062H14.6195C14.6659 5.39062 14.7104 5.37219 14.7432 5.33937C14.776 5.30655 14.7945 5.26204 14.7945 5.21563V4.4045C14.7945 4.35809 14.776 4.31358 14.7432 4.28076C14.7104 4.24794 14.6659 4.2295 14.6195 4.2295L13.8101 4.23125Z" fill="#5135FF"/>
<path d="M22.4542 17.981H22.0894C21.8959 17.9746 21.7129 17.8918 21.5804 17.7508C21.4479 17.6097 21.3767 17.4219 21.3824 17.2285V7.51512C21.3767 7.3216 21.4479 7.1337 21.5804 6.99253C21.7129 6.85135 21.8959 6.76838 22.0894 6.76175H28.1942C28.3876 6.7686 28.5703 6.85167 28.7026 6.99283C28.8349 7.13398 28.906 7.32175 28.9004 7.51512V17.2276C28.906 17.4209 28.8349 17.6086 28.7026 17.7496C28.5703 17.8906 28.3875 17.9735 28.1942 17.9801H27.8206C27.0377 17.4208 26.0996 17.1201 25.1374 17.1201C24.1752 17.1201 23.2371 17.4217 22.4542 17.981ZM22.9504 11.877C22.9039 11.877 22.8594 11.8954 22.8266 11.9283C22.7938 11.9611 22.7754 12.0056 22.7754 12.052V12.8605C22.7754 12.9069 22.7938 12.9514 22.8266 12.9842C22.8594 13.0171 22.9039 13.0355 22.9504 13.0355H23.7597C23.8061 13.0355 23.8507 13.0171 23.8835 12.9842C23.9163 12.9514 23.9347 12.9069 23.9347 12.8605V12.0529C23.9347 12.0065 23.9163 11.9619 23.8835 11.9291C23.8507 11.8963 23.8061 11.8779 23.7597 11.8779L22.9504 11.877ZM24.7371 9.99925C24.6907 9.99925 24.6462 10.0177 24.6134 10.0505C24.5805 10.0833 24.5621 10.1278 24.5621 10.1743V10.9836C24.5621 11.03 24.5805 11.0745 24.6134 11.1074C24.6462 11.1402 24.6907 11.1586 24.7371 11.1586H25.5456C25.592 11.1586 25.6365 11.1402 25.6693 11.1074C25.7022 11.0745 25.7206 11.03 25.7206 10.9836V10.1743C25.7206 10.1278 25.7022 10.0833 25.6693 10.0505C25.6365 10.0177 25.592 9.99925 25.5456 9.99925H24.7371ZM22.9512 9.99925C22.9048 9.99925 22.8603 10.0177 22.8275 10.0505C22.7947 10.0833 22.7762 10.1278 22.7762 10.1743V10.9836C22.7762 11.03 22.7947 11.0745 22.8275 11.1074C22.8603 11.1402 22.9048 11.1586 22.9512 11.1586H23.7606C23.807 11.1586 23.8515 11.1402 23.8843 11.1074C23.9172 11.0745 23.9356 11.03 23.9356 10.9836V10.1743C23.9356 10.1278 23.9172 10.0833 23.8843 10.0505C23.8515 10.0177 23.807 9.99925 23.7606 9.99925H22.9512ZM26.5221 8.118C26.4757 8.118 26.4312 8.13644 26.3984 8.16926C26.3655 8.20208 26.3471 8.24659 26.3471 8.293V9.10237C26.3471 9.14879 26.3655 9.1933 26.3984 9.22612C26.4312 9.25894 26.4757 9.27737 26.5221 9.27737H27.3324C27.3788 9.27737 27.4233 9.25894 27.4561 9.22612C27.4889 9.1933 27.5074 9.14879 27.5074 9.10237V8.29038C27.5074 8.24396 27.4889 8.19945 27.4561 8.16663C27.4233 8.13381 27.3788 8.11538 27.3324 8.11538L26.5221 8.118ZM24.7371 8.118C24.6907 8.118 24.6462 8.13644 24.6134 8.16926C24.5805 8.20208 24.5621 8.24659 24.5621 8.293V9.10237C24.5621 9.14879 24.5805 9.1933 24.6134 9.22612C24.6462 9.25894 24.6907 9.27737 24.7371 9.27737H25.5456C25.592 9.27737 25.6365 9.25894 25.6693 9.22612C25.7022 9.1933 25.7206 9.14879 25.7206 9.10237V8.29038C25.7206 8.24396 25.7022 8.19945 25.6693 8.16663C25.6365 8.13381 25.592 8.11538 25.5456 8.11538L24.7371 8.118ZM22.9512 8.118C22.9048 8.118 22.8603 8.13644 22.8275 8.16926C22.7947 8.20208 22.7762 8.24659 22.7762 8.293V9.10237C22.7762 9.14879 22.7947 9.1933 22.8275 9.22612C22.8603 9.25894 22.9048 9.27737 22.9512 9.27737H23.7606C23.807 9.27737 23.8515 9.25894 23.8843 9.22612C23.9172 9.1933 23.9356 9.14879 23.9356 9.10237V8.29038C23.9356 8.24396 23.9172 8.19945 23.8843 8.16663C23.8515 8.13381 23.807 8.11538 23.7606 8.11538L22.9512 8.118Z" fill="#5135FF"/>
</g>
<g opacity="0.997">
<path d="M19.9477 25.0808H11.8898C11.0974 25.085 10.3282 24.8137 9.71367 24.3134C9.42591 24.0812 9.18697 23.7944 9.01066 23.4694C8.83435 23.1444 8.72415 22.7877 8.68642 22.4199C8.65436 22.06 8.69493 21.6974 8.8057 21.3535C8.91648 21.0096 9.09521 20.6914 9.3313 20.4179C9.61963 20.0864 9.97071 19.8152 10.3643 19.62C10.7579 19.4248 11.1863 19.3093 11.6247 19.2804C11.9835 18.4413 12.5738 17.7216 13.3265 17.2057C14.0793 16.6897 14.9634 16.3987 15.8754 16.3666C15.9795 16.357 16.0845 16.357 16.1887 16.357C17.2559 16.3222 18.3037 16.648 19.1629 17.282C20.0221 17.9159 20.6426 18.8209 20.9242 19.8509C20.5768 20.6242 20.4489 21.4782 20.5546 22.3194C20.6603 23.1605 20.9956 23.9564 21.5235 24.6196C21.0546 24.9241 20.5067 25.0844 19.9477 25.0808Z" fill="#5135FF"/>
<path d="M10.2028 29.1241C10.9944 29.1241 11.636 28.4825 11.636 27.6909C11.636 26.8993 10.9944 26.2576 10.2028 26.2576C9.41123 26.2576 8.76955 26.8993 8.76955 27.6909C8.76955 28.4825 9.41123 29.1241 10.2028 29.1241Z" fill="#5135FF"/>
<path d="M15.6068 29.1241C16.3984 29.1241 17.04 28.4825 17.04 27.6909C17.04 26.8993 16.3984 26.2576 15.6068 26.2576C14.8152 26.2576 14.1735 26.8993 14.1735 27.6909C14.1735 28.4825 14.8152 29.1241 15.6068 29.1241Z" fill="#5135FF"/>
<path d="M20.9539 29.1241C21.7455 29.1241 22.3872 28.4825 22.3872 27.6909C22.3872 26.8993 21.7455 26.2576 20.9539 26.2576C20.1624 26.2576 19.5207 26.8993 19.5207 27.6909C19.5207 28.4825 20.1624 29.1241 20.9539 29.1241Z" fill="#5135FF"/>
<path d="M21.6705 27.2613H9.48617V28.1214H21.6705V27.2613Z" fill="#5135FF"/>
<path d="M16.0373 26.8885V24.7386H15.1772V26.8885H16.0373Z" fill="#5135FF"/>
<path d="M25.138 25.506C24.3938 25.506 23.6664 25.2854 23.0476 24.8719C22.4289 24.4585 21.9466 23.8709 21.6619 23.1834C21.3771 22.4959 21.3026 21.7393 21.4478 21.0095C21.5929 20.2796 21.9513 19.6092 22.4775 19.083C23.0037 18.5568 23.6741 18.1985 24.4039 18.0533C25.1338 17.9081 25.8903 17.9827 26.5778 18.2674C27.2653 18.5522 27.8529 19.0345 28.2664 19.6532C28.6798 20.2719 28.9005 20.9994 28.9005 21.7435C28.8991 22.741 28.5022 23.6972 27.7969 24.4025C27.0916 25.1078 26.1354 25.5046 25.138 25.506ZM23.3005 21.1196C23.1933 21.1195 23.0886 21.1511 22.9994 21.2106C22.9103 21.27 22.8409 21.3546 22.7999 21.4536C22.7589 21.5526 22.7483 21.6615 22.7693 21.7666C22.7904 21.8716 22.8422 21.9681 22.9181 22.0436L24.2962 23.4191L24.3067 23.4288C24.4087 23.5264 24.545 23.5801 24.6862 23.5783C24.8275 23.5765 24.9623 23.5194 25.0618 23.4191L27.357 21.1249C27.4072 21.0747 27.447 21.0151 27.4742 20.9495C27.5014 20.8839 27.5153 20.8135 27.5153 20.7425C27.5153 20.6715 27.5014 20.6012 27.4742 20.5356C27.447 20.47 27.4072 20.4104 27.357 20.3601C27.3067 20.3099 27.2471 20.2701 27.1815 20.2429C27.1159 20.2158 27.0456 20.2018 26.9746 20.2018C26.9036 20.2018 26.8333 20.2158 26.7676 20.2429C26.702 20.2701 26.6424 20.3099 26.5922 20.3601L24.6795 22.2685L23.6846 21.2771C23.6342 21.2267 23.5743 21.1868 23.5083 21.1598C23.4424 21.1328 23.3717 21.1191 23.3005 21.1196Z" fill="#5135FF"/>
</g>
</svg>
