<svg width="32" height="32" viewBox="0 0 32 32" fill="none" xmlns="http://www.w3.org/2000/svg">
<g opacity="0.45">
<path d="M14.4506 26.7966C12.8316 26.7932 11.2164 26.6391 9.62586 26.3364C7.02186 25.814 5.17561 24.9154 4.14224 23.6615C3.92805 23.4662 3.76979 23.2173 3.68374 22.9405C3.59197 22.5764 3.58561 22.1959 3.66514 21.8289C3.74468 21.4619 3.90796 21.1182 4.14224 20.8247L4.19124 20.753L4.22361 20.7023C4.46511 20.3391 4.82561 19.7896 5.24474 19.0993C7.00174 18.0772 10.5472 16.4288 17.4685 14.3804C17.5623 15.2277 17.5772 16.0818 17.5131 16.9319C17.1801 16.965 16.8699 17.1158 16.6381 17.3571L15.7421 18.2566C15.5211 18.4782 15.3797 18.7667 15.34 19.0771C15.3003 19.3876 15.3644 19.7024 15.5225 19.9725L15.9644 20.76C15.946 20.802 15.9285 20.8475 15.911 20.8878L15.8882 20.9455L15.8585 21.019L14.9835 21.257C14.9812 21.2566 14.9788 21.2566 14.9765 21.257C14.9765 21.257 14.9765 21.257 14.9712 21.257L14.9529 21.2649C14.6614 21.353 14.4058 21.5322 14.2235 21.7761C14.0412 22.0199 13.9417 22.3158 13.9396 22.6203V23.9179C13.9359 24.2322 14.038 24.5386 14.2296 24.7878C14.4212 25.037 14.691 25.2144 14.9957 25.2916L15.4709 25.4229C15.285 25.8985 15.059 26.3575 14.7954 26.7949H14.7805C14.7472 26.7949 14.6256 26.7966 14.4506 26.7966Z" fill="#5135FF"/>
<path d="M12.5501 2L7.46286 5.15L14.8496 6.70662C14.1774 5.09339 13.4096 3.52172 12.5501 2Z" fill="#5135FF"/>
</g>
<path d="M13.2537 11.0944C12.3454 10.8529 11.4512 10.6569 10.5981 10.4924C10.7361 11.1618 10.7203 11.8539 10.5517 12.5163C10.1634 13.723 9.48709 14.8171 8.58119 15.7039C10.3824 14.4361 11.9612 12.8788 13.2537 11.0953" fill="#5135FF"/>
<path d="M16.6548 12.2126C15.8244 11.8784 14.9748 11.5896 14.1296 11.3376C12.7279 13.3364 10.9855 15.0729 8.98194 16.4678C10.4974 15.9314 12.2457 15.3626 13.9939 14.8158C14.9454 14.0156 15.8349 13.1445 16.6548 12.21" fill="#5135FF"/>
<path d="M15.3397 7.57775C12.1748 6.87163 7.64844 5.854 7.64844 5.854C8.7968 6.87777 9.70941 8.13847 10.3233 9.54913C11.4179 9.74425 12.5913 9.99888 13.7848 10.3288C14.3674 9.44974 14.8875 8.53042 15.3397 7.57775Z" fill="#5135FF"/>
<path d="M17.2542 11.5179C18.0872 10.5256 18.8292 9.52638 19.4627 8.62338C19.0892 8.46149 18.7028 8.33096 18.3077 8.23313C18.1213 8.19638 17.2997 8.01438 16.1928 7.7685C15.7412 8.73984 15.2231 9.6789 14.6423 10.579C15.5173 10.8468 16.3932 11.1574 17.2542 11.5179Z" fill="#5135FF"/>
<path d="M20.1242 12.9791C22.1831 12.3833 23.5962 11.993 23.5962 11.993C22.8316 10.6657 21.6655 9.61516 20.2659 8.99263C19.6473 9.89038 18.9123 10.8861 18.0846 11.8845C18.7852 12.2093 19.4662 12.5748 20.1242 12.9791Z" fill="#5135FF"/>
<path d="M16.6373 14.2164C17.7013 13.8935 18.7312 13.5873 19.6736 13.3108C19.1923 13.0483 18.6944 12.7989 18.1861 12.5714C17.6952 13.1331 17.1772 13.6861 16.6356 14.2164" fill="#5135FF"/>
<path d="M22.3126 29.9997H21.0193C20.9264 29.9982 20.8363 29.9671 20.7622 29.911C20.6881 29.8548 20.6338 29.7765 20.6072 29.6874L20.2371 28.3372C19.776 28.1622 19.58 28.0747 19.1495 27.8945L19.0865 27.8674L17.8615 28.5674C17.8002 28.606 17.7292 28.6263 17.6567 28.626C17.5414 28.6246 17.4314 28.5777 17.3505 28.4956L16.4405 27.5856C16.3718 27.5215 16.3274 27.4357 16.3144 27.3427C16.3015 27.2496 16.321 27.155 16.3696 27.0746L17.0696 25.8496C16.8946 25.3911 16.8071 25.1829 16.6321 24.769L16.598 24.6981L15.2478 24.3262C15.1569 24.3034 15.0765 24.2504 15.0197 24.1758C14.963 24.1012 14.9333 24.0096 14.9355 23.9159V22.6226C14.937 22.5296 14.9681 22.4396 15.0243 22.3655C15.0804 22.2914 15.1587 22.2371 15.2478 22.2105L16.598 21.8404C16.773 21.3819 16.8605 21.1736 17.0355 20.7589L17.0652 20.6889L16.3652 19.4639C16.3176 19.3832 16.2987 19.2888 16.3115 19.196C16.3244 19.1032 16.3683 19.0175 16.4361 18.9529L17.3461 18.0429C17.3845 18.0014 17.4313 17.9687 17.4833 17.9468C17.5354 17.9249 17.5915 17.9144 17.648 17.916C17.7239 17.916 17.7985 17.9363 17.8641 17.9746L19.0891 18.6746C19.5502 18.4996 19.7462 18.4121 20.1767 18.2319L20.2371 18.2012L20.6072 16.8511C20.6302 16.76 20.6836 16.6794 20.7585 16.6226C20.8334 16.5659 20.9254 16.5363 21.0193 16.5387H22.3126C22.4053 16.5406 22.495 16.5719 22.5687 16.628C22.6425 16.6842 22.6965 16.7623 22.723 16.8511L23.0948 18.2012C23.5533 18.3762 23.7616 18.4637 24.1763 18.6387L24.2463 18.6685L25.4713 17.9685C25.5329 17.9298 25.6042 17.9095 25.677 17.9099C25.7921 17.911 25.9022 17.9576 25.9832 18.0394L26.8923 18.9494C26.961 19.0135 27.0055 19.0992 27.0186 19.1922C27.0316 19.2852 27.0124 19.3798 26.9641 19.4604L26.2641 20.6854C26.4391 21.1526 26.5266 21.353 26.7138 21.7914L26.7331 21.8369L28.0832 22.207C28.1725 22.2334 28.251 22.2876 28.3073 22.3618C28.3637 22.4359 28.3949 22.526 28.3965 22.6191V23.9159C28.3949 24.009 28.3637 24.0991 28.3073 24.1732C28.251 24.2474 28.1725 24.3016 28.0832 24.328L26.7331 24.6981C26.552 25.1706 26.4706 25.3736 26.2781 25.8181L26.265 25.8496L26.965 27.0746C27.0123 27.1554 27.031 27.2498 27.018 27.3426C27.005 27.4354 26.961 27.521 26.8932 27.5856L25.9841 28.4956C25.9465 28.5369 25.9007 28.5698 25.8496 28.5923C25.7985 28.6147 25.7433 28.6262 25.6875 28.626C25.6118 28.6257 25.5376 28.6055 25.4722 28.5674L24.2472 27.8674C23.7887 28.0424 23.5805 28.1299 23.1666 28.3049L23.0957 28.3346L22.723 29.6874C22.6999 29.7781 22.6468 29.8584 22.5722 29.9151C22.4977 29.9718 22.4062 30.0016 22.3126 29.9997ZM21.6257 21.0371C21.1889 21.0363 20.7617 21.165 20.398 21.407C20.0344 21.6491 19.7508 21.9936 19.583 22.3969C19.4153 22.8002 19.3709 23.2442 19.4556 23.6727C19.5403 24.1013 19.7502 24.495 20.0588 24.8042C20.3673 25.1134 20.7607 25.3241 21.189 25.4096C21.6174 25.4952 22.0615 25.4517 22.4652 25.2847C22.8688 25.1178 23.2138 24.8348 23.4566 24.4717C23.6994 24.1085 23.829 23.6816 23.829 23.2447C23.829 22.66 23.597 22.0991 23.1839 21.6853C22.7709 21.2714 22.2105 21.0383 21.6257 21.0371Z" fill="#5135FF"/>
</svg>
