<svg width="32" height="32" viewBox="0 0 32 32" fill="none" xmlns="http://www.w3.org/2000/svg">
<path opacity="0.45" d="M10.7496 23.3159H24.7506C25.2148 23.3159 25.6599 23.1315 25.9881 22.8033C26.3164 22.4751 26.5007 22.03 26.5007 21.5659V10.6783C26.5009 10.4477 26.4556 10.2195 26.3673 10.0065C26.279 9.79362 26.1495 9.60024 25.9862 9.4375L19.0575 2.51275C18.7293 2.18454 18.2843 2.0001 17.8201 2H10.7496C10.2855 2 9.84032 2.18437 9.51211 2.51256C9.1839 2.84075 8.99951 3.28587 8.99951 3.75V21.5659C8.99951 22.03 9.1839 22.4751 9.51211 22.8033C9.84032 23.1315 10.2855 23.3159 10.7496 23.3159Z" fill="#5135FF"/>
<path opacity="0.75" d="M9.00049 8.99902H3.75012C3.28596 8.99902 2.84081 9.1834 2.5126 9.51159C2.18439 9.83978 2 10.2849 2 10.749L2 28.249C2 28.7132 2.18439 29.1583 2.5126 29.4865C2.84081 29.8146 3.28596 29.999 3.75012 29.999H24.7516C25.2158 29.999 25.6609 29.8146 25.9891 29.4865C26.3173 29.1583 26.5017 28.7132 26.5017 28.249V21.5658C26.5017 22.0299 26.3173 22.475 25.9891 22.8032C25.6609 23.1314 25.2158 23.3158 24.7516 23.3158H10.7506C10.2865 23.3158 9.8413 23.1314 9.51309 22.8032C9.18488 22.475 9.00049 22.0299 9.00049 21.5658V8.99902Z" fill="#5135FF"/>
<path d="M18.5458 2.42241V8.20354C18.5458 8.66767 18.7302 9.11279 19.0584 9.44098C19.3866 9.76916 19.8317 9.95354 20.2958 9.95354H26.077C26.1115 9.95339 26.1452 9.94305 26.1738 9.92381C26.2024 9.90457 26.2248 9.8773 26.2379 9.84541C26.2511 9.81352 26.2546 9.77845 26.2479 9.7446C26.2412 9.71075 26.2247 9.67963 26.2003 9.65516L18.8477 2.29816C18.8234 2.27255 18.7919 2.25489 18.7574 2.24751C18.7228 2.24014 18.6868 2.24338 18.6542 2.25682C18.6215 2.27027 18.5937 2.29328 18.5744 2.32283C18.555 2.35239 18.5451 2.3871 18.5458 2.42241Z" fill="#5135FF"/>
<path d="M3.42912 29.998H25.3337C25.6792 29.998 26.0169 29.8957 26.3044 29.704C26.5919 29.5123 26.8162 29.2398 26.949 28.9209L29.8656 21.9209C29.9764 21.655 30.0198 21.3659 29.992 21.0791C29.9642 20.7924 29.866 20.517 29.7062 20.2773C29.5464 20.0376 29.3299 19.8411 29.0759 19.7052C28.8219 19.5692 28.5383 19.4981 28.2502 19.498H17.312C17.1761 19.498 17.0421 19.4664 16.9206 19.4057C16.7991 19.3449 16.6934 19.2567 16.6119 19.148L14.7743 16.698C14.6113 16.4807 14.3999 16.3043 14.1569 16.1828C13.9139 16.0613 13.6459 15.998 13.3742 15.998H7.66179C7.2892 15.9978 6.92627 16.1165 6.62582 16.3369C6.32536 16.5572 6.10307 16.8676 5.9913 17.223L2.4263 28.633C2.37681 28.7904 2.36509 28.9572 2.3921 29.1199C2.4191 29.2827 2.48407 29.4367 2.58174 29.5697C2.6794 29.7026 2.80702 29.8107 2.95424 29.8851C3.10146 29.9595 3.26415 29.9982 3.42912 29.998Z" fill="#5135FF"/>
</svg>
