<svg width="32" height="32" viewBox="0 0 32 32" fill="none" xmlns="http://www.w3.org/2000/svg">
<path opacity="0.45" d="M22.8502 23.535C23.9353 23.5169 24.9709 23.0779 25.7383 22.3105C26.5056 21.5431 26.9447 20.5075 26.9627 19.4225C26.8991 18.6436 26.6039 17.9015 26.115 17.2918C25.6261 16.6821 24.966 16.2326 24.2196 16.0012C23.9483 12.23 20.8675 9.59534 16.6858 9.83771C13.6443 10.0127 10.84 11.3506 9.8372 13.9502C7.05208 14.1593 4.80595 16.2296 5.04308 18.7408C5.26358 21.0981 7.21395 23.5306 9.8372 23.535H22.8502Z" fill="#5135FF"/>
<path d="M16.7746 5.44313V8.46712C16.7746 8.64883 16.7024 8.8231 16.5739 8.95158C16.4454 9.08007 16.2712 9.15225 16.0895 9.15225C15.9077 9.15225 15.7335 9.08007 15.605 8.95158C15.4765 8.8231 15.4043 8.64883 15.4043 8.46712V5.44313C15.6156 5.5542 15.8508 5.61188 16.0895 5.61112C16.3276 5.611 16.5623 5.55369 16.7737 5.444L16.7746 5.44313Z" fill="#5135FF"/>
<path d="M18.2568 4.1665C18.2568 4.59499 18.1298 5.01386 17.8917 5.37014C17.6537 5.72642 17.3153 6.00411 16.9194 6.16808C16.5235 6.33206 16.0879 6.37497 15.6677 6.29137C15.2474 6.20778 14.8614 6.00144 14.5584 5.69845C14.2554 5.39546 14.0491 5.00942 13.9655 4.58916C13.8819 4.1689 13.9248 3.73329 14.0887 3.33742C14.2527 2.94154 14.5304 2.60318 14.8867 2.36512C15.243 2.12706 15.6618 2 16.0903 2C16.6648 2.00046 17.2156 2.22887 17.6218 2.63507C18.028 3.04126 18.2564 3.59205 18.2568 4.1665Z" fill="#5135FF"/>
<path d="M10.3643 8.909V11.4938C10.3535 11.6676 10.2769 11.8307 10.15 11.95C10.0231 12.0692 9.85553 12.1356 9.68139 12.1356C9.50725 12.1356 9.33966 12.0692 9.21277 11.95C9.08588 11.8307 9.00923 11.6676 8.99845 11.4938V9.33075L6.81095 8.22563C7.01452 8.09987 7.18455 7.92662 7.30647 7.72073C7.42839 7.51484 7.49855 7.28246 7.51095 7.0435L9.98808 8.29738C10.1009 8.35492 10.1957 8.44245 10.2621 8.55034C10.3285 8.65824 10.3638 8.78233 10.3643 8.909Z" fill="#5135FF"/>
<path d="M3.86133 6.97C3.86116 6.54147 3.98807 6.12251 4.22602 5.76612C4.46398 5.40972 4.80228 5.1319 5.19814 4.96779C5.594 4.80368 6.02964 4.76065 6.44995 4.84415C6.87027 4.92764 7.25639 5.13391 7.55947 5.43687C7.86254 5.73982 8.06897 6.12586 8.15264 6.54614C8.2363 6.96642 8.19345 7.40208 8.0295 7.79801C7.86555 8.19393 7.58786 8.53235 7.23156 8.77044C6.87526 9.00854 6.45636 9.13563 6.02783 9.13563C5.4536 9.13493 4.90308 8.90657 4.49696 8.50061C4.09084 8.09466 3.86225 7.54423 3.86133 6.97ZM6.82408 6.97C6.82408 6.81252 6.77738 6.65857 6.68989 6.52763C6.60239 6.39668 6.47804 6.29463 6.33254 6.23436C6.18704 6.17409 6.02695 6.15833 5.87249 6.18905C5.71803 6.21977 5.57615 6.29561 5.46479 6.40697C5.35344 6.51832 5.2776 6.6602 5.24688 6.81466C5.21615 6.96912 5.23192 7.12922 5.29219 7.27471C5.35246 7.42021 5.45451 7.54456 5.58546 7.63206C5.7164 7.71955 5.87035 7.76625 6.02783 7.76625C6.23887 7.76579 6.44113 7.68175 6.59035 7.53252C6.73958 7.3833 6.82362 7.18104 6.82408 6.97Z" fill="#5135FF"/>
<path d="M24.801 7.29988C24.6908 7.51115 24.6333 7.74588 24.6333 7.98413C24.6333 8.22237 24.6908 8.4571 24.801 8.66838H23.1875V9.5075C23.1805 9.5075 22.7106 9.5075 21.8986 9.5075H21.8181V7.985C21.8183 7.80336 21.8906 7.62923 22.019 7.5008C22.1474 7.37236 22.3216 7.30011 22.5032 7.29988H24.801Z" fill="#5135FF"/>
<path d="M23.8105 7.985C23.8106 8.41325 23.9378 8.83183 24.1758 9.18783C24.4138 9.54383 24.7521 9.82127 25.1477 9.98507C25.5434 10.1489 25.9788 10.1917 26.3988 10.1081C26.8188 10.0245 27.2046 9.81827 27.5074 9.51545C27.8102 9.21264 28.0165 8.82684 28.1 8.40683C28.1836 7.98682 28.1408 7.55146 27.977 7.15578C27.8132 6.7601 27.5358 6.42187 27.1798 6.18384C26.8238 5.94581 26.4052 5.81867 25.977 5.8185C25.4026 5.81919 24.8519 6.04767 24.4458 6.45382C24.0396 6.85997 23.8111 7.41062 23.8105 7.985ZM26.7732 7.985C26.7732 8.14248 26.7265 8.29643 26.639 8.42737C26.5515 8.55832 26.4272 8.66037 26.2817 8.72064C26.1362 8.78091 25.9761 8.79667 25.8216 8.76595C25.6672 8.73523 25.5253 8.65939 25.4139 8.54803C25.3026 8.43668 25.2267 8.2948 25.196 8.14034C25.1653 7.98588 25.181 7.82578 25.2413 7.68029C25.3016 7.53479 25.4036 7.41044 25.5346 7.32294C25.6655 7.23545 25.8195 7.18875 25.977 7.18875C26.1881 7.18898 26.3905 7.27295 26.5397 7.42222C26.689 7.5715 26.773 7.77389 26.7732 7.985Z" fill="#5135FF"/>
<path d="M21.8207 10.0859V8.7165H23.1901V10.0859C23.1837 10.2632 23.1088 10.4312 22.9811 10.5544C22.8534 10.6777 22.6829 10.7465 22.5054 10.7465C22.3279 10.7465 22.1574 10.6777 22.0297 10.5544C21.902 10.4312 21.827 10.2632 21.8207 10.0859Z" fill="#5135FF"/>
<path d="M7.93008 28.073C8.04055 27.8622 8.0982 27.6277 8.09808 27.3896C8.09795 27.1515 8.04064 26.9168 7.93095 26.7054H9.54445V25.8654C9.55145 25.8654 10.0213 25.8654 10.8333 25.8654H10.9138V27.3879C10.9136 27.5695 10.8413 27.7436 10.7129 27.8721C10.5845 28.0005 10.4103 28.0728 10.2287 28.073H7.93008Z" fill="#5135FF"/>
<path d="M8.92145 27.3888C8.92145 26.9603 8.79439 26.5414 8.55633 26.1851C8.31828 25.8288 7.97991 25.5511 7.58404 25.3872C7.18816 25.2232 6.75255 25.1803 6.33229 25.2639C5.91203 25.3475 5.526 25.5538 5.22301 25.8568C4.92002 26.1598 4.71368 26.5458 4.63008 26.9661C4.54649 27.3863 4.58939 27.822 4.75337 28.2178C4.91735 28.6137 5.19503 28.9521 5.55131 29.1901C5.90759 29.4282 6.32646 29.5553 6.75495 29.5553C7.32933 29.5546 7.87999 29.3261 8.28613 28.9199C8.69228 28.5138 8.92076 27.9631 8.92145 27.3888Z" fill="#5135FF"/>
<path d="M10.9112 24.6028V26.6572H9.54095V24.6028C9.54095 24.421 9.61314 24.2468 9.74162 24.1183C9.87011 23.9898 10.0444 23.9176 10.2261 23.9176C10.4078 23.9176 10.5821 23.9898 10.7105 24.1183C10.839 24.2468 10.9112 24.421 10.9112 24.6028Z" fill="#5135FF"/>
<path d="M20.9151 25.8233V24.6027C20.9118 24.5107 20.9271 24.419 20.96 24.3331C20.9929 24.2471 21.0428 24.1687 21.1067 24.1025C21.1706 24.0362 21.2472 23.9836 21.3319 23.9476C21.4166 23.9116 21.5077 23.8931 21.5998 23.8931C21.6918 23.8931 21.7829 23.9116 21.8676 23.9476C21.9523 23.9836 22.0289 24.0362 22.0928 24.1025C22.1567 24.1687 22.2066 24.2471 22.2395 24.3331C22.2725 24.419 22.2877 24.5107 22.2845 24.6027V25.405L24.4667 26.5049C24.2631 26.6309 24.0931 26.8043 23.9712 27.0103C23.8493 27.2163 23.7791 27.4488 23.7667 27.6879L21.2905 26.434C21.1773 26.3772 21.0822 26.29 21.0159 26.1821C20.9495 26.0742 20.9146 25.9499 20.9151 25.8233Z" fill="#5135FF"/>
<path d="M23.0825 27.7623C23.0823 28.1908 23.2092 28.6098 23.4472 28.9662C23.6851 29.3226 24.0234 29.6004 24.4193 29.7645C24.8151 29.9286 25.2508 29.9716 25.6711 29.8881C26.0914 29.8046 26.4775 29.5984 26.7806 29.2954C27.0837 28.9925 27.2901 28.6064 27.3738 28.1861C27.4574 27.7659 27.4146 27.3302 27.2506 26.9343C27.0867 26.5384 26.809 26.1999 26.4527 25.9618C26.0964 25.7237 25.6775 25.5967 25.249 25.5967C24.6747 25.5974 24.1242 25.8257 23.7181 26.2317C23.312 26.6376 23.0834 27.1881 23.0825 27.7623Z" fill="#5135FF"/>
<path d="M15.316 26.5574V24.6027C15.3127 24.5107 15.3279 24.419 15.3609 24.3331C15.3938 24.2471 15.4437 24.1687 15.5076 24.1025C15.5715 24.0362 15.6481 23.9836 15.7328 23.9476C15.8175 23.9116 15.9086 23.8931 16.0006 23.8931C16.0927 23.8931 16.1838 23.9116 16.2685 23.9476C16.3532 23.9836 16.4298 24.0362 16.4937 24.1025C16.5576 24.1687 16.6075 24.2471 16.6404 24.3331C16.6733 24.419 16.6886 24.5107 16.6853 24.6027V26.5574C16.4739 26.4479 16.2392 26.3907 16.0011 26.3907C15.7629 26.3907 15.5274 26.4479 15.316 26.5574Z" fill="#5135FF"/>
<path d="M18.1676 27.834C18.1676 27.4055 18.0405 26.9867 17.8025 26.6304C17.5644 26.2741 17.226 25.9964 16.8302 25.8325C16.4343 25.6685 15.9987 25.6256 15.5784 25.7092C15.1582 25.7928 14.7721 25.9991 14.4691 26.3021C14.1661 26.6051 13.9598 26.9911 13.8762 27.4114C13.7926 27.8316 13.8355 28.2672 13.9995 28.6631C14.1635 29.059 14.4412 29.3974 14.7974 29.6354C15.1537 29.8735 15.5726 30.0005 16.0011 30.0005C16.5755 30.0001 17.1263 29.7717 17.5325 29.3655C17.9387 28.9593 18.1671 28.4085 18.1676 27.834ZM15.2048 27.834C15.2048 27.6766 15.2515 27.5226 15.339 27.3917C15.4265 27.2607 15.5509 27.1587 15.6964 27.0984C15.8419 27.0381 16.002 27.0224 16.1564 27.0531C16.3109 27.0838 16.4528 27.1596 16.5641 27.271C16.6755 27.3824 16.7513 27.5242 16.782 27.6787C16.8128 27.8332 16.797 27.9933 16.7367 28.1388C16.6765 28.2842 16.5744 28.4086 16.4435 28.4961C16.3125 28.5836 16.1586 28.6303 16.0011 28.6303C15.79 28.6301 15.5876 28.5461 15.4383 28.3968C15.289 28.2475 15.2051 28.0451 15.2048 27.834Z" fill="#5135FF"/>
</svg>
