<svg width="32" height="32" viewBox="0 0 32 32" fill="none" xmlns="http://www.w3.org/2000/svg">
<path d="M10.4605 15.4125C13.1988 15.4125 15.4186 13.1932 15.4186 10.4555C15.4186 7.71785 13.1988 5.49854 10.4605 5.49854C7.72225 5.49854 5.50244 7.71785 5.50244 10.4555C5.50244 13.1932 7.72225 15.4125 10.4605 15.4125Z" fill="#5135FF"/>
<path d="M19.228 17.7466H27.6489C27.8084 17.7469 27.9613 17.8104 28.074 17.9232C28.1867 18.0361 28.25 18.189 28.25 18.3485V26.7691C28.25 26.9287 28.1866 27.0818 28.0737 27.1947C27.9608 27.3076 27.8077 27.371 27.6481 27.371H19.228C19.1488 27.371 19.0705 27.3554 18.9974 27.3251C18.9243 27.2948 18.8579 27.2504 18.802 27.1944C18.7461 27.1384 18.7018 27.072 18.6716 26.9988C18.6414 26.9257 18.6259 26.8473 18.626 26.7682V18.3485C18.626 18.1889 18.6894 18.0358 18.8023 17.9229C18.9152 17.81 19.0683 17.7466 19.228 17.7466Z" fill="#5135FF"/>
<path opacity="0.45" fill-rule="evenodd" clip-rule="evenodd" d="M2.00293 13.3732C2.00293 7.09171 6.24097 2 12.5018 2C17.8641 2 20.9779 5.1775 22.4119 9.61131C22.6061 9.59381 22.8024 9.58507 23.0007 9.58507C26.866 9.58507 29.9999 12.9795 29.9999 17.1666C29.9999 21.3537 26.866 24.7464 23.0007 24.7464H12.5018C6.7038 24.7464 2.00293 19.653 2.00293 13.3732Z" fill="#5135FF"/>
<path opacity="0.45" d="M7.19733 19.795C7.24486 19.7054 7.31586 19.6306 7.40271 19.5783C7.48956 19.5261 7.589 19.4985 7.69034 19.4985C7.79169 19.4985 7.89112 19.5261 7.97797 19.5783C8.06483 19.6306 8.13583 19.7054 8.18335 19.795L13.3024 29.1254C13.3528 29.2132 13.3795 29.3127 13.3798 29.414C13.3802 29.5152 13.3542 29.6149 13.3044 29.7031C13.2547 29.7913 13.1828 29.8651 13.096 29.9172C13.0091 29.9692 12.9102 29.9979 12.809 30.0002H2.57083C2.46958 29.9979 2.37067 29.9692 2.28382 29.9172C2.19696 29.8651 2.12514 29.7913 2.07538 29.7031C2.02563 29.6149 1.99965 29.5152 2 29.414C2.00035 29.3127 2.02702 29.2132 2.07738 29.1254L7.19733 19.795Z" fill="#5135FF"/>
</svg>
