<svg width="32" height="32" viewBox="0 0 32 32" fill="none" xmlns="http://www.w3.org/2000/svg">
<path opacity="0.45" d="M23.1542 12.757H16.9326V4.21997C16.9326 3.89641 16.8014 3.58611 16.568 3.35732C16.3346 3.12853 16.018 3 15.6879 3H3.24469C2.91458 3 2.59799 3.12853 2.36456 3.35732C2.13114 3.58611 2 3.89641 2 4.21997V24.3435C2 24.6671 2.13114 24.9774 2.36456 25.2062C2.59799 25.435 2.91458 25.5635 3.24469 25.5635H24.3979V13.977C24.3979 13.6534 24.2668 13.3431 24.0333 13.1143C23.7999 12.8856 23.4843 12.757 23.1542 12.757Z" fill="#5135FF"/>
<path d="M13.6866 29.5166C12.4807 29.5119 11.3182 29.0626 10.4183 28.2535C9.51762 27.4512 8.95997 26.3287 8.86216 25.1212C8.81439 24.4851 8.89177 23.8458 9.08988 23.2399C9.28798 22.6341 9.6029 22.0737 10.0165 21.5909C10.4302 21.1081 10.9344 20.7124 11.5002 20.4266C12.066 20.1408 12.6822 19.9705 13.3135 19.9256C13.8037 18.5768 14.6748 17.4021 15.8194 16.5463C16.964 15.6906 18.3321 15.1912 19.7549 15.1098C19.9176 15.0985 20.085 15.0928 20.2477 15.0928C22.0838 15.0812 23.8562 15.7701 25.2092 17.0213C26.5622 18.2725 27.3955 19.9932 27.5419 21.8381C28.2625 22.1258 28.8783 22.6291 29.3065 23.2803C29.7479 23.9448 29.9886 24.7241 29.9995 25.5237C29.9939 25.7391 29.9698 25.9535 29.9275 26.1647C29.7318 27.114 29.2168 27.9661 28.4695 28.5767C27.7223 29.1873 26.7888 29.519 25.8268 29.5157L13.6866 29.5166Z" fill="#5135FF"/>
<path d="M6.35595 8.00627H5.11219C5.0296 8.00627 4.95039 7.9732 4.89199 7.91433C4.83359 7.85546 4.80078 7.77563 4.80078 7.69238V6.43494C4.80078 6.35169 4.83359 6.27185 4.89199 6.21298C4.95039 6.15412 5.0296 6.12105 5.11219 6.12105H6.35595C6.43854 6.12105 6.51774 6.15412 6.57614 6.21298C6.63454 6.27185 6.66735 6.35169 6.66735 6.43494V7.68955C6.66772 7.73101 6.65994 7.77213 6.64446 7.81054C6.62897 7.84895 6.60609 7.88388 6.57714 7.91333C6.54819 7.94278 6.51373 7.96615 6.47577 7.9821C6.4378 7.99806 6.39708 8.00627 6.35595 8.00627Z" fill="#5135FF"/>
<path d="M10.0891 8.00627H8.84533C8.76274 8.00627 8.68353 7.9732 8.62513 7.91433C8.56673 7.85546 8.53392 7.77563 8.53392 7.69238V6.43494C8.53392 6.35169 8.56673 6.27185 8.62513 6.21298C8.68353 6.15412 8.76274 6.12105 8.84533 6.12105H10.09C10.1726 6.12105 10.2518 6.15412 10.3102 6.21298C10.3686 6.27185 10.4014 6.35169 10.4014 6.43494V7.68955C10.4014 7.7728 10.3686 7.85264 10.3102 7.9115C10.2518 7.97037 10.1726 8.00344 10.09 8.00344" fill="#5135FF"/>
<path d="M13.8222 8.00627H12.5785C12.4959 8.00627 12.4167 7.9732 12.3583 7.91433C12.2999 7.85546 12.2671 7.77563 12.2671 7.69238V6.43494C12.2671 6.35169 12.2999 6.27185 12.3583 6.21298C12.4167 6.15412 12.4959 6.12105 12.5785 6.12105H13.8232C13.9058 6.12105 13.985 6.15412 14.0434 6.21298C14.1018 6.27185 14.1346 6.35169 14.1346 6.43494V7.68955C14.1346 7.7728 14.1018 7.85264 14.0434 7.9115C13.985 7.97037 13.9058 8.00344 13.8232 8.00344" fill="#5135FF"/>
<path d="M6.35595 11.7692H5.11219C5.0296 11.7692 4.95039 11.7361 4.89199 11.6772C4.83359 11.6184 4.80078 11.5385 4.80078 11.4553V10.1978C4.80078 10.1146 4.83359 10.0347 4.89199 9.97588C4.95039 9.91701 5.0296 9.88394 5.11219 9.88394H6.35595C6.43854 9.88394 6.51774 9.91701 6.57614 9.97588C6.63454 10.0347 6.66735 10.1146 6.66735 10.1978V11.4524C6.66772 11.4939 6.65994 11.535 6.64446 11.5734C6.62897 11.6118 6.60609 11.6468 6.57714 11.6762C6.54819 11.7057 6.51373 11.729 6.47577 11.745C6.4378 11.7609 6.39708 11.7692 6.35595 11.7692Z" fill="#5135FF"/>
<path d="M10.0891 11.7692H8.84533C8.76274 11.7692 8.68353 11.7361 8.62513 11.6772C8.56673 11.6184 8.53392 11.5385 8.53392 11.4553V10.1978C8.53392 10.1146 8.56673 10.0347 8.62513 9.97588C8.68353 9.91701 8.76274 9.88394 8.84533 9.88394H10.09C10.1726 9.88394 10.2518 9.91701 10.3102 9.97588C10.3686 10.0347 10.4014 10.1146 10.4014 10.1978V11.4524C10.4014 11.5357 10.3686 11.6155 10.3102 11.6744C10.2518 11.7333 10.1726 11.7663 10.09 11.7663" fill="#5135FF"/>
<path d="M6.35595 15.5321H5.11219C5.0296 15.5321 4.95039 15.499 4.89199 15.4401C4.83359 15.3813 4.80078 15.3014 4.80078 15.2182V13.9607C4.80078 13.8775 4.83359 13.7976 4.89199 13.7388C4.95039 13.6799 5.0296 13.6468 5.11219 13.6468H6.35595C6.43854 13.6468 6.51774 13.6799 6.57614 13.7388C6.63454 13.7976 6.66735 13.8775 6.66735 13.9607V15.2153C6.66772 15.2568 6.65994 15.2979 6.64446 15.3363C6.62897 15.3747 6.60609 15.4097 6.57714 15.4391C6.54819 15.4686 6.51373 15.4919 6.47577 15.5079C6.4378 15.5238 6.39708 15.5321 6.35595 15.5321Z" fill="#5135FF"/>
<path d="M27.4353 8.10713C27.3991 8.066 27.3717 8.01787 27.3546 7.96568C27.3376 7.91349 27.3313 7.85833 27.3362 7.80361C27.3399 7.73448 27.3418 7.66473 27.3418 7.59435C27.3418 7.52365 27.3418 7.45484 27.3362 7.38509C27.3313 7.3305 27.3376 7.2755 27.3547 7.22346C27.3717 7.17143 27.3992 7.12346 27.4353 7.08251L27.6887 6.80915C27.7604 6.73285 27.8055 6.63509 27.8171 6.53066C27.8288 6.42623 27.8063 6.32083 27.7532 6.23039L26.963 4.88152C26.9084 4.7906 26.8269 4.71923 26.7299 4.67747C26.633 4.6357 26.5255 4.62564 26.4225 4.64869L26.0531 4.72787C25.9985 4.73832 25.9424 4.73779 25.888 4.72631C25.8336 4.71482 25.782 4.69261 25.7361 4.66095C25.6181 4.58279 25.4957 4.51165 25.3695 4.44792C25.3193 4.4253 25.2741 4.39269 25.2366 4.35203C25.1992 4.31138 25.1703 4.26352 25.1516 4.21132L25.0385 3.85879C25.0051 3.75841 24.9411 3.67125 24.8556 3.60979C24.7701 3.54833 24.6675 3.51571 24.5625 3.51662H22.9868C22.8815 3.51599 22.7788 3.54894 22.6933 3.61074C22.6078 3.67254 22.5439 3.76003 22.5108 3.86067L22.3976 4.21321C22.3789 4.26538 22.35 4.31321 22.3126 4.35386C22.2751 4.39451 22.2299 4.42714 22.1797 4.4498C22.0534 4.51246 21.9307 4.58233 21.8122 4.65906C21.7662 4.69091 21.7145 4.71331 21.6599 4.72495C21.6054 4.7366 21.5491 4.73727 21.4942 4.72693L21.1277 4.64681C21.0249 4.62382 20.9175 4.63392 20.8207 4.67569C20.7239 4.71746 20.6425 4.78879 20.5881 4.87963L19.7997 6.22945C19.7469 6.31979 19.7246 6.425 19.7362 6.52923C19.7479 6.63345 19.7928 6.73104 19.8643 6.80727L20.1177 7.08062C20.154 7.12186 20.1815 7.17015 20.1985 7.22251C20.2156 7.27487 20.2218 7.3302 20.2168 7.38509C20.2168 7.4539 20.2112 7.52365 20.2112 7.5934C20.2112 7.66316 20.2112 7.73291 20.2168 7.80266C20.2218 7.85754 20.2155 7.91286 20.1985 7.96521C20.1814 8.01757 20.1539 8.06586 20.1177 8.10713L19.8643 8.38048C19.7927 8.45686 19.7477 8.55461 19.7361 8.659C19.7245 8.76339 19.7468 8.86876 19.7997 8.95924L20.589 10.3062C20.6435 10.3971 20.7248 10.4684 20.8216 10.5102C20.9184 10.5519 21.0258 10.562 21.1286 10.5391L21.4961 10.4589C21.6065 10.4384 21.7205 10.4628 21.8131 10.5268C21.9316 10.6035 22.0543 10.6734 22.1807 10.7361C22.2309 10.7587 22.2761 10.7914 22.3135 10.832C22.3509 10.8727 22.3799 10.9205 22.3985 10.9727L22.5117 11.3261C22.5448 11.4266 22.6086 11.514 22.6939 11.5758C22.7792 11.6376 22.8817 11.6706 22.9868 11.6702H24.5653C24.6705 11.671 24.7733 11.6381 24.8589 11.5763C24.9444 11.5144 25.0083 11.4269 25.0413 11.3261L25.1544 10.9736C25.1732 10.9215 25.2022 10.8737 25.2396 10.8331C25.277 10.7924 25.3222 10.7598 25.3723 10.737C25.4987 10.6744 25.6214 10.6045 25.7399 10.5277C25.8315 10.4649 25.9438 10.4402 26.0531 10.4589L26.4206 10.54C26.5236 10.5628 26.631 10.5526 26.7279 10.5108C26.8248 10.4691 26.9064 10.3979 26.9612 10.3072L27.7504 8.9583C27.8033 8.86796 27.8256 8.76275 27.814 8.65852C27.8023 8.5543 27.7574 8.45671 27.6859 8.38048L27.4353 8.10713ZM23.776 9.58985C23.3843 9.58985 23.0013 9.47276 22.6756 9.25339C22.3499 9.03402 22.096 8.72221 21.9461 8.35741C21.7962 7.99261 21.757 7.59119 21.8334 7.20392C21.9098 6.81664 22.0985 6.46091 22.3755 6.1817C22.6525 5.9025 23.0054 5.71235 23.3896 5.63532C23.7738 5.55829 24.1721 5.59782 24.534 5.74893C24.8959 5.90003 25.2052 6.15592 25.4229 6.48424C25.6405 6.81255 25.7567 7.19854 25.7567 7.5934C25.7567 8.12289 25.548 8.6307 25.1766 9.0051C24.8051 9.37951 24.3013 9.58985 23.776 9.58985Z" fill="#5135FF"/>
</svg>
