<svg width="32" height="32" viewBox="0 0 32 32" fill="none" xmlns="http://www.w3.org/2000/svg">
<g opacity="0.75">
<path d="M2.00116 21.6C1.98824 21.0564 2.19164 20.5298 2.56668 20.1361C2.94172 19.7423 3.45772 19.5135 4.00133 19.5H20C20.5436 19.5135 21.0596 19.7423 21.4347 20.1361C21.8097 20.5298 22.0131 21.0564 22.0002 21.6V25.8C21.9744 26.8873 22.3812 27.9404 23.1312 28.7279C23.8813 29.5154 24.9133 29.9729 26.0005 30H6.00062C4.91356 29.9727 3.88178 29.5151 3.13189 28.7276C2.382 27.9401 1.97531 26.8871 2.00116 25.8V21.6Z" fill="#5135FF"/>
<path opacity="0.6" d="M7.25 4.00025C7.25 3.46975 7.46073 2.96098 7.83584 2.58586C8.21094 2.21074 8.71969 2 9.25017 2H27.9998C28.5302 2 29.039 2.21074 29.4141 2.58586C29.7892 2.96098 29.9999 3.46975 29.9999 4.00025V26.0004C29.9999 26.5257 29.8965 27.0459 29.6954 27.5312C29.4944 28.0165 29.1997 28.4574 28.8282 28.8288C28.4567 29.2003 28.0157 29.4948 27.5304 29.6958C27.0451 29.8967 26.5249 30.0001 25.9996 30H7.25V4.00025Z" fill="#5135FF"/>
</g>
<path d="M11.1885 7.25H26.0635C26.1795 7.25 26.2908 7.29609 26.3728 7.37814C26.4549 7.46019 26.501 7.57147 26.501 7.6875V9.4375C26.501 9.55353 26.4549 9.66481 26.3728 9.74686C26.2908 9.82891 26.1795 9.875 26.0635 9.875H11.1885C11.0724 9.875 10.9612 9.82891 10.8791 9.74686C10.7971 9.66481 10.751 9.55353 10.751 9.4375V7.6875C10.751 7.57147 10.7971 7.46019 10.8791 7.37814C10.9612 7.29609 11.0724 7.25 11.1885 7.25Z" fill="#5135FF"/>
<path d="M11.1885 13.375H22.5635C22.6795 13.375 22.7908 13.4211 22.8728 13.5031C22.9549 13.5852 23.001 13.6965 23.001 13.8125V15.5625C23.001 15.6785 22.9549 15.7898 22.8728 15.8719C22.7908 15.9539 22.6795 16 22.5635 16H11.1885C11.0724 16 10.9612 15.9539 10.8791 15.8719C10.7971 15.7898 10.751 15.6785 10.751 15.5625V13.8125C10.751 13.6965 10.7971 13.5852 10.8791 13.5031C10.9612 13.4211 11.0724 13.375 11.1885 13.375Z" fill="#5135FF"/>
</svg>
