<svg width="32" height="32" viewBox="0 0 32 32" fill="none" xmlns="http://www.w3.org/2000/svg">
<path opacity="0.45" d="M23.1579 12.957H16.9346V4.24485C16.9346 3.91486 16.8035 3.59836 16.5703 3.36494C16.337 3.13151 16.0206 3.00024 15.6906 3H3.24485C2.9147 3 2.59806 3.13115 2.36461 3.36461C2.13115 3.59806 2 3.9147 2 4.24485V24.778C2 25.1082 2.13115 25.4248 2.36461 25.6583C2.59806 25.8917 2.9147 26.0229 3.24485 26.0229H24.4018V14.2009C24.4018 13.8708 24.2707 13.5541 24.0372 13.3207C23.8038 13.0872 23.4871 12.9561 23.157 12.9561" fill="#5135FF"/>
<path d="M13.6895 29.3274C12.4835 29.3228 11.3209 28.877 10.4209 28.0742C9.51984 27.278 8.96194 26.1639 8.86417 24.9653C8.81602 24.3339 8.89315 23.6992 9.09114 23.0977C9.28913 22.4962 9.60407 21.9397 10.0178 21.4603C10.4316 20.981 10.9361 20.5881 11.5022 20.3043C12.0683 20.0206 12.685 19.8515 13.3167 19.8069C13.807 18.4685 14.6784 17.3029 15.8233 16.4539C16.9682 15.6048 18.3365 15.1094 19.7596 15.0287C19.9221 15.0176 20.09 15.0121 20.2524 15.0121C22.0879 15.0018 23.8594 15.686 25.2115 16.9273C26.5636 18.1687 27.3963 19.8754 27.5425 21.7051C28.263 21.9907 28.8788 22.4902 29.3069 23.1364C29.7484 23.796 29.9891 24.5694 29.9999 25.3631C29.9943 25.5767 29.9702 25.7894 29.9279 25.9989C29.7317 26.9404 29.2163 27.7853 28.4688 28.3906C27.7214 28.996 26.7879 29.3246 25.8261 29.3209H13.6895V29.3274Z" fill="#5135FF"/>
<path d="M6.35711 7.97863H5.11225C5.02977 7.97863 4.95067 7.94587 4.89235 7.88755C4.83403 7.82923 4.80127 7.75013 4.80127 7.66765V6.4228C4.80127 6.34032 4.83403 6.26122 4.89235 6.2029C4.95067 6.14458 5.02977 6.11182 5.11225 6.11182H6.35711C6.43958 6.11182 6.51868 6.14458 6.577 6.2029C6.63532 6.26122 6.66809 6.34032 6.66809 6.4228V7.66765C6.66809 7.75013 6.63532 7.82923 6.577 7.88755C6.51868 7.94587 6.43958 7.97863 6.35711 7.97863Z" fill="#5135FF"/>
<path d="M10.0907 7.97863H8.84589C8.76341 7.97863 8.68431 7.94587 8.62599 7.88755C8.56767 7.82923 8.53491 7.75013 8.53491 7.66765V6.4228C8.53491 6.34032 8.56767 6.26122 8.62599 6.2029C8.68431 6.14458 8.76341 6.11182 8.84589 6.11182H10.0907C10.1732 6.11182 10.2523 6.14458 10.3106 6.2029C10.369 6.26122 10.4017 6.34032 10.4017 6.4228V7.66765C10.4017 7.75013 10.369 7.82923 10.3106 7.88755C10.2523 7.94587 10.1732 7.97863 10.0907 7.97863Z" fill="#5135FF"/>
<path d="M13.8244 7.97863H12.5795C12.497 7.97863 12.418 7.94587 12.3596 7.88755C12.3013 7.82923 12.2685 7.75013 12.2685 7.66765V6.4228C12.2685 6.34032 12.3013 6.26122 12.3596 6.2029C12.418 6.14458 12.497 6.11182 12.5795 6.11182H13.8244C13.9069 6.11182 13.986 6.14458 14.0443 6.2029C14.1026 6.26122 14.1354 6.34032 14.1354 6.4228V7.66765C14.1354 7.75013 14.1026 7.82923 14.0443 7.88755C13.986 7.94587 13.9069 7.97863 13.8244 7.97863Z" fill="#5135FF"/>
<path d="M6.35711 11.7123H5.11225C5.02977 11.7123 4.95067 11.6795 4.89235 11.6212C4.83403 11.5629 4.80127 11.4838 4.80127 11.4013V10.1564C4.80127 10.074 4.83403 9.99486 4.89235 9.93654C4.95067 9.87822 5.02977 9.84545 5.11225 9.84545H6.35711C6.43958 9.84545 6.51868 9.87822 6.577 9.93654C6.63532 9.99486 6.66809 10.074 6.66809 10.1564V11.4013C6.66809 11.4838 6.63532 11.5629 6.577 11.6212C6.51868 11.6795 6.43958 11.7123 6.35711 11.7123Z" fill="#5135FF"/>
<path d="M10.0907 11.7123H8.84589C8.76341 11.7123 8.68431 11.6795 8.62599 11.6212C8.56767 11.5629 8.53491 11.4838 8.53491 11.4013V10.1564C8.53491 10.074 8.56767 9.99486 8.62599 9.93654C8.68431 9.87822 8.76341 9.84545 8.84589 9.84545H10.0907C10.1732 9.84545 10.2523 9.87822 10.3106 9.93654C10.369 9.99486 10.4017 10.074 10.4017 10.1564V11.4013C10.4017 11.4838 10.369 11.5629 10.3106 11.6212C10.2523 11.6795 10.1732 11.7123 10.0907 11.7123Z" fill="#5135FF"/>
<path d="M6.35711 15.4459H5.11225C5.02977 15.4459 4.95067 15.4131 4.89235 15.3548C4.83403 15.2965 4.80127 15.2174 4.80127 15.1349V13.8901C4.80127 13.8076 4.83403 13.7285 4.89235 13.6702C4.95067 13.6119 5.02977 13.5791 5.11225 13.5791H6.35711C6.43958 13.5791 6.51868 13.6119 6.577 13.6702C6.63532 13.7285 6.66809 13.8076 6.66809 13.8901V15.1349C6.66809 15.2174 6.63532 15.2965 6.577 15.3548C6.51868 15.4131 6.43958 15.4459 6.35711 15.4459Z" fill="#5135FF"/>
</svg>
