<svg width="32" height="32" viewBox="0 0 32 32" fill="none" xmlns="http://www.w3.org/2000/svg">
<path fill-rule="evenodd" clip-rule="evenodd" d="M8.125 17.1666C8.125 16.7677 8.44862 16.4443 8.84783 16.4443H24.0272C24.4264 16.4443 24.7501 16.7677 24.7501 17.1666V27.2777C24.7501 27.6765 24.4264 27.9999 24.0272 27.9999H8.84783C8.44862 27.9999 8.125 27.6765 8.125 27.2777V17.1666ZM11.5791 19.7123C11.5791 19.1483 12.0739 18.6911 12.6843 18.6911C13.2948 18.6911 13.7896 19.1483 13.7896 19.7123V19.9999H14.1213C14.7609 19.9999 15.2794 20.4974 15.2794 21.111C15.2794 21.7247 14.7609 22.2221 14.1213 22.2221H13.7896V25.1587C13.7896 25.7227 13.2948 26.1799 12.6843 26.1799C12.0739 26.1799 11.5791 25.7227 11.5791 25.1587V22.2221H11.0331C10.3935 22.2221 9.87501 21.7247 9.87501 21.111C9.87501 20.4974 10.3935 19.9999 11.0331 19.9999H11.5791V19.7123ZM18.9474 19.7123C18.9474 19.1483 19.4422 18.6911 20.0527 18.6911C20.6631 18.6911 21.1579 19.1483 21.1579 19.7123V22.2221H21.5589C22.1985 22.2221 22.717 22.7196 22.717 23.3332C22.717 23.9469 22.1985 24.4443 21.5589 24.4443H21.1579V25.1587C21.1579 25.7227 20.6631 26.1799 20.0527 26.1799C19.4422 26.1799 18.9474 25.7227 18.9474 25.1587V24.4443H18.4706C17.831 24.4443 17.3125 23.9469 17.3125 23.3332C17.3125 22.7196 17.831 22.2221 18.4706 22.2221H18.9474V19.7123Z" fill="#5135FF"/>
<g opacity="0.45">
<path d="M26.3157 21.5436V16.9333C26.3157 15.6815 25.326 14.6667 24.1052 14.6667H8.63147C7.41063 14.6667 6.42095 15.6815 6.42095 16.9333V21.4817C5.57047 21.222 4.77408 20.796 4.08204 20.2216C2.90694 19.2541 2.16659 17.8669 2.02235 16.3624C1.95504 15.6151 2.04014 14.862 2.27261 14.1478C2.50508 13.4336 2.8802 12.7727 3.37577 12.2042C3.94534 11.5527 4.63955 11.0187 5.41855 10.633C6.19755 10.2473 7.04599 10.0173 7.91517 9.95641C8.60777 8.26155 9.78048 6.80002 11.2927 5.74708C12.8049 4.69414 14.5924 4.09447 16.4409 4.01998C16.6556 4.00692 16.8734 4 17.0927 4C22.1681 4 26.4072 7.65254 26.7448 12.3148C27.6868 12.6608 28.5013 13.2794 29.082 14.0897C29.6627 14.9001 29.9826 15.8645 30 16.8573C29.9817 17.7286 29.7289 18.5794 29.2675 19.3223C28.8061 20.0651 28.1529 20.6731 27.3748 21.0839C27.3748 21.0839 26.9573 21.3422 26.3157 21.5436Z" fill="#5135FF"/>
<path d="M17.3126 23.3333C17.3126 22.7197 17.8311 22.2222 18.4707 22.2222H21.5589C22.1985 22.2222 22.717 22.7197 22.717 23.3333C22.717 23.947 22.1985 24.4444 21.5589 24.4444H18.4707C17.8311 24.4444 17.3126 23.947 17.3126 23.3333Z" fill="#5135FF"/>
<path d="M9.87503 21.1111C9.87503 20.4975 10.3935 20 11.0331 20H14.1214C14.761 20 15.2795 20.4975 15.2795 21.1111C15.2795 21.7248 14.761 22.2222 14.1214 22.2222H11.0331C10.3935 22.2222 9.87503 21.7248 9.87503 21.1111Z" fill="#5135FF"/>
</g>
</svg>
