<svg width="32" height="32" viewBox="0 0 32 32" fill="none" xmlns="http://www.w3.org/2000/svg">
<path opacity="0.45" d="M14.2429 19.4993H8.99345V15.1234C8.99325 14.8916 8.90136 14.6692 8.73748 14.5051C8.57359 14.3411 8.35106 14.2488 8.11918 14.2484H6.36988C6.13794 14.2488 5.9156 14.3411 5.75159 14.5051C5.58758 14.6691 5.49527 14.8915 5.49485 15.1234V18.8522C4.55651 18.4208 3.73752 17.7665 3.10979 16.9464C2.49628 16.138 2.11976 15.1749 2.02132 14.1648C1.9571 13.4422 2.03827 12.7142 2.26059 12.0236C2.4829 11.333 2.8419 10.6939 3.31563 10.1444C3.8945 9.47975 4.59883 8.93626 5.38851 8.54476C6.17819 8.15325 7.03767 7.92176 7.91714 7.86342C8.63131 6.17583 9.81379 4.72856 11.3253 3.69259C12.8369 2.65663 14.614 2.07567 16.4456 2.01849C16.6556 2.00605 16.8676 2.00026 17.0776 2.00026C19.4897 1.98299 21.8307 2.81692 23.6889 4.35494C24.5643 5.06978 25.2863 5.9541 25.8112 6.95497C26.3361 7.95584 26.6536 9.05206 26.7439 10.1786C27.6772 10.5045 28.4885 11.1076 29.0705 11.9066C29.6525 12.7057 29.9771 13.6627 30.001 14.651C29.9958 15.6667 29.6487 16.6516 29.0151 17.4454C28.3661 18.2608 27.4924 18.8686 26.5024 19.194V15.1234C26.502 14.8915 26.4097 14.6691 26.2457 14.5051C26.0817 14.3411 25.8593 14.2488 25.6274 14.2484H23.875C23.6434 14.249 23.4217 14.3418 23.2583 14.5059C23.0948 14.6699 23.0028 14.8918 23.003 15.1234V19.4986H17.7521V11.6241C17.7515 11.3918 17.6591 11.1691 17.4946 11.005C17.3301 10.841 17.1071 10.749 16.8748 10.749H15.1285C14.8962 10.749 14.6733 10.841 14.5087 11.005C14.3441 11.169 14.2513 11.3917 14.2505 11.6241V19.4986L14.2429 19.4993Z" fill="#5135FF"/>
<g opacity="0.75">
<path d="M23.8703 14.2489H25.6203C25.8524 14.2489 26.0749 14.341 26.239 14.5051C26.4031 14.6692 26.4953 14.8918 26.4953 15.1239V23.8742C26.4953 24.1063 26.4031 24.3288 26.239 24.4929C26.0749 24.657 25.8524 24.7492 25.6203 24.7492H23.8703C23.6382 24.7492 23.4156 24.657 23.2515 24.4929C23.0874 24.3288 22.9952 24.1063 22.9952 23.8742V15.1239C22.9952 14.8918 23.0874 14.6692 23.2515 14.5051C23.4156 14.341 23.6382 14.2489 23.8703 14.2489Z" fill="#5135FF"/>
<path d="M6.36966 14.2489H8.11972C8.35179 14.2489 8.57436 14.341 8.73846 14.5051C8.90256 14.6692 8.99475 14.8918 8.99475 15.1239V23.8742C8.99475 24.1063 8.90256 24.3288 8.73846 24.4929C8.57436 24.657 8.35179 24.7492 8.11972 24.7492H6.36966C6.13759 24.7492 5.91502 24.657 5.75092 24.4929C5.58682 24.3288 5.49463 24.1063 5.49463 23.8742V15.1239C5.49463 14.8918 5.58682 14.6692 5.75092 14.5051C5.91502 14.341 6.13759 14.2489 6.36966 14.2489Z" fill="#5135FF"/>
<path d="M15.12 10.7495H16.87C17.1021 10.7495 17.3247 10.8417 17.4888 11.0058C17.6529 11.1699 17.745 11.3925 17.745 11.6245V27.3751C17.745 27.6071 17.6529 27.8297 17.4888 27.9938C17.3247 28.1579 17.1021 28.2501 16.87 28.2501H15.12C14.8879 28.2501 14.6653 28.1579 14.5012 27.9938C14.3371 27.8297 14.2449 27.6071 14.2449 27.3751V11.6245C14.2449 11.3925 14.3371 11.1699 14.5012 11.0058C14.6653 10.8417 14.8879 10.7495 15.12 10.7495Z" fill="#5135FF"/>
</g>
<path d="M21.2447 26.4997C21.2447 25.8074 21.45 25.1307 21.8346 24.5551C22.2192 23.9795 22.7659 23.5309 23.4054 23.266C24.045 23.0011 24.7487 22.9318 25.4277 23.0668C26.1067 23.2019 26.7303 23.5352 27.2198 24.0247C27.7093 24.5142 28.0427 25.1379 28.1777 25.8168C28.3128 26.4958 28.2435 27.1996 27.9785 27.8391C27.7136 28.4787 27.265 29.0253 26.6894 29.4099C26.1138 29.7945 25.4371 29.9998 24.7449 29.9998C23.8166 29.9998 22.9263 29.631 22.2699 28.9746C21.6135 28.3182 21.2447 27.428 21.2447 26.4997ZM12.4952 26.4997C12.4952 25.8074 12.7005 25.1307 13.0851 24.5551C13.4697 23.9795 14.0163 23.5309 14.6559 23.266C15.2955 23.0011 15.9992 22.9318 16.6782 23.0668C17.3571 23.2019 17.9808 23.5352 18.4703 24.0247C18.9598 24.5142 19.2931 25.1379 19.4282 25.8168C19.5633 26.4958 19.4939 27.1996 19.229 27.8391C18.9641 28.4787 18.5155 29.0253 17.9399 29.4099C17.3643 29.7945 16.6876 29.9998 15.9953 29.9998C15.5356 29.9999 15.0804 29.9094 14.6557 29.7336C14.2309 29.5577 13.845 29.2999 13.5199 28.9749C13.1948 28.6499 12.9369 28.264 12.7609 27.8393C12.585 27.4146 12.4944 26.9594 12.4944 26.4997H12.4952ZM3.74414 26.4997C3.74414 25.8074 3.94942 25.1307 4.33402 24.5551C4.71862 23.9795 5.26526 23.5309 5.90482 23.266C6.54439 23.0011 7.24814 22.9318 7.9271 23.0668C8.60606 23.2019 9.22972 23.5352 9.71922 24.0247C10.2087 24.5142 10.5421 25.1379 10.6771 25.8168C10.8122 26.4958 10.7429 27.1996 10.4779 27.8391C10.213 28.4787 9.76441 29.0253 9.18882 29.4099C8.61323 29.7945 7.93652 29.9998 7.24426 29.9998C6.31597 29.9998 5.4257 29.631 4.7693 28.9746C4.1129 28.3182 3.74414 27.428 3.74414 26.4997ZM12.4944 10.7491C12.4944 10.0569 12.6997 9.38017 13.0843 8.80458C13.4689 8.22899 14.0156 7.78037 14.6551 7.51546C15.2947 7.25054 15.9984 7.18123 16.6774 7.31628C17.3564 7.45133 17.98 7.78469 18.4695 8.27419C18.959 8.76369 19.2924 9.38735 19.4274 10.0663C19.5625 10.7453 19.4932 11.449 19.2282 12.0886C18.9633 12.7281 18.5147 13.2748 17.9391 13.6594C17.3635 14.044 16.6868 14.2493 15.9946 14.2493C15.0663 14.2493 14.176 13.8805 13.5196 13.2241C12.8632 12.5677 12.4944 11.6774 12.4944 10.7491Z" fill="#5135FF"/>
</svg>
