<svg width="32" height="32" viewBox="0 0 32 32" fill="none" xmlns="http://www.w3.org/2000/svg">
<g opacity="0.45">
<path d="M19.5001 24.5178H12.5001V26.6695H19.5001V24.5178Z" fill="#5135FF"/>
<path d="M25.1002 15.1937H6.90024V17.3454H25.1002V15.1937Z" fill="#5135FF"/>
<path d="M19.5009 5.15234H12.5009V7.30407H19.5009V5.15234Z" fill="#5135FF"/>
<path d="M19.5965 6.9335L10.4965 23.0834L12.3151 24.1592L21.4151 8.00936L19.5965 6.9335Z" fill="#5135FF"/>
<path d="M21.3198 23.4539L12.2198 7.30407L10.4011 8.37993L19.5011 24.5298L21.3198 23.4539Z" fill="#5135FF"/>
<path d="M6.62606 14.3981L9.98838 8.10729L8.1465 7.07375L4.78418 13.3646L6.62606 14.3981Z" fill="#5135FF"/>
<path d="M25.0953 17.3757L21.733 23.6665L23.5749 24.7L26.9372 18.4092L25.0953 17.3757Z" fill="#5135FF"/>
<path d="M26.8275 13.362L23.3275 7.1505L21.5089 8.22636L25.0089 14.4379L26.8275 13.362Z" fill="#5135FF"/>
<path d="M4.8939 18.4118L8.3939 24.6233L10.2126 23.5474L6.71255 17.3359L4.8939 18.4118Z" fill="#5135FF"/>
</g>
<path d="M4.84375 18.8697C6.41431 18.8697 7.6875 17.5651 7.6875 15.9559C7.6875 14.3466 6.41431 13.0421 4.84375 13.0421C3.27319 13.0421 2 14.3466 2 15.9559C2 17.5651 3.27319 18.8697 4.84375 18.8697Z" fill="#5135FF"/>
<path d="M27.1562 18.8696C28.7268 18.8696 30 17.565 30 15.9558C30 14.3465 28.7268 13.042 27.1562 13.042C25.5857 13.042 24.3125 14.3465 24.3125 15.9558C24.3125 17.565 25.5857 18.8696 27.1562 18.8696Z" fill="#5135FF"/>
<path d="M10.4437 8.82759C12.0143 8.82759 13.2875 7.52304 13.2875 5.91379C13.2875 4.30455 12.0143 3 10.4437 3C8.87319 3 7.6 4.30455 7.6 5.91379C7.6 7.52304 8.87319 8.82759 10.4437 8.82759Z" fill="#5135FF"/>
<path d="M10.4437 29C12.0142 29 13.2874 27.6954 13.2874 26.0862C13.2874 24.477 12.0142 23.1724 10.4437 23.1724C8.8731 23.1724 7.59991 24.477 7.59991 26.0862C7.59991 27.6954 8.8731 29 10.4437 29Z" fill="#5135FF"/>
<path d="M21.6438 8.82759C23.2143 8.82759 24.4875 7.52304 24.4875 5.91379C24.4875 4.30455 23.2143 3 21.6438 3C20.0732 3 18.8 4.30455 18.8 5.91379C18.8 7.52304 20.0732 8.82759 21.6438 8.82759Z" fill="#5135FF"/>
<path d="M21.6437 29C23.2143 29 24.4875 27.6954 24.4875 26.0862C24.4875 24.477 23.2143 23.1724 21.6437 23.1724C20.0731 23.1724 18.8 24.477 18.8 26.0862C18.8 27.6954 20.0731 29 21.6437 29Z" fill="#5135FF"/>
<path fill-rule="evenodd" clip-rule="evenodd" d="M15.6907 10.6401C15.7189 10.6273 15.7495 10.6207 15.7804 10.6207C15.8113 10.6207 15.8418 10.6273 15.8701 10.6401L20.0878 12.4893C20.1756 12.5315 20.2495 12.599 20.3005 12.6835C20.3515 12.7681 20.3773 12.866 20.3748 12.9654V13.4002C20.3761 14.4181 20.3003 15.4345 20.1482 16.4404C20.0738 16.9313 19.9398 17.4107 19.7493 17.8675L19.5939 18.2408C19.3161 18.9116 18.8926 19.5087 18.3557 19.9866C17.8454 20.4418 17.2625 20.8036 16.6324 21.0562L15.8613 21.3641C15.8085 21.3844 15.7502 21.3844 15.6974 21.3641L14.9263 21.0562C14.2961 20.8034 13.713 20.4416 13.2024 19.9866C12.6674 19.5067 12.2459 18.9085 11.9698 18.2372L11.7656 17.7528C11.6086 17.3728 11.4956 16.9753 11.4289 16.5683C11.2683 15.6045 11.1876 14.6285 11.1877 13.6507V12.9633C11.1851 12.8635 11.211 12.7652 11.2621 12.6802C11.3133 12.5953 11.3875 12.5275 11.4756 12.4851L15.6907 10.6401Z" fill="#5135FF"/>
<path d="M17.1885 15.2313C17.1885 16.0801 16.5169 16.7682 15.6885 16.7682C14.86 16.7682 14.1885 16.0801 14.1885 15.2313C14.1885 14.3825 14.86 13.6943 15.6885 13.6943C16.5169 13.6943 17.1885 14.3825 17.1885 15.2313Z" fill="white"/>
<path d="M14.9384 16.0001H16.4384V18.3055H14.9384V16.0001Z" fill="white"/>
</svg>
