<svg width="32" height="32" viewBox="0 0 32 32" fill="none" xmlns="http://www.w3.org/2000/svg">
<path opacity="0.45" d="M10.512 3.31723C11.3489 2.80613 12.3452 2.60283 13.3219 2.74381C14.3167 2.88577 15.2254 3.3735 15.8809 4.11723C16.5363 4.86096 16.8943 5.81063 16.889 6.79144V9.171H14.9719C14.6217 9.16879 14.2799 9.27801 13.9958 9.48288C13.7105 9.68867 13.4984 9.9802 13.3904 10.315L13.3884 10.3213L13.2561 10.7539C13.0548 10.8565 12.8589 10.9692 12.669 11.0915L12.1776 10.991C12.0605 10.9628 11.9406 10.9482 11.8202 10.9476L11.8183 10.9476L11.8164 10.9476C11.5276 10.9472 11.2437 11.0223 10.9928 11.1654C10.7419 11.3084 10.5327 11.5145 10.3858 11.7631L9.12446 13.9082C8.94178 14.2142 8.86494 14.5719 8.90589 14.926C8.94662 15.2782 9.10158 15.6072 9.34696 15.8629L9.66764 16.2067C9.66095 16.3129 9.66103 16.4147 9.66109 16.4912L9.6611 16.5115C9.6611 16.5988 9.66527 16.6811 9.66824 16.7388C9.67036 16.78 9.67169 16.8065 9.67241 16.8252L9.33747 17.1783L9.33486 17.1811C9.09324 17.4404 8.94218 17.771 8.90428 18.1233C8.86637 18.4756 8.94367 18.8308 9.12459 19.1355L9.12621 19.1382L10.4175 21.2773L10.4182 21.2784C10.5667 21.5235 10.7759 21.7262 11.0257 21.8667C11.2755 22.0072 11.5574 22.0809 11.844 22.0805L11.849 22.0805L11.8539 22.0805C11.9699 22.079 12.0854 22.0655 12.1986 22.0401L12.692 21.9365C12.8729 22.0532 13.059 22.1616 13.2496 22.2615L13.3889 22.7171L13.3915 22.7251C13.5017 23.0618 13.7165 23.3545 14.0047 23.5606C14.2911 23.7654 14.635 23.874 14.987 23.8708H16.889V25.0775C16.894 26.1536 16.4758 27.1907 15.7206 27.9751C14.9654 28.7596 13.9306 29.2316 12.8293 29.2941C11.9485 29.3384 11.0753 29.1141 10.3311 28.6523C9.58682 28.1905 9.00836 27.5142 8.67598 26.7172C8.60054 26.5156 8.46782 26.3392 8.29334 26.2086C8.11887 26.078 7.90986 25.9986 7.6908 25.9797C6.77729 25.9025 5.9113 25.5489 5.21385 24.9682C4.34429 24.3344 3.75536 23.4009 3.56722 22.358C3.46016 21.6408 3.55076 20.9086 3.8297 20.2369C3.9062 20.0587 3.92525 19.8621 3.88429 19.6732C3.84334 19.4842 3.74433 19.312 3.60047 19.1793C2.7634 18.4168 2.21823 17.3983 2.05515 16.2924C1.89207 15.1865 2.12086 14.0594 2.70365 13.0976C3.18245 12.3382 3.8445 11.7046 4.63202 11.2522C4.64605 11.2452 4.65808 11.235 4.66702 11.2223C4.67406 11.2068 4.6762 11.1895 4.67314 11.1728C4.66685 11.0985 4.65773 11.0254 4.64863 10.9524C4.63242 10.8223 4.61627 10.6927 4.61627 10.5582C4.62713 9.57252 4.96605 8.61695 5.58197 7.83548C6.19789 7.05401 7.05746 6.48898 8.03115 6.22552C8.20166 6.17827 8.35731 6.09007 8.48387 5.96899C8.61042 5.84791 8.70385 5.69782 8.7556 5.53243C9.05237 4.61372 9.67512 3.82832 10.512 3.31723Z" fill="#5757D9"/>
<path d="M8.28986 26.2078C8.46355 26.3383 8.59521 26.5148 8.66921 26.7161C8.98982 27.4846 9.5393 28.1415 10.2466 28.6021C10.954 29.0627 11.7866 29.3058 12.6371 29.2999C12.6677 29.2999 12.699 29.2984 12.7302 29.2969C12.7615 29.2954 12.7928 29.2939 12.8234 29.2939C13.9251 29.2318 14.9603 28.7598 15.7158 27.9752C16.4713 27.1905 16.8894 26.1529 16.884 25.0764V23.8678H15.4106V25.079C15.4205 25.7903 15.1521 26.4786 14.66 27.0037C14.168 27.5288 13.4893 27.8511 12.7622 27.9052H12.6362C12.0814 27.9068 11.5386 27.7472 11.0772 27.4467C10.6157 27.1461 10.2566 26.7182 10.0455 26.2176C10.0297 26.1775 10.0114 26.1366 9.99211 26.0973C10.4843 26.0215 10.9491 25.8264 11.3438 25.5297C11.7385 25.2331 12.0505 24.8445 12.2512 24.3995L12.2533 24.3958C12.3064 24.3017 12.7804 23.462 13.5339 23.441C13.6262 23.4411 13.7176 23.4241 13.8033 23.3911C13.6143 23.2054 13.4715 22.9763 13.3883 22.7221L13.3857 22.7141L13.2464 22.2586C13.1534 22.2098 13.0615 22.1591 12.9708 22.1063C12.6026 22.2031 12.2533 22.3627 11.9398 22.5791C11.4835 22.894 11.1182 23.3185 10.8793 23.8114C10.8782 23.8151 10.8759 23.8182 10.8736 23.8212C10.8707 23.8251 10.8679 23.8288 10.8679 23.8336C10.7557 24.0861 10.5733 24.303 10.3414 24.4597C10.1095 24.6164 9.83728 24.7067 9.55552 24.7205C9.18903 24.7626 8.81808 24.7493 8.45572 24.6812C8.39103 24.6659 8.32454 24.659 8.25799 24.6607C8.10526 24.6218 7.94913 24.5969 7.79164 24.5865C7.18042 24.5272 6.60318 24.2841 6.13976 23.8908C5.55755 23.4747 5.15837 22.859 5.02246 22.1675C4.94707 21.687 5.00757 21.1956 5.19745 20.7463C5.37785 20.3131 5.41991 19.8368 5.31812 19.3799C5.21633 18.9229 4.97543 18.5066 4.62699 18.1856C4.02025 17.6347 3.62525 16.8976 3.50777 16.0972C3.39028 15.2967 3.5574 14.4811 3.98129 13.7863C4.33941 13.2242 4.83406 12.7568 5.42144 12.4257C5.64543 12.2948 5.83083 12.1095 5.95952 11.8879C6.10555 11.6357 6.16877 11.3458 6.14064 11.0574C6.13189 10.9644 6.12314 10.8875 6.11176 10.7936C6.10992 10.7785 6.10806 10.7634 6.10623 10.7486C6.09674 10.672 6.08814 10.6024 6.08814 10.5581C6.09804 9.88385 6.3285 9.23037 6.74591 8.69294C7.16332 8.15551 7.74584 7.76227 8.40847 7.57057L8.46447 7.56203C8.81394 7.49291 9.1724 7.47793 9.52665 7.51765C9.8144 7.52946 10.0929 7.62011 10.3303 7.77923C10.5677 7.93835 10.7543 8.15949 10.8688 8.41731C10.8732 8.42412 10.877 8.43126 10.8802 8.43865C11.1197 8.93071 11.4853 9.35419 11.9415 9.66818C12.3796 9.96964 12.887 10.1604 13.4184 10.2239C13.5335 9.92615 13.7327 9.66743 13.9927 9.47992C14.075 9.42054 14.1621 9.36921 14.253 9.32628C14.2455 9.29993 14.2365 9.27396 14.2259 9.24852C14.1891 9.15973 14.1344 9.07905 14.0651 9.01127C13.9957 8.94349 13.9131 8.88999 13.8222 8.85394C13.7312 8.8179 13.6338 8.80003 13.5356 8.80142C12.7725 8.78189 12.3053 7.9375 12.2538 7.84432L12.253 7.84286C12.0589 7.41132 11.7595 7.03264 11.381 6.73985C11.0025 6.44706 10.5563 6.24903 10.0814 6.16303C10.1147 6.08431 10.1439 6.00397 10.1688 5.92233C10.3415 5.39106 10.6837 4.92756 11.1456 4.59954C11.6074 4.27152 12.1647 4.09617 12.7359 4.0991C12.8652 4.09913 12.9944 4.1074 13.1226 4.12386C13.7705 4.2234 14.3594 4.54856 14.7803 5.03913C15.2013 5.5297 15.4258 6.15246 15.4124 6.79211V9.16803H16.884V6.79297C16.8897 5.81265 16.5324 4.86329 15.8778 4.11947C15.2232 3.37566 14.3154 2.8874 13.3213 2.74449C13.1272 2.71908 12.9317 2.70596 12.7359 2.70522C11.8495 2.69787 10.9841 2.96869 10.2675 3.47771C9.55083 3.98673 9.02089 4.707 8.75583 5.53225C8.71448 5.66587 8.64558 5.78985 8.55335 5.89656C8.46112 6.00327 8.34751 6.09047 8.21949 6.15279C8.18887 6.15834 8.16349 6.16453 8.14381 6.16933C8.12412 6.17413 8.11012 6.17754 8.10225 6.17754C8.01783 6.19656 7.93735 6.22947 7.86426 6.27485C6.92776 6.56324 6.10879 7.13331 5.52463 7.90345C4.94046 8.67359 4.62105 9.6043 4.61212 10.5623C4.61212 10.6975 4.62797 10.8288 4.64388 10.9605C4.65248 11.0317 4.6611 11.103 4.66724 11.1752C4.67118 11.1919 4.66901 11.2094 4.66111 11.2247C4.6533 11.2382 4.64137 11.2489 4.62699 11.2554C3.84162 11.7083 3.18099 12.3407 2.70213 13.0983C2.11806 14.0597 1.88854 15.1871 2.05166 16.2933C2.21479 17.3996 2.76075 18.4181 3.59894 19.18C3.74326 19.3125 3.84251 19.485 3.88333 19.6742C3.92416 19.8635 3.9046 20.0603 3.8273 20.2384C3.54948 20.911 3.45892 21.6434 3.56482 22.3612C3.75394 23.4039 4.34343 24.3371 5.2132 24.9706C5.91103 25.5498 6.7765 25.9024 7.68928 25.9795C7.90773 25.998 8.11617 26.0772 8.28986 26.2078Z" fill="#5757D9"/>
<path fill-rule="evenodd" clip-rule="evenodd" d="M27.0675 7.09725C26.684 6.84749 26.2333 6.71428 25.7722 6.71444C25.1544 6.71535 24.5621 6.95524 24.1253 7.38151C23.6885 7.80778 23.4428 8.38563 23.4421 8.98835C23.4421 9.43813 23.5788 9.8778 23.835 10.2518C23.9006 10.3474 23.9732 10.4377 24.0521 10.522L23.2333 12.1005H22.3007L23.1512 13.537H23.6875C23.8235 13.5364 23.9568 13.4993 24.0727 13.4297C24.1886 13.3602 24.2826 13.2609 24.3446 13.1427L25.3391 11.2225C25.6315 11.2766 25.9334 11.2758 26.2282 11.2185C26.6803 11.1307 27.0957 10.914 27.4216 10.5959C27.7476 10.2779 27.9695 9.8726 28.0594 9.43145C28.1492 8.9903 28.1029 8.53306 27.9264 8.11758C27.7498 7.70209 27.4509 7.34701 27.0675 7.09725ZM26.2481 9.68317C26.1073 9.77499 25.9416 9.824 25.7722 9.824C25.5452 9.82355 25.3276 9.73536 25.167 9.57875C25.0065 9.42213 24.9161 9.20984 24.9156 8.98835C24.9156 8.82308 24.9658 8.66152 25.06 8.5241C25.1541 8.38667 25.2879 8.27957 25.4444 8.21632C25.6009 8.15307 25.7732 8.13652 25.9393 8.16877C26.1055 8.20101 26.2581 8.2806 26.3779 8.39746C26.4977 8.51433 26.5793 8.66323 26.6124 8.82533C26.6454 8.98743 26.6285 9.15545 26.5636 9.30814C26.4988 9.46083 26.389 9.59134 26.2481 9.68317Z" fill="#5757D9"/>
<path fill-rule="evenodd" clip-rule="evenodd" d="M22.8216 16.6739V16.2161L23.1531 15.8593C23.3204 15.6798 23.4445 15.4662 23.5179 15.2348H25.2575C25.3714 14.9003 25.564 14.5949 25.8214 14.3439C26.1473 14.0259 26.5627 13.8093 27.0149 13.7216C27.467 13.6338 27.9357 13.6788 28.3616 13.851C28.7876 14.0231 29.1516 14.3145 29.4077 14.6885C29.6639 15.0624 29.8006 15.502 29.8006 15.9518C29.8001 16.5547 29.5544 17.1328 29.1173 17.5592C28.6803 17.9855 28.0877 18.2252 27.4696 18.2257C27.0086 18.2257 26.5579 18.0923 26.1746 17.8425C25.7913 17.5926 25.4925 17.2375 25.3161 16.822C25.2953 16.7732 25.2764 16.7238 25.2593 16.6739H22.8216ZM27.4696 15.1161C27.3002 15.1161 27.1346 15.1651 26.9937 15.257C26.8528 15.3488 26.743 15.4793 26.6782 15.632C26.6134 15.7847 26.5964 15.9527 26.6294 16.1148C26.6625 16.2769 26.7441 16.4258 26.8639 16.5427C26.9837 16.6595 27.1363 16.7391 27.3025 16.7714C27.4686 16.8036 27.6409 16.7871 27.7974 16.7238C27.9539 16.6606 28.0877 16.5535 28.1819 16.416C28.276 16.2786 28.3262 16.117 28.3262 15.9518C28.3255 15.7305 28.235 15.5185 28.0744 15.3622C27.9139 15.2059 27.6964 15.1181 27.4696 15.1178V15.1161Z" fill="#5757D9"/>
<path fill-rule="evenodd" clip-rule="evenodd" d="M22.9728 19.8099L23.3733 19.1357L23.3766 19.13C23.5103 18.897 23.5843 18.6359 23.594 18.3699H23.6857C23.822 18.3695 23.9557 18.4062 24.0718 18.4759C24.1879 18.5455 24.2818 18.6454 24.3428 18.7643L25.3395 20.6874C25.4811 20.6611 25.626 20.6475 25.7722 20.6473C26.2333 20.6471 26.684 20.7803 27.0675 21.0301C27.4509 21.2798 27.7498 21.6349 27.9264 22.0504C28.1029 22.4659 28.1492 22.9231 28.0594 23.3643C27.9695 23.8054 27.7476 24.2107 27.4216 24.5288C27.0957 24.8469 26.6803 25.0635 26.2282 25.1513C25.776 25.2391 25.3072 25.1941 24.8813 25.0221C24.4553 24.85 24.0912 24.5585 23.835 24.1846C23.5788 23.8106 23.4421 23.3709 23.4421 22.9212C23.4428 22.3531 23.6611 21.8071 24.0519 21.3893L23.2325 19.8099H22.9728ZM25.7722 23.7568C25.9416 23.7568 26.1073 23.7078 26.2481 23.616C26.389 23.5242 26.4988 23.3936 26.5636 23.241C26.6285 23.0883 26.6454 22.9202 26.6124 22.7581C26.5793 22.596 26.4977 22.4471 26.3779 22.3303C26.2581 22.2134 26.1055 22.1338 25.9393 22.1016C25.7732 22.0693 25.6009 22.0859 25.4444 22.1491C25.2879 22.2124 25.1541 22.3195 25.06 22.4569C24.9658 22.5943 24.9156 22.7559 24.9156 22.9212C24.9163 23.1425 25.0068 23.3546 25.1673 23.511C25.3278 23.6674 25.5453 23.7564 25.7722 23.7568Z" fill="#5757D9"/>
<path d="M7.99465 12.2283C8.02855 12.0278 7.89044 11.8383 7.68617 11.805C7.4819 11.7717 7.28883 11.9073 7.25493 12.1078C7.2178 12.3274 7.09599 12.6869 6.857 13.0048C6.62267 13.3165 6.28867 13.5732 5.81813 13.6443C5.61347 13.6753 5.47311 13.8632 5.50461 14.064C5.53611 14.2649 5.72755 14.4027 5.9322 14.3718C6.42188 14.2978 6.80932 14.0878 7.10841 13.8239C8.13572 14.3525 8.16821 14.8641 8.14447 14.9515C8.10255 15.1059 8.22149 15.2588 8.41012 15.2931C8.59876 15.3274 8.78565 15.2301 8.82757 15.0757C8.93719 14.672 8.66575 13.9637 7.51981 13.3596C7.79862 12.959 7.94413 12.5271 7.99465 12.2283Z" fill="#5757D9"/>
<path d="M6.81747 17.5183C6.65309 17.357 6.41362 17.3771 6.2826 17.5633C6.15157 17.7494 6.17862 18.031 6.343 18.1923C6.51204 18.3582 6.73587 18.6794 6.8345 19.0706C6.92712 19.4379 6.91721 19.8907 6.59935 20.3912C6.47635 20.5848 6.51483 20.8651 6.68529 21.0173C6.85576 21.1695 7.09366 21.1359 7.21666 20.9422C7.47378 20.5375 7.60109 20.1286 7.63619 19.7378C8.20408 19.8277 8.50731 20.327 8.5828 20.5522C8.65497 20.7675 8.86367 20.8812 9.04894 20.8062C9.23421 20.7312 9.3259 20.4959 9.25373 20.2806C9.10811 19.8462 8.58558 19.0011 7.60221 18.9065C7.59376 18.9056 7.58537 18.9052 7.57704 18.905C7.57282 18.8867 7.56843 18.8686 7.56387 18.8505C7.41226 18.2492 7.08247 17.7783 6.81747 17.5183Z" fill="#5757D9"/>
<path d="M15.3595 15.0131L15.9885 16.9145H14.6893L15.3195 15.0131H15.3595Z" fill="#5757D9"/>
<path fill-rule="evenodd" clip-rule="evenodd" d="M14.9532 22.9998H17.3553C17.5156 23.0033 17.6728 22.9534 17.8046 22.8572C17.9364 22.761 18.0361 22.6235 18.0894 22.4641L18.2518 21.8993C18.3128 21.7332 18.4328 21.5988 18.5864 21.5244C18.7732 21.4269 18.9599 21.3156 19.1435 21.1958C19.251 21.1153 19.3802 21.0733 19.5121 21.076C19.5511 21.0735 19.5901 21.0735 19.6291 21.076L20.1862 21.2044C20.2394 21.2178 20.2939 21.2247 20.3486 21.2249C20.4793 21.2229 20.6074 21.1861 20.721 21.1179C20.8346 21.0496 20.93 20.9522 20.9982 20.8347L22.2017 18.7003C22.2807 18.5554 22.3135 18.3876 22.2953 18.2216C22.2772 18.0556 22.2091 17.9 22.101 17.7778L21.7161 17.343C21.6607 17.2783 21.6188 17.2021 21.5931 17.1192C21.5674 17.0364 21.5584 16.9488 21.5667 16.8621V16.1911C21.5584 16.1044 21.5674 16.0168 21.5931 15.934C21.6188 15.8512 21.6607 15.7749 21.7161 15.7102L22.101 15.2737C22.209 15.1517 22.277 14.9965 22.2951 14.8308C22.3133 14.6651 22.2805 14.4976 22.2017 14.3529L20.9966 12.2083C20.9284 12.0907 20.833 11.9933 20.7194 11.9251C20.6058 11.8568 20.4777 11.82 20.347 11.818C20.2922 11.8188 20.2377 11.8263 20.1845 11.8403L19.621 11.9669C19.5819 11.9754 19.5422 11.98 19.5024 11.9806C19.3738 11.9798 19.2483 11.9387 19.1418 11.8625C18.9637 11.7353 18.7776 11.621 18.5848 11.5202C18.5077 11.4851 18.4382 11.4337 18.3807 11.3693C18.3232 11.3048 18.2787 11.2286 18.2502 11.1454L18.0878 10.5874C18.0384 10.4293 17.9432 10.2916 17.8156 10.1936C17.6879 10.0956 17.5343 10.0424 17.3764 10.0414H14.9402C14.7813 10.0399 14.6262 10.0919 14.4974 10.1898C14.3685 10.2877 14.2727 10.4264 14.2239 10.5857L14.0615 11.1454C14.0325 11.2291 13.9867 11.3053 13.9273 11.3688C13.8679 11.4323 13.7962 11.4816 13.7172 11.5134C13.5237 11.6158 13.3361 11.7301 13.1552 11.8557C13.0495 11.9306 12.9253 11.971 12.7979 11.9721C12.7571 11.9712 12.7164 11.9672 12.6761 11.9601L12.1125 11.8386C12.0595 11.8241 12.0049 11.8166 11.9501 11.8163C11.819 11.8162 11.6901 11.8521 11.5761 11.9205C11.4622 11.989 11.3672 12.0876 11.3005 12.2066L10.1035 14.3512C10.0218 14.4944 9.98736 14.662 10.0056 14.828C10.0238 14.9939 10.0936 15.1489 10.2042 15.2686L10.5875 15.7016C10.6434 15.7661 10.6857 15.8422 10.7118 15.9251C10.7378 16.008 10.7469 16.0957 10.7385 16.1826C10.7271 16.2767 10.7271 16.3863 10.7271 16.5112C10.7271 16.5781 10.7304 16.6445 10.7334 16.7062C10.7361 16.7598 10.7385 16.8098 10.7385 16.8535C10.747 16.9403 10.7381 17.0279 10.7124 17.1108C10.6866 17.1936 10.6446 17.2698 10.5891 17.3345L10.1977 17.7692C10.0894 17.8916 10.0218 18.0476 10.0048 18.214C9.98779 18.3803 10.0224 18.5479 10.1035 18.6918L11.3265 20.8261C11.3941 20.9438 11.4895 21.0411 11.6033 21.1086C11.7171 21.176 11.8455 21.2114 11.9761 21.2112C12.0308 21.2105 12.0852 21.2036 12.1385 21.1907L12.6956 21.0675C12.7348 21.0602 12.7744 21.0562 12.8142 21.0555C12.9444 21.0561 13.0715 21.0971 13.1796 21.1736C13.3593 21.2982 13.5453 21.4124 13.7367 21.5159C13.8128 21.5507 13.8811 21.6022 13.9371 21.6668C13.9931 21.7313 14.0355 21.8077 14.0615 21.8907L14.2239 22.4504C14.2741 22.6119 14.3719 22.7523 14.5031 22.8511C14.6342 22.95 14.7919 23.0021 14.9532 22.9998ZM14.0347 18.8896H12.8749L14.6421 13.8648H16.0369L17.8017 18.8896H16.6418L16.2628 17.7438H14.4145L14.0347 18.8896ZM19.5002 13.8648V18.8896H18.4179V13.8648H19.5002Z" fill="#5757D9"/>
</svg>
