<svg width="32" height="32" viewBox="0 0 32 32" fill="none" xmlns="http://www.w3.org/2000/svg">
<path opacity="0.45" d="M28.672 17.7649C28.5471 17.6234 28.4522 17.458 28.3932 17.2787C28.3343 17.0993 28.3124 16.9099 28.329 16.7219C28.343 16.4839 28.35 16.2444 28.35 16.0035C28.35 15.7626 28.343 15.5234 28.329 15.286C28.3124 15.098 28.3343 14.9086 28.3932 14.7293C28.4522 14.5499 28.5471 14.3845 28.672 14.243L29.5472 13.3041C29.7945 13.0418 29.9498 12.7063 29.9898 12.348C30.0297 11.9897 29.9521 11.6282 29.7686 11.3179L27.0372 6.68566C26.8477 6.37417 26.5655 6.12966 26.2302 5.98628C25.8949 5.8429 25.5232 5.80781 25.167 5.88591L23.8954 6.16066C23.7057 6.19624 23.511 6.19407 23.3222 6.15428C23.1334 6.1145 22.9544 6.03787 22.7953 5.92878C22.3873 5.66106 21.9638 5.41768 21.5271 5.19991C21.3534 5.12177 21.1971 5.00956 21.0675 4.86993C20.9379 4.7303 20.8377 4.5661 20.7727 4.38704L20.378 3.17604C20.2623 2.8321 20.0412 2.53336 19.746 2.32225C19.4508 2.11114 19.0965 1.9984 18.7336 2.00004H13.2673C12.903 1.99749 12.5472 2.11044 12.2511 2.32267C11.955 2.53491 11.7339 2.83551 11.6193 3.18129L11.2281 4.39229C11.163 4.57128 11.0627 4.73542 10.9332 4.87503C10.8036 5.01464 10.6474 5.12689 10.4737 5.20516C10.0353 5.4195 9.60982 5.65937 9.19948 5.92354C8.87812 6.14379 8.48245 6.2275 8.09939 6.15628L6.82952 5.88066C6.47319 5.8017 6.10107 5.83648 5.76555 5.98011C5.43004 6.12374 5.14804 6.36898 4.95928 6.68128L2.23137 11.3135C2.04791 11.6238 1.9703 11.9854 2.01023 12.3436C2.05017 12.7019 2.20549 13.0375 2.45279 13.2998L3.32796 14.2386C3.45275 14.3802 3.54749 14.5457 3.60646 14.725C3.66543 14.9043 3.68739 15.0936 3.67103 15.2816C3.65702 15.5196 3.64915 15.7594 3.64915 16C3.64915 16.2406 3.65527 16.4795 3.67103 16.7175C3.68755 16.9055 3.66566 17.095 3.60668 17.2743C3.5477 17.4536 3.45288 17.619 3.32796 17.7605L2.45279 18.7003C2.20569 18.9625 2.05049 19.2979 2.01056 19.656C1.97063 20.0141 2.04812 20.3754 2.23137 20.6856L4.96453 25.3135C5.15329 25.6258 5.43529 25.871 5.7708 26.0147C6.10632 26.1583 6.47844 26.1931 6.83477 26.1141L8.10552 25.8385C8.48869 25.7675 8.88437 25.8516 9.20561 26.0721C9.61505 26.3363 10.0397 26.5761 10.4772 26.7905C10.6509 26.8689 10.807 26.9813 10.9364 27.121C11.0659 27.2608 11.1659 27.4251 11.2308 27.6042L11.622 28.8144C11.7359 29.1603 11.9565 29.4613 12.252 29.6743C12.5476 29.8873 12.903 30.0013 13.2673 30H18.7336C19.0972 30.0011 19.4518 29.8876 19.7471 29.6755C20.0423 29.4634 20.2631 29.1636 20.378 28.8187L20.7684 27.6077C20.8333 27.4287 20.9336 27.2645 21.0632 27.1248C21.1927 26.9852 21.349 26.873 21.5228 26.7949C21.9604 26.5802 22.385 26.3401 22.7944 26.0756C22.9534 25.9664 23.1325 25.8896 23.3212 25.8497C23.51 25.8097 23.7048 25.8074 23.8945 25.8429L25.1652 26.1176C25.5215 26.1968 25.8936 26.1622 26.2291 26.0187C26.5646 25.8752 26.8467 25.6301 27.0355 25.3179L29.7686 20.69C29.9521 20.3797 30.0297 20.0182 29.9898 19.6599C29.9498 19.3016 29.7945 18.9661 29.5472 18.7038L28.672 17.7649Z" fill="#5135FF"/>
<path d="M12.9878 21.4683C12.821 21.3692 12.699 21.2093 12.6475 21.0222C12.596 20.8351 12.619 20.6354 12.7115 20.4649C12.8041 20.2943 12.9592 20.1662 13.1441 20.1075C13.3291 20.0487 13.5296 20.0639 13.7037 20.1497C14.3859 20.5184 15.1518 20.7049 15.9272 20.6912C16.7026 20.6775 17.4614 20.464 18.1301 20.0713C18.7989 19.6787 19.355 19.1202 19.7448 18.4498C20.1345 17.7795 20.3447 17.0199 20.355 16.2446L19.6347 16.9621C19.5658 17.036 19.4827 17.0952 19.3904 17.1362C19.2981 17.1773 19.1984 17.1993 19.0974 17.201C18.9964 17.2026 18.8961 17.1839 18.8025 17.146C18.7088 17.108 18.6238 17.0516 18.5525 16.9801C18.4812 16.9085 18.425 16.8233 18.3873 16.7296C18.3497 16.6359 18.3313 16.5355 18.3333 16.4345C18.3353 16.3335 18.3577 16.234 18.399 16.1418C18.4404 16.0496 18.4999 15.9668 18.574 15.8981L20.5764 13.8944C20.7176 13.7548 20.9082 13.6765 21.1068 13.6765C21.3053 13.6765 21.4959 13.7548 21.6371 13.8944L23.6395 15.8981C23.7094 15.9677 23.7649 16.0504 23.8028 16.1415C23.8407 16.2326 23.8603 16.3302 23.8604 16.4289C23.8606 16.5275 23.8413 16.6252 23.8037 16.7164C23.7661 16.8076 23.7109 16.8905 23.6412 16.9604C23.5716 17.0302 23.4889 17.0857 23.3978 17.1236C23.3067 17.1615 23.209 17.1811 23.1104 17.1812C23.0117 17.1814 22.914 17.1621 22.8228 17.1245C22.7316 17.0869 22.6487 17.0317 22.5788 16.9621L21.8585 16.2429C21.8489 17.2788 21.5715 18.2947 21.0532 19.1918C20.5349 20.0889 19.7934 20.8368 18.9006 21.3627C18.0078 21.8886 16.9942 22.1747 15.9581 22.1932C14.922 22.2117 13.8988 21.962 12.9878 21.4683ZM10.0586 18.4645L8.0562 16.4607C7.9204 16.3188 7.84556 16.1294 7.8477 15.933C7.84984 15.7366 7.92878 15.5488 8.06763 15.4099C8.20648 15.271 8.39421 15.1919 8.59064 15.1896C8.78707 15.1873 8.97659 15.262 9.11866 15.3976L9.84067 16.1195C9.8502 15.0835 10.1276 14.0675 10.6458 13.1703C11.164 12.2731 11.9055 11.5251 12.7983 10.9991C13.691 10.473 14.7047 10.1867 15.7408 10.168C16.7769 10.1493 17.8002 10.3988 18.7114 10.8922C18.7228 10.8975 18.7359 10.9036 18.7473 10.9106C18.9148 11.0127 19.0357 11.1762 19.0841 11.3663C19.1326 11.5564 19.1047 11.7578 19.0065 11.9276C18.9083 12.0974 18.7475 12.222 18.5585 12.2747C18.3696 12.3275 18.1675 12.3043 17.9955 12.21C17.3131 11.8411 16.547 11.6545 15.7713 11.6682C14.9956 11.6819 14.2366 11.8955 13.5676 12.2882C12.8986 12.6809 12.3422 13.2395 11.9523 13.9101C11.5623 14.5806 11.352 15.3404 11.3416 16.116L12.0636 15.395C12.205 15.2543 12.3964 15.1756 12.5958 15.1761C12.7952 15.1766 12.9863 15.2563 13.1269 15.3976C13.2676 15.5389 13.3463 15.7303 13.3459 15.9297C13.3454 16.1291 13.2657 16.3201 13.1243 16.4607L11.1202 18.4645C10.9792 18.6052 10.7882 18.6843 10.5889 18.6843C10.3897 18.6843 10.1995 18.6052 10.0586 18.4645Z" fill="#5135FF"/>
</svg>
