<svg width="32" height="32" viewBox="0 0 32 32" fill="none" xmlns="http://www.w3.org/2000/svg">
<g opacity="0.45">
<path d="M2.93568 26.5624C2.68752 26.5624 2.44953 26.4699 2.27405 26.3054C2.09858 26.1409 2 25.9178 2 25.6851V20.4218C2 20.1891 2.09858 19.966 2.27405 19.8015C2.44953 19.637 2.68752 19.5445 2.93568 19.5445H15.0995C13.4801 20.1815 12.0261 21.138 10.8363 22.349C9.64649 23.56 8.74887 24.997 8.20448 26.5624H2.93568ZM23.5206 17.7901H2.93568C2.68752 17.7901 2.44953 17.6977 2.27405 17.5332C2.09858 17.3686 2 17.1455 2 16.9129V11.6495C2 11.4168 2.09858 11.1937 2.27405 11.0292C2.44953 10.8647 2.68752 10.7723 2.93568 10.7723H23.5206C23.7688 10.7723 24.0067 10.8647 24.1822 11.0292C24.3577 11.1937 24.4563 11.4168 24.4563 11.6495V16.9129C24.4563 17.1455 24.3577 17.3686 24.1822 17.5332C24.0067 17.6977 23.7688 17.7901 23.5206 17.7901ZM23.5206 9.01782H2.93568C2.68752 9.01782 2.44953 8.9254 2.27405 8.76088C2.09858 8.59637 2 8.37324 2 8.14059V2.87723C2 2.64457 2.09858 2.42145 2.27405 2.25693C2.44953 2.09242 2.68752 2 2.93568 2H23.5206C23.7688 2 24.0067 2.09242 24.1822 2.25693C24.3577 2.42145 24.4563 2.64457 24.4563 2.87723V8.14059C24.4563 8.37324 24.3577 8.59637 24.1822 8.76088C24.0067 8.9254 23.7688 9.01782 23.5206 9.01782Z" fill="#5135FF"/>
<path d="M15.0602 30H9.46349C9.46401 28.6091 9.78599 27.2349 10.4074 25.972C11.0288 24.709 11.9346 23.5873 13.0627 22.6841L16.3193 27.0128C15.5084 27.8218 15.0567 28.8898 15.0575 30H15.0602Z" fill="#5135FF"/>
</g>
<path opacity="0.75" d="M17.8417 25.9961L14.5869 21.6691C16.1484 20.8209 17.9203 20.3736 19.7249 20.3721C21.5295 20.3705 23.3025 20.815 24.8657 21.6605L21.6072 25.9918C21.014 25.7467 20.3732 25.6209 19.7249 25.6209C19.0767 25.6209 18.4349 25.7467 17.8417 25.9918V25.9961Z" fill="#5135FF"/>
<path d="M29.063 22.738C28.5089 22.1118 27.8843 21.5436 27.2001 21.0432V15.1254H24.3968V13.3771H27.1973V6.5549C27.1973 6.50837 27.1775 6.46374 27.1424 6.43084C27.1074 6.39794 27.0598 6.37945 27.0101 6.37945H24.3968V4.625H27.0092C27.5551 4.625 28.0787 4.82833 28.4648 5.19025C28.8508 5.55218 29.0677 6.04306 29.0677 6.5549V22.738H29.063ZM15.0568 19.5028H3.86426V17.7483H22.5292V18.9282C20.0365 18.3751 17.4211 18.5749 15.0568 19.4993V19.5028ZM20.6634 15.1254H17.8639C17.7349 15.1356 17.605 15.1205 17.4825 15.0812C17.36 15.0418 17.2476 14.9791 17.1523 14.897C17.057 14.8148 16.9809 14.715 16.9289 14.6038C16.8768 14.4927 16.85 14.3726 16.85 14.2513C16.85 14.1299 16.8768 14.0098 16.9289 13.8987C16.9809 13.7875 17.057 13.6877 17.1523 13.6056C17.2476 13.5234 17.36 13.4607 17.4825 13.4213C17.605 13.382 17.7349 13.3669 17.8639 13.3771H20.6634C20.7924 13.3669 20.9223 13.382 21.0448 13.4213C21.1673 13.4607 21.2797 13.5234 21.375 13.6056C21.4703 13.6877 21.5464 13.7875 21.5984 13.8987C21.6504 14.0098 21.6773 14.1299 21.6773 14.2513C21.6773 14.3726 21.6504 14.4927 21.5984 14.6038C21.5464 14.715 21.4703 14.8148 21.375 14.897C21.2797 14.9791 21.1673 15.0418 21.0448 15.0812C20.9223 15.1205 20.7924 15.1356 20.6634 15.1254ZM22.5282 10.7507H3.86426V8.99622H22.5292L22.5282 10.7507ZM20.6634 6.37945H17.8639C17.6157 6.37945 17.3777 6.28703 17.2022 6.12252C17.0268 5.95801 16.9282 5.73488 16.9282 5.50223C16.9282 5.26957 17.0268 5.04645 17.2022 4.88193C17.3777 4.71742 17.6157 4.625 17.8639 4.625H20.6634C20.9116 4.625 21.1496 4.71742 21.325 4.88193C21.5005 5.04645 21.5991 5.26957 21.5991 5.50223C21.5991 5.73488 21.5005 5.95801 21.325 6.12252C21.1496 6.28703 20.9116 6.37945 20.6634 6.37945Z" fill="#5135FF"/>
<path d="M24.3953 29.9991C24.3975 28.886 23.9436 27.8146 23.1279 27.0059L26.3881 22.6737C26.5949 22.8386 26.7976 23.0147 26.9894 23.1945C27.9458 24.0855 28.705 25.1453 29.2217 26.3128C29.7383 27.4804 30.0029 28.7324 30.0002 29.9965L24.3953 29.9991Z" fill="#5135FF"/>
</svg>
