<svg width="32" height="32" viewBox="0 0 32 32" fill="none" xmlns="http://www.w3.org/2000/svg">
<path opacity="0.45" d="M3.008 8.35129L15.0078 2.23504C15.3157 2.08048 15.6555 2 16 2C16.3445 2 16.6843 2.08048 16.9923 2.23504L28.992 8.35129C29.2871 8.49058 29.5377 8.70919 29.7157 8.98269C29.8937 9.25619 29.9921 9.57381 30 9.90004V22.1002C29.9921 22.4264 29.8937 22.744 29.7157 23.0175C29.5377 23.291 29.2871 23.5096 28.992 23.6489L16.9923 29.7652C16.6843 29.9197 16.3445 30.0002 16 30.0002C15.6555 30.0002 15.3157 29.9197 15.0078 29.7652L3.008 23.6489C2.7129 23.5096 2.46234 23.291 2.28434 23.0175C2.10633 22.744 2.00788 22.4264 2 22.1002V9.90004C2.00788 9.57381 2.10633 9.25619 2.28434 8.98269C2.46234 8.70919 2.7129 8.49058 3.008 8.35129Z" fill="#5135FF"/>
<path d="M9.875 19.5005H11.625C11.8571 19.5005 12.0796 19.5927 12.2437 19.7568C12.4078 19.9209 12.5 20.1434 12.5 20.3755V22.1255C12.5 22.3576 12.4078 22.5801 12.2437 22.7442C12.0796 22.9083 11.8571 23.0005 11.625 23.0005H9.875C9.64294 23.0005 9.42038 22.9083 9.25628 22.7442C9.09219 22.5801 9 22.3576 9 22.1255V20.3755C9 20.1434 9.09219 19.9209 9.25628 19.7568C9.42038 19.5927 9.64294 19.5005 9.875 19.5005Z" fill="#5135FF"/>
<path d="M9.875 14.2505H11.625C11.8571 14.2505 12.0796 14.3427 12.2437 14.5068C12.4078 14.6709 12.5 14.8934 12.5 15.1255V16.8755C12.5 17.1076 12.4078 17.3301 12.2437 17.4942C12.0796 17.6583 11.8571 17.7505 11.625 17.7505H9.875C9.64294 17.7505 9.42038 17.6583 9.25628 17.4942C9.09219 17.3301 9 17.1076 9 16.8755V15.1255C9 14.8934 9.09219 14.6709 9.25628 14.5068C9.42038 14.3427 9.64294 14.2505 9.875 14.2505Z" fill="#5135FF"/>
<path d="M15.125 19.5005H16.875C17.1071 19.5005 17.3296 19.5927 17.4937 19.7568C17.6578 19.9209 17.75 20.1434 17.75 20.3755V22.1255C17.75 22.3576 17.6578 22.5801 17.4937 22.7442C17.3296 22.9083 17.1071 23.0005 16.875 23.0005H15.125C14.8929 23.0005 14.6704 22.9083 14.5063 22.7442C14.3422 22.5801 14.25 22.3576 14.25 22.1255V20.3755C14.25 20.1434 14.3422 19.9209 14.5063 19.7568C14.6704 19.5927 14.8929 19.5005 15.125 19.5005Z" fill="#5135FF"/>
<path d="M15.125 14.2505H16.875C17.1071 14.2505 17.3296 14.3427 17.4937 14.5068C17.6578 14.6709 17.75 14.8934 17.75 15.1255V16.8755C17.75 17.1076 17.6578 17.3301 17.4937 17.4942C17.3296 17.6583 17.1071 17.7505 16.875 17.7505H15.125C14.8929 17.7505 14.6704 17.6583 14.5063 17.4942C14.3422 17.3301 14.25 17.1076 14.25 16.8755V15.1255C14.25 14.8934 14.3422 14.6709 14.5063 14.5068C14.6704 14.3427 14.8929 14.2505 15.125 14.2505Z" fill="#5135FF"/>
<path d="M15.125 9.00049H16.875C17.1071 9.00049 17.3296 9.09268 17.4937 9.25677C17.6578 9.42086 17.75 9.64342 17.75 9.87549V11.6255C17.75 11.8576 17.6578 12.0801 17.4937 12.2442C17.3296 12.4083 17.1071 12.5005 16.875 12.5005H15.125C14.8929 12.5005 14.6704 12.4083 14.5063 12.2442C14.3422 12.0801 14.25 11.8576 14.25 11.6255V9.87549C14.25 9.64342 14.3422 9.42086 14.5063 9.25677C14.6704 9.09268 14.8929 9.00049 15.125 9.00049Z" fill="#5135FF"/>
<path d="M20.375 19.5005H22.125C22.3571 19.5005 22.5796 19.5927 22.7437 19.7568C22.9078 19.9209 23 20.1434 23 20.3755V22.1255C23 22.3576 22.9078 22.5801 22.7437 22.7442C22.5796 22.9083 22.3571 23.0005 22.125 23.0005H20.375C20.1429 23.0005 19.9204 22.9083 19.7563 22.7442C19.5922 22.5801 19.5 22.3576 19.5 22.1255V20.3755C19.5 20.1434 19.5922 19.9209 19.7563 19.7568C19.9204 19.5927 20.1429 19.5005 20.375 19.5005Z" fill="#5135FF"/>
</svg>
