<svg width="32" height="32" viewBox="0 0 32 32" fill="none" xmlns="http://www.w3.org/2000/svg">
<path opacity="0.45" d="M30 24.0014C29.0512 25.9819 27.1826 27.3346 25.0393 27.3346H7.90493C5.87291 27.3346 4.18009 26.6146 3 25.3346C2.67938 24.9899 2.24978 24.4189 2 24.0013L30 24.0014ZM17.1538 4.66836C19.6702 4.64449 22.1141 5.7268 24.064 7.72494C24.9764 8.64408 25.7308 9.78598 26.2801 11.083C26.8295 12.38 27.1623 13.805 27.2593 15.2691C28.3333 15.3346 29.4762 16.0433 30 16.668L2 16.6682C2.20401 16.161 2.45596 15.6851 2.75312 15.2535C3.3616 14.379 4.10236 13.6652 4.93183 13.1519C5.76125 12.6387 6.66338 12.3357 7.58616 12.2626C8.92621 7.96167 12.4253 4.99046 16.4985 4.69375C16.7072 4.67798 16.9279 4.66836 17.1538 4.66836Z" fill="#5135FF"/>
<path d="M6.66667 20.3343C6.66667 21.623 5.622 22.6676 4.33333 22.6676C3.04467 22.6676 2 21.623 2 20.3343C2 19.0456 3.04467 18.001 4.33333 18.001C5.622 18.001 6.66667 19.0456 6.66667 20.3343Z" fill="#5135FF"/>
<path d="M30 20.3343C30 21.623 28.9553 22.6676 27.6667 22.6676C26.378 22.6676 25.3333 21.623 25.3333 20.3343C25.3333 19.0456 26.378 18.001 27.6667 18.001C28.9553 18.001 30 19.0456 30 20.3343Z" fill="#5135FF"/>
<path d="M10.942 19.3343C11.5244 19.3343 12 19.7828 12 20.3343C11.9998 20.8856 11.5243 21.3343 10.942 21.3343L9.05802 21.3343C8.47572 21.3343 8.00022 20.8856 8 20.3343C8 19.7828 8.47558 19.3343 9.05802 19.3343L10.942 19.3343Z" fill="#5135FF"/>
<path d="M16.942 19.3343C17.5244 19.3343 18 19.7828 18 20.3343C17.9998 20.8856 17.5243 21.3343 16.942 21.3343L15.058 21.3343C14.4757 21.3343 14.0002 20.8856 14 20.3343C14 19.7828 14.4756 19.3343 15.058 19.3343L16.942 19.3343Z" fill="#5135FF"/>
<path d="M22.942 19.3343C23.5244 19.3343 24 19.7828 24 20.3343C23.9998 20.8856 23.5243 21.3343 22.942 21.3343L21.058 21.3343C20.4757 21.3343 20.0002 20.8856 20 20.3343C20 19.7828 20.4756 19.3343 21.058 19.3343L22.942 19.3343Z" fill="#5135FF"/>
</svg>
