<svg width="32" height="32" viewBox="0 0 32 32" fill="none" xmlns="http://www.w3.org/2000/svg">
<path opacity="0.45" d="M15.5868 23.6911H3.74997C3.28585 23.6911 2.84074 23.5067 2.51256 23.1786C2.18437 22.8504 2 22.4053 2 21.9411V20.0818H15.0732C15.0548 20.3049 15.046 20.5333 15.046 20.7625C15.0443 21.7636 15.2282 22.7564 15.5868 23.6911ZM15.4118 18.3309H2V6.19138C2 5.72726 2.18437 5.28215 2.51256 4.95396C2.84074 4.62578 3.28585 4.44141 3.74997 4.44141H25.335C25.7991 4.44141 26.2442 4.62578 26.5724 4.95396C26.9006 5.28215 27.085 5.72726 27.085 6.19138V13.5588C26.0233 12.9894 24.8489 12.6617 23.6458 12.599C22.4426 12.5363 21.2405 12.7403 20.1254 13.1962C19.0103 13.6522 18.0097 14.3489 17.1951 15.2365C16.3806 16.1242 15.7722 17.1808 15.4135 18.3309H15.4118Z" fill="#5135FF"/>
<path d="M4.88672 15.5832C4.94471 14.6136 5.38417 13.7065 6.10903 13.06C6.83389 12.4135 7.7852 12.0803 8.75503 12.1331C9.72487 12.0803 10.6762 12.4135 11.401 13.06C12.1259 13.7065 12.5654 14.6136 12.6233 15.5832" fill="#5135FF"/>
<path d="M10.8646 9.53352C10.8648 9.9508 10.7412 10.3588 10.5095 10.7058C10.2778 11.0528 9.94841 11.3234 9.56295 11.4832C9.17748 11.643 8.75329 11.6849 8.34401 11.6036C7.93473 11.5223 7.55876 11.3214 7.26364 11.0264C6.96852 10.7314 6.76751 10.3555 6.68604 9.94628C6.60457 9.53704 6.6463 9.11282 6.80594 8.72729C6.96559 8.34176 7.23598 8.01224 7.58292 7.7804C7.92986 7.54855 8.33776 7.4248 8.75503 7.4248C9.31431 7.42504 9.85063 7.64725 10.2462 8.04264C10.6417 8.43802 10.8642 8.97425 10.8646 9.53352Z" fill="#5135FF"/>
<path d="M23.2058 27.5565C26.9577 27.5565 29.9992 24.515 29.9992 20.7631C29.9992 17.0112 26.9577 13.9697 23.2058 13.9697C19.4539 13.9697 16.4124 17.0112 16.4124 20.7631C16.4124 24.515 19.4539 27.5565 23.2058 27.5565Z" fill="#5135FF"/>
<path d="M22.9409 22.3105L20.7457 20.1153C20.4088 19.7784 19.8627 19.7782 19.5259 20.115C19.1892 20.4517 19.1893 20.9978 19.5262 21.3348L21.7214 23.5299C22.0583 23.8669 22.6044 23.867 22.9412 23.5302C23.2779 23.1935 23.2778 22.6474 22.9409 22.3105Z" fill="white"/>
<path d="M25.3812 18.6512L21.7222 22.3103C21.3853 22.6472 21.3846 23.1932 21.7214 23.5299C22.0583 23.8669 22.6044 23.867 22.9412 23.5302L26.6007 19.8707C26.9376 19.5338 26.9378 18.9877 26.601 18.6509C26.2643 18.3142 25.7181 18.3143 25.3812 18.6512Z" fill="white"/>
</svg>
