<svg width="32" height="32" viewBox="0 0 32 32" fill="none" xmlns="http://www.w3.org/2000/svg">
<path d="M15.8509 25.1726C15.162 25.1682 14.4761 25.0804 13.807 24.911C11.8347 24.3912 10.0883 23.2011 8.84835 21.5314C7.60842 19.8617 6.94654 17.8094 6.96932 15.704C6.96932 15.4378 6.97993 15.1874 7.00093 14.9349C7.09015 13.7309 7.52634 12.5828 8.25362 11.6384C8.65072 11.1367 9.08993 10.6721 9.56612 10.2505C10.6167 9.38609 11.4935 8.31658 12.1467 7.10341C13.0313 5.40158 12.3974 3.49453 10.4522 2C12.442 2.05641 14.3902 2.59869 16.1389 3.58238C17.8876 4.56607 19.3873 5.96325 20.5147 7.66033C21.3366 8.99159 21.8332 10.5091 21.9631 12.083C22.6106 12.0577 22.8087 10.8878 22.8595 9.91103C22.8841 9.41307 22.8808 8.91371 22.8492 8.41616C23.7618 9.31234 24.331 11.0766 24.5437 13.6601C24.5533 13.795 24.5704 13.9393 24.5975 14.0986C24.6866 14.6287 24.7325 15.165 24.7359 15.7031C24.7327 16.331 24.6748 16.9576 24.5616 17.5745C24.443 18.202 24.265 18.8163 24.031 19.408C23.7686 20.0555 23.4391 20.671 23.0483 21.245C22.5852 21.9278 22.0369 22.5448 21.4179 23.0793C20.3925 23.9553 19.1898 24.5802 17.8983 24.9083C17.4899 25.0125 17.0746 25.0854 16.6558 25.1258C16.3417 25.1566 16.0872 25.1726 15.8509 25.1726ZM18.3708 11.6941C17.1553 11.9609 16.0152 12.5143 15.04 13.3109C14.1558 13.9578 13.4339 14.8142 12.9345 15.8083C12.4351 16.8024 12.1733 17.9049 12.1698 19.0252C12.1743 19.6972 12.3573 20.3555 12.6995 20.9267C12.9855 21.5358 13.4319 22.0492 13.9873 22.4074C14.5427 22.7657 15.1845 22.9544 15.8389 22.952C16.3723 22.9505 16.8989 22.8234 17.3779 22.5807C18.0927 22.2216 18.6668 21.6195 19.0048 20.8754C19.3429 20.1314 19.4236 19.2898 19.2347 18.4913C19.0881 17.7002 18.7951 16.946 18.3708 16.2706C18.0154 15.5635 17.8299 14.7789 17.8299 13.9819C17.8299 13.1849 18.0154 12.3994 18.3708 11.6923V11.6941Z" fill="#5135FF"/>
<g opacity="0.45">
<path d="M29.3002 30.0002H24.5748C24.3892 30.0002 24.2114 29.9247 24.0801 29.7889C23.9488 29.6531 23.875 29.4683 23.875 29.2762V27.1042C23.875 26.9121 23.9488 26.7273 24.0801 26.5914C24.2114 26.4556 24.3892 26.3793 24.5748 26.3793H29.3002C29.4858 26.3793 29.6636 26.4556 29.7949 26.5914C29.9262 26.7273 30 26.9121 30 27.1042V29.2762C30 29.4683 29.9262 29.6531 29.7949 29.7889C29.6636 29.9247 29.4858 30.0002 29.3002 30.0002ZM22.3002 30.0002H2.69983C2.51418 30.0002 2.33635 29.9247 2.20508 29.7889C2.0738 29.6531 2 29.4683 2 29.2762V27.1042C2 26.9121 2.0738 26.7273 2.20508 26.5914C2.33635 26.4556 2.51418 26.3793 2.69983 26.3793H22.3002C22.4858 26.3793 22.6636 26.4556 22.7949 26.5914C22.9262 26.7273 23 26.9121 23 27.1042V29.2762C23 29.4683 22.9262 29.6531 22.7949 29.7889C22.6636 29.9247 22.4858 30.0002 22.3002 30.0002ZM29.3002 24.5688H18.4498C18.2642 24.5688 18.0864 24.4934 17.9551 24.3575C17.8238 24.2217 17.75 24.0369 17.75 23.8448V22.3623C18.2702 22.0116 18.6901 21.523 18.9668 20.9479H29.3002C29.4858 20.9479 29.6636 21.0243 29.7949 21.1601C29.9262 21.2959 30 21.4807 30 21.6728V23.8448C29.9993 24.0364 29.9253 24.2205 29.7941 24.3558C29.6629 24.491 29.4854 24.5662 29.3002 24.5662V24.5688ZM13.5502 24.5688H2.69983C2.51418 24.5688 2.33635 24.4934 2.20508 24.3575C2.0738 24.2217 2 24.0369 2 23.8448V21.6728C2 21.4807 2.0738 21.2959 2.20508 21.1601C2.33635 21.0243 2.51418 20.9479 2.69983 20.9479H12.7085C13.0416 21.641 13.5822 22.2044 14.25 22.5533V23.8404C14.2502 23.9356 14.2321 24.0299 14.197 24.118C14.1619 24.206 14.1108 24.2866 14.0458 24.354C13.9808 24.4214 13.9035 24.4749 13.8185 24.5114C13.7334 24.5479 13.6422 24.5662 13.5502 24.5662V24.5688ZM29.3002 19.1374H19.3248C19.3144 18.9215 19.2855 18.707 19.2377 18.4965C19.0916 17.7039 18.7965 16.9494 18.3695 16.2741C18.2634 16.0624 18.1726 15.8426 18.0969 15.6173C18.2032 15.5532 18.3234 15.5188 18.4464 15.5183H29.2968C29.4824 15.5183 29.6602 15.5947 29.7915 15.7305C29.9228 15.8663 29.9966 16.0511 29.9966 16.2432V18.4152C29.9959 18.6062 29.9219 18.7893 29.7915 18.9244C29.6611 19.0595 29.4848 19.1365 29.3002 19.1374ZM12.1753 19.1374H2.69983C2.51418 19.1374 2.33635 19.062 2.20508 18.9262C2.0738 18.7904 2 18.6055 2 18.4134V16.2414C2 16.0494 2.0738 15.8645 2.20508 15.7287C2.33635 15.5929 2.51418 15.5165 2.69983 15.5165H13.0836C12.4741 16.5761 12.1578 17.7887 12.1693 19.0216C12.1693 19.0597 12.1693 19.0968 12.1693 19.1348L12.1753 19.1374Z" fill="#5135FF"/>
<path d="M19.2377 18.4965C19.0899 17.7041 18.7959 16.9492 18.3704 16.2727C18.0158 15.5649 17.8308 14.7793 17.8308 13.9821C17.8308 13.1849 18.0158 12.3993 18.3704 11.6914C17.7579 11.6914 12.171 13.5598 12.171 19.0237C12.1747 19.6972 12.3579 20.3566 12.7004 20.9293C13.0792 21.7282 13.7295 22.3545 14.5268 22.6883C15.3241 23.0222 16.2124 23.0401 17.0216 22.7387C17.8309 22.4373 18.5043 21.8378 18.913 21.0548C19.3217 20.2719 19.4369 19.3605 19.2366 18.4951L19.2377 18.4965Z" fill="#5135FF"/>
</g>
</svg>
