<svg width="32" height="32" viewBox="0 0 32 32" fill="none" xmlns="http://www.w3.org/2000/svg">
<path opacity="0.45" d="M12.445 25.2173C11.8953 25.2286 11.3511 25.1058 10.8595 24.8595L2.6574 20.3953C2.18579 20.1424 1.94954 19.7828 2.00992 19.4206C1.99592 19.3453 2.00029 16.2277 2.01254 16.1534C2.0577 16.3171 2.1391 16.4685 2.25073 16.5965C2.36236 16.7245 2.50135 16.8257 2.6574 16.8927L10.8586 21.3552C11.3504 21.601 11.8945 21.7235 12.4441 21.7122C12.9937 21.7235 13.5379 21.601 14.0296 21.3552L14.3385 21.1872C14.2583 21.375 14.217 21.5771 14.2168 21.7813V23.1953C14.2148 23.4332 14.2681 23.6684 14.3726 23.8822C14.4771 24.096 14.6298 24.2826 14.8188 24.4272L14.0313 24.856C13.54 25.1043 12.9954 25.2283 12.445 25.2173ZM12.445 21.0323C11.8953 21.0433 11.3512 20.9205 10.8595 20.6744L2.6574 16.2102C2.18579 15.9565 1.94954 15.6004 2.00904 15.2329C1.99592 15.1568 2.00029 12.0427 2.01254 11.9674C2.05781 12.1313 2.13924 12.2829 2.25084 12.4112C2.36244 12.5395 2.50136 12.6411 2.6574 12.7085L10.8586 17.171C11.3501 17.4175 11.8944 17.5403 12.4441 17.5288C12.9939 17.5404 13.5381 17.4175 14.0296 17.171L22.2343 12.7085C22.3894 12.6401 22.5275 12.5381 22.6385 12.41C22.7495 12.2818 22.8308 12.1307 22.8766 11.9674V14.0578H21.9421C21.6 14.0544 21.2667 14.1658 20.9954 14.3742C20.7241 14.5827 20.5306 14.8761 20.4459 15.2075L20.1834 16.1612L20.0871 16.2032L20.039 16.2234L19.9235 16.2724L19.0363 15.771C18.801 15.6335 18.5335 15.5608 18.261 15.5601C18.0543 15.5603 17.8498 15.6026 17.6601 15.6846C17.4704 15.7666 17.2994 15.8865 17.1577 16.037L16.1794 17.0161C15.9367 17.2574 15.781 17.5725 15.7368 17.9119C15.6927 18.2513 15.7625 18.5958 15.9353 18.8912L16.2599 19.4608L14.0296 20.6744C13.5384 20.921 12.9945 21.0439 12.445 21.0323ZM17.1174 20.929C17.197 20.7217 17.2618 20.5598 17.3257 20.404C17.267 20.5519 17.204 20.7138 17.1209 20.929H17.1174ZM12.445 16.772C11.8956 16.7827 11.3518 16.6608 10.8595 16.4167L2.6574 11.9491C2.18579 11.6962 1.95042 11.3366 2.00992 10.9743C1.99592 10.8973 2.00029 7.78238 2.01254 7.70801C2.05815 7.87193 2.13969 8.02364 2.25123 8.15213C2.36277 8.28063 2.50152 8.38267 2.6574 8.45087L10.8586 12.9133C11.3504 13.1591 11.8945 13.2816 12.4441 13.2703C12.9937 13.2817 13.5379 13.1591 14.0296 12.9133L22.2343 8.45087C22.3898 8.38246 22.5281 8.28031 22.6392 8.15182C22.7503 8.02333 22.8313 7.87173 22.8766 7.70801V10.9735C22.9387 11.3366 22.7016 11.6927 22.2317 11.9482L14.0305 16.4159C13.5384 16.6606 12.9944 16.7825 12.445 16.7711V16.772Z" fill="#5135FF"/>
<path d="M12.4451 13.3755C11.8955 13.3867 11.3514 13.2642 10.8596 13.0185L2.65663 8.54911C2.47957 8.47829 2.32499 8.36086 2.20929 8.20927C2.0936 8.05768 2.02111 7.87759 1.99951 7.68813C2.02061 7.4986 2.09293 7.3184 2.2087 7.16687C2.32446 7.01534 2.47932 6.8982 2.65663 6.82801L10.8587 2.36559C11.3499 2.11666 11.8945 1.99141 12.4451 2.00072C12.9948 1.98938 13.539 2.11222 14.0306 2.35859L22.2336 6.82101C22.4109 6.89119 22.5657 7.00834 22.6815 7.15987C22.7973 7.3114 22.8696 7.4916 22.8907 7.68113C22.8699 7.8714 22.7978 8.05245 22.6821 8.20488C22.5663 8.35732 22.4113 8.4754 22.2336 8.54649L14.0306 13.0089C13.5396 13.2579 12.9955 13.3837 12.4451 13.3755ZM14.0638 9.3506L9.14377 10.0725L12.7356 12.0228L14.0638 9.3506ZM17.121 6.08078L13.8556 7.8535L17.121 9.63409L20.3935 7.8535L17.121 6.08078ZM7.81904 6.28027C7.20228 6.26771 6.59173 6.40555 6.04019 6.68189C5.8419 6.76069 5.66872 6.89183 5.53912 7.06134C5.40953 7.23085 5.32838 7.43236 5.30433 7.64438C5.32778 7.85733 5.40863 8.05992 5.53823 8.23051C5.66783 8.4011 5.84133 8.5333 6.04019 8.61299C6.59245 8.88792 7.20314 9.02483 7.81992 9.01198C8.43528 9.02472 9.04452 8.8878 9.59526 8.61299C9.79451 8.53363 9.96842 8.40157 10.0984 8.23094C10.2283 8.06032 10.3094 7.85755 10.3329 7.64438C10.3089 7.43211 10.2275 7.23038 10.0976 7.06082C9.96763 6.89126 9.79399 6.76027 9.59526 6.68189C9.04476 6.40527 8.435 6.26739 7.81904 6.28027ZM11.0119 3.84256V4.86192L9.46839 5.44029L11.2516 5.75966L11.7993 6.73614L12.8975 5.90665L14.7743 5.93815L13.6692 5.11304L14.2922 4.15056L12.509 4.46293L11.0119 3.84256Z" fill="#5135FF"/>
<path d="M23.3555 29.8376H21.9424C21.8409 29.8358 21.7427 29.8017 21.6618 29.7404C21.581 29.6791 21.5217 29.5936 21.4926 29.4964L21.0884 28.0221C20.5853 27.8296 20.3709 27.7386 19.901 27.5391L19.8319 27.5093L18.4967 28.2705C18.4296 28.3128 18.3519 28.3349 18.2727 28.3344C18.147 28.3329 18.0269 28.282 17.9384 28.1927L16.9444 27.1978C16.8695 27.1277 16.8209 27.034 16.8069 26.9324C16.7929 26.8307 16.8143 26.7273 16.8674 26.6396L17.6278 25.3052C17.4362 24.8047 17.3399 24.5772 17.1483 24.1249L17.1159 24.0479L15.6407 23.6436C15.5411 23.6187 15.453 23.5606 15.3909 23.4788C15.3289 23.397 15.2966 23.2965 15.2995 23.1939V21.7808C15.3013 21.6793 15.3354 21.5811 15.3967 21.5002C15.4581 21.4194 15.5435 21.3601 15.6407 21.331L17.1151 20.9268C17.3067 20.4263 17.4029 20.1988 17.5954 19.7464L17.6278 19.6694L16.8674 18.3351C16.8154 18.247 16.7947 18.1439 16.8086 18.0425C16.8226 17.9412 16.8705 17.8475 16.9444 17.7768L17.9384 16.7829C17.9795 16.7381 18.0294 16.7024 18.0849 16.678C18.1405 16.6536 18.2006 16.641 18.2613 16.6411C18.3441 16.6415 18.4253 16.6638 18.4967 16.7059L19.8319 17.4662C20.335 17.2737 20.5503 17.1827 21.0201 16.9832L21.0892 16.9544L21.4926 15.4791C21.5178 15.3797 21.576 15.2917 21.6577 15.2297C21.7394 15.1677 21.8398 15.1354 21.9424 15.1379H23.3555C23.457 15.1398 23.5553 15.1739 23.6363 15.2352C23.7172 15.2965 23.7767 15.3819 23.8061 15.4791L24.2094 16.9535C24.7099 17.1451 24.9374 17.2414 25.3898 17.4339L25.4668 17.4662L26.8012 16.7059C26.8684 16.6633 26.9464 16.6408 27.026 16.6411C27.1518 16.6425 27.2718 16.6935 27.3603 16.7829L28.3534 17.7768C28.4283 17.8469 28.4769 17.9406 28.4911 18.0422C28.5053 18.1438 28.4842 18.2472 28.4313 18.3351L27.6709 19.6694C27.8651 20.1796 27.9579 20.3983 28.1618 20.8769L28.1828 20.9268L29.6571 21.331C29.7545 21.36 29.8401 21.4192 29.9016 21.5C29.9631 21.5809 29.9973 21.6792 29.9992 21.7808V23.1939C29.9973 23.2955 29.9631 23.3938 29.9016 23.4746C29.8401 23.5555 29.7545 23.6147 29.6571 23.6436L28.1828 24.0479C27.9859 24.5632 27.8914 24.7855 27.6858 25.2728L27.6709 25.3078L28.4313 26.6422C28.483 26.7304 28.5035 26.8335 28.4894 26.9349C28.4753 27.0362 28.4273 27.1298 28.3534 27.2004L27.3603 28.1944C27.3191 28.2393 27.2691 28.275 27.2133 28.2994C27.1576 28.3239 27.0974 28.3364 27.0365 28.3362C26.9538 28.336 26.8726 28.314 26.8012 28.2723L25.4668 27.5111C24.9663 27.7027 24.7388 27.7989 24.2864 27.9906L24.2094 28.0229L23.8061 29.4973C23.7807 29.5967 23.7223 29.6846 23.6404 29.7464C23.5585 29.8083 23.458 29.8404 23.3555 29.8376ZM22.6047 20.0501C22.1278 20.0494 21.6614 20.1902 21.2645 20.4546C20.8676 20.7191 20.5581 21.0953 20.3751 21.5357C20.1921 21.9761 20.1439 22.4609 20.2365 22.9288C20.3291 23.3966 20.5585 23.8265 20.8954 24.1639C21.2324 24.5014 21.6619 24.7314 22.1297 24.8246C22.5974 24.9179 23.0822 24.8704 23.5229 24.6881C23.9636 24.5057 24.3403 24.1968 24.6053 23.8003C24.8703 23.4038 25.0118 22.9376 25.0118 22.4606C25.0118 21.8219 24.7583 21.2093 24.307 20.7573C23.8557 20.3054 23.2434 20.051 22.6047 20.0501Z" fill="#5135FF"/>
</svg>
