<svg width="32" height="32" viewBox="0 0 32 32" fill="none" xmlns="http://www.w3.org/2000/svg">
<path opacity="0.45" d="M11.6385 20.0558H8.4436C6.84904 20.0646 5.30325 19.5045 4.08227 18.4754C2.90688 17.4926 2.16643 16.0835 2.02237 14.5552C1.95502 13.7962 2.04013 13.0314 2.27266 12.306C2.50519 11.5806 2.8804 10.9094 3.37609 10.3321C3.94563 9.6705 4.63977 9.12828 5.41869 8.73654C6.19761 8.3448 7.04596 8.11126 7.91506 8.04932C8.60776 6.32795 9.7806 4.84358 11.293 3.7742C12.8053 2.70481 14.593 2.0958 16.4417 2.02019C16.6561 2.00702 16.874 2 17.0936 2C22.169 2 26.4087 5.70949 26.7465 10.4445C27.6883 10.7962 28.5025 11.4246 29.0829 12.2476C29.6633 13.0707 29.9829 14.0502 30 15.0583C29.9818 15.9433 29.7291 16.8076 29.2677 17.5621C28.8063 18.3167 28.153 18.9344 27.3748 19.3516C27.3617 18.3139 27.145 17.289 26.7371 16.3353C26.3292 15.3817 25.7381 14.5179 24.9975 13.7935C23.5019 12.3304 21.4882 11.5233 19.3994 11.5498C17.3107 11.5764 15.318 12.4344 13.8598 13.935C12.4015 15.4357 11.5971 17.4561 11.6236 19.5518C11.6236 19.6879 11.6236 19.8389 11.6376 20.054L11.6385 20.0558Z" fill="#5135FF"/>
<path d="M27.6739 29.616L24.059 25.9891C22.4484 27.138 20.4665 27.6379 18.5059 27.3898C16.5453 27.1417 14.7491 26.1635 13.4734 24.6493C12.1977 23.135 11.5356 21.1952 11.6182 19.2142C11.7009 17.2332 12.5222 15.3556 13.9196 13.9536C15.3169 12.5516 17.1882 11.7275 19.1626 11.6446C21.1371 11.5617 23.0705 12.2261 24.5797 13.506C26.0889 14.786 27.0638 16.5881 27.3111 18.5552C27.5584 20.5224 27.0601 22.5109 25.915 24.1269L29.5299 27.7538C29.6518 27.8761 29.7484 28.0214 29.8143 28.1812C29.8803 28.341 29.9142 28.5123 29.9142 28.6852C29.9141 28.8582 29.8801 29.0294 29.8141 29.1892C29.7481 29.349 29.6514 29.4942 29.5294 29.6165C29.4075 29.7387 29.2628 29.8357 29.1035 29.9019C28.9442 29.968 28.7735 30.002 28.6011 30.002C28.4287 30.002 28.258 29.9679 28.0988 29.9016C27.9395 29.8354 27.7949 29.7383 27.673 29.616H27.6739ZM14.2477 19.549C14.2477 20.5909 14.5556 21.6094 15.1326 22.4757C15.7095 23.342 16.5295 24.0172 17.4889 24.4159C18.4483 24.8147 19.5039 24.919 20.5224 24.7157C21.5409 24.5125 22.4764 24.0107 23.2107 23.274C23.945 22.5373 24.445 21.5986 24.6476 20.5768C24.8502 19.5549 24.7462 18.4957 24.3489 17.5331C23.9515 16.5705 23.2785 15.7478 22.4151 15.1689C21.5517 14.5901 20.5365 14.2811 19.4981 14.2811C18.1061 14.2825 16.7714 14.838 15.7871 15.8256C14.8027 16.8132 14.2491 18.1523 14.2477 19.549Z" fill="#5135FF"/>
</svg>
