<svg width="32" height="32" viewBox="0 0 32 32" fill="none" xmlns="http://www.w3.org/2000/svg">
<path d="M10.9206 16.7056L15.4173 20.2294C15.5828 20.3591 15.7885 20.4297 16.0004 20.4297C16.2124 20.4297 16.4181 20.3591 16.5836 20.2294L21.0803 16.7056L30 26.1719C30 26.6568 29.8034 27.1219 29.4534 27.4647C29.1033 27.8076 28.6286 28.0002 28.1336 28.0002H3.86639C3.3714 28.0002 2.89668 27.8076 2.54666 27.4647C2.19665 27.1219 2.00001 26.6568 2.00001 26.1719L10.9206 16.7056Z" fill="#5135FF"/>
<path d="M2.00001 9.53564V26.1719C2.00001 26.6568 2.19665 27.1219 2.54666 27.4647C2.89668 27.8076 3.3714 28.0002 3.86639 28.0002H28.1336C28.6286 28.0002 29.1033 27.8076 29.4534 27.4647C29.8034 27.1219 30 26.6568 30 26.1719V9.53564C30 9.59046 29.9875 9.64459 29.9632 9.694C29.939 9.74341 29.9037 9.78684 29.86 9.82107L16.5836 20.2294C16.4181 20.3591 16.2124 20.4297 16.0004 20.4297C15.7885 20.4297 15.5828 20.3591 15.4173 20.2294L2.14001 9.8245C2.09589 9.78987 2.06036 9.74588 2.03611 9.69584C2.01186 9.64581 1.99952 9.59103 2.00001 9.53564Z" fill="#5135FF"/>
<path opacity="0.6" d="M2 5.82829V10.8571C2.00003 10.912 2.01263 10.9661 2.03686 11.0155C2.06109 11.0649 2.09634 11.1083 2.14 11.1426L15.4172 21.5474C15.5828 21.6771 15.7885 21.7478 16.0004 21.7478C16.2124 21.7478 16.4181 21.6771 16.5836 21.5474L29.86 11.1426C29.9037 11.1083 29.939 11.0649 29.9632 11.0155C29.9875 10.9661 30 10.912 30 10.8571V5.82829C30 5.34339 29.8034 4.87836 29.4533 4.53549C29.1033 4.19262 28.6286 4 28.1336 4H3.86637C3.37138 4 2.89666 4.19262 2.54665 4.53549C2.19664 4.87836 2 5.34339 2 5.82829Z" fill="#5135FF"/>
</svg>
