<svg width="32" height="32" viewBox="0 0 32 32" fill="none" xmlns="http://www.w3.org/2000/svg">
<path d="M5.93652 15.1226C5.82049 15.1226 5.70921 15.0765 5.62716 14.9944C5.54512 14.9124 5.49902 14.8011 5.49902 14.6851V12.9351C5.49902 12.819 5.54512 12.7077 5.62716 12.6257C5.70921 12.5437 5.82049 12.4976 5.93652 12.4976H12.0615C12.1776 12.4976 12.2888 12.5437 12.3709 12.6257C12.4529 12.7077 12.499 12.819 12.499 12.9351V14.6851C12.499 14.8011 12.4529 14.9124 12.3709 14.9944C12.2888 15.0765 12.1776 15.1226 12.0615 15.1226H5.93652ZM5.93652 8.99756C5.82049 8.99756 5.70921 8.95146 5.62716 8.86942C5.54512 8.78737 5.49902 8.67609 5.49902 8.56006V6.81006C5.49902 6.69403 5.54512 6.58275 5.62716 6.5007C5.70921 6.41865 5.82049 6.37256 5.93652 6.37256H19.0615C19.1776 6.37256 19.2888 6.41865 19.3709 6.5007C19.4529 6.58275 19.499 6.69403 19.499 6.81006V8.56006C19.499 8.67609 19.4529 8.78737 19.3709 8.86942C19.2888 8.95146 19.1776 8.99756 19.0615 8.99756H5.93652Z" fill="#5135FF"/>
<path d="M27.4729 29.9319L23.2405 27.5257C23.1673 27.4831 23.0841 27.4607 22.9995 27.4607C22.9148 27.4607 22.8316 27.4831 22.7584 27.5257L18.526 29.9319C18.4328 29.9762 18.3289 29.9933 18.2264 29.9813C18.1239 29.9693 18.0268 29.9288 17.9462 29.8643C17.8657 29.7997 17.8049 29.7139 17.7708 29.6165C17.7367 29.519 17.7306 29.414 17.7534 29.3133L18.3528 23.8568C17.2908 22.9142 16.5406 21.671 16.2017 20.292C15.8628 18.9131 15.9514 17.4637 16.4555 16.1363C16.9596 14.8088 17.8555 13.6661 19.0243 12.8597C20.1931 12.0534 21.5795 11.6215 22.9995 11.6215C24.4194 11.6215 25.8058 12.0534 26.9746 12.8597C28.1434 13.6661 29.0393 14.8088 29.5434 16.1363C30.0476 17.4637 30.1361 18.9131 29.7972 20.292C29.4583 21.671 28.7081 22.9142 27.6461 23.8568L28.249 29.3133C28.2629 29.3937 28.2599 29.4762 28.2401 29.5554C28.2203 29.6346 28.1842 29.7088 28.1342 29.7732C28.0841 29.8377 28.0212 29.891 27.9493 29.9298C27.8775 29.9686 27.7984 29.992 27.717 29.9984C27.6311 29.9987 27.5468 29.9757 27.4729 29.9319ZM18.624 18.6217C18.624 19.487 18.8806 20.3328 19.3613 21.0523C19.8421 21.7718 20.5254 22.3325 21.3248 22.6637C22.1242 22.9948 23.0039 23.0814 23.8525 22.9126C24.7012 22.7438 25.4808 22.3271 26.0926 21.7153C26.7045 21.1034 27.1211 20.3239 27.29 19.4752C27.4588 18.6265 27.3721 17.7469 27.041 16.9474C26.7099 16.148 26.1491 15.4647 25.4296 14.984C24.7102 14.5033 23.8643 14.2467 22.999 14.2467C21.8387 14.2467 20.7259 14.7076 19.9054 15.5281C19.085 16.3486 18.624 17.4614 18.624 18.6217Z" fill="#5135FF"/>
<g opacity="0.45">
<path d="M15.4208 23H3.75C3.28587 23 2.84075 22.8156 2.51256 22.4874C2.18437 22.1592 2 21.7141 2 21.25V3.75C2 3.28587 2.18437 2.84075 2.51256 2.51256C2.84075 2.18437 3.28587 2 3.75 2H24.75C25.2141 2 25.6592 2.18437 25.9874 2.51256C26.3156 2.84075 26.5 3.28587 26.5 3.75V10.603C24.8111 9.86461 22.9321 9.67844 21.1312 10.071C19.3302 10.4636 17.6992 11.415 16.4709 12.7893C15.2425 14.1636 14.4796 15.8908 14.2908 17.7243C14.1021 19.5579 14.4972 21.4043 15.4199 23H15.4208Z" fill="#5135FF"/>
<path d="M23 23.875C25.8995 23.875 28.25 21.5245 28.25 18.625C28.25 15.7255 25.8995 13.375 23 13.375C20.1005 13.375 17.75 15.7255 17.75 18.625C17.75 21.5245 20.1005 23.875 23 23.875Z" fill="#5135FF"/>
</g>
</svg>
