<svg width="32" height="32" viewBox="0 0 32 32" fill="none" xmlns="http://www.w3.org/2000/svg">
<path d="M11.625 23.875C11.625 23.3918 12.0168 23 12.5 23H18.625C19.1082 23 19.5 23.3918 19.5 23.875V29.125C19.5 29.6082 19.1082 30 18.625 30H12.5C12.0168 30 11.625 29.6082 11.625 29.125V23.875Z" fill="#5135FF"/>
<path d="M22.125 23.875C22.125 23.3918 22.5168 23 23 23H29.125C29.6082 23 30 23.3918 30 23.875V29.125C30 29.6082 29.6082 30 29.125 30H23C22.5168 30 22.125 29.6082 22.125 29.125V23.875Z" fill="#5135FF"/>
<path d="M2 23.875C2 23.3918 2.39175 23 2.875 23H9C9.48325 23 9.875 23.3918 9.875 23.875V29.125C9.875 29.6082 9.48325 30 9 30H2.875C2.39175 30 2 29.6082 2 29.125V23.875Z" fill="#5135FF"/>
<path fill-rule="evenodd" clip-rule="evenodd" d="M16 2L9.875 5.5V12.7059L16 16L22.125 12.7059V5.5002L16 2ZM22.125 5.5002L16 9.0002L9.875 5.5L16 2L22.125 5.5002Z" fill="#5135FF"/>
<g opacity="0.45">
<path d="M16.875 12.5V18.625H25.625C26.1082 18.625 26.5 19.0168 26.5 19.5V29.125C26.5 29.6082 26.1082 30 25.625 30C25.1418 30 24.75 29.6082 24.75 29.125V20.375H16.875V29.125H15.125V20.375H7.25V29.125C7.25 29.6082 6.85825 30 6.375 30C5.89175 30 5.5 29.6082 5.5 29.125V19.5C5.5 19.0168 5.89175 18.625 6.375 18.625H15.125V12.5H16.875Z" fill="#5135FF"/>
<path d="M16 9L9.875 5.5L16 2L22.125 5.5L16 9Z" fill="#5135FF"/>
</g>
</svg>
