<svg width="32" height="32" viewBox="0 0 32 32" fill="none" xmlns="http://www.w3.org/2000/svg">
<path d="M8.44331 24.4999C6.84876 24.5085 5.30299 23.9655 4.08204 22.9681C2.90694 22.0157 2.16659 20.6502 2.02235 19.1691C1.95504 18.4335 2.04014 17.6922 2.27261 16.9892C2.50508 16.2861 2.8802 15.6355 3.37577 15.0759C3.94534 14.4346 4.63955 13.909 5.41855 13.5293C6.19755 13.1496 7.04599 12.9233 7.91517 12.8633C8.60777 11.1949 9.78048 9.75625 11.2927 8.71977C12.8049 7.68329 14.5924 7.09299 16.4409 7.01967C16.6556 7.00681 16.8734 7 17.0927 7C22.1681 7 26.4072 10.5954 26.7448 15.1849C27.6868 15.5255 28.5013 16.1343 29.082 16.932C29.6627 17.7297 29.9826 18.6791 30 19.6563C29.9817 20.514 29.7289 21.3515 29.2675 22.0828C28.8061 22.814 28.1529 23.4125 27.3748 23.8168C27.3748 23.8168 26.2533 24.4999 24.8621 24.4999C24.8621 24.4999 10.9098 24.4999 8.44331 24.4999Z" fill="#5135FF"/>
<path fill-rule="evenodd" clip-rule="evenodd" d="M21.0649 16.853H20.6279V19.5279H22.6806L22.9586 19.0909H21.0649V16.853ZM15.0735 16.9854L13.4712 19.5279H14.0009L14.4842 18.7598H15.5171L15.7886 18.3229H14.7557L15.3185 17.4423L16.6361 19.5279H17.1657L15.5501 16.9788C15.4509 16.8132 15.186 16.8132 15.0735 16.9854ZM18.1787 17.2891H20.0161L20.2871 16.8525L18.1656 16.8537C17.4272 16.8537 16.9413 17.4522 16.9413 18.1904C16.9413 18.9285 17.4272 19.5271 18.1656 19.5271L19.9602 19.525L20.2412 19.0917H18.1788C17.681 19.0917 17.3901 18.6882 17.3901 18.1904C17.39 17.6927 17.681 17.2891 18.1787 17.2891ZM8.80235 16.8537H6.90867C6.17047 16.8537 5.68457 17.4522 5.68457 18.1904C5.68457 18.9285 6.17047 19.5271 6.90867 19.5271H8.80235C9.5406 19.5271 10.0265 18.9285 10.0265 18.1904C10.0265 17.4522 9.5406 16.8537 8.80235 16.8537ZM8.80235 19.0917H6.90867C6.41093 19.0917 6.12001 18.6882 6.12001 18.1904C6.12001 17.6927 6.41098 17.2891 6.90867 17.2891H8.80235C9.30009 17.2891 9.59106 17.6927 9.59106 18.1904C9.59106 18.6882 9.30009 19.0917 8.80235 19.0917ZM23.4396 18.4023H25.7536L26.0319 17.9653H23.4396C23.5153 17.5781 23.7887 17.2892 24.2076 17.2892H26.045L26.3161 16.8526L24.1944 16.8538C23.4561 16.8538 22.9704 17.4522 22.9704 18.1904C22.9704 18.9286 23.4561 19.5272 24.1944 19.5272L25.9891 19.5251L26.27 19.0917H24.2076C23.7828 19.0917 23.5107 18.7979 23.4396 18.4023ZM12.5167 18.4411C12.955 18.4411 13.3103 18.0858 13.3103 17.6475C13.3103 17.2092 12.955 16.854 12.5167 16.854L10.2887 16.853V19.528H10.7786V17.2894H12.5167C12.7145 17.2894 12.8749 17.4498 12.8749 17.6475C12.8749 17.8453 12.7145 18.0057 12.5167 18.0057H11.123L12.6952 19.5249H13.3278L12.2022 18.442L12.5167 18.4411Z" fill="white"/>
</svg>
