<svg width="32" height="32" viewBox="0 0 32 32" fill="none" xmlns="http://www.w3.org/2000/svg">
<path opacity="0.45" d="M21.2497 17.7504C25.1158 17.7504 28.2499 14.6163 28.2499 10.7502C28.2499 6.8841 25.1158 3.75 21.2497 3.75C17.3836 3.75 14.2495 6.8841 14.2495 10.7502C14.2495 14.6163 17.3836 17.7504 21.2497 17.7504Z" fill="#5135FF"/>
<path fill-rule="evenodd" clip-rule="evenodd" d="M21.2498 2C19.5191 2 17.8274 2.51319 16.3884 3.47469C14.9494 4.43618 13.8279 5.80279 13.1656 7.40169C12.5033 9.00059 12.33 10.76 12.6676 12.4574C13.0053 14.1548 13.8387 15.7139 15.0624 16.9377C16.2862 18.1614 17.8453 18.9948 19.5427 19.3324C21.2401 19.67 22.9995 19.4968 24.5984 18.8345C26.1973 18.1722 27.5639 17.0506 28.5254 15.6117C29.4869 14.1727 30.0001 12.4809 30.0001 10.7503C30.0001 8.42956 29.0782 6.20389 27.4372 4.5629C25.7962 2.9219 23.5705 2 21.2498 2ZM23.391 15.1079C23.391 15.0168 23.3627 14.928 23.3098 14.8538C23.2569 14.7796 23.1822 14.7237 23.0961 14.694L22.7146 14.5628C22.6632 14.5446 22.6188 14.5109 22.5875 14.4664C22.5561 14.4219 22.5394 14.3687 22.5396 14.3143V8.87859C22.5396 8.81986 22.5278 8.76173 22.5049 8.70765C22.482 8.65358 22.4484 8.60467 22.4062 8.56384C22.364 8.52301 22.314 8.4911 22.2592 8.47001C22.2044 8.44892 22.1459 8.43908 22.0872 8.44108L19.7246 8.52245C19.6112 8.52631 19.5037 8.57411 19.4248 8.65574C19.346 8.73738 19.3019 8.84646 19.302 8.95997V9.41498C19.3019 9.50608 19.3303 9.59493 19.3832 9.66913C19.436 9.74333 19.5107 9.79917 19.5969 9.82887L19.9784 9.96012C20.0297 9.97828 20.0741 10.0119 20.1055 10.0565C20.1369 10.101 20.1536 10.1542 20.1534 10.2086V14.3143C20.1536 14.3687 20.1369 14.4219 20.1055 14.4664C20.0741 14.5109 20.0297 14.5446 19.9784 14.5628L19.5969 14.694C19.5107 14.7237 19.436 14.7796 19.3832 14.8538C19.3303 14.928 19.3019 15.0168 19.302 15.1079V15.5629C19.302 15.679 19.3481 15.7902 19.4301 15.8723C19.5122 15.9543 19.6235 16.0004 19.7395 16.0004H22.9526C23.0686 16.0004 23.1799 15.9543 23.262 15.8723C23.344 15.7902 23.3901 15.679 23.3901 15.5629L23.391 15.1079ZM20.3284 7.20816C20.6011 7.43958 20.9511 7.55957 21.3084 7.54417C21.6568 7.55645 21.9969 7.4364 22.2604 7.20816C22.3963 7.07976 22.5018 6.92262 22.5692 6.74821C22.6366 6.57381 22.6641 6.38655 22.6498 6.20013C22.663 6.01691 22.636 5.83301 22.5708 5.66131C22.5055 5.48961 22.4034 5.33425 22.2718 5.2061C22.0083 4.97786 21.6682 4.85782 21.3198 4.87009C20.9629 4.85782 20.614 4.97744 20.3398 5.2061C20.2073 5.33656 20.1048 5.49433 20.0396 5.66842C19.9743 5.84251 19.9477 6.02873 19.9617 6.21413C19.95 6.39595 19.9762 6.57823 20.0387 6.74937C20.1012 6.92051 20.1987 7.07675 20.3249 7.20816H20.3284Z" fill="#5135FF"/>
<path opacity="0.45" d="M17.7505 29.9998H3.75005C3.28591 29.9998 2.84078 29.8154 2.51258 29.4872C2.18438 29.159 2 28.7139 2 28.2497V7.24908C2 6.78493 2.18438 6.3398 2.51258 6.0116C2.84078 5.6834 3.28591 5.49902 3.75005 5.49902H12.1503C11.3036 6.9671 10.8247 8.61823 10.7544 10.3115C10.6841 12.0048 11.0246 13.6899 11.7467 15.2231C12.4688 16.7563 13.5511 18.092 14.9013 19.1163C16.2515 20.1405 17.8295 20.8229 19.5005 21.1051V28.2497C19.5005 28.7139 19.3162 29.159 18.988 29.4872C18.6598 29.8154 18.2146 29.9998 17.7505 29.9998Z" fill="#5135FF"/>
<path opacity="0.45" d="M10.7496 28.2506C11.7161 28.2506 12.4996 27.4671 12.4996 26.5005C12.4996 25.534 11.7161 24.7505 10.7496 24.7505C9.78304 24.7505 8.99951 25.534 8.99951 26.5005C8.99951 27.4671 9.78304 28.2506 10.7496 28.2506Z" fill="#5135FF"/>
</svg>
