<svg width="32" height="32" viewBox="0 0 32 32" fill="none" xmlns="http://www.w3.org/2000/svg">
<path opacity="0.45" d="M13.0828 23.0007H12.4992C10.4226 23.0006 8.39272 22.3847 6.66615 21.231C4.93957 20.0773 3.59388 18.4375 2.79922 16.5189C2.00456 14.6004 1.79663 12.4894 2.20173 10.4527C2.60682 8.416 3.60674 6.54517 5.07505 5.07676C6.33073 3.82058 7.88454 2.90348 9.59112 2.41125C11.2977 1.91903 13.1012 1.86777 14.833 2.26227C16.5648 2.65678 18.1682 3.48415 19.4932 4.66698C20.8182 5.84981 21.8215 7.34943 22.4092 9.02553C22.6034 9.0089 22.8012 9.00103 22.9989 9.00103C24.2161 9.0008 25.4123 9.31796 26.4694 9.92121C27.5266 10.5245 28.4082 11.3929 29.0272 12.4409C29.6462 13.489 29.9812 14.6803 29.9992 15.8973C30.0172 17.1143 29.7176 18.315 29.1299 19.3809C28.9802 19.1095 28.7704 18.8759 28.5165 18.6982C28.2626 18.5204 27.9714 18.4032 27.6651 18.3554V17.1672C27.6651 16.3245 27.4992 15.4902 27.1767 14.7116C26.8542 13.9331 26.3816 13.2258 25.7858 12.6299C25.1899 12.0341 24.4826 11.5615 23.7041 11.239C22.9256 10.9165 22.0912 10.7505 21.2485 10.7505C20.4059 10.7505 19.5715 10.9165 18.793 11.239C18.0145 11.5615 17.3071 12.0341 16.7113 12.6299C16.1154 13.2258 15.6428 13.9331 15.3203 14.7116C14.9979 15.4902 14.8319 16.3245 14.8319 17.1672V18.3554C14.3362 18.4425 13.8877 18.7035 13.567 19.0913C13.2463 19.4792 13.0743 19.9687 13.0819 20.472L13.0828 23.0007Z" fill="#5135FF"/>
<path d="M16 19.5008H26.5002C26.9644 19.5008 27.4095 19.6852 27.7377 20.0134C28.0659 20.3416 28.2502 20.7867 28.2502 21.2508V28.251C28.2502 28.7151 28.0659 29.1602 27.7377 29.4884C27.4095 29.8166 26.9644 30.001 26.5002 30.001H16C15.5359 30.001 15.0908 29.8166 14.7626 29.4884C14.4344 29.1602 14.25 28.7151 14.25 28.251V21.2508C14.25 20.7867 14.4344 20.3416 14.7626 20.0134C15.0908 19.6852 15.5359 19.5008 16 19.5008Z" fill="#5135FF"/>
<path d="M18.6251 20.6676H16V17.1676C16 15.7752 16.5532 14.4398 17.5377 13.4552C18.5223 12.4706 19.8577 11.9175 21.2501 11.9175C22.6425 11.9175 23.9779 12.4706 24.9625 13.4552C25.9471 14.4398 26.5002 15.7752 26.5002 17.1676V20.6676H23.8752V17.1676C23.8752 16.4714 23.5986 15.8037 23.1063 15.3114C22.614 14.8191 21.9463 14.5425 21.2501 14.5425C20.5539 14.5425 19.8862 14.8191 19.3939 15.3114C18.9016 15.8037 18.6251 16.4714 18.6251 17.1676V20.6676Z" fill="#5135FF"/>
</svg>
