<svg width="32" height="32" viewBox="0 0 32 32" fill="none" xmlns="http://www.w3.org/2000/svg">
<path fill-rule="evenodd" clip-rule="evenodd" d="M13.2236 4.25722C12.9109 3.4979 12.1539 3 11.312 3H4.05882C2.92177 3 2 3.89543 2 5V27C2 28.1046 2.92177 29 4.05882 29H27.9412C29.0782 29 30 28.1046 30 27V9C30 7.89543 29.0782 7 27.9412 7H15.7468C14.905 7 14.1479 6.5021 13.8353 5.74278L13.2236 4.25722ZM8.99999 22.7996C7.86293 22.7996 6.94116 21.9041 6.94116 20.7996C6.94116 20.1452 7.26463 19.5643 7.76471 19.1994V15.2V12.8H25.0588V15.2V19.1994C25.5589 19.5643 25.8823 20.1452 25.8823 20.7996C25.8823 21.9041 24.9606 22.7996 23.8235 22.7996C22.6865 22.7996 21.7647 21.9041 21.7647 20.7996C21.7647 20.1452 22.0882 19.5643 22.5882 19.1994V15.2H17.6471V19.1994C18.1471 19.5643 18.4706 20.1452 18.4706 20.7996C18.4706 21.9041 17.5488 22.7996 16.4118 22.7996C15.2747 22.7996 14.3529 21.9041 14.3529 20.7996C14.3529 20.1452 14.6764 19.5643 15.1765 19.1994V15.2H10.2353V19.1994C10.7354 19.5643 11.0588 20.1452 11.0588 20.7996C11.0588 21.9041 10.137 22.7996 8.99999 22.7996Z" fill="#5135FF"/>
<path opacity="0.45" fill-rule="evenodd" clip-rule="evenodd" d="M25.0588 15.1998V12.7998H7.76465V15.1998V19.1992C8.10874 18.9481 8.53645 18.7994 8.99992 18.7994C9.46342 18.7994 9.89114 18.9481 10.2352 19.1992L10.2352 15.1998L7.76465 15.1998L25.0588 15.1998ZM25.0588 19.1992V15.1998L22.5882 15.1998V19.1992C22.9323 18.9481 23.36 18.7994 23.8235 18.7994C24.2869 18.7994 24.7147 18.9481 25.0588 19.1992ZM17.647 19.1992V15.1998H15.1764V19.1992C15.5205 18.9481 15.9482 18.7994 16.4117 18.7994C16.8752 18.7994 17.3029 18.9481 17.647 19.1992Z" fill="#5135FF"/>
</svg>
