<svg width="32" height="32" viewBox="0 0 32 32" fill="none" xmlns="http://www.w3.org/2000/svg">
<path opacity="0.45" d="M15.9675 25.6144C15.866 25.6144 15.7785 25.6088 15.705 25.5977H15.6673C15.5702 25.5884 15.4738 25.5732 15.3786 25.5522H15.3585C15.2641 25.5305 15.1712 25.5031 15.0802 25.47H15.0662C15.0549 25.4686 15.0437 25.466 15.033 25.4621L14.9936 25.4473C14.9227 25.4192 14.8501 25.3904 14.781 25.3597C14.781 25.3597 14.781 25.3597 14.7748 25.3597H14.7696C14.7613 25.3537 14.7522 25.3489 14.7425 25.3458C14.6564 25.3077 14.5741 25.2617 14.4966 25.2084L14.4835 25.2014C14.4104 25.1531 14.3406 25.1002 14.2743 25.043L14.263 25.0316C14.263 25.0272 14.2568 25.0246 14.2542 25.0211L14.249 24.9984C14.1756 24.9433 14.1089 24.8799 14.0503 24.8094C14.0432 24.8058 14.0369 24.8007 14.032 24.7945C14.0283 24.7882 14.0235 24.7826 14.018 24.7779C13.962 24.714 13.899 24.6405 13.843 24.5653C13.836 24.5591 13.8307 24.5504 13.8255 24.5443C13.8241 24.5414 13.8224 24.5387 13.8202 24.5364L13.8097 24.5215C13.7607 24.4506 13.7056 24.3657 13.661 24.2844V24.2774C13.6082 24.1884 13.562 24.0957 13.5227 24C13.5154 23.9849 13.5098 23.9691 13.5061 23.9527C13.4615 23.8565 13.4186 23.7532 13.3906 23.6649V23.657V23.6474C13.3884 23.6359 13.3836 23.6251 13.3766 23.6159C13.3495 23.517 13.3232 23.4137 13.2943 23.2912C13.2899 23.2807 13.2878 23.2694 13.2882 23.258C13.2499 23.1446 13.2201 23.0285 13.199 22.9106C13.2001 22.8978 13.198 22.8848 13.1928 22.873C13.1727 22.754 13.1596 22.6297 13.1465 22.4994C13.1474 22.4785 13.1454 22.4576 13.1403 22.4372C13.1403 22.3961 13.1403 22.3567 13.1342 22.3147C13.1281 22.2727 13.1342 22.2448 13.129 22.2098L13.1211 22.0452V21.9831C13.115 21.8396 13.115 21.7057 13.1211 21.5596C13.1333 21.0521 13.1578 20.5971 13.1858 20.1054V20.0555C13.2121 19.5812 13.2366 19.1359 13.2366 18.7369C13.2366 18.554 13.2366 18.3869 13.2235 18.2171C13.2109 17.9823 13.1698 17.7499 13.101 17.525C13.0583 17.3532 12.9828 17.1913 12.8787 17.0481C12.8472 17.0061 12.8175 16.9746 12.7912 16.9475L12.7772 16.9326C12.667 16.8133 12.5312 16.7206 12.38 16.6614L12.3896 16.6185C12.4057 16.4973 12.4279 16.377 12.4561 16.258C12.5257 15.9436 12.6357 15.6395 12.7833 15.3532C13.7599 13.3899 13.945 11.1264 13.3005 9.0305C13.1592 8.60434 12.877 8.23897 12.5004 7.99454C12.1238 7.7501 11.6752 7.64115 11.2285 7.68563C10.8523 7.69009 10.4777 7.73676 10.112 7.82475L9.96145 7.86587L9.81533 7.90438L9.80833 7.91138L9.5397 7.99363H9.5292V8.00063L9.24045 8.0925L9.5257 7.99275H9.5117C9.45308 8.00938 9.40408 8.026 9.34895 8.04525L9.26145 8.08025H9.24395C9.13808 8.12313 9.02958 8.16775 8.92458 8.20713L8.88433 8.222L8.7837 8.26312H8.77058C8.74783 8.27012 8.7242 8.2815 8.69533 8.29375L8.6647 8.30775C8.65161 8.31354 8.63816 8.31851 8.62445 8.32263V8.31825C8.62445 8.30425 8.62445 8.29025 8.62445 8.27625V8.25525C8.62344 8.2318 8.62111 8.20843 8.61745 8.18525V8.173C8.61857 8.15844 8.61857 8.14381 8.61745 8.12925V8.12313C8.61745 8.11088 8.61745 8.0995 8.61745 8.089C8.60958 8.04787 8.60345 8.00938 8.59733 7.9595V7.57975H8.60433C8.60433 7.5185 8.61045 7.45287 8.61833 7.37762C8.61707 7.36511 8.61707 7.35251 8.61833 7.34C8.61911 7.32835 8.61911 7.31665 8.61833 7.305C8.6227 7.27262 8.6262 7.24025 8.63058 7.2035V7.16937L8.63495 7.13C8.63825 7.11948 8.64031 7.10862 8.64108 7.09763V7.088C8.64108 7.07837 8.64108 7.06962 8.64633 7.06L8.64895 7.01275V6.98913C8.65858 6.92875 8.66908 6.86575 8.68308 6.7975C8.72428 6.59051 8.77716 6.38602 8.84145 6.185C8.85545 6.12638 8.87558 6.07212 8.89395 6.01875V6.01C8.90737 5.97383 8.9202 5.93621 8.93245 5.89713C8.93623 5.88859 8.93944 5.87983 8.94208 5.87088V5.863C8.94476 5.85451 8.94828 5.8463 8.95258 5.8385L8.99458 5.73875L9.01645 5.688C9.0357 5.6425 9.05583 5.6005 9.07595 5.55325C9.08065 5.54571 9.08475 5.53781 9.0882 5.52962C9.09042 5.52276 9.09367 5.51627 9.09783 5.51038C9.12741 5.43797 9.16161 5.36753 9.2002 5.2995C9.20954 5.28258 9.21829 5.26567 9.22645 5.24875C9.22668 5.24671 9.22668 5.24466 9.22645 5.24262V5.23825C9.23248 5.22491 9.2395 5.21204 9.24745 5.19975L9.25795 5.18313C9.30083 5.10263 9.35683 5.00287 9.4137 4.92062C9.42393 4.90089 9.43755 4.88312 9.45395 4.86812C9.51288 4.76845 9.57928 4.67339 9.65258 4.58375C9.73323 4.4793 9.82094 4.38049 9.91508 4.288C9.9874 4.20399 10.0642 4.12395 10.1452 4.04825L10.1575 4.03688L10.1968 3.99925L10.266 3.94587L10.3088 3.91262L10.3675 3.86625C10.4191 3.826 10.4716 3.78488 10.5276 3.74288C11.144 3.31611 11.8564 3.0483 12.6013 2.96325H12.6066L12.8577 2.93875H12.8743C12.9548 2.9335 13.0371 2.92563 13.1158 2.916C13.1266 2.91679 13.1374 2.91679 13.1482 2.916H13.164H13.2121L13.3643 2.90725H13.3818C13.4825 2.902 13.5778 2.89588 13.6758 2.89588C13.7051 2.89681 13.7344 2.89505 13.7633 2.89062H13.9226C13.9935 2.89062 14.0687 2.89063 14.1475 2.89763H14.249C14.3732 2.89763 14.5018 2.90725 14.6567 2.92388H14.7022H14.7276H14.7521H14.7722C14.8151 2.92912 14.8597 2.93525 14.8973 2.93875C14.935 2.94225 15.0041 2.95275 15.0566 2.96325C15.0874 2.9628 15.1182 2.96573 15.1485 2.972C15.257 2.98862 15.3821 3.01225 15.4985 3.042C15.5079 3.04306 15.5173 3.04481 15.5265 3.04725H15.5378C15.5425 3.04813 15.5472 3.04813 15.5518 3.04725H15.5658C15.607 3.05688 15.6481 3.06738 15.691 3.07963L15.8292 3.11287C15.8601 3.11416 15.8902 3.12318 15.9167 3.13912C16.0042 3.16275 16.0987 3.19162 16.2142 3.22662C16.3351 3.26936 16.4537 3.31843 16.5695 3.37363H16.5782C16.5782 3.37363 16.5843 3.37363 16.587 3.378C16.6059 3.3801 16.624 3.38703 16.6395 3.39813C16.6832 3.42088 16.727 3.44275 16.7725 3.46375L16.9116 3.53025C16.9238 3.53725 16.9378 3.54425 16.9518 3.55125L16.9615 3.55825C16.9781 3.56559 16.994 3.57469 17.0087 3.58538L17.049 3.609L17.0752 3.62388L17.1155 3.64663C17.1478 3.66588 17.1776 3.68425 17.2073 3.7035C17.2299 3.7147 17.2519 3.72726 17.273 3.74112L17.2861 3.74988C17.2975 3.75775 17.3097 3.76475 17.3193 3.77088C17.3499 3.78896 17.3791 3.80913 17.4068 3.83125L17.4331 3.847L17.5127 3.903C17.5915 3.95375 17.665 4.01063 17.7411 4.07013L17.7875 4.10425L17.9108 4.21362C17.9878 4.27925 18.0605 4.34137 18.1252 4.4035C18.1269 4.40637 18.129 4.40902 18.1313 4.41138C18.1331 4.41277 18.1345 4.41449 18.1355 4.41644C18.1366 4.4184 18.1372 4.42054 18.1375 4.42275C18.2064 4.47721 18.2708 4.5372 18.33 4.60212C18.3416 4.61228 18.3527 4.62309 18.3632 4.6345C18.382 4.65343 18.4022 4.67097 18.4236 4.687C18.4316 4.69535 18.4401 4.70323 18.449 4.71062L18.4673 4.729L18.4945 4.7535L18.5085 4.7675C18.5242 4.78325 18.5417 4.80075 18.5583 4.81563L18.5723 4.82963L18.5925 4.84887C18.6117 4.869 18.631 4.8865 18.6485 4.90662C19.4469 5.66432 20.0735 6.58454 20.486 7.60512C20.2095 7.55356 19.9289 7.52692 19.6477 7.5255C19.1415 7.48948 18.6356 7.59954 18.1902 7.84259C17.7447 8.08565 17.3784 8.45148 17.1347 8.89663C17.0882 8.98852 17.0481 9.08354 17.0148 9.181C17.0077 9.19616 17.0022 9.21199 16.9982 9.22825V9.23525C16.9943 9.24835 16.9896 9.2612 16.9842 9.27375C16.979 9.30175 16.9711 9.32975 16.9632 9.36125C16.9553 9.39275 16.9457 9.43125 16.9378 9.46975L16.9186 9.5695V9.5835C16.906 9.6412 16.8973 9.69966 16.8923 9.7585C16.8823 9.7933 16.8761 9.8291 16.874 9.86525V9.87925C16.8708 9.9355 16.8708 9.99188 16.874 10.0481V10.1706C16.874 10.1942 16.874 10.2222 16.874 10.2502C16.874 10.2782 16.874 10.3089 16.874 10.3325C16.8744 10.3653 16.8773 10.3981 16.8827 10.4305V10.4366V10.462C16.8842 10.5002 16.8886 10.5382 16.8958 10.5757C16.8958 10.5941 16.9011 10.6125 16.9037 10.63C16.9063 10.6475 16.9037 10.6632 16.909 10.679C16.91 10.6992 16.9124 10.7194 16.916 10.7394C16.923 10.77 16.9282 10.8015 16.9326 10.8339V10.847C16.9326 10.8715 16.9405 10.8986 16.9466 10.9249L16.9536 10.945C16.9536 10.9599 16.958 10.9739 16.9597 10.9887V11.0028C16.9604 11.0142 16.9619 11.0256 16.9641 11.0369C16.9693 11.0605 16.9763 11.0859 16.9833 11.1121C16.9903 11.1384 17.0026 11.1874 17.0105 11.2224L17.0166 11.2486L17.021 11.2626C17.0202 11.2676 17.0202 11.2726 17.021 11.2775C17.0243 11.292 17.0284 11.3063 17.0332 11.3204C17.0426 11.3687 17.0552 11.4163 17.0708 11.463C17.0778 11.4875 17.0857 11.5146 17.0927 11.5391L17.0997 11.5557C17.102 11.5634 17.1035 11.5714 17.1041 11.5794V11.5855C17.1048 11.5935 17.1072 11.6012 17.1111 11.6082C17.1776 11.8261 17.2441 12.0265 17.3053 12.205L17.322 12.2444L17.3281 12.2584L17.3368 12.2829V12.2925C17.3631 12.3616 17.3893 12.4307 17.4243 12.5034L17.441 12.5524L17.455 12.5856C17.4838 12.6609 17.5101 12.723 17.5425 12.7947L17.5722 12.8647L17.5783 12.884C17.588 12.9067 17.5976 12.9286 17.6072 12.9496L17.6212 12.9829C17.6361 13.0161 17.6518 13.0494 17.6641 13.0817L17.7043 13.1692L17.7105 13.1859C17.7201 13.2086 17.7306 13.2305 17.742 13.255C17.7612 13.297 17.7805 13.3364 17.7962 13.3784L17.8435 13.4659L17.8653 13.5087L17.8706 13.5227C17.8891 13.5667 17.9104 13.6093 17.9345 13.6505L17.9406 13.6715L17.9808 13.7467C18.0158 13.8088 18.0465 13.8731 18.0727 13.9392L18.0937 13.9655L18.12 14.018L18.1497 14.0784C18.1712 14.1257 18.1957 14.1716 18.2232 14.2157L18.2293 14.235L18.2556 14.2761C18.2883 14.3515 18.326 14.4245 18.3685 14.4949L18.3816 14.5141L18.3956 14.5342C18.4875 14.7171 18.5872 14.8982 18.6905 15.0706C18.5534 15.0307 18.4115 15.0098 18.2687 15.0085C18.0784 15.0085 17.8901 15.0473 17.7153 15.1225C17.5404 15.1977 17.3828 15.3078 17.252 15.446L16.3481 16.3507C16.1258 16.5741 15.9835 16.8645 15.9433 17.177C15.9031 17.4896 15.9673 17.8066 16.1258 18.0789L16.573 18.8664C16.5441 18.9364 16.5187 18.9976 16.4951 19.0589L16.4671 19.1289L15.5921 19.3704H15.5842H15.579C15.574 19.3729 15.5687 19.3747 15.5632 19.3756C15.2689 19.4649 15.0109 19.6459 14.8268 19.8923C14.6428 20.1387 14.5424 20.4375 14.5403 20.745V22.0496C14.5373 22.3661 14.6409 22.6744 14.8343 22.9249C15.0278 23.1753 15.3 23.3534 15.607 23.4304L16.482 23.6719L16.5073 23.7296C16.531 23.7847 16.5572 23.8451 16.5843 23.9134L16.1215 24.7289C15.9676 24.9912 15.9035 25.2965 15.9386 25.5986L15.9675 25.6144ZM16.9553 25.4516C16.9558 25.3784 16.9764 25.3066 17.0148 25.2442L17.7078 24.0245C17.7084 24.0291 17.7084 24.0338 17.7078 24.0385L17.0078 25.2705C16.9774 25.3251 16.9594 25.3858 16.9553 25.4481V25.4516ZM15.5685 20.7537C15.5721 20.6614 15.6043 20.5724 15.6608 20.4992C15.7172 20.426 15.795 20.3721 15.8835 20.3451L17.245 19.9741C17.4086 19.5366 17.4952 19.3345 17.658 18.9469L17.6842 18.8847L17.7078 18.827L17.714 18.841L17.6833 18.911L17.6431 19.0072C17.4961 19.3572 17.4051 19.5725 17.2432 20.0039L15.8817 20.3731C15.7973 20.3977 15.7222 20.4472 15.6664 20.5151C15.6105 20.583 15.5764 20.6662 15.5685 20.7537ZM10.3876 19.0116C10.0682 19.0181 9.75032 18.9662 9.44958 18.8585C9.46795 18.8585 9.48283 18.8515 9.49945 18.8471L9.5397 18.8392L9.59745 18.8226L9.65608 18.806C9.8582 18.7456 10.1356 18.6634 10.4768 18.5435C11.0672 18.3195 11.5573 17.8906 11.8576 17.3351C12.1988 17.3937 12.3695 17.5495 12.4176 18.2827C12.4168 18.3037 12.4191 18.3246 12.4246 18.3449C12.3149 18.4226 12.2007 18.4936 12.0825 18.5575C11.5673 18.8553 10.9826 19.012 10.3876 19.0116ZM6.59095 18.4866C6.4667 18.4866 6.24095 18.3387 5.96445 17.9231C4.82918 15.9546 3.96615 13.8411 3.39895 11.6406C2.7917 9.30788 2.4032 6.21563 4.00533 4.74125L4.0657 4.70187L4.1182 4.61437C4.45071 4.3005 4.84734 4.06248 5.28073 3.9167C5.71412 3.77093 6.17397 3.72088 6.62858 3.77C7.02228 3.77185 7.41522 3.80491 7.8037 3.86888C8.04608 3.91088 8.5247 3.99662 9.00595 4.10425C9.00595 4.11913 9.00158 4.12437 8.99545 4.127C8.9692 4.16463 8.94295 4.20225 8.91583 4.23725C8.8887 4.27225 8.84145 4.33963 8.80383 4.39912L8.79945 4.40438C8.79752 4.40688 8.79577 4.40951 8.7942 4.41225C8.79134 4.4171 8.78781 4.42152 8.7837 4.42538C8.76008 4.46388 8.73558 4.50325 8.71283 4.54262L8.7067 4.55225L8.6927 4.57588C8.65945 4.63188 8.62795 4.6835 8.59295 4.73688C8.57283 4.77275 8.55358 4.81037 8.53258 4.84887L8.41358 5.08775C8.40483 5.10875 8.39433 5.128 8.38383 5.149L8.37595 5.16475C8.36742 5.17942 8.35982 5.19462 8.3532 5.21025C8.34183 5.23825 8.32958 5.26625 8.31733 5.29775C8.29545 5.34675 8.27008 5.40275 8.25083 5.45963C8.25083 5.47275 8.2412 5.48325 8.23683 5.4955L8.22983 5.51125C8.22411 5.52288 8.21914 5.53486 8.21495 5.54713L8.21145 5.56287L8.19658 5.60312C8.15796 5.70041 8.12466 5.79972 8.09683 5.90062L8.08983 5.91725C8.0557 6.02488 8.02508 6.13075 7.99708 6.23925C7.98484 6.27448 7.97605 6.31082 7.97083 6.34775L7.9612 6.38275C7.94167 6.44504 7.92733 6.50884 7.91833 6.5735C7.91395 6.59625 7.90783 6.62512 7.90345 6.661V6.68637C7.88323 6.75787 7.86975 6.83111 7.8632 6.90512C7.8539 6.93152 7.84945 6.95939 7.85008 6.98738C7.83084 7.08331 7.8174 7.18032 7.80983 7.27787V7.28487C7.80983 7.30937 7.80983 7.33475 7.8037 7.36188C7.79758 7.389 7.8037 7.41175 7.79845 7.43625L7.79058 7.5465V7.6165C7.78538 7.67176 7.78334 7.72726 7.78445 7.78275V7.8545C7.78445 7.87987 7.78445 7.9035 7.78445 7.93325C7.78445 7.95425 7.78445 7.9735 7.78445 7.99363C7.79006 8.01383 7.79243 8.0348 7.79145 8.05575C7.79145 8.082 7.79583 8.10737 7.79933 8.131L7.8037 8.173L7.80983 8.222C7.80983 8.22725 7.80983 8.236 7.80983 8.25C7.8142 8.29025 7.8177 8.3375 7.8212 8.39525C7.82733 8.50812 7.82995 8.7365 7.80808 9.18275C7.7687 10.1199 7.66108 11.3562 7.60945 11.8795C7.61034 11.8903 7.61034 11.9011 7.60945 11.9119V11.9171C7.60849 11.9267 7.60849 11.9364 7.60945 11.946C7.60485 11.979 7.6028 12.0124 7.60333 12.0457C7.58117 12.1614 7.56569 12.2783 7.55695 12.3958C7.55695 12.4124 7.55258 12.4316 7.55083 12.4482V12.4649C7.55083 12.4789 7.55083 12.4946 7.54558 12.5077C7.53945 12.5786 7.53158 12.6609 7.53158 12.7361C7.52617 12.7779 7.52412 12.82 7.52545 12.8621V13.1894C7.52545 13.2769 7.53158 13.3477 7.53945 13.4247C7.53832 13.4541 7.54037 13.4834 7.54558 13.5122C7.55295 13.6202 7.5661 13.7277 7.58495 13.8342C7.58448 13.8424 7.58696 13.8505 7.59195 13.857C7.6042 13.9384 7.61995 14.0171 7.63745 14.1003V14.1072L7.6427 14.1353C7.6427 14.1562 7.65058 14.1737 7.65583 14.1921C7.65532 14.1971 7.65532 14.2021 7.65583 14.207C7.65657 14.2125 7.65657 14.2181 7.65583 14.2236L7.66458 14.2534C7.68275 14.3108 7.69737 14.3692 7.70833 14.4284L7.71358 14.4424C7.726 14.4705 7.73538 14.4998 7.74158 14.5299C7.75033 14.5561 7.75995 14.5815 7.76958 14.6077L7.78183 14.6401L7.80808 14.711C7.82188 14.7447 7.83386 14.7792 7.84395 14.8142L7.85883 14.8449C7.88705 14.8972 7.91189 14.9513 7.9332 15.0067C7.9402 15.0207 7.94545 15.0312 7.94983 15.0426V15.0522L7.96208 15.0785C8.00233 15.1511 8.04958 15.2439 8.09858 15.341C8.10563 15.3456 8.11136 15.3519 8.1152 15.3594C8.1152 15.3594 8.11958 15.3664 8.1222 15.3664C8.1432 15.397 8.16158 15.4268 8.1782 15.4539L8.18695 15.467C8.2097 15.5046 8.2307 15.5379 8.25433 15.5711C8.26395 15.586 8.27445 15.6009 8.28495 15.614L8.3147 15.6551C8.35058 15.6936 8.38733 15.7426 8.42408 15.7899L8.43458 15.8039C8.44333 15.8161 8.45558 15.8284 8.4687 15.8459C8.48183 15.8634 8.49058 15.8704 8.5002 15.8835C8.53695 15.9237 8.57983 15.971 8.6332 16.0191C8.64467 16.0359 8.65819 16.0512 8.67345 16.0646L8.68308 16.0742L8.69445 16.0839L8.7067 16.0952C8.71495 16.1088 8.72636 16.1203 8.73995 16.1285L6.84295 18.3606C6.77465 18.428 6.68611 18.471 6.59095 18.4831V18.4866ZM16.9553 17.3727C16.9567 17.2588 17.0026 17.1498 17.0831 17.0691L18.001 16.1539C18.038 16.1116 18.0838 16.0779 18.1352 16.0551C18.1865 16.0323 18.2422 16.0209 18.2985 16.0217C18.3744 16.0216 18.4489 16.0425 18.5137 16.0821L19.7492 16.7821C19.8017 16.7629 19.8525 16.7428 19.9023 16.7235L19.9356 16.7331C19.9339 16.7336 19.932 16.7336 19.9303 16.7331H19.9242L19.9093 16.7427L19.8673 16.7576L19.7492 16.8049L18.5146 16.1049C18.4497 16.0648 18.3747 16.0438 18.2985 16.0445C18.2422 16.0433 18.1864 16.0546 18.135 16.0774C18.0836 16.1002 18.0378 16.1341 18.001 16.1766L17.0831 17.091C17.011 17.1674 16.9664 17.2656 16.9562 17.3701L16.9553 17.3727ZM11.5951 16.4977C11.5592 16.4977 11.5233 16.4907 11.4857 16.4864L11.3763 16.4741C11.1811 16.4482 10.9875 16.4117 10.7962 16.3647C10.4664 16.2715 10.1493 16.1381 9.85208 15.9675C9.64711 15.8409 9.45514 15.6943 9.27895 15.53C8.99186 15.2493 8.76291 14.9148 8.6052 14.5456C8.55013 14.4131 8.50366 14.2772 8.46608 14.1388C8.42495 13.9935 8.39433 13.8395 8.36633 13.7013C8.29506 13.1852 8.3051 12.6611 8.39608 12.1481C8.39608 12.1429 8.45908 11.4805 8.51858 10.6877C8.52438 10.6709 8.52676 10.653 8.52558 10.6353C8.52558 10.5714 8.53345 10.5057 8.5387 10.441C8.54395 10.3762 8.54833 10.3185 8.5527 10.2502C8.55837 10.233 8.56132 10.215 8.56145 10.1969V10.1356C8.56612 10.0995 8.5702 10.0618 8.5737 10.0227V9.98512L8.57808 9.94662C8.57808 9.91425 8.57808 9.88275 8.57808 9.84513C8.57808 9.8075 8.57808 9.77775 8.57808 9.7445C8.58398 9.70954 8.58633 9.67406 8.58508 9.63863C8.59645 9.51612 8.60258 9.39537 8.6087 9.2825V9.21513C8.62329 9.20929 8.64399 9.19967 8.67083 9.18625C8.6814 9.18067 8.69255 9.17627 8.70408 9.17312L8.7242 9.1635H8.73645C8.73961 9.16272 8.74292 9.16272 8.74608 9.1635C8.79036 9.13886 8.83696 9.11863 8.8852 9.10313C8.88861 9.09958 8.89281 9.09688 8.89745 9.09525C8.90293 9.09343 8.90779 9.09009 8.91145 9.08562C8.93091 9.07866 8.9499 9.07048 8.96833 9.06112L8.98233 9.05587C9.00333 9.0445 9.0252 9.03487 9.0497 9.0235L9.0777 9.01213H9.08383H9.08995C9.08995 9.00425 9.08995 9.0025 9.10395 9.0025C9.11223 9.00178 9.12043 9.00032 9.12845 8.99813L9.1477 8.98937C9.24045 8.95612 9.3402 8.91762 9.44258 8.8765C9.45389 8.87342 9.465 8.86962 9.47583 8.86513C9.48178 8.86149 9.48828 8.85884 9.49508 8.85725L9.50908 8.85025H9.5152C9.51689 8.85093 9.51877 8.85093 9.52045 8.85025C9.52165 8.84956 9.52301 8.8492 9.52439 8.8492C9.52577 8.8492 9.52713 8.84956 9.52833 8.85025C9.53686 8.84753 9.54566 8.84577 9.55458 8.845H9.56333L9.58083 8.83975C9.62108 8.82487 9.6587 8.81175 9.70945 8.79688C9.69245 8.82278 9.68417 8.85344 9.68583 8.88438C9.6959 9.03766 9.76186 9.18191 9.8712 9.28981C9.98055 9.3977 10.1257 9.46173 10.2791 9.46975C10.3027 9.46975 10.3281 9.46975 10.3517 9.46975C10.5761 9.4718 10.7949 9.3995 10.9738 9.26412C11.0245 9.20345 11.0527 9.12708 11.0535 9.048C11.0479 8.96482 11.017 8.88533 10.9649 8.82024C10.9128 8.75516 10.842 8.70761 10.7621 8.684C10.6566 8.64888 10.546 8.63143 10.4348 8.63237H10.343H10.308H10.3193C10.3449 8.61871 10.3716 8.60701 10.399 8.59737C10.4146 8.59443 10.4301 8.59063 10.4453 8.586C10.4657 8.57984 10.4865 8.57488 10.5075 8.57113C10.5288 8.56375 10.5513 8.56019 10.574 8.56063C10.5836 8.56063 10.5932 8.56063 10.6037 8.55538L10.6405 8.5475H10.6545C10.6783 8.54087 10.7026 8.5359 10.7271 8.53263H10.7595H10.7927C10.8605 8.52207 10.9289 8.51564 10.9975 8.51338H11.0027C11.0317 8.50932 11.0609 8.50698 11.0902 8.50638H11.12C11.1492 8.50546 11.1785 8.50283 11.2075 8.4985C11.2182 8.49852 11.2288 8.50029 11.239 8.50375C11.2494 8.5047 11.26 8.5047 11.2705 8.50375C11.3181 8.50255 11.3658 8.50489 11.4131 8.51075H11.4726C11.5329 8.51309 11.5929 8.5207 11.652 8.5335H11.6651C11.7158 8.54575 11.7666 8.56063 11.8165 8.57638L11.8445 8.58687C11.8516 8.59099 11.8598 8.5931 11.8681 8.593C11.8754 8.59606 11.883 8.59841 11.8908 8.6L11.918 8.614C11.9468 8.63092 11.9777 8.64415 12.0098 8.65338C12.0129 8.65476 12.0159 8.65653 12.0186 8.65863H12.023C12.0269 8.66243 12.0313 8.66567 12.0361 8.66825C12.0411 8.66905 12.0457 8.67151 12.0492 8.67525C12.1018 8.6992 12.1509 8.7301 12.1953 8.76713V8.77413C12.2277 8.79629 12.2571 8.82245 12.2828 8.852L12.2968 8.866C12.3043 8.87427 12.3122 8.88215 12.3205 8.88963C12.3283 8.90363 12.3336 8.91062 12.3415 8.91062V8.92113C12.342 8.92656 12.3442 8.93172 12.3476 8.936C12.3492 8.93626 12.3507 8.93686 12.3521 8.93777C12.3534 8.93867 12.3546 8.93986 12.3555 8.94125L12.3633 8.94737C12.377 8.97166 12.3922 8.99505 12.4088 9.01737C12.4117 9.02275 12.4152 9.02775 12.4193 9.03225L12.4263 9.04362C12.4295 9.05067 12.4333 9.0574 12.4377 9.06375V9.06987C12.4434 9.07727 12.4484 9.08518 12.4526 9.0935C12.4612 9.1168 12.4711 9.13959 12.4823 9.16175L12.499 9.18362C12.5147 9.21637 12.5279 9.25031 12.5383 9.28513C13.117 11.1672 12.9545 13.1993 12.0842 14.9656C12.0353 15.0536 11.9912 15.1442 11.9521 15.2369C11.9368 15.2651 11.9233 15.2944 11.9118 15.3244C11.885 15.3858 11.8613 15.4486 11.841 15.5125C11.8286 15.5405 11.8198 15.5699 11.8147 15.6C11.789 15.6636 11.7665 15.7284 11.7473 15.7942C11.7458 15.8008 11.7437 15.8072 11.7412 15.8135C11.7412 15.8266 11.7325 15.8389 11.7281 15.8546C11.7243 15.8756 11.7194 15.8963 11.7132 15.9167C11.7132 15.9307 11.7053 15.9447 11.7018 15.9596C11.6983 15.9745 11.6913 15.9972 11.6878 16.0156C11.6826 16.0393 11.6762 16.0626 11.6686 16.0856C11.6373 16.2184 11.6133 16.3527 11.5968 16.4881L11.5951 16.4977ZM19.9846 15.6122C19.9752 15.6048 19.9677 15.5952 19.9627 15.5842C19.9557 15.5702 19.9487 15.5597 19.9417 15.5484L19.9225 15.5116L19.9181 15.5072L19.9128 15.5002C19.91 15.4961 19.9068 15.4923 19.9032 15.4889C19.9006 15.4835 19.8974 15.4785 19.8936 15.474L19.8831 15.4556C19.8831 15.4556 19.8831 15.446 19.877 15.446V15.4407C19.8757 15.4362 19.8757 15.4313 19.877 15.4268C19.8587 15.4031 19.842 15.3783 19.8271 15.3524L19.8892 15.3104L19.8271 15.3462L19.8201 15.334L19.8131 15.3226C19.8131 15.3219 19.8129 15.3213 19.8127 15.3206C19.8124 15.32 19.812 15.3194 19.8115 15.3189C19.8111 15.3184 19.8105 15.318 19.8098 15.3178C19.8092 15.3175 19.8085 15.3174 19.8078 15.3174C19.7984 15.2964 19.7873 15.2762 19.7746 15.257C19.7623 15.2404 19.7527 15.2246 19.744 15.2097L19.737 15.1984C19.7344 15.1935 19.7315 15.1888 19.7282 15.1844C19.7217 15.1712 19.7141 15.1586 19.7055 15.1467L19.7011 15.1415L19.674 15.1231C19.674 15.1161 19.674 15.1091 19.667 15.1091L19.6608 15.0969C19.6538 15.082 19.6477 15.0724 19.6407 15.0724C19.6279 15.0448 19.6136 15.0179 19.5978 14.9919C19.5838 14.9656 19.569 14.9394 19.555 14.9114V14.9052L19.5383 14.8851V14.879H19.5322V14.8694C19.5208 14.8375 19.504 14.8079 19.4823 14.7819C19.4631 14.7477 19.4473 14.7162 19.4307 14.6891C19.4018 14.6366 19.3765 14.5894 19.352 14.5439L19.3257 14.5045V14.4975L19.3021 14.4555L19.2785 14.4135C19.2408 14.3461 19.2111 14.2954 19.1796 14.2446C19.1737 14.2322 19.167 14.2202 19.1595 14.2087L19.1402 14.1729C19.1402 14.1729 19.1402 14.1729 19.1341 14.1632L19.1271 14.1431L19.114 14.1291V14.116C19.0825 14.0661 19.0553 14.0136 19.0265 13.9629L18.9985 13.9104C18.9831 13.8909 18.9718 13.8686 18.9652 13.8447L18.939 13.7975L18.8865 13.703C18.8829 13.6904 18.8782 13.6781 18.8725 13.6662C18.8722 13.6642 18.8722 13.6622 18.8725 13.6601C18.8722 13.6578 18.8722 13.6554 18.8725 13.6531C18.8621 13.6375 18.853 13.6212 18.8453 13.6041L18.8401 13.5927C18.8401 13.5927 18.8331 13.5927 18.8261 13.5735C18.8271 13.5707 18.8271 13.5676 18.8261 13.5647C18.8251 13.5622 18.8251 13.5594 18.8261 13.5569C18.8186 13.5389 18.8101 13.5214 18.8007 13.5044L18.792 13.486C18.7806 13.465 18.7718 13.4484 18.764 13.4318L18.7561 13.4177L18.7517 13.4107C18.7477 13.4046 18.7442 13.3982 18.7412 13.3915C18.7261 13.3633 18.7129 13.334 18.7018 13.304C18.6931 13.2856 18.6843 13.2673 18.6747 13.2498L18.6625 13.2261C18.6476 13.1937 18.631 13.1614 18.6187 13.1281C18.615 13.1244 18.6128 13.1194 18.6126 13.1141C18.6096 13.111 18.6078 13.107 18.6073 13.1027C18.6048 13.0969 18.6009 13.0918 18.596 13.0879C18.5923 13.0781 18.5876 13.0687 18.582 13.0599V13.0538C18.582 13.0468 18.5758 13.0397 18.5732 13.0319C18.5548 12.9916 18.5391 12.9619 18.5268 12.9444V12.9374L18.5155 12.9111C18.5076 12.8927 18.4988 12.8752 18.491 12.8542C18.4803 12.8225 18.4668 12.7917 18.4507 12.7624C18.4218 12.7046 18.3965 12.6434 18.3685 12.5769C18.3664 12.5715 18.3641 12.5662 18.3615 12.5611V12.5506C18.3424 12.5379 18.3277 12.5195 18.3195 12.4981H18.309C18.3105 12.4903 18.3105 12.4823 18.309 12.4745C18.2897 12.4237 18.2705 12.3747 18.2425 12.3082C18.2397 12.2977 18.2353 12.2876 18.2293 12.2785L18.2153 12.2452C18.2142 12.2416 18.2127 12.2381 18.211 12.2347L18.2057 12.2251C18.2035 12.2183 18.2002 12.2118 18.1961 12.2059C18.1777 12.1463 18.1557 12.0879 18.1305 12.0309L18.1252 12.0134L18.1112 11.9705C18.1085 11.9682 18.1064 11.9652 18.1052 11.9618C18.104 11.9584 18.1036 11.9548 18.1042 11.9513C18.1045 11.9495 18.1045 11.9477 18.1042 11.946C18.1036 11.9437 18.1036 11.9413 18.1042 11.939C18.1029 11.9337 18.1002 11.9289 18.0963 11.925C18.0885 11.897 18.0788 11.876 18.071 11.8541L18.0666 11.8419L18.057 11.8191C18.0456 11.7771 18.0325 11.7369 18.0193 11.6992V11.6923C18.0106 11.666 18.001 11.6397 17.994 11.6144C17.9721 11.547 17.952 11.4901 17.9345 11.4446C17.9326 11.4245 17.927 11.4049 17.9178 11.3869V11.379C17.917 11.3677 17.9141 11.3568 17.9091 11.3466C17.9099 11.3435 17.9099 11.3402 17.9091 11.337C17.9097 11.3287 17.9076 11.3204 17.903 11.3134C17.8942 11.2714 17.8855 11.2337 17.875 11.1952L17.9126 11.1812L17.8741 11.1926C17.8662 11.1672 17.8592 11.1419 17.8496 11.1139V11.0981C17.8435 11.0815 17.8365 11.0623 17.8303 11.0421V11.0351C17.8309 11.0299 17.8309 11.0246 17.8303 11.0194C17.8297 11.0159 17.8297 11.0123 17.8303 11.0089C17.8251 10.9861 17.8207 10.966 17.8163 10.9476C17.8116 10.9213 17.8052 10.8953 17.7971 10.8697C17.7971 10.8479 17.7892 10.8304 17.7848 10.812L17.749 10.777V10.77C17.749 10.7472 17.742 10.7254 17.7385 10.7044V10.6877C17.7341 10.6659 17.7288 10.644 17.7253 10.6212C17.7218 10.5985 17.7253 10.5906 17.7201 10.5757V10.5652C17.7195 10.5517 17.7178 10.5382 17.7148 10.525V10.5171C17.7115 10.5016 17.7095 10.4858 17.7087 10.4699C17.7073 10.4526 17.7049 10.4353 17.7017 10.4182C17.703 10.4042 17.7009 10.3901 17.6956 10.3771C17.6968 10.3518 17.6945 10.3265 17.6886 10.3019V10.2817C17.6898 10.2599 17.6898 10.238 17.6886 10.2161C17.689 10.2083 17.689 10.2004 17.6886 10.1925C17.6886 10.1829 17.6886 10.1741 17.6886 10.1645V9.97113C17.6928 9.95635 17.6946 9.94098 17.6938 9.92562C17.6925 9.89628 17.6948 9.86688 17.7008 9.83813C17.7015 9.79924 17.7062 9.76054 17.7148 9.72263V9.713C17.7215 9.68897 17.7259 9.66436 17.728 9.6395C17.7358 9.61325 17.7428 9.58963 17.7516 9.566L17.7682 9.51438C17.771 9.50523 17.7731 9.49586 17.7743 9.48637V9.47675L17.7787 9.454C17.7993 9.39607 17.8238 9.33964 17.8522 9.28513C17.8802 9.23 17.9108 9.181 17.9397 9.132L17.9493 9.11713C18.0582 9.17081 18.1779 9.19894 18.2993 9.19938C18.3212 9.19938 18.3431 9.19938 18.365 9.19938H18.3842C18.5167 9.19851 18.644 9.14811 18.7412 9.05807C18.8383 8.96803 18.8983 8.84489 18.9092 8.71287C18.9115 8.6645 18.896 8.61696 18.8655 8.57935C18.8349 8.54174 18.7916 8.51669 18.7438 8.509C18.7413 8.50975 18.7385 8.50975 18.736 8.509H18.7255L18.7578 8.49675C18.7901 8.48085 18.8235 8.46712 18.8576 8.45563C18.8602 8.45597 18.863 8.45558 18.8654 8.4545C18.8679 8.45342 18.87 8.45169 18.8716 8.4495L18.9127 8.44075C18.9495 8.432 18.9871 8.42412 19.023 8.41275C19.0352 8.40695 19.0488 8.40453 19.0623 8.40575L19.2015 8.3795H19.2058H19.2137H19.2312L19.2811 8.3725C19.3202 8.36603 19.3596 8.36165 19.3992 8.35938H19.4325C19.478 8.36055 19.5237 8.3585 19.569 8.35325H19.688C19.7002 8.35239 19.7125 8.35239 19.7247 8.35325H19.7352H19.9102C19.926 8.35325 19.9443 8.35763 19.9618 8.3585H19.9802C19.9988 8.35963 20.0176 8.35963 20.0362 8.3585C20.0541 8.36195 20.0722 8.36429 20.0905 8.3655H20.1045C20.1082 8.36625 20.1121 8.36625 20.1158 8.3655C20.1627 8.36584 20.2093 8.37142 20.255 8.38212C20.2686 8.38636 20.2827 8.38871 20.297 8.38912C20.3001 8.38984 20.3034 8.38984 20.3066 8.38912C20.3092 8.38879 20.3118 8.38879 20.3145 8.38912C20.3465 8.39165 20.3784 8.39633 20.4098 8.40313H20.4247H20.4291C20.4544 8.40935 20.4802 8.41402 20.5061 8.41712C20.4997 8.46646 20.4962 8.51613 20.4956 8.56588V8.64812C20.4851 8.831 20.4755 9.027 20.4693 9.2475V9.29825V9.31925C20.4641 9.44613 20.4588 9.56425 20.4588 9.69813C20.4527 9.8845 20.4457 10.084 20.4352 10.2747V11.1296C20.4303 11.5696 20.4669 12.009 20.5446 12.4421C20.6689 12.9814 20.7035 13.5375 20.647 14.088C20.4897 14.2603 20.377 14.4685 20.3188 14.6944L20.0773 15.5746C20.0648 15.5808 20.0519 15.5864 20.0388 15.5912H20.0327L19.9916 15.6079L19.9846 15.6122ZM21.466 13.2751V13.2261V13.2165C21.4656 13.1702 21.4621 13.124 21.4555 13.0782C21.4575 13.0608 21.4575 13.0432 21.4555 13.0257C21.4511 12.9382 21.4406 12.8595 21.4301 12.7825V12.7711C21.4257 12.7352 21.4205 12.7002 21.4161 12.6652V12.6504C21.4091 12.6297 21.4047 12.6083 21.403 12.5865C21.3898 12.4946 21.3671 12.3826 21.333 12.2444C21.3051 12.1191 21.2876 11.9918 21.2805 11.8637C21.2805 11.8349 21.2761 11.8042 21.2743 11.7762C21.2726 11.7483 21.2743 11.7062 21.2682 11.6747C21.2455 11.3562 21.242 10.9012 21.2542 10.2844C21.2542 9.79962 21.2787 9.21163 21.3207 8.48537C21.3321 8.27187 21.3443 8.06625 21.3592 7.87288C21.3592 7.86325 21.3592 7.858 21.3592 7.858L21.3662 7.72938L21.34 7.613C20.8757 6.29738 20.0929 5.11718 19.0615 4.17775C19.0392 4.15963 19.0178 4.14035 18.9976 4.12C18.9902 4.11461 18.9832 4.10876 18.9766 4.1025C18.9617 4.0885 18.9451 4.0745 18.9293 4.06138C18.8945 4.01995 18.8565 3.98133 18.8156 3.94587L18.7928 3.92313L18.7666 3.89688C18.7325 3.86625 18.7001 3.83563 18.6572 3.79538C18.6406 3.77875 18.6222 3.76213 18.6038 3.7455L18.5916 3.73325C18.5847 3.72598 18.5764 3.72031 18.5671 3.71662L18.4673 3.62913C18.4411 3.602 18.414 3.57313 18.3851 3.55213H18.3807C18.3706 3.54625 18.3615 3.53887 18.3536 3.53025L18.274 3.46725C18.2311 3.43313 18.1865 3.39638 18.1366 3.36313C18.1366 3.36313 18.1305 3.35 18.1235 3.35C18.3842 3.3116 18.6474 3.29143 18.911 3.28962C19.9339 3.27246 20.9317 3.60732 21.7372 4.23812C23.895 5.961 23.7445 7.00838 22.9928 9.77863C22.6239 10.999 22.112 12.1715 21.4677 13.2716L21.466 13.2751Z" fill="#5135FF"/>
<path d="M22.9957 28.1916H21.6911C21.5974 28.1898 21.5066 28.1584 21.432 28.1018C21.3573 28.0452 21.3025 27.9663 21.2754 27.8766L20.9036 26.516C20.4284 26.334 20.2237 26.2473 19.7757 26.0575L19.7433 26.0435L18.5122 26.7435C18.4501 26.7826 18.3782 26.8033 18.3048 26.803C18.2472 26.8025 18.1903 26.7907 18.1373 26.7681C18.0843 26.7456 18.0362 26.7129 17.9959 26.6717L17.0833 25.7582C17.0134 25.6938 16.968 25.6071 16.955 25.513C16.9419 25.4188 16.9619 25.323 17.0116 25.242L17.7116 24.0108C17.5366 23.5558 17.4491 23.3502 17.2741 22.9398L17.2364 22.8523L15.8811 22.4796C15.7892 22.4564 15.7079 22.4026 15.6507 22.327C15.5934 22.2515 15.5636 22.1587 15.5661 22.064V20.7593C15.5678 20.6656 15.5993 20.5749 15.6559 20.5002C15.7125 20.4255 15.7913 20.3707 15.8811 20.3437L17.2408 19.9718C17.4228 19.4967 17.5094 19.292 17.6993 18.844L17.7133 18.8116L17.0133 17.5805C16.9656 17.499 16.9467 17.4038 16.9598 17.3103C16.9728 17.2168 17.0169 17.1304 17.0851 17.0651L17.9994 16.1516C18.0372 16.1101 18.0833 16.0769 18.1347 16.0543C18.1861 16.0317 18.2417 16.0202 18.2978 16.0203C18.3741 16.0207 18.449 16.0412 18.5148 16.0798L19.7459 16.7798C20.1983 16.6048 20.4022 16.5173 20.8082 16.3485L20.9036 16.3091L21.2781 14.9493C21.3013 14.858 21.3548 14.7771 21.4297 14.72C21.5047 14.6628 21.5968 14.6326 21.6911 14.6343H22.9957C23.0892 14.6363 23.1798 14.6678 23.2543 14.7244C23.3288 14.781 23.3835 14.8598 23.4104 14.9493L23.7832 16.3091C24.2513 16.4841 24.4517 16.5716 24.8909 16.7597L24.9426 16.7816L26.1746 16.0816C26.2364 16.0426 26.308 16.0219 26.3811 16.0221C26.4971 16.0233 26.6079 16.0705 26.6891 16.1533L27.6061 17.0677C27.6749 17.1327 27.7195 17.2192 27.7323 17.3129C27.7452 17.4067 27.7257 17.502 27.6769 17.5831L26.9769 18.8142C27.1581 19.2893 27.2456 19.4941 27.4354 19.9421L27.4494 19.9745L28.8092 20.3463C28.8989 20.3734 28.9778 20.4282 29.0344 20.5029C29.091 20.5775 29.1224 20.6683 29.1242 20.762V22.064C29.1222 22.1575 29.0907 22.248 29.0341 22.3226C28.9775 22.3971 28.8988 22.4517 28.8092 22.4787L27.4494 22.8515C27.2744 23.3117 27.1869 23.52 27.0119 23.9347L26.9796 24.01L27.6796 25.2411C27.7277 25.3225 27.747 25.4178 27.7341 25.5116C27.7212 25.6053 27.677 25.6919 27.6087 25.7573L26.6917 26.6735C26.6541 26.715 26.6082 26.7482 26.5569 26.7708C26.5057 26.7934 26.4502 26.805 26.3942 26.8047C26.3179 26.8044 26.243 26.7839 26.1772 26.7452L24.9452 26.0452C24.4849 26.2202 24.2767 26.3077 23.8619 26.4827L23.7867 26.5151L23.4139 27.8748C23.3913 27.9677 23.3373 28.0499 23.2611 28.1076C23.1849 28.1653 23.0912 28.1949 22.9957 28.1916ZM22.3036 19.1651C21.8636 19.1641 21.4332 19.2936 21.0669 19.5372C20.7006 19.7809 20.4148 20.1278 20.2457 20.534C20.0766 20.9402 20.0318 21.3874 20.117 21.819C20.2022 22.2506 20.4136 22.6473 20.7243 22.9588C21.035 23.2702 21.4312 23.4825 21.8626 23.5687C22.2941 23.655 22.7414 23.6112 23.1479 23.4431C23.5545 23.275 23.9021 22.99 24.1466 22.6243C24.3912 22.2585 24.5217 21.8284 24.5217 21.3885C24.5217 20.7997 24.2882 20.235 23.8723 19.8182C23.4565 19.4013 22.8923 19.1665 22.3036 19.1651Z" fill="#5135FF"/>
</svg>
