<svg width="32" height="33" viewBox="0 0 32 33" fill="none" xmlns="http://www.w3.org/2000/svg">
<g opacity="0.75">
<path d="M23.8395 23.0623C23.7906 23.0629 23.7434 23.0449 23.7071 23.0122L22.5206 22.0999C22.4585 22.0391 22.3863 21.9896 22.3072 21.9537V17.501H24.0827V23.0591L23.8395 23.0623Z" fill="#5135FF"/>
<path d="M9.98941 21.2868V17.501H8.21387V21.2868H9.98941Z" fill="#5135FF"/>
</g>
<path d="M27.5837 31.4952L18.8063 31.5538C18.6042 31.5533 18.4104 31.4727 18.2675 31.3298C18.1245 31.1868 18.044 30.9931 18.0434 30.7909V24.0142C18.0434 23.8328 18.1155 23.6588 18.2437 23.5306C18.372 23.4023 18.546 23.3302 18.7274 23.3302H20.5851C20.6822 23.3278 20.7788 23.3455 20.8688 23.3822C20.9588 23.419 21.0402 23.4739 21.1079 23.5436L22.2945 24.4549C22.3301 24.4881 22.377 24.5064 22.4257 24.5061L27.4866 24.4421C27.715 24.4421 27.934 24.5328 28.0955 24.6943C28.257 24.8558 28.3477 25.0748 28.3477 25.3032V30.7312C28.3479 30.8317 28.3282 30.9312 28.2898 31.0241C28.2514 31.117 28.195 31.2014 28.124 31.2725C28.0529 31.3435 27.9685 31.3999 27.8756 31.4383C27.7827 31.4767 27.6832 31.4964 27.5827 31.4962" fill="#5135FF"/>
<path d="M12.9089 28.5105H4.51134C4.22834 28.5105 3.95694 28.398 3.75683 28.1979C3.55673 27.9978 3.44431 27.7264 3.44431 27.4434V22.3505C3.44431 22.0675 3.55673 21.7961 3.75683 21.596C3.95694 21.3959 4.22834 21.2835 4.51134 21.2835H12.9089C13.1919 21.2835 13.4633 21.3959 13.6634 21.596C13.8635 21.7961 13.9759 22.0675 13.9759 22.3505V27.4434C13.9759 27.7264 13.8635 27.9978 13.6634 28.1979C13.4633 28.398 13.1919 28.5105 12.9089 28.5105ZM5.30948 22.6418C5.16798 22.6418 5.03228 22.698 4.93222 22.798C4.83217 22.8981 4.77596 23.0338 4.77596 23.1753V26.6186C4.77596 26.7601 4.83217 26.8958 4.93222 26.9959C5.03228 27.0959 5.16798 27.1521 5.30948 27.1521H12.1107C12.2522 27.1521 12.3879 27.0959 12.488 26.9959C12.588 26.8958 12.6442 26.7601 12.6442 26.6186V23.1742C12.6442 23.0327 12.588 22.897 12.488 22.797C12.3879 22.6969 12.2522 22.6407 12.1107 22.6407L5.30948 22.6418Z" fill="#5135FF"/>
<path d="M3.56382 29.2499H14.0911L14.8381 32.1586H2.81689L3.56382 29.2499Z" fill="#5135FF"/>
<path d="M19.0453 14.3613H14.252C13.8275 14.3613 13.4206 14.1925 13.1204 13.8924C12.8202 13.5922 12.6515 13.1852 12.6515 12.7607V9.75136C12.6514 9.45327 12.7346 9.16279 12.8917 8.90941C13.0487 8.65603 13.2733 8.4501 13.5403 8.31754V7.70483C13.5403 6.8809 13.8679 6.09086 14.4505 5.50825C15.0331 4.92564 15.8232 4.59961 16.6471 4.59961C17.4711 4.59961 18.2611 4.92564 18.8437 5.50825C19.4263 6.09086 19.7539 6.8809 19.7539 7.70483V8.31754C20.0209 8.4501 20.2455 8.65603 20.4026 8.90941C20.5596 9.16279 20.6428 9.45327 20.6428 9.75136V12.7607C20.6428 13.1847 20.4744 13.5923 20.1749 13.8924C19.8754 14.1924 19.4693 14.3604 19.0453 14.3613ZM16.6508 9.56588C16.4133 9.56546 16.1815 9.63637 15.9839 9.76804C15.7863 9.89971 15.632 10.0864 15.541 10.3057C15.45 10.525 15.4259 10.7668 15.4722 10.9997C15.5185 11.2326 15.633 11.4467 15.801 11.6145C15.969 11.7823 16.1829 11.8956 16.4158 11.9417C16.6487 11.9878 16.89 11.9641 17.1093 11.8729C17.3285 11.7817 17.516 11.6267 17.6475 11.429C17.779 11.2313 17.8487 10.9996 17.848 10.7621C17.8472 10.445 17.7207 10.1423 17.4964 9.91809C17.272 9.69392 16.9679 9.56645 16.6508 9.56588ZM16.6508 6.37105C16.2972 6.37076 15.958 6.51106 15.7077 6.76076C15.4574 7.01047 15.3165 7.34919 15.3159 7.70275V8.14457H17.9835V7.70275C17.9837 7.5277 17.9494 7.35392 17.8824 7.19216C17.8155 7.0304 17.7176 6.88454 17.5938 6.76076C17.47 6.63698 17.3231 6.53801 17.1614 6.47108C16.9996 6.40415 16.8258 6.37091 16.6508 6.37105Z" fill="#5135FF"/>
<g opacity="0.45">
<path d="M28.9981 30.0564L20.2207 30.115C20.0185 30.1145 19.8248 30.0339 19.6818 29.891C19.5389 29.748 19.4583 29.5543 19.4577 29.3521V22.5754C19.4577 22.394 19.5298 22.22 19.6581 22.0918C19.7863 21.9635 19.9603 21.8914 20.1417 21.8914H21.9994C22.0966 21.889 22.1932 21.9067 22.2832 21.9434C22.3731 21.9802 22.4545 22.0351 22.5223 22.1049L23.7088 23.0161C23.7444 23.0493 23.7914 23.0676 23.84 23.0673L28.901 23.0033C29.1293 23.0033 29.3484 23.094 29.5098 23.2555C29.6713 23.417 29.7621 23.636 29.7621 23.8644V29.2924C29.7622 29.3929 29.7425 29.4924 29.7041 29.5853C29.6657 29.6782 29.6094 29.7626 29.5383 29.8337C29.4672 29.9047 29.3828 29.9611 29.2899 29.9995C29.1971 30.0379 29.0975 30.0576 28.997 30.0574" fill="#5135FF"/>
<path d="M24.604 17.5004C25.9613 17.5688 27.2906 17.0975 28.3015 16.1892C29.3125 15.281 29.9231 14.0097 30 12.6529C29.9747 11.665 29.6496 10.7082 29.0677 9.90951C28.4859 9.1108 27.6749 8.50793 26.7424 8.18096C26.3988 3.36225 21.7881 -0.290197 16.4455 0.0181747C14.6148 0.0784344 12.8395 0.660652 11.3286 1.69624C9.81777 2.73183 8.63437 4.17765 7.91781 5.86337C4.36033 6.13546 1.72157 8.95775 2.02354 12.1652C2.24504 13.692 3.02464 15.0824 4.21165 16.0678C5.39867 17.0532 6.90883 17.5636 8.45026 17.5004H24.604Z" fill="#5135FF"/>
<path d="M12.1112 22.6413H5.30999C5.01534 22.6413 4.77648 22.8802 4.77648 23.1749V26.6182C4.77648 26.9128 5.01534 27.1517 5.30999 27.1517H12.1112C12.4059 27.1517 12.6448 26.9128 12.6448 26.6182V23.1749C12.6448 22.8802 12.4059 22.6413 12.1112 22.6413Z" fill="#5135FF"/>
</g>
</svg>
