<svg width="32" height="32" viewBox="0 0 32 32" fill="none" xmlns="http://www.w3.org/2000/svg">
<path d="M17.8994 3.95557C18.0463 3.97081 18.1899 4.00936 18.3262 4.06787L18.3271 4.06689L27.165 7.82666L27.1797 7.8335L27.1953 7.84033C27.5548 8.00787 27.8586 8.27731 28.0684 8.61475C28.2735 8.94493 28.3791 9.32671 28.374 9.71533H28.375V10.5962L28.3682 11.3911C28.3391 12.9818 28.2173 14.5694 28.0029 16.146L27.8877 16.9331C27.7401 17.8792 27.4887 18.8059 27.1387 19.6968L26.9834 20.0757L26.6572 20.8315L26.6582 20.8325C26.0163 22.337 25.0377 23.6754 23.7979 24.7466C22.6423 25.7469 21.3226 26.542 19.8965 27.0972L19.8955 27.0981L18.2793 27.7241L18.2695 27.728C17.9322 27.8546 17.5599 27.8546 17.2227 27.728L17.2129 27.7241L15.5977 27.0981L15.5957 27.0972C14.3475 26.6111 13.1806 25.9417 12.1338 25.1118L11.6924 24.7466L11.6904 24.7446C10.4553 23.6703 9.48116 22.3301 8.84277 20.8257V20.8247L8.41895 19.8481L8.41699 19.8423C8.05752 18.9997 7.79801 18.118 7.64453 17.2153L7.64551 17.2144C7.29982 15.1996 7.12492 13.1596 7.125 11.1157V9.71631H7.12598C7.12129 9.32623 7.22805 8.94279 7.43457 8.61182L7.51758 8.48877C7.72199 8.20882 7.99506 7.98472 8.31055 7.83838L8.32422 7.83154L8.33887 7.82568L17.168 4.06689V4.06787C17.3513 3.98895 17.5486 3.94775 17.748 3.94775L17.8994 3.95557Z" stroke="#5135FF" stroke-width="2"/>
<path opacity="0.45" fill-rule="evenodd" clip-rule="evenodd" d="M17.8141 3.79384C17.88 3.76493 17.9512 3.75 18.0233 3.75C18.0953 3.75 18.1666 3.76493 18.2325 3.79384L28.0632 7.96541C28.2679 8.06056 28.4403 8.21282 28.5591 8.40356C28.678 8.5943 28.7382 8.81525 28.7325 9.0394V10.0178C28.7352 12.3142 28.5585 14.6073 28.2039 16.8766C28.0308 17.9841 27.7186 19.0657 27.2746 20.0963L26.9121 20.9382C26.2647 22.4516 25.2777 23.7987 24.0263 24.8769C22.837 25.9039 21.4785 26.7203 20.01 27.2904L18.2126 27.9851C18.0893 28.0313 17.9534 28.0313 17.8302 27.9851L16.0327 27.2904C14.564 26.72 13.205 25.9036 12.0149 24.8769C10.768 23.7952 9.78537 22.4466 9.14135 20.9329L8.66637 19.84C8.30062 18.985 8.03699 18.0905 7.88086 17.1747C7.50663 15.0004 7.31857 12.7985 7.31869 10.5927V9.04091C7.31331 8.81588 7.37418 8.59416 7.49385 8.40288C7.61353 8.21161 7.78681 8.05906 7.99253 7.96389L17.8141 3.79384Z" fill="#5135FF"/>
<path d="M19.6067 13.9808C20.3753 13.4692 20.8817 12.5949 20.8817 11.6023C20.8817 10.0254 19.6034 8.74707 18.0265 8.74707C16.4496 8.74707 15.1712 10.0254 15.1712 11.6023C15.1712 12.5949 15.6777 13.4692 16.4463 13.9808C14.2609 14.655 12.6729 16.6907 12.6729 19.0974V20.8106C12.6729 21.2442 13.0244 21.5958 13.458 21.5958H22.5949C23.0285 21.5958 23.3801 21.2442 23.3801 20.8106V19.0974C23.3801 16.6907 21.7921 14.655 19.6067 13.9808Z" fill="#5135FF"/>
<path d="M11.251 12.5371L14.7725 15.3926L15.251 15.7812L14.7725 16.1689L11.251 19.0244L10.4355 19.6855V17.5176H3.25V14.0449H10.4355V11.877L11.251 12.5371Z" fill="#5135FF" stroke="white"/>
</svg>
