<svg width="32" height="32" viewBox="0 0 32 32" fill="none" xmlns="http://www.w3.org/2000/svg">
<g opacity="0.45">
<path d="M2.875 2.00195H29.125C29.3571 2.00195 29.5796 2.1073 29.7437 2.29482C29.9078 2.48233 30 2.73666 30 3.00185V9.00122C30 9.26641 29.9078 9.52074 29.7437 9.70825C29.5796 9.89577 29.3571 10.0011 29.125 10.0011H2.875C2.64294 10.0011 2.42038 9.89577 2.25628 9.70825C2.09219 9.52074 2 9.26641 2 9.00122V3.00185C2 2.73666 2.09219 2.48233 2.25628 2.29482C2.42038 2.1073 2.64294 2.00195 2.875 2.00195Z" fill="#5135FF"/>
<path d="M2.875 12.0029H29.125C29.3571 12.0029 29.5796 12.1082 29.7437 12.2957C29.9078 12.4832 30 12.7376 30 13.0028V19.0021C30 19.2673 29.9078 19.5216 29.7437 19.7092C29.5796 19.8967 29.3571 20.002 29.125 20.002H2.875C2.64294 20.002 2.42038 19.8967 2.25628 19.7092C2.09219 19.5216 2 19.2673 2 19.0021V13.0028C2 12.7376 2.09219 12.4832 2.25628 12.2957C2.42038 12.1082 2.64294 12.0029 2.875 12.0029Z" fill="#5135FF"/>
<path d="M2.875 22.0028H29.125C29.3571 22.0028 29.5796 22.1081 29.7437 22.2957C29.9078 22.4832 30 22.7375 30 23.0027V29.0021C30 29.2672 29.9078 29.5216 29.7437 29.7091C29.5796 29.8966 29.3571 30.002 29.125 30.002H2.875C2.64294 30.002 2.42038 29.8966 2.25628 29.7091C2.09219 29.5216 2 29.2672 2 29.0021V23.0027C2 22.7375 2.09219 22.4832 2.25628 22.2957C2.42038 22.1081 2.64294 22.0028 2.875 22.0028Z" fill="#5135FF"/>
</g>
<path d="M28.25 10.0009H3.75V12.0007H28.25V10.0009Z" fill="#5135FF"/>
<path d="M28.25 20.0018H3.75V22.0016H28.25V20.0018Z" fill="#5135FF"/>
<path d="M25.9172 4.66748H20.6664C20.0222 4.66748 19.5 5.26422 19.5 6.00034V6.00134C19.5 6.73746 20.0222 7.3342 20.6664 7.3342H25.9172C26.5614 7.3342 27.0836 6.73746 27.0836 6.00134V6.00034C27.0836 5.26422 26.5614 4.66748 25.9172 4.66748Z" fill="#5135FF"/>
<path d="M25.9172 14.6684H20.6664C20.0222 14.6684 19.5 15.2651 19.5 16.0012V16.0022C19.5 16.7384 20.0222 17.3351 20.6664 17.3351H25.9172C26.5614 17.3351 27.0836 16.7384 27.0836 16.0022V16.0012C27.0836 15.2651 26.5614 14.6684 25.9172 14.6684Z" fill="#5135FF"/>
<path d="M25.9172 24.6683H20.6664C20.0222 24.6683 19.5 25.2651 19.5 26.0012C19.5 26.7373 20.0222 27.335 20.6664 27.335H25.9172C26.5614 27.335 27.0836 26.7383 27.0836 26.0022C27.0836 25.2661 26.5614 24.6683 25.9172 24.6683Z" fill="#5135FF"/>
</svg>
