<svg width="32" height="32" viewBox="0 0 32 32" fill="none" xmlns="http://www.w3.org/2000/svg">
<g opacity="0.45">
<path d="M11.8172 22.947H11.6571C6.33374 22.947 2.00175 21.547 2.00175 19.825V15.8483C2.00175 17.5011 5.99251 18.8705 11.0884 18.9667C11.0805 19.1076 11.077 19.2607 11.077 19.4226C11.0742 20.6359 11.3264 21.8373 11.8172 22.947ZM5.12541 18.9719C4.65555 18.9719 4.27318 19.4821 4.27318 20.1094C4.27318 20.7368 4.65555 21.2469 5.12541 21.2469C5.59527 21.2469 5.97588 20.7376 5.97588 20.1094C5.97588 19.4812 5.59439 18.9719 5.12541 18.9719Z" fill="#5135FF"/>
<path d="M11.2082 17.8975C8.99857 17.9009 6.80063 17.5766 4.68617 16.935C2.95372 16.3514 2 15.5841 2 14.7765V10.8014C2 11.6335 3.00622 12.4184 4.83141 13.009C7.04767 13.6542 9.34825 13.963 11.6562 13.9251C12.1243 13.9251 12.5924 13.9146 13.0474 13.8927C12.1028 15.0484 11.4702 16.4269 11.21 17.8966L11.2082 17.8975ZM5.12453 13.9251C4.6538 13.9251 4.27056 14.4343 4.27056 15.0626C4.27056 15.6908 4.6538 16.2 5.12453 16.2C5.59527 16.2 5.97588 15.6899 5.97588 15.0626C5.97588 14.4352 5.59352 13.9251 5.12453 13.9251Z" fill="#5135FF"/>
<path d="M11.6571 12.8541C6.33199 12.8541 2 11.4533 2 9.7296V5.75635C2 6.58845 3.00622 7.3733 4.83141 7.96391C7.0476 8.60948 9.34823 8.91829 11.6562 8.88C16.9813 8.88 21.3133 7.48005 21.3133 5.75635V9.7296C21.3016 9.92542 21.2494 10.1167 21.16 10.2913C21.0705 10.4658 20.9457 10.6199 20.7936 10.7437C20.4681 10.7082 20.141 10.6901 19.8136 10.6894C17.7503 10.6887 15.7534 11.4187 14.177 12.75C13.3633 12.8174 12.5154 12.8541 11.6571 12.8541ZM5.12453 8.88C4.6538 8.88 4.27143 9.38836 4.27143 10.0131C4.27143 10.6378 4.65467 11.1506 5.12453 11.1506C5.59439 11.1506 5.97763 10.6405 5.97763 10.0131C5.97763 9.38574 5.59439 8.88 5.12453 8.88Z" fill="#5135FF"/>
</g>
<path d="M21.3107 5.7549C21.3107 7.48035 16.9874 8.87943 11.6553 8.87943C6.32325 8.87943 2 7.47948 2 5.7549C2 4.03033 6.32325 2.63037 11.6553 2.63037C16.9874 2.63037 21.3107 4.03033 21.3107 5.7549Z" fill="#5135FF"/>
<path d="M27.8737 29.0064L24.4421 25.5747C22.9132 26.6617 21.0318 27.1346 19.1707 26.8998C17.3096 26.665 15.6046 25.7396 14.3937 24.3069C13.1828 22.8743 12.5542 21.039 12.6327 19.1648C12.7112 17.2905 13.4909 15.5142 14.8173 14.1878C16.1437 12.8613 17.9201 12.0816 19.7943 12.0032C21.6685 11.9247 23.5038 12.5532 24.9365 13.7642C26.3691 14.9751 27.2945 16.6801 27.5294 18.5412C27.7642 20.4023 27.2912 22.2837 26.2043 23.8125L29.6359 27.2442C29.8696 27.478 30.0008 27.795 30.0007 28.1256C30.0007 28.4561 29.8693 28.7731 29.6355 29.0068C29.4017 29.2405 29.0846 29.3717 28.7541 29.3716C28.4235 29.3716 28.1074 29.2402 27.8737 29.0064ZM15.1288 19.4814C15.1288 20.4678 15.4213 21.4321 15.9694 22.2522C16.5174 23.0724 17.2963 23.7116 18.2076 24.0891C19.1189 24.4666 20.1217 24.5654 21.0892 24.3729C22.0566 24.1805 22.9453 23.7055 23.6428 23.008C24.3403 22.3105 24.8153 21.4218 25.0077 20.4544C25.2002 19.4869 25.1014 18.4841 24.7239 17.5728C24.3464 16.6615 23.7072 15.8826 22.887 15.3346C22.0669 14.7866 21.1026 14.4941 20.1162 14.4941C18.7935 14.4941 17.5249 15.0195 16.5896 15.9548C15.6543 16.8901 15.1288 18.1587 15.1288 19.4814Z" fill="#5135FF"/>
<path d="M19.4491 16.2049C19.2858 16.2049 19.1361 16.2958 19.0608 16.4407L17.6039 19.2459C17.5335 19.3815 17.5389 19.544 17.6183 19.6746C17.6976 19.8052 17.8394 19.885 17.9922 19.885H18.9522L18.6178 22.5079C18.5924 22.7066 18.7053 22.8972 18.8918 22.9704C19.0782 23.0437 19.2906 22.981 19.4073 22.8181L22.0878 19.0785C22.1833 18.9452 22.1963 18.7697 22.1214 18.6238C22.0464 18.4779 21.8962 18.3861 21.7322 18.3861H21.2826L22.1166 16.8512C22.1903 16.7156 22.1871 16.5513 22.1082 16.4187C22.0293 16.2861 21.8865 16.2049 21.7322 16.2049H19.4491Z" fill="#5135FF"/>
</svg>
