<svg width="32" height="32" viewBox="0 0 32 32" fill="none" xmlns="http://www.w3.org/2000/svg">
<path opacity="0.75" d="M11.3969 20.9026C10.8548 20.9008 10.315 20.8332 9.7892 20.7012C8.22608 20.2866 6.84668 19.3608 5.87078 18.0712C4.89488 16.7817 4.37861 15.2027 4.40423 13.5857C4.40423 13.3951 4.41236 13.1955 4.42681 12.9914C4.50056 12.0637 4.84615 11.1784 5.42035 10.4461C5.7321 10.0586 6.07758 9.69957 6.45272 9.37309C7.28129 8.70291 7.97127 7.87764 8.48406 6.94344C9.18495 5.63107 8.68638 4.15702 7.15272 3C8.6399 3.03357 10.099 3.41202 11.415 4.10554C12.9075 4.84515 14.1729 5.9738 15.0775 7.37247C15.7249 8.4041 16.1161 9.57568 16.2183 10.7893C16.7304 10.7722 16.8849 9.86715 16.9237 9.11116C16.943 8.72718 16.9412 8.34244 16.9183 7.95866C17.9967 8.99826 18.2731 11.408 18.3264 12.1207L18.3914 13.5857C18.3892 14.0706 18.3426 14.5544 18.2523 15.0308C17.9394 16.6896 17.0656 18.1904 15.7775 19.2814C14.9744 19.9599 14.0269 20.4462 13.0074 20.703C12.6855 20.7826 12.3583 20.8384 12.0283 20.8701C11.8185 20.8916 11.6078 20.9024 11.3969 20.9026ZM13.4192 10.6475C12.4693 10.848 11.5787 11.2657 10.8171 11.8678C10.1267 12.3558 9.56293 13.0017 9.17282 13.7518C8.78271 14.5018 8.57753 15.3343 8.57438 16.1797C8.57452 16.6904 8.71716 17.1909 8.98625 17.6249C9.28231 18.2279 9.79025 18.7005 10.4129 18.9525C11.0356 19.2045 11.7294 19.2181 12.3614 18.9907C12.9935 18.7633 13.5196 18.3109 13.8391 17.72C14.1585 17.1291 14.2489 16.4411 14.093 15.7877C13.9801 15.1891 13.7499 14.6188 13.4156 14.1096C13.1384 13.5746 12.994 12.9807 12.9946 12.3781C12.9952 11.7755 13.1409 11.182 13.4192 10.6475Z" fill="#5135FF"/>
<g opacity="0.45">
<path d="M9.07142 24.9606C8.94348 24.958 8.82169 24.9052 8.73231 24.8136C8.64293 24.722 8.59312 24.599 8.59362 24.471V22.5047C8.59265 22.3757 8.64272 22.2516 8.7329 22.1594C8.82308 22.0672 8.94607 22.0144 9.07504 22.0125H17.5255V24.9606H9.07142ZM6.43132 24.9606H2.47794C2.34985 24.9584 2.22779 24.9058 2.13831 24.8141C2.04883 24.7224 1.99917 24.5991 2.00014 24.471V22.5047C1.99858 22.4409 2.00977 22.3773 2.03305 22.3179C2.05632 22.2584 2.09123 22.2041 2.13571 22.1583C2.1802 22.1125 2.23338 22.076 2.29214 22.0509C2.35091 22.0259 2.41407 22.0128 2.47794 22.0125H6.43223C6.56119 22.0144 6.68418 22.0672 6.77436 22.1594C6.86454 22.2516 6.91461 22.3757 6.91364 22.5047V24.471C6.91413 24.5996 6.86382 24.7232 6.77366 24.8148C6.68351 24.9065 6.55989 24.9589 6.43132 24.9606ZM17.6177 20.542H13.5487C14.3641 20.2674 15.1202 19.8408 15.7769 19.2847C16.3465 18.798 16.84 18.2287 17.241 17.5957H18.9228C18.9102 17.7457 18.9038 17.8992 18.9038 18.0564V18.8358C18.2724 19.218 17.8119 19.8282 17.6177 20.5402V20.542ZM9.2629 20.542H2.47794C2.34954 20.5399 2.2272 20.487 2.13767 20.3949C2.04814 20.3029 1.99869 20.1791 2.00014 20.0507V18.088C1.99858 18.0241 2.00977 17.9606 2.03305 17.9011C2.05632 17.8416 2.09123 17.7874 2.13571 17.7416C2.1802 17.6957 2.23338 17.6592 2.29214 17.6342C2.35091 17.6091 2.41407 17.5961 2.47794 17.5957H5.54888C6.41977 18.9691 7.73019 20.007 9.26652 20.5402L9.2629 20.542ZM19.2516 16.1235H17.9582C18.0839 15.7673 18.1821 15.4019 18.2517 15.0306C18.3427 14.5542 18.3896 14.0705 18.3917 13.5855L18.3736 13.1808H21.7381C20.5895 13.839 19.7092 14.8813 19.2516 16.1235ZM4.83263 16.1235H2.47794C2.34954 16.1214 2.2272 16.0685 2.13767 15.9764C2.04814 15.8843 1.99869 15.7606 2.00014 15.6321V13.6695C1.99882 13.6058 2.0102 13.5426 2.03361 13.4834C2.05702 13.4242 2.09199 13.3703 2.13648 13.3248C2.18096 13.2793 2.23408 13.2432 2.29271 13.2184C2.35134 13.1937 2.41431 13.1809 2.47794 13.1808H4.41625C4.40812 13.3262 4.4045 13.4581 4.4045 13.5873C4.39553 14.4508 4.53924 15.3091 4.82902 16.1226L4.83263 16.1235Z" fill="#5135FF"/>
<path d="M14.0977 15.7839C13.9822 15.1856 13.7519 14.6154 13.4194 14.1048C13.1419 13.5705 12.997 12.9773 12.997 12.3752C12.997 11.7731 13.1419 11.1798 13.4194 10.6455C12.9434 10.6455 8.57723 12.0581 8.57723 16.1795C8.57919 16.6903 8.72269 17.1905 8.99181 17.6247C9.28835 18.2269 9.79638 18.6988 10.4188 18.9503C11.0413 19.2017 11.7346 19.215 12.3662 18.9876C12.9979 18.7602 13.5236 18.3081 13.843 17.7176C14.1624 17.1271 14.2531 16.4397 14.0977 15.7866V15.7839Z" fill="#5135FF"/>
</g>
<path d="M20.6585 28.1779C20.4802 28.1752 20.3042 28.1373 20.1405 28.0664C19.9769 27.9955 19.8289 27.893 19.7049 27.7648C19.581 27.6366 19.4836 27.4852 19.4183 27.3192C19.353 27.1533 19.3211 26.9761 19.3245 26.7978V21.2782C19.3197 20.9421 19.4392 20.6161 19.6601 20.3627C19.881 20.1094 20.1876 19.9465 20.5212 19.9053V18.0573C20.5212 17.5136 20.6283 16.9752 20.8364 16.4729C21.0445 15.9706 21.3494 15.5141 21.7339 15.1297C22.1184 14.7452 22.5748 14.4402 23.0771 14.2322C23.5795 14.0241 24.1178 13.917 24.6616 13.917C25.2053 13.917 25.7437 14.0241 26.246 14.2322C26.7483 14.4402 27.2048 14.7452 27.5892 15.1297C27.9737 15.5141 28.2787 15.9706 28.4867 16.4729C28.6948 16.9752 28.8019 17.5136 28.8019 18.0573V19.9053C29.1357 19.9463 29.4425 20.1091 29.6636 20.3625C29.8846 20.6158 30.0043 20.942 29.9996 21.2782V26.7987C30.0029 26.977 29.971 27.1542 29.9057 27.3201C29.8405 27.4861 29.743 27.6375 29.6191 27.7657C29.4952 27.8939 29.3471 27.9964 29.1835 28.0673C29.0199 28.1382 28.8438 28.1761 28.6655 28.1788L20.6585 28.1779ZM26.7308 19.8981V18.0573C26.7308 17.5083 26.5127 16.9817 26.1245 16.5935C25.7363 16.2053 25.2097 15.9872 24.6607 15.9872C24.1116 15.9872 23.5851 16.2053 23.1968 16.5935C22.8086 16.9817 22.5905 17.5083 22.5905 18.0573V19.8981H26.7308Z" fill="#5135FF"/>
</svg>
