<svg width="32" height="32" viewBox="0 0 32 32" fill="none" xmlns="http://www.w3.org/2000/svg">
<path opacity="0.45" d="M5.5 18.3325V13.5C5.5 12.9477 5.94772 12.5 6.5 12.5H26.5C27.0523 12.5 27.5 12.9477 27.5 13.5V18.2235C28.9998 17.3389 29.9961 15.7846 30 14.0142C29.9747 12.9981 29.6496 12.014 29.0677 11.1925C28.4859 10.3709 27.6748 9.75083 26.7423 9.41449C26.3975 4.4584 21.7878 0.701062 16.4458 1.01875C14.615 1.08065 12.8396 1.67942 11.3287 2.74452C9.81774 3.80963 8.63429 5.29668 7.91772 7.03049C4.36247 7.31038 1.72162 10.2119 2.02351 13.5102C2.21619 15.6286 3.58296 17.4132 5.5 18.3325Z" fill="#5135FF"/>
<path d="M13.2648 29.9068L9.0944 25.9056C9.04907 25.8611 9.01834 25.8049 9.00603 25.7439C8.99372 25.6829 9.00035 25.6197 9.02512 25.5623C9.04989 25.5049 9.0917 25.4556 9.14538 25.4207C9.19906 25.3858 9.26224 25.3668 9.32711 25.3659H11.51V22H15.488V25.3659H17.6719C17.7369 25.3666 17.8002 25.3855 17.854 25.4203C17.9078 25.4552 17.9498 25.5044 17.9747 25.5619C17.9996 25.6193 18.0063 25.6826 17.994 25.7437C17.9817 25.8048 17.951 25.8611 17.9056 25.9056L13.7337 29.9068C13.703 29.9364 13.6664 29.9598 13.6262 29.9758C13.5859 29.9918 13.5428 30 13.4993 30C13.4557 30 13.4126 29.9918 13.3723 29.9758C13.3321 29.9598 13.2956 29.9364 13.2648 29.9068Z" fill="#5135FF"/>
<path d="M20.3693 21.0623L18.0524 23.7367C18.0273 23.7664 18.0102 23.804 18.0033 23.8448C17.9965 23.8856 18.0002 23.9278 18.014 23.9662C18.0277 24.0046 18.0509 24.0375 18.0808 24.0608C18.1106 24.0841 18.1457 24.0969 18.1817 24.0974H19.3945V26H21.6044V24.0974H22.8177C22.8538 24.097 22.889 24.0843 22.9189 24.0611C22.9488 24.0378 22.9721 24.0049 22.9859 23.9665C22.9998 23.928 23.0035 23.8858 22.9967 23.8449C22.9899 23.8041 22.9728 23.7665 22.9476 23.7367L20.6298 21.0623C20.6128 21.0425 20.5924 21.0269 20.5701 21.0162C20.5477 21.0055 20.5238 21 20.4996 21C20.4754 21 20.4514 21.0055 20.4291 21.0162C20.4067 21.0269 20.3864 21.0425 20.3693 21.0623Z" fill="#5135FF"/>
<path fill-rule="evenodd" clip-rule="evenodd" d="M7.75 14C7.33579 14 7 14.3358 7 14.75V19.25C7 19.6642 7.33579 20 7.75 20H25.25C25.6642 20 26 19.6642 26 19.25V14.75C26 14.3358 25.6642 14 25.25 14H7.75ZM17.5 16C17.2239 16 17 16.2239 17 16.5V17.5C17 17.7761 17.2239 18 17.5 18H23.5C23.7761 18 24 17.7761 24 17.5V16.5C24 16.2239 23.7761 16 23.5 16H17.5Z" fill="#5135FF"/>
</svg>
