<svg width="32" height="32" viewBox="0 0 32 32" fill="none" xmlns="http://www.w3.org/2000/svg">
<g opacity="0.45">
<path d="M2.77284 3.99902H25.9488C26.0503 3.99902 26.1508 4.01931 26.2445 4.05873C26.3383 4.09814 26.4235 4.15591 26.4953 4.22874C26.567 4.30158 26.6239 4.38804 26.6628 4.4832C26.7016 4.57835 26.7216 4.68034 26.7216 4.78334V9.48647C26.7216 9.58947 26.7016 9.69146 26.6628 9.78661C26.6239 9.88177 26.567 9.96823 26.4953 10.0411C26.4235 10.1139 26.3383 10.1717 26.2445 10.2111C26.1508 10.2505 26.0503 10.2708 25.9488 10.2708H2.77284C2.56787 10.2708 2.37129 10.1882 2.22636 10.0411C2.08142 9.89398 2 9.69448 2 9.48647V4.78334C2 4.57533 2.08142 4.37583 2.22636 4.22874C2.37129 4.08166 2.56787 3.99902 2.77284 3.99902Z" fill="#5135FF"/>
<path d="M2.77284 11.8394H25.9488C26.0503 11.8394 26.1508 11.8597 26.2445 11.8991C26.3383 11.9385 26.4235 11.9963 26.4953 12.0691C26.567 12.142 26.6239 12.2284 26.6628 12.3236C26.7016 12.4187 26.7216 12.5207 26.7216 12.6237V17.3269C26.7216 17.4299 26.7016 17.5319 26.6628 17.627C26.6239 17.7222 26.567 17.8086 26.4953 17.8815C26.4235 17.9543 26.3383 18.0121 26.2445 18.0515C26.1508 18.0909 26.0503 18.1112 25.9488 18.1112H2.77284C2.56787 18.1112 2.37129 18.0285 2.22636 17.8815C2.08142 17.7344 2 17.5349 2 17.3269V12.6237C2 12.4157 2.08142 12.2162 2.22636 12.0691C2.37129 11.9221 2.56787 11.8394 2.77284 11.8394Z" fill="#5135FF"/>
<path d="M8.71555 25.9507H2.77192C2.56727 25.9504 2.37107 25.8678 2.22636 25.7209C2.08165 25.5741 2.00024 25.375 2 25.1673V20.4632C2.00048 20.2557 2.08199 20.0568 2.22668 19.9101C2.37136 19.7635 2.56743 19.681 2.77192 19.6807H9.06136C8.83598 19.9956 8.7149 20.375 8.71555 20.7642V25.9507Z" fill="#5135FF"/>
</g>
<path d="M3.54475 10.2723H25.1695V11.84H3.54475V10.2723Z" fill="#5135FF"/>
<path d="M9.06049 19.6807H3.54297V18.113H25.1678V18.9121H10.5405C10.2518 18.9127 9.96727 18.9825 9.71022 19.1159C9.45318 19.2493 9.23085 19.4425 9.0614 19.6797L9.06049 19.6807Z" fill="#5135FF"/>
<path d="M23.1132 6.09131H18.4789C17.91 6.09131 17.4487 6.55937 17.4487 7.13676C17.4487 7.71414 17.91 8.1822 18.4789 8.1822H23.1132C23.6821 8.1822 24.1433 7.71414 24.1433 7.13676C24.1433 6.55937 23.6821 6.09131 23.1132 6.09131Z" fill="#5135FF"/>
<path d="M23.1132 13.9315H18.4789C17.91 13.9315 17.4487 14.3996 17.4487 14.977C17.4487 15.5543 17.91 16.0224 18.4789 16.0224H23.1132C23.6821 16.0224 24.1433 15.5543 24.1433 14.977C24.1433 14.3996 23.6821 13.9315 23.1132 13.9315Z" fill="#5135FF"/>
<path d="M10.2226 27.8585H11.99V24.7925H14.4088V27.8585H16.1662V20.3931H14.4088V23.2378H11.99V20.3922H10.2226V27.8585ZM17.7858 27.8585H19.5532V25.3842H20.4118C21.972 25.3842 23.3142 24.6027 23.3142 22.8294C23.3142 20.9857 21.9812 20.394 20.3716 20.394H17.7848L17.7858 27.8585ZM19.5532 23.9693V21.8164H20.274C21.1235 21.8164 21.597 22.0766 21.597 22.8285C21.597 23.56 21.1828 23.9712 20.3196 23.9712L19.5532 23.9693ZM27.6 27.9974C28.0556 28.0069 28.5076 27.9128 28.9228 27.7222C29.338 27.5315 29.7059 27.2491 29.9997 26.8954L29.0708 25.775C28.8979 25.9829 28.6835 26.1512 28.4418 26.2687C28.2 26.3862 27.9364 26.4502 27.6684 26.4565C26.6319 26.4565 25.9603 25.5944 25.9603 24.1119C25.9603 22.659 26.7404 21.7969 27.6885 21.7969C28.1748 21.8132 28.6356 22.0219 28.9723 22.3784L29.8902 21.2358C29.6008 20.931 29.2543 20.6879 28.871 20.5209C28.4877 20.354 28.0754 20.2664 27.6583 20.2635C27.1688 20.2659 26.685 20.3714 26.2377 20.5732C25.7904 20.7751 25.3891 21.0689 25.0594 21.4362C24.7297 21.8035 24.4786 22.2361 24.3221 22.7069C24.1656 23.1777 24.107 23.6763 24.15 24.1712C24.15 26.6964 25.734 27.9992 27.6 27.9992V27.9974Z" fill="#5135FF"/>
</svg>
