<svg width="32" height="32" viewBox="0 0 32 32" fill="none" xmlns="http://www.w3.org/2000/svg">
<path fill-rule="evenodd" clip-rule="evenodd" d="M21.621 28.9917C22.495 28.9764 23.3289 28.6211 23.947 28.0006C24.5651 27.3802 24.919 26.543 24.9342 25.6657C24.9342 24.4339 23.975 23.3807 22.7254 22.894C22.5084 19.8419 20.0196 17.7093 16.6512 17.905C14.1989 18.0491 11.9382 19.1295 11.1292 21.231C8.88393 21.4034 7.07327 23.0792 7.26378 25.1113C7.44158 27.0193 9.0137 28.9878 11.1292 28.9917H21.621ZM18.6079 27.2963C17.2702 27.2963 16.2118 26.4294 16.2118 24.7488C16.2118 23.0948 17.2962 22.1478 18.5884 22.1478C19.2962 22.1478 19.8027 22.4546 20.1339 22.7947L19.5235 23.555C19.2832 23.3349 19.03 23.1682 18.6274 23.1682C17.9131 23.1682 17.4001 23.7417 17.4001 24.7087C17.4001 25.6958 17.8287 26.2693 18.7313 26.2693C18.9001 26.2693 19.0819 26.2226 19.1858 26.1426V25.3423H18.4196V24.3686H20.2183V26.6894C19.8806 27.0229 19.2832 27.2963 18.6079 27.2963ZM12.0796 26.6097C12.4627 26.9965 12.9952 27.2966 13.7679 27.2966C14.6965 27.2966 15.5147 26.6697 15.5147 25.596C15.5147 24.569 14.8264 24.0955 14.0082 24.0955C13.8263 24.0955 13.6835 24.1222 13.5082 24.1955L13.5796 23.3552H15.3004V22.3615H12.5861L12.4627 24.8224L12.9692 25.1625C13.2549 24.9758 13.3848 24.9158 13.651 24.9158C14.0666 24.9158 14.3588 25.1692 14.3588 25.6294C14.3588 26.0962 14.0666 26.3363 13.5991 26.3363C13.216 26.3363 12.8783 26.1295 12.6056 25.8628L12.0796 26.6097Z" fill="#5135FF"/>
<g opacity="0.75">
<path d="M18.3927 10.1103C17.8553 9.51468 17.0962 9.15509 16.2896 9.15509C15.4234 9.15509 14.612 9.5698 14.071 10.2462L12.1918 8.40392C13.2011 7.25341 14.6631 6.53009 16.2896 6.53009C17.8973 6.53009 19.3442 7.23673 20.3521 8.36408L18.3927 10.1103Z" fill="#5135FF"/>
<path d="M21.725 7.14051C20.3778 5.58831 18.4254 4.625 16.2897 4.625C14.1658 4.625 12.2232 5.57768 10.8769 7.1148L9.00049 5.2753C10.8136 3.26114 13.4083 2 16.2897 2C19.2275 2 21.8672 3.31093 23.6844 5.39427L21.725 7.14051Z" fill="#5135FF"/>
</g>
<path opacity="0.45" d="M27.375 29.9999V25.8379C27.375 19.5557 22.2822 14.4629 16 14.4629C9.71776 14.4629 4.625 19.5556 4.625 25.8379V29.9999H2V25.8379C2 18.1059 8.26801 11.8379 16 11.8379C23.732 11.8379 30 18.1059 30 25.8379V29.9999H27.375Z" fill="#5135FF"/>
</svg>
