<svg width="32" height="32" viewBox="0 0 32 32" fill="none" xmlns="http://www.w3.org/2000/svg">
<path opacity="0.75" d="M4.91428 14.252H27.0788C27.3881 14.252 27.6847 14.3748 27.9034 14.5935C28.1221 14.8122 28.245 15.1089 28.245 15.4182V28.8338C28.245 29.1431 28.1221 29.4397 27.9034 29.6584C27.6847 29.8771 27.3881 30 27.0788 30H4.91428C4.60497 30 4.30834 29.8771 4.08963 29.6584C3.87092 29.4397 3.74805 29.1431 3.74805 28.8338V15.4182C3.74805 15.1089 3.87092 14.8122 4.08963 14.5935C4.30834 14.3748 4.60497 14.252 4.91428 14.252Z" fill="#5135FF"/>
<path d="M19.9867 26.4994C19.8635 26.5064 19.7425 26.4643 19.6502 26.3823C19.5579 26.3003 19.5018 26.1852 19.4941 26.062V25.1871C19.5018 25.0639 19.5579 24.9487 19.6502 24.8668C19.7425 24.7848 19.8635 24.7427 19.9867 24.7496H26.0016C26.1248 24.7427 26.2458 24.7848 26.3381 24.8668C26.4304 24.9487 26.4865 25.0639 26.4941 25.1871V26.062C26.4865 26.185 26.4305 26.3 26.3384 26.382C26.2463 26.4639 26.1255 26.5061 26.0024 26.4994H19.9867ZM3.74609 22.9999V21.2413H28.243V22.9999H3.74609ZM19.9867 17.7505C19.8635 17.7575 19.7425 17.7154 19.6502 17.6334C19.5579 17.5514 19.5018 17.4363 19.4941 17.3131V16.4382C19.5018 16.315 19.5579 16.1998 19.6502 16.1179C19.7425 16.0359 19.8635 15.9938 19.9867 16.0007H26.0016C26.1247 15.994 26.2454 16.0363 26.3375 16.1182C26.4296 16.2001 26.4856 16.3152 26.4933 16.4382V17.3131C26.4856 17.4361 26.4296 17.5511 26.3375 17.6331C26.2454 17.715 26.1247 17.7572 26.0016 17.7505H19.9867Z" fill="#5135FF"/>
<g opacity="0.45">
<path d="M2 7.25372C2 3.90814 3.76903 2.00438 6.37445 2.00438C7.61354 1.98587 8.81287 2.44156 9.72704 3.27822L8.67717 4.56605C8.03204 4.02521 7.21262 3.73674 6.37096 3.75416C4.74366 3.75416 3.993 5.03237 3.993 7.21173C3.993 9.41907 4.97288 10.748 6.89152 10.748C7.3338 10.7654 7.76853 10.6297 8.12249 10.364V8.36308H6.3727V6.70079H9.87227V11.28C8.88585 12.0861 7.64648 12.518 6.3727 12.4996C3.69904 12.5031 2 10.6387 2 7.25372Z" fill="#5135FF"/>
<path d="M12.4952 2H15.9948C18.2756 2 19.909 2.7804 19.909 5.18023C19.909 7.49694 18.1426 8.53806 15.93 8.53806H14.5564V12.4987H12.4978L12.4952 2ZM15.7927 6.93439C17.2108 6.93439 17.8924 6.34471 17.8924 5.18023C17.8924 4.00088 17.1417 3.60543 15.7235 3.60543H14.5564V6.93614L15.7927 6.93439Z" fill="#5135FF"/>
<path d="M22.119 8.12774V2.0035H24.1487V8.12774C24.1487 10.2388 24.8766 10.748 26.0735 10.748C27.28 10.748 28.049 10.2388 28.049 8.12774V2.0035H30V8.12774C30 11.4996 28.5599 12.5022 26.077 12.5022C23.601 12.5022 22.119 11.4996 22.119 8.12774Z" fill="#5135FF"/>
</g>
</svg>
