<svg width="32" height="32" viewBox="0 0 32 32" fill="none" xmlns="http://www.w3.org/2000/svg">
<g opacity="0.45">
<path d="M17.75 11H14.25V25H17.75V11Z" fill="#5135FF"/>
<path d="M28.25 11H24.75V25H28.25V11Z" fill="#5135FF"/>
<path d="M7.25 11H3.75V25H7.25V11Z" fill="#5135FF"/>
<path d="M3.75 5.75C3.75 5.28587 3.93437 4.84075 4.26256 4.51256C4.59075 4.18437 5.03587 4 5.5 4H26.5C26.9641 4 27.4092 4.18437 27.7374 4.51256C28.0656 4.84075 28.25 5.28587 28.25 5.75V11H3.75V5.75Z" fill="#5135FF"/>
</g>
<path d="M3.75 11H28.25V16.25H3.75V11Z" fill="#5135FF"/>
<path d="M5.5 28.5C7.433 28.5 9 26.933 9 25C9 23.067 7.433 21.5 5.5 21.5C3.567 21.5 2 23.067 2 25C2 26.933 3.567 28.5 5.5 28.5Z" fill="#5135FF"/>
<path d="M26.5 28.5C28.433 28.5 30 26.933 30 25C30 23.067 28.433 21.5 26.5 21.5C24.567 21.5 23 23.067 23 25C23 26.933 24.567 28.5 26.5 28.5Z" fill="#5135FF"/>
<path d="M16 28.5C17.933 28.5 19.5 26.933 19.5 25C19.5 23.067 17.933 21.5 16 21.5C14.067 21.5 12.5 23.067 12.5 25C12.5 26.933 14.067 28.5 16 28.5Z" fill="#5135FF"/>
</svg>
