<svg width="32" height="32" viewBox="0 0 32 32" fill="none" xmlns="http://www.w3.org/2000/svg">
<path opacity="0.75" d="M14.249 29.9983C14.1735 29.9983 14.0987 29.984 14.0286 29.9563L11.9754 29.1539C10.2956 28.4982 8.74161 27.5572 7.38186 26.3724C5.95278 25.1254 4.82399 23.5712 4.07992 21.8261L3.66805 20.8558C3.15989 19.6651 2.8021 18.4156 2.60297 17.1363C2.20019 14.5199 1.99876 11.8765 2.00047 9.22925V8.09967C1.9936 7.84116 2.06236 7.58627 2.19829 7.36632C2.33422 7.14637 2.53141 6.97095 2.76562 6.8616L14.0024 2.0493C14.0779 2.01677 14.1593 2 14.2415 2C14.3238 2 14.4051 2.01677 14.4807 2.0493L25.7174 6.8616C25.9525 6.97122 26.1505 7.14725 26.2869 7.368C26.4233 7.58875 26.4922 7.8446 26.4852 8.10405V9.8881C26.4847 11.661 26.3805 13.4323 26.173 15.193L26.0663 15.1685C25.836 15.119 25.6021 15.088 25.3668 15.0758H25.3152C24.9451 14.2376 24.439 13.4666 23.8172 12.7939C23.8443 12.2094 23.8583 11.6161 23.8583 11.0308V9.58361C23.8659 9.37488 23.813 9.1684 23.7061 8.98898C23.5993 8.80957 23.4429 8.66483 23.2558 8.57215L14.4238 4.66281C14.3666 4.63814 14.3051 4.62505 14.2428 4.62432C14.1782 4.62396 14.1141 4.63707 14.0548 4.66281L5.22458 8.57215C5.03928 8.66593 4.88443 8.81047 4.77806 8.98893C4.6717 9.16738 4.61822 9.37241 4.62383 9.58011V10.4997C4.6241 12.6513 4.7831 14.7999 5.09954 16.9281C5.25612 17.9642 5.5368 18.9777 5.93551 19.9467L6.26081 20.7341C6.83906 22.1445 7.72523 23.4075 8.85444 24.4309C9.9175 25.3875 11.1378 26.153 12.4616 26.6935L14.0749 27.341C14.1284 27.3622 14.1853 27.3732 14.2428 27.3734C14.3026 27.3737 14.3618 27.363 14.4177 27.3419L15.5344 26.8939C16.114 27.0209 16.7057 27.0849 17.2991 27.0846H20.2337C19.0974 27.9421 17.8486 28.6393 16.5225 29.1565L14.4649 29.9589C14.396 29.9853 14.3228 29.9987 14.249 29.9983Z" fill="#5135FF"/>
<path opacity="0.45" d="M14.2473 27.3742C14.1872 27.3743 14.1278 27.3624 14.0724 27.3392L12.4581 26.69C11.1327 26.1514 9.91139 25.3853 8.84927 24.4264C7.72083 23.4043 6.8355 22.1423 6.25826 20.733L5.93296 19.9455C5.53355 18.9768 5.25313 17.9632 5.09786 16.9268C4.78043 14.799 4.62172 12.6505 4.62303 10.4991V9.58126C4.61694 9.37358 4.67024 9.16848 4.77667 8.99007C4.88309 8.81166 5.0382 8.66737 5.22378 8.57415L14.0549 4.66381C14.1141 4.63758 14.1781 4.62402 14.2429 4.62402C14.3077 4.62402 14.3717 4.63758 14.4309 4.66381L23.2629 8.57415C23.448 8.6682 23.6025 8.813 23.7084 8.99164C23.8143 9.17029 23.8673 9.37539 23.861 9.58301V11.0337C23.861 11.6182 23.847 12.2115 23.8199 12.796C22.9788 11.9245 21.9639 11.2398 20.8411 10.7865C19.7182 10.3332 18.5126 10.1214 17.3026 10.1649C15.2392 10.2051 13.2614 10.9978 11.7408 12.3941C10.2202 13.7903 9.26137 15.6941 9.04448 17.7478C8.82759 19.8015 9.36753 21.8637 10.5629 23.5472C11.7582 25.2306 13.5267 26.4195 15.5362 26.8903L14.4195 27.3392C14.3649 27.362 14.3064 27.3738 14.2473 27.3742Z" fill="#5135FF"/>
<path d="M10.1621 18.6232C10.1817 16.6701 10.9758 14.8048 12.3697 13.4375C13.7635 12.0702 15.6431 11.3128 17.595 11.3319C19.124 11.3236 20.6183 11.7876 21.8739 12.6606C23.1295 13.5337 24.0853 14.7732 24.6107 16.21C24.7483 16.1989 24.8873 16.1933 25.0278 16.1933C25.6753 16.1783 26.3192 16.2929 26.9218 16.5304C27.5244 16.7679 28.0734 17.1236 28.5367 17.5765C28.9999 18.0293 29.368 18.5703 29.6193 19.1676C29.8706 19.7648 30.0001 20.4063 30.0001 21.0544C30.0001 21.7024 29.8706 22.3439 29.6193 22.9412C29.368 23.5384 28.9999 24.0794 28.5367 24.5323C28.0734 24.9851 27.5244 25.3408 26.9218 25.5783C26.3192 25.8158 25.6753 25.9304 25.0278 25.9154H17.595C15.6429 25.9345 13.7633 25.177 12.3694 23.8095C10.9755 22.442 10.1815 20.5764 10.1621 18.6232Z" fill="#5135FF"/>
</svg>
