<svg width="32" height="32" viewBox="0 0 32 32" fill="none" xmlns="http://www.w3.org/2000/svg">
<path d="M2 2.01476H6.25171C6.89135 1.9789 7.52809 2.12458 8.08845 2.43499C8.64881 2.74541 9.10994 3.2079 9.41861 3.76908C9.94642 4.76999 10.2028 5.89163 10.1622 7.02237C10.2024 8.26666 9.92478 9.50066 9.35563 10.608C9.06734 11.1964 8.61501 11.6889 8.05313 12.0263C7.49124 12.3636 6.84377 12.5313 6.18872 12.5092H2V2.01476ZM3.98063 10.559H5.93676C6.2912 10.5664 6.63986 10.4684 6.93857 10.2776C7.23728 10.0867 7.47259 9.8115 7.6147 9.48682C7.96106 8.77244 8.12516 7.98347 8.09236 7.19028C8.19933 6.21914 7.91893 5.245 7.31201 4.47921C6.91933 4.1358 6.4067 3.96163 5.88602 3.99471H3.98063V10.559Z" fill="#5135FF"/>
<path d="M18.1355 2.01476H20.0006V12.5092H18.0095L14.099 5.04067H14.0605V12.5092H12.1813V2.01476H14.3125L18.1232 9.33815H18.1355V2.01476Z" fill="#5135FF"/>
<path d="M24.0021 9.19297C23.9928 9.55214 24.1176 9.90192 24.3521 10.1742C24.5775 10.3888 24.8466 10.5523 25.141 10.6534C25.4355 10.7545 25.7482 10.7909 26.058 10.7601C26.5201 10.7791 26.9806 10.6961 27.407 10.517C27.6076 10.4344 27.7781 10.2924 27.8957 10.1102C28.0133 9.92791 28.0723 9.71406 28.0649 9.49731C28.0676 9.32718 28.0231 9.15963 27.9363 9.01327C27.8495 8.86691 27.7239 8.74747 27.5732 8.66825C27.1766 8.47895 26.7556 8.34591 26.3222 8.27295L25.2882 8.00535C24.7685 7.87766 24.3859 7.77563 24.1404 7.69926C23.7962 7.58806 23.4693 7.42909 23.1693 7.22701C22.8705 7.02061 22.631 6.7396 22.4747 6.41194C22.2977 5.99288 22.2124 5.54084 22.2245 5.08613C22.1961 4.37548 22.4345 3.67989 22.8928 3.13591C23.2825 2.73619 23.7563 2.42819 24.2799 2.23427C24.8035 2.04035 25.3636 1.96536 25.9198 2.01475C26.4689 1.97643 27.0197 2.06059 27.5323 2.26114C28.0449 2.4617 28.5065 2.77364 28.8837 3.17439C29.3863 3.7454 29.6643 4.47949 29.6658 5.24005H27.7604C27.7331 4.91129 27.6116 4.59735 27.4105 4.33578C27.1947 4.12783 26.9364 3.96904 26.6534 3.87031C26.3705 3.77158 26.0694 3.73526 25.7711 3.76383C25.3815 3.75094 24.9951 3.8389 24.6495 4.0192C24.4783 4.10619 24.3353 4.23997 24.2371 4.405C24.1389 4.57003 24.0896 4.75952 24.0949 4.95146C24.0866 5.09288 24.1132 5.23416 24.1724 5.36288C24.2316 5.49159 24.3215 5.60378 24.4343 5.68957C24.6347 5.82144 24.8568 5.91678 25.0904 5.97117L25.1149 5.98341L27.477 6.59559C28.1087 6.7137 28.7049 6.9752 29.2197 7.35994C29.4848 7.59987 29.6922 7.8966 29.8264 8.22795C29.9606 8.55931 30.0182 8.91671 29.9948 9.27343C30.0288 9.8344 29.8959 10.3929 29.6129 10.8785C29.3299 11.3641 28.9093 11.755 28.4043 12.002C27.7217 12.3497 26.9639 12.5239 26.198 12.5092C25.5799 12.5666 24.9567 12.4879 24.3723 12.2784C23.788 12.069 23.2567 11.734 22.8159 11.2971C22.3144 10.7129 22.0492 9.96248 22.0723 9.19297H24.0021Z" fill="#5135FF"/>
<path opacity="0.45" d="M27.8434 14.2583H4.15106C3.92929 14.2583 3.74951 14.438 3.74951 14.6597V29.5986C3.74951 29.8203 3.92929 30 4.15106 30H27.8434C28.0652 30 28.2449 29.8203 28.2449 29.5986V14.6597C28.2449 14.438 28.0652 14.2583 27.8434 14.2583Z" fill="#5135FF"/>
<path d="M28.2449 21.2546H3.74951V23.0036H28.2449V21.2546Z" fill="#5135FF"/>
<path d="M7.24918 19.5055C8.21568 19.5055 8.99918 18.7224 8.99918 17.7564C8.99918 16.7904 8.21568 16.0073 7.24918 16.0073C6.28269 16.0073 5.49918 16.7904 5.49918 17.7564C5.49918 18.7224 6.28269 19.5055 7.24918 19.5055Z" fill="#5135FF"/>
<path d="M12.4982 19.5055C13.4647 19.5055 14.2482 18.7224 14.2482 17.7564C14.2482 16.7904 13.4647 16.0073 12.4982 16.0073C11.5317 16.0073 10.7482 16.7904 10.7482 17.7564C10.7482 18.7224 11.5317 19.5055 12.4982 19.5055Z" fill="#5135FF"/>
</svg>
