<svg width="32" height="32" viewBox="0 0 32 32" fill="none" xmlns="http://www.w3.org/2000/svg">
<path opacity="0.45" d="M18.4149 19.5015H11.8252C11.6973 19.227 11.6275 18.9292 11.6197 18.6266V14.2521C11.6218 13.3439 11.9761 12.4714 12.608 11.8188C13.2399 11.1662 14.1002 10.7843 15.0081 10.7526H12.4973C10.4549 10.7548 8.49287 11.5498 7.02502 12.9697C5.55717 14.3896 4.69796 16.3235 4.62835 18.3643C3.90724 17.9039 3.29901 17.2875 2.84783 16.5607C2.39665 15.8339 2.11402 15.0154 2.02145 14.165C1.957 13.4428 2.03818 12.7151 2.25988 12.0247C2.48158 11.3344 2.83938 10.6948 3.31229 10.1451C3.89124 9.4803 4.59597 8.93713 5.38593 8.5457C6.1759 8.15426 7.03573 7.92276 7.91549 7.86475C8.63081 6.17835 9.81376 4.73124 11.3248 3.69536C12.8359 2.65947 14.6117 2.07753 16.4429 2.0182C16.6503 2.00595 16.8623 2.00026 17.0706 2.00026C19.4833 1.98313 21.8249 2.81624 23.6838 4.35409C24.5597 5.06872 25.2817 5.9531 25.807 6.95398C26.3323 7.95485 26.6497 9.05176 26.7402 10.1784C27.6736 10.5053 28.4854 11.1085 29.0677 11.9077C29.6499 12.7069 29.9751 13.6644 30 14.6528C29.995 15.5138 29.7429 16.3548 29.2736 17.0767C28.7966 17.8049 28.1439 18.4017 27.3756 18.8111V16.0019C27.3779 15.264 27.2121 14.5354 26.8906 13.8711C26.5692 13.2068 26.1005 12.6244 25.5203 12.1683C24.2973 11.2271 22.7914 10.728 21.2482 10.7526H18.623V18.6266C18.6157 18.9293 18.5458 19.2272 18.4174 19.5015H18.4149ZM22.1199 17.7517C21.9468 17.7517 21.7776 17.7 21.6337 17.6039C21.4897 17.5077 21.3777 17.3716 21.3115 17.2117C21.2452 17.0518 21.2277 16.8756 21.2615 16.7059C21.2952 16.5362 21.3788 16.3806 21.5012 16.2582C21.6236 16.1359 21.7792 16.0527 21.949 16.019C22.1187 15.9852 22.295 16.0023 22.4549 16.0685C22.6148 16.1348 22.7514 16.2468 22.8476 16.3906C22.9437 16.5345 22.995 16.7038 22.995 16.8768C22.995 17.1082 22.9033 17.3305 22.7399 17.4945C22.5766 17.6585 22.3548 17.7508 22.1233 17.7517H22.1199Z" fill="#5135FF"/>
<path opacity="0.75" d="M17.7501 30H16C15.771 29.9901 15.5539 29.8946 15.3919 29.7326C15.2299 29.5706 15.1347 29.354 15.1249 29.1251V26.4936H10.7494V29.1251C10.7341 29.3521 10.6369 29.5657 10.4759 29.7266C10.315 29.8875 10.1014 29.9847 9.87432 30H8.12414C7.91493 29.9425 7.72422 29.8313 7.5708 29.6779C7.41738 29.5245 7.30654 29.3343 7.24905 29.1251C7.22542 29.0438 7.16157 28.8625 7.08369 28.6202L7.06275 28.5561V28.551C6.45982 26.7452 4.62549 21.2512 4.62549 18.623C4.62688 16.5351 5.45701 14.5331 6.93371 13.0567C8.41041 11.5804 10.4129 10.7504 12.5013 10.749H15.0155C14.1071 10.7796 13.2459 11.1616 12.6137 11.8144C11.9815 12.4673 11.6275 13.3399 11.6262 14.2486V18.623C11.6262 20.5014 14.9831 22.8925 15.1266 22.9975C15.1616 22.9739 18.6269 20.5277 18.6269 18.623V10.749H21.2522C22.7954 10.7228 24.3015 11.2215 25.5243 12.163C26.1041 12.6204 26.5725 13.2032 26.8933 13.8684C27.2141 14.5335 27.3792 15.2633 27.3761 16.0018V23.8758C27.3761 23.9633 27.3761 24.0593 27.3761 24.1381C27.3761 24.1967 27.3761 24.2564 27.3761 24.3132C27.3765 25.5184 26.9237 26.6795 26.1079 27.5667C25.2895 28.4378 24.1884 28.9902 23.0007 29.1251C22.7686 29.1251 22.5461 29.0329 22.382 28.8688C22.2179 28.7047 22.1256 28.4823 22.1256 28.2502V26.5005C22.1256 26.2684 22.2179 26.046 22.382 25.8819C22.5461 25.7178 22.7686 25.6256 23.0007 25.6256C23.2328 25.6256 23.4553 25.5333 23.6194 25.3692C23.7835 25.2052 23.8758 24.9827 23.8758 24.7507V23.8758C23.8603 23.4166 23.6709 22.9806 23.3459 22.6557C23.021 22.3309 22.5848 22.1415 22.1256 22.126H20.3972L18.6252 29.1251C18.6121 29.1619 18.3155 30 17.7501 30ZM22.1256 16.0018C21.9525 16.0018 21.7832 16.0535 21.6393 16.1496C21.4954 16.2457 21.3834 16.3819 21.3172 16.5418C21.2509 16.7016 21.2334 16.8778 21.2672 17.0475C21.3009 17.2173 21.3845 17.3729 21.5069 17.4952C21.6293 17.6176 21.7849 17.7007 21.9547 17.7345C22.1244 17.7682 22.3007 17.7511 22.4606 17.6849C22.6205 17.6187 22.7571 17.5067 22.8533 17.3628C22.9494 17.2189 23.0007 17.0497 23.0007 16.8767C23.0007 16.6446 22.9084 16.4222 22.7443 16.2581C22.5802 16.094 22.3577 16.0018 22.1256 16.0018Z" fill="#5135FF"/>
<path d="M11.6196 18.626V14.2515C11.6196 13.3234 11.9884 12.4332 12.6449 11.7769C13.3014 11.1207 14.1918 10.752 15.1202 10.752H18.6208V18.626C18.6208 20.5586 15.1202 23.0004 15.1202 23.0004C15.1202 23.0004 11.6196 20.5586 11.6196 18.626Z" fill="#5135FF"/>
</svg>
