<svg width="32" height="32" viewBox="0 0 32 32" fill="none" xmlns="http://www.w3.org/2000/svg">
<path opacity="0.45" d="M18.796 14.414L18.7443 14.3995L18.6137 14.0757L19.2313 12.9947C19.4431 12.6269 19.5255 12.1987 19.4653 11.7786C19.854 11.943 20.2854 11.9778 20.6955 11.878C21.1056 11.7782 21.4726 11.549 21.7424 11.2243C22.0121 10.8997 22.1701 10.4968 22.193 10.0754C22.216 9.65391 22.1027 9.23627 21.8698 8.88425C21.6369 8.53222 21.2969 8.26452 20.9001 8.12076C20.5032 7.977 20.0707 7.96482 19.6664 8.08602C19.2621 8.20722 18.9075 8.45537 18.6552 8.79373C18.4029 9.13209 18.2663 9.5427 18.2655 9.96477C18.2655 9.99439 18.2655 10.0246 18.2655 10.0555L17.7041 9.49409C17.3481 9.1373 16.8659 8.93526 16.3619 8.93181C16.0252 8.93061 15.6947 9.02156 15.406 9.19481L14.3622 9.79427L14.305 9.77069L14.2715 9.75618V9.41247C14.2738 9.33039 14.3019 9.25113 14.3519 9.186C14.4019 9.12086 14.4712 9.07316 14.5499 9.04971L15.7506 8.71597C15.9093 8.30152 15.9837 8.12467 16.1488 7.73652L16.1678 7.69118L15.5484 6.6029C15.5052 6.53153 15.488 6.44748 15.4996 6.36489C15.5111 6.2823 15.5508 6.20622 15.6119 6.14945L16.4217 5.33959C16.4552 5.303 16.496 5.27385 16.5415 5.25401C16.5869 5.23417 16.636 5.22409 16.6856 5.22441C16.7529 5.22445 16.8189 5.24229 16.877 5.27611L17.9653 5.89642C18.3906 5.73318 18.5747 5.65519 18.9783 5.48379L18.9874 5.47925L19.3175 4.27852C19.338 4.19748 19.3854 4.1258 19.452 4.07522C19.5185 4.02465 19.6003 3.99816 19.6839 4.0001H20.8347C20.9168 4.00241 20.996 4.03056 21.0612 4.08056C21.1263 4.13055 21.174 4.19983 21.1975 4.27852L21.5267 5.47925C21.9475 5.63977 22.1279 5.71686 22.5243 5.88554L22.5524 5.89733L23.6406 5.27701C23.695 5.24303 23.7579 5.22511 23.822 5.22532C23.9243 5.22664 24.022 5.26799 24.0941 5.3405L24.904 6.15036C24.9651 6.20712 25.0047 6.28321 25.0163 6.3658C25.0278 6.44839 25.0106 6.53244 24.9674 6.6038L24.348 7.69208C24.5013 8.09475 24.5784 8.27612 24.7326 8.63888L24.7652 8.71688L25.9668 9.04608C26.0455 9.06954 26.1148 9.11723 26.1648 9.18237C26.2148 9.24751 26.243 9.32676 26.2453 9.40884V10.5642C26.2428 10.6463 26.2146 10.7255 26.1646 10.7906C26.1147 10.8557 26.0455 10.9034 25.9668 10.927L24.7679 11.2553C24.6092 11.6697 24.5349 11.8466 24.3698 12.2347L24.3508 12.2801L24.9702 13.3684C25.0118 13.4401 25.0282 13.5238 25.0167 13.606C25.0052 13.6883 24.9665 13.7642 24.9067 13.8218L24.7253 14.0032C23.7651 13.6487 22.7408 13.5011 21.7196 13.5702C20.6984 13.6393 19.7033 13.9234 18.7996 14.404L18.796 14.414Z" fill="#5135FF"/>
<path opacity="0.75" d="M11.8645 26.4187H10.1351C10.0108 26.4164 9.89054 26.3746 9.79158 26.2995C9.69263 26.2243 9.62013 26.1197 9.58457 26.0006L9.09031 24.1977C8.45548 23.9547 8.18341 23.8349 7.58305 23.5846L7.5504 23.5629L5.91798 24.4943C5.83657 24.5457 5.74224 24.5731 5.64591 24.5732C5.49168 24.5713 5.34438 24.5088 5.23599 24.399L4.0144 23.1874C3.92364 23.1008 3.86517 22.9858 3.84868 22.8615C3.83218 22.7371 3.85866 22.6109 3.92371 22.5036L4.8551 20.8712C4.61205 20.2364 4.49234 19.9643 4.24203 19.3639L4.22843 19.3313L2.41826 18.8343C2.29635 18.8035 2.18855 18.7321 2.11257 18.6319C2.0366 18.5317 1.99696 18.4086 2.00018 18.2829V16.5535C2.00229 16.4291 2.04395 16.3086 2.11912 16.2094C2.19428 16.1103 2.29906 16.0377 2.41826 16.0021L4.2239 15.5078C4.45969 14.892 4.57033 14.6299 4.81429 14.0568L4.85147 13.9661L3.92009 12.3337C3.85616 12.2261 3.83035 12.1001 3.8468 11.976C3.86325 11.852 3.92102 11.7371 4.01078 11.6499L5.23146 10.4328C5.2816 10.3776 5.3428 10.3336 5.41109 10.3036C5.47937 10.2736 5.5532 10.2583 5.62778 10.2587C5.72918 10.2591 5.82868 10.2863 5.91617 10.3376L7.54859 11.2699C8.17525 11.0295 8.44279 10.9162 9.03136 10.6668L9.0885 10.6423L9.58457 8.83576C9.61507 8.71383 9.68624 8.60596 9.78632 8.52995C9.88641 8.45394 10.0094 8.41433 10.1351 8.41768H11.8645C11.9889 8.41993 12.1093 8.46164 12.2084 8.53678C12.3075 8.61193 12.3802 8.71662 12.4159 8.83576L12.9102 10.6414C13.5314 10.879 13.7971 10.9915 14.3793 11.239L14.4501 11.269L16.0825 10.3367C16.164 10.2853 16.2583 10.2579 16.3546 10.2578C16.5084 10.2595 16.6553 10.3217 16.7636 10.431L17.9806 11.648C18.0715 11.7345 18.1301 11.8496 18.1466 11.9739C18.1631 12.0983 18.1365 12.2246 18.0713 12.3318L17.1454 13.9679C17.344 14.4875 17.4574 14.7632 17.6351 15.184C17.0355 15.6714 16.5175 16.2512 16.1006 16.9017C15.9624 15.7254 15.4221 14.6329 14.5713 13.809C13.7204 12.9851 12.6111 12.4803 11.431 12.38C10.2509 12.2796 9.07227 12.5899 8.09452 13.2583C7.11676 13.9267 6.39983 14.9123 6.06494 16.0484C5.73005 17.1844 5.79776 18.4013 6.25661 19.4932C6.71545 20.5851 7.53729 21.485 8.58316 22.0409C9.62903 22.5967 10.8348 22.7743 11.9965 22.5437C13.1582 22.313 14.2046 21.6883 14.9589 20.7751V20.8059C14.9585 22.0675 15.2877 23.3074 15.9138 24.4027L14.4501 23.5629C13.8425 23.795 13.5677 23.912 13.0199 24.1433L12.9111 24.1895L12.4168 25.9952C12.387 26.1183 12.3159 26.2274 12.2155 26.3045C12.115 26.3815 11.9911 26.4218 11.8645 26.4187Z" fill="#5135FF"/>
<path d="M11.1535 19.4482C10.988 19.9034 10.5516 20.2285 10.0392 20.2285C9.52684 20.2285 9.09039 19.9034 8.9249 19.4482H7.89172C7.60823 19.4482 7.37842 19.2184 7.37842 18.9349V18.934C7.37842 18.6505 7.60823 18.4207 7.89172 18.4207H9.03032C9.23917 18.0829 9.61291 17.8578 10.0392 17.8578C10.4655 17.8578 10.8393 18.0829 11.0481 18.4207H13.909C14.1925 18.4207 14.4223 18.6505 14.4223 18.934V18.9349C14.4223 19.2184 14.1925 19.4482 13.909 19.4482H11.1535Z" fill="#5135FF"/>
<path d="M13.909 15.4853H7.89172C7.60823 15.4853 7.37842 15.7152 7.37842 15.9986C7.37842 16.2821 7.60823 16.5129 7.89172 16.5129H13.909C14.1925 16.5129 14.4223 16.283 14.4223 15.9996C14.4223 15.7161 14.1925 15.4853 13.909 15.4853Z" fill="#5135FF"/>
<path d="M12.409 17.2647C13.0636 17.2647 13.5943 16.734 13.5943 16.0794C13.5943 15.4247 13.0636 14.894 12.409 14.894C11.7544 14.894 11.2237 15.4247 11.2237 16.0794C11.2237 16.734 11.7544 17.2647 12.409 17.2647Z" fill="#5135FF"/>
<path d="M28.3227 28.356L25.6174 25.6507C24.4127 26.507 22.9302 26.8796 21.4638 26.6944C19.9973 26.5093 18.6539 25.78 17.6998 24.6511C16.7457 23.5222 16.2506 22.0761 16.3124 20.5993C16.3743 19.1225 16.9887 17.7229 18.0338 16.6777C19.079 15.6326 20.4786 15.0182 21.9554 14.9563C23.4322 14.8945 24.8783 15.3897 26.0072 16.3438C27.1361 17.2979 27.8654 18.6412 28.0505 20.1077C28.2356 21.5741 27.8631 23.0566 27.0068 24.2613L29.712 26.9666C29.8033 27.0578 29.8756 27.1661 29.925 27.2853C29.9744 27.4045 29.9998 27.5323 29.9998 27.6613C29.9998 27.7903 29.9744 27.918 29.925 28.0372C29.8756 28.1564 29.8033 28.2647 29.712 28.356C29.6208 28.4472 29.5125 28.5195 29.3933 28.5689C29.2741 28.6183 29.1464 28.6437 29.0174 28.6437C28.8883 28.6437 28.7606 28.6183 28.6414 28.5689C28.5222 28.5195 28.4139 28.4472 28.3227 28.356ZM18.2742 20.8496C18.2748 21.6265 18.5056 22.3858 18.9376 23.0316C19.3695 23.6774 19.9832 24.1806 20.7011 24.4777C21.419 24.7748 22.2088 24.8525 22.9708 24.7009C23.7328 24.5492 24.4327 24.1751 24.9821 23.6258C25.5316 23.0765 25.9059 22.3766 26.0577 21.6147C26.2095 20.8527 26.132 20.0629 25.8351 19.3449C25.5381 18.627 25.035 18.0132 24.3893 17.5811C23.7437 17.149 22.9844 16.918 22.2075 16.9172C21.6909 16.9168 21.1793 17.0182 20.7019 17.2156C20.2246 17.413 19.7908 17.7026 19.4255 18.0679C19.0602 18.4331 18.7705 18.8668 18.5729 19.3441C18.3754 19.8214 18.2739 20.333 18.2742 20.8496Z" fill="#5135FF"/>
<path d="M22.1197 21.65L20.6025 20.1327C20.3694 19.8997 19.9918 19.8995 19.7589 20.1324C19.526 20.3653 19.5262 20.743 19.7592 20.976L21.2765 22.4933C21.5095 22.7263 21.8872 22.7264 22.1201 22.4936C22.3529 22.2607 22.3528 21.883 22.1197 21.65Z" fill="#5135FF"/>
<path d="M23.807 19.1196L21.2766 21.6501C21.0439 21.8828 21.0438 22.2606 21.2765 22.4933C21.5095 22.7263 21.8872 22.7264 22.1201 22.4936L24.6503 19.9629C24.883 19.7302 24.8824 19.3523 24.6497 19.1196C24.417 18.887 24.0397 18.887 23.807 19.1196Z" fill="#5135FF"/>
</svg>
