<svg width="32" height="32" viewBox="0 0 32 32" fill="none" xmlns="http://www.w3.org/2000/svg">
<circle cx="16" cy="16" r="14" fill="#5135FF"/>
<path d="M12.5484 9.3366C12.7794 9.15539 13.4261 8.26744 14.7351 8.2312C16.044 8.19496 17.6918 9.69903 17.7841 11.7468C17.8765 13.7945 16.814 14.5375 16.583 14.8093C16.352 15.0811 15.3973 15.516 15.1047 14.5193C15.1355 14.5193 14.0883 15.4254 15.1047 16.3496C16.121 17.2738 17.8303 16.2409 18.6003 14.9724C19.3703 13.7039 20.5714 10.4783 17.6456 7.92313C16.0594 6.67276 13.5416 7.19375 12.4329 9.24147C12.4213 9.40909 12.5445 9.32301 12.5484 9.3366Z" fill="white"/>
<path opacity="0.75" d="M15.9344 24.7319C15.8691 24.7319 15.8024 24.7305 15.7362 24.7277C15.7274 24.7279 15.7183 24.728 15.7091 24.728C15.4734 24.728 15.168 24.6595 14.8492 24.5349C14.6654 24.4627 14.4857 24.3766 14.3114 24.2771C14.116 24.1657 13.9273 24.0388 13.7466 23.8972C14.0308 23.9989 14.3263 24.0497 14.6234 24.0482C14.6983 24.0482 14.7752 24.0451 14.8522 24.0391C16.2874 23.9268 17.0892 23.0393 17.5093 22.3146C17.7016 21.98 17.8561 21.6175 17.9688 21.236C18.0167 21.0785 18.0548 20.9171 18.083 20.7531H18.081C18.0897 20.7299 18.0987 20.7055 18.1076 20.6806C18.6397 19.1903 17.9762 17.0063 16.7422 16.1865C16.0847 15.7496 15.5558 15.5397 15.228 15.4405C14.8731 15.3331 14.6705 15.3288 14.6685 15.3288V15.3285C14.6701 15.2642 14.679 15.2004 14.695 15.1388C14.7114 15.0728 14.734 15.0091 14.7625 14.949C14.799 14.872 14.8441 14.8011 14.8967 14.7382C15.0184 14.5977 15.1658 14.4917 15.3276 14.4284C15.5421 14.3385 15.805 14.293 16.1092 14.293C16.187 14.293 16.2688 14.296 16.3522 14.3019C16.5745 14.319 16.7949 14.3619 17.0101 14.4301C17.2416 14.503 17.4674 14.5987 17.6852 14.7162C17.9147 14.8397 18.1358 14.9841 18.3463 15.1481C18.5638 15.3174 18.7698 15.5066 18.9622 15.7138C19.1583 15.9247 19.339 16.1547 19.5024 16.4013C19.6675 16.6506 19.8125 16.9175 19.9354 17.1986C20.1914 17.7795 20.3351 18.4199 20.356 19.0738C20.3779 19.8304 20.2796 20.5851 20.066 21.2991C19.9581 21.6602 19.8193 22.0075 19.6519 22.3357C19.4835 22.6659 19.284 22.9727 19.0572 23.2504C18.6811 23.7107 18.2294 24.0763 17.7295 24.325C17.1874 24.595 16.5834 24.7319 15.9344 24.7319Z" fill="white"/>
<path opacity="0.45" d="M13.7466 23.8972C12.6983 23.0753 11.684 21.5713 11.6603 19.0738C11.6193 14.7367 11.6603 13.0454 11.6603 13.0454C11.851 13.2087 11.9828 13.45 12.0299 13.7219C12.1018 14.1689 12.8204 14.9542 13.0771 15.0388C13.0976 15.0146 13.0771 19.4845 13.0771 19.4845C13.0771 19.4845 12.9847 21.6712 14.6683 22.384C16.3235 23.0847 17.5521 22.1507 18.0808 20.753H18.0828C18.0828 20.753 17.6301 23.8216 14.8521 24.039C14.7741 24.0451 14.6981 24.0481 14.6233 24.0481C14.3263 24.05 14.0307 23.9991 13.7466 23.8972Z" fill="white"/>
</svg>
