<svg width="32" height="32" viewBox="0 0 32 32" fill="none" xmlns="http://www.w3.org/2000/svg">
<path fill-rule="evenodd" clip-rule="evenodd" d="M10 2C10.2652 2 10.5196 2.10536 10.7071 2.29289C10.8946 2.48043 11 2.73478 11 3V5H15V3C15 2.73478 15.1054 2.48043 15.2929 2.29289C15.4804 2.10536 15.7348 2 16 2C16.2652 2 16.5196 2.10536 16.7071 2.29289C16.8946 2.48043 17 2.73478 17 3V5H21V3C21 2.73478 21.1054 2.48043 21.2929 2.29289C21.4804 2.10536 21.7348 2 22 2C22.2652 2 22.5196 2.10536 22.7071 2.29289C22.8946 2.48043 23 2.73478 23 3V5C24.0609 5 25.0783 5.42143 25.8284 6.17157C26.5786 6.92172 27 7.93913 27 9H29C29.2652 9 29.5196 9.10536 29.7071 9.29289C29.8946 9.48043 30 9.73478 30 10C30 10.2652 29.8946 10.5196 29.7071 10.7071C29.5196 10.8946 29.2652 11 29 11H27V15H29C29.2652 15 29.5196 15.1054 29.7071 15.2929C29.8946 15.4804 30 15.7348 30 16C30 16.2652 29.8946 16.5196 29.7071 16.7071C29.5196 16.8946 29.2652 17 29 17H27V21H29C29.2652 21 29.5196 21.1054 29.7071 21.2929C29.8946 21.4804 30 21.7348 30 22C30 22.2652 29.8946 22.5196 29.7071 22.7071C29.5196 22.8946 29.2652 23 29 23H27C27 24.0609 26.5786 25.0783 25.8284 25.8284C25.0783 26.5786 24.0609 27 23 27V29C23 29.2652 22.8946 29.5196 22.7071 29.7071C22.5196 29.8946 22.2652 30 22 30C21.7348 30 21.4804 29.8946 21.2929 29.7071C21.1054 29.5196 21 29.2652 21 29V27H17V29C17 29.2652 16.8946 29.5196 16.7071 29.7071C16.5196 29.8946 16.2652 30 16 30C15.7348 30 15.4804 29.8946 15.2929 29.7071C15.1054 29.5196 15 29.2652 15 29V27H11V29C11 29.2652 10.8946 29.5196 10.7071 29.7071C10.5196 29.8946 10.2652 30 10 30C9.73478 30 9.48043 29.8946 9.29289 29.7071C9.10536 29.5196 9 29.2652 9 29V27C7.93913 27 6.92172 26.5786 6.17157 25.8284C5.42143 25.0783 5 24.0609 5 23H3C2.73478 23 2.48043 22.8946 2.29289 22.7071C2.10536 22.5196 2 22.2652 2 22C2 21.7348 2.10536 21.4804 2.29289 21.2929C2.48043 21.1054 2.73478 21 3 21H5V17H3C2.73478 17 2.48043 16.8946 2.29289 16.7071C2.10536 16.5196 2 16.2652 2 16C2 15.7348 2.10536 15.4804 2.29289 15.2929C2.48043 15.1054 2.73478 15 3 15H5V11H3C2.73478 11 2.48043 10.8946 2.29289 10.7071C2.10536 10.5196 2 10.2652 2 10C2 9.73478 2.10536 9.48043 2.29289 9.29289C2.48043 9.10536 2.73478 9 3 9H5C5 7.93913 5.42143 6.92172 6.17157 6.17157C6.92172 5.42143 7.93913 5 9 5V3C9 2.73478 9.10536 2.48043 9.29289 2.29289C9.48043 2.10536 9.73478 2 10 2ZM11 9C10.4696 9 9.96086 9.21071 9.58579 9.58579C9.21071 9.96086 9 10.4696 9 11V21C9 21.5304 9.21071 22.0391 9.58579 22.4142C9.96086 22.7893 10.4696 23 11 23H21C21.5304 23 22.0391 22.7893 22.4142 22.4142C22.7893 22.0391 23 21.5304 23 21V11C23 10.4696 22.7893 9.96086 22.4142 9.58579C22.0391 9.21071 21.5304 9 21 9H11Z" fill="#5135FF"/>
<path d="M13 18.7521L13.7717 17.5598V17.5578C14.3262 18.047 15.0413 18.3157 15.7807 18.3111C16.6619 18.3111 17.071 18.082 17.071 17.5782C17.071 17.1548 16.4548 16.9577 15.744 16.7309H15.7379L15.7364 16.7304C14.6432 16.3803 13.2756 15.9423 13.2756 14.4994C13.27 13.9225 13.4918 13.3672 13.8942 12.9539C14.2966 12.5405 14.8466 12.3023 15.4234 12.2924V11H16.5729V12.2924C17.3798 12.4012 18.1331 12.7639 18.7207 13.3275L17.8448 14.381C17.3468 13.9506 16.7162 13.7042 16.0584 13.6827C15.3413 13.6827 14.9641 13.9242 14.9641 14.381C14.9641 14.7979 15.5685 14.9843 16.2763 15.2026L16.2932 15.2078L16.3079 15.2124C17.4009 15.5545 18.7595 15.9797 18.7595 17.421C18.7522 18.0064 18.5227 18.5675 18.1164 18.989C17.71 19.4105 17.1577 19.6606 16.5729 19.6893V21H15.4234V19.7281C14.5332 19.6654 13.685 19.3242 13 18.7521Z" fill="#5135FF"/>
</svg>
