<svg width="32" height="32" viewBox="0 0 32 32" fill="none" xmlns="http://www.w3.org/2000/svg">
<path opacity="0.45" d="M24.6191 19.6128H24.3358C23.7636 17.859 22.6651 16.3331 21.1957 15.2513C19.7264 14.1694 17.9606 13.5864 16.1484 13.5847C14.3362 13.583 12.5694 14.1628 11.0981 15.242C9.62681 16.3211 8.52559 17.845 7.95032 19.5978C6.46096 19.5028 5.0431 18.9128 3.9137 17.9179C2.84654 16.9859 2.16946 15.6727 2.02133 14.2476C1.95759 13.5247 2.03706 12.7961 2.25501 12.1051C2.47295 11.4141 2.82492 10.7748 3.28998 10.2254C3.87212 9.54569 4.58049 8.99032 5.3742 8.59135C6.16791 8.19238 7.03124 7.95771 7.91434 7.9009C8.64066 6.19429 9.82918 4.7344 11.3404 3.69257C12.8516 2.65073 14.6228 2.07019 16.4462 2.01906C16.6455 2.00777 16.853 1.9993 17.0726 1.9993C19.4789 1.98163 21.8158 2.82066 23.6807 4.3718C24.5546 5.08568 25.2768 5.97359 25.8033 6.98143C26.3297 7.98926 26.6495 9.0959 26.743 10.2339C27.6706 10.5564 28.4796 11.1602 29.0616 11.9644C29.6437 12.7687 29.971 13.735 30 14.7342C29.9926 17.4238 27.5789 19.6128 24.6191 19.6128Z" fill="#5135FF"/>
<path d="M15.0988 26.6194C15.0216 26.5875 14.957 26.5306 14.9148 26.4574C14.8726 26.3843 14.8552 26.299 14.8653 26.2147L15.2529 23.1148H14.0534C13.9895 23.1139 13.9269 23.0961 13.8717 23.0631C13.8166 23.0301 13.7707 22.983 13.7388 22.9265C13.7044 22.8705 13.6851 22.8062 13.6828 22.7401C13.6806 22.674 13.6954 22.6085 13.7259 22.5501L15.3451 19.3701C15.3762 19.3067 15.4242 19.2536 15.4837 19.2168C15.5431 19.18 15.6115 19.161 15.681 19.1622H18.2183C18.2833 19.1631 18.3471 19.1809 18.4035 19.2138C18.46 19.2467 18.5074 19.2937 18.5412 19.3504C18.5749 19.4069 18.5934 19.4714 18.5948 19.5375C18.5963 19.6035 18.5807 19.6688 18.5495 19.7268L17.53 21.6382H18.2183C18.2878 21.6371 18.3562 21.656 18.4156 21.6928C18.475 21.7296 18.523 21.7828 18.5541 21.8462C18.5851 21.9091 18.5988 21.9796 18.5936 22.0498C18.5884 22.1201 18.5645 22.1877 18.5246 22.2452L15.5407 26.4848C15.492 26.5539 15.4222 26.6046 15.3423 26.629C15.2623 26.6533 15.1767 26.65 15.0988 26.6194Z" fill="#5135FF"/>
<g opacity="0.75">
<path d="M9.33102 23.7368L7.50323 21.8734C7.41675 21.7852 7.36816 21.6655 7.36816 21.5407C7.36816 21.416 7.41675 21.2963 7.50323 21.208L7.67762 21.0302C7.76413 20.942 7.88145 20.8924 8.00378 20.8924C8.1261 20.8924 8.24342 20.942 8.32994 21.0302L9.13449 21.8518C9.29557 20.0551 10.1025 18.3828 11.4 17.1567C12.6975 15.9306 14.3938 15.2373 16.1624 15.2104C17.4299 15.2122 18.6724 15.5704 19.7534 16.2457C20.8108 16.9071 21.6837 17.835 22.2879 18.94C22.3613 19.0729 22.38 19.2301 22.3397 19.3771C22.2995 19.524 22.2037 19.6486 22.0734 19.7235C21.9431 19.7983 21.7889 19.8174 21.6449 19.7763C21.5009 19.7353 21.3787 19.6376 21.3053 19.5047C20.7995 18.5614 20.0564 17.7726 19.1525 17.2196C18.2485 16.6667 17.2164 16.3694 16.1624 16.3586C14.7109 16.3844 13.3173 16.9435 12.2376 17.9333C11.1579 18.9231 10.4646 20.277 10.285 21.7464L10.9881 21.0292C11.0746 20.941 11.1919 20.8915 11.3143 20.8915C11.4366 20.8915 11.5539 20.941 11.6404 21.0292L11.8148 21.2071C11.9013 21.2953 11.9499 21.415 11.9499 21.5398C11.9499 21.6646 11.9013 21.7842 11.8148 21.8725L9.98426 23.7358C9.89775 23.824 9.78043 23.8736 9.6581 23.8736C9.53577 23.8736 9.41845 23.824 9.33194 23.7358L9.33102 23.7368Z" fill="#5135FF"/>
<path d="M23.0534 21.4725L24.8802 23.3359C24.9667 23.4241 25.0153 23.5438 25.0153 23.6685C25.0153 23.7933 24.9667 23.913 24.8802 24.0012L24.7059 24.1791C24.6193 24.2673 24.502 24.3169 24.3797 24.3169C24.2574 24.3169 24.14 24.2673 24.0535 24.1791L23.249 23.3584C23.0875 25.1548 22.2804 26.8268 20.9829 28.0527C19.6855 29.2786 17.9895 29.9717 16.2211 29.9988C14.9536 29.9969 13.7111 29.6387 12.6301 28.9636C11.5726 28.3021 10.6998 27.3743 10.0956 26.2693C10.0222 26.1362 10.0036 25.9789 10.0439 25.8319C10.0842 25.6849 10.1801 25.5602 10.3105 25.4853C10.441 25.4104 10.5952 25.3915 10.7394 25.4326C10.8835 25.4737 11.0057 25.5716 11.0791 25.7046C11.5848 26.6478 12.3277 27.4364 13.2315 27.9894C14.1353 28.5424 15.1672 28.8397 16.2211 28.8507C17.6726 28.8249 19.0662 28.2657 20.1459 27.276C21.2256 26.2862 21.9189 24.9323 22.0984 23.4629L21.3954 24.18C21.3088 24.2682 21.1915 24.3178 21.0692 24.3178C20.9469 24.3178 20.8295 24.2682 20.743 24.18L20.5687 24.0022C20.4822 23.9139 20.4336 23.7943 20.4336 23.6695C20.4336 23.5447 20.4822 23.425 20.5687 23.3368L22.4001 21.4734C22.4866 21.3852 22.604 21.3357 22.7263 21.3357C22.8486 21.3357 22.9659 21.3852 23.0524 21.4734L23.0534 21.4725Z" fill="#5135FF"/>
</g>
</svg>
