<svg width="32" height="32" viewBox="0 0 32 32" fill="none" xmlns="http://www.w3.org/2000/svg">
<path d="M26.0631 6.29368C26.0631 8.1513 21.4149 9.65718 15.6814 9.65718C9.94794 9.65718 5.2998 8.1513 5.2998 6.29368C5.2998 4.43605 9.94794 2.93018 15.6814 2.93018C21.4149 2.93018 26.0631 4.43518 26.0631 6.29368Z" fill="#5135FF"/>
<path d="M26.9211 28.3884L25.8105 28.8635C25.73 28.8961 25.6412 28.9023 25.557 28.8811C25.4728 28.8598 25.3975 28.8123 25.3421 28.7454L24.5294 27.7207C24.0679 27.7374 23.8687 27.7374 23.4326 27.7391H23.3688L22.5736 28.7891C22.5355 28.8448 22.4821 28.8883 22.4198 28.9142C22.3201 28.9549 22.2084 28.9549 22.1087 28.9142L20.9919 28.4627C20.9093 28.4328 20.8396 28.3754 20.7943 28.3C20.7491 28.2246 20.7313 28.1359 20.7437 28.0489L20.894 26.7425C20.5742 26.4126 20.423 26.2656 20.1198 25.9742L20.0674 25.9252L18.7714 26.1002C18.6848 26.1142 18.596 26.0981 18.5197 26.0547C18.4434 26.0112 18.3842 25.943 18.3519 25.8614L17.8774 24.7492C17.845 24.6687 17.8388 24.5799 17.8599 24.4957C17.8809 24.4114 17.928 24.336 17.9945 24.2802L19.0196 23.4674C19.0021 23.0071 19.0012 22.7962 18.9995 22.3754V22.3045L17.9508 21.5082C17.8803 21.4564 17.8294 21.3821 17.8066 21.2975C17.7837 21.213 17.7902 21.1231 17.825 21.0427L18.2724 19.9262C18.2894 19.877 18.3165 19.832 18.352 19.794C18.3876 19.756 18.4307 19.7259 18.4786 19.7057C18.5433 19.6792 18.6138 19.6699 18.6831 19.6786L19.9887 19.8282C20.3199 19.508 20.458 19.3636 20.7612 19.0486L20.8049 19.0022L20.6301 17.7029C20.6165 17.6161 20.6328 17.5274 20.6763 17.4512C20.7198 17.375 20.788 17.3159 20.8696 17.2837L21.9803 16.8077C22.061 16.7745 22.1502 16.7678 22.235 16.7885C22.3198 16.8093 22.3958 16.8565 22.4522 16.9232L23.264 17.9505C23.7228 17.9339 23.9334 17.933 24.3546 17.9312H24.4262L25.2197 16.8812C25.2582 16.825 25.3123 16.7812 25.3753 16.7552C25.4246 16.7348 25.4774 16.7242 25.5308 16.7242C25.5842 16.7242 25.637 16.7348 25.6864 16.7552L26.8006 17.2032C26.8829 17.2335 26.9523 17.2911 26.9975 17.3664C27.0426 17.4417 27.0607 17.5301 27.0487 17.6171L26.9037 18.9252C27.2279 19.2612 27.3747 19.403 27.6954 19.7127L27.7277 19.7451L29.0228 19.5701C29.1091 19.5609 29.1961 19.5793 29.2713 19.6227C29.3465 19.6661 29.4061 19.7322 29.4414 19.8116L29.9159 20.9246C29.9485 21.0052 29.9547 21.0941 29.9335 21.1784C29.9123 21.2627 29.8648 21.3381 29.7979 21.3936L28.7729 22.2074C28.7912 22.679 28.7921 22.8864 28.793 23.337V23.3702L29.8416 24.1647C29.9123 24.2167 29.9632 24.2911 29.9862 24.3758C30.0092 24.4605 30.0029 24.5505 29.9683 24.6311L29.5209 25.7476C29.5039 25.7968 29.4767 25.8418 29.4412 25.8798C29.4056 25.9178 29.3626 25.9478 29.3147 25.9681C29.2501 25.995 29.1796 26.0044 29.1102 25.9952L27.8046 25.8447C27.4752 26.1641 27.3284 26.3164 27.0374 26.62L26.9876 26.6707L27.1623 27.9684C27.1761 28.056 27.1595 28.1457 27.1153 28.2226C27.0711 28.2995 27.002 28.3589 26.9194 28.391M23.042 20.9334C22.6665 21.0929 22.3467 21.3604 22.123 21.7019C21.8993 22.0435 21.7817 22.4438 21.7853 22.8522C21.7888 23.2606 21.9132 23.6588 22.1428 23.9965C22.3724 24.3341 22.6968 24.596 23.075 24.749C23.4532 24.902 23.8683 24.9392 24.2676 24.856C24.667 24.7728 25.0328 24.5729 25.3187 24.2816C25.6045 23.9902 25.7977 23.6205 25.8737 23.2192C25.9498 22.8179 25.9052 22.4031 25.7458 22.0271C25.5313 21.5242 25.1265 21.1269 24.62 20.9224C24.1135 20.7179 23.5467 20.7227 23.0438 20.936" fill="#5135FF"/>
<g opacity="0.45">
<path d="M15.6824 24.8769C14.8216 24.8769 13.9775 24.8437 13.1744 24.778L13.0512 24.6538C13.4227 23.8361 13.6146 22.9481 13.6139 22.0498C13.6138 21.5327 13.5504 21.0176 13.4252 20.5159C14.1671 20.571 14.9247 20.5964 15.6815 20.5964C16.0555 20.5964 16.4558 20.5885 16.9408 20.5719L16.9041 20.6594C16.7858 20.9456 16.7661 21.263 16.8483 21.5616C16.9304 21.8602 17.1097 22.1228 17.3576 22.3079L18.006 22.8014C18.006 22.8635 18.006 22.9318 18.006 22.9992L17.3795 23.4962L17.3532 23.5145C17.1632 23.6762 17.0191 23.8851 16.9355 24.1203C16.8519 24.3555 16.8317 24.6087 16.877 24.8542C16.489 24.869 16.0861 24.8769 15.6824 24.8769ZM15.6824 19.4055C14.7543 19.4055 13.8473 19.3662 12.9804 19.29C12.2826 17.8469 11.0621 16.724 9.56703 16.1497C9.56308 15.8987 9.46951 15.6575 9.30327 15.4697C9.13704 15.2819 8.90912 15.16 8.66082 15.1259C8.48041 15.1399 8.30814 15.2069 8.16559 15.3185C8.02304 15.4301 7.91656 15.5814 7.85948 15.7533C7.67072 15.7349 7.4872 15.727 7.2967 15.727C6.61914 15.7262 5.94594 15.8355 5.30339 16.0508V11.7633C5.30339 12.661 6.38438 13.5054 8.3471 14.1424C10.7294 14.837 13.2024 15.1694 15.6833 15.1285C21.4089 15.1285 26.0666 13.62 26.0666 11.7642V15.8312C25.8986 15.7625 25.7185 15.7282 25.5371 15.7305C25.3512 15.7306 25.1671 15.7672 24.9953 15.8382C24.7655 15.934 24.5667 16.0918 24.4211 16.294L23.9318 16.9363H23.8391C23.8059 16.9363 23.7727 16.9363 23.7386 16.9363L23.2388 16.3028L23.2196 16.28C23.0873 16.1236 22.9227 15.9977 22.7371 15.9112C22.5515 15.8246 22.3494 15.7794 22.1447 15.7787C21.9605 15.7794 21.7782 15.815 21.6073 15.8837L20.4922 16.3623C20.2059 16.4784 19.9668 16.6873 19.813 16.9555C19.6592 17.2237 19.5996 17.5358 19.6437 17.8419L19.7555 18.6548C19.7241 18.6898 19.6935 18.7204 19.6638 18.7519L19.6332 18.7808L18.803 18.6933C18.745 18.6866 18.6866 18.6831 18.6282 18.6828C18.4485 18.6819 18.2704 18.7164 18.1039 18.7843L18.0934 18.793C17.8198 18.9048 17.5908 19.1042 17.4424 19.36C16.8578 19.3872 16.2653 19.4055 15.6824 19.4055ZM15.6824 13.9394C9.95677 13.9394 5.29815 12.4292 5.29815 10.5733V6.29541C5.29815 7.19141 6.38088 8.03491 8.34273 8.67103C10.7267 9.36498 13.201 9.69738 15.6833 9.65716C21.4089 9.65716 26.0666 8.14866 26.0666 6.29541V10.5733C26.0614 12.4292 21.4045 13.9394 15.6824 13.9394ZM8.65645 9.65716C8.15222 9.65716 7.74063 10.2058 7.74063 10.8822C7.74063 11.5585 8.15135 12.1072 8.65645 12.1072C9.16155 12.1072 9.57489 11.5585 9.57489 10.8822C9.57489 10.2058 9.1633 9.65716 8.65645 9.65716Z" fill="#5135FF"/>
<path d="M13.9608 27.0566L11.7526 24.8472C12.4408 23.7459 12.6998 22.4295 12.4802 21.1491C12.2606 19.8688 11.5778 18.7143 10.562 17.9061C9.5463 17.0978 8.26884 16.6925 6.97359 16.7675C5.67834 16.8425 4.45604 17.3925 3.54008 18.3125C2.62411 19.2325 2.07866 20.4581 2.00787 21.7553C1.93708 23.0524 2.3459 24.3303 3.15629 25.3448C3.96667 26.3593 5.12184 27.0394 6.40122 27.2552C7.6806 27.4711 8.99456 27.2075 10.0922 26.5149L12.2944 28.7243C12.4037 28.8339 12.5336 28.9208 12.6765 28.9801C12.8194 29.0394 12.9726 29.07 13.1273 29.07C13.282 29.0701 13.4352 29.0396 13.5782 28.9804C13.7211 28.9211 13.851 28.8343 13.9604 28.7247C14.0698 28.6152 14.1566 28.4852 14.2159 28.3421C14.2751 28.199 14.3056 28.0457 14.3057 27.8907C14.3057 27.7358 14.2753 27.5824 14.2161 27.4393C14.157 27.2962 14.0702 27.1661 13.9608 27.0566ZM4.3893 22.0524C4.3893 21.4766 4.55984 20.9138 4.87935 20.435C5.19885 19.9563 5.65297 19.5831 6.18428 19.3628C6.71558 19.1425 7.30021 19.0849 7.86421 19.1973C8.42821 19.3097 8.94625 19.5871 9.35282 19.9943C9.75939 20.4015 10.0362 20.9203 10.1483 21.485C10.2604 22.0498 10.2027 22.6352 9.9825 23.1671C9.76231 23.699 9.38953 24.1536 8.9113 24.4734C8.43307 24.7931 7.87087 24.9637 7.29581 24.9636C6.52501 24.9626 5.78604 24.6556 5.241 24.1099C4.69596 23.5641 4.39023 22.8242 4.3893 22.0524Z" fill="#5135FF"/>
</g>
</svg>
