<svg width="32" height="32" viewBox="0 0 32 32" fill="none" xmlns="http://www.w3.org/2000/svg">
<path d="M19.4999 29.1248V27.3205C17.9587 27.1236 16.5264 26.4207 15.4277 25.322C14.3291 24.2234 13.6261 22.7911 13.4292 21.2499H11.625C11.3929 21.2499 11.1704 21.1577 11.0063 20.9936C10.8422 20.8295 10.75 20.6069 10.75 20.3749C10.75 20.1428 10.8422 19.9203 11.0063 19.7562C11.1704 19.5921 11.3929 19.4999 11.625 19.4999H13.4283C13.6246 17.9582 14.3273 16.5253 15.4263 15.4263C16.5253 14.3273 17.9582 13.6246 19.4999 13.4283V11.625C19.4999 11.3929 19.5921 11.1704 19.7562 11.0063C19.9203 10.8422 20.1428 10.75 20.3749 10.75C20.6069 10.75 20.8295 10.8422 20.9936 11.0063C21.1577 11.1704 21.2499 11.3929 21.2499 11.625V13.4283C22.7913 13.6252 24.2237 14.3282 25.3224 15.427C26.4211 16.5259 27.1239 17.9585 27.3205 19.4999H29.1248C29.3568 19.4999 29.5794 19.5921 29.7435 19.7562C29.9076 19.9203 29.9998 20.1428 29.9998 20.3749C29.9998 20.6069 29.9076 20.8295 29.7435 20.9936C29.5794 21.1577 29.3568 21.2499 29.1248 21.2499H27.3197C27.1223 22.7907 26.4194 24.2225 25.3209 25.3209C24.2225 26.4194 22.7907 27.1223 21.2499 27.3197V29.1248C21.2499 29.3568 21.1577 29.5794 20.9936 29.7435C20.8295 29.9076 20.6069 29.9998 20.3749 29.9998C20.1428 29.9998 19.9203 29.9076 19.7562 29.7435C19.5921 29.5794 19.4999 29.3568 19.4999 29.1248ZM15.9999 20.3749C15.9999 21.2402 16.2565 22.086 16.7372 22.8055C17.218 23.5249 17.9012 24.0857 18.7007 24.4168C19.5001 24.7479 20.3797 24.8346 21.2284 24.6658C22.077 24.497 22.8566 24.0803 23.4684 23.4684C24.0803 22.8566 24.497 22.077 24.6658 21.2284C24.8346 20.3797 24.7479 19.5001 24.4168 18.7007C24.0857 17.9012 23.5249 17.218 22.8055 16.7372C22.086 16.2565 21.2402 15.9999 20.3749 15.9999C19.2146 15.9999 18.1018 16.4609 17.2813 17.2813C16.4609 18.1018 15.9999 19.2146 15.9999 20.3749Z" fill="#5135FF"/>
<path opacity="0.45" d="M13.3805 28.2497C13.3104 28.2498 13.2409 28.2367 13.1757 28.2112L11.2682 27.4613C9.70558 26.8433 8.26157 25.9596 7.00004 24.8495C5.67225 23.6777 4.62551 22.2218 3.93758 20.59L3.54996 19.6748C3.07781 18.5593 2.7457 17.3895 2.56122 16.1923C2.18606 13.7392 1.99857 11.2611 2.00035 8.77942V7.71981C1.99465 7.47801 2.05881 7.23969 2.18514 7.03344C2.31147 6.82718 2.4946 6.66174 2.71259 6.55695L13.1538 2.04463C13.2238 2.01492 13.2992 1.99974 13.3752 2C13.4515 1.99989 13.5271 2.01506 13.5975 2.04463L24.0387 6.55695C24.2565 6.66257 24.4394 6.8286 24.5655 7.03523C24.6916 7.24187 24.7557 7.48041 24.7501 7.72243V9.39454C24.7499 11.7801 24.5497 14.1614 24.1516 16.5134C24.0807 16.9308 23.9906 17.3499 23.8812 17.7586C23.4469 17.1767 22.8747 16.712 22.216 16.4065C21.5574 16.1009 20.833 15.9641 20.1083 16.0084C19.3836 16.0526 18.6813 16.2765 18.0647 16.66C17.4481 17.0434 16.9367 17.5742 16.5764 18.2046C16.2162 18.835 16.0186 19.5452 16.0013 20.2711C15.984 20.9969 16.1477 21.7157 16.4775 22.3625C16.8073 23.0094 17.2929 23.5639 17.8906 23.9762C18.4882 24.3886 19.1791 24.6457 19.9009 24.7243C19.8668 24.7558 19.8318 24.7873 19.7976 24.8171L19.7609 24.8477C18.5009 25.9589 17.058 26.8435 15.4962 27.4622L13.5843 28.212C13.5193 28.2371 13.4502 28.2499 13.3805 28.2497Z" fill="#5135FF"/>
</svg>
