<svg width="32" height="32" viewBox="0 0 32 32" fill="none" xmlns="http://www.w3.org/2000/svg">
<g opacity="0.45">
<path d="M28.25 25.4667H3.75V28.1888H28.25V25.4667Z" fill="#5135FF"/>
<path d="M17.3606 19.0757H14.6385V25.4658H17.3606V19.0757Z" fill="#5135FF"/>
</g>
<path d="M13.3194 26.827C13.3194 26.2886 13.4791 25.7623 13.7782 25.3147C14.0773 24.867 14.5025 24.5181 14.9999 24.3121C15.4973 24.1061 16.0446 24.0522 16.5726 24.1572C17.1007 24.2622 17.5857 24.5215 17.9664 24.9022C18.3471 25.2829 18.6064 25.7679 18.7114 26.296C18.8164 26.824 18.7625 27.3713 18.5565 27.8687C18.3505 28.3661 18.0016 28.7913 17.5539 29.0904C17.1063 29.3895 16.58 29.5491 16.0416 29.5491C15.3196 29.5491 14.6272 29.2623 14.1167 28.7519C13.6062 28.2414 13.3194 27.549 13.3194 26.827Z" fill="#5135FF"/>
<path d="M27.0211 22.3155H5.36045C5.25644 22.3079 5.15495 22.2798 5.0618 22.2329C4.96864 22.186 4.88565 22.1212 4.81755 22.0422C4.74945 21.9633 4.69759 21.8716 4.66492 21.7726C4.63226 21.6735 4.61944 21.569 4.6272 21.465V16.3603C4.61944 16.2563 4.63226 16.1518 4.66492 16.0527C4.69759 15.9537 4.74945 15.862 4.81755 15.783C4.88565 15.7041 4.96864 15.6393 5.0618 15.5924C5.15495 15.5455 5.25644 15.5174 5.36045 15.5098H27.0211C27.2307 15.5259 27.4253 15.6245 27.5623 15.7839C27.6993 15.9434 27.7674 16.1506 27.7517 16.3603V21.4641C27.7594 21.5681 27.7466 21.6727 27.714 21.7717C27.6813 21.8707 27.6294 21.9624 27.5613 22.0414C27.4932 22.1204 27.4102 22.1851 27.3171 22.232C27.2239 22.2789 27.1225 22.307 27.0184 22.3146M20.2634 17.8906C19.9979 17.8984 19.7459 18.0094 19.5608 18.1999C19.3757 18.3905 19.2722 18.6457 19.2722 18.9113C19.2722 19.177 19.3757 19.4322 19.5608 19.6227C19.7459 19.8133 19.9979 19.9242 20.2634 19.932H23.0486C23.3141 19.9242 23.5661 19.8133 23.7512 19.6227C23.9363 19.4322 24.0398 19.177 24.0398 18.9113C24.0398 18.6457 23.9363 18.3905 23.7512 18.1999C23.5661 18.0094 23.3141 17.8984 23.0486 17.8906H20.2634Z" fill="#5135FF"/>
<g opacity="0.75">
<path d="M19.0835 11.5506H13.2989V14.4443H19.0835V11.5506Z" fill="#5135FF"/>
<path d="M24.8716 8.65963V6.86675C24.8709 6.57549 24.7549 6.29636 24.549 6.09041C24.343 5.88445 24.0639 5.76844 23.7726 5.76775H21.9789V2.875H19.087V5.76775H13.2997V2.875H10.4123V5.76775H8.61675C8.32565 5.76798 8.04651 5.8836 7.84051 6.08928C7.63451 6.29495 7.51844 6.5739 7.51775 6.865V8.65963H4.625V11.5524H7.51775V14.4451H10.4123V9.99662C10.4127 9.64278 10.5532 9.3035 10.8031 9.05297C11.053 8.80243 11.3919 8.66101 11.7457 8.65963H20.6375C20.9927 8.65916 21.3336 8.79971 21.5853 9.05039C21.8369 9.30108 21.9788 9.64141 21.9797 9.99662V14.4443H24.8725V11.5524H27.7635V8.65963H24.8716Z" fill="#5135FF"/>
</g>
</svg>
