<svg width="32" height="32" viewBox="0 0 32 32" fill="none" xmlns="http://www.w3.org/2000/svg">
<path opacity="0.45" d="M16.007 30C19.081 29.9985 22.0691 28.9852 24.51 27.1166C26.9509 25.2481 28.709 22.6281 29.5128 19.661C30.3167 16.6939 30.1217 13.5447 28.9578 10.6995C27.794 7.85435 25.726 5.4713 23.0732 3.91821C20.4203 2.36512 17.3301 1.72835 14.2793 2.10616C11.2286 2.48398 8.38703 3.85538 6.1932 6.0087C3.99937 8.16202 2.57525 10.9775 2.14064 14.0207C1.70604 17.0639 2.28511 20.1655 3.78849 22.8468L2.18907 29.2454C2.16936 29.3236 2.1703 29.4057 2.19178 29.4835C2.21326 29.5613 2.25455 29.6322 2.31161 29.6892C2.36868 29.7463 2.43958 29.7876 2.51738 29.8091C2.59517 29.8305 2.67721 29.8315 2.75548 29.8118L9.15405 28.2124C11.2464 29.3881 13.6069 30.0039 16.007 30Z" fill="#5135FF"/>
<path d="M9.00342 12.9289C9.01218 12.8047 9.06963 12.6891 9.16325 12.6071C9.25687 12.5251 9.37909 12.4834 9.50329 12.4911H22.5105C22.6347 12.4834 22.757 12.5251 22.8506 12.6071C22.9442 12.6891 23.0016 12.8047 23.0104 12.9289V14.6797C23.0016 14.8039 22.9442 14.9195 22.8506 15.0015C22.757 15.0835 22.6347 15.1251 22.5105 15.1174H9.50329C9.37909 15.1251 9.25687 15.0835 9.16325 15.0015C9.06963 14.9195 9.01218 14.8039 9.00342 14.6797V12.9289Z" fill="#5135FF"/>
<path d="M9.00342 19.0569C9.01218 18.9328 9.06963 18.8171 9.16325 18.7352C9.25687 18.6532 9.37909 18.6115 9.50329 18.6192H22.5105C22.6347 18.6115 22.757 18.6532 22.8506 18.7352C22.9442 18.8171 23.0016 18.9328 23.0104 19.0569V20.8078C23.0016 20.9319 22.9442 21.0476 22.8506 21.1295C22.757 21.2115 22.6347 21.2532 22.5105 21.2455H9.50329C9.37909 21.2532 9.25687 21.2115 9.16325 21.1295C9.06963 21.0476 9.01218 20.9319 9.00342 20.8078V19.0569Z" fill="#5135FF"/>
</svg>
