<svg width="32" height="32" viewBox="0 0 32 32" fill="none" xmlns="http://www.w3.org/2000/svg">
<path opacity="0.45" d="M15.1018 31C15.0211 31 14.9411 30.985 14.8658 30.9559L12.6637 30.0962C10.8654 29.3922 9.20171 28.3834 7.74538 27.1141C6.22113 25.7751 5.01866 24.1086 4.22776 22.2391L3.64633 20.8881C3.20027 19.8291 2.87884 18.7216 2.68851 17.5881C2.23101 14.9001 2.00081 12.1783 2.00035 9.45156V7.54094C1.99426 7.26335 2.06856 6.98994 2.21427 6.75371C2.35998 6.51748 2.57086 6.32854 2.82147 6.20969L14.8527 1.05344C14.9333 1.01824 15.0203 1.00005 15.1083 1C15.196 1.00023 15.2828 1.01875 15.363 1.05438L27.397 6.21063C27.647 6.32885 27.8574 6.51705 28.0028 6.75248C28.1481 6.9879 28.2223 7.26046 28.2163 7.53719V8.7475C28.2191 11.5861 28.0034 14.4208 27.5712 17.2262C27.485 17.7747 27.3717 18.3213 27.2341 18.8538C27.0461 17.1069 26.3178 15.4626 25.1509 14.1504C23.984 12.8383 22.4369 11.9239 20.7258 11.5352C19.0146 11.1464 17.2249 11.3026 15.6067 11.982C13.9886 12.6614 12.6228 13.83 11.7003 15.3245C10.7777 16.819 10.3445 18.5647 10.4612 20.3178C10.5779 22.0708 11.2387 23.7436 12.3511 25.1023C13.4635 26.461 14.9721 27.4378 16.666 27.8961C18.3599 28.3545 20.1545 28.2715 21.799 27.6588C20.5068 28.6772 19.0712 29.4986 17.5389 30.0962L15.3386 30.9559C15.2631 30.9852 15.1828 31.0001 15.1018 31Z" fill="#5135FF"/>
<path d="M27.6023 30.5001L23.7345 26.6273C22.011 27.8536 19.8903 28.3869 17.7926 28.1213C15.6949 27.8558 13.7735 26.8109 12.409 25.1937C11.0444 23.5765 10.3365 21.505 10.4254 19.3898C10.5144 17.2745 11.3937 15.27 12.8891 13.7733C14.3845 12.2766 16.3869 11.3971 18.4994 11.3091C20.612 11.221 22.6804 11.9309 24.2949 13.2979C25.9094 14.6649 26.952 16.5894 27.2162 18.6899C27.4804 20.7904 26.9468 22.9137 25.7213 24.6388L29.5891 28.5117C29.7195 28.6423 29.8229 28.7973 29.8934 28.968C29.964 29.1386 30.0003 29.3215 30.0002 29.5062C30.0002 29.6909 29.9638 29.8738 29.8932 30.0444C29.8226 30.215 29.7191 30.37 29.5886 30.5006C29.4582 30.6311 29.3033 30.7347 29.1329 30.8053C28.9624 30.876 28.7798 30.9123 28.5953 30.9122C28.4109 30.9122 28.2283 30.8758 28.0579 30.8051C27.8875 30.7343 27.7327 30.6307 27.6023 30.5001ZM13.236 19.7498C13.236 20.8623 13.5654 21.9498 14.1827 22.8749C14.8 23.7999 15.6774 24.5209 16.7039 24.9466C17.7304 25.3723 18.8599 25.4837 19.9496 25.2667C21.0393 25.0497 22.0403 24.5139 22.826 23.7273C23.6116 22.9406 24.1467 21.9383 24.3634 20.8472C24.5802 19.756 24.4689 18.625 24.0437 17.5972C23.6185 16.5694 22.8985 15.6908 21.9747 15.0728C21.0509 14.4547 19.9647 14.1248 18.8537 14.1248C17.3642 14.1263 15.9362 14.7194 14.883 15.7739C13.8298 16.8285 13.2374 18.2584 13.236 19.7498Z" fill="#5135FF"/>
</svg>
