<svg width="32" height="32" viewBox="0 0 32 32" fill="none" xmlns="http://www.w3.org/2000/svg">
<path opacity="0.45" d="M4.69851 21.4801C4.60401 21.4801 4.53314 21.4801 4.46839 21.4757C4.2535 21.4615 4.04015 21.4296 3.83051 21.3803H3.81476L3.70801 21.3576L3.59601 21.3357C3.52292 21.3178 3.4532 21.2883 3.38951 21.2482L3.37989 21.2421C3.3279 21.219 3.28232 21.1836 3.2471 21.1389C3.21188 21.0942 3.18808 21.0417 3.17776 20.9857C3.17619 20.9308 3.18757 20.8763 3.21098 20.8266C3.23439 20.7769 3.26917 20.7334 3.31251 20.6996C3.39294 20.6261 3.47862 20.5585 3.56889 20.4975L3.61264 20.466L3.65376 20.4362C3.70889 20.3986 3.76751 20.3592 3.82351 20.3233C3.87951 20.2875 3.92851 20.2542 3.98714 20.214L3.99676 20.2078C4.04903 20.1753 4.09353 20.1317 4.12714 20.0801C4.00902 20.0954 3.8901 20.1035 3.77101 20.1046C3.47058 20.1221 3.17546 20.0199 2.95026 19.8202C2.92622 19.7979 2.9071 19.7708 2.89414 19.7407C2.88118 19.7105 2.87467 19.678 2.87501 19.6452C2.87489 19.6151 2.88105 19.5853 2.89311 19.5578C2.90516 19.5302 2.92284 19.5054 2.94501 19.4851C3.11431 19.3269 3.30892 19.1983 3.52076 19.1045C4.00219 18.9066 4.51315 18.7901 5.03276 18.7597L5.36439 18.7291L5.52539 18.7151C5.93314 18.6801 6.36626 18.6398 6.78539 18.5882C6.97883 18.5685 7.16612 18.5091 7.33551 18.4137C7.50491 18.3182 7.65275 18.1888 7.76976 18.0335C7.82839 17.9538 7.89051 17.8742 7.94476 17.8033C8.0991 17.617 8.23782 17.4183 8.35951 17.2092C9.27389 15.5353 11.2741 14.3217 14.3043 13.606L14.7759 13.4957C15.6229 13.317 16.4581 13.0861 17.2766 12.8045C18.5576 12.3201 19.6488 11.4366 20.389 10.2845C20.7005 9.79885 21.0015 9.32197 21.3323 8.78735L21.6271 8.31572C22.097 7.49937 22.6956 6.76424 23.3999 6.13872C24.0265 5.62385 24.7868 5.29818 25.5918 5.19985L25.9286 5.14822C26.4904 5.0721 26.9953 4.99947 27.4984 4.90147C27.6437 4.86919 27.7864 4.8262 27.9254 4.77285C28.1198 4.68875 28.3267 4.63731 28.5379 4.6206H28.5493C28.6466 4.61347 28.7441 4.6326 28.8315 4.67601C28.9189 4.71941 28.9931 4.78549 29.0463 4.86735C29.0742 4.93193 29.0936 4.99988 29.104 5.06947C29.1436 5.49614 29.0753 5.92592 28.9055 6.31932C28.7356 6.71271 28.4696 7.0571 28.1319 7.32085C27.9341 7.49585 27.7276 7.6586 27.5273 7.82047L27.4835 7.85547L27.396 7.92635C27.2376 8.0541 27.074 8.18885 26.9174 8.32097C26.523 8.62749 26.2117 9.02788 26.0118 9.4856C25.8623 9.89251 25.749 10.3118 25.6731 10.7386C25.3422 12.4292 24.9228 14.1013 24.4166 15.748C24.2341 15.7677 24.0581 15.8275 23.9013 15.923L23.1916 16.329L23.1558 16.3132L23.14 16.3071C23.0805 16.2826 23.0184 16.2555 22.9571 16.2336L22.7384 15.4461C22.7384 15.4347 22.7331 15.426 22.7296 15.4172C22.649 15.154 22.487 14.9231 22.2669 14.7577C22.0468 14.5923 21.7799 14.5009 21.5046 14.4967H20.3304C20.0456 14.495 19.7683 14.5882 19.5425 14.7618C19.3167 14.9353 19.1551 15.1792 19.0835 15.4548L18.8674 16.2423L18.8158 16.2651C18.7589 16.2887 18.7064 16.3115 18.6486 16.3325L17.9189 15.9151C17.723 15.8013 17.5006 15.741 17.274 15.7401C17.1025 15.7407 16.9329 15.7759 16.7754 15.8435C16.6178 15.9112 16.4755 16.0099 16.357 16.1338L15.5459 16.9458C15.3449 17.1465 15.2162 17.4083 15.1801 17.6901C15.144 17.9718 15.2025 18.2576 15.3464 18.5025L15.7261 19.1753C15.3403 19.115 14.9824 19.066 14.6306 19.0213C13.9093 18.9269 13.1828 18.8775 12.4554 18.8735C11.9847 18.8724 11.5144 18.9016 11.0475 18.961C10.2512 19.0773 9.49592 19.3884 8.84864 19.8666C8.77339 19.9191 8.69901 19.9716 8.62376 20.0258C8.19344 20.3504 7.73519 20.6362 7.25439 20.8798C6.45729 21.2664 5.58437 21.4714 4.69851 21.4801ZM25.6058 6.23147C25.5602 6.2311 25.5146 6.23343 25.4693 6.23847C25.2886 6.24671 25.1148 6.30973 24.9709 6.41913C24.8269 6.52854 24.7197 6.67916 24.6634 6.85097C24.6547 6.8677 24.6497 6.88611 24.6487 6.90494C24.6478 6.92377 24.6509 6.94259 24.6579 6.96011C24.6648 6.97763 24.6755 6.99344 24.6892 7.00647C24.7028 7.0195 24.7191 7.02943 24.7369 7.0356C24.8584 7.09894 24.9937 7.13111 25.1306 7.12922C25.1854 7.12865 25.2401 7.12427 25.2943 7.1161C25.4543 7.09827 25.6034 7.02578 25.7162 6.91085C25.8291 6.79593 25.8988 6.6456 25.9138 6.48522C25.9163 6.45359 25.9123 6.42177 25.9021 6.39173C25.8918 6.36169 25.8755 6.33406 25.8542 6.31054C25.8329 6.28702 25.807 6.2681 25.7781 6.25496C25.7493 6.24181 25.718 6.23471 25.6863 6.2341H25.6793C25.653 6.23147 25.6303 6.23147 25.6058 6.23147Z" fill="#5135FF"/>
<path d="M21.4996 27.5761H20.3271C20.2428 27.5746 20.1611 27.5464 20.094 27.4954C20.0268 27.4444 19.9776 27.3734 19.9534 27.2926L19.6183 26.0676C19.2009 25.9075 19.0224 25.8322 18.6331 25.6669L18.5771 25.6441L17.4693 26.2759C17.4138 26.311 17.3495 26.3295 17.2838 26.3292C17.1794 26.3278 17.0798 26.2854 17.0064 26.2111L16.1822 25.3869C16.1199 25.3287 16.0795 25.2508 16.0679 25.1663C16.0562 25.0819 16.0741 24.996 16.1183 24.9231L16.7492 23.8154C16.5899 23.3997 16.5103 23.2116 16.3511 22.8362L16.3239 22.7724L15.0989 22.4372C15.0162 22.4167 14.9429 22.3686 14.8912 22.3009C14.8395 22.2331 14.8125 22.1497 14.8146 22.0645V20.892C14.8161 20.8077 14.8443 20.726 14.8953 20.6589C14.9463 20.5917 15.0173 20.5425 15.0981 20.5184L16.3231 20.1832C16.4823 19.7676 16.5619 19.5795 16.7212 19.2032L16.7466 19.142L16.1157 18.0325C16.0718 17.9592 16.0542 17.8731 16.0658 17.7885C16.0774 17.7039 16.1175 17.6257 16.1796 17.567L17.0021 16.7445C17.036 16.7073 17.0774 16.6776 17.1235 16.6574C17.1696 16.6372 17.2195 16.6269 17.2698 16.6272C17.3387 16.6273 17.4064 16.6458 17.4658 16.6806L18.5771 17.3115C18.9944 17.1514 19.1729 17.0761 19.5632 16.9107L19.6201 16.8862L19.9552 15.6612C19.9763 15.5792 20.0245 15.5067 20.092 15.4556C20.1596 15.4044 20.2424 15.3776 20.3271 15.3795H21.4996C21.5838 15.3812 21.6653 15.4096 21.7324 15.4605C21.7995 15.5115 21.8488 15.5823 21.8732 15.663L22.2074 16.888C22.6231 17.0472 22.8112 17.1269 23.1874 17.2861L23.2513 17.3132L24.3591 16.6824C24.4149 16.6474 24.4795 16.6289 24.5454 16.629C24.6497 16.6301 24.7494 16.6722 24.8228 16.7462L25.6471 17.5705C25.7094 17.6287 25.7498 17.7065 25.7616 17.7909C25.7734 17.8753 25.7558 17.9612 25.7118 18.0342L25.0801 19.142C25.2419 19.5655 25.3189 19.7466 25.4869 20.1439L25.5044 20.185L26.7294 20.5201C26.8102 20.5442 26.8812 20.5935 26.9322 20.6606C26.9832 20.7278 27.0115 20.8094 27.0129 20.8937V22.0645C27.0115 22.1488 26.9832 22.2304 26.9322 22.2976C26.8812 22.3648 26.8102 22.414 26.7294 22.4381L25.5044 22.7732C25.3408 23.2011 25.2629 23.3857 25.0923 23.7882L25.0801 23.8171L25.7109 24.9249C25.754 24.9981 25.771 25.0838 25.7593 25.168C25.7475 25.2522 25.7077 25.3299 25.6462 25.3886L24.8219 26.2129C24.7879 26.2502 24.7464 26.2801 24.7002 26.3004C24.6539 26.3208 24.6039 26.3312 24.5533 26.331C24.4847 26.3307 24.4174 26.3123 24.3582 26.2776L23.2504 25.6459C22.8348 25.8051 22.6467 25.8847 22.2713 26.044L22.2074 26.0711L21.8732 27.2961C21.8517 27.3781 21.8031 27.4504 21.7352 27.5013C21.6674 27.5521 21.5843 27.5785 21.4996 27.5761ZM20.8766 19.4552C20.4808 19.4544 20.0936 19.5709 19.7641 19.7902C19.4346 20.0095 19.1775 20.3216 19.0255 20.687C18.8734 21.0524 18.8332 21.4547 18.9098 21.843C18.9865 22.2313 19.1767 22.5881 19.4563 22.8683C19.7358 23.1485 20.0922 23.3394 20.4804 23.417C20.8685 23.4945 21.2709 23.4552 21.6366 23.3039C22.0024 23.1526 22.315 22.8963 22.535 22.5672C22.755 22.2382 22.8724 21.8513 22.8724 21.4555C22.8724 20.9257 22.6623 20.4176 22.2881 20.0426C21.914 19.6676 21.4063 19.4564 20.8766 19.4552Z" fill="#5135FF"/>
</svg>
