<svg width="32" height="32" viewBox="0 0 32 32" fill="none" xmlns="http://www.w3.org/2000/svg">
<path opacity="0.4" d="M15.8404 5C11.1686 5 8.3321 8.89321 7.49784 10.8398C6.10741 10.8398 3.10407 11.6741 2.2142 15.0111C1.10185 19.1824 4.66789 21.189 4.9951 21.4071C5.82935 21.9633 5.82932 21.9633 5.82932 21.6852C5.82932 20.2948 5.82932 17.792 7.49784 16.4015C11.6691 12.7864 15.0062 15.8454 15.2843 16.1235C15.5624 16.4015 15.53 16.3649 15.8404 16.1235C18.3432 14.1769 22.1207 14.0256 24.183 16.4015C25.5735 18.0035 25.3 19.0167 25.5 19C25.6504 18.9875 27.2 17.95 28.95 19.35C30.6433 20.7046 30.7 13.0645 25.5735 13.0645C25.2954 9.72747 22.5145 5 15.8404 5Z" fill="#5135FF"/>
<path d="M11.5818 26.452C10.9412 26.452 10.3418 26.3444 9.7835 26.1292C9.22525 25.905 8.73105 25.5733 8.30092 25.1339C7.87994 24.6946 7.54591 24.1566 7.29881 23.5201C7.06087 22.8835 6.94189 22.1527 6.94189 21.3278C6.94189 20.503 7.06544 19.7722 7.31254 19.1356C7.55963 18.4901 7.89825 17.9432 8.32838 17.4949C8.76766 17.0466 9.271 16.7058 9.83841 16.4727C10.415 16.2396 11.0236 16.123 11.6642 16.123C12.3139 16.123 12.8905 16.2531 13.3939 16.5131C13.9063 16.7641 14.6431 17.4007 14.6431 17.4007C14.8872 17.7121 13.9291 19.0005 13.586 18.6649C13.243 18.3294 13.0461 18.2121 12.7349 18.0597C12.4329 17.9073 12.0897 17.8311 11.7054 17.8311C11.1929 17.8311 10.7307 17.9701 10.3189 18.248C9.9162 18.517 9.60047 18.907 9.37167 19.4181C9.14288 19.9291 9.02848 20.5433 9.02848 21.2606C9.02848 21.9869 9.13373 22.61 9.34422 23.13C9.56386 23.6411 9.87044 24.0356 10.264 24.3135C10.6666 24.5915 11.1334 24.7305 11.6642 24.7305C12.1035 24.7305 12.4924 24.6408 12.831 24.4615C13.1756 24.2872 13.2981 24.0684 13.7508 23.7487C14.2034 23.429 15.2562 24.5018 14.8352 24.986C14.4143 25.4702 13.9338 25.8378 13.3939 26.0888C12.8539 26.3309 12.2499 26.452 11.5818 26.452Z" fill="#5135FF"/>
<path d="M19.8778 26.452C18.9809 26.452 18.1893 26.2457 17.5029 25.8333C16.8257 25.4119 16.2949 24.8112 15.9105 24.0311C15.5261 23.2511 15.3339 22.3186 15.3339 21.2337C15.3339 20.1578 15.5261 19.2388 15.9105 18.4766C16.2949 17.7145 16.8257 17.1317 17.5029 16.7283C18.1893 16.3248 18.9809 16.123 19.8778 16.123C20.7838 16.123 21.5754 16.3293 22.2526 16.7417C22.9299 17.1452 23.4607 17.728 23.845 18.4901C24.2294 19.2432 24.4216 20.1578 24.4216 21.2337C24.4216 22.3186 24.2294 23.2511 23.845 24.0311C23.4607 24.8112 22.9299 25.4119 22.2526 25.8333C21.5754 26.2457 20.7838 26.452 19.8778 26.452ZM19.8778 24.7305C20.3811 24.7305 20.8158 24.587 21.1819 24.3001C21.5571 24.0132 21.8454 23.6097 22.0467 23.0897C22.2481 22.5607 22.3487 21.942 22.3487 21.2337C22.3487 20.5254 22.2481 19.9202 22.0467 19.4181C21.8454 18.907 21.5571 18.517 21.1819 18.248C20.8158 17.9701 20.3811 17.8311 19.8778 17.8311C19.3744 17.8311 18.9351 17.9701 18.5599 18.248C18.1939 18.517 17.9101 18.907 17.7088 19.4181C17.5166 19.9202 17.4205 20.5254 17.4205 21.2337C17.4205 21.942 17.5166 22.5607 17.7088 23.0897C17.9101 23.6097 18.1939 24.0132 18.5599 24.3001C18.9351 24.587 19.3744 24.7305 19.8778 24.7305Z" fill="#5135FF"/>
<path fill-rule="evenodd" clip-rule="evenodd" d="M27.0693 19.4664C27.4904 19.4664 27.8677 19.5581 28.1943 19.7476C28.5257 19.9312 28.7846 20.1921 28.9658 20.5259L29.0302 20.6539C29.1686 20.9583 29.2353 21.3028 29.2353 21.6822C29.2352 22.1097 29.1307 22.5417 28.9296 22.9761L28.9306 22.9771C28.7378 23.3996 28.478 23.819 28.1552 24.2359C27.9283 24.5289 27.7013 24.7774 27.455 25.0367H29.33C29.5401 25.0367 29.6814 25.169 29.7597 25.313C29.8359 25.4534 29.8671 25.6258 29.8661 25.7857C29.8651 25.9458 29.832 26.1181 29.7558 26.2574C29.6784 26.3986 29.5385 26.5328 29.33 26.5328C29.1081 26.5328 28.1061 26.5288 27.1396 26.5269C26.6558 26.526 26.18 26.5262 25.8144 26.5269C25.6316 26.5273 25.476 26.5278 25.3613 26.5289C25.3043 26.5294 25.2575 26.5301 25.2226 26.5308C25.2051 26.5312 25.1903 26.5314 25.1796 26.5318C25.1745 26.532 25.1699 26.5316 25.1669 26.5318C25.1644 26.532 25.163 26.5328 25.163 26.5328C25.0674 26.5407 24.9914 26.4974 24.9433 26.4488C24.8988 26.4038 24.8711 26.3491 24.8534 26.3033C24.8177 26.2101 24.8018 26.0958 24.7997 25.9908C24.7977 25.8852 24.8095 25.7686 24.8417 25.6675C24.8661 25.5915 24.9191 25.474 25.0312 25.4136C25.5858 24.8946 26.0585 24.415 26.4472 23.9732L26.4482 23.9722L26.7284 23.6441C26.9899 23.3236 27.1964 23.0234 27.3495 22.7447C27.5521 22.3702 27.6453 22.0377 27.6454 21.7447C27.6454 21.603 27.6275 21.4792 27.5937 21.3726L27.5546 21.2711C27.4973 21.1463 27.4169 21.0578 27.3144 20.9976L27.3056 20.9927L27.415 20.8248C27.4501 20.8454 27.4836 20.8677 27.5146 20.8931L27.415 20.8248L27.3056 20.9927C27.2106 20.9306 27.0823 20.8922 26.9091 20.8922C26.7276 20.8922 26.5591 20.9466 26.4003 21.0591C26.3302 21.1082 26.2901 21.1561 26.2158 21.2379C26.1408 21.3202 26.0464 21.4167 25.8837 21.5289C25.742 21.6262 25.5808 21.6185 25.4521 21.5738C25.3248 21.5296 25.208 21.4442 25.1152 21.3482C25.0218 21.2516 24.9407 21.132 24.8945 21.0054C24.8492 20.8811 24.8303 20.7254 24.8984 20.5806C24.9938 20.3783 25.1723 20.2096 25.3476 20.0777C25.526 19.9436 25.7223 19.8312 25.8759 19.7476L26.0077 19.6812C26.3209 19.5364 26.6765 19.4664 27.0693 19.4664ZM25.0634 26.2779C25.078 26.3019 25.095 26.3194 25.1142 26.3277L25.1464 26.3336C25.2373 26.3259 26.1727 26.3258 27.1406 26.3277L29.33 26.3336C28.8862 26.3335 25.3271 26.3182 25.1464 26.3336C25.1136 26.3363 25.0857 26.3144 25.0634 26.2779ZM29.4794 25.2838C29.499 25.2977 29.5167 25.3146 29.5331 25.3336C29.4987 25.2939 29.458 25.2641 29.4101 25.2486L29.4794 25.2838ZM27.8984 24.2359C27.8399 24.3084 27.7818 24.379 27.7226 24.4478C27.7349 24.4335 27.7484 24.4202 27.7607 24.4058L27.8984 24.2359ZM27.8456 21.7447L27.8408 21.8716C27.8356 21.9374 27.8254 22.0039 27.8124 22.0718C27.8339 21.9595 27.8456 21.8511 27.8456 21.7447ZM25.9667 21.2037C25.9829 21.1884 25.9994 21.1752 26.0136 21.1607L26.0683 21.1021C26.0387 21.1346 26.0052 21.1673 25.9667 21.2037ZM25.2646 20.4127C25.2599 20.4174 25.2555 20.4225 25.2509 20.4273C25.2813 20.3957 25.3134 20.3644 25.3476 20.3345L25.2646 20.4127Z" fill="#5135FF"/>
</svg>
