<svg width="32" height="32" viewBox="0 0 32 32" fill="none" xmlns="http://www.w3.org/2000/svg">
<g opacity="0.45">
<path d="M15.2229 9H16.7784V20.6667H15.2229V9Z" fill="#5135FF"/>
<path d="M11.186 12.9794L11.9638 11.6322L15.3317 13.5767L14.5539 14.9238L11.186 12.9794Z" fill="#5135FF"/>
<path d="M20.8152 12.9794L20.0374 11.6322L16.6696 13.5767L17.4473 14.9238L20.8152 12.9794Z" fill="#5135FF"/>
</g>
<path d="M18.3335 15.2222C18.3335 16.5108 17.2888 17.5555 16.0002 17.5555C14.7115 17.5555 13.6668 16.5108 13.6668 15.2222C13.6668 13.9335 14.7115 12.8888 16.0002 12.8888C17.2888 12.8888 18.3335 13.9335 18.3335 15.2222Z" fill="#5135FF"/>
<path d="M12.8891 12.1109C12.8891 12.97 12.1926 13.6665 11.3335 13.6665C10.4744 13.6665 9.77795 12.97 9.77795 12.1109C9.77795 11.2518 10.4744 10.5553 11.3335 10.5553C12.1926 10.5553 12.8891 11.2518 12.8891 12.1109Z" fill="#5135FF"/>
<path d="M22.2224 12.1109C22.2224 12.97 21.526 13.6665 20.6669 13.6665C19.8078 13.6665 19.1113 12.97 19.1113 12.1109C19.1113 11.2518 19.8078 10.5553 20.6669 10.5553C21.526 10.5553 22.2224 11.2518 22.2224 12.1109Z" fill="#5135FF"/>
<path d="M17.5558 8.99989C17.5558 9.859 16.8594 10.5554 16.0002 10.5554C15.1411 10.5554 14.4447 9.859 14.4447 8.99989C14.4447 8.14078 15.1411 7.44434 16.0002 7.44434C16.8594 7.44434 17.5558 8.14078 17.5558 8.99989Z" fill="#5135FF"/>
<path d="M17.5558 21.4444C17.5558 22.3035 16.8594 22.9999 16.0002 22.9999C15.1411 22.9999 14.4447 22.3035 14.4447 21.4444C14.4447 20.5853 15.1411 19.8888 16.0002 19.8888C16.8594 19.8888 17.5558 20.5853 17.5558 21.4444Z" fill="#5135FF"/>
<path fill-rule="evenodd" clip-rule="evenodd" d="M6.76318 23.7774C6.27993 23.7774 5.88818 24.1692 5.88818 24.6524V29.1246C5.88818 29.6079 6.27994 29.9996 6.76318 29.9996H25.2354C25.7187 29.9996 26.1104 29.6079 26.1104 29.1246V24.6524C26.1104 24.1692 25.7187 23.7774 25.2354 23.7774H6.76318ZM20.3264 25.3329C20.0848 25.3329 19.8889 25.5288 19.8889 25.7704V28.0065C19.8889 28.2481 20.0848 28.444 20.3264 28.444H22.5625C22.8042 28.444 23 28.2481 23 28.0065V25.7704C23 25.5288 22.8042 25.3329 22.5625 25.3329H20.3264ZM12.8889 26.8885C12.8889 27.7476 12.1925 28.444 11.3334 28.444C10.4743 28.444 9.77781 27.7476 9.77781 26.8885C9.77781 26.0294 10.4743 25.3329 11.3334 25.3329C12.1925 25.3329 12.8889 26.0294 12.8889 26.8885ZM17.6839 28.2496L16 25.3329L14.3161 28.2496H17.6839Z" fill="#5135FF"/>
<g opacity="0.45">
<path fill-rule="evenodd" clip-rule="evenodd" d="M24.618 19.1111C27.5782 19.1111 29.9925 16.9849 30 14.3747C29.9711 13.4039 29.6437 12.4637 29.0616 11.6824C28.4794 10.9011 27.6704 10.316 26.7426 10.0029C26.6499 8.89761 26.331 7.82195 25.8053 6.84281C25.2796 5.86367 24.5582 5.00139 23.6851 4.3075C21.8193 2.79905 19.4805 1.98227 17.0725 2.00029C16.8563 2.00029 16.6454 2.00728 16.4457 2.01918C12.5478 2.24309 9.19928 4.48638 7.91702 7.73344C7.03394 7.78863 6.17078 8.01718 5.37705 8.40468C4.58332 8.79218 3.87498 9.33106 3.29272 9.99125C2.82756 10.5243 2.47526 11.1455 2.25679 11.8161C2.03833 12.4867 1.95789 13.1932 2.02072 13.8952C2.16847 15.2801 2.84568 16.5564 3.91333 17.4621C5.04256 18.4283 6.27778 19.1111 8.22222 19.1111H24.618Z" fill="#5135FF"/>
<path d="M19.8881 25.7709C19.8881 25.5293 20.084 25.3334 20.3256 25.3334H22.5617C22.8033 25.3334 22.9992 25.5293 22.9992 25.7709V28.007C22.9992 28.2486 22.8033 28.4445 22.5617 28.4445H20.3256C20.084 28.4445 19.8881 28.2486 19.8881 28.007V25.7709Z" fill="#5135FF"/>
<path d="M12.8881 26.889C12.8881 27.7481 12.1916 28.4445 11.3325 28.4445C10.4734 28.4445 9.77696 27.7481 9.77696 26.889C9.77696 26.0298 10.4734 25.3334 11.3325 25.3334C12.1916 25.3334 12.8881 26.0298 12.8881 26.889Z" fill="#5135FF"/>
<path d="M15.9992 25.3334L17.6831 28.2501H14.3152L15.9992 25.3334Z" fill="#5135FF"/>
</g>
</svg>
