<svg width="32" height="32" viewBox="0 0 32 32" fill="none" xmlns="http://www.w3.org/2000/svg">
<path opacity="0.45" d="M15.9933 31C15.9103 31 15.828 30.9854 15.7503 30.9567L13.4832 30.0975C11.6361 29.3951 9.92409 28.3864 8.42077 27.1149C6.85437 25.7817 5.61547 24.1141 4.79779 22.2382L4.19874 20.8874C3.73802 19.8297 3.40553 18.722 3.20819 17.5873C2.7376 14.9002 2.50077 12.1783 2.5003 9.45136V7.53966C2.49453 7.26047 2.57125 6.98567 2.7211 6.74887C2.87095 6.51206 3.08742 6.32353 3.34404 6.20631L15.7368 1.05374C15.8199 1.01829 15.9095 1 16 1C16.0906 1 16.1801 1.01829 16.2633 1.05374L28.656 6.20881C28.9122 6.32494 29.1285 6.51241 29.2784 6.74823C29.4283 6.98405 29.5052 7.25795 29.4997 7.53633V8.74968C29.4997 10.478 29.4154 12.2289 29.2525 13.9531C28.9304 13.6148 28.5418 13.3449 28.1105 13.16C27.6792 12.975 27.2143 12.8788 26.7441 12.8772H23.1633C22.1854 12.9073 21.2595 13.3188 20.588 14.0216C19.9166 14.7244 19.5545 15.6613 19.5808 16.6273V20.3773C19.5783 21.2613 19.881 22.1196 20.4389 22.8107C20.9701 23.4723 21.7255 23.9218 22.5659 24.0766V27.9008C21.3177 28.8116 19.9506 29.5517 18.5017 30.1008L16.2363 30.9558C16.1586 30.9848 16.0763 30.9998 15.9933 31Z" fill="#5135FF"/>
<path d="M29.2884 20.3755C29.3002 21.0267 29.0497 21.6558 28.5919 22.1246C28.1342 22.5934 27.5068 22.8635 26.8475 22.8756H25.6275V24.1256H27.2247C27.3355 24.1256 27.4452 24.1472 27.5475 24.189C27.6499 24.2309 27.7429 24.2923 27.8213 24.3697C27.8996 24.4471 27.9618 24.5389 28.0042 24.64C28.0466 24.7411 28.0684 24.8495 28.0684 24.9589V25.1656C28.0684 25.3866 27.9795 25.5986 27.8213 25.7549C27.663 25.9112 27.4484 25.999 27.2247 25.999H25.6275V27.249H27.2247C27.3355 27.249 27.4452 27.2705 27.5475 27.3124C27.6499 27.3543 27.7429 27.4157 27.8213 27.4931C27.8996 27.5704 27.9618 27.6623 28.0042 27.7634C28.0466 27.8645 28.0684 27.9729 28.0684 28.0823V28.2907C28.0684 28.5117 27.9795 28.7236 27.8213 28.8799C27.663 29.0362 27.4484 29.124 27.2247 29.124H25.6275V30.1657C25.6275 30.3867 25.5386 30.5987 25.3804 30.7549C25.2221 30.9112 25.0075 30.999 24.7837 30.999H24.6403C24.4165 30.999 24.2019 30.9112 24.0437 30.7549C23.8855 30.5987 23.7966 30.3867 23.7966 30.1657V22.8747H23.1874C22.5281 22.8627 21.9007 22.5926 21.443 22.1238C20.9853 21.655 20.7347 21.0259 20.7465 20.3747V16.6247C20.7347 15.9735 20.9853 15.3444 21.443 14.8756C21.9007 14.4068 22.5281 14.1367 23.1874 14.1246H26.8484C27.5076 14.1367 28.1351 14.4068 28.5928 14.8756C29.0505 15.3444 29.301 15.9735 29.2893 16.6247L29.2884 20.3755ZM26.8484 20.9989C27.0131 20.9958 27.1699 20.9283 27.2843 20.8111C27.3987 20.6939 27.4613 20.5366 27.4584 20.3739V16.6238C27.4613 16.4611 27.3987 16.3038 27.2843 16.1866C27.1699 16.0694 27.0131 16.0019 26.8484 15.9988H23.1874C23.0225 16.0019 22.8657 16.0694 22.7511 16.1866C22.6366 16.3037 22.5738 16.461 22.5765 16.6238V20.3739C22.5738 20.5367 22.6366 20.694 22.7511 20.8111C22.8657 20.9283 23.0225 20.9958 23.1874 20.9989H26.8484Z" fill="#5135FF"/>
</svg>
