<svg width="32" height="32" viewBox="0 0 32 32" fill="none" xmlns="http://www.w3.org/2000/svg">
<path opacity="0.45" d="M27.1558 23.344H13.8188C13.636 22.7277 13.3614 22.1425 13.0044 21.608C12.4605 20.8044 11.7159 20.157 10.8445 19.7302C10.6253 19.6216 10.3998 19.526 10.1692 19.4441C10.9027 18.8 11.3904 17.9215 11.5495 16.9583C11.7085 15.995 11.529 15.0064 11.0415 14.1605C10.554 13.3147 9.78859 12.664 8.87551 12.3189C7.96242 11.9739 6.95803 11.956 6.0332 12.2681L6.0332 8.33057H28.9054V21.594C28.9054 21.8238 28.8601 22.0514 28.7722 22.2637C28.6843 22.476 28.5554 22.6689 28.3929 22.8314C28.2305 22.994 28.0376 23.1229 27.8253 23.2108C27.6131 23.2987 27.3856 23.344 27.1558 23.344Z" fill="#5135FF"/>
<g opacity="0.75">
<path d="M17.4567 14.0114H25.8731C25.9891 14.0114 26.1003 14.0575 26.1823 14.1395C26.2644 14.2216 26.3105 14.3329 26.3105 14.4489V15.0037C26.3105 15.1197 26.2644 15.231 26.1823 15.313C26.1003 15.3951 25.9891 15.4412 25.8731 15.4412H17.4567C17.3407 15.4412 17.2295 15.3951 17.1475 15.313C17.0654 15.231 17.0193 15.1197 17.0193 15.0037V14.4489C17.0193 14.3329 17.0654 14.2216 17.1475 14.1395C17.2295 14.0575 17.3407 14.0114 17.4567 14.0114Z" fill="#5135FF"/>
<path d="M26.0638 10.4072H17.3159C17.0743 10.4072 16.8785 10.6031 16.8785 10.8447V11.7197C16.8785 11.9614 17.0743 12.1572 17.3159 12.1572H26.0638C26.3053 12.1572 26.5012 11.9614 26.5012 11.7197V10.8447C26.5012 10.6031 26.3053 10.4072 26.0638 10.4072Z" fill="#5135FF"/>
<path d="M13.5072 11.7697L14.1357 12.3984C14.3524 12.6151 14.7036 12.6151 14.9202 12.3984C15.1368 12.1818 15.1368 11.8305 14.9202 11.6138L14.2916 10.9851C14.075 10.7684 13.7238 10.7684 13.5072 10.9851C13.2906 11.2018 13.2906 11.5531 13.5072 11.7697Z" fill="#5135FF"/>
<path d="M15.1281 10.6212L14.1357 11.6136C13.9191 11.8302 13.9191 12.1818 14.1357 12.3984C14.3524 12.6151 14.7036 12.6151 14.9202 12.3984L15.9127 11.4057C16.1293 11.1891 16.1293 10.8378 15.9127 10.6212C15.696 10.4045 15.3448 10.4045 15.1281 10.6212Z" fill="#5135FF"/>
<path d="M13.5072 14.9863L14.1357 15.615C14.3524 15.8317 14.7036 15.8317 14.9202 15.615C15.1368 15.3983 15.1368 15.047 14.9202 14.8303L14.2916 14.2016C14.075 13.985 13.7238 13.985 13.5072 14.2016C13.2906 14.4183 13.2906 14.7696 13.5072 14.9863Z" fill="#5135FF"/>
<path d="M15.1281 13.8377L14.1357 14.8301C13.9191 15.0468 13.9191 15.3983 14.1357 15.615C14.3524 15.8317 14.7036 15.8317 14.9202 15.615L15.9127 14.6223C16.1293 14.4056 16.1293 14.0544 15.9127 13.8377C15.696 13.6211 15.3448 13.6211 15.1281 13.8377Z" fill="#5135FF"/>
</g>
<path d="M28.9051 8.33077H6.03297V6.50637C6.03297 6.04224 6.2173 5.59711 6.5454 5.26892C6.87351 4.94072 7.31852 4.75635 7.78254 4.75635H27.1556C27.6196 4.75635 28.0646 4.94072 28.3927 5.26892C28.7208 5.59711 28.9051 6.04224 28.9051 6.50637V8.33077ZM13.5404 6.18612C13.3986 6.18542 13.2599 6.22686 13.1417 6.30516C13.0235 6.38346 12.9313 6.49511 12.8766 6.62594C12.822 6.75677 12.8074 6.90088 12.8348 7.04C12.8621 7.17912 12.9302 7.30698 13.0303 7.40736C13.1304 7.50775 13.258 7.57613 13.3971 7.60383C13.5361 7.63154 13.6802 7.61732 13.8111 7.56298C13.942 7.50864 14.0539 7.41663 14.1325 7.29862C14.211 7.18061 14.2528 7.04191 14.2525 6.90013C14.252 6.7112 14.1769 6.53012 14.0435 6.39637C13.9101 6.26262 13.7293 6.18704 13.5404 6.18612ZM11.3945 6.18612C11.2529 6.18612 11.1145 6.22814 10.9968 6.30687C10.8791 6.38559 10.7874 6.49748 10.7333 6.62837C10.6792 6.75926 10.6651 6.90327 10.6928 7.04216C10.7206 7.18105 10.7889 7.30858 10.8892 7.40861C10.9894 7.50864 11.1171 7.57668 11.256 7.6041C11.3949 7.63152 11.5389 7.61709 11.6696 7.56265C11.8003 7.50821 11.9119 7.41619 11.9904 7.29826C12.0688 7.18032 12.1105 7.04176 12.1101 6.90013C12.1096 6.71045 12.0339 6.52871 11.8996 6.39483C11.7653 6.26095 11.5833 6.18588 11.3937 6.18612H11.3945ZM9.24868 6.18612C9.10708 6.18612 8.96866 6.22814 8.85095 6.30687C8.73323 6.38559 8.64152 6.49748 8.58741 6.62837C8.5333 6.75926 8.51923 6.90327 8.54699 7.04216C8.57474 7.18105 8.64306 7.30858 8.74331 7.40861C8.84356 7.50864 8.97123 7.57668 9.11015 7.6041C9.24908 7.63152 9.39301 7.61709 9.52373 7.56265C9.65446 7.50821 9.76609 7.41619 9.84451 7.29826C9.92293 7.18032 9.9646 7.04176 9.96426 6.90013C9.96426 6.80621 9.94573 6.71322 9.90975 6.62648C9.87377 6.53974 9.82103 6.46095 9.75456 6.39463C9.68809 6.3283 9.60919 6.27574 9.52239 6.23996C9.43558 6.20419 9.34257 6.18589 9.24868 6.18612Z" fill="#5135FF"/>
<path d="M2.0072 26.3709V25.9334C1.94958 24.6427 2.23866 23.3601 2.84437 22.219C3.2399 21.5682 3.80876 21.0404 4.48722 20.6947C5.39757 20.2572 6.39945 20.0441 7.40901 20.0734C8.42948 20.0468 9.44229 20.2564 10.3684 20.6859C11.074 21.0307 11.6771 21.5541 12.118 22.2041C12.8111 23.3393 13.1583 24.652 13.117 25.9815V26.3674L2.0072 26.3709ZM4.23003 16.2689C4.23003 15.6459 4.41473 15.0368 4.76077 14.5188C5.10681 14.0008 5.59866 13.597 6.1741 13.3586C6.74955 13.1202 7.38276 13.0578 7.99365 13.1794C8.60454 13.3009 9.16568 13.6009 9.6061 14.0415C10.0465 14.482 10.3465 15.0433 10.468 15.6543C10.5895 16.2654 10.5271 16.8987 10.2888 17.4743C10.0504 18.0499 9.64677 18.5419 9.12888 18.888C8.61099 19.2342 8.00212 19.4189 7.37926 19.4189C6.54403 19.4189 5.74302 19.087 5.15242 18.4963C4.56182 17.9055 4.23003 17.1043 4.23003 16.2689Z" fill="#5135FF"/>
<path d="M25.3073 16.3221C25.2779 16.3095 25.2462 16.303 25.2142 16.303C25.1821 16.303 25.1505 16.3095 25.121 16.3221L20.727 18.2025C20.6353 18.2454 20.5582 18.3141 20.5051 18.4002C20.4519 18.4863 20.4251 18.5861 20.4278 18.6872V19.1247C20.4267 20.1612 20.5056 21.1962 20.664 22.2205C20.7415 22.7201 20.8811 23.2081 21.0795 23.6731L21.2413 24.0519C21.53 24.7335 21.9697 25.3406 22.5273 25.8273C23.0592 26.2903 23.6667 26.6585 24.3232 26.9158L25.1263 27.2282C25.1823 27.2511 25.2451 27.2511 25.3012 27.2282L26.1051 26.9158C26.7615 26.6586 27.3687 26.2904 27.9002 25.8273C28.4579 25.3399 28.8974 24.7319 29.1853 24.0493L29.3978 23.5567C29.561 23.1704 29.6785 22.7663 29.7478 22.3527C29.9153 21.3725 29.9992 20.3799 29.9988 19.3855V18.6855C30.0009 18.5845 29.9737 18.485 29.9207 18.399C29.8676 18.313 29.7909 18.2442 29.6996 18.2007L25.3073 16.3221Z" fill="#5135FF"/>
<path d="M25.1294 22.6179L23.6118 21.1C23.3788 20.8669 23.0011 20.8667 22.7683 21.0997C22.5354 21.3326 22.5356 21.7103 22.7686 21.9434L24.2861 23.4613C24.5192 23.6944 24.8968 23.6945 25.1297 23.4616C25.3625 23.2287 25.3624 22.851 25.1294 22.6179Z" fill="white"/>
<path d="M26.8153 20.087L24.2863 22.6167C24.0533 22.8498 24.0531 23.2275 24.286 23.4604C24.5188 23.6933 24.8965 23.6932 25.1295 23.4601L27.6585 20.9304C27.8915 20.6974 27.8917 20.3196 27.6588 20.0867C27.426 19.8538 27.0483 19.8539 26.8153 20.087Z" fill="white"/>
</svg>
