<svg width="32" height="32" viewBox="0 0 32 32" fill="none" xmlns="http://www.w3.org/2000/svg">
<path opacity="0.45" d="M14.8345 23.0096C14.4889 22.8346 14.1695 22.6596 13.9595 22.5301C13.017 21.9505 12.1347 21.278 11.3258 20.5229C10.5693 19.8439 9.97585 19.0028 9.5898 18.0624C9.56205 18.0024 9.53109 17.944 9.49705 17.8874L9.47255 17.8436C9.47255 17.8375 9.46205 17.8331 9.4463 17.8244L9.40342 17.7981L9.34655 18.1044C9.3098 18.3039 9.27392 18.499 9.23805 18.6941C9.22055 18.7939 9.2048 18.8954 9.18992 18.9934C9.16366 19.1946 9.12597 19.3941 9.07705 19.591C9.04743 19.7274 8.98483 19.8544 8.89472 19.9609C8.80461 20.0674 8.68975 20.1502 8.56021 20.202C8.43066 20.2539 8.29038 20.2731 8.15166 20.2581C8.01295 20.2431 7.88003 20.1943 7.76455 20.116C7.47461 19.9161 7.22422 19.6643 7.02605 19.3731C6.56901 18.677 6.29126 17.8786 6.21755 17.0491C6.09415 16.1194 6.15149 15.1746 6.38642 14.2666C6.44767 14.0339 6.5168 13.8003 6.5833 13.5736C6.6568 13.3251 6.73205 13.0688 6.7968 12.815C6.8054 12.7628 6.80257 12.7093 6.78853 12.6582C6.77448 12.6072 6.74954 12.5598 6.71542 12.5193C6.05367 11.7493 5.56917 10.8433 5.29617 9.86539C5.2323 9.68427 5.17455 9.49789 5.12117 9.31764C5.04242 9.06302 4.96105 8.79964 4.85867 8.54852C4.72942 8.22848 4.56539 7.9236 4.36955 7.63939C4.19455 7.37689 3.99592 7.12752 3.80517 6.88339C3.68967 6.73464 3.5698 6.58152 3.45517 6.42752C3.14556 6.06812 2.94545 5.62752 2.87855 5.15789C2.85989 4.97804 2.87881 4.79627 2.93408 4.62411C2.98936 4.45195 3.0798 4.29314 3.19967 4.15777C3.32365 4.02652 3.47352 3.92244 3.6398 3.8521C3.80608 3.78176 3.98515 3.74671 4.16567 3.74914H4.19367C4.87135 3.77971 5.53065 3.97912 6.11167 4.32927C6.47562 4.53455 6.82631 4.7625 7.16167 5.01177L7.2378 5.06602C7.40692 5.20852 7.6188 5.29044 7.8398 5.29877C8.78018 5.26838 9.71306 5.47542 10.5523 5.90077C11.4368 6.3936 12.2848 6.94919 13.0898 7.56327C14.6636 8.76002 15.9742 10.268 16.9398 11.9934C17.1205 12.325 17.2778 12.6689 17.4105 13.0224C17.498 13.2403 17.5855 13.4643 17.6888 13.6795C18.0187 14.3865 18.3529 15.0883 18.6758 15.7664C18.4548 15.7318 18.2288 15.7514 18.0171 15.8235C17.8054 15.8956 17.6143 16.018 17.4604 16.1803L16.5714 17.0693C16.3526 17.2896 16.2127 17.5761 16.1733 17.8841C16.1339 18.1921 16.1973 18.5045 16.3535 18.7729L16.791 19.549C16.7604 19.6199 16.7324 19.6908 16.7035 19.7651L16.6878 19.8063L15.8242 20.0443L15.8032 20.0513H15.7944C15.5056 20.139 15.2523 20.3167 15.0714 20.5585C14.8906 20.8002 14.7917 21.0934 14.789 21.3953V22.678C14.7891 22.7897 14.802 22.9009 14.8275 23.0096H14.8345ZM7.91155 7.65164C7.78587 7.64942 7.66293 7.68846 7.56155 7.76277L7.97192 8.33502L8.37442 8.89677C8.43354 8.85898 8.48353 8.80853 8.52075 8.74906C8.55798 8.68958 8.58152 8.62258 8.58967 8.55289C8.61068 8.44254 8.60797 8.32898 8.58172 8.21976C8.55547 8.11054 8.50628 8.00815 8.43742 7.91939C8.37818 7.83533 8.29931 7.767 8.20767 7.72034C8.11602 7.67368 8.01438 7.6501 7.91155 7.65164Z" fill="#5135FF"/>
<path d="M23.0938 28.7063H21.8119C21.7199 28.7042 21.6308 28.6732 21.5575 28.6176C21.4841 28.5619 21.4301 28.4846 21.4033 28.3965L21.0367 27.0578C20.5799 26.8828 20.3848 26.8005 19.9587 26.6203L19.8957 26.594L18.6838 27.2853C18.6231 27.3238 18.5527 27.3441 18.4808 27.3439C18.3665 27.3421 18.2576 27.2956 18.1772 27.2144L17.275 26.3114C17.2069 26.2479 17.1627 26.1628 17.15 26.0706C17.1372 25.9783 17.1567 25.8844 17.205 25.8048L17.8954 24.5929C17.7204 24.1388 17.6329 23.9323 17.4579 23.5219L17.4282 23.4519L16.0912 23.0844C16.0007 23.0617 15.9207 23.0089 15.8644 22.9346C15.8081 22.8603 15.7788 22.769 15.7814 22.6758V21.3939C15.7835 21.3019 15.8145 21.2128 15.8701 21.1395C15.9258 21.0661 16.0031 21.0122 16.0912 20.9853L17.4299 20.6187C17.6049 20.1645 17.6924 19.958 17.8674 19.5468L17.8972 19.4768L17.205 18.2658C17.1578 18.1859 17.139 18.0923 17.1517 18.0003C17.1644 17.9083 17.2079 17.8233 17.275 17.7592L18.1772 16.857C18.2143 16.8162 18.2595 16.7837 18.31 16.7615C18.3605 16.7394 18.4151 16.7281 18.4703 16.7284C18.5457 16.7286 18.6197 16.7488 18.6847 16.787L19.8939 17.4765C20.3507 17.3015 20.5458 17.2193 20.9719 17.039L21.034 17.0128L21.4033 15.6732C21.4261 15.5828 21.479 15.5029 21.5533 15.4466C21.6275 15.3903 21.7187 15.361 21.8119 15.3634H23.0938C23.1858 15.3655 23.2749 15.3965 23.3482 15.4522C23.4216 15.5078 23.4756 15.5851 23.5024 15.6732L23.8682 17.0119C24.3223 17.1869 24.5288 17.2744 24.94 17.4494L25.01 17.4792L26.2219 16.7888C26.2829 16.7502 26.3536 16.7299 26.4258 16.7302C26.5399 16.7318 26.6489 16.778 26.7294 16.8588L27.6307 17.7609C27.6987 17.8245 27.7428 17.9095 27.7557 18.0017C27.7686 18.0939 27.7495 18.1877 27.7015 18.2675L27.0112 19.4759C27.1862 19.9397 27.2737 20.1374 27.4565 20.5723L27.4758 20.6178L28.8145 20.9844C28.9028 21.0111 28.9803 21.065 29.0361 21.1384C29.0918 21.2118 29.123 21.3009 29.1252 21.393V22.6758C29.123 22.7679 29.0918 22.8571 29.0361 22.9304C28.9803 23.0038 28.9028 23.0577 28.8145 23.0844L27.4758 23.451C27.3008 23.9192 27.2133 24.1204 27.0243 24.5614L27.0112 24.5929L27.7015 25.8048C27.7485 25.8849 27.7671 25.9785 27.7542 26.0704C27.7414 26.1624 27.6978 26.2473 27.6307 26.3114L26.7294 27.2135C26.6922 27.2545 26.6468 27.2872 26.5962 27.3095C26.5455 27.3318 26.4907 27.3432 26.4354 27.343C26.3603 27.3427 26.2867 27.3225 26.2219 27.2844L25.01 26.5932C24.5559 26.7682 24.3494 26.8557 23.939 27.0307L23.869 27.0604L23.5033 28.4009C23.4796 28.4906 23.4262 28.5696 23.3518 28.6251C23.2775 28.6806 23.1865 28.7092 23.0938 28.7063ZM22.413 19.8259C21.9804 19.8259 21.5575 19.9542 21.1977 20.1946C20.838 20.4349 20.5576 20.7766 20.392 21.1763C20.2265 21.576 20.1832 22.0158 20.2676 22.4402C20.352 22.8645 20.5603 23.2543 20.8662 23.5602C21.1722 23.8661 21.5619 24.0745 21.9863 24.1589C22.4106 24.2433 22.8504 24.2 23.2502 24.0344C23.6499 23.8688 23.9915 23.5885 24.2319 23.2287C24.4722 22.869 24.6005 22.4461 24.6005 22.0134C24.6005 21.4333 24.3701 20.8769 23.9598 20.4666C23.5496 20.0564 22.9932 19.8259 22.413 19.8259Z" fill="#5135FF"/>
</svg>
